# Blender v2.78 (sub 0) OBJ File: ''
# www.blender.org
mtllib Amerikan_futbol_sahasi.mtl
o Curve_Curve.044
v 0.000000 0.600000 -0.448933
v -1.000000 0.600000 -0.448933
v 1.000000 0.600000 0.000000
v -1.000000 0.000000 -0.448933
v 1.000000 0.000000 -0.000000
v -1.000000 -0.000000 0.448933
v 1.000000 -0.000000 0.448933
v 0.000000 -0.000000 0.448933
v 1.000000 0.600000 -0.448933
v 1.000000 0.000000 -0.448933
v 0.000000 0.000000 -0.448933
v 1.000000 0.600000 0.448933
v 0.000000 0.600000 0.448933
v -1.000000 0.600000 0.448933
v -1.000000 0.600000 0.000000
v -1.000000 0.000000 -0.000000
vt 0.5692 0.9688
vt 0.7344 0.5000
vt 0.7344 0.9688
vt 0.7344 0.0312
vt 0.5692 0.0312
vt 0.4040 0.9688
vt 0.4040 0.0312
vt 0.0000 0.0000
vt 0.0000 0.0000
vt 0.0000 0.0000
vt 0.0245 0.5000
vt 0.1897 0.9688
vt 0.0245 0.9688
vt 0.0245 0.0312
vt 0.1897 0.0312
vt 0.3550 0.9688
vt 0.3550 0.0312
vt 0.0000 0.0000
vt 0.0000 0.0000
vt 0.0000 0.0000
vt 0.8638 0.5000
vt 0.8638 0.0312
vt 0.8951 0.0312
vt 0.8951 0.5000
vt 0.9755 0.5146
vt 0.9755 0.7251
vt 0.9442 0.7251
vt 0.9442 0.5146
vt 0.9755 0.9355
vt 0.9442 0.9355
vt 0.8148 0.0312
vt 0.8148 0.5000
vt 0.7835 0.5000
vt 0.7835 0.0312
vt 0.8148 0.9688
vt 0.7835 0.9688
vt 0.9755 0.0312
vt 0.9755 0.2417
vt 0.9442 0.2417
vt 0.9442 0.0312
vt 0.9755 0.4521
vt 0.9442 0.4521
vt 0.8638 0.9688
vt 0.8951 0.9688
vn 0.0000 1.0000 0.0000
vn 0.0000 0.0000 1.0000
vn 0.0000 -1.0000 -0.0000
vn 0.0000 0.0000 -1.0000
vn 0.7071 0.0000 -0.7071
vn 1.0000 0.0000 0.0000
vn 0.7071 -0.0000 0.7071
vn -0.7071 -0.0000 0.7071
vn -1.0000 0.0000 0.0000
vn -0.7071 0.0000 -0.7071
usemtl None
s off
f 15/1/1 1/2/1 2/3/1
f 15/1/1 9/4/1 1/2/1
f 15/1/1 3/5/1 9/4/1
f 14/6/1 3/5/1 15/1/1
f 14/6/1 12/7/1 3/5/1
f 13/8/2 12/9/2 14/10/2
f 11/11/3 16/12/3 4/13/3
f 10/14/3 16/12/3 11/11/3
f 5/15/3 16/12/3 10/14/3
f 5/15/3 6/16/3 16/12/3
f 7/17/3 6/16/3 5/15/3
f 7/18/2 8/19/2 6/20/2
s 1
f 1/21/4 9/22/5 10/23/5 11/24/4
f 9/25/5 3/26/6 5/27/6 10/28/5
f 3/26/6 12/29/7 7/30/7 5/27/6
f 12/31/7 13/32/2 8/33/2 7/34/7
f 13/32/2 14/35/8 6/36/8 8/33/2
f 14/37/8 15/38/9 16/39/9 6/40/8
f 15/38/9 2/41/10 4/42/10 16/39/9
f 2/43/10 1/21/4 11/24/4 4/44/10
