# Blender v2.78 (sub 0) OBJ File: ''
# www.blender.org
mtllib Cadir.mtl
o Cadir:ID102_Cadir:SketchUp_Cadir:group_0_Cadir:polySurface1.001
v -0.251560 0.103356 0.077865
v -0.262285 0.028373 0.091756
v -0.335413 0.103356 0.077865
v -0.361273 0.005648 0.095966
v -0.354047 0.005648 0.095966
v -0.265535 0.005648 0.095966
v -0.262285 0.028373 0.091756
v 0.262285 0.028373 0.091756
v -0.265535 0.005648 0.095966
v 0.265535 0.005648 0.095966
v -0.292074 0.191359 0.047528
v -0.251560 0.103356 0.077865
v -0.335413 0.103356 0.077865
v -0.219056 0.191359 0.047528
v -0.361273 0.005648 0.088741
v -0.335413 0.103356 0.077865
v -0.361273 0.005648 0.095966
v -0.361273 0.005648 -0.402590
v -0.335413 0.103356 -0.391714
v -0.361273 0.005648 -0.409815
v 0.251560 0.103356 0.077865
v 0.335413 0.103356 0.077865
v 0.262285 0.028373 0.091756
v 0.265535 0.005648 0.095966
v 0.354047 0.005648 0.095966
v 0.361272 0.005648 0.095966
v -0.233513 0.265071 0.006537
v -0.219056 0.191359 0.047528
v -0.292074 0.191359 0.047528
v -0.175135 0.265071 0.006537
v -0.335413 0.103356 -0.391714
v -0.292074 0.191359 0.047528
v -0.335413 0.103356 0.077865
v -0.292074 0.191359 -0.361375
v 0.348343 0.054502 -0.400765
v 0.354047 0.005648 -0.409815
v 0.361272 0.005648 -0.409815
v -0.354047 0.005648 -0.409815
v -0.361273 0.005648 -0.409815
v -0.335413 0.103356 -0.391714
v 0.335413 0.103356 -0.391714
v 0.219055 0.191359 0.047528
v 0.335413 0.103356 0.077865
v 0.251560 0.103356 0.077865
v 0.292074 0.191359 0.047528
v 0.335413 0.103356 0.077865
v 0.361272 0.005648 0.088741
v 0.361272 0.005648 0.095966
v 0.361272 0.005648 -0.402590
v 0.335413 0.103356 -0.391714
v 0.348343 0.054502 -0.400765
v 0.361272 0.005648 -0.409815
v -0.162783 0.320651 -0.042974
v -0.175135 0.265071 0.006537
v -0.233513 0.265071 0.006537
v 0.000000 0.320651 -0.042974
v -0.292074 0.191359 -0.361375
v -0.233513 0.265071 0.006537
v -0.292074 0.191359 0.047528
v -0.233513 0.265071 -0.320383
v 0.292074 0.191359 -0.361375
v -0.335413 0.103356 -0.391714
v 0.335413 0.103356 -0.391714
v -0.292074 0.191359 -0.361375
v 0.175135 0.265071 0.006537
v 0.292074 0.191359 0.047528
v 0.219055 0.191359 0.047528
v 0.233513 0.265071 0.006537
v 0.292074 0.191359 0.047528
v 0.335413 0.103356 -0.391714
v 0.335413 0.103356 0.077865
v 0.292074 0.191359 -0.361375
v -0.083569 0.355201 -0.098424
v 0.000000 0.320651 -0.042974
v -0.162783 0.320651 -0.042974
v 0.083569 0.355201 -0.098424
v 0.162783 0.320651 -0.042974
v -0.233513 0.265071 -0.320383
v -0.162783 0.320651 -0.042974
v -0.233513 0.265071 0.006537
v -0.162783 0.320651 -0.270871
v 0.233513 0.265071 -0.320383
v -0.292074 0.191359 -0.361375
v 0.292074 0.191359 -0.361375
v -0.233513 0.265071 -0.320383
v 0.000000 0.320651 -0.042974
v 0.233513 0.265071 0.006537
v 0.175135 0.265071 0.006537
v 0.162783 0.320651 -0.042974
v 0.233513 0.265071 0.006537
v 0.292074 0.191359 -0.361375
v 0.292074 0.191359 0.047528
v 0.233513 0.265071 -0.320383
v -0.162783 0.320651 -0.270871
v -0.083569 0.355201 -0.098424
v -0.162783 0.320651 -0.042974
v -0.083569 0.355201 -0.215421
v 0.162783 0.320651 -0.270871
v 0.083569 0.355201 -0.098424
v 0.083569 0.355201 -0.215421
v 0.162783 0.320651 -0.042974
v 0.162783 0.320651 -0.270871
v -0.233513 0.265071 -0.320383
v 0.233513 0.265071 -0.320383
v -0.162783 0.320651 -0.270871
v 0.233513 0.265071 -0.320383
v 0.162783 0.320651 -0.042974
v 0.162783 0.320651 -0.270871
v 0.233513 0.265071 0.006537
v 0.162783 0.320651 -0.270871
v -0.083569 0.355201 -0.215421
v -0.162783 0.320651 -0.270871
v 0.083569 0.355201 -0.215421
v -0.262285 0.028373 0.091756
v -0.354047 0.005648 0.095966
v -0.265535 0.005648 0.095966
v -0.361273 0.005648 0.095966
v -0.335413 0.103356 0.077865
v -0.251560 0.103356 0.077865
v 0.262285 0.028373 0.091756
v -0.265535 0.005648 0.095966
v 0.265535 0.005648 0.095966
v -0.262285 0.028373 0.091756
v -0.219056 0.191359 0.047528
v -0.292074 0.191359 0.047528
v -0.251560 0.103356 0.077865
v -0.335413 0.103356 0.077865
v -0.361273 0.005648 -0.409815
v -0.361273 0.005648 -0.402590
v -0.335413 0.103356 -0.391714
v -0.335413 0.103356 0.077865
v -0.361273 0.005648 0.088741
v -0.361273 0.005648 0.095966
v 0.335413 0.103356 0.077865
v 0.354047 0.005648 0.095966
v 0.361272 0.005648 0.095966
v 0.265535 0.005648 0.095966
v 0.262285 0.028373 0.091756
v 0.251560 0.103356 0.077865
v -0.175135 0.265071 0.006537
v -0.233513 0.265071 0.006537
v -0.219056 0.191359 0.047528
v -0.292074 0.191359 0.047528
v -0.292074 0.191359 -0.361375
v -0.335413 0.103356 -0.391714
v -0.292074 0.191359 0.047528
v -0.335413 0.103356 0.077865
v 0.335413 0.103356 -0.391714
v 0.348343 0.054502 -0.400765
v -0.335413 0.103356 -0.391714
v -0.361273 0.005648 -0.409815
v -0.354047 0.005648 -0.409815
v 0.354047 0.005648 -0.409815
v 0.361272 0.005648 -0.409815
v 0.292074 0.191359 0.047528
v 0.219055 0.191359 0.047528
v 0.335413 0.103356 0.077865
v 0.251560 0.103356 0.077865
v 0.361272 0.005648 -0.409815
v 0.348343 0.054502 -0.400765
v 0.361272 0.005648 -0.402590
v 0.335413 0.103356 -0.391714
v 0.335413 0.103356 0.077865
v 0.361272 0.005648 0.088741
v 0.361272 0.005648 0.095966
v 0.000000 0.320651 -0.042974
v -0.162783 0.320651 -0.042974
v -0.175135 0.265071 0.006537
v -0.233513 0.265071 0.006537
v -0.233513 0.265071 -0.320383
v -0.292074 0.191359 -0.361375
v -0.233513 0.265071 0.006537
v -0.292074 0.191359 0.047528
v -0.292074 0.191359 -0.361375
v 0.292074 0.191359 -0.361375
v -0.335413 0.103356 -0.391714
v 0.335413 0.103356 -0.391714
v 0.233513 0.265071 0.006537
v 0.175135 0.265071 0.006537
v 0.292074 0.191359 0.047528
v 0.219055 0.191359 0.047528
v 0.292074 0.191359 -0.361375
v 0.292074 0.191359 0.047528
v 0.335413 0.103356 -0.391714
v 0.335413 0.103356 0.077865
v 0.162783 0.320651 -0.042974
v 0.083569 0.355201 -0.098424
v 0.000000 0.320651 -0.042974
v -0.083569 0.355201 -0.098424
v -0.162783 0.320651 -0.042974
v -0.162783 0.320651 -0.270871
v -0.233513 0.265071 -0.320383
v -0.162783 0.320651 -0.042974
v -0.233513 0.265071 0.006537
v -0.233513 0.265071 -0.320383
v 0.233513 0.265071 -0.320383
v -0.292074 0.191359 -0.361375
v 0.292074 0.191359 -0.361375
v 0.162783 0.320651 -0.042974
v 0.000000 0.320651 -0.042974
v 0.233513 0.265071 0.006537
v 0.175135 0.265071 0.006537
v 0.233513 0.265071 -0.320383
v 0.233513 0.265071 0.006537
v 0.292074 0.191359 -0.361375
v 0.292074 0.191359 0.047528
v -0.083569 0.355201 -0.215421
v -0.162783 0.320651 -0.270871
v -0.083569 0.355201 -0.098424
v -0.162783 0.320651 -0.042974
v 0.162783 0.320651 -0.042974
v 0.162783 0.320651 -0.270871
v 0.083569 0.355201 -0.098424
v 0.083569 0.355201 -0.215421
v -0.162783 0.320651 -0.270871
v 0.162783 0.320651 -0.270871
v -0.233513 0.265071 -0.320383
v 0.233513 0.265071 -0.320383
v 0.233513 0.265071 0.006537
v 0.233513 0.265071 -0.320383
v 0.162783 0.320651 -0.042974
v 0.162783 0.320651 -0.270871
v 0.083569 0.355201 -0.215421
v 0.162783 0.320651 -0.270871
v -0.083569 0.355201 -0.215421
v -0.162783 0.320651 -0.270871
v -0.361273 0.005648 -0.409815
v -0.361273 0.005648 0.088741
v -0.361273 0.005648 -0.402590
v -0.354047 0.005648 -0.409815
v -0.361273 0.005648 0.095966
v -0.354047 0.005648 0.095966
v 0.354047 0.005648 -0.409815
v -0.265535 0.005648 0.095966
v 0.265535 0.005648 0.095966
v 0.354047 0.005648 0.095966
v 0.361272 0.005648 -0.409815
v 0.361272 0.005648 -0.402590
v 0.361272 0.005648 0.095966
v 0.361272 0.005648 0.088741
v 0.361272 0.005648 0.088741
v 0.361272 0.005648 -0.402590
v 0.361272 0.005648 0.095966
v 0.354047 0.005648 0.095966
v 0.361272 0.005648 -0.409815
v 0.354047 0.005648 -0.409815
v 0.265535 0.005648 0.095966
v -0.265535 0.005648 0.095966
v -0.354047 0.005648 0.095966
v -0.354047 0.005648 -0.409815
v -0.361273 0.005648 0.095966
v -0.361273 0.005648 0.088741
v -0.361273 0.005648 -0.409815
v -0.361273 0.005648 -0.402590
v 0.361272 0.005648 0.095966
v 0.357660 0.005648 0.099579
v 0.354047 0.005648 0.095966
v 0.354047 0.005648 0.095966
v 0.357660 0.005648 0.099579
v 0.361272 0.005648 0.095966
v 0.364885 0.005648 0.092353
v 0.361272 0.005648 0.095966
v 0.361272 0.005648 0.088741
v 0.361272 0.005648 0.088741
v 0.361272 0.005648 0.095966
v 0.364885 0.005648 0.092353
v -0.361273 0.005648 -0.409815
v -0.361273 0.005648 -0.402590
v -0.364885 0.005648 -0.406203
v -0.364885 0.005648 -0.406203
v -0.361273 0.005648 -0.402590
v -0.361273 0.005648 -0.409815
v -0.354047 0.005648 0.095966
v -0.357660 0.005648 0.099579
v -0.361273 0.005648 0.095966
v -0.361273 0.005648 0.095966
v -0.357660 0.005648 0.099579
v -0.354047 0.005648 0.095966
v -0.361273 0.005648 0.095966
v -0.364885 0.005648 0.092353
v -0.361273 0.005648 0.088741
v -0.361273 0.005648 0.088741
v -0.364885 0.005648 0.092353
v -0.361273 0.005648 0.095966
v -0.354047 0.005648 -0.409815
v -0.361273 0.005648 -0.409815
v -0.357660 0.005648 -0.413428
v -0.357660 0.005648 -0.413428
v -0.361273 0.005648 -0.409815
v -0.354047 0.005648 -0.409815
v 0.175135 0.014772 0.342962
v -0.175135 0.014772 0.342962
v 0.000000 0.038754 0.413427
v -0.175135 0.014772 0.342962
v 0.219055 0.005694 0.259108
v -0.219056 0.005694 0.259108
v 0.175135 0.014772 0.342962
v -0.219056 0.005694 0.259108
v 0.251560 0.011991 0.166236
v -0.251560 0.011991 0.166236
v 0.219055 0.005694 0.259108
v -0.251560 0.011991 0.166236
v 0.262285 0.028373 0.091756
v -0.262285 0.028373 0.091756
v 0.251560 0.011991 0.166236
v 0.000000 0.038754 0.413427
v -0.175135 0.014772 0.342962
v 0.175135 0.014772 0.342962
v 0.175135 0.014772 0.342962
v -0.175135 0.014772 0.342962
v 0.219055 0.005694 0.259108
v -0.219056 0.005694 0.259108
v 0.219055 0.005694 0.259108
v -0.219056 0.005694 0.259108
v 0.251560 0.011991 0.166236
v -0.251560 0.011991 0.166236
v 0.251560 0.011991 0.166236
v -0.251560 0.011991 0.166236
v 0.262285 0.028373 0.091756
v -0.262285 0.028373 0.091756
v 0.083569 0.355201 -0.098424
v -0.083569 0.355201 -0.098424
v 0.000000 0.366921 -0.156922
v 0.000000 0.366921 -0.156922
v -0.083569 0.355201 -0.098424
v 0.083569 0.355201 -0.098424
v 0.000000 0.366921 -0.156922
v -0.083569 0.355201 -0.098424
v -0.083569 0.355201 -0.215421
v -0.083569 0.355201 -0.215421
v -0.083569 0.355201 -0.098424
v 0.000000 0.366921 -0.156922
v 0.083569 0.355201 -0.098424
v 0.000000 0.366921 -0.156922
v 0.083569 0.355201 -0.215421
v 0.083569 0.355201 -0.215421
v 0.000000 0.366921 -0.156922
v 0.083569 0.355201 -0.098424
v 0.083569 0.355201 -0.215421
v 0.000000 0.366921 -0.156922
v -0.083569 0.355201 -0.215421
v -0.083569 0.355201 -0.215421
v 0.000000 0.366921 -0.156922
v 0.083569 0.355201 -0.215421
vt 0.4668 0.8281
vt 0.4928 0.8318
vt 0.4668 0.8572
vt 0.5007 0.8662
vt 0.0000 0.0000
vt 1.0000 0.0000
vt 1.0000 1.0000
vt 0.0000 0.0000
vt 1.0000 0.0000
vt 1.0000 1.0000
vt 0.0000 0.0000
vt 1.0000 0.0000
vt 1.0000 1.0000
vt 0.0000 0.0000
vt 1.0000 0.0000
vt 1.0000 1.0000
vt 0.4250 0.8230
vt 0.4556 0.8089
vt 0.4556 0.8380
vt 0.4250 0.7976
vt 0.4040 0.4584
vt 0.3701 0.4622
vt 0.4040 0.4559
vt 0.4040 0.6292
vt 0.3701 0.6254
vt 0.4040 0.6317
vt 0.4301 0.8779
vt 0.4301 0.8488
vt 0.4562 0.8742
vt 0.4641 0.8731
vt 0.4641 0.8423
vt 0.4641 0.8398
vt 0.3014 0.7977
vt 0.3270 0.7926
vt 0.3270 0.8180
vt 0.3014 0.7774
vt 0.5374 0.7841
vt 0.5068 0.6314
vt 0.5374 0.6209
vt 0.5068 0.7736
vt 0.1527 0.4604
vt 0.1357 0.4584
vt 0.1357 0.4559
vt 0.1357 0.7046
vt 0.1357 0.7071
vt 0.1696 0.6981
vt 0.1696 0.4649
vt 0.4585 0.8263
vt 0.4891 0.7859
vt 0.4891 0.8150
vt 0.4585 0.8009
vt 0.4409 0.4622
vt 0.4070 0.4584
vt 0.4070 0.4559
vt 0.4070 0.6292
vt 0.4409 0.6254
vt 0.4239 0.6286
vt 0.4070 0.6317
vt 0.1032 0.7654
vt 0.1225 0.7697
vt 0.1225 0.7900
vt 0.1032 0.7088
vt 0.3701 0.7756
vt 0.3445 0.6477
vt 0.3701 0.6335
vt 0.3445 0.7614
vt 0.2367 0.4709
vt 0.2061 0.6891
vt 0.2061 0.4559
vt 0.2367 0.6740
vt 0.3297 0.8180
vt 0.3553 0.7774
vt 0.3553 0.8028
vt 0.3297 0.7977
vt 0.5041 0.6314
vt 0.4735 0.7841
vt 0.4735 0.6209
vt 0.5041 0.7736
vt 0.1839 0.7765
vt 0.1959 0.7474
vt 0.1959 0.8040
vt 0.1839 0.7184
vt 0.1959 0.6908
vt 0.2694 0.7744
vt 0.2501 0.6779
vt 0.2694 0.6607
vt 0.2501 0.7571
vt 0.2935 0.4762
vt 0.2679 0.6590
vt 0.2679 0.4559
vt 0.2935 0.6386
vt 0.0987 0.8729
vt 0.1180 0.7918
vt 0.1180 0.8121
vt 0.0987 0.8163
vt 0.3418 0.6477
vt 0.3162 0.7756
vt 0.3162 0.6335
vt 0.3418 0.7614
vt 0.1829 0.8238
vt 0.2104 0.8837
vt 0.1829 0.9030
vt 0.2104 0.8430
vt 0.2413 0.8063
vt 0.2138 0.8662
vt 0.2138 0.8255
vt 0.2413 0.8855
vt 0.4488 0.6581
vt 0.4295 0.7958
vt 0.4295 0.6335
vt 0.4488 0.7712
vt 0.2281 0.8045
vt 0.2474 0.7081
vt 0.2474 0.7873
vt 0.2281 0.6908
vt 0.1692 0.7088
vt 0.1812 0.7945
vt 0.1692 0.8220
vt 0.1812 0.7364
vt 0.0000 0.0000
vt 1.0000 0.0000
vt 1.0000 1.0000
vt 0.0000 0.0000
vt 1.0000 0.0000
vt 1.0000 1.0000
vt 0.4920 0.8240
vt 0.4999 0.7896
vt 0.5259 0.8150
vt 0.5259 0.7859
vt 0.0000 0.0000
vt 1.0000 0.0000
vt 1.0000 1.0000
vt 0.0000 0.0000
vt 1.0000 0.0000
vt 1.0000 1.0000
vt 0.3886 0.7774
vt 0.3886 0.8028
vt 0.3580 0.7887
vt 0.3580 0.8178
vt 0.2962 0.6317
vt 0.2962 0.6292
vt 0.3302 0.6254
vt 0.3302 0.4622
vt 0.2962 0.4584
vt 0.2962 0.4559
vt 0.5374 0.8348
vt 0.5035 0.8283
vt 0.5035 0.8258
vt 0.5035 0.8591
vt 0.5114 0.8602
vt 0.5374 0.8639
vt 0.2703 0.8063
vt 0.2703 0.8265
vt 0.2447 0.8215
vt 0.2447 0.8469
vt 0.4745 0.6086
vt 0.4439 0.6191
vt 0.4745 0.4664
vt 0.4439 0.4559
vt 0.0987 0.4649
vt 0.1157 0.4604
vt 0.0987 0.6981
vt 0.1326 0.7071
vt 0.1326 0.7046
vt 0.1326 0.4584
vt 0.1326 0.4559
vt 0.4221 0.7924
vt 0.4221 0.8178
vt 0.3915 0.7774
vt 0.3915 0.8065
vt 0.3671 0.6317
vt 0.3501 0.6286
vt 0.3671 0.6292
vt 0.3331 0.6254
vt 0.3331 0.4622
vt 0.3671 0.4584
vt 0.3671 0.4559
vt 0.1665 0.7088
vt 0.1665 0.7654
vt 0.1472 0.7697
vt 0.1472 0.7900
vt 0.4268 0.7614
vt 0.4012 0.7756
vt 0.4268 0.6477
vt 0.4012 0.6335
vt 0.1726 0.6740
vt 0.1726 0.4709
vt 0.2032 0.6891
vt 0.2032 0.4559
vt 0.2987 0.7965
vt 0.2987 0.8168
vt 0.2730 0.7761
vt 0.2730 0.8015
vt 0.4774 0.6086
vt 0.4774 0.4664
vt 0.5080 0.6191
vt 0.5080 0.4559
vt 0.2134 0.6908
vt 0.2254 0.7184
vt 0.2134 0.7474
vt 0.2254 0.7765
vt 0.2134 0.8040
vt 0.3135 0.7571
vt 0.2941 0.7744
vt 0.3135 0.6779
vt 0.2941 0.6607
vt 0.2396 0.6386
vt 0.2396 0.4762
vt 0.2652 0.6590
vt 0.2652 0.4559
vt 0.1445 0.7334
vt 0.1445 0.7900
vt 0.1252 0.7088
vt 0.1252 0.7291
vt 0.3728 0.7614
vt 0.3728 0.6477
vt 0.3985 0.7756
vt 0.3985 0.6335
vt 0.1486 0.8517
vt 0.1211 0.8710
vt 0.1486 0.8110
vt 0.1211 0.7918
vt 0.1795 0.8238
vt 0.1795 0.9030
vt 0.1520 0.8430
vt 0.1520 0.8837
vt 0.4515 0.7587
vt 0.4515 0.6455
vt 0.4708 0.7832
vt 0.4708 0.6209
vt 0.2914 0.6607
vt 0.2914 0.7744
vt 0.2721 0.6779
vt 0.2721 0.7571
vt 0.1986 0.7184
vt 0.2107 0.6908
vt 0.1986 0.7765
vt 0.2107 0.8040
vt 0.7793 0.2385
vt 0.7793 0.0995
vt 0.7793 0.2365
vt 0.8482 0.1947
vt 0.7825 0.1947
vt 0.7825 0.1938
vt 0.8491 0.1947
vt 0.8491 0.1938
vt 0.7825 0.1005
vt 0.8491 0.1821
vt 0.8491 0.1121
vt 0.8491 0.1005
vt 0.7825 0.0995
vt 0.7834 0.0995
vt 0.8491 0.0995
vt 0.7809 0.0995
vt 0.7809 0.2385
vt 0.7809 0.1015
vt 0.7760 0.1027
vt 0.7760 0.3219
vt 0.7760 0.0995
vt 0.8505 0.1005
vt 0.8505 0.0995
vt 0.9162 0.0995
vt 0.9171 0.0995
vt 0.9171 0.1005
vt 0.8505 0.1121
vt 0.8505 0.1821
vt 0.8505 0.1938
vt 0.9171 0.1938
vt 0.8505 0.1947
vt 0.8514 0.1947
vt 0.9171 0.1947
vt 0.7777 0.3187
vt 0.7777 0.0995
vt 0.7777 0.3219
vt -6.8077 2.8830
vt -6.7749 2.8502
vt -6.7421 2.8830
vt -6.7421 2.8830
vt -6.7749 2.8502
vt -6.8077 2.8830
vt -6.8406 2.9158
vt -6.8077 2.8830
vt -6.8077 2.9486
vt -6.8077 2.9486
vt -6.8077 2.8830
vt -6.8406 2.9158
vt -0.2461 7.4761
vt -0.2461 7.4105
vt -0.2133 7.4433
vt -0.2133 7.4433
vt -0.2461 7.4105
vt -0.2461 7.4761
vt -0.3117 2.8830
vt -0.2789 2.8502
vt -0.2461 2.8830
vt -0.2461 2.8830
vt -0.2789 2.8502
vt -0.3117 2.8830
vt -0.2461 2.8830
vt -0.2133 2.9158
vt -0.2461 2.9486
vt -0.2461 2.9486
vt -0.2133 2.9158
vt -0.2461 2.8830
vt -0.3117 7.4761
vt -0.2461 7.4761
vt -0.2789 7.5089
vt -0.2789 7.5089
vt -0.2461 7.4761
vt -0.3117 7.4761
vt 0.9217 0.6522
vt 0.9217 0.7864
vt 0.8947 0.7193
vt 0.8270 0.8033
vt 0.8591 0.6522
vt 0.8591 0.8201
vt 0.8270 0.6690
vt 0.7524 0.8326
vt 0.7879 0.6522
vt 0.7879 0.8450
vt 0.7524 0.6647
vt 0.6914 0.8491
vt 0.7200 0.6522
vt 0.7200 0.8532
vt 0.6914 0.6563
vt 0.9423 0.8546
vt 0.9153 0.9217
vt 0.9153 0.7874
vt 0.8930 0.6690
vt 0.8930 0.8033
vt 0.8608 0.6522
vt 0.8608 0.8201
vt 0.8253 0.6647
vt 0.8253 0.8326
vt 0.7897 0.6522
vt 0.7897 0.8450
vt 0.7505 0.6563
vt 0.7505 0.8491
vt 0.7219 0.6522
vt 0.7219 0.8532
vt -21.7720 26.3212
vt -14.0614 26.3212
vt -17.9167 29.0736
vt -17.9167 29.0736
vt -14.0614 26.3212
vt -21.7720 26.3212
vt 26.3121 20.0578
vt 23.6134 16.1648
vt 29.0108 16.1648
vt 29.0108 16.1648
vt 23.6134 16.1648
vt 26.3121 20.0578
vt -23.6134 -19.3213
vt -26.3121 -15.4282
vt -29.0108 -19.3213
vt -29.0108 -19.3213
vt -26.3121 -15.4282
vt -23.6134 -19.3213
vt 21.7720 -25.2776
vt 17.9167 -22.5253
vt 14.0614 -25.2776
vt 14.0614 -25.2776
vt 17.9167 -22.5253
vt 21.7720 -25.2776
vn 0.0000 -0.1822 -0.9833
vn 0.0000 -0.3259 -0.9454
vn 0.9667 -0.2559 -0.0000
vn 0.0000 -0.4860 -0.8740
vn 0.8971 -0.4418 -0.0000
vn 0.0000 -0.1822 0.9833
vn 0.0000 -0.1821 0.9833
vn -0.9667 -0.2558 -0.0000
vn -0.9667 -0.2558 -0.0001
vn 0.0000 -0.6652 -0.7467
vn 0.7830 -0.6220 -0.0000
vn 0.0000 -0.3259 0.9454
vn -0.8971 -0.4418 -0.0000
vn 0.0000 -0.8487 -0.5288
vn 0.6179 -0.7863 -0.0000
vn 0.0000 -0.4860 0.8739
vn -0.7830 -0.6220 -0.0000
vn 0.3998 -0.9166 0.0000
vn -0.3998 -0.9166 0.0000
vn 0.0000 -0.6652 0.7467
vn -0.6179 -0.7863 -0.0000
vn 0.0000 -0.8487 0.5288
vn 0.0000 0.1822 0.9833
vn 0.0000 0.3259 0.9454
vn -0.9667 0.2559 0.0000
vn 0.0000 0.4860 0.8740
vn -0.8971 0.4418 0.0000
vn 0.0000 0.1822 -0.9833
vn 0.0000 0.1821 -0.9833
vn 0.9667 0.2558 0.0000
vn 0.9667 0.2558 0.0001
vn 0.0000 0.6652 0.7467
vn -0.7830 0.6220 0.0000
vn 0.0000 0.3259 -0.9454
vn 0.8971 0.4418 0.0000
vn 0.0000 0.8487 0.5288
vn -0.6179 0.7863 0.0000
vn 0.0000 0.4860 -0.8739
vn 0.7830 0.6220 0.0000
vn -0.3998 0.9166 0.0000
vn 0.3998 0.9166 0.0000
vn 0.0000 0.6652 -0.7467
vn 0.6179 0.7863 0.0000
vn 0.0000 0.8487 -0.5288
vn 0.0000 -1.0000 -0.0000
vn -0.9250 -0.2668 0.2706
vn 0.0002 -1.0000 -0.0000
vn -0.9239 0.2706 -0.2706
vn 0.9239 0.2706 0.2706
vn -0.0000 1.0000 0.0000
vn -0.0002 1.0000 0.0000
vn 0.9228 -0.2743 -0.2706
vn 0.0000 0.9467 -0.3222
vn 0.0000 0.9942 -0.1076
vn 0.0000 0.9977 0.0676
vn 0.0000 0.9767 0.2148
vn 0.0000 -0.9467 0.3222
vn 0.0000 -0.9942 0.1076
vn 0.0000 -0.9977 -0.0676
vn 0.0000 -0.9767 -0.2148
vn 0.0000 -0.9805 -0.1964
vn 0.0000 0.9805 0.1964
vn 0.1389 -0.9903 0.0000
vn -0.1389 0.9903 0.0000
vn -0.1389 -0.9903 0.0000
vn 0.1389 0.9903 0.0000
vn 0.0000 -0.9805 0.1964
vn 0.0000 0.9805 -0.1964
usemtl None
s 1
f 1/1/1 2/2/1 3/3/1
f 3/3/1 2/2/1 4/4/1
f 4/5/1 2/6/1 5/7/1
f 6/8/1 5/9/1 2/10/1
f 7/11/1 8/12/1 9/13/1
f 10/14/1 9/15/1 8/16/1
f 11/17/2 12/18/2 13/19/2
f 12/18/2 11/17/2 14/20/2
f 15/21/3 16/22/3 17/23/3
f 16/22/3 15/21/3 18/24/3
f 16/22/3 18/24/3 19/25/3
f 19/25/3 18/24/3 20/26/3
f 21/27/1 22/28/1 23/29/1
f 23/29/1 22/28/1 24/30/1
f 24/30/1 22/28/1 25/31/1
f 26/32/1 25/31/1 22/28/1
f 27/33/4 28/34/4 29/35/4
f 28/34/4 27/33/4 30/36/4
f 31/37/5 32/38/5 33/39/5
f 32/38/5 31/37/5 34/40/5
f 35/41/6 36/42/7 37/43/7
f 36/42/7 35/41/6 38/44/7
f 38/44/7 35/41/6 39/45/6
f 39/45/6 35/41/6 40/46/6
f 40/46/6 35/41/6 41/47/6
f 42/48/2 43/49/2 44/50/2
f 43/49/2 42/48/2 45/51/2
f 46/52/8 47/53/8 48/54/8
f 47/53/8 46/52/8 49/55/8
f 49/55/8 46/52/8 50/56/8
f 49/55/8 50/56/8 51/57/9
f 49/55/8 51/57/9 52/58/8
f 53/59/10 54/60/10 55/61/10
f 54/60/10 53/59/10 56/62/10
f 57/63/11 58/64/11 59/65/11
f 58/64/11 57/63/11 60/66/11
f 61/67/12 62/68/12 63/69/12
f 62/68/12 61/67/12 64/70/12
f 65/71/4 66/72/4 67/73/4
f 66/72/4 65/71/4 68/74/4
f 69/75/13 70/76/13 71/77/13
f 70/76/13 69/75/13 72/78/13
f 73/79/14 74/80/14 75/81/14
f 74/80/14 73/79/14 76/82/14
f 74/80/14 76/82/14 77/83/14
f 78/84/15 79/85/15 80/86/15
f 79/85/15 78/84/15 81/87/15
f 82/88/16 83/89/16 84/90/16
f 83/89/16 82/88/16 85/91/16
f 86/92/10 87/93/10 88/94/10
f 87/93/10 86/92/10 89/95/10
f 90/96/17 91/97/17 92/98/17
f 91/97/17 90/96/17 93/99/17
f 94/100/18 95/101/18 96/102/18
f 95/101/18 94/100/18 97/103/18
f 98/104/19 99/105/19 100/106/19
f 99/105/19 98/104/19 101/107/19
f 102/108/20 103/109/20 104/110/20
f 103/109/20 102/108/20 105/111/20
f 106/112/21 107/113/21 108/114/21
f 107/113/21 106/112/21 109/115/21
f 110/116/22 111/117/22 112/118/22
f 111/117/22 110/116/22 113/119/22
f 114/120/23 115/121/23 116/122/23
f 115/123/23 114/124/23 117/125/23
f 117/126/23 114/127/23 118/128/23
f 118/128/23 114/127/23 119/129/23
f 120/130/23 121/131/23 122/132/23
f 121/133/23 120/134/23 123/135/23
f 124/136/24 125/137/24 126/138/24
f 127/139/24 126/138/24 125/137/24
f 128/140/25 129/141/25 130/142/25
f 130/142/25 129/141/25 131/143/25
f 129/141/25 132/144/25 131/143/25
f 133/145/25 131/143/25 132/144/25
f 134/146/23 135/147/23 136/148/23
f 135/147/23 134/146/23 137/149/23
f 137/149/23 134/146/23 138/150/23
f 138/150/23 134/146/23 139/151/23
f 140/152/26 141/153/26 142/154/26
f 143/155/26 142/154/26 141/153/26
f 144/156/27 145/157/27 146/158/27
f 147/159/27 146/158/27 145/157/27
f 148/160/28 149/161/28 150/162/28
f 150/162/28 149/161/28 151/163/28
f 151/163/28 149/161/28 152/164/29
f 152/164/29 149/161/28 153/165/29
f 154/166/29 153/165/29 149/161/28
f 155/167/24 156/168/24 157/169/24
f 158/170/24 157/169/24 156/168/24
f 159/171/30 160/172/31 161/173/30
f 160/172/31 162/174/30 161/173/30
f 162/174/30 163/175/30 161/173/30
f 161/173/30 163/175/30 164/176/30
f 165/177/30 164/176/30 163/175/30
f 166/178/32 167/179/32 168/180/32
f 169/181/32 168/180/32 167/179/32
f 170/182/33 171/183/33 172/184/33
f 173/185/33 172/184/33 171/183/33
f 174/186/34 175/187/34 176/188/34
f 177/189/34 176/188/34 175/187/34
f 178/190/26 179/191/26 180/192/26
f 181/193/26 180/192/26 179/191/26
f 182/194/35 183/195/35 184/196/35
f 185/197/35 184/196/35 183/195/35
f 186/198/36 187/199/36 188/200/36
f 187/199/36 189/201/36 188/200/36
f 190/202/36 188/200/36 189/201/36
f 191/203/37 192/204/37 193/205/37
f 194/206/37 193/205/37 192/204/37
f 195/207/38 196/208/38 197/209/38
f 198/210/38 197/209/38 196/208/38
f 199/211/32 200/212/32 201/213/32
f 202/214/32 201/213/32 200/212/32
f 203/215/39 204/216/39 205/217/39
f 206/218/39 205/217/39 204/216/39
f 207/219/40 208/220/40 209/221/40
f 210/222/40 209/221/40 208/220/40
f 211/223/41 212/224/41 213/225/41
f 214/226/41 213/225/41 212/224/41
f 215/227/42 216/228/42 217/229/42
f 218/230/42 217/229/42 216/228/42
f 219/231/43 220/232/43 221/233/43
f 222/234/43 221/233/43 220/232/43
f 223/235/44 224/236/44 225/237/44
f 226/238/44 225/237/44 224/236/44
f 227/239/45 228/240/45 229/241/46
f 228/242/45 227/243/45 230/244/45
f 228/242/45 230/244/45 231/245/45
f 231/245/45 230/244/45 232/246/45
f 232/246/45 230/244/45 233/247/45
f 232/246/45 233/247/45 234/248/45
f 234/248/45 233/247/45 235/249/45
f 235/249/45 233/247/45 236/250/45
f 236/250/45 233/247/45 237/251/45
f 236/250/45 237/251/45 238/252/45
f 238/252/45 239/253/47 236/250/45
f 239/254/47 238/255/45 240/256/48
f 241/257/49 242/258/50 243/259/51
f 244/260/50 243/261/51 242/262/50
f 242/262/50 245/263/50 244/260/50
f 245/263/50 246/264/50 244/260/50
f 244/260/50 246/264/50 247/265/50
f 247/265/50 246/264/50 248/266/50
f 248/266/50 246/264/50 249/267/50
f 246/264/50 250/268/50 249/267/50
f 249/267/50 250/268/50 251/269/50
f 251/269/50 250/268/50 252/270/50
f 250/268/50 253/271/50 252/270/50
f 254/272/52 252/273/50 253/274/50
f 255/275/45 256/276/45 257/277/45
f 258/278/50 259/279/50 260/280/50
f 261/281/45 262/282/45 263/283/45
f 264/284/50 265/285/50 266/286/50
f 267/287/45 268/288/45 269/289/45
f 270/290/50 271/291/50 272/292/50
f 273/293/45 274/294/45 275/295/45
f 276/296/50 277/297/50 278/298/50
f 279/299/45 280/300/45 281/301/45
f 282/302/50 283/303/50 284/304/50
f 285/305/45 286/306/45 287/307/45
f 288/308/50 289/309/50 290/310/50
f 291/311/53 292/312/53 293/313/53
f 294/314/54 295/315/54 296/316/54
f 295/315/54 294/314/54 297/317/54
f 298/318/55 299/319/55 300/320/55
f 299/319/55 298/318/55 301/321/55
f 302/322/56 303/323/56 304/324/56
f 303/323/56 302/322/56 305/325/56
f 306/326/57 307/327/57 308/328/57
f 309/329/58 310/330/58 311/331/58
f 312/332/58 311/331/58 310/330/58
f 313/333/59 314/334/59 315/335/59
f 316/336/59 315/335/59 314/334/59
f 317/337/60 318/338/60 319/339/60
f 320/340/60 319/339/60 318/338/60
f 321/341/61 322/342/61 323/343/61
f 324/344/62 325/345/62 326/346/62
f 327/347/63 328/348/63 329/349/63
f 330/350/64 331/351/64 332/352/64
f 333/353/65 334/354/65 335/355/65
f 336/356/66 337/357/66 338/358/66
f 339/359/67 340/360/67 341/361/67
f 342/362/68 343/363/68 344/364/68
