# Blender v2.78 (sub 0) OBJ File: ''
# www.blender.org
mtllib Domuzcuk.mtl
o Pig_1:polygon0.024
v -0.143752 0.200472 0.483598
v -0.052880 0.130415 0.450118
v 0.298687 0.197643 0.037993
v 0.236511 0.198989 0.365443
v 0.167397 0.149140 0.427485
v 0.000000 0.096599 0.398450
v -0.100235 0.269316 0.472684
v -0.086830 0.269316 0.513440
v -0.065005 0.204311 0.478478
v -0.065005 0.213675 0.514247
v 0.065005 0.213675 0.514247
v 0.294443 0.421624 0.039138
v 0.285483 0.198316 0.147929
v 0.154597 0.415291 0.468778
v -0.229033 0.134119 0.353251
v -0.234557 0.423779 0.368474
v -0.098956 0.555069 0.345168
v -0.154597 0.415291 0.468778
v -0.167397 0.149140 0.427485
v 0.234557 0.423779 0.368474
v 0.133445 0.593533 0.039138
v -0.135601 0.604581 0.177771
v -0.294443 0.421624 0.039138
v -0.285483 0.198316 0.147929
v -0.070866 0.324891 0.467835
v -0.066958 0.313574 0.511688
v 0.070866 0.324891 0.467835
v 0.229033 0.134119 0.353251
v -0.074572 0.092893 0.371230
v -0.133445 0.593533 0.039138
v 0.066958 0.313574 0.511688
v 0.086830 0.269316 0.513440
v 0.100235 0.269316 0.472684
v 0.065005 0.204311 0.478478
v 0.143752 0.200472 0.483598
v 0.052880 0.130415 0.450118
v 0.098956 0.555069 0.345168
v 0.135601 0.604581 0.177771
v -0.236511 0.198989 0.365443
v 0.218455 0.104346 0.341401
v -0.098956 0.528932 -0.268844
v -0.235836 0.157426 -0.263253
v -0.013405 0.325025 -0.514247
v 0.020141 0.268575 -0.482924
v -0.020141 0.268575 -0.482924
v -0.033480 0.252611 -0.413539
v 0.053755 0.285551 -0.341394
v -0.053755 0.285551 -0.341394
v 0.214214 0.108252 -0.088043
v 0.235836 0.157426 -0.263253
v 0.098956 0.528932 -0.268844
v 0.000000 0.421086 -0.501651
v 0.013405 0.325025 -0.514247
v 0.000000 0.316267 -0.441024
v -0.237723 0.198989 -0.290536
v 0.078949 0.106164 -0.273425
v 0.072280 0.064129 -0.088043
v -0.072280 0.064129 -0.088043
v -0.078949 0.106164 -0.273425
v 0.053352 0.064128 0.190031
v -0.053352 0.064128 0.190031
v 0.104951 0.541598 0.340923
v 0.175682 0.565779 0.309532
v -0.130684 0.482655 0.222095
v -0.211115 0.536276 0.250119
v -0.283867 0.507511 0.304008
v 0.229779 0.122735 -0.251791
v 0.000000 0.147322 -0.329202
v 0.000000 0.349074 -0.329875
v 0.000000 0.321523 -0.401347
v 0.033480 0.252611 -0.413539
v 0.130684 0.482655 0.222095
v 0.234759 0.425058 0.329809
v -0.104951 0.541598 0.340923
v -0.298687 0.197643 0.037993
v -0.234557 0.371776 -0.290536
v 0.237723 0.198989 -0.290536
v 0.000000 0.282924 -0.380263
v 0.111941 0.004581 -0.115937
v 0.190110 0.004581 -0.231378
v 0.190082 0.004581 -0.115918
v 0.096412 0.004581 -0.245615
v 0.189280 0.004581 0.311027
v 0.207747 0.108252 0.178580
v 0.183647 0.004581 0.205535
v -0.183614 0.004581 0.205513
v -0.218459 0.104346 0.341388
v -0.077454 0.004581 0.216990
v -0.189299 0.004581 0.311002
v -0.099440 0.004581 0.319578
v -0.190085 0.004581 -0.231405
v -0.190114 0.004581 -0.115944
v -0.111972 0.004581 -0.115925
v -0.096380 0.004581 -0.245594
v 0.074568 0.092893 0.371243
v -0.229770 0.122735 -0.251812
v -0.214214 0.108252 -0.088043
v 0.077481 0.004581 0.216960
v 0.099415 0.004581 0.319560
v -0.234759 0.425058 0.329809
v 0.000000 0.336678 -0.471404
v -0.207747 0.108252 0.178580
v 0.234557 0.371776 -0.290536
v 0.291479 0.589962 0.278140
v 0.283867 0.507511 0.304008
v 0.211115 0.536276 0.250119
v -0.291479 0.589962 0.278140
v -0.175682 0.565779 0.309532
vt 0.2592 0.7660
vt 0.2167 0.8095
vt 0.2243 0.7584
vt 0.1281 0.7584
vt 0.2207 0.6700
vt 0.1295 0.6700
vt 0.1616 0.6551
vt 0.1214 0.6551
vt 0.1779 0.6399
vt 0.0972 0.6399
vt 0.3740 0.6647
vt 0.3354 0.6650
vt 0.3298 0.6397
vt 0.2589 0.6653
vt 0.2589 0.6399
vt 0.2322 0.6551
vt 0.1920 0.6551
vt 0.3039 0.8461
vt 0.2893 0.8461
vt 0.2893 0.8638
vt 0.3115 0.8461
vt 0.3115 0.8638
vt 0.3503 0.8461
vt 0.3503 0.8638
vt 0.3725 0.8638
vt 0.3751 0.7685
vt 0.2589 0.6399
vt 0.2589 0.6653
vt 0.3354 0.6650
vt 0.2592 0.7660
vt 0.3751 0.7685
vt 0.2674 0.8095
vt 0.1394 0.8095
vt 0.0969 0.7660
vt 0.0972 0.6653
vt 0.2674 0.8095
vt 0.3273 0.8349
vt 0.3754 0.8281
vt 0.2645 0.9215
vt 0.0921 0.9215
vt 0.2533 0.8658
vt 0.1020 0.8726
vt 0.1144 0.8101
vt 0.3740 0.6647
vt 0.3298 0.6397
vt 0.3039 0.8638
vt 0.3579 0.8461
vt 0.3579 0.8638
vt 0.2719 0.9159
vt 0.2811 0.9057
vt 0.2986 0.9209
vt 0.3005 0.9057
vt 0.2986 0.9209
vt 0.2811 0.9057
vt 0.3005 0.9057
vt 0.3754 0.8281
vt 0.3273 0.8349
vt 0.3652 0.9015
vt 0.3562 0.9206
vt 0.3560 0.8773
vt 0.3177 0.8773
vt 0.3087 0.9015
vt 0.3183 0.9206
vt 0.3725 0.8461
vt 0.2795 0.8990
vt 0.3008 0.8939
vt 0.2809 0.8931
vt 0.2423 0.8101
vt 0.2809 0.8931
vt 0.3008 0.8939
vt 0.2795 0.8990
vt 0.7332 0.2320
vt 0.9066 0.1896
vt 0.7335 0.2971
vt 0.8956 0.2479
vt 0.7335 0.2971
vt 0.8956 0.2479
vt 0.9066 0.1896
vt 0.9539 0.1700
vt 0.9048 0.1193
vt 0.9459 0.1199
vt 0.8965 0.1043
vt 0.9201 0.0914
vt 0.8882 0.0914
vt 0.9502 0.2940
vt 0.9232 0.2912
vt 0.9232 0.2974
vt 0.9097 0.2903
vt 0.9097 0.2989
vt 0.8753 0.2882
vt 0.8753 0.3014
vt 0.8425 0.2866
vt 0.8428 0.3044
vt 0.8019 0.0914
vt 0.8965 0.1043
vt 0.7319 0.1187
vt 0.9048 0.1193
vt 0.9493 0.3938
vt 0.9125 0.3603
vt 0.9220 0.3314
vt 0.8900 0.3649
vt 0.9091 0.3149
vt 0.8768 0.3146
vt 0.8019 0.0914
vt 0.7319 0.1187
vt 0.6886 0.3152
vt 0.7596 0.3161
vt 0.6923 0.3551
vt 0.7507 0.3557
vt 0.7224 0.3953
vt 0.6828 0.2000
vt 0.6819 0.1746
vt 0.6718 0.2077
vt 0.6619 0.1746
vt 0.6610 0.2000
vt 0.6487 0.3950
vt 0.6880 0.3941
vt 0.6487 0.3744
vt 0.6880 0.3720
vt 0.6880 0.3563
vt 0.7771 0.3542
vt 0.7617 0.3486
vt 0.7574 0.3769
vt 0.7494 0.3738
vt 0.7375 0.3993
vt 0.7771 0.3542
vt 0.7617 0.3486
vt 0.7574 0.3769
vt 0.7494 0.3738
vt 0.7375 0.3993
vt 0.8882 0.0914
vt 0.9201 0.0914
vt 0.8768 0.3146
vt 0.8710 0.3468
vt 0.8431 0.3299
vt 0.8375 0.3597
vt 0.8431 0.3299
vt 0.7114 0.1767
vt 0.7012 0.1730
vt 0.7086 0.2019
vt 0.6939 0.2019
vt 0.7617 0.3486
vt 0.7494 0.3738
vt 0.7617 0.3486
vt 0.7494 0.3738
vt 0.7332 0.2320
vt 0.8225 0.3324
vt 0.7712 0.3324
vt 0.8225 0.3953
vt 0.7712 0.3953
vt 0.6828 0.1141
vt 0.6828 0.1340
vt 0.6576 0.1141
vt 0.6576 0.1340
vt 0.6908 0.1574
vt 0.7160 0.1574
vt 0.6908 0.1399
vt 0.7160 0.1399
vt 0.7160 0.1159
vt 0.7160 0.1325
vt 0.6908 0.1159
vt 0.6908 0.1325
vt 0.6576 0.1402
vt 0.6576 0.1601
vt 0.6828 0.1402
vt 0.6828 0.1601
vt 0.6908 0.1574
vt 0.6908 0.1399
vt 0.7160 0.1574
vt 0.7160 0.1399
vt 0.7712 0.3953
vt 0.7712 0.3324
vt 0.8225 0.3953
vt 0.8225 0.3324
vt 0.7160 0.1574
vt 0.7160 0.1399
vt 0.6908 0.1574
vt 0.6908 0.1399
vt 0.6908 0.1325
vt 0.6908 0.1159
vt 0.7160 0.1325
vt 0.7160 0.1159
vt 0.6576 0.1601
vt 0.6576 0.1402
vt 0.6828 0.1601
vt 0.6828 0.1402
vt 0.6828 0.1340
vt 0.6828 0.1141
vt 0.6576 0.1340
vt 0.6576 0.1141
vt 0.7712 0.3324
vt 0.8225 0.3324
vt 0.7712 0.3953
vt 0.8225 0.3953
vt 0.6828 0.1340
vt 0.6828 0.1141
vt 0.6576 0.1340
vt 0.6576 0.1141
vt 0.6908 0.1159
vt 0.6908 0.1325
vt 0.7160 0.1159
vt 0.7160 0.1325
vt 0.7160 0.1325
vt 0.7160 0.1159
vt 0.6908 0.1325
vt 0.6908 0.1159
vt 0.6576 0.1601
vt 0.6576 0.1402
vt 0.6828 0.1601
vt 0.6828 0.1402
vt 0.6576 0.1402
vt 0.6576 0.1601
vt 0.6828 0.1402
vt 0.6828 0.1601
vt 0.6828 0.1141
vt 0.6828 0.1340
vt 0.6576 0.1141
vt 0.6576 0.1340
vt 0.6908 0.1574
vt 0.6908 0.1399
vt 0.7160 0.1574
vt 0.7160 0.1399
vt 0.9091 0.3149
vt 0.9220 0.3314
vt 0.7712 0.3324
vt 0.7712 0.3953
vt 0.8225 0.3324
vt 0.8225 0.3953
vt 0.6487 0.3330
vt 0.6487 0.3535
vt 0.6880 0.3339
vt 0.6886 0.3152
vt 0.6923 0.3551
vt 0.7596 0.3161
vt 0.7507 0.3557
vt 0.8388 0.1187
vt 0.9088 0.0914
vt 0.7688 0.0914
vt 0.6911 0.1767
vt 0.7224 0.3953
vt 0.7688 0.0914
vt 0.9088 0.0914
vt 0.8388 0.1187
vn 0.8572 0.3632 0.3651
vn 0.2540 0.7853 0.5646
vn 0.4919 0.3240 0.8081
vn -0.3517 0.3517 0.8675
vn 0.2873 -0.2716 0.9185
vn -0.4040 -0.2986 0.8646
vn -0.0977 -0.6859 0.7211
vn -0.4764 -0.6540 0.5876
vn 0.0000 -0.9066 0.4220
vn -0.6888 -0.5483 0.4742
vn 0.9473 -0.3145 -0.0605
vn 0.9542 -0.2478 0.1678
vn 0.7951 -0.5958 -0.1133
vn 0.8869 -0.1836 0.4239
vn 0.6873 -0.5194 0.5077
vn 0.4764 -0.6540 0.5877
vn 0.1231 -0.7407 0.6605
vn 0.2873 -0.2717 0.9185
vn -0.6601 0.7011 0.2695
vn -0.9497 0.0156 0.3127
vn -0.8850 0.0254 0.4650
vn -0.6880 -0.6840 0.2424
vn -0.2071 -0.5139 0.8325
vn 0.5275 -0.8088 0.2598
vn 0.3185 -0.4534 0.8325
vn 0.8850 0.0254 0.4649
vn 0.9473 -0.3145 -0.0606
vn 0.9323 0.3616 -0.0078
vn -0.8576 -0.1113 0.5021
vn -0.9595 -0.2404 0.1466
vn -0.8771 0.3164 0.3614
vn -0.9127 0.4065 0.0410
vn -0.3827 0.8240 0.4178
vn -0.3827 0.8240 0.4179
vn -0.8576 -0.1114 0.5021
vn -0.4763 -0.6540 0.5877
vn 0.3397 0.9314 0.1308
vn 0.4706 0.8651 -0.1738
vn -0.3363 0.9266 -0.1682
vn -0.4433 0.8867 0.1309
vn -0.9127 0.4065 0.0411
vn -0.9473 -0.3145 -0.0606
vn -0.6522 -0.7108 -0.2636
vn -0.6601 0.7012 0.2695
vn -0.2343 0.6483 0.7244
vn 0.5035 0.8177 0.2791
vn 0.2267 0.3791 0.8972
vn -0.2580 -0.6958 0.6703
vn 0.6173 -0.4454 0.6485
vn 0.0312 -0.6489 0.7603
vn -0.8261 -0.3965 0.4004
vn -0.3362 0.9266 -0.1682
vn -0.4434 0.8867 0.1308
vn 0.8849 0.0254 0.4650
vn 0.2267 0.3792 0.8971
vn -0.2072 -0.5139 0.8324
vn -0.8849 0.0254 0.4650
vn -0.2072 -0.5139 0.8325
vn 0.5035 0.8177 0.2790
vn 0.9497 0.0156 0.3127
vn 0.5275 -0.8088 0.2599
vn 0.1231 -0.7406 0.6605
vn -0.6888 -0.5484 0.4742
vn -0.8850 0.0254 0.4649
vn 0.6874 -0.5194 0.5077
vn 0.7104 0.6653 -0.2296
vn 0.7841 0.3324 -0.5241
vn 0.2229 0.7859 -0.5767
vn 0.2229 0.7859 -0.5768
vn -0.3362 0.9267 -0.1681
vn -0.2793 0.6954 -0.6622
vn -0.7841 0.3324 -0.5241
vn -0.0000 0.0606 -0.9982
vn -0.6582 -0.2422 -0.7129
vn -0.0000 -0.7051 -0.7091
vn -0.6858 -0.4845 -0.5431
vn 0.3711 -0.6348 -0.6778
vn -0.6308 -0.3242 -0.7050
vn -0.0000 0.1309 -0.9914
vn -0.0000 -0.1875 -0.9823
vn 0.0000 -0.2932 -0.9561
vn -0.0000 -0.7022 -0.7120
vn -0.0000 -0.8783 -0.4782
vn -0.0000 -0.9999 -0.0117
vn -0.0000 -0.9771 0.2130
vn -0.0000 -0.9095 0.4158
vn 0.0000 -0.9097 0.4153
vn 0.7618 -0.5664 0.3145
vn 0.6857 -0.4845 -0.5431
vn 0.6582 -0.2422 -0.7128
vn 0.0000 0.0605 -0.9982
vn -0.2793 0.6953 -0.6622
vn 0.9571 0.0978 0.2729
vn 0.9484 0.2049 0.2420
vn 0.9505 0.2108 0.2284
vn 0.9304 0.3596 0.0704
vn 0.9389 0.3377 0.0664
vn 0.8711 0.4531 -0.1894
vn -0.8152 -0.5512 0.1779
vn 0.3146 0.2635 0.9119
vn 0.2384 0.2365 0.9419
vn 0.2247 0.2501 0.9418
vn 0.1797 0.2422 0.9534
vn 0.1974 0.2775 0.9402
vn -0.1250 -0.5313 -0.8379
vn -0.2010 -0.9777 0.0605
vn 0.0840 -0.9771 0.1954
vn -0.1445 -0.9532 -0.2656
vn 0.2479 -0.9681 -0.0371
vn -0.3672 0.7989 -0.4765
vn -0.4299 0.7211 -0.5433
vn 0.0605 0.2420 -0.9684
vn -0.4003 0.7030 -0.5878
vn 0.1192 0.3146 -0.9417
vn -0.5337 -0.4145 -0.7371
vn -0.4646 -0.4490 -0.7633
vn -0.0605 0.2420 -0.9684
vn -0.4415 -0.3927 -0.8068
vn -0.1192 0.3146 -0.9417
vn 0.7618 -0.5664 0.3144
vn 0.7482 -0.3321 -0.5744
vn 0.6858 -0.4845 -0.5431
vn 0.0000 -0.7052 -0.7090
vn -0.9304 0.3597 0.0704
vn -0.8711 0.4531 -0.1894
vn 0.0000 0.9029 -0.4299
vn -0.7558 0.5586 -0.3417
vn 0.0000 0.9333 -0.3592
vn 0.7558 0.5586 -0.3417
vn 0.9304 0.3597 0.0704
vn 0.5337 -0.4145 -0.7371
vn 0.0605 0.2421 -0.9684
vn 0.4646 -0.4490 -0.7633
vn 0.4415 -0.3927 -0.8068
vn 0.3672 0.7989 -0.4765
vn -0.0605 0.2421 -0.9684
vn 0.4299 0.7211 -0.5433
vn 0.4003 0.7030 -0.5878
vn 0.6857 -0.4846 -0.5431
vn 0.6582 -0.2422 -0.7129
vn -0.5937 -0.7285 -0.3417
vn 0.5355 -0.7174 -0.4456
vn -0.1815 -0.8352 0.5191
vn 0.4826 -0.7347 0.4767
vn -0.5937 -0.7285 -0.3418
vn 0.5357 -0.7173 -0.4456
vn 0.7482 -0.3322 -0.5743
vn 0.5356 -0.7173 -0.4456
vn 0.4826 -0.7347 0.4768
vn 0.7617 -0.5665 0.3144
vn 0.5687 -0.7895 0.2306
vn 0.3063 -0.6770 -0.6692
vn -0.4217 -0.6988 0.5778
vn -0.5275 -0.7892 -0.3145
vn 0.4670 -0.8226 0.3244
vn 0.3634 -0.6994 -0.6154
vn -0.6522 -0.7107 -0.2636
vn -0.5274 -0.7892 -0.3145
vn -0.4216 -0.6988 0.5778
vn 0.0313 -0.6489 0.7602
vn 0.4670 -0.8226 0.3243
vn -0.7241 -0.6129 -0.3162
vn 0.2088 -0.8018 -0.5599
vn -0.2929 -0.8065 0.5136
vn 0.6336 -0.7118 0.3031
vn 0.3711 -0.6347 -0.6778
vn -0.7242 -0.6129 -0.3162
vn -0.2012 -0.7129 0.6718
vn -0.2580 -0.6958 0.6704
vn -0.5233 -0.8398 -0.1445
vn -0.1446 -0.9532 -0.2657
vn 0.3711 -0.6348 -0.6777
vn 0.2087 -0.8018 -0.5600
vn 0.5687 -0.7896 0.2306
vn 0.7951 -0.5959 -0.1133
vn -0.9389 0.3377 0.0664
vn -0.9505 0.2108 0.2284
vn -0.5234 -0.8398 -0.1445
vn -0.3146 0.2635 0.9119
vn -0.2247 0.2501 0.9418
vn -0.2384 0.2365 0.9419
vn -0.1797 0.2423 0.9534
vn -0.9571 0.0978 0.2729
vn -0.9505 0.2108 0.2283
vn -0.9484 0.2049 0.2420
vn -0.9473 -0.3145 -0.0605
vn -0.8151 -0.5513 0.1779
vn 0.0313 -0.6488 0.7603
vn -0.1974 0.2777 0.9402
vn -0.1797 0.2422 0.9534
vn 0.7841 0.3324 -0.5240
vn 0.4415 -0.3926 -0.8068
vn 0.7617 -0.5664 0.3145
usemtl None
s 1
f 20/1/1 37/2/2 14/3/3
f 37/2/2 18/4/4 14/3/3
f 14/3/3 18/4/4 35/5/5
f 18/4/4 1/6/6 35/5/5
f 35/5/5 1/6/6 2/7/7
f 1/6/6 19/8/8 2/7/7
f 2/7/7 19/8/8 6/9/9
f 19/8/8 15/10/10 6/9/9
f 3/11/11 13/12/12 84/13/13
f 13/12/12 4/14/14 84/13/13
f 84/13/13 4/14/14 28/15/15
f 4/14/14 5/16/16 28/15/15
f 28/15/15 5/16/16 6/9/9
f 5/16/16 36/17/17 6/9/9
f 6/9/9 36/17/17 2/7/7
f 36/17/17 35/5/18 2/7/7
f 25/18/19 7/19/20 8/20/21
f 7/19/20 9/21/22 8/20/21
f 8/20/21 9/21/22 10/22/23
f 9/21/22 34/23/24 10/22/23
f 10/22/23 34/23/24 11/24/25
f 34/23/24 32/25/26 11/24/25
f 3/11/27 12/26/28 13/12/12
f 12/26/28 20/1/1 13/12/12
f 13/12/12 20/1/1 4/14/14
f 20/1/1 14/3/3 4/14/14
f 4/14/14 14/3/3 35/5/18
f 15/27/10 39/28/29 24/29/30
f 39/28/29 16/30/31 24/29/30
f 24/29/30 16/30/31 23/31/32
f 16/30/31 17/32/33 23/31/32
f 17/33/34 16/34/31 18/4/4
f 16/34/31 39/35/35 18/4/4
f 18/4/4 39/35/35 1/6/6
f 39/35/35 19/8/36 1/6/6
f 37/36/2 20/1/1 38/37/37
f 20/1/1 12/26/28 38/37/37
f 38/37/37 12/26/28 21/38/38
f 21/39/38 30/40/39 38/41/37
f 30/40/39 22/42/40 38/41/37
f 38/41/37 22/42/40 17/43/34
f 23/31/41 75/44/42 24/29/30
f 75/44/42 102/45/43 24/29/30
f 24/29/30 102/45/43 15/27/10
f 25/18/44 26/46/45 27/47/46
f 26/46/45 31/48/47 27/47/46
f 27/47/46 31/48/47 32/25/26
f 6/49/9 95/50/48 28/51/15
f 95/50/48 40/52/49 28/51/15
f 6/49/9 15/53/10 29/54/50
f 15/53/10 87/55/51 29/54/50
f 30/56/52 23/31/32 22/57/53
f 23/31/32 17/32/33 22/57/53
f 32/58/54 31/59/55 11/60/25
f 31/59/55 10/61/56 11/60/25
f 8/62/57 10/61/58 26/63/45
f 10/61/58 31/59/55 26/63/45
f 27/47/59 32/25/26 33/64/60
f 32/25/26 34/23/61 33/64/60
f 4/14/14 35/5/5 5/16/16
f 35/5/5 36/17/62 5/16/16
f 15/65/63 102/66/43 87/67/51
f 37/68/2 38/41/37 17/43/33
f 17/33/34 18/4/4 37/2/2
f 25/18/19 8/20/64 26/46/45
f 15/10/10 19/8/8 39/35/35
f 40/69/49 84/70/13 28/71/65
f 12/72/66 103/73/66 21/74/66
f 103/73/67 51/75/68 21/74/38
f 21/74/38 51/75/69 30/76/70
f 51/75/69 41/77/71 30/76/70
f 30/76/70 41/77/71 76/78/72
f 41/77/71 78/79/73 76/78/72
f 76/78/72 78/79/73 55/80/74
f 78/79/73 68/81/75 55/80/74
f 55/80/74 68/81/75 42/82/76
f 68/81/75 59/83/77 42/82/76
f 42/82/76 59/83/77 96/84/78
f 52/85/79 53/86/80 43/87/81
f 53/86/80 44/88/82 43/87/81
f 43/87/81 44/88/82 45/89/83
f 44/88/82 71/90/84 45/89/83
f 45/89/83 71/90/84 46/91/85
f 71/90/84 47/92/86 46/91/85
f 46/91/85 47/92/86 48/93/87
f 49/94/88 50/95/89 3/96/27
f 50/95/89 77/97/90 3/96/27
f 3/96/27 77/97/90 103/73/67
f 77/97/90 78/79/91 103/73/67
f 103/73/67 78/79/91 51/75/69
f 78/79/91 41/77/92 51/75/69
f 52/98/93 101/99/94 53/100/95
f 101/99/94 54/101/96 53/100/95
f 53/100/95 54/101/96 44/102/97
f 54/101/96 71/103/98 44/102/97
f 96/84/78 97/104/99 42/82/76
f 97/104/99 75/105/42 42/82/76
f 42/82/76 75/105/42 55/80/74
f 75/105/42 76/78/72 55/80/74
f 62/106/100 73/107/101 63/108/102
f 73/107/101 105/109/103 63/108/102
f 63/108/102 105/109/103 104/110/104
f 56/111/105 57/112/106 68/113/75
f 57/112/106 58/114/107 68/113/75
f 68/113/75 58/114/107 59/115/77
f 49/116/88 84/117/13 57/118/106
f 84/117/13 60/119/108 57/118/106
f 57/118/106 60/119/108 61/120/109
f 72/121/110 62/122/111 106/123/112
f 62/122/111 63/124/113 106/123/112
f 106/123/112 63/124/113 104/125/114
f 64/126/115 100/127/116 65/128/117
f 100/127/116 66/129/118 65/128/117
f 65/128/117 66/129/118 107/130/119
f 49/94/120 67/131/121 50/95/122
f 67/131/121 56/132/105 50/95/122
f 50/95/122 56/132/105 68/81/123
f 54/101/124 46/133/125 70/134/126
f 46/133/125 48/135/127 70/134/126
f 70/134/126 48/135/127 69/136/128
f 69/136/128 47/137/129 70/134/126
f 47/137/129 71/103/98 70/134/126
f 70/134/126 71/103/98 54/101/130
f 95/138/48 6/139/9 60/140/108
f 6/139/9 61/141/109 60/140/108
f 72/121/131 106/123/132 73/142/133
f 106/123/132 105/143/134 73/142/133
f 64/126/135 65/128/136 74/144/137
f 65/128/136 108/145/138 74/144/137
f 75/105/42 23/146/32 76/78/72
f 23/146/32 30/76/70 76/78/72
f 50/95/139 68/81/123 77/97/140
f 68/81/123 78/79/91 77/97/140
f 82/147/141 80/148/142 79/149/143
f 80/148/142 81/150/144 79/149/143
f 82/151/145 56/152/105 80/153/146
f 56/152/105 67/154/147 80/153/146
f 67/155/121 49/156/88 80/157/148
f 49/156/88 81/158/149 80/157/148
f 79/159/143 57/160/106 82/161/145
f 57/160/106 56/162/105 82/161/145
f 81/163/149 49/164/150 79/165/143
f 49/164/150 57/166/106 79/165/143
f 40/167/49 83/168/151 84/169/13
f 83/168/151 85/170/152 84/169/13
f 89/171/153 86/172/154 90/173/155
f 86/172/154 88/174/156 90/173/155
f 102/175/157 86/176/158 87/177/51
f 86/176/158 89/178/159 87/177/51
f 29/179/160 90/180/161 61/181/109
f 90/180/161 88/182/156 61/181/109
f 87/183/51 89/184/159 29/185/160
f 89/184/159 90/186/161 29/185/160
f 61/187/109 88/188/156 102/189/43
f 88/188/156 86/190/154 102/189/43
f 91/191/162 94/192/163 92/193/164
f 94/192/163 93/194/165 92/193/164
f 59/195/166 94/196/163 96/197/78
f 94/196/163 91/198/167 96/197/78
f 99/199/168 95/200/169 98/201/170
f 95/200/169 60/202/171 98/201/170
f 58/203/107 93/204/165 59/205/172
f 93/204/165 94/206/173 59/205/172
f 97/207/99 92/208/164 58/209/107
f 92/208/164 93/210/165 58/209/107
f 83/211/174 40/212/49 99/213/168
f 40/212/49 95/214/48 99/213/168
f 98/215/170 60/216/108 85/217/152
f 60/216/108 84/218/175 85/217/152
f 96/219/78 91/220/162 97/221/99
f 91/220/162 92/222/164 97/221/99
f 46/133/125 54/101/124 45/223/176
f 54/101/124 43/224/177 45/223/176
f 85/225/152 83/226/151 98/227/178
f 83/226/151 99/228/168 98/227/178
f 97/229/99 58/230/107 102/231/43
f 58/230/107 61/120/109 102/231/43
f 74/232/179 108/233/180 100/234/181
f 108/233/180 66/235/182 100/234/181
f 52/98/183 43/224/184 101/99/185
f 43/224/184 54/101/124 101/99/185
f 75/236/186 97/237/187 102/238/157
f 61/141/109 6/139/9 29/239/188
f 107/240/189 66/235/190 108/233/180
f 58/230/107 57/118/106 61/120/109
f 12/72/28 3/96/27 103/73/191
f 104/125/114 105/143/192 106/123/132
f 107/130/119 108/145/138 65/128/136
f 84/241/13 49/242/193 3/243/11
