# Blender v2.78 (sub 0) OBJ File: ''
# www.blender.org
mtllib Emoji19_taban.mtl
o Curve_Curve.4465
v -0.040027 0.600000 -0.999053
v 0.066780 0.600000 -0.996827
v -0.075687 0.600000 -0.996413
v -0.111673 0.600000 -0.992073
v -0.148180 0.600000 -0.986020
v -0.185380 0.600000 -0.978260
v 0.215607 0.600000 -0.970373
v -0.368487 0.600000 -0.920853
v -0.436747 0.600000 -0.890353
v 0.485640 0.600000 -0.863167
v -0.501900 0.600000 -0.855687
v 0.565460 0.600000 -0.813453
v -0.563767 0.600000 -0.816973
v 0.707953 0.600000 -0.694826
v -0.727673 0.600000 -0.677907
v 0.825527 0.600000 -0.552613
v -0.816947 0.600000 -0.567413
v -0.854993 0.600000 -0.507233
v -0.909127 0.600000 -0.399760
v 0.949740 0.600000 -0.300280
v -0.943807 0.600000 -0.315260
v 0.976007 0.600000 -0.206960
v -0.969800 0.600000 -0.234333
v -0.979673 0.600000 -0.194633
v 0.993780 0.600000 -0.105773
v -0.997347 0.600000 -0.075793
v -0.999687 0.600000 0.005527
v -0.998167 0.600000 0.047513
v 0.977713 0.600000 0.201320
v -0.950673 0.600000 0.305767
v -0.920753 0.600000 0.386813
v -0.841273 0.600000 0.538967
v 0.674600 0.600000 0.737967
v -0.539647 0.600000 0.842813
v -0.463667 0.600000 0.887280
v -0.387760 0.600000 0.923533
v 0.352207 0.600000 0.936427
v -0.309153 0.600000 0.952773
v 0.271433 0.600000 0.962653
v 0.189033 0.600000 0.982000
v 0.021527 0.600000 1.000000
v -0.004520 0.000000 -1.000000
v 0.066780 0.000000 -0.996827
v 0.102933 0.000000 -0.992720
v -0.111673 0.000000 -0.992073
v 0.139667 0.000000 -0.986933
v 0.177167 0.000000 -0.979487
v -0.185380 0.000000 -0.978260
v 0.310407 0.000000 -0.941933
v 0.400520 0.000000 -0.906093
v -0.436747 0.000000 -0.890353
v 0.485640 0.000000 -0.863167
v -0.501900 0.000000 -0.855687
v 0.565460 0.000000 -0.813453
v 0.639667 0.000000 -0.757240
v -0.727673 0.000000 -0.677907
v 0.825527 0.000000 -0.552613
v -0.816947 0.000000 -0.567413
v -0.854993 0.000000 -0.507233
v 0.874200 0.000000 -0.473407
v -0.888407 0.000000 -0.443933
v -0.927573 0.000000 -0.356947
v -0.943807 0.000000 -0.315260
v -0.993393 0.000000 -0.115593
v -0.997347 0.000000 -0.075793
v 0.999687 0.000000 -0.003307
v -0.989627 -0.000000 0.135720
v 0.977713 -0.000000 0.201320
v 0.950760 -0.000000 0.301400
v -0.950673 -0.000000 0.305767
v -0.920753 -0.000000 0.386813
v -0.841273 -0.000000 0.538967
v 0.811507 -0.000000 0.580260
v -0.792220 -0.000000 0.609280
v 0.747153 -0.000000 0.662627
v -0.737280 -0.000000 0.675220
v 0.674600 -0.000000 0.737967
v -0.610747 -0.000000 0.792380
v 0.594300 -0.000000 0.805247
v -0.539647 -0.000000 0.842813
v -0.387760 -0.000000 0.923533
v 0.352207 -0.000000 0.936427
v 0.271433 -0.000000 0.962653
v -0.228373 -0.000000 0.975027
v 0.189033 -0.000000 0.982000
v -0.145973 -0.000000 0.990307
v 0.105553 -0.000000 0.994453
v 0.310407 0.600000 -0.941933
v 0.400520 0.600000 -0.906093
v 0.639667 0.600000 -0.757240
v 0.707953 0.000000 -0.694827
v 0.770013 0.600000 -0.626520
v 0.770013 0.000000 -0.626520
v 0.874200 0.600000 -0.473407
v 0.915700 0.600000 -0.389193
v 0.915700 0.000000 -0.389193
v 0.949740 0.000000 -0.300280
v 0.976007 0.000000 -0.206960
v 0.993780 0.000000 -0.105773
v 0.999687 0.600000 -0.003307
v 0.994173 0.600000 0.099407
v 0.994173 -0.000000 0.099407
v 0.950760 0.600000 0.301400
v 0.913773 0.600000 0.398613
v 0.913773 -0.000000 0.398613
v 0.867193 0.600000 0.491907
v 0.867193 -0.000000 0.491907
v 0.811507 0.600000 0.580260
v 0.747153 0.600000 0.662627
v 0.594300 0.600000 0.805247
v 0.506720 0.600000 0.863420
v 0.506720 -0.000000 0.863420
v 0.430820 0.600000 0.903347
v 0.430820 -0.000000 0.903347
v 0.105553 0.600000 0.994453
v 0.021527 -0.000000 1.000000
v -0.062493 0.600000 0.998627
v -0.062493 -0.000000 0.998627
v -0.145973 0.600000 0.990307
v -0.228373 0.600000 0.975027
v -0.309153 -0.000000 0.952773
v -0.463667 -0.000000 0.887280
v -0.610747 0.600000 0.792380
v -0.676707 0.600000 0.736387
v -0.676707 -0.000000 0.736387
v -0.737280 0.600000 0.675220
v -0.792220 0.600000 0.609280
v -0.884200 0.600000 0.464680
v -0.884200 -0.000000 0.464680
v -0.973713 0.600000 0.221933
v -0.973713 -0.000000 0.221933
v -0.989627 0.600000 0.135720
v -0.998167 -0.000000 0.047513
v -0.999687 -0.000000 0.005527
v -0.999427 0.600000 -0.035493
v -0.999427 0.000000 -0.035493
v -0.993393 0.600000 -0.115593
v -0.987527 0.600000 -0.155127
v -0.987527 0.000000 -0.155127
v -0.979673 0.000000 -0.194633
v -0.969800 0.000000 -0.234333
v -0.957873 0.600000 -0.274460
v -0.957873 0.000000 -0.274460
v -0.927573 0.600000 -0.356947
v -0.909127 0.000000 -0.399760
v -0.888407 0.600000 -0.443933
v -0.774440 0.600000 -0.624353
v -0.774440 0.000000 -0.624353
v -0.676840 0.600000 -0.727953
v -0.676840 0.000000 -0.727953
v -0.622147 0.600000 -0.774353
v -0.622147 0.000000 -0.774353
v -0.563767 0.000000 -0.816973
v -0.368487 0.000000 -0.920853
v -0.297327 0.600000 -0.947040
v -0.297327 0.000000 -0.947040
v -0.223453 0.600000 -0.968787
v -0.223453 0.000000 -0.968787
v -0.148180 0.000000 -0.986020
v -0.075687 0.000000 -0.996413
v -0.040027 0.000000 -0.999053
v -0.004520 0.600000 -1.000000
v 0.031020 0.600000 -0.999253
v 0.031020 0.000000 -0.999253
v 0.102933 0.600000 -0.992720
v 0.139667 0.600000 -0.986933
v 0.177167 0.600000 -0.979487
v 0.215607 0.000000 -0.970373
vt 0.6361 0.5168
vt 0.6511 0.5253
vt 0.6435 0.5212
vt 0.6589 0.5289
vt 0.6289 0.5119
vt 0.6669 0.5322
vt 0.6218 0.5066
vt 0.6753 0.5352
vt 0.6147 0.5008
vt 0.6840 0.5379
vt 0.6077 0.4946
vt 0.6930 0.5403
vt 0.6007 0.4878
vt 0.7160 0.5448
vt 0.5874 0.4738
vt 0.5751 0.4592
vt 0.7388 0.5470
vt 0.5639 0.4438
vt 0.7613 0.5469
vt 0.5539 0.4278
vt 0.7833 0.5445
vt 0.5449 0.4113
vt 0.5371 0.3942
vt 0.8049 0.5400
vt 0.5304 0.3767
vt 0.8258 0.5332
vt 0.5250 0.3587
vt 0.8461 0.5244
vt 0.5207 0.3404
vt 0.8656 0.5134
vt 0.5178 0.3218
vt 0.5161 0.3030
vt 0.8842 0.5003
vt 0.5157 0.2840
vt 0.9018 0.4852
vt 0.5160 0.2710
vt 0.5166 0.2586
vt 0.9183 0.4681
vt 0.5176 0.2468
vt 0.5189 0.2354
vt 0.9337 0.4490
vt 0.5206 0.2244
vt 0.5227 0.2138
vt 0.9481 0.4270
vt 0.5252 0.2035
vt 0.5281 0.1934
vt 0.5315 0.1835
vt 0.9601 0.4034
vt 0.5353 0.1736
vt 0.5396 0.1638
vt 0.9698 0.3783
vt 0.5443 0.1540
vt 0.5554 0.1341
vt 0.9770 0.3521
vt 0.5678 0.1154
vt 0.9819 0.3251
vt 0.5815 0.0982
vt 0.9843 0.2976
vt 0.5963 0.0825
vt 0.6122 0.0683
vt 0.9843 0.2698
vt 0.6291 0.0557
vt 0.9819 0.2422
vt 0.6468 0.0448
vt 0.9770 0.2150
vt 0.6653 0.0357
vt 0.9696 0.1884
vt 0.6846 0.0283
vt 0.7043 0.0228
vt 0.9597 0.1629
vt 0.7246 0.0193
vt 0.9474 0.1386
vt 0.7453 0.0177
vt 0.9356 0.1201
vt 0.7652 0.0181
vt 0.9225 0.1029
vt 0.7848 0.0205
vt 0.9082 0.0871
vt 0.8042 0.0248
vt 0.8929 0.0727
vt 0.8232 0.0309
vt 0.8766 0.0598
vt 0.8416 0.0389
vt 0.8595 0.0485
vt 0.1511 0.0394
vt 0.1361 0.0479
vt 0.1435 0.0435
vt 0.1589 0.0358
vt 0.1289 0.0528
vt 0.1669 0.0325
vt 0.1218 0.0581
vt 0.1753 0.0295
vt 0.1147 0.0639
vt 0.1840 0.0268
vt 0.1077 0.0701
vt 0.1930 0.0244
vt 0.1007 0.0769
vt 0.2160 0.0199
vt 0.0874 0.0909
vt 0.0751 0.1055
vt 0.2388 0.0177
vt 0.0639 0.1209
vt 0.2612 0.0178
vt 0.0539 0.1369
vt 0.2833 0.0202
vt 0.0449 0.1534
vt 0.0371 0.1705
vt 0.3049 0.0247
vt 0.0304 0.1880
vt 0.3258 0.0315
vt 0.0250 0.2060
vt 0.3461 0.0404
vt 0.0207 0.2243
vt 0.3656 0.0513
vt 0.0178 0.2429
vt 0.0161 0.2617
vt 0.3842 0.0644
vt 0.0157 0.2807
vt 0.4018 0.0795
vt 0.0160 0.2937
vt 0.0166 0.3061
vt 0.4183 0.0966
vt 0.0176 0.3179
vt 0.0189 0.3293
vt 0.4337 0.1157
vt 0.0206 0.3403
vt 0.0227 0.3509
vt 0.4481 0.1377
vt 0.0252 0.3612
vt 0.0281 0.3713
vt 0.0315 0.3813
vt 0.4601 0.1613
vt 0.0353 0.3911
vt 0.0395 0.4009
vt 0.4698 0.1864
vt 0.0443 0.4107
vt 0.0554 0.4307
vt 0.4770 0.2126
vt 0.0678 0.4493
vt 0.4819 0.2396
vt 0.0815 0.4665
vt 0.4843 0.2671
vt 0.0963 0.4822
vt 0.1122 0.4964
vt 0.4843 0.2949
vt 0.1291 0.5090
vt 0.4819 0.3225
vt 0.1468 0.5199
vt 0.4770 0.3497
vt 0.1653 0.5290
vt 0.4696 0.3763
vt 0.1846 0.5364
vt 0.2043 0.5419
vt 0.4597 0.4018
vt 0.2246 0.5454
vt 0.4474 0.4261
vt 0.2453 0.5470
vt 0.4356 0.4446
vt 0.2652 0.5466
vt 0.4225 0.4618
vt 0.2848 0.5442
vt 0.4082 0.4776
vt 0.3042 0.5399
vt 0.3929 0.4920
vt 0.3232 0.5338
vt 0.3766 0.5049
vt 0.3416 0.5258
vt 0.3595 0.5162
vt 0.5157 0.6847
vt 0.5157 0.6612
vt 0.7282 0.6612
vt 0.7282 0.6847
vt 0.5157 0.6392
vt 0.7282 0.6392
vt 0.5157 0.6187
vt 0.7282 0.6187
vt 0.5157 0.5997
vt 0.7282 0.5997
vt 0.5157 0.5824
vt 0.7282 0.5824
vt 0.2282 0.5824
vt 0.2282 0.5998
vt 0.0157 0.5998
vt 0.0157 0.5824
vt 0.2282 0.6187
vt 0.0157 0.6187
vt 0.2282 0.6391
vt 0.0157 0.6391
vt 0.2282 0.6609
vt 0.0157 0.6609
vt 0.2282 0.6841
vt 0.0157 0.6841
vt 0.2282 0.7085
vt 0.0157 0.7085
vt 0.2282 0.7352
vt 0.0157 0.7352
vt 0.2282 0.7623
vt 0.0157 0.7623
vt 0.2282 0.7896
vt 0.0157 0.7896
vt 0.2282 0.8169
vt 0.0157 0.8169
vt 0.2282 0.8439
vt 0.0157 0.8439
vt 0.2282 0.8701
vt 0.0157 0.8701
vt 0.2282 0.8955
vt 0.0157 0.8955
vt 0.2282 0.9197
vt 0.0157 0.9197
vt 0.2282 0.9424
vt 0.0157 0.9424
vt 0.2282 0.9634
vt 0.0157 0.9634
vt 0.2282 0.9823
vt 0.0157 0.9823
vt 0.4721 0.5824
vt 0.4721 0.6007
vt 0.2596 0.6007
vt 0.2596 0.5824
vt 0.4721 0.6172
vt 0.2596 0.6172
vt 0.4721 0.6350
vt 0.2596 0.6350
vt 0.4721 0.6537
vt 0.2596 0.6537
vt 0.4721 0.6734
vt 0.2596 0.6734
vt 0.4721 0.6939
vt 0.2596 0.6939
vt 0.4721 0.7150
vt 0.2596 0.7150
vt 0.4721 0.7366
vt 0.2596 0.7366
vt 0.4721 0.7586
vt 0.2596 0.7586
vt 0.4721 0.7808
vt 0.2596 0.7808
vt 0.4721 0.8031
vt 0.2596 0.8031
vt 0.4721 0.8253
vt 0.2596 0.8253
vt 0.4721 0.8473
vt 0.2596 0.8473
vt 0.4721 0.8700
vt 0.2596 0.8700
vt 0.4721 0.8918
vt 0.2596 0.8918
vt 0.4721 0.9127
vt 0.2596 0.9127
vt 0.4721 0.9326
vt 0.2596 0.9326
vt 0.4721 0.9514
vt 0.2596 0.9514
vt 0.4721 0.9690
vt 0.2596 0.9690
vt 0.9721 0.5824
vt 0.9721 0.6003
vt 0.7596 0.6003
vt 0.7596 0.5824
vt 0.9721 0.6194
vt 0.7596 0.6194
vt 0.9721 0.6395
vt 0.7596 0.6395
vt 0.9721 0.6607
vt 0.7596 0.6607
vt 0.9721 0.6828
vt 0.7596 0.6828
vt 0.9721 0.7056
vt 0.7596 0.7056
vt 0.9721 0.7166
vt 0.7596 0.7166
vt 0.9721 0.7274
vt 0.7596 0.7274
vt 0.9721 0.7381
vt 0.7596 0.7381
vt 0.9721 0.7487
vt 0.7596 0.7487
vt 0.9721 0.7594
vt 0.7596 0.7594
vt 0.9721 0.7700
vt 0.7596 0.7700
vt 0.9721 0.7809
vt 0.7596 0.7809
vt 0.9721 0.7919
vt 0.7596 0.7919
vt 0.9721 0.8032
vt 0.7596 0.8032
vt 0.9721 0.8148
vt 0.7596 0.8148
vt 0.9721 0.8267
vt 0.7596 0.8267
vt 0.9721 0.8392
vt 0.7596 0.8392
vt 0.9721 0.8571
vt 0.7596 0.8571
vt 0.9721 0.8744
vt 0.7596 0.8744
vt 0.9721 0.8910
vt 0.7596 0.8910
vt 0.9721 0.9069
vt 0.7596 0.9069
vt 0.9721 0.9221
vt 0.7596 0.9221
vt 0.5157 0.9497
vt 0.5157 0.9346
vt 0.7282 0.9346
vt 0.7282 0.9497
vt 0.5157 0.9185
vt 0.7282 0.9185
vt 0.5157 0.9015
vt 0.7282 0.9015
vt 0.5157 0.8838
vt 0.7282 0.8838
vt 0.5157 0.8652
vt 0.7282 0.8652
vt 0.5157 0.8460
vt 0.7282 0.8460
vt 0.5157 0.8261
vt 0.7282 0.8261
vt 0.5157 0.8158
vt 0.7282 0.8158
vt 0.5157 0.8058
vt 0.7282 0.8058
vt 0.5157 0.7961
vt 0.7282 0.7961
vt 0.5157 0.7864
vt 0.7282 0.7864
vt 0.5157 0.7769
vt 0.7282 0.7769
vt 0.5157 0.7675
vt 0.7282 0.7675
vt 0.5157 0.7581
vt 0.7282 0.7581
vt 0.5157 0.7486
vt 0.7282 0.7486
vt 0.5157 0.7391
vt 0.7282 0.7391
vt 0.5157 0.7294
vt 0.7282 0.7294
vt 0.5157 0.7195
vt 0.7282 0.7195
vt 0.5157 0.7094
vt 0.7282 0.7094
vn 0.0000 1.0000 0.0000
vn 0.0000 -1.0000 -0.0000
vn 0.3288 0.0000 -0.9444
vn 0.4103 0.0000 -0.9119
vn 0.4900 0.0000 -0.8717
vn 0.5668 0.0000 -0.8238
vn 0.6399 0.0000 -0.7684
vn 0.7082 0.0000 -0.7061
vn 0.7707 0.0000 -0.6372
vn 0.8267 0.0000 -0.5627
vn 0.8754 0.0000 -0.4833
vn 0.9164 0.0000 -0.4002
vn 0.9492 0.0000 -0.3146
vn 0.9750 0.0000 -0.2223
vn 0.9933 0.0000 -0.1155
vn 1.0000 0.0000 -0.0020
vn 0.9943 0.0000 0.1067
vn 0.9777 -0.0000 0.2100
vn 0.9513 -0.0000 0.3082
vn 0.9158 -0.0000 0.4016
vn 0.8714 -0.0000 0.4906
vn 0.8180 -0.0000 0.5752
vn 0.7552 -0.0000 0.6555
vn 0.6822 -0.0000 0.7311
vn 0.5987 -0.0000 0.8010
vn 0.5101 -0.0000 0.8601
vn 0.4271 -0.0000 0.9042
vn 0.3486 -0.0000 0.9373
vn 0.2689 -0.0000 0.9632
vn 0.1882 -0.0000 0.9821
vn 0.1068 -0.0000 0.9943
vn 0.0248 -0.0000 0.9997
vn -0.0578 -0.0000 0.9983
vn -0.1409 -0.0000 0.9900
vn -0.2242 -0.0000 0.9746
vn -0.3074 -0.0000 0.9516
vn -0.3902 -0.0000 0.9207
vn -0.4684 -0.0000 0.8835
vn -0.5423 -0.0000 0.8402
vn -0.6134 -0.0000 0.7897
vn -0.6795 -0.0000 0.7337
vn -0.7401 -0.0000 0.6725
vn -0.7949 -0.0000 0.6067
vn -0.8438 -0.0000 0.5367
vn -0.8863 -0.0000 0.4631
vn -0.9225 0.0000 0.3860
vn -0.9520 -0.0000 0.3059
vn -0.9747 -0.0000 0.2235
vn -0.9903 0.0000 0.1391
vn -0.9978 0.0000 0.0663
vn -0.9999 0.0000 0.0149
vn -0.9996 0.0000 -0.0289
vn -0.9972 0.0000 -0.0749
vn -0.9924 0.0000 -0.1229
vn -0.9853 0.0000 -0.1709
vn -0.9759 0.0000 -0.2182
vn -0.9647 0.0000 -0.2632
vn -0.9522 0.0000 -0.3055
vn -0.9388 0.0000 -0.3445
vn -0.9253 0.0000 -0.3793
vn -0.9120 0.0000 -0.4102
vn -0.8951 0.0000 -0.4459
vn -0.8655 0.0000 -0.5010
vn -0.8239 0.0000 -0.5667
vn -0.7778 0.0000 -0.6285
vn -0.7279 0.0000 -0.6857
vn -0.6747 0.0000 -0.7381
vn -0.6187 0.0000 -0.7856
vn -0.5604 0.0000 -0.8282
vn -0.5004 0.0000 -0.8658
vn -0.4391 0.0000 -0.8984
vn -0.3769 0.0000 -0.9263
vn -0.3141 0.0000 -0.9494
vn -0.2620 0.0000 -0.9651
vn -0.2229 0.0000 -0.9748
vn -0.1839 0.0000 -0.9829
vn -0.1417 0.0000 -0.9899
vn -0.0968 0.0000 -0.9953
vn -0.0503 0.0000 -0.9987
vn -0.0028 0.0000 -1.0000
vn 0.0444 0.0000 -0.9990
vn 0.0903 0.0000 -0.9959
vn 0.1343 0.0000 -0.9909
vn 0.1752 0.0000 -0.9845
vn 0.2128 0.0000 -0.9771
vn 0.2591 0.0000 -0.9658
usemtl None
s off
f 1/1/1 163/2/1 162/3/1
f 1/1/1 2/4/1 163/2/1
f 3/5/1 2/4/1 1/1/1
f 3/5/1 165/6/1 2/4/1
f 4/7/1 165/6/1 3/5/1
f 4/7/1 166/8/1 165/6/1
f 5/9/1 166/8/1 4/7/1
f 5/9/1 167/10/1 166/8/1
f 6/11/1 167/10/1 5/9/1
f 6/11/1 7/12/1 167/10/1
f 157/13/1 7/12/1 6/11/1
f 157/13/1 88/14/1 7/12/1
f 155/15/1 88/14/1 157/13/1
f 8/16/1 88/14/1 155/15/1
f 8/16/1 89/17/1 88/14/1
f 9/18/1 89/17/1 8/16/1
f 9/18/1 10/19/1 89/17/1
f 11/20/1 10/19/1 9/18/1
f 11/20/1 12/21/1 10/19/1
f 13/22/1 12/21/1 11/20/1
f 151/23/1 12/21/1 13/22/1
f 151/23/1 90/24/1 12/21/1
f 149/25/1 90/24/1 151/23/1
f 149/25/1 14/26/1 90/24/1
f 15/27/1 14/26/1 149/25/1
f 15/27/1 92/28/1 14/26/1
f 147/29/1 92/28/1 15/27/1
f 147/29/1 16/30/1 92/28/1
f 17/31/1 16/30/1 147/29/1
f 18/32/1 16/30/1 17/31/1
f 18/32/1 94/33/1 16/30/1
f 146/34/1 94/33/1 18/32/1
f 146/34/1 95/35/1 94/33/1
f 19/36/1 95/35/1 146/34/1
f 144/37/1 95/35/1 19/36/1
f 144/37/1 20/38/1 95/35/1
f 21/39/1 20/38/1 144/37/1
f 142/40/1 20/38/1 21/39/1
f 142/40/1 22/41/1 20/38/1
f 23/42/1 22/41/1 142/40/1
f 24/43/1 22/41/1 23/42/1
f 24/43/1 25/44/1 22/41/1
f 138/45/1 25/44/1 24/43/1
f 137/46/1 25/44/1 138/45/1
f 26/47/1 25/44/1 137/46/1
f 26/47/1 100/48/1 25/44/1
f 135/49/1 100/48/1 26/47/1
f 27/50/1 100/48/1 135/49/1
f 27/50/1 101/51/1 100/48/1
f 28/52/1 101/51/1 27/50/1
f 132/53/1 101/51/1 28/52/1
f 132/53/1 29/54/1 101/51/1
f 130/55/1 29/54/1 132/53/1
f 130/55/1 103/56/1 29/54/1
f 30/57/1 103/56/1 130/55/1
f 30/57/1 104/58/1 103/56/1
f 31/59/1 104/58/1 30/57/1
f 128/60/1 104/58/1 31/59/1
f 128/60/1 106/61/1 104/58/1
f 32/62/1 106/61/1 128/60/1
f 32/62/1 108/63/1 106/61/1
f 127/64/1 108/63/1 32/62/1
f 127/64/1 109/65/1 108/63/1
f 126/66/1 109/65/1 127/64/1
f 126/66/1 33/67/1 109/65/1
f 124/68/1 33/67/1 126/66/1
f 123/69/1 33/67/1 124/68/1
f 123/69/1 110/70/1 33/67/1
f 34/71/1 110/70/1 123/69/1
f 34/71/1 111/72/1 110/70/1
f 35/73/1 111/72/1 34/71/1
f 35/73/1 113/74/1 111/72/1
f 36/75/1 113/74/1 35/73/1
f 36/75/1 37/76/1 113/74/1
f 38/77/1 37/76/1 36/75/1
f 38/77/1 39/78/1 37/76/1
f 120/79/1 39/78/1 38/77/1
f 120/79/1 40/80/1 39/78/1
f 119/81/1 40/80/1 120/79/1
f 119/81/1 115/82/1 40/80/1
f 117/83/1 115/82/1 119/81/1
f 117/83/1 41/84/1 115/82/1
f 164/85/2 161/86/2 42/87/2
f 43/88/2 161/86/2 164/85/2
f 43/88/2 160/89/2 161/86/2
f 44/90/2 160/89/2 43/88/2
f 44/90/2 45/91/2 160/89/2
f 46/92/2 45/91/2 44/90/2
f 46/92/2 159/93/2 45/91/2
f 47/94/2 159/93/2 46/92/2
f 47/94/2 48/95/2 159/93/2
f 168/96/2 48/95/2 47/94/2
f 168/96/2 158/97/2 48/95/2
f 49/98/2 158/97/2 168/96/2
f 49/98/2 156/99/2 158/97/2
f 49/98/2 154/100/2 156/99/2
f 50/101/2 154/100/2 49/98/2
f 50/101/2 51/102/2 154/100/2
f 52/103/2 51/102/2 50/101/2
f 52/103/2 53/104/2 51/102/2
f 54/105/2 53/104/2 52/103/2
f 54/105/2 153/106/2 53/104/2
f 54/105/2 152/107/2 153/106/2
f 55/108/2 152/107/2 54/105/2
f 55/108/2 150/109/2 152/107/2
f 91/110/2 150/109/2 55/108/2
f 91/110/2 56/111/2 150/109/2
f 93/112/2 56/111/2 91/110/2
f 93/112/2 148/113/2 56/111/2
f 57/114/2 148/113/2 93/112/2
f 57/114/2 58/115/2 148/113/2
f 57/114/2 59/116/2 58/115/2
f 60/117/2 59/116/2 57/114/2
f 60/117/2 61/118/2 59/116/2
f 96/119/2 61/118/2 60/117/2
f 96/119/2 145/120/2 61/118/2
f 96/119/2 62/121/2 145/120/2
f 97/122/2 62/121/2 96/119/2
f 97/122/2 63/123/2 62/121/2
f 97/122/2 143/124/2 63/123/2
f 98/125/2 143/124/2 97/122/2
f 98/125/2 141/126/2 143/124/2
f 98/125/2 140/127/2 141/126/2
f 99/128/2 140/127/2 98/125/2
f 99/128/2 139/129/2 140/127/2
f 99/128/2 64/130/2 139/129/2
f 99/128/2 65/131/2 64/130/2
f 66/132/2 65/131/2 99/128/2
f 66/132/2 136/133/2 65/131/2
f 66/132/2 134/134/2 136/133/2
f 102/135/2 134/134/2 66/132/2
f 102/135/2 133/136/2 134/134/2
f 102/135/2 67/137/2 133/136/2
f 68/138/2 67/137/2 102/135/2
f 68/138/2 131/139/2 67/137/2
f 69/140/2 131/139/2 68/138/2
f 69/140/2 70/141/2 131/139/2
f 105/142/2 70/141/2 69/140/2
f 105/142/2 71/143/2 70/141/2
f 105/142/2 129/144/2 71/143/2
f 107/145/2 129/144/2 105/142/2
f 107/145/2 72/146/2 129/144/2
f 73/147/2 72/146/2 107/145/2
f 73/147/2 74/148/2 72/146/2
f 75/149/2 74/148/2 73/147/2
f 75/149/2 76/150/2 74/148/2
f 77/151/2 76/150/2 75/149/2
f 77/151/2 125/152/2 76/150/2
f 77/151/2 78/153/2 125/152/2
f 79/154/2 78/153/2 77/151/2
f 79/154/2 80/155/2 78/153/2
f 112/156/2 80/155/2 79/154/2
f 112/156/2 122/157/2 80/155/2
f 114/158/2 122/157/2 112/156/2
f 114/158/2 81/159/2 122/157/2
f 82/160/2 81/159/2 114/158/2
f 82/160/2 121/161/2 81/159/2
f 83/162/2 121/161/2 82/160/2
f 83/162/2 84/163/2 121/161/2
f 85/164/2 84/163/2 83/162/2
f 85/164/2 86/165/2 84/163/2
f 87/166/2 86/165/2 85/164/2
f 87/166/2 118/167/2 86/165/2
f 116/168/2 118/167/2 87/166/2
s 1
f 88/169/3 89/170/4 50/171/4 49/172/3
f 89/170/4 10/173/5 52/174/5 50/171/4
f 10/173/5 12/175/6 54/176/6 52/174/5
f 12/175/6 90/177/7 55/178/7 54/176/6
f 90/177/7 14/179/8 91/180/8 55/178/7
f 14/181/8 92/182/9 93/183/9 91/184/8
f 92/182/9 16/185/10 57/186/10 93/183/9
f 16/185/10 94/187/11 60/188/11 57/186/10
f 94/187/11 95/189/12 96/190/12 60/188/11
f 95/189/12 20/191/13 97/192/13 96/190/12
f 20/191/13 22/193/14 98/194/14 97/192/13
f 22/193/14 25/195/15 99/196/15 98/194/14
f 25/195/15 100/197/16 66/198/16 99/196/15
f 100/197/16 101/199/17 102/200/17 66/198/16
f 101/199/17 29/201/18 68/202/18 102/200/17
f 29/201/18 103/203/19 69/204/19 68/202/18
f 103/203/19 104/205/20 105/206/20 69/204/19
f 104/205/20 106/207/21 107/208/21 105/206/20
f 106/207/21 108/209/22 73/210/22 107/208/21
f 108/209/22 109/211/23 75/212/23 73/210/22
f 109/211/23 33/213/24 77/214/24 75/212/23
f 33/213/24 110/215/25 79/216/25 77/214/24
f 110/217/25 111/218/26 112/219/26 79/220/25
f 111/218/26 113/221/27 114/222/27 112/219/26
f 113/221/27 37/223/28 82/224/28 114/222/27
f 37/223/28 39/225/29 83/226/29 82/224/28
f 39/225/29 40/227/30 85/228/30 83/226/29
f 40/227/30 115/229/31 87/230/31 85/228/30
f 115/229/31 41/231/32 116/232/32 87/230/31
f 41/231/32 117/233/33 118/234/33 116/232/32
f 117/233/33 119/235/34 86/236/34 118/234/33
f 119/235/34 120/237/35 84/238/35 86/236/34
f 120/237/35 38/239/36 121/240/36 84/238/35
f 38/239/36 36/241/37 81/242/37 121/240/36
f 36/241/37 35/243/38 122/244/38 81/242/37
f 35/243/38 34/245/39 80/246/39 122/244/38
f 34/245/39 123/247/40 78/248/40 80/246/39
f 123/247/40 124/249/41 125/250/41 78/248/40
f 124/249/41 126/251/42 76/252/42 125/250/41
f 126/251/42 127/253/43 74/254/43 76/252/42
f 127/253/43 32/255/44 72/256/44 74/254/43
f 32/257/44 128/258/45 129/259/45 72/260/44
f 128/258/45 31/261/46 71/262/46 129/259/45
f 31/261/46 30/263/47 70/264/47 71/262/46
f 30/263/47 130/265/48 131/266/48 70/264/47
f 130/265/48 132/267/49 67/268/49 131/266/48
f 132/267/49 28/269/50 133/270/50 67/268/49
f 28/269/50 27/271/51 134/272/51 133/270/50
f 27/271/51 135/273/52 136/274/52 134/272/51
f 135/273/52 26/275/53 65/276/53 136/274/52
f 26/275/53 137/277/54 64/278/54 65/276/53
f 137/277/54 138/279/55 139/280/55 64/278/54
f 138/279/55 24/281/56 140/282/56 139/280/55
f 24/281/56 23/283/57 141/284/57 140/282/56
f 23/283/57 142/285/58 143/286/58 141/284/57
f 142/285/58 21/287/59 63/288/59 143/286/58
f 21/287/59 144/289/60 62/290/60 63/288/59
f 144/289/60 19/291/61 145/292/61 62/290/60
f 19/291/61 146/293/62 61/294/62 145/292/61
f 146/293/62 18/295/63 59/296/63 61/294/62
f 18/295/63 17/297/64 58/298/64 59/296/63
f 17/297/64 147/299/65 148/300/65 58/298/64
f 147/299/65 15/301/66 56/302/66 148/300/65
f 15/301/66 149/303/67 150/304/67 56/302/66
f 149/305/67 151/306/68 152/307/68 150/308/67
f 151/306/68 13/309/69 153/310/69 152/307/68
f 13/309/69 11/311/70 53/312/70 153/310/69
f 11/311/70 9/313/71 51/314/71 53/312/70
f 9/313/71 8/315/72 154/316/72 51/314/71
f 8/315/72 155/317/73 156/318/73 154/316/72
f 155/317/73 157/319/74 158/320/74 156/318/73
f 157/319/74 6/321/75 48/322/75 158/320/74
f 6/321/75 5/323/76 159/324/76 48/322/75
f 5/323/76 4/325/77 45/326/77 159/324/76
f 4/325/77 3/327/78 160/328/78 45/326/77
f 3/327/78 1/329/79 161/330/79 160/328/78
f 1/329/79 162/331/80 42/332/80 161/330/79
f 162/331/80 163/333/81 164/334/81 42/332/80
f 163/333/81 2/335/82 43/336/82 164/334/81
f 2/335/82 165/337/83 44/338/83 43/336/82
f 165/337/83 166/339/84 46/340/84 44/338/83
f 166/339/84 167/341/85 47/342/85 46/340/84
f 167/341/85 7/343/86 168/344/86 47/342/85
f 7/343/86 88/169/3 49/172/3 168/344/86
