# Blender v2.78 (sub 0) OBJ File: ''
# www.blender.org
mtllib Facebook_logo.mtl
o Curve_Curve.2017
v -0.116318 0.015000 -0.149792
v 0.096441 0.015000 -0.149924
v -0.071773 0.015000 -0.149982
v 0.125179 0.015000 -0.149678
v -0.131480 0.015000 -0.149531
v 0.135827 0.015000 -0.149340
v -0.138555 0.015000 -0.149108
v 0.139139 0.015000 -0.149006
v -0.140970 0.015000 -0.148559
v 0.140970 0.015000 -0.148559
v -0.142906 0.015000 -0.147361
v 0.142900 0.015000 -0.147364
v -0.145015 0.015000 -0.145615
v 0.145022 0.015000 -0.145608
v -0.146817 0.015000 -0.143798
v 0.146715 0.015000 -0.143907
v -0.149598 0.015000 -0.140279
v -0.149598 0.015000 0.140299
v -0.146553 0.015000 0.144115
v 0.146567 0.015000 0.144125
v -0.144757 0.015000 0.145864
v 0.143949 0.015000 0.146564
v -0.142898 0.015000 0.147389
v 0.141787 0.015000 0.148144
v -0.140975 0.015000 0.148578
v 0.140519 0.015000 0.148723
v 0.138559 0.015000 0.149129
v -0.139139 0.015000 0.149027
v -0.135821 0.015000 0.149363
v 0.131529 0.015000 0.149550
v -0.125081 0.015000 0.149701
v 0.116375 0.015000 0.149814
v -0.090522 0.015000 0.149976
v 0.080043 0.015000 0.149982
v 0.096441 0.000000 -0.149924
v -0.116318 0.000000 -0.149792
v -0.071773 0.000000 -0.149982
v 0.125179 0.000000 -0.149678
v -0.131480 0.000000 -0.149531
v 0.135827 0.000000 -0.149340
v -0.138555 0.000000 -0.149108
v 0.139139 0.000000 -0.149006
v -0.140970 0.000000 -0.148559
v 0.140970 0.000000 -0.148559
v -0.142906 0.000000 -0.147361
v 0.142900 0.000000 -0.147364
v -0.145015 0.000000 -0.145615
v 0.145022 0.000000 -0.145608
v -0.146817 0.000000 -0.143798
v 0.146715 0.000000 -0.143907
v -0.149598 0.000000 -0.140279
v -0.146553 -0.000000 0.144115
v 0.146567 -0.000000 0.144125
v -0.144757 -0.000000 0.145864
v 0.143949 -0.000000 0.146564
v -0.142898 -0.000000 0.147389
v 0.141787 -0.000000 0.148144
v -0.140975 -0.000000 0.148578
v 0.140519 -0.000000 0.148723
v 0.138559 -0.000000 0.149129
v -0.139139 -0.000000 0.149027
v -0.135821 -0.000000 0.149363
v 0.131529 -0.000000 0.149550
v -0.125081 -0.000000 0.149701
v 0.116375 -0.000000 0.149814
v -0.090522 -0.000000 0.149976
v 0.080043 -0.000000 0.149982
v 0.140153 0.015000 -0.149071
v 0.129461 0.000000 -0.149789
v 0.102705 0.015000 -0.149923
v 0.145331 0.015000 -0.145391
v 0.141450 0.000000 -0.148443
v 0.141451 0.015000 0.148464
v 0.145916 -0.000000 0.144900
v 0.146464 0.015000 0.144252
v 0.129463 0.015000 0.149810
v 0.140153 -0.000000 0.149092
v -0.133594 0.015000 0.149727
v -0.129463 -0.000000 0.149810
v 0.146229 0.000000 -0.144460
v 0.149598 0.015000 -0.140279
v 0.149598 0.000000 -0.140279
v -0.141517 0.015000 0.148367
v -0.141450 -0.000000 0.148464
v -0.145834 0.015000 0.144894
v -0.141301 0.015000 -0.148501
v -0.145448 0.000000 -0.145406
v -0.146317 0.015000 -0.144406
v -0.129461 0.015000 -0.149789
v -0.139750 0.000000 -0.149120
v 0.149598 0.015000 0.140300
v 0.149598 -0.000000 0.140300
v -0.146230 -0.000000 0.144480
v -0.149598 -0.000000 0.140299
v 0.102825 -0.000000 0.149944
v -0.102705 0.000000 -0.149923
vt 0.0678 0.4897
vt 0.4011 0.4899
vt 0.1376 0.4900
vt 0.4461 0.4895
vt 0.0440 0.4893
vt 0.4628 0.4890
vt 0.0330 0.4886
vt 0.4680 0.4885
vt 0.0292 0.4878
vt 0.4708 0.4878
vt 0.0261 0.4859
vt 0.4738 0.4859
vt 0.0228 0.4831
vt 0.4772 0.4831
vt 0.0200 0.4802
vt 0.4798 0.4804
vt 0.4843 0.4747
vt 0.0157 0.4747
vt 0.0157 0.0311
vt 0.4843 0.0311
vt 0.0204 0.0251
vt 0.4796 0.0251
vt 0.0232 0.0223
vt 0.4755 0.0212
vt 0.0262 0.0199
vt 0.4721 0.0187
vt 0.0292 0.0180
vt 0.4701 0.0178
vt 0.4670 0.0172
vt 0.0320 0.0173
vt 0.0372 0.0168
vt 0.4560 0.0165
vt 0.0541 0.0163
vt 0.4323 0.0161
vt 0.1082 0.0158
vt 0.3754 0.0158
vt 0.9011 0.0159
vt 0.5678 0.0161
vt 0.6376 0.0158
vt 0.9461 0.0163
vt 0.5440 0.0165
vt 0.9628 0.0168
vt 0.5330 0.0172
vt 0.9680 0.0174
vt 0.5292 0.0181
vt 0.9708 0.0181
vt 0.5261 0.0200
vt 0.9738 0.0199
vt 0.5228 0.0227
vt 0.9772 0.0227
vt 0.5200 0.0256
vt 0.9798 0.0254
vt 0.9843 0.0312
vt 0.5157 0.0312
vt 0.5157 0.4747
vt 0.9843 0.4747
vt 0.5204 0.4807
vt 0.9796 0.4808
vt 0.5232 0.4835
vt 0.9755 0.4846
vt 0.5262 0.4859
vt 0.9721 0.4871
vt 0.5292 0.4878
vt 0.9701 0.4880
vt 0.9670 0.4887
vt 0.5320 0.4885
vt 0.5372 0.4890
vt 0.9560 0.4893
vt 0.5541 0.4896
vt 0.9323 0.4897
vt 0.6082 0.4900
vt 0.8754 0.4900
vt 0.1086 0.5312
vt 0.1702 0.5481
vt 0.1086 0.5904
vt 0.1086 0.5231
vt 0.1702 0.5292
vt 0.0157 0.9764
vt 0.0773 0.9834
vt 0.0157 0.9842
vt 0.0157 0.9575
vt 0.0773 0.9744
vt 0.0157 0.5418
vt 0.0773 0.5483
vt 0.3561 0.9791
vt 0.2945 0.9805
vt 0.2945 0.9725
vt 0.3561 0.9725
vt 0.0157 0.5292
vt 0.0773 0.5293
vt 0.0157 0.5223
vt 0.1086 0.9762
vt 0.1702 0.9827
vt 0.1086 0.9841
vt 0.1086 0.9575
vt 0.1702 0.9737
vt 0.1702 0.5216
vt 0.2945 0.5289
vt 0.3561 0.5289
vt 0.2945 0.5227
vt 0.3561 0.5216
vt 0.2015 0.5223
vt 0.2632 0.5216
vt 0.2632 0.5289
vt 0.2015 0.5289
vt 0.0773 0.9154
vt 0.0773 0.5216
vt 0.2632 0.9724
vt 0.2015 0.9724
vt 0.2632 0.9790
vt 0.2015 0.9806
vt 0.1702 0.9152
vn 0.0000 1.0000 -0.0000
vn -0.0000 -1.0000 -0.0000
vn 0.3171 0.0103 -0.9483
vn 0.0459 0.0060 -0.9989
vn 0.0032 -0.0032 -1.0000
vn 0.6839 0.0068 -0.7296
vn 0.3992 -0.0174 -0.9167
vn 0.4011 0.0169 0.9159
vn 0.6946 -0.0057 0.7194
vn 0.7187 0.0042 0.6953
vn 0.0459 -0.0057 0.9989
vn 0.3220 -0.0108 0.9467
vn -0.0854 -0.0024 0.9963
vn -0.0465 -0.0072 0.9989
vn 0.7132 -0.0026 -0.7010
vn 0.9414 0.0018 -0.3372
vn -0.4121 0.0041 0.9111
vn -0.3979 -0.0096 0.9174
vn -0.7051 0.0011 0.7091
vn -0.3909 0.0174 -0.9203
vn -0.6753 -0.0075 -0.7375
vn -0.7141 0.0062 -0.7001
vn -0.0448 -0.0053 -0.9990
vn -0.2954 -0.0131 -0.9553
vn 0.9439 -0.0004 0.3301
vn -0.7131 -0.0013 0.7010
vn -0.9423 0.0008 0.3346
vn -0.9424 0.0008 0.3346
vn 0.0032 0.0032 1.0000
vn -0.9433 -0.0009 -0.3319
vn -0.0030 0.0035 -1.0000
usemtl None
s off
f 1/1/1 2/2/1 3/3/1
f 1/1/1 4/4/1 2/2/1
f 5/5/1 4/4/1 1/1/1
f 5/5/1 6/6/1 4/4/1
f 7/7/1 6/6/1 5/5/1
f 7/7/1 8/8/1 6/6/1
f 9/9/1 8/8/1 7/7/1
f 9/9/1 10/10/1 8/8/1
f 11/11/1 10/10/1 9/9/1
f 11/11/1 12/12/1 10/10/1
f 13/13/1 12/12/1 11/11/1
f 13/13/1 14/14/1 12/12/1
f 15/15/1 14/14/1 13/13/1
f 15/15/1 16/16/1 14/14/1
f 15/15/1 81/17/1 16/16/1
f 17/18/1 81/17/1 15/15/1
f 18/19/1 81/17/1 17/18/1
f 18/19/1 91/20/1 81/17/1
f 19/21/1 91/20/1 18/19/1
f 19/21/1 20/22/1 91/20/1
f 21/23/1 20/22/1 19/21/1
f 21/23/1 22/24/1 20/22/1
f 23/25/1 22/24/1 21/23/1
f 23/25/1 24/26/1 22/24/1
f 25/27/1 24/26/1 23/25/1
f 25/27/1 26/28/1 24/26/1
f 25/27/1 27/29/1 26/28/1
f 28/30/1 27/29/1 25/27/1
f 29/31/1 27/29/1 28/30/1
f 29/31/1 30/32/1 27/29/1
f 31/33/1 30/32/1 29/31/1
f 31/33/1 32/34/1 30/32/1
f 33/35/1 32/34/1 31/33/1
f 33/35/1 34/36/1 32/34/1
f 35/37/2 36/38/2 37/39/2
f 38/40/2 36/38/2 35/37/2
f 38/40/2 39/41/2 36/38/2
f 40/42/2 39/41/2 38/40/2
f 40/42/2 41/43/2 39/41/2
f 42/44/2 41/43/2 40/42/2
f 42/44/2 43/45/2 41/43/2
f 44/46/2 43/45/2 42/44/2
f 44/46/2 45/47/2 43/45/2
f 46/48/2 45/47/2 44/46/2
f 46/48/2 47/49/2 45/47/2
f 48/50/2 47/49/2 46/48/2
f 48/50/2 49/51/2 47/49/2
f 50/52/2 49/51/2 48/50/2
f 82/53/2 49/51/2 50/52/2
f 82/53/2 51/54/2 49/51/2
f 82/53/2 94/55/2 51/54/2
f 92/56/2 94/55/2 82/53/2
f 92/56/2 52/57/2 94/55/2
f 53/58/2 52/57/2 92/56/2
f 53/58/2 54/59/2 52/57/2
f 55/60/2 54/59/2 53/58/2
f 55/60/2 56/61/2 54/59/2
f 57/62/2 56/61/2 55/60/2
f 57/62/2 58/63/2 56/61/2
f 59/64/2 58/63/2 57/62/2
f 60/65/2 58/63/2 59/64/2
f 60/65/2 61/66/2 58/63/2
f 60/65/2 62/67/2 61/66/2
f 63/68/2 62/67/2 60/65/2
f 63/68/2 64/69/2 62/67/2
f 65/70/2 64/69/2 63/68/2
f 65/70/2 66/71/2 64/69/2
f 67/72/2 66/71/2 65/70/2
s 1
f 68/73/3 69/74/4 70/75/5
f 71/76/6 72/77/7 68/73/3
f 73/78/8 74/79/9 75/80/10
f 76/81/11 77/82/12 73/78/8
f 78/83/13 79/84/14 76/81/11
f 80/85/15 71/86/6 81/87/16 82/88/16
f 83/89/17 84/90/18 78/83/13
f 85/91/19 84/90/18 83/89/17
f 86/92/20 87/93/21 88/94/22
f 89/95/23 90/96/24 86/92/20
f 70/75/5 69/74/4 89/95/23
f 68/73/3 72/77/7 69/74/4
f 71/76/6 80/97/15 72/77/7
f 82/88/16 81/87/16 91/98/25 92/99/25
f 92/99/25 91/98/25 75/100/10 74/101/9
f 93/102/26 85/103/19 18/104/27 94/105/28
f 73/78/8 77/82/12 74/79/9
f 76/81/11 95/106/29 77/82/12
f 76/81/11 79/84/14 95/106/29
f 78/83/13 84/90/18 79/84/14
f 85/91/19 93/107/26 84/90/18
f 94/105/28 18/104/27 17/108/30 51/109/30
f 51/109/30 17/108/30 88/110/22 87/111/21
f 86/92/20 90/96/24 87/93/21
f 89/95/23 96/112/31 90/96/24
f 89/95/23 69/74/4 96/112/31
