# Blender v2.78 (sub 0) OBJ File: ''
# www.blender.org
mtllib Google_logo.mtl
o Curve_Curve.2057
v -0.017940 0.015000 -0.148849
v 0.014216 0.015000 -0.149901
v -0.001464 0.015000 -0.150249
v 0.027691 0.015000 -0.148302
v -0.034252 0.015000 -0.145626
v 0.041684 0.015000 -0.145196
v -0.049977 0.015000 -0.140691
v 0.055337 0.015000 -0.140854
v -0.065025 0.015000 -0.134081
v 0.075524 0.015000 -0.131659
v -0.079243 0.015000 -0.125860
v 0.092821 0.015000 -0.120289
v -0.095070 0.015000 -0.114013
v 0.102076 0.015000 -0.112734
v -0.108430 0.015000 -0.100865
v -0.117169 0.015000 -0.090197
v 0.000272 0.015000 -0.088668
v 0.015254 0.015000 -0.087950
v 0.030492 0.015000 -0.084347
v 0.041542 0.015000 -0.079778
v 0.051578 0.015000 -0.074002
v 0.058307 0.015000 -0.068934
v -0.011605 0.015000 -0.087501
v -0.125952 0.015000 -0.077206
v -0.023217 0.015000 -0.084757
v -0.034362 0.015000 -0.080466
v -0.047008 0.015000 -0.073290
v -0.057651 0.015000 -0.064565
v -0.134833 0.015000 -0.059654
v -0.067224 0.015000 -0.054150
v -0.141486 0.015000 -0.040830
v -0.076955 0.015000 -0.038207
v -0.145699 0.015000 -0.020042
v -0.083100 0.015000 -0.020614
v 0.145142 0.015000 -0.016852
v 0.143022 0.015000 -0.027690
v -0.085425 0.015000 -0.001935
v -0.146987 0.015000 0.001036
v 0.146231 0.015000 -0.005507
v 0.003157 0.015000 0.030455
v 0.146008 0.015000 0.011925
v -0.084396 0.015000 0.012384
v -0.145359 0.015000 0.022040
v -0.081776 0.015000 0.024873
v 0.144605 0.015000 0.026295
v -0.140829 0.015000 0.042643
v -0.078154 0.015000 0.034875
v 0.083395 0.015000 0.030455
v 0.142409 0.015000 0.038392
v 0.043260 0.015000 0.030455
v 0.081975 0.015000 0.036751
v -0.073042 0.015000 0.045113
v 0.077388 0.015000 0.048242
v 0.137226 0.015000 0.056922
v -0.133612 0.015000 0.062026
v -0.064068 0.015000 0.057479
v 0.072046 0.015000 0.057256
v 0.065375 0.015000 0.065167
v -0.050735 0.015000 0.070232
v 0.127602 0.015000 0.078327
v 0.057585 0.015000 0.072064
v -0.125150 0.015000 0.077959
v 0.046314 0.015000 0.078947
v -0.035896 0.015000 0.079411
v 0.031418 0.015000 0.084731
v -0.113413 0.015000 0.094698
v -0.021733 0.015000 0.084780
v 0.116599 0.015000 0.095298
v -0.010762 0.015000 0.087216
v 0.015009 0.015000 0.087730
v -0.001521 0.015000 0.088097
v 0.103329 0.015000 0.110328
v -0.099394 0.015000 0.109557
v -0.086896 0.015000 0.120023
v 0.087972 0.015000 0.123220
v -0.073308 0.015000 0.129083
v 0.070690 0.015000 0.133806
v -0.057581 0.015000 0.137150
v 0.051805 0.015000 0.141847
v -0.043352 0.015000 0.142462
v -0.028570 0.015000 0.146520
v 0.032049 0.015000 0.147145
v -0.008400 0.015000 0.149461
v 0.011909 0.015000 0.149672
v 0.014216 0.000000 -0.149901
v -0.017940 0.000000 -0.148849
v -0.001464 0.000000 -0.150249
v 0.027691 0.000000 -0.148302
v -0.034252 0.000000 -0.145626
v 0.041684 0.000000 -0.145196
v -0.049977 0.000000 -0.140691
v 0.055337 0.000000 -0.140854
v -0.065025 0.000000 -0.134081
v 0.075524 0.000000 -0.131659
v -0.079243 0.000000 -0.125860
v 0.092821 0.000000 -0.120289
v -0.095070 0.000000 -0.114013
v 0.102076 0.000000 -0.112734
v -0.108430 0.000000 -0.100865
v -0.117169 0.000000 -0.090197
v 0.000272 0.000000 -0.088668
v 0.015254 0.000000 -0.087950
v 0.030492 0.000000 -0.084347
v 0.041542 0.000000 -0.079778
v 0.051578 0.000000 -0.074002
v -0.011605 0.000000 -0.087501
v -0.125952 0.000000 -0.077206
v -0.023217 0.000000 -0.084757
v -0.034362 0.000000 -0.080466
v -0.047008 0.000000 -0.073290
v -0.057651 0.000000 -0.064565
v -0.134833 0.000000 -0.059654
v -0.067224 0.000000 -0.054150
v -0.141486 0.000000 -0.040830
v -0.076955 0.000000 -0.038207
v -0.145699 0.000000 -0.020042
v -0.083100 0.000000 -0.020614
v 0.145142 0.000000 -0.016852
v 0.143022 0.000000 -0.027690
v -0.085425 0.000000 -0.001935
v -0.146987 -0.000000 0.001036
v 0.146231 0.000000 -0.005507
v 0.146008 -0.000000 0.011925
v -0.084396 -0.000000 0.012384
v -0.145359 -0.000000 0.022040
v -0.081776 -0.000000 0.024873
v 0.144605 -0.000000 0.026295
v -0.140829 -0.000000 0.042643
v -0.078154 -0.000000 0.034875
v 0.083395 -0.000000 0.030455
v 0.142409 -0.000000 0.038392
v 0.043260 -0.000000 0.030455
v 0.081975 -0.000000 0.036751
v -0.073042 -0.000000 0.045113
v 0.077388 -0.000000 0.048242
v 0.137226 -0.000000 0.056922
v -0.133612 -0.000000 0.062026
v -0.064068 -0.000000 0.057479
v 0.072046 -0.000000 0.057256
v 0.065375 -0.000000 0.065167
v -0.050735 -0.000000 0.070232
v 0.127602 -0.000000 0.078327
v 0.057585 -0.000000 0.072064
v -0.125150 -0.000000 0.077959
v 0.046314 -0.000000 0.078947
v -0.035896 -0.000000 0.079411
v 0.031418 -0.000000 0.084731
v -0.113413 -0.000000 0.094698
v -0.021733 -0.000000 0.084780
v 0.116599 -0.000000 0.095298
v -0.010762 -0.000000 0.087216
v 0.015009 -0.000000 0.087730
v -0.001521 -0.000000 0.088097
v 0.103329 -0.000000 0.110328
v -0.099394 -0.000000 0.109557
v -0.086896 -0.000000 0.120023
v 0.087972 -0.000000 0.123220
v -0.073308 -0.000000 0.129083
v 0.070690 -0.000000 0.133806
v -0.057581 -0.000000 0.137150
v 0.051805 -0.000000 0.141847
v -0.043352 -0.000000 0.142462
v -0.028570 -0.000000 0.146520
v 0.032049 -0.000000 0.147145
v -0.008400 -0.000000 0.149461
v 0.011909 -0.000000 0.149672
v 0.080727 0.015000 -0.128628
v 0.078825 0.000000 -0.130403
v 0.035489 0.015000 -0.148071
v 0.102183 0.015000 -0.112877
v 0.057091 0.015000 -0.070403
v 0.058304 0.000000 -0.068937
v -0.029551 0.015000 0.082576
v -0.037512 -0.000000 0.079914
v -0.051205 0.015000 0.069860
v 0.023995 0.015000 0.086813
v 0.001284 -0.000000 0.088620
v -0.005803 0.015000 0.087985
v 0.053409 0.015000 0.075522
v 0.033278 -0.000000 0.084410
v 0.076250 0.015000 0.051995
v 0.060358 -0.000000 0.070617
v 0.083541 0.015000 0.030595
v 0.078614 -0.000000 0.046668
v 0.146987 0.015000 0.006568
v 0.146072 0.000000 -0.010623
v -0.095454 0.015000 -0.115082
v -0.127123 0.000000 -0.076055
v -0.128702 0.015000 -0.072997
v -0.051177 0.015000 -0.140470
v -0.056916 0.000000 -0.139109
v -0.012159 0.015000 -0.150089
v 0.028768 0.000000 -0.148801
v 0.046499 0.000000 -0.077358
v 0.021967 0.000000 -0.087126
v 0.023252 0.015000 -0.086794
v -0.016854 0.015000 -0.087490
v -0.018756 0.000000 -0.087039
v -0.057582 0.015000 -0.065947
v -0.059546 0.000000 -0.064097
v -0.080496 0.015000 -0.030984
v -0.081377 0.000000 -0.028464
v -0.085386 0.015000 0.014730
v -0.084894 -0.000000 0.016776
v -0.069531 0.015000 0.051098
v -0.068827 -0.000000 0.052068
v 0.003157 -0.000000 0.030455
v 0.003157 0.015000 -0.027690
v 0.003157 0.000000 -0.027690
v 0.145456 -0.000000 0.021365
v 0.136285 0.015000 0.061401
v 0.135547 -0.000000 0.063506
v 0.111427 0.015000 0.102255
v 0.109539 -0.000000 0.104392
v 0.080986 0.015000 0.128358
v 0.078528 -0.000000 0.129865
v 0.043620 0.015000 0.144757
v 0.040804 -0.000000 0.145512
v 0.003218 0.015000 0.150249
v 0.000329 -0.000000 0.150219
v -0.042013 0.015000 0.143595
v -0.044881 -0.000000 0.142667
v -0.092883 0.015000 0.116728
v -0.094915 -0.000000 0.115027
v -0.127650 0.015000 0.074594
v -0.129036 -0.000000 0.072161
v -0.146046 0.015000 0.023939
v -0.146530 -0.000000 0.020667
v -0.144590 0.015000 -0.029151
v -0.143991 0.000000 -0.032108
v -0.007319 0.000000 -0.150204
v -0.100937 0.000000 -0.108990
vt 0.3337 0.5387
vt 0.3815 0.5156
vt 0.3588 0.5283
vt 0.4001 0.5027
vt 0.3076 0.5462
vt 0.4183 0.4869
vt 0.2812 0.5504
vt 0.4352 0.4694
vt 0.2545 0.5514
vt 0.4583 0.4392
vt 0.2279 0.5492
vt 0.4756 0.4076
vt 0.1965 0.5424
vt 0.4838 0.3884
vt 0.1677 0.5317
vt 0.1474 0.5213
vt 0.3180 0.4283
vt 0.3394 0.4156
vt 0.3591 0.3981
vt 0.3721 0.3823
vt 0.3827 0.3653
vt 0.3890 0.3520
vt 0.2998 0.4356
vt 0.1254 0.5073
vt 0.2809 0.4402
vt 0.2616 0.4419
vt 0.2381 0.4402
vt 0.2164 0.4344
vt 0.1001 0.4860
vt 0.1950 0.4251
vt 0.0771 0.4610
vt 0.1696 0.4071
vt 0.0563 0.4310
vt 0.1482 0.3836
vt 0.2793 0.3285
vt 0.4792 0.2016
vt 0.4838 0.2206
vt 0.1317 0.3555
vt 0.0396 0.3982
vt 0.4729 0.1826
vt 0.2384 0.2353
vt 0.4603 0.1549
vt 0.1231 0.3318
vt 0.0272 0.3633
vt 0.1182 0.3098
vt 0.4481 0.1330
vt 0.0193 0.3268
vt 0.1164 0.2910
vt 0.3557 0.1735
vt 0.4364 0.1153
vt 0.0000 0.0000
vt 0.0000 0.0000
vt 0.0000 0.0000
vt 0.3492 0.1645
vt 0.1167 0.2706
vt 0.3344 0.1496
vt 0.4157 0.0896
vt 0.0162 0.2902
vt 0.1211 0.2439
vt 0.3202 0.1393
vt 0.3049 0.1318
vt 0.1316 0.2132
vt 0.3866 0.0627
vt 0.2887 0.1268
vt 0.0174 0.2582
vt 0.2673 0.1244
vt 0.1468 0.1871
vt 0.2415 0.1266
vt 0.0228 0.2223
vt 0.1638 0.1675
vt 0.3586 0.0440
vt 0.1781 0.1552
vt 0.2154 0.1345
vt 0.1910 0.1466
vt 0.3286 0.0302
vt 0.0328 0.1877
vt 0.0437 0.1613
vt 0.2971 0.0214
vt 0.0572 0.1364
vt 0.2644 0.0178
vt 0.0745 0.1113
vt 0.2311 0.0195
vt 0.0916 0.0918
vt 0.1103 0.0739
vt 0.1985 0.0262
vt 0.1377 0.0537
vt 0.1673 0.0377
vt 0.8815 0.0535
vt 0.8337 0.0304
vt 0.8588 0.0409
vt 0.9001 0.0665
vt 0.8076 0.0230
vt 0.9183 0.0822
vt 0.7812 0.0188
vt 0.9352 0.0997
vt 0.7545 0.0178
vt 0.9583 0.1300
vt 0.7279 0.0200
vt 0.9756 0.1616
vt 0.6965 0.0267
vt 0.9838 0.1808
vt 0.6677 0.0375
vt 0.6474 0.0478
vt 0.8180 0.1408
vt 0.8394 0.1535
vt 0.8591 0.1711
vt 0.8721 0.1869
vt 0.8827 0.2039
vt 0.8890 0.2172
vt 0.7998 0.1336
vt 0.6254 0.0619
vt 0.7809 0.1290
vt 0.7616 0.1273
vt 0.7381 0.1290
vt 0.7164 0.1348
vt 0.6001 0.0831
vt 0.6950 0.1441
vt 0.5771 0.1082
vt 0.6696 0.1621
vt 0.5563 0.1382
vt 0.6482 0.1855
vt 0.9792 0.3675
vt 0.7793 0.2407
vt 0.9838 0.3486
vt 0.6317 0.2137
vt 0.5396 0.1710
vt 0.9729 0.3866
vt 0.7384 0.3338
vt 0.9603 0.4143
vt 0.6231 0.2374
vt 0.5272 0.2058
vt 0.6182 0.2594
vt 0.9481 0.4362
vt 0.5193 0.2423
vt 0.6164 0.2782
vt 0.8557 0.3957
vt 0.9364 0.4539
vt 0.0000 0.0000
vt 0.0000 0.0000
vt 0.0000 0.0000
vt 0.8492 0.4047
vt 0.6167 0.2986
vt 0.8344 0.4195
vt 0.9157 0.4796
vt 0.5162 0.2789
vt 0.6211 0.3253
vt 0.8202 0.4299
vt 0.8049 0.4374
vt 0.6316 0.3560
vt 0.8866 0.5064
vt 0.7887 0.4424
vt 0.5174 0.3110
vt 0.7673 0.4448
vt 0.6468 0.3821
vt 0.7415 0.4425
vt 0.5228 0.3468
vt 0.6638 0.4016
vt 0.8586 0.5251
vt 0.6781 0.4140
vt 0.7154 0.4347
vt 0.6910 0.4225
vt 0.8286 0.5390
vt 0.5328 0.3814
vt 0.5437 0.4078
vt 0.7971 0.5478
vt 0.5572 0.4328
vt 0.7644 0.5514
vt 0.5745 0.4579
vt 0.7311 0.5497
vt 0.5916 0.4773
vt 0.6103 0.4952
vt 0.6985 0.5430
vt 0.6377 0.5155
vt 0.6673 0.5315
vt 0.2420 0.6342
vt 0.2655 0.6388
vt 0.2419 0.7203
vt 0.2421 0.5870
vt 0.5464 0.6966
vt 0.5228 0.6965
vt 0.5464 0.5870
vt 0.2091 0.7363
vt 0.1855 0.7219
vt 0.2091 0.6917
vt 0.2092 0.8198
vt 0.1856 0.7879
vt 0.2091 0.7768
vt 0.2094 0.8523
vt 0.1858 0.8311
vt 0.6023 0.6529
vt 0.5789 0.6168
vt 0.6024 0.6067
vt 0.6024 0.6921
vt 0.5788 0.6628
vt 0.2984 0.5870
vt 0.3218 0.6053
vt 0.2981 0.6264
vt 0.0164 0.6408
vt 0.0398 0.7161
vt 0.0162 0.7218
vt 0.0166 0.5870
vt 0.0401 0.5905
vt 0.2419 0.7929
vt 0.2656 0.8485
vt 0.2421 0.8412
vt 0.2654 0.7311
vt 0.2656 0.5870
vt 0.5229 0.5873
vt 0.4344 0.5899
vt 0.4109 0.6119
vt 0.4109 0.5870
vt 0.4108 0.6588
vt 0.4344 0.6565
vt 0.4344 0.7235
vt 0.4109 0.7263
vt 0.3784 0.7931
vt 0.3549 0.7965
vt 0.3542 0.7158
vt 0.3777 0.7109
vt 0.3542 0.6455
vt 0.3777 0.6414
vt 0.3548 0.5887
vt 0.3784 0.5870
vt 0.1859 0.5897
vt 0.2094 0.5870
vt 0.2092 0.6462
vt 0.1857 0.6481
vt 0.4904 0.7202
vt 0.4669 0.7203
vt 0.4669 0.5870
vt 0.4904 0.5870
vt 0.5790 0.5870
vt 0.5789 0.6924
vt 0.6348 0.5870
vt 0.6584 0.5870
vt 0.6584 0.6896
vt 0.6348 0.6896
vt 0.3218 0.8337
vt 0.2982 0.8337
vt 0.3216 0.6265
vt 0.1294 0.6228
vt 0.1531 0.6043
vt 0.1524 0.6793
vt 0.1288 0.6828
vt 0.1299 0.5870
vt 0.1522 0.7588
vt 0.1287 0.7639
vt 0.1525 0.8300
vt 0.1290 0.8352
vt 0.1531 0.9003
vt 0.1296 0.9052
vt 0.0963 0.9155
vt 0.0728 0.9197
vt 0.0726 0.8562
vt 0.0961 0.8514
vt 0.0726 0.7770
vt 0.0961 0.7716
vt 0.0726 0.6754
vt 0.0961 0.6710
vt 0.0727 0.5908
vt 0.0963 0.5870
vt 0.0401 0.9782
vt 0.0166 0.9822
vt 0.0163 0.8965
vt 0.0398 0.8908
vt 0.0162 0.8025
vt 0.0397 0.7971
vt 0.2654 0.7859
vt 0.0399 0.6526
vn 0.0000 1.0000 0.0000
vn 0.0000 0.0000 1.0000
vn 0.0000 -1.0000 -0.0000
vn 0.5066 0.0377 -0.8613
vn 0.4835 0.0202 -0.8751
vn 0.2406 -0.0432 -0.9697
vn 0.9973 0.0141 -0.0724
vn 0.0903 0.0659 0.9937
vn 0.1034 0.0925 0.9903
vn 0.3207 0.0000 -0.9472
vn 0.4598 -0.0153 -0.8879
vn 0.6459 0.0198 -0.7632
vn -0.1880 0.0041 -0.9822
vn 0.0376 0.0084 -0.9993
vn 0.1277 0.0163 -0.9917
vn -0.5327 -0.0111 -0.8462
vn -0.3062 0.0053 -0.9520
vn -0.8533 0.0079 -0.5213
vn -0.6520 -0.0076 -0.7582
vn -0.8108 -0.0121 0.5852
vn -0.9035 0.0243 -0.4278
vn 0.9992 -0.0159 0.0365
vn 0.9950 0.0197 -0.0983
vn 0.6523 0.0213 -0.7576
vn -0.6395 -0.0478 -0.7673
vn -0.8598 0.0252 -0.5100
vn -0.8819 0.0202 -0.4710
vn -0.3408 0.0452 -0.9390
vn -0.4071 0.0391 -0.9125
vn -0.1172 -0.0209 -0.9929
vn 0.1540 -0.0240 -0.9878
vn 0.9979 -0.0077 -0.0635
vn -0.4584 -0.0341 0.8881
vn -0.2012 -0.0262 0.9792
vn -0.2237 -0.0299 0.9742
vn 0.2234 0.0053 0.9747
vn 0.2635 0.0054 0.9646
vn 0.6626 0.0022 0.7489
vn 0.7040 0.0014 0.7102
vn 0.9377 -0.0007 0.3474
vn 0.9547 -0.0003 0.2977
vn 0.9901 -0.0015 -0.1406
vn 0.9828 -0.0020 -0.1848
vn 0.8206 0.0269 -0.5708
vn 0.8089 0.0302 -0.5871
vn -0.7970 0.0060 0.6039
vn -0.7074 -0.0033 0.7068
vn -0.7071 0.0000 -0.7071
vn 0.6414 -0.0000 -0.7672
vn 0.9869 0.0113 0.1608
vn 0.9332 0.0241 0.3586
vn 0.9211 0.0201 0.3887
vn 0.7675 0.0002 0.6410
vn 0.7429 0.0001 0.6694
vn 0.5384 0.0001 0.8427
vn 0.5082 0.0002 0.8613
vn 0.2776 0.0003 0.9607
vn 0.2450 0.0003 0.9695
vn 0.0018 -0.0007 1.0000
vn -0.0322 -0.0009 0.9995
vn -0.2996 -0.0008 0.9541
vn -0.3400 -0.0005 0.9404
vn -0.6215 0.0011 0.7834
vn -0.6551 0.0012 0.7555
vn -0.8630 -0.0009 0.5051
vn -0.8826 -0.0016 0.4701
vn -0.9846 -0.0007 0.1750
vn -0.9923 0.0005 0.1240
vn -0.9843 0.0032 -0.1764
vn -0.9764 0.0030 -0.2158
vn -0.0637 -0.0100 -0.9979
vn -0.7151 -0.0224 -0.6987
usemtl None
s off
f 1/1/1 2/2/1 3/3/1
f 1/1/1 4/4/1 2/2/1
f 5/5/1 4/4/1 1/1/1
f 5/5/1 6/6/1 4/4/1
f 7/7/1 6/6/1 5/5/1
f 7/7/1 8/8/1 6/6/1
f 9/9/1 8/8/1 7/7/1
f 9/9/1 10/10/1 8/8/1
f 11/11/1 10/10/1 9/9/1
f 11/11/1 12/12/1 10/10/1
f 13/13/1 12/12/1 11/11/1
f 13/13/1 14/14/1 12/12/1
f 15/15/1 14/14/1 13/13/1
f 16/16/1 14/14/1 15/15/1
f 16/16/1 17/17/1 14/14/1
f 17/17/1 18/18/1 14/14/1
f 18/18/1 19/19/1 14/14/1
f 19/19/1 20/20/1 14/14/1
f 20/20/1 21/21/1 14/14/1
f 21/21/1 22/22/1 14/14/1
f 16/16/1 23/23/1 17/17/1
f 24/24/1 23/23/1 16/16/1
f 24/24/1 25/25/1 23/23/1
f 24/24/1 26/26/1 25/25/1
f 24/24/1 27/27/1 26/26/1
f 24/24/1 28/28/1 27/27/1
f 29/29/1 28/28/1 24/24/1
f 29/29/1 30/30/1 28/28/1
f 31/31/1 30/30/1 29/29/1
f 31/31/1 32/32/1 30/30/1
f 33/33/1 32/32/1 31/31/1
f 33/33/1 34/34/1 32/32/1
f 208/35/1 35/36/1 36/37/1
f 33/33/1 37/38/1 34/34/1
f 38/39/1 37/38/1 33/33/1
f 208/35/1 39/40/1 35/36/1
f 40/41/1 39/40/1 208/35/1
f 40/41/1 41/42/1 39/40/1
f 38/39/1 42/43/1 37/38/1
f 43/44/1 42/43/1 38/39/1
f 43/44/1 44/45/1 42/43/1
f 40/41/1 45/46/1 41/42/1
f 46/47/1 44/45/1 43/44/1
f 46/47/1 47/48/1 44/45/1
f 40/41/1 48/49/1 45/46/1
f 48/49/1 49/50/1 45/46/1
f 50/51/2 48/52/2 40/53/2
f 51/54/1 49/50/1 48/49/1
f 46/47/1 52/55/1 47/48/1
f 53/56/1 49/50/1 51/54/1
f 53/56/1 54/57/1 49/50/1
f 55/58/1 52/55/1 46/47/1
f 55/58/1 56/59/1 52/55/1
f 57/60/1 54/57/1 53/56/1
f 58/61/1 54/57/1 57/60/1
f 55/58/1 59/62/1 56/59/1
f 58/61/1 60/63/1 54/57/1
f 61/64/1 60/63/1 58/61/1
f 62/65/1 59/62/1 55/58/1
f 63/66/1 60/63/1 61/64/1
f 62/65/1 64/67/1 59/62/1
f 65/68/1 60/63/1 63/66/1
f 66/69/1 64/67/1 62/65/1
f 66/69/1 67/70/1 64/67/1
f 65/68/1 68/71/1 60/63/1
f 66/69/1 69/72/1 67/70/1
f 70/73/1 68/71/1 65/68/1
f 66/69/1 71/74/1 69/72/1
f 71/74/1 68/71/1 70/73/1
f 66/69/1 68/71/1 71/74/1
f 66/69/1 72/75/1 68/71/1
f 73/76/1 72/75/1 66/69/1
f 74/77/1 72/75/1 73/76/1
f 74/77/1 75/78/1 72/75/1
f 76/79/1 75/78/1 74/77/1
f 76/79/1 77/80/1 75/78/1
f 78/81/1 77/80/1 76/79/1
f 78/81/1 79/82/1 77/80/1
f 80/83/1 79/82/1 78/81/1
f 81/84/1 79/82/1 80/83/1
f 81/84/1 82/85/1 79/82/1
f 83/86/1 82/85/1 81/84/1
f 83/86/1 84/87/1 82/85/1
f 85/88/3 86/89/3 87/90/3
f 88/91/3 86/89/3 85/88/3
f 88/91/3 89/92/3 86/89/3
f 90/93/3 89/92/3 88/91/3
f 90/93/3 91/94/3 89/92/3
f 92/95/3 91/94/3 90/93/3
f 92/95/3 93/96/3 91/94/3
f 94/97/3 93/96/3 92/95/3
f 94/97/3 95/98/3 93/96/3
f 96/99/3 95/98/3 94/97/3
f 96/99/3 97/100/3 95/98/3
f 98/101/3 97/100/3 96/99/3
f 98/101/3 99/102/3 97/100/3
f 98/101/3 100/103/3 99/102/3
f 101/104/3 100/103/3 98/101/3
f 102/105/3 101/104/3 98/101/3
f 103/106/3 102/105/3 98/101/3
f 104/107/3 103/106/3 98/101/3
f 105/108/3 104/107/3 98/101/3
f 172/109/3 105/108/3 98/101/3
f 106/110/3 100/103/3 101/104/3
f 106/110/3 107/111/3 100/103/3
f 108/112/3 107/111/3 106/110/3
f 109/113/3 107/111/3 108/112/3
f 110/114/3 107/111/3 109/113/3
f 111/115/3 107/111/3 110/114/3
f 111/115/3 112/116/3 107/111/3
f 113/117/3 112/116/3 111/115/3
f 113/117/3 114/118/3 112/116/3
f 115/119/3 114/118/3 113/117/3
f 115/119/3 116/120/3 114/118/3
f 117/121/3 116/120/3 115/119/3
f 118/122/3 209/123/3 119/124/3
f 120/125/3 116/120/3 117/121/3
f 120/125/3 121/126/3 116/120/3
f 122/127/3 209/123/3 118/122/3
f 122/127/3 207/128/3 209/123/3
f 123/129/3 207/128/3 122/127/3
f 124/130/3 121/126/3 120/125/3
f 124/130/3 125/131/3 121/126/3
f 126/132/3 125/131/3 124/130/3
f 127/133/3 207/128/3 123/129/3
f 126/132/3 128/134/3 125/131/3
f 129/135/3 128/134/3 126/132/3
f 130/136/3 207/128/3 127/133/3
f 131/137/3 130/136/3 127/133/3
f 130/138/2 132/139/2 207/140/2
f 131/137/3 133/141/3 130/136/3
f 134/142/3 128/134/3 129/135/3
f 131/137/3 135/143/3 133/141/3
f 136/144/3 135/143/3 131/137/3
f 134/142/3 137/145/3 128/134/3
f 138/146/3 137/145/3 134/142/3
f 136/144/3 139/147/3 135/143/3
f 136/144/3 140/148/3 139/147/3
f 141/149/3 137/145/3 138/146/3
f 142/150/3 140/148/3 136/144/3
f 142/150/3 143/151/3 140/148/3
f 141/149/3 144/152/3 137/145/3
f 142/150/3 145/153/3 143/151/3
f 146/154/3 144/152/3 141/149/3
f 142/150/3 147/155/3 145/153/3
f 146/154/3 148/156/3 144/152/3
f 149/157/3 148/156/3 146/154/3
f 150/158/3 147/155/3 142/150/3
f 151/159/3 148/156/3 149/157/3
f 150/158/3 152/160/3 147/155/3
f 153/161/3 148/156/3 151/159/3
f 150/158/3 153/161/3 152/160/3
f 150/158/3 148/156/3 153/161/3
f 154/162/3 148/156/3 150/158/3
f 154/162/3 155/163/3 148/156/3
f 154/162/3 156/164/3 155/163/3
f 157/165/3 156/164/3 154/162/3
f 157/165/3 158/166/3 156/164/3
f 159/167/3 158/166/3 157/165/3
f 159/167/3 160/168/3 158/166/3
f 161/169/3 160/168/3 159/167/3
f 161/169/3 162/170/3 160/168/3
f 161/169/3 163/171/3 162/170/3
f 164/172/3 163/171/3 161/169/3
f 164/172/3 165/173/3 163/171/3
f 166/174/3 165/173/3 164/172/3
s 1
f 167/175/4 168/176/5 169/177/6
f 170/178/7 168/176/5 167/175/4
f 171/179/8 172/180/9 170/181/7
f 173/182/10 174/183/11 175/184/12
f 176/185/13 177/186/14 178/187/15
f 179/188/16 180/189/17 176/185/13
f 181/190/18 182/191/19 179/192/16
f 183/193/20 184/194/21 181/190/18
f 185/195/22 186/196/23 36/197/24
f 187/198/25 188/199/26 189/200/27
f 190/201/28 191/202/29 187/198/25
f 192/203/30 191/204/29 190/205/28
f 169/177/6 168/176/5 193/206/31
f 170/178/7 98/207/32 168/176/5
f 170/181/7 172/180/9 98/208/32
f 171/209/8 194/210/33 172/211/9
f 195/212/34 196/213/35 197/214/36 198/215/37
f 198/216/37 197/217/36 199/218/38 200/219/39
f 200/219/39 199/218/38 201/220/40 202/221/41
f 202/221/41 201/220/40 203/222/42 204/223/43
f 204/224/43 203/225/42 205/226/44 206/227/45
f 206/227/45 205/226/44 175/184/12 174/183/11
f 174/183/11 173/182/10 178/187/15 177/186/14
f 194/210/33 171/209/8 196/213/35 195/212/34
f 130/228/46 183/229/20 40/230/47 207/231/47
f 176/185/13 180/189/17 177/186/14
f 179/192/16 182/191/19 180/232/17
f 181/190/18 184/194/21 182/191/19
f 183/193/20 130/233/46 184/194/21
f 207/234/47 40/235/47 208/236/48 209/237/48
f 209/238/48 208/239/48 36/197/24 119/240/49
f 210/241/50 185/242/22 211/243/51 212/244/52
f 36/197/24 186/196/23 119/240/49
f 185/242/22 210/241/50 186/245/23
f 212/244/52 211/243/51 213/246/53 214/247/54
f 214/247/54 213/246/53 215/248/55 216/249/56
f 216/249/56 215/248/55 217/250/57 218/251/58
f 218/252/58 217/253/57 219/254/59 220/255/60
f 220/255/60 219/254/59 221/256/61 222/257/62
f 222/257/62 221/256/61 223/258/63 224/259/64
f 224/259/64 223/258/63 225/260/65 226/261/66
f 226/262/66 225/263/65 227/264/67 228/265/68
f 228/265/68 227/264/67 229/266/69 230/267/70
f 230/267/70 229/266/69 189/200/27 188/199/26
f 231/268/71 192/203/30 169/177/6 193/206/31
f 187/198/25 232/269/72 188/199/26
f 187/198/25 191/202/29 232/269/72
f 192/203/30 231/268/71 191/204/29
