# Blender v2.78 (sub 0) OBJ File: ''
# www.blender.org
mtllib Harry_Poter_sapka.mtl
o SketchUp.020
v 0.057795 0.155481 0.137676
v 0.011810 0.157836 0.151734
v 0.010267 0.163977 0.140261
v 0.011181 0.146939 0.161030
v 0.116128 0.151505 0.100680
v -0.032569 0.164976 0.144800
v 0.061228 0.143284 0.140082
v 0.056376 0.164577 0.142934
v -0.082841 0.170157 0.117121
v 0.059846 0.130733 0.142213
v -0.034557 0.154620 0.152972
v 0.012508 0.175385 0.162590
v 0.062843 0.178588 0.142311
v -0.022001 0.176849 0.153845
v 0.010175 0.134552 0.161210
v -0.034939 0.139042 0.149932
v 0.058062 0.115815 0.137951
v 0.013731 0.192112 0.176606
v 0.089603 0.215245 0.115617
v -0.021363 0.190549 0.164445
v 0.093586 0.110428 0.107921
v 0.059454 0.224699 0.142447
v 0.133755 0.183064 0.065480
v -0.035495 0.124977 0.144739
v -0.047852 0.230168 0.121567
v 0.008469 0.121815 0.152235
v 0.104784 0.055156 0.161901
v 0.129181 0.121342 0.077799
v -0.011734 0.230909 0.148009
v 0.024027 0.229858 0.161891
v 0.126171 0.235747 0.043656
v 0.074938 0.234153 0.106426
v -0.079937 0.128302 0.139885
v -0.083548 0.213415 0.085490
v 0.024206 0.251592 0.142073
v 0.153606 0.126500 -0.019966
v 0.140314 0.229158 -0.029609
v 0.044893 0.250186 0.123794
v -0.115511 0.134908 0.097368
v -0.035265 0.243157 0.108293
v -0.079930 0.249882 0.066687
v 0.005810 0.054029 0.194996
v 0.172984 0.056336 0.083143
v 0.211729 0.020775 0.105189
v -0.007047 0.073110 0.006961
v 0.134834 0.277268 0.063151
v 0.114249 0.242639 0.060811
v 0.080811 0.261537 0.079898
v -0.166683 0.094794 0.107595
v 0.003658 0.255331 0.125297
v -0.104437 0.276981 -0.015882
v -0.131894 0.152255 0.000886
v 0.126599 0.020116 0.209196
v 0.236445 0.018432 -0.020612
v 0.026785 0.274358 0.139336
v 0.114845 0.218625 -0.090933
v 0.131187 0.304119 -0.036685
v 0.049725 0.277997 0.130106
v -0.210449 0.066638 0.136243
v -0.092600 0.074477 0.176226
v -0.032832 0.271687 0.085497
v -0.070177 0.259306 0.076580
v -0.081056 0.294124 0.086133
v -0.114415 0.040742 0.224971
v 0.006370 0.018077 0.249150
v 0.280923 0.030644 0.144783
v 0.191817 0.048042 -0.018390
v 0.124401 0.121103 -0.091796
v 0.110807 0.303759 -0.090803
v 0.108539 0.371397 0.032320
v 0.087406 0.284717 0.091875
v -0.252059 0.069633 0.014711
v -0.201474 0.087614 0.010111
v 0.006120 0.280926 0.132116
v -0.116522 0.139532 -0.071340
v -0.049823 0.388830 0.048520
v 0.013371 0.014397 0.353008
v 0.174166 0.017050 0.286110
v 0.327626 0.028610 -0.027986
v 0.157790 0.048929 -0.116241
v 0.027105 0.284551 0.146804
v 0.062834 0.106791 -0.142292
v 0.067490 0.313064 -0.124769
v 0.111368 0.369639 -0.036388
v 0.098245 0.316369 0.119627
v 0.092942 0.290330 0.110644
v -0.268717 0.083289 0.184718
v -0.182534 0.080446 -0.091473
v -0.031304 0.299742 0.099340
v -0.092969 0.246176 -0.067333
v -0.034317 0.329399 0.126353
v -0.081797 0.335812 -0.020981
v -0.146125 0.043451 0.308635
v 0.193242 0.006949 -0.140879
v 0.078111 0.038583 -0.183273
v -0.024528 0.040485 -0.202416
v 0.052239 0.287946 0.140189
v 0.066365 0.211278 -0.122594
v 0.061909 0.384875 -0.104839
v 0.070595 0.460835 -0.076057
v 0.094742 0.453141 -0.006086
v 0.077544 0.380886 0.068514
v -0.327626 0.095440 0.019466
v -0.116603 0.057644 -0.169141
v 0.008055 0.291201 0.142472
v -0.039797 0.117408 -0.142429
v -0.071568 0.329938 -0.074958
v -0.032272 0.306656 0.115958
v 0.027309 0.391141 0.073072
v -0.062409 0.398365 -0.020582
v 0.268872 0.015309 -0.192278
v 0.094792 -0.004018 -0.227096
v 0.028899 0.331826 0.125800
v -0.015416 0.319609 -0.126030
v -0.006842 0.395264 -0.108598
v -0.233622 0.054628 -0.111528
v -0.025007 0.217026 -0.122930
v -0.012740 0.451661 0.039577
v -0.036135 0.459760 -0.033556
v -0.058861 0.402682 -0.061974
v 0.132586 -0.009877 -0.322225
v -0.031999 -0.003025 -0.251038
v -0.152160 0.019802 -0.211711
v 0.003952 0.463037 -0.087127
v 0.114584 0.555238 -0.011378
v 0.051904 0.449568 0.048873
v -0.310561 0.078095 -0.150458
v -0.040163 -0.008979 -0.353008
v 0.093393 0.573487 -0.011489
v 0.121828 0.542367 0.012369
v 0.107883 0.547745 0.036006
v -0.202277 0.022900 -0.297921
v 0.086692 0.565995 0.035895
v 0.079448 0.578865 0.012148
v 0.172304 0.603275 0.057793
vt 0.3294 0.5608
vt 0.2980 0.5725
vt 0.2980 0.5569
vt 0.2980 0.5490
vt 0.3804 0.5725
vt 0.2706 0.5608
vt 0.3294 0.5529
vt 0.3255 0.5843
vt 0.2235 0.5725
vt 0.3294 0.5451
vt 0.2706 0.5529
vt 0.2980 0.5882
vt 0.3294 0.5961
vt 0.2745 0.5882
vt 0.2980 0.5412
vt 0.2706 0.5412
vt 0.3294 0.5333
vt 0.2941 0.6000
vt 0.3608 0.6157
vt 0.2745 0.5961
vt 0.3686 0.5333
vt 0.3255 0.6196
vt 0.4039 0.6000
vt 0.2706 0.5333
vt 0.2353 0.6157
vt 0.2980 0.5333
vt 0.3686 0.4824
vt 0.4000 0.5451
vt 0.2784 0.6196
vt 0.3020 0.6196
vt 0.4000 0.6353
vt 0.3490 0.6275
vt 0.2275 0.5333
vt 0.2000 0.6039
vt 0.4314 0.4902
vt 0.3020 0.6353
vt 0.4863 0.5529
vt 0.4863 0.6314
vt 0.3137 0.6353
vt 0.1686 0.5373
vt 0.2196 0.4824
vt 0.2431 0.6275
vt 0.2000 0.6314
vt 0.2980 0.4745
vt 0.2863 0.3216
vt 0.3098 0.2588
vt 0.2745 0.2980
vt 0.2275 0.2039
vt 0.4078 0.6627
vt 0.3922 0.6392
vt 0.3529 0.6471
vt 0.1490 0.4941
vt 0.2863 0.6392
vt 0.1255 0.6510
vt 0.1137 0.5490
vt 0.3255 0.2039
vt 0.3373 0.2706
vt 0.2235 0.3412
vt 0.2235 0.3137
vt 0.4863 0.4863
vt 0.3020 0.6510
vt 0.6471 0.2471
vt 0.5843 0.2549
vt 0.5686 0.1804
vt 0.4784 0.6941
vt 0.3137 0.6549
vt 0.3098 0.1529
vt 0.2863 0.0902
vt 0.2745 0.1137
vt 0.2431 0.6471
vt 0.2118 0.6353
vt 0.1882 0.6588
vt 0.3333 0.1412
vt 0.3490 0.2039
vt 0.3098 0.3569
vt 0.1725 0.2980
vt 0.6353 0.1765
vt 0.5333 0.1020
vt 0.6471 0.2941
vt 0.5922 0.3059
vt 0.3961 0.7373
vt 0.3569 0.6627
vt 0.0824 0.4902
vt 0.2235 0.0706
vt 0.2235 0.0980
vt 0.2863 0.6549
vt 0.8431 0.1725
vt 0.8824 0.1804
vt 0.8706 0.2706
vt 0.2039 0.7373
vt 0.4039 0.2039
vt 0.3765 0.2941
vt 0.2235 0.3882
vt 0.6039 0.1098
vt 0.1373 0.2588
vt 0.3020 0.6706
vt 0.6863 0.1647
vt 0.6980 0.2980
vt 0.6118 0.3333
vt 0.4667 0.7333
vt 0.3608 0.6941
vt 0.3569 0.6784
vt 0.8824 0.1098
vt 0.9255 0.1020
vt 0.3098 0.0549
vt 0.1725 0.1137
vt 0.2431 0.6667
vt 0.8314 0.2510
vt 0.2353 0.6941
vt 0.1333 0.7020
vt 0.3765 0.1176
vt 0.1608 0.3216
vt 0.6706 0.0980
vt 0.1216 0.2039
vt 0.3176 0.6745
vt 0.6941 0.2392
vt 0.7098 0.3490
vt 0.6980 0.3882
vt 0.4000 0.7843
vt 0.3373 0.7373
vt 0.2235 0.0314
vt 0.1373 0.1529
vt 0.2863 0.6706
vt 0.7608 0.1647
vt 0.8235 0.3137
vt 0.2392 0.6824
vt 0.2863 0.7412
vt 0.1490 0.7412
vt 0.8588 0.3137
vt 0.1373 0.3647
vt 0.1137 0.2745
vt 0.7412 0.0941
vt 0.2980 0.7020
vt 0.7569 0.3137
vt 0.7569 0.3608
vt 0.6314 0.3961
vt 0.1608 0.0863
vt 0.8078 0.0980
vt 0.7569 0.2392
vt 0.2431 0.7725
vt 0.1647 0.7804
vt 0.8196 0.3647
vt 0.8510 0.3608
vt 0.0667 0.2980
vt 0.0980 0.2039
vt 0.1098 0.1373
vt 0.7569 0.4000
vt 0.6902 0.5059
vt 0.3020 0.7765
vt 0.1373 0.0471
vt 0.8196 0.3922
vt 0.0431 0.2039
vt 0.7137 0.5059
vt 0.6431 0.4824
vt 0.3490 0.8706
vt 0.0667 0.1137
vt 0.3255 0.8824
vt 0.2667 0.8902
vt 0.7451 0.5059
vt 0.6549 0.5843
vt 0.3765 0.8706
vt 0.3765 0.9686
vn 0.3595 0.7060 0.6102
vn 0.0826 0.2157 0.9730
vn 0.1290 0.7593 0.6378
vn 0.0994 0.2986 0.9492
vn 0.7439 -0.0195 0.6680
vn -0.0925 0.8547 0.5108
vn 0.4835 0.1873 0.8551
vn 0.2913 -0.6829 0.6699
vn -0.6410 0.3637 0.6759
vn 0.4888 -0.1241 0.8635
vn -0.3339 0.2345 0.9130
vn -0.0456 -0.7521 0.6575
vn 0.5655 -0.1259 0.8151
vn 0.1676 0.8829 -0.4385
vn 0.0327 -0.2601 0.9650
vn -0.4429 -0.2248 0.8679
vn 0.4898 0.1658 0.8559
vn -0.1654 -0.1923 0.9673
vn -0.2947 -0.6318 0.7169
vn 0.6871 0.4404 0.5779
vn -0.4440 -0.0712 0.8932
vn 0.6475 0.2411 0.7230
vn -0.6176 -0.0431 -0.7853
vn -0.5419 -0.1127 -0.8329
vn -0.5888 -0.1794 -0.7881
vn 0.8955 0.2023 0.3963
vn -0.6723 -0.0472 -0.7388
vn -0.2463 0.2352 0.9402
vn -0.5516 0.5828 0.5967
vn 0.0568 -0.0267 0.9980
vn 0.4681 0.5981 0.6505
vn 0.7577 0.2715 0.5934
vn -0.4062 0.5882 0.6993
vn -0.4874 -0.3746 -0.7887
vn 0.9273 -0.0305 0.3731
vn 0.6119 0.5852 0.5320
vn 0.5783 0.6725 0.4618
vn -0.3043 0.5421 0.7833
vn -0.8205 0.3516 0.4508
vn 0.7485 0.5411 0.3834
vn -0.2926 0.5328 0.7941
vn -0.4504 -0.5995 -0.6616
vn -0.9702 0.0238 -0.2411
vn 0.9857 0.0824 -0.1472
vn 0.6807 0.2795 0.6771
vn -0.6745 0.6081 0.4186
vn -0.2346 0.5760 0.7831
vn -0.4119 0.7016 0.5815
vn -0.8621 0.1166 0.4932
vn 0.1121 0.5270 0.8424
vn -0.3036 -0.9404 -0.1533
vn -0.3319 -0.8214 -0.4639
vn -0.5555 -0.7905 -0.2580
vn -0.0916 -0.9958 -0.0027
vn -0.0431 -0.9955 -0.0842
vn -0.0942 -0.9954 0.0167
vn 0.9388 0.3140 -0.1413
vn -0.2965 0.7012 0.6484
vn 0.6453 0.2862 0.7083
vn 0.9169 0.0065 0.3990
vn 0.6554 -0.2214 0.7221
vn 0.6381 0.2381 0.7323
vn -0.5673 0.7298 0.3816
vn -0.5612 0.4156 0.7157
vn -0.9679 0.2499 -0.0279
vn -0.8495 0.5273 0.0160
vn -0.1042 -0.9902 -0.0934
vn -0.3027 -0.8263 -0.4749
vn -0.1082 -0.8263 -0.5527
vn -0.1940 -0.9787 0.0668
vn -0.1192 -0.9918 0.0456
vn 0.8868 0.4515 -0.0983
vn 0.1211 -0.4109 0.9036
vn 0.7739 0.0604 -0.6305
vn 0.9651 0.1986 -0.1706
vn 0.4885 -0.5166 0.7032
vn 0.0949 -0.8376 -0.5379
vn 0.0022 -0.9905 -0.1372
vn 0.3306 -0.8875 -0.3210
vn -0.1873 -0.9785 -0.0868
vn -0.1297 -0.9915 0.0079
vn -0.4706 0.0528 0.8808
vn -0.4856 -0.1385 0.8631
vn -0.7715 -0.0343 0.6353
vn -0.1019 -0.9598 -0.2613
vn -0.1399 -0.9279 -0.3457
vn -0.0988 0.9923 -0.0746
vn -0.0295 0.9990 0.0336
vn -0.0778 0.9967 -0.0235
vn 0.1163 -0.9923 0.0420
vn -0.5489 -0.8327 0.0729
vn -0.0671 -0.9922 0.1050
vn 0.7599 0.2878 -0.5829
vn 0.6062 -0.1623 -0.7786
vn 0.8403 0.1221 -0.5283
vn 0.8947 0.3550 0.2712
vn -0.5484 0.7274 -0.4126
vn -0.3709 0.7846 -0.4968
vn -0.5239 0.5039 -0.6868
vn -0.6806 0.7326 0.0003
vn -0.0197 -0.9987 0.0463
vn -0.0724 -0.9925 0.0989
vn -0.5944 -0.3563 0.7210
vn -0.6725 0.6038 -0.4280
vn -0.7194 0.4991 0.4831
vn -0.0051 0.9993 0.0358
vn -0.0030 0.9993 0.0374
vn -0.0187 0.9985 0.0514
vn 0.1182 -0.9920 0.0439
vn -0.5241 -0.7315 0.4362
vn 0.6835 0.5088 -0.5234
vn -0.0323 -0.9859 0.1645
vn 0.0035 -0.1884 0.9821
vn 0.2965 0.3772 -0.8774
vn 0.2203 0.0767 -0.9724
vn 0.9505 0.2629 -0.1659
vn 0.6151 0.2223 0.7565
vn -0.2604 0.7388 -0.6216
vn -0.2241 0.9499 -0.2180
vn 0.3379 -0.9403 0.0400
vn -0.5360 0.7364 -0.4128
vn -0.2633 -0.9646 0.0146
vn 0.1067 0.9874 -0.1166
vn 0.0734 0.9957 -0.0566
vn 0.1107 0.9855 -0.1288
vn -0.3833 -0.6756 0.6298
vn -0.8908 0.1962 -0.4098
vn -0.5948 0.3278 0.7340
vn -0.9476 0.3191 -0.0151
vn -0.2084 -0.9770 -0.0449
vn -0.1729 -0.9847 -0.0232
vn -0.2892 -0.9043 0.3140
vn 0.3013 0.5649 -0.7682
vn -0.2805 -0.7347 0.6177
vn -0.0477 -0.9863 0.1577
vn 0.3513 -0.2220 0.9095
vn 0.2934 0.0785 -0.9528
vn -0.6301 -0.2528 0.7343
vn -0.6197 -0.2445 0.7458
vn -0.6020 -0.2306 0.7644
vn 0.5667 0.3180 -0.7601
vn 0.9934 0.0252 0.1120
vn 0.5992 -0.3937 0.6971
vn 0.4980 0.5390 0.6794
vn 0.3197 -0.8943 0.3132
vn -0.3199 -0.9458 0.0553
vn 0.1297 0.9775 -0.1666
vn -0.4296 -0.2903 0.8551
vn -0.1060 0.5269 -0.8433
vn -0.8173 0.2140 -0.5349
vn 0.6429 -0.1701 0.7468
vn 0.6043 -0.2002 0.7712
vn 0.6124 -0.1345 0.7790
vn -0.3835 -0.7286 0.5676
vn -0.0248 0.5263 0.8500
vn -0.9311 0.3526 0.0932
vn 0.1320 -0.9907 0.0330
vn -0.1746 -0.8911 0.4189
vn 0.0227 0.6176 -0.7862
vn -0.0288 -0.7482 0.6629
vn 0.1236 0.9789 -0.1628
vn 0.1639 0.5239 0.8359
vn -0.2682 0.1443 -0.9525
vn -0.2921 0.2931 -0.9104
vn 0.1101 0.2900 -0.9507
vn -0.5943 -0.2246 0.7722
vn 0.0675 -0.9690 0.2376
vn 0.1757 -0.8091 0.5609
vn -0.3139 0.6933 -0.6487
vn 0.5850 -0.1547 0.7962
vn 0.1795 -0.2067 -0.9618
vn 0.6053 0.3753 -0.7020
vn 0.2786 -0.2287 -0.9328
vn 0.0141 -0.5569 -0.8305
vn 0.0190 -0.6640 -0.7475
vn -0.4603 0.4232 0.7804
vn -0.7886 0.5823 -0.1976
vn -0.8381 0.3488 -0.4193
vn -0.0825 0.9945 -0.0647
vn -0.1120 0.9922 -0.0546
vn -0.1399 0.9891 -0.0450
vn -0.0425 0.9960 -0.0782
vn -0.0598 -0.9293 0.3645
vn 0.1712 -0.7983 0.5774
vn 0.0090 0.0842 -0.9964
vn -0.3102 0.5375 -0.7841
vn 0.6980 0.1625 -0.6975
vn 0.2926 0.2338 0.9272
vn -0.3207 -0.9450 0.0642
vn 0.6238 -0.0347 0.7808
vn -0.0151 -0.9983 0.0555
vn -0.0936 -0.9935 0.0646
vn 0.0200 0.6506 -0.7592
vn 0.8934 -0.4491 0.0094
vn 0.3348 -0.3333 0.8814
vn 0.3373 0.9358 -0.1026
vn 0.3169 0.9424 -0.1071
vn 0.2435 0.9655 -0.0925
vn 0.2171 0.9719 -0.0913
vn -0.3856 0.4160 0.8236
vn 0.7394 -0.6012 -0.3031
vn -0.1692 -0.9830 0.0709
vn 0.1668 0.9841 -0.0616
vn -0.5255 0.7246 -0.4459
vn 0.7757 -0.1507 0.6128
vn -0.5554 0.6483 0.5208
vn 0.1115 -0.9527 0.2826
usemtl None
s 1
f 1/1/1 3/2/2 2/3/3
f 1/1/1 2/3/3 4/4/4
f 5/5/5 3/2/2 1/1/1
f 2/3/3 3/2/2 6/6/6
f 1/1/1 4/4/4 7/7/7
f 6/6/6 4/4/4 2/3/3
f 5/5/5 1/1/1 7/7/7
f 5/5/5 8/8/8 3/2/2
f 3/2/2 9/9/9 6/6/6
f 7/7/7 4/4/4 10/10/10
f 6/6/6 11/11/11 4/4/4
f 5/5/5 7/7/7 10/10/10
f 8/8/8 12/12/12 3/2/2
f 13/13/13 8/8/8 5/5/5
f 9/9/9 11/11/11 6/6/6
f 9/9/14 14/14/14 3/2/14
f 4/4/4 15/15/15 10/10/10
f 11/11/11 16/16/16 4/4/4
f 5/5/5 10/10/10 17/17/17
f 18/18/18 12/12/12 8/8/8
f 3/2/2 12/12/12 14/14/19
f 18/18/18 8/8/8 13/13/13
f 19/19/20 13/13/13 5/5/5
f 9/9/9 16/16/16 11/11/11
f 20/20/21 9/9/9 14/14/19
f 4/4/4 16/16/16 15/15/15
f 10/10/10 15/15/15 17/17/17
f 5/5/5 17/17/17 21/21/22
f 18/18/18 20/20/21 12/12/12
f 20/20/21 14/14/19 12/12/12
f 13/13/23 18/18/24 22/22/25
f 23/23/26 19/19/20 5/5/5
f 19/19/27 13/13/23 22/22/25
f 9/9/9 24/24/28 16/16/16
f 9/9/9 20/20/21 25/25/29
f 16/16/16 24/24/28 15/15/15
f 15/15/15 26/26/30 17/17/17
f 27/27/31 21/21/22 17/17/17
f 5/5/5 21/21/22 28/28/32
f 29/29/33 20/20/21 18/18/18
f 22/22/25 18/18/24 30/30/34
f 23/23/26 5/5/5 28/28/32
f 31/31/35 19/19/20 23/23/26
f 19/19/20 32/32/36 22/22/37
f 9/9/9 33/33/38 24/24/28
f 29/29/33 25/25/29 20/20/21
f 34/34/39 9/9/9 25/25/29
f 15/15/15 24/24/28 26/26/30
f 26/26/30 27/27/31 17/17/17
f 43/35/40 21/21/22 27/27/31
f 28/28/32 21/21/22 43/35/40
f 30/30/41 29/29/33 18/18/18
f 22/22/25 30/30/34 35/36/42
f 28/28/43 23/23/43 36/37/43
f 37/38/44 31/31/35 23/23/26
f 31/31/35 32/32/36 19/19/20
f 32/32/36 38/39/45 22/22/37
f 39/40/46 33/33/38 9/9/9
f 24/24/28 33/33/38 60/41/47
f 29/29/33 40/42/48 25/25/29
f 41/43/49 34/34/39 25/25/29
f 34/34/39 39/40/46 9/9/9
f 26/26/30 24/24/28 60/41/47
f 26/26/30 42/44/50 27/27/31
f 44/45/51 27/46/52 43/47/53
f 43/47/54 27/46/55 45/48/56
f 36/37/57 28/28/32 43/35/40
f 35/36/58 29/29/33 30/30/41
f 22/22/37 38/39/45 35/36/59
f 37/38/44 23/23/26 36/37/57
f 37/38/44 46/49/60 31/31/35
f 31/31/35 47/50/61 32/32/36
f 48/51/62 38/39/45 32/32/36
f 33/33/38 39/40/46 49/52/63
f 33/33/38 49/52/63 60/41/47
f 50/53/64 40/42/48 29/29/33
f 40/42/48 41/43/49 25/25/29
f 51/54/65 34/34/39 41/43/49
f 52/55/66 39/40/46 34/34/39
f 26/26/30 60/41/47 42/44/50
f 27/46/55 42/56/67 45/48/56
f 53/57/68 42/56/69 27/46/52
f 44/45/51 53/57/68 27/46/52
f 54/58/70 44/45/51 43/47/53
f 67/59/71 43/47/54 45/48/56
f 36/37/57 43/35/40 67/60/72
f 35/36/58 50/53/64 29/29/33
f 55/61/73 35/36/59 38/39/45
f 56/62/74 37/63/44 36/64/57
f 57/65/75 46/49/60 37/38/44
f 46/49/60 47/50/61 31/31/35
f 48/51/62 32/32/36 47/50/61
f 48/51/62 58/66/76 38/39/45
f 39/40/46 52/55/66 49/52/63
f 60/67/77 59/68/78 49/69/79
f 45/48/56 60/67/80 49/69/81
f 61/70/82 40/42/48 50/53/64
f 41/43/49 40/42/48 62/71/83
f 51/54/65 52/55/66 34/34/39
f 51/54/65 41/43/49 63/72/84
f 42/56/67 60/67/80 45/48/56
f 42/56/69 64/73/85 60/67/77
f 53/57/68 65/74/86 42/56/69
f 44/45/87 53/57/88 66/75/89
f 66/75/90 44/45/51 54/58/70
f 54/58/70 43/47/53 67/59/91
f 67/59/71 45/48/56 80/76/92
f 68/77/93 36/64/57 67/78/72
f 35/36/94 50/53/94 55/61/94
f 58/66/76 55/61/73 38/39/45
f 68/77/93 56/62/74 36/64/57
f 56/62/74 69/79/95 37/63/44
f 69/79/95 57/80/75 37/63/44
f 57/65/75 70/81/96 46/49/60
f 46/49/60 48/51/62 47/50/61
f 58/66/97 71/82/98 48/51/99
f 52/55/66 73/83/100 49/52/63
f 60/67/77 64/73/85 59/68/78
f 49/69/79 59/68/78 72/84/101
f 45/48/56 49/69/81 73/85/102
f 61/70/82 62/71/83 40/42/48
f 61/70/82 50/53/64 74/86/103
f 63/72/84 41/43/49 62/71/83
f 75/87/104 52/88/66 51/89/65
f 51/54/65 63/72/84 76/90/105
f 42/56/69 65/74/86 64/73/85
f 65/74/106 77/91/107 53/57/88
f 53/57/88 78/92/108 66/75/89
f 79/93/109 66/75/90 54/58/70
f 54/58/70 67/59/91 80/76/110
f 80/94/111 68/77/93 67/78/72
f 80/76/92 45/48/56 95/95/112
f 74/86/103 50/53/64 55/61/73
f 81/96/113 55/61/73 58/66/76
f 56/62/74 68/77/93 82/97/114
f 83/98/115 69/79/95 56/62/74
f 69/79/95 84/99/116 57/80/75
f 57/65/75 84/100/116 70/81/96
f 70/81/96 85/101/117 46/49/60
f 46/49/118 48/51/99 71/82/98
f 71/82/98 58/66/97 86/102/119
f 49/69/79 72/84/101 73/85/120
f 88/103/121 73/104/100 52/88/66
f 64/73/85 87/105/122 59/68/78
f 59/68/78 87/105/122 72/84/101
f 88/106/123 73/85/124 45/48/125
f 63/72/84 62/71/83 61/70/82
f 61/70/82 74/86/103 89/107/126
f 75/87/104 88/103/121 52/88/66
f 75/87/104 51/89/65 90/108/127
f 76/90/105 63/72/84 91/109/128
f 92/110/129 51/54/65 76/90/105
f 65/74/86 93/111/130 64/73/85
f 65/74/86 77/91/131 93/111/130
f 53/57/88 77/91/107 78/92/108
f 79/93/109 54/58/70 94/112/132
f 54/58/70 80/76/110 94/112/132
f 68/77/93 80/94/111 82/97/114
f 82/97/114 80/94/111 95/113/133
f 94/112/132 80/76/110 95/95/134
f 95/95/112 45/48/56 96/114/135
f 81/96/113 74/86/103 55/61/73
f 97/115/136 81/96/113 58/66/76
f 56/62/74 82/97/114 98/116/137
f 83/98/115 56/62/74 98/116/137
f 83/98/138 69/79/139 99/117/140
f 69/79/95 100/118/141 84/99/116
f 84/100/116 101/119/142 70/81/96
f 85/101/117 86/102/143 46/49/60
f 70/81/96 102/120/144 85/101/117
f 71/82/98 86/102/119 46/49/118
f 86/102/143 97/115/136 58/66/76
f 88/106/145 73/85/120 72/84/101
f 64/73/85 93/111/130 87/105/122
f 72/84/101 87/105/122 103/121/146
f 104/122/147 88/106/123 45/48/125
f 89/107/126 63/72/84 61/70/82
f 89/107/126 74/86/103 105/123/148
f 106/124/149 88/103/121 75/87/104
f 107/125/150 90/108/127 51/89/65
f 75/87/151 106/124/152 90/108/153
f 91/109/128 63/72/84 108/126/154
f 109/127/155 76/90/105 91/109/128
f 92/110/129 76/90/105 110/128/156
f 107/125/150 51/89/65 92/129/129
f 79/93/109 94/112/132 111/130/157
f 106/124/149 82/97/114 95/113/133
f 94/112/132 95/95/134 112/131/158
f 106/124/149 95/113/133 96/132/159
f 112/131/158 95/95/134 96/114/160
f 104/122/147 45/48/125 96/114/161
f 81/96/113 105/123/148 74/86/103
f 113/133/162 81/96/113 97/115/136
f 98/116/137 82/97/114 106/124/149
f 83/98/115 98/116/137 114/134/163
f 115/135/164 99/117/165 83/98/115
f 99/117/140 69/79/139 100/118/166
f 100/118/141 101/136/142 84/99/116
f 101/119/142 102/120/144 70/81/96
f 85/101/117 97/115/136 86/102/143
f 102/120/144 113/133/162 85/101/117
f 88/106/145 72/84/101 116/137/167
f 116/137/167 72/84/101 103/121/146
f 104/122/168 88/106/145 116/137/167
f 106/124/149 104/138/169 88/103/121
f 89/107/126 108/126/154 63/72/84
f 105/123/148 108/126/154 89/107/126
f 107/125/150 114/134/163 90/108/127
f 106/124/152 117/139/170 90/108/153
f 105/123/171 108/126/172 91/109/173
f 113/133/174 91/109/173 109/127/175
f 118/140/176 76/90/105 109/127/155
f 119/141/177 110/128/156 76/90/105
f 120/142/178 92/129/129 110/143/156
f 107/125/150 92/129/129 120/142/178
f 121/144/179 94/112/180 111/130/181
f 121/144/179 112/131/182 94/112/180
f 106/124/149 96/132/159 104/138/169
f 112/131/158 96/114/160 122/145/183
f 96/114/160 104/122/168 123/146/184
f 113/133/162 105/123/148 81/96/113
f 113/133/162 97/115/136 85/101/117
f 98/116/137 106/124/149 117/139/185
f 114/134/163 98/116/137 117/139/185
f 115/135/164 83/98/115 114/134/163
f 124/147/186 99/117/165 115/135/164
f 100/118/141 99/117/165 124/147/186
f 100/118/141 125/148/187 101/136/142
f 101/119/142 126/149/188 102/120/144
f 109/127/155 113/133/162 102/120/144
f 116/137/167 103/121/146 127/150/189
f 104/122/168 116/137/167 123/146/184
f 90/108/153 117/139/170 114/134/190
f 120/142/178 114/134/163 107/125/150
f 105/123/171 91/109/173 113/133/174
f 126/149/188 118/140/176 109/127/155
f 119/141/177 76/90/105 118/140/176
f 120/142/178 110/143/156 119/151/177
f 121/144/191 112/131/158 128/152/192
f 112/131/158 122/145/183 128/152/192
f 122/145/183 96/114/160 123/146/184
f 120/142/178 115/135/164 114/134/163
f 124/147/186 115/135/164 120/142/178
f 129/153/193 100/118/141 124/147/186
f 129/153/193 125/148/187 100/118/141
f 101/136/142 125/148/187 130/154/194
f 126/149/188 109/127/155 102/120/144
f 101/119/142 131/155/195 126/149/188
f 127/150/196 116/137/197 132/156/198
f 132/156/198 116/137/197 123/146/199
f 133/157/200 118/140/176 126/149/188
f 134/158/201 118/140/201 119/141/201
f 124/147/186 120/142/178 119/151/177
f 128/152/192 122/145/183 132/156/202
f 132/156/198 123/146/199 122/145/203
f 129/153/193 124/147/186 134/159/204
f 135/160/205 125/148/187 129/153/193
f 125/148/187 135/160/205 130/154/194
f 101/119/142 130/161/194 131/155/195
f 133/157/200 126/149/188 131/155/195
f 134/158/206 118/140/176 133/157/200
f 134/159/204 124/147/186 119/151/177
f 134/159/207 129/153/207 135/160/207
f 135/162/205 131/155/195 130/161/194
f 135/162/205 133/157/200 131/155/195
f 135/162/205 134/158/206 133/157/200
