# Blender v2.78 (sub 0) OBJ File: ''
# www.blender.org
mtllib Hippo.mtl
o Hippo_1_polygon1.024
v 0.268191 0.444519 0.000202
v 0.213719 0.411970 -0.313046
v 0.121587 0.604438 0.000202
v 0.090114 0.540955 -0.292468
v -0.121587 0.604438 0.000202
v -0.090114 0.540955 -0.292468
v -0.213719 0.411970 -0.313046
v -0.071957 0.117687 -0.296772
v 0.000000 0.156826 -0.349765
v -0.065770 0.077740 -0.120578
v 0.065770 0.077740 -0.120578
v -0.048554 0.077740 0.143578
v 0.048554 0.077740 0.143578
v 0.195158 0.119704 -0.120578
v 0.209280 0.133423 -0.276194
v 0.214795 0.166375 -0.287088
v 0.071957 0.117687 -0.296772
v 0.216543 0.205918 -0.313046
v 0.272091 0.204573 -0.000874
v -0.209280 0.133423 -0.276194
v -0.195158 0.119704 -0.120578
v -0.214795 0.166375 -0.287088
v -0.272091 0.204573 -0.000874
v -0.216543 0.205918 -0.313046
v -0.268191 0.444519 0.000202
v 0.000000 0.373638 -0.398319
v -0.172428 0.004438 0.258440
v -0.167317 0.004438 0.158238
v -0.090518 0.004438 0.266644
v -0.070612 0.004438 0.169132
v 0.189644 0.115938 0.287357
v 0.172428 0.004438 0.258440
v 0.189240 0.119704 0.132683
v 0.167317 0.004438 0.158238
v 0.070612 0.004438 0.169132
v 0.090518 0.004438 0.266644
v 0.067922 0.105044 0.315736
v 0.000000 0.108675 0.341560
v -0.189240 0.119704 0.132683
v -0.189644 0.115938 0.287357
v -0.067922 0.105044 0.315736
v -0.173100 0.004438 -0.147075
v -0.101950 0.004438 -0.147075
v -0.087828 0.004439 -0.270410
v -0.173100 0.004439 -0.256826
v 0.000000 0.374176 -0.452656
v 0.000000 0.416274 -0.352455
v 0.042367 0.315535 -0.422394
v 0.034163 0.354270 -0.359583
v -0.034163 0.354270 -0.359583
v -0.042367 0.315535 -0.422394
v 0.087828 0.004439 -0.270410
v 0.173235 0.004439 -0.256826
v 0.102085 0.004438 -0.147075
v 0.173235 0.004438 -0.147075
v 0.000000 0.230935 -0.512777
v -0.198789 0.144317 0.298655
v -0.055817 0.096436 0.385676
v 0.055817 0.096436 0.385676
v -0.086886 0.143510 0.504169
v 0.086617 0.143241 0.504035
v -0.081641 0.229321 0.512777
v 0.081641 0.229321 0.512777
v -0.052858 0.297915 0.426563
v 0.051782 0.297915 0.426563
v 0.062004 0.507733 0.370477
v 0.213719 0.435239 0.313046
v 0.090114 0.561533 0.290854
v 0.214795 0.205918 0.310222
v 0.213853 0.172159 0.367787
v 0.198789 0.144317 0.298655
v 0.198386 0.141896 0.377875
v 0.195292 0.154001 0.435171
v 0.204707 0.204169 0.462475
v 0.139341 0.288635 0.396705
v -0.221654 0.172159 0.367787
v -0.214795 0.205918 0.310222
v -0.203228 0.227169 0.337794
v -0.203766 0.270208 0.330935
v -0.139072 0.288635 0.396705
v -0.213719 0.435239 0.313046
v -0.061735 0.507733 0.370477
v 0.123605 0.592468 0.131876
v 0.257028 0.439812 0.113584
v 0.243712 0.205245 0.103497
v -0.090114 0.561533 0.290854
v -0.123605 0.592468 0.131876
v -0.257028 0.439812 0.113584
v -0.243712 0.205245 0.103497
v -0.204707 0.204169 0.462475
v -0.193947 0.154674 0.436113
v -0.198386 0.141896 0.377875
v 0.203766 0.270208 0.330935
v 0.203362 0.227169 0.337794
v 0.126429 0.496570 0.244586
v 0.193813 0.576866 0.205582
v 0.154943 0.475050 0.176126
v 0.264694 0.502219 0.209482
v 0.173907 0.453261 0.254405
v 0.261197 0.580094 0.247142
v -0.264694 0.502219 0.209482
v -0.173907 0.453261 0.254405
v -0.261197 0.580094 0.247142
v -0.126429 0.496570 0.244586
v -0.193813 0.576866 0.205582
v -0.154943 0.475050 0.176126
vt 0.9007 0.4411
vt 0.9408 0.4366
vt 0.9007 0.4641
vt 0.9380 0.4530
vt 0.9007 0.4641
vt 0.9380 0.4530
vt 0.9408 0.4366
vt 0.9085 0.3611
vt 0.9495 0.3054
vt 0.7727 0.3562
vt 0.7727 0.2545
vt 0.5690 0.3431
vt 0.5690 0.2681
vt 0.7727 0.1549
vt 0.8929 0.1438
vt 0.9085 0.1196
vt 0.9085 0.2500
vt 0.9367 0.0897
vt 0.6801 0.0954
vt 0.8929 0.1438
vt 0.7727 0.1549
vt 0.9085 0.1196
vt 0.6801 0.0954
vt 0.9367 0.0897
vt 0.9408 0.4108
vt 0.9011 0.4103
vt 0.9007 0.4411
vt 0.8445 0.4489
vt 0.8584 0.4616
vt 0.8625 0.4427
vt 0.8765 0.4604
vt 0.8929 0.4423
vt 0.8793 0.4239
vt 0.8597 0.4124
vt 0.8433 0.4308
vt 0.6862 0.4604
vt 0.6538 0.4604
vt 0.6862 0.4341
vt 0.6538 0.4341
vt 0.5997 0.4616
vt 0.5804 0.4616
vt 0.5997 0.4337
vt 0.5804 0.4337
vt 0.6030 0.4337
vt 0.6251 0.4337
vt 0.6030 0.4616
vt 0.6251 0.4616
vt 0.6288 0.4616
vt 0.6510 0.4616
vt 0.6288 0.4337
vt 0.6510 0.4337
vt 0.5587 0.4616
vt 0.5776 0.4616
vt 0.5587 0.4337
vt 0.5776 0.4337
vt 0.6936 0.4390
vt 0.6911 0.4464
vt 0.7112 0.4411
vt 0.7112 0.4513
vt 0.5997 0.4337
vt 0.5804 0.4337
vt 0.5997 0.4616
vt 0.5804 0.4616
vt 0.6251 0.4337
vt 0.6030 0.4337
vt 0.6251 0.4616
vt 0.6030 0.4616
vt 0.6510 0.4616
vt 0.6288 0.4616
vt 0.6510 0.4337
vt 0.6288 0.4337
vt 0.5776 0.4616
vt 0.5587 0.4616
vt 0.5776 0.4337
vt 0.5587 0.4337
vt 0.5690 0.2681
vt 0.5772 0.1594
vt 0.7727 0.2545
vt 0.9085 0.2500
vt 0.6510 0.4616
vt 0.6288 0.4616
vt 0.6510 0.4337
vt 0.6288 0.4337
vt 0.5776 0.4337
vt 0.5587 0.4337
vt 0.5776 0.4616
vt 0.5587 0.4616
vt 0.6538 0.4604
vt 0.6538 0.4341
vt 0.6862 0.4604
vt 0.6862 0.4341
vt 0.6251 0.4337
vt 0.6030 0.4337
vt 0.6251 0.4616
vt 0.6030 0.4616
vt 0.5997 0.4616
vt 0.5804 0.4616
vt 0.5997 0.4337
vt 0.5804 0.4337
vt 0.7957 0.4604
vt 0.8211 0.4604
vt 0.7920 0.4452
vt 0.8228 0.4452
vt 0.8228 0.4452
vt 0.7920 0.4452
vt 0.8215 0.4329
vt 0.7949 0.4370
vt 0.8219 0.4243
vt 0.7953 0.4194
vt 0.6538 0.4341
vt 0.6538 0.4604
vt 0.6862 0.4341
vt 0.6862 0.4604
vt 0.6030 0.4337
vt 0.6251 0.4337
vt 0.6030 0.4616
vt 0.6251 0.4616
vt 0.5587 0.4337
vt 0.5776 0.4337
vt 0.5587 0.4616
vt 0.5776 0.4616
vt 0.9408 0.4108
vt 0.9011 0.4103
vt 0.6288 0.4616
vt 0.6510 0.4616
vt 0.6288 0.4337
vt 0.6510 0.4337
vt 0.5997 0.4616
vt 0.5997 0.4337
vt 0.5804 0.4616
vt 0.5804 0.4337
vt 0.5772 0.1594
vt 0.6538 0.4604
vt 0.6862 0.4604
vt 0.6538 0.4341
vt 0.6862 0.4341
vt 0.6936 0.4534
vt 0.7682 0.4280
vt 0.7949 0.4284
vt 0.0777 0.5454
vt 0.1657 0.5390
vt 0.0709 0.5648
vt 0.2109 0.5424
vt 0.1737 0.5835
vt 0.2486 0.5835
vt 0.1703 0.5906
vt 0.2515 0.5906
vt 0.1564 0.6465
vt 0.2655 0.6465
vt 0.1762 0.7112
vt 0.2460 0.7112
vt 0.2524 0.8486
vt 0.3560 0.7962
vt 0.2689 0.8841
vt 0.3649 0.6443
vt 0.3598 0.6334
vt 0.3509 0.5648
vt 0.3441 0.6008
vt 0.3378 0.6071
vt 0.3585 0.6312
vt 0.3044 0.7027
vt 0.0621 0.6338
vt 0.0574 0.6443
vt 0.0747 0.6596
vt 0.0659 0.6875
vt 0.1179 0.7027
vt 0.0667 0.7966
vt 0.1695 0.8486
vt 0.3987 0.6930
vt 0.3932 0.6515
vt 0.4389 0.7031
vt 0.4439 0.6532
vt 0.4714 0.6545
vt 0.4460 0.5771
vt 0.4714 0.5767
vt 0.4389 0.5483
vt 0.3987 0.6930
vt 0.4389 0.7031
vt 0.3932 0.6515
vt 0.4439 0.6532
vt 0.3932 0.6143
vt 0.4460 0.5771
vt 0.3936 0.5771
vt 0.3970 0.5564
vt 0.0633 0.6312
vt 0.0853 0.6076
vt 0.0781 0.6008
vt 0.4000 0.5471
vt 0.4389 0.5483
vt 0.4714 0.5767
vt 0.4714 0.6545
vt 0.4714 0.7082
vt 0.4714 0.7082
vt 0.4714 0.7809
vt 0.4393 0.7074
vt 0.4393 0.7818
vt 0.3987 0.7716
vt 0.3564 0.6875
vt 0.3475 0.6596
vt 0.3014 0.8934
vt 0.2976 0.9306
vt 0.3141 0.8955
vt 0.3344 0.9302
vt 0.3243 0.8947
vt 0.3661 0.9049
vt 0.3771 0.7983
vt 0.4118 0.9569
vt 0.4427 0.8021
vt 0.4714 0.9040
vt 0.4714 0.9040
vt 0.4427 0.8021
vt 0.4118 0.9569
vt 0.3771 0.7983
vt 0.3661 0.9049
vt 0.3014 0.8934
vt 0.3141 0.8955
vt 0.2976 0.9306
vt 0.3344 0.9302
vt 0.3137 0.9488
vt 0.4000 0.5471
vt 0.3970 0.5564
vt 0.3936 0.5771
vt 0.3446 0.5454
vt 0.2566 0.5390
vt 0.3932 0.6143
vt 0.1543 0.8854
vt 0.3137 0.9488
vt 0.3243 0.8947
vt 0.3995 0.7171
vn 0.7230 0.6628 -0.1946
vn 0.7890 0.3515 -0.5039
vn 0.2188 0.8146 -0.5372
vn 0.4687 0.8768 -0.1074
vn -0.4002 0.9137 -0.0703
vn -0.2732 0.7415 -0.6128
vn -0.7890 0.3515 -0.5039
vn 0.3908 -0.6096 -0.6897
vn -0.0000 -0.6833 -0.7301
vn 0.0956 -0.9720 0.2147
vn -0.2189 -0.9735 0.0665
vn 0.2657 -0.9630 -0.0449
vn -0.1563 -0.9456 -0.2853
vn 0.7794 -0.5372 0.3223
vn 0.7568 -0.3063 -0.5774
vn 0.6939 -0.4769 -0.5395
vn -0.1250 -0.5156 -0.8476
vn 0.6623 -0.2110 -0.7189
vn 0.9584 -0.2850 -0.0137
vn -0.6406 -0.2949 -0.7090
vn -0.8300 -0.5273 0.1816
vn -0.6939 -0.4769 -0.5395
vn -0.9667 -0.2558 0.0020
vn -0.6623 -0.2110 -0.7189
vn -0.9282 0.3693 -0.0449
vn -0.0000 0.1443 -0.9895
vn -0.4585 -0.6381 0.6186
vn -0.5646 -0.7639 -0.3126
vn 0.4944 -0.7992 0.3419
vn 0.3925 -0.6523 -0.6484
vn 0.6289 -0.3809 0.6778
vn 0.5977 -0.7578 0.2617
vn 0.8258 -0.5583 -0.0800
vn 0.3107 -0.6370 -0.7054
vn -0.5609 -0.8110 -0.1661
vn -0.2068 -0.6750 0.7082
vn -0.2616 -0.6657 0.6989
vn -0.0000 -0.9889 0.1485
vn -0.7064 -0.6673 -0.2361
vn -0.8416 -0.3300 0.4276
vn 0.0195 -0.6136 0.7894
vn -0.3008 -0.7853 0.5411
vn 0.6738 -0.6601 0.3320
vn 0.2107 -0.7902 -0.5755
vn -0.7464 -0.5822 -0.3224
vn 0.8260 0.3847 -0.4120
vn 0.8458 0.4942 -0.2012
vn 0.8396 0.4237 -0.3398
vn 0.8502 0.4904 -0.1914
vn -0.8469 0.4898 -0.2068
vn -0.8385 0.4241 -0.3421
vn -0.8441 0.4963 -0.2031
vn -0.8267 0.3870 -0.4085
vn 0.0000 -0.8512 0.5249
vn -0.0000 -0.8145 0.5801
vn -0.0000 -0.8509 0.5253
vn -0.0000 -0.7946 0.6072
vn -0.6406 -0.6836 -0.3496
vn 0.5547 -0.6953 -0.4570
vn -0.2110 -0.8088 0.5490
vn 0.4963 -0.7151 0.4923
vn 0.9342 0.3557 0.0254
vn -0.7671 0.2480 -0.5916
vn 0.0000 -0.7301 0.6834
vn 0.7671 0.2480 -0.5916
vn -0.2414 -0.4251 0.8724
vn -0.2696 -0.5581 0.7848
vn -0.0869 -0.9262 -0.3669
vn 0.0000 -0.9635 -0.2678
vn 0.0000 -0.9293 0.3692
vn -0.0005 -0.9295 0.3689
vn -0.0003 -0.9294 0.3692
vn -0.0012 -0.9298 0.3680
vn 0.0007 -0.0995 0.9950
vn 0.0004 -0.0996 0.9950
vn 0.0003 -0.0996 0.9950
vn 0.0000 -0.1010 0.9949
vn -0.0000 0.7822 0.6230
vn 0.0000 0.7825 0.6226
vn 0.0000 0.2582 0.9661
vn 0.4333 0.2130 0.8757
vn 0.5189 0.6120 0.5968
vn 0.9663 -0.2291 -0.1174
vn 0.8892 -0.4574 -0.0089
vn 0.3023 -0.9528 -0.0276
vn 0.3074 -0.9273 0.2134
vn 0.2750 -0.9164 0.2908
vn 0.5021 -0.4858 0.7154
vn 0.3640 -0.0724 0.9286
vn 0.3801 0.7335 0.5634
vn 0.2698 0.7968 0.5407
vn 0.3363 0.3321 0.8813
vn -0.9511 -0.2034 -0.2326
vn -0.9235 0.3684 0.1066
vn -0.9319 0.0446 0.3599
vn -0.7227 0.0986 0.6841
vn -0.7170 0.0322 0.6963
vn -0.3413 0.3285 0.8807
vn -0.4335 0.2156 0.8750
vn 0.0000 0.8286 0.5599
vn -0.0000 0.8288 0.5596
vn 0.6628 0.6966 0.2747
vn 0.7514 0.6354 0.1777
vn 0.7549 0.6480 0.1011
vn 0.9936 -0.0603 0.0956
vn 0.9650 0.0145 0.2619
vn 0.8539 -0.4643 0.2349
vn -0.6628 0.6966 0.2747
vn -0.7512 0.6357 0.1779
vn -0.9768 -0.0360 0.2113
vn -0.9797 -0.0638 0.1903
vn -0.9827 0.1244 0.1371
vn -0.9527 -0.2727 0.1342
vn -0.3646 -0.0703 0.9285
vn -0.5038 -0.4911 0.7106
vn -0.2799 -0.9151 0.2902
vn -0.3071 -0.9244 0.2262
vn -0.3023 -0.9528 -0.0276
vn -0.7901 -0.6128 -0.0144
vn -0.9525 -0.3044 -0.0101
vn -0.8475 -0.5300 0.0295
vn -0.8540 -0.4642 0.2350
vn -0.9628 -0.0659 0.2622
vn -0.9950 0.0157 0.0989
vn -0.7334 0.6724 0.1001
vn 0.0000 0.9959 0.0905
vn 0.0000 0.9816 0.1910
vn 0.9340 0.0468 0.3542
vn 0.7245 0.1008 0.6819
vn 0.7406 0.6622 0.1138
vn -0.3799 0.7343 0.5626
vn -0.7395 0.6636 0.1130
vn -0.9378 0.3432 0.0516
vn 0.9436 0.2781 0.1798
vn 0.9792 0.2012 0.0266
vn 0.9428 -0.2781 0.1841
vn -0.7777 0.4297 -0.4590
vn 0.2443 0.1823 -0.9524
vn 0.3189 -0.8903 -0.3252
vn -0.4189 0.6563 0.6276
vn -0.0938 0.1212 0.9882
vn 0.5581 -0.3408 0.7565
vn -0.5581 -0.3408 0.7565
vn 0.0938 0.1212 0.9882
vn 0.4191 0.6563 0.6274
vn 0.7777 0.4297 -0.4590
vn -0.2443 0.1823 -0.9524
vn -0.4667 0.4019 -0.7878
vn 0.9525 -0.3044 -0.0101
vn 0.9685 -0.2481 -0.0189
vn 0.2414 -0.4251 0.8724
vn 0.2696 -0.5581 0.7847
vn 0.9827 0.1244 0.1371
vn 0.8552 -0.5040 0.1211
vn 0.9768 -0.0360 0.2113
vn 0.9797 -0.0638 0.1903
vn -0.5178 0.6118 0.5980
vn -0.8077 -0.5598 0.1851
vn -0.8970 -0.3450 0.2765
vn 0.0869 -0.9262 -0.3669
vn 0.4667 0.4019 -0.7878
vn 0.7362 0.6749 0.0501
vn -0.3189 -0.8903 -0.3252
vn -0.7549 0.6541 0.0479
vn -0.2741 0.7949 0.5412
vn 0.7182 0.0320 0.6951
vn 0.8998 -0.4145 0.1362
usemtl None
s 1
f 1/1/1 2/2/1 3/3/1
f 2/2/2 4/4/3 3/3/4
f 3/3/4 4/4/3 5/5/5
f 4/4/3 6/6/6 5/5/5
f 5/5/5 6/6/6 7/7/7
f 8/8/8 9/9/9 10/10/10
f 9/9/9 11/11/11 10/10/10
f 10/10/10 11/11/11 12/12/12
f 11/11/11 13/13/13 12/12/12
f 14/14/14 15/15/15 16/16/16
f 15/15/15 17/17/17 16/16/16
f 16/16/16 17/17/17 9/9/9
f 17/17/17 11/11/11 9/9/9
f 9/9/9 18/18/18 16/16/16
f 18/18/18 19/19/19 16/16/16
f 16/16/16 19/19/19 14/14/14
f 20/20/20 21/21/21 22/22/22
f 21/21/21 23/23/23 22/22/22
f 22/22/22 23/23/23 24/24/24
f 24/25/24 23/26/23 7/7/7
f 23/26/23 25/27/25 7/7/7
f 7/7/7 25/27/25 5/5/5
f 6/28/6 4/29/3 26/30/26
f 4/29/3 2/31/2 26/30/26
f 26/30/26 2/31/2 18/32/18
f 9/33/9 24/34/24 26/30/26
f 24/34/24 7/35/7 26/30/26
f 26/30/26 7/35/7 6/28/6
f 27/36/27 28/37/28 29/38/29
f 28/37/28 30/39/30 29/38/29
f 31/40/31 32/41/32 33/42/33
f 32/41/32 34/43/34 33/42/33
f 35/44/35 13/45/13 34/46/34
f 13/45/13 33/47/33 34/46/34
f 32/48/32 31/49/31 36/50/36
f 31/49/31 37/51/37 36/50/36
f 36/52/36 37/53/37 35/54/35
f 37/53/37 13/55/13 35/54/35
f 37/56/37 38/57/38 13/58/13
f 38/57/38 12/59/12 13/58/13
f 39/60/39 28/61/28 40/62/40
f 28/61/28 27/63/27 40/62/40
f 12/64/12 30/65/30 39/66/39
f 30/65/30 28/67/28 39/66/39
f 40/68/40 27/69/27 41/70/41
f 27/69/27 29/71/29 41/70/41
f 41/72/41 29/73/29 12/74/12
f 29/73/29 30/75/30 12/74/12
f 12/76/12 39/77/39 10/78/10
f 39/77/39 21/21/21 10/78/10
f 20/20/20 22/22/22 8/79/8
f 22/22/22 9/9/9 8/79/8
f 21/80/21 42/81/42 10/82/10
f 42/81/42 43/83/43 10/82/10
f 10/84/10 43/85/43 8/86/8
f 43/85/43 44/87/44 8/86/8
f 45/88/45 44/89/44 42/90/42
f 44/89/44 43/91/43 42/90/42
f 8/92/8 44/93/44 20/94/20
f 44/93/44 45/95/45 20/94/20
f 20/96/20 45/97/45 21/98/21
f 45/97/45 42/99/42 21/98/21
f 46/100/46 47/101/47 48/102/48
f 47/101/47 49/103/49 48/102/48
f 47/101/50 46/100/51 50/104/52
f 46/100/51 51/105/53 50/104/52
f 50/106/54 51/107/55 49/108/56
f 51/107/55 48/109/57 49/108/56
f 52/110/58 53/111/59 54/112/60
f 53/111/59 55/113/61 54/112/60
f 52/114/58 17/115/17 53/116/59
f 17/115/17 15/117/15 53/116/59
f 54/118/60 11/119/11 52/120/58
f 11/119/11 17/121/17 52/120/58
f 18/122/18 2/2/2 19/123/19
f 2/2/2 1/1/62 19/123/19
f 55/124/61 14/125/14 54/126/60
f 14/125/14 11/127/11 54/126/60
f 15/128/15 14/129/14 53/130/59
f 14/129/14 55/131/61 53/130/59
f 11/11/11 14/14/14 33/132/33
f 14/14/14 19/19/19 33/132/33
f 34/133/34 32/134/32 35/135/35
f 32/134/32 36/136/36 35/135/35
f 24/24/24 9/9/9 22/22/22
f 23/23/23 21/21/21 39/77/39
f 13/13/13 11/11/11 33/132/33
f 9/33/9 26/30/26 18/32/18
f 12/59/12 38/57/38 41/137/41
f 51/107/53 46/138/51 56/139/63
f 56/139/64 48/109/57 51/107/55
f 48/109/48 56/139/65 46/138/46
f 40/140/66 41/141/66 57/142/66
f 41/141/67 38/143/67 57/142/67
f 57/142/68 38/143/68 58/144/68
f 38/143/69 59/145/69 58/144/69
f 58/144/70 59/145/71 60/146/72
f 59/145/71 61/147/73 60/146/72
f 60/146/74 61/147/75 62/148/76
f 61/147/75 63/149/77 62/148/76
f 62/148/78 63/149/79 64/150/79
f 63/149/79 65/151/79 64/150/79
f 64/150/80 65/151/80 66/152/80
f 65/151/81 67/153/81 66/152/81
f 66/152/82 67/153/82 68/154/82
f 69/155/83 70/156/83 71/157/83
f 70/156/84 72/158/84 71/157/84
f 71/157/85 72/158/85 59/145/85
f 72/158/86 73/159/86 59/145/86
f 59/145/87 73/159/87 61/147/87
f 73/159/88 74/160/88 61/147/88
f 61/147/89 74/160/89 63/149/89
f 74/160/90 75/161/90 63/149/90
f 63/149/91 75/161/91 65/151/91
f 75/161/92 67/153/92 65/151/92
f 57/142/93 76/162/93 77/163/93
f 76/162/94 78/164/94 77/163/94
f 77/163/95 78/164/95 79/165/95
f 78/164/96 80/166/96 79/165/96
f 79/165/97 80/166/97 81/167/97
f 80/166/98 64/150/98 81/167/98
f 81/167/99 64/150/99 82/168/99
f 64/150/80 66/152/80 82/168/80
f 82/168/100 66/152/101 68/154/100
f 68/169/102 67/170/102 83/171/102
f 67/170/103 84/172/103 83/171/103
f 83/171/104 84/172/104 1/173/104
f 84/172/105 85/174/105 1/173/105
f 1/173/106 85/174/106 19/175/106
f 85/174/107 33/176/107 19/175/107
f 86/177/108 87/178/108 81/179/108
f 87/178/109 88/180/109 81/179/109
f 81/179/110 88/180/110 79/181/110
f 88/180/111 89/182/111 79/181/111
f 79/181/112 89/182/112 77/183/112
f 89/182/113 57/184/113 77/183/113
f 62/148/114 90/185/114 60/146/114
f 90/185/115 91/186/115 60/146/115
f 60/146/116 91/186/116 58/144/116
f 91/186/117 92/187/117 58/144/117
f 58/144/118 92/187/118 57/142/118
f 92/187/119 76/162/119 57/142/119
f 40/188/120 57/184/120 39/189/120
f 57/184/121 89/182/121 39/189/121
f 39/189/122 89/182/122 23/190/122
f 89/182/123 88/180/123 23/190/123
f 23/190/124 88/180/124 25/191/124
f 88/180/125 5/192/125 25/191/125
f 3/193/126 5/194/126 83/195/126
f 5/194/126 87/196/126 83/195/126
f 83/195/127 87/196/127 86/197/127
f 69/155/128 93/198/128 94/199/128
f 93/198/129 75/161/129 94/199/129
f 94/199/130 75/161/130 74/160/130
f 62/148/131 80/166/131 90/185/131
f 80/166/132 78/164/132 90/185/132
f 90/185/133 78/164/133 76/162/133
f 69/155/134 94/199/134 70/156/134
f 94/199/135 74/160/135 70/156/135
f 70/156/136 74/160/136 73/159/136
f 95/200/137 96/201/137 97/202/137
f 96/201/138 98/203/138 97/202/138
f 97/202/139 98/203/139 99/204/139
f 96/205/140 95/206/140 100/207/140
f 95/206/141 99/208/141 100/207/141
f 100/207/142 99/208/142 98/209/142
f 101/210/143 102/211/143 103/212/143
f 102/211/144 104/213/144 103/212/144
f 103/212/145 104/213/145 105/214/145
f 104/215/146 106/216/146 105/217/146
f 106/216/147 101/218/147 105/217/147
f 105/217/148 101/218/148 103/219/148
f 31/220/149 33/176/149 71/221/149
f 33/176/150 69/222/150 71/221/150
f 31/223/151 71/157/151 37/224/151
f 71/157/152 38/143/152 37/224/152
f 93/225/153 69/222/153 85/174/153
f 69/222/154 33/176/154 85/174/154
f 67/170/155 93/225/155 84/172/155
f 93/225/156 85/174/156 84/172/156
f 81/167/157 82/168/157 86/226/157
f 82/168/100 68/154/100 86/226/101
f 92/187/158 91/186/158 76/162/158
f 91/186/159 90/185/159 76/162/159
f 71/157/160 59/145/160 38/143/160
f 100/227/161 98/203/161 96/201/161
f 3/193/162 83/171/162 1/173/162
f 102/228/163 101/218/163 106/216/163
f 87/178/164 5/192/164 88/180/164
f 64/150/165 80/166/165 62/148/165
f 67/153/166 75/161/166 93/198/166
f 72/158/167 70/156/167 73/159/167
f 68/229/127 83/195/127 86/197/127
