# Blender v2.78 (sub 0) OBJ File: ''
# www.blender.org
mtllib Iskambil_karo.mtl
o Curve_Curve.2018
v 0.082406 0.015000 -0.149935
v 0.058788 0.015000 -0.150014
v 0.092065 0.015000 -0.149793
v 0.096961 0.015000 -0.149626
v 0.100082 0.015000 -0.149393
v -0.102444 0.015000 -0.148621
v 0.101882 0.015000 -0.149086
v 0.102860 0.015000 -0.148669
v -0.103593 0.015000 -0.147941
v 0.104279 0.015000 -0.147296
v -0.104667 0.015000 -0.147060
v 0.105180 0.015000 -0.146315
v -0.105413 0.015000 -0.146243
v -0.106071 0.015000 -0.145301
v 0.106112 0.015000 -0.145031
v -0.106633 0.015000 -0.144268
v -0.107570 0.015000 -0.142261
v -0.107570 0.015000 0.142266
v 0.107524 0.015000 0.014869
v 0.107525 0.015000 0.108970
v 0.107416 0.015000 0.132402
v 0.107270 0.015000 0.140300
v 0.107071 0.015000 0.142827
v -0.106394 0.015000 0.144644
v 0.106697 0.015000 0.143894
v 0.106119 0.015000 0.145012
v -0.105831 0.015000 0.145554
v 0.105399 0.015000 0.146067
v -0.105036 0.015000 0.146626
v 0.104546 0.015000 0.147047
v -0.104313 0.015000 0.147413
v 0.103582 0.015000 0.147932
v -0.103002 0.015000 0.148694
v 0.102576 0.015000 0.148665
v -0.102009 0.015000 0.149106
v 0.100551 0.015000 0.149840
v -0.100193 0.015000 0.149409
v -0.097049 0.015000 0.149634
v -0.092119 0.015000 0.149795
v -0.082471 0.015000 0.149927
v -0.046630 0.015000 0.149993
v 0.082406 0.000000 -0.149935
v -0.099707 0.000000 -0.150014
v 0.058788 0.000000 -0.150014
v 0.092065 0.000000 -0.149793
v 0.096961 0.000000 -0.149626
v 0.100082 0.000000 -0.149393
v -0.102444 0.000000 -0.148621
v 0.101882 0.000000 -0.149086
v 0.102860 0.000000 -0.148669
v -0.103593 0.000000 -0.147941
v 0.104279 0.000000 -0.147296
v -0.104667 0.000000 -0.147060
v 0.105180 0.000000 -0.146315
v -0.105413 0.000000 -0.146243
v -0.106071 0.000000 -0.145301
v 0.106112 0.000000 -0.145031
v -0.106633 0.000000 -0.144268
v 0.107524 -0.000000 0.014679
v 0.107525 -0.000000 0.108970
v 0.107416 -0.000000 0.132402
v 0.107270 -0.000000 0.140300
v 0.107071 -0.000000 0.142827
v -0.106394 -0.000000 0.144644
v 0.106697 -0.000000 0.143894
v 0.106119 -0.000000 0.145012
v -0.105831 -0.000000 0.145554
v 0.105399 -0.000000 0.146067
v -0.105036 -0.000000 0.146626
v 0.104546 -0.000000 0.147047
v -0.104313 -0.000000 0.147413
v 0.103582 -0.000000 0.147932
v -0.103002 -0.000000 0.148694
v 0.102576 -0.000000 0.148665
v -0.102009 -0.000000 0.149106
v 0.100551 -0.000000 0.149840
v -0.100193 -0.000000 0.149409
v -0.097049 -0.000000 0.149634
v -0.092119 -0.000000 0.149795
v -0.082471 -0.000000 0.149927
v -0.046630 -0.000000 0.149993
v 0.105375 0.015000 -0.146172
v 0.102481 0.000000 -0.148981
v 0.102374 0.015000 -0.149042
v 0.107404 0.015000 -0.142620
v 0.105404 0.000000 -0.146141
v 0.107568 0.015000 0.089015
v 0.107570 -0.000000 0.092639
v 0.106501 0.015000 0.144359
v 0.107239 -0.000000 0.142156
v 0.107258 0.015000 0.141928
v 0.104218 0.015000 0.147498
v 0.106419 -0.000000 0.144519
v 0.104071 -0.000000 0.147631
v -0.071762 0.015000 0.150011
v -0.073667 -0.000000 0.150014
v -0.102517 0.015000 0.149061
v -0.096170 -0.000000 0.149687
v -0.095564 0.015000 0.149713
v -0.105448 0.015000 0.146211
v -0.102626 -0.000000 0.148999
v -0.105494 -0.000000 0.146156
v -0.105889 0.015000 -0.145767
v -0.105869 0.000000 -0.145820
v -0.103199 0.015000 -0.148229
v -0.099707 0.015000 -0.150014
v 0.090132 0.000000 -0.149982
v 0.088869 0.015000 -0.149987
v 0.107404 0.000000 -0.142621
v -0.107570 -0.000000 0.142266
v -0.107570 0.000000 -0.142261
v -0.103132 0.000000 -0.148264
vt 0.0329 0.5776
vt 0.3683 0.5775
vt 0.3248 0.5776
vt 0.3861 0.5772
vt 0.3951 0.5769
vt 0.4008 0.5765
vt 0.0279 0.5750
vt 0.4041 0.5759
vt 0.4060 0.5751
vt 0.0257 0.5738
vt 0.4086 0.5726
vt 0.0238 0.5721
vt 0.4102 0.5707
vt 0.0224 0.5706
vt 0.0212 0.5688
vt 0.4119 0.5683
vt 0.0201 0.5669
vt 0.4143 0.5639
vt 0.0184 0.5632
vt 0.0184 0.0330
vt 0.4145 0.2704
vt 0.4145 0.0951
vt 0.4143 0.0514
vt 0.4141 0.0367
vt 0.4137 0.0320
vt 0.0206 0.0286
vt 0.4130 0.0300
vt 0.4120 0.0279
vt 0.0216 0.0269
vt 0.4106 0.0260
vt 0.0231 0.0249
vt 0.4091 0.0241
vt 0.0244 0.0234
vt 0.4073 0.0225
vt 0.0268 0.0211
vt 0.4054 0.0211
vt 0.0287 0.0203
vt 0.4017 0.0189
vt 0.0320 0.0197
vt 0.0378 0.0193
vt 0.0469 0.0190
vt 0.0646 0.0188
vt 0.1306 0.0186
vt 0.4976 0.5775
vt 0.8330 0.5776
vt 0.5411 0.5776
vt 0.4798 0.5772
vt 0.4708 0.5769
vt 0.4651 0.5765
vt 0.8381 0.5750
vt 0.4618 0.5759
vt 0.4600 0.5751
vt 0.8402 0.5738
vt 0.4574 0.5726
vt 0.8422 0.5721
vt 0.4557 0.5707
vt 0.8435 0.5706
vt 0.8447 0.5688
vt 0.4540 0.5683
vt 0.8458 0.5669
vt 0.4516 0.5639
vt 0.8475 0.5632
vt 0.8475 0.0330
vt 0.4514 0.2708
vt 0.4514 0.0951
vt 0.4516 0.0514
vt 0.4518 0.0367
vt 0.4522 0.0320
vt 0.8453 0.0286
vt 0.4529 0.0300
vt 0.4540 0.0279
vt 0.8443 0.0269
vt 0.4553 0.0260
vt 0.8428 0.0249
vt 0.4569 0.0241
vt 0.8415 0.0234
vt 0.4586 0.0225
vt 0.8391 0.0211
vt 0.4605 0.0211
vt 0.8373 0.0203
vt 0.4642 0.0189
vt 0.8339 0.0197
vt 0.8281 0.0193
vt 0.8190 0.0190
vt 0.8013 0.0188
vt 0.7353 0.0186
vt 0.9816 0.0243
vt 0.9515 0.0188
vt 0.9816 0.0186
vt 0.9816 0.0311
vt 0.9515 0.0243
vt 0.9816 0.4621
vt 0.9515 0.4688
vt 0.9816 0.5649
vt 0.9515 0.5609
vt 0.9816 0.5605
vt 0.9816 0.5705
vt 0.9515 0.5652
vt 0.9816 0.5745
vt 0.9515 0.5708
vt 0.9145 0.1773
vt 0.8844 0.1790
vt 0.9146 0.0186
vt 0.9145 0.2072
vt 0.8843 0.2003
vt 0.9145 0.1997
vt 0.9145 0.2145
vt 0.8843 0.2074
vt 0.9145 0.2228
vt 0.8843 0.2146
vt 0.0485 0.6203
vt 0.0184 0.6204
vt 0.0485 0.6149
vt 0.0485 0.6267
vt 0.0485 0.6340
vt 0.0184 0.6340
vt 0.0184 0.9608
vt 0.0485 0.9586
vt 0.0485 0.9812
vt 0.0184 0.9814
vt 0.9515 0.0311
vt 0.9515 0.5745
vt 0.8845 0.0186
vt 0.8843 0.2228
vt 0.9146 0.6835
vt 0.8845 0.6835
vt 0.0184 0.6149
vt 0.0184 0.6268
vn 0.0000 1.0000 0.0000
vn 0.0000 -1.0000 -0.0000
vn 0.7882 0.0012 -0.6154
vn 0.4116 0.0008 -0.9114
vn 0.4053 0.0017 -0.9142
vn 0.9665 0.0003 -0.2567
vn 0.7911 0.0000 -0.6117
vn 1.0000 0.0001 0.0022
vn 1.0000 0.0001 0.0033
vn 0.8933 0.0022 0.4494
vn 0.9856 -0.0005 0.1692
vn 0.9884 0.0018 0.1521
vn 0.6855 0.0017 0.7281
vn 0.8823 -0.0017 0.4706
vn 0.2802 0.0009 0.9599
vn 0.6755 -0.0011 0.7374
vn -0.0057 0.0002 1.0000
vn -0.0068 0.0002 1.0000
vn -0.4190 0.0015 0.9080
vn -0.0592 -0.0008 0.9982
vn -0.0524 0.0012 0.9986
vn -0.7989 0.0014 0.6015
vn -0.4300 -0.0018 0.9028
vn -0.9698 0.0004 0.2440
vn -0.8022 -0.0001 0.5971
vn -0.8033 0.0010 -0.5955
vn -0.8004 -0.0010 -0.5995
vn -0.9751 0.0001 -0.2216
vn -0.5694 0.0006 -0.8221
vn -0.2340 -0.0001 -0.9722
vn -0.2336 0.0004 -0.9723
vn 0.0396 0.0006 -0.9992
vn 0.0356 0.0005 -0.9994
vn 0.9667 0.0000 -0.2558
vn 0.2770 0.0000 0.9609
vn -0.9701 0.0000 0.2427
vn -0.9753 0.0000 -0.2211
vn -0.5648 -0.0006 -0.8252
usemtl None
s off
f 106/1/1 1/2/1 2/3/1
f 106/1/1 3/4/1 1/2/1
f 106/1/1 4/5/1 3/4/1
f 106/1/1 5/6/1 4/5/1
f 6/7/1 5/6/1 106/1/1
f 6/7/1 7/8/1 5/6/1
f 6/7/1 8/9/1 7/8/1
f 9/10/1 8/9/1 6/7/1
f 9/10/1 10/11/1 8/9/1
f 11/12/1 10/11/1 9/10/1
f 11/12/1 12/13/1 10/11/1
f 13/14/1 12/13/1 11/12/1
f 14/15/1 12/13/1 13/14/1
f 14/15/1 15/16/1 12/13/1
f 16/17/1 15/16/1 14/15/1
f 16/17/1 85/18/1 15/16/1
f 17/19/1 85/18/1 16/17/1
f 18/20/1 85/18/1 17/19/1
f 18/20/1 19/21/1 85/18/1
f 18/20/1 20/22/1 19/21/1
f 18/20/1 21/23/1 20/22/1
f 18/20/1 22/24/1 21/23/1
f 18/20/1 23/25/1 22/24/1
f 24/26/1 23/25/1 18/20/1
f 24/26/1 25/27/1 23/25/1
f 24/26/1 26/28/1 25/27/1
f 27/29/1 26/28/1 24/26/1
f 27/29/1 28/30/1 26/28/1
f 29/31/1 28/30/1 27/29/1
f 29/31/1 30/32/1 28/30/1
f 31/33/1 30/32/1 29/31/1
f 31/33/1 32/34/1 30/32/1
f 33/35/1 32/34/1 31/33/1
f 33/35/1 34/36/1 32/34/1
f 35/37/1 34/36/1 33/35/1
f 35/37/1 36/38/1 34/36/1
f 37/39/1 36/38/1 35/37/1
f 38/40/1 36/38/1 37/39/1
f 39/41/1 36/38/1 38/40/1
f 40/42/1 36/38/1 39/41/1
f 40/42/1 41/43/1 36/38/1
f 42/44/2 43/45/2 44/46/2
f 45/47/2 43/45/2 42/44/2
f 46/48/2 43/45/2 45/47/2
f 47/49/2 43/45/2 46/48/2
f 47/49/2 48/50/2 43/45/2
f 49/51/2 48/50/2 47/49/2
f 50/52/2 48/50/2 49/51/2
f 50/52/2 51/53/2 48/50/2
f 52/54/2 51/53/2 50/52/2
f 52/54/2 53/55/2 51/53/2
f 54/56/2 53/55/2 52/54/2
f 54/56/2 55/57/2 53/55/2
f 54/56/2 56/58/2 55/57/2
f 57/59/2 56/58/2 54/56/2
f 57/59/2 58/60/2 56/58/2
f 109/61/2 58/60/2 57/59/2
f 109/61/2 111/62/2 58/60/2
f 109/61/2 110/63/2 111/62/2
f 59/64/2 110/63/2 109/61/2
f 60/65/2 110/63/2 59/64/2
f 61/66/2 110/63/2 60/65/2
f 62/67/2 110/63/2 61/66/2
f 63/68/2 110/63/2 62/67/2
f 63/68/2 64/69/2 110/63/2
f 65/70/2 64/69/2 63/68/2
f 66/71/2 64/69/2 65/70/2
f 66/71/2 67/72/2 64/69/2
f 68/73/2 67/72/2 66/71/2
f 68/73/2 69/74/2 67/72/2
f 70/75/2 69/74/2 68/73/2
f 70/75/2 71/76/2 69/74/2
f 72/77/2 71/76/2 70/75/2
f 72/77/2 73/78/2 71/76/2
f 74/79/2 73/78/2 72/77/2
f 74/79/2 75/80/2 73/78/2
f 76/81/2 75/80/2 74/79/2
f 76/81/2 77/82/2 75/80/2
f 76/81/2 78/83/2 77/82/2
f 76/81/2 79/84/2 78/83/2
f 76/81/2 80/85/2 79/84/2
f 81/86/2 80/85/2 76/81/2
s 1
f 82/87/3 83/88/4 84/89/5
f 85/90/6 86/91/7 82/87/3
f 87/92/8 88/93/9 85/90/6
f 89/94/10 90/95/11 91/96/12
f 92/97/13 93/98/14 89/94/10
f 36/99/15 94/100/16 92/97/13
f 95/101/17 96/102/18 36/103/15
f 97/104/19 98/105/20 99/106/21
f 100/107/22 101/108/23 97/104/19
f 18/109/24 102/110/25 100/107/22
f 103/111/26 104/112/27 17/113/28
f 105/114/29 104/112/27 103/111/26
f 106/115/30 43/116/31 105/114/29
f 107/117/32 108/118/33 84/119/5 83/120/4
f 43/116/31 106/115/30 108/118/33 107/117/32
f 88/93/9 87/92/8 91/96/12 90/95/11
f 82/87/3 86/91/7 83/88/4
f 85/90/6 109/121/34 86/91/7
f 85/90/6 88/93/9 109/121/34
f 96/102/18 95/101/17 99/106/21 98/105/20
f 89/94/10 93/98/14 90/95/11
f 92/97/13 94/100/16 93/98/14
f 36/99/15 76/122/35 94/100/16
f 36/103/15 96/102/18 76/123/35
f 110/124/36 18/109/24 17/125/28 111/126/37
f 97/104/19 101/108/23 98/105/20
f 100/107/22 102/110/25 101/108/23
f 18/109/24 110/124/36 102/110/25
f 17/113/28 104/112/27 111/127/37
f 105/114/29 112/128/38 104/112/27
f 105/114/29 43/116/31 112/128/38
