# Blender v2.78 (sub 0) OBJ File: ''
# www.blender.org
mtllib Konusma_balonu_7.mtl
o Curve_Curve.2024
v -0.020009 0.015000 -0.136064
v 0.017171 0.015000 -0.136202
v -0.002960 0.015000 -0.136632
v -0.035447 0.015000 -0.133896
v 0.031541 0.015000 -0.134411
v 0.047230 0.015000 -0.131159
v -0.051390 0.015000 -0.130234
v 0.062780 0.015000 -0.126676
v -0.066724 0.015000 -0.125284
v 0.076212 0.015000 -0.121433
v -0.081262 0.015000 -0.119125
v 0.092045 0.015000 -0.113233
v -0.098190 0.015000 -0.109830
v 0.106367 0.015000 -0.104000
v -0.112634 0.015000 -0.099110
v 0.114146 0.015000 -0.097602
v -0.122278 0.015000 -0.089741
v 0.122326 0.015000 -0.089521
v -0.130330 0.015000 -0.080729
v 0.129703 0.015000 -0.081268
v 0.137271 0.015000 -0.070265
v -0.138970 0.015000 -0.067491
v -0.144679 0.015000 -0.055099
v 0.143700 0.015000 -0.057244
v -0.148367 0.015000 -0.042459
v 0.147908 0.015000 -0.043784
v -0.150068 0.015000 -0.029700
v 0.149868 0.015000 -0.030040
v -0.149813 0.015000 -0.016948
v 0.149551 0.015000 -0.016186
v -0.147634 0.015000 -0.004332
v 0.147064 0.015000 -0.002930
v -0.143563 0.015000 0.008018
v 0.141856 0.015000 0.011656
v -0.137632 0.015000 0.019973
v 0.132465 0.015000 0.027746
v -0.129874 0.015000 0.031408
v -0.120321 0.015000 0.042192
v 0.120300 0.015000 0.042119
v -0.109004 0.015000 0.052196
v 0.107413 0.015000 0.064475
v -0.091838 0.015000 0.063905
v -0.069710 0.015000 0.074427
v 0.071533 0.015000 0.073600
v 0.071830 0.015000 0.073707
v 0.101627 0.015000 0.080793
v 0.052668 0.015000 0.079899
v 0.068968 0.015000 0.079961
v -0.046501 0.015000 0.081685
v 0.027919 0.015000 0.085176
v 0.062860 0.015000 0.088931
v -0.022115 0.015000 0.085951
v 0.002880 0.015000 0.087140
v 0.095804 0.015000 0.091284
v 0.089097 0.015000 0.100364
v 0.051001 0.015000 0.102632
v 0.079836 0.015000 0.109057
v 0.031260 0.015000 0.123039
v 0.067862 0.015000 0.117408
v 0.054075 0.015000 0.125044
v 0.023681 0.015000 0.131453
v 0.035571 0.015000 0.133316
v 0.023709 0.015000 0.133908
v 0.025644 0.015000 0.135714
v 0.027443 0.015000 0.135917
v 0.017171 0.000000 -0.136202
v -0.020009 0.000000 -0.136064
v -0.002960 0.000000 -0.136632
v -0.035447 0.000000 -0.133896
v 0.031541 0.000000 -0.134411
v 0.047230 0.000000 -0.131159
v -0.051390 0.000000 -0.130234
v 0.062780 0.000000 -0.126676
v -0.066724 0.000000 -0.125284
v 0.076212 0.000000 -0.121433
v -0.081262 0.000000 -0.119125
v 0.092045 0.000000 -0.113233
v -0.098190 0.000000 -0.109830
v 0.106367 0.000000 -0.104000
v -0.112634 0.000000 -0.099110
v 0.114146 0.000000 -0.097602
v -0.122278 0.000000 -0.089742
v 0.122326 0.000000 -0.089521
v -0.130330 0.000000 -0.080729
v 0.129703 0.000000 -0.081268
v 0.137271 0.000000 -0.070265
v -0.138970 0.000000 -0.067491
v -0.144679 0.000000 -0.055099
v 0.143700 0.000000 -0.057244
v -0.148367 0.000000 -0.042459
v 0.147908 0.000000 -0.043784
v -0.150068 0.000000 -0.029700
v 0.149868 0.000000 -0.030040
v -0.149813 0.000000 -0.016948
v 0.149551 0.000000 -0.016186
v -0.147634 0.000000 -0.004333
v 0.147064 0.000000 -0.002931
v -0.143563 -0.000000 0.008017
v 0.141856 -0.000000 0.011656
v -0.137632 -0.000000 0.019973
v 0.132465 -0.000000 0.027746
v -0.129874 -0.000000 0.031408
v -0.120321 -0.000000 0.042192
v 0.120300 -0.000000 0.042119
v -0.109004 -0.000000 0.052196
v 0.110033 -0.000000 0.051567
v 0.107413 -0.000000 0.064475
v -0.091838 -0.000000 0.063905
v -0.069710 -0.000000 0.074427
v 0.071533 -0.000000 0.073600
v 0.071830 -0.000000 0.073707
v 0.101627 -0.000000 0.080793
v 0.052668 -0.000000 0.079899
v 0.068968 -0.000000 0.079961
v -0.046501 -0.000000 0.081685
v 0.027919 -0.000000 0.085176
v 0.062860 -0.000000 0.088931
v -0.022115 -0.000000 0.085951
v 0.002880 -0.000000 0.087140
v 0.095804 -0.000000 0.091284
v 0.089097 -0.000000 0.100364
v 0.051001 -0.000000 0.102632
v 0.079836 -0.000000 0.109057
v 0.031260 -0.000000 0.123039
v 0.067862 -0.000000 0.117408
v 0.054075 -0.000000 0.125044
v 0.023681 -0.000000 0.131453
v 0.035571 -0.000000 0.133316
v 0.023709 -0.000000 0.133908
v 0.025644 -0.000000 0.135714
v 0.027443 -0.000000 0.135917
v 0.029578 0.000000 -0.135243
v 0.025128 0.015000 -0.136040
v 0.069693 0.015000 -0.124389
v 0.070646 0.000000 -0.124014
v 0.142122 0.015000 0.011067
v 0.144890 -0.000000 0.004674
v 0.150417 0.015000 -0.017472
v 0.127831 0.015000 0.034403
v 0.129694 -0.000000 0.032129
v 0.110033 0.015000 0.051567
v 0.105955 0.015000 0.071154
v 0.088534 0.015000 0.101754
v 0.100741 -0.000000 0.083811
v 0.052488 0.015000 0.126498
v 0.064446 -0.000000 0.119686
v 0.025347 0.015000 0.135951
v 0.026482 -0.000000 0.136632
v 0.023488 0.015000 0.131380
v 0.023391 -0.000000 0.131495
v 0.072003 0.015000 0.073661
v 0.064614 -0.000000 0.087398
v 0.058754 0.015000 0.094226
v 0.048155 0.015000 0.081562
v 0.071836 -0.000000 0.073552
v -0.127710 0.015000 -0.084094
v -0.131453 0.000000 -0.079866
v -0.145908 0.015000 -0.053537
v -0.108305 0.015000 -0.102871
v -0.101186 0.000000 -0.108915
v -0.075755 0.015000 -0.122158
v -0.028528 0.015000 -0.135521
v -0.058160 0.000000 -0.128411
v -0.020342 0.000000 -0.136356
v 0.108332 0.015000 -0.103367
v 0.108934 0.000000 -0.102875
v 0.133226 0.015000 -0.076975
v 0.133985 0.000000 -0.075970
v 0.146065 0.015000 -0.051514
v 0.146661 0.000000 -0.049599
v 0.150245 0.000000 -0.022109
v 0.084731 -0.000000 0.104990
v 0.040945 -0.000000 0.083310
v -0.007879 0.015000 0.087393
v -0.011442 -0.000000 0.087222
v -0.057069 0.015000 0.079214
v -0.060372 -0.000000 0.078176
v -0.104427 0.015000 0.056720
v -0.107539 -0.000000 0.054497
v -0.141226 0.015000 0.015749
v -0.142909 -0.000000 0.012310
v -0.150373 0.015000 -0.022223
v -0.150417 0.000000 -0.024497
v -0.146671 0.000000 -0.049927
vt 0.0917 0.1312
vt 0.0551 0.1861
vt 0.0741 0.1559
vt 0.1102 0.1104
vt 0.0440 0.2089
vt 0.0338 0.2351
vt 0.1316 0.0901
vt 0.0258 0.2621
vt 0.1545 0.0719
vt 0.0211 0.2867
vt 0.1785 0.0560
vt 0.0187 0.3175
vt 0.2099 0.0394
vt 0.0195 0.3470
vt 0.2412 0.0277
vt 0.0221 0.3643
vt 0.2655 0.0219
vt 0.0270 0.3837
vt 0.2878 0.0181
vt 0.0330 0.4021
vt 0.0432 0.4232
vt 0.3174 0.0173
vt 0.3428 0.0201
vt 0.0577 0.4445
vt 0.3666 0.0261
vt 0.0751 0.4629
vt 0.3886 0.0351
vt 0.0952 0.4782
vt 0.4087 0.0470
vt 0.1176 0.4902
vt 0.4267 0.0616
vt 0.1412 0.4985
vt 0.4425 0.0788
vt 0.1696 0.5040
vt 0.4558 0.0983
vt 0.2045 0.5047
vt 0.4665 0.1201
vt 0.4744 0.1440
vt 0.2393 0.4997
vt 0.4793 0.1698
vt 0.2644 0.4930
vt 0.2876 0.5008
vt 0.4813 0.2057
vt 0.4765 0.2480
vt 0.3372 0.4560
vt 0.3371 0.4566
vt 0.3193 0.5070
vt 0.3657 0.4338
vt 0.3499 0.4580
vt 0.4654 0.2888
vt 0.3983 0.4020
vt 0.3702 0.4571
vt 0.4484 0.3287
vt 0.4259 0.3668
vt 0.3418 0.5079
vt 0.3628 0.5062
vt 0.4037 0.4519
vt 0.3858 0.5004
vt 0.4555 0.4412
vt 0.4108 0.4902
vt 0.4365 0.4767
vt 0.4764 0.4376
vt 0.4678 0.4568
vt 0.4803 0.4398
vt 0.4813 0.4443
vt 0.4798 0.4472
vt 0.5551 0.3391
vt 0.5917 0.3940
vt 0.5741 0.3693
vt 0.6102 0.4149
vt 0.5440 0.3163
vt 0.5338 0.2902
vt 0.6316 0.4351
vt 0.5258 0.2631
vt 0.6545 0.4533
vt 0.5211 0.2385
vt 0.6785 0.4692
vt 0.5187 0.2077
vt 0.7099 0.4859
vt 0.5195 0.1782
vt 0.7412 0.4975
vt 0.5221 0.1609
vt 0.7655 0.5033
vt 0.5270 0.1415
vt 0.7878 0.5071
vt 0.5330 0.1231
vt 0.5432 0.1020
vt 0.8174 0.5079
vt 0.8428 0.5051
vt 0.5577 0.0807
vt 0.8666 0.4992
vt 0.5751 0.0623
vt 0.8886 0.4902
vt 0.5952 0.0470
vt 0.9087 0.4783
vt 0.6176 0.0350
vt 0.9267 0.4636
vt 0.6412 0.0267
vt 0.9425 0.4465
vt 0.6696 0.0212
vt 0.9558 0.4269
vt 0.7045 0.0205
vt 0.9665 0.4051
vt 0.9744 0.3812
vt 0.7393 0.0255
vt 0.9793 0.3554
vt 0.7644 0.0322
vt 0.7876 0.0244
vt 0.9813 0.3195
vt 0.9765 0.2773
vt 0.8372 0.0692
vt 0.8371 0.0687
vt 0.8193 0.0182
vt 0.8657 0.0914
vt 0.8499 0.0672
vt 0.9654 0.2364
vt 0.8983 0.1232
vt 0.8702 0.0682
vt 0.9484 0.1965
vt 0.9259 0.1585
vt 0.8418 0.0173
vt 0.8628 0.0190
vt 0.9037 0.0733
vt 0.8858 0.0249
vt 0.9555 0.0841
vt 0.9108 0.0350
vt 0.9365 0.0485
vt 0.9764 0.0877
vt 0.9678 0.0684
vt 0.9803 0.0854
vt 0.9813 0.0809
vt 0.9798 0.0781
vt 0.0187 0.7437
vt 0.0697 0.7359
vt 0.0697 0.8156
vt 0.0187 0.8174
vt 0.1960 0.7292
vt 0.2470 0.7412
vt 0.1960 0.7806
vt 0.1961 0.6828
vt 0.2470 0.6876
vt 0.1961 0.6445
vt 0.2471 0.6444
vt 0.1961 0.6101
vt 0.1961 0.5501
vt 0.2471 0.5864
vt 0.5126 0.6080
vt 0.4616 0.5865
vt 0.5126 0.5426
vt 0.5126 0.6561
vt 0.4616 0.6543
vt 0.3731 0.6595
vt 0.4241 0.6597
vt 0.3731 0.6664
vt 0.3731 0.5427
vt 0.4241 0.5688
vt 0.3731 0.5827
vt 0.1585 0.5848
vt 0.1076 0.5428
vt 0.1586 0.5426
vt 0.2846 0.6276
vt 0.3356 0.6362
vt 0.2846 0.6864
vt 0.2847 0.5881
vt 0.3357 0.5751
vt 0.2847 0.5426
vt 0.0698 0.6479
vt 0.0188 0.6029
vt 0.0698 0.5773
vt 0.0188 0.6609
vt 0.0697 0.8906
vt 0.0187 0.8918
vt 0.0698 0.9458
vt 0.0188 0.9476
vt 0.0698 0.9807
vt 0.0188 0.9827
vt 0.2472 0.8309
vt 0.1962 0.8337
vt 0.2471 0.7881
vt 0.2472 0.5426
vt 0.4616 0.5496
vt 0.4241 0.6671
vt 0.1074 0.5974
vt 0.1583 0.6823
vt 0.1073 0.6884
vt 0.4241 0.5426
vt 0.1583 0.7663
vt 0.1073 0.7718
vt 0.1583 0.8453
vt 0.1074 0.8503
vt 0.1586 0.9036
vt 0.1076 0.9061
vt 0.3357 0.7962
vt 0.2847 0.8013
vt 0.2846 0.7410
vt 0.3356 0.7371
vt 0.3356 0.6928
vt 0.0189 0.5426
vn 0.0000 1.0000 -0.0000
vn 0.0000 -1.0000 -0.0000
vn 0.1632 -0.0139 -0.9865
vn 0.1160 -0.0142 -0.9931
vn 0.3672 0.0044 -0.9301
vn 0.3769 0.0040 -0.9263
vn 0.9078 0.0051 0.4193
vn 0.9402 -0.0033 0.3407
vn 0.9967 -0.0082 0.0811
vn 0.7730 0.0038 0.6345
vn 0.7974 -0.0066 0.6034
vn 0.8755 0.0000 0.4833
vn 0.8687 -0.0251 0.4947
vn 0.9465 -0.0224 0.3221
vn 0.7356 0.0110 0.6774
vn 0.8869 0.0216 0.4614
vn 0.4390 -0.0209 0.8983
vn 0.5287 0.0252 0.8484
vn -0.4295 0.0418 0.9021
vn -0.2947 -0.0123 0.9555
vn -0.9824 0.0133 -0.1863
vn -0.9928 -0.0112 -0.1190
vn -0.7789 -0.0614 0.6241
vn -0.8193 -0.0273 -0.5727
vn -0.7678 -0.0179 -0.6404
vn 0.2296 -0.0106 0.9732
vn -0.7583 -0.0069 0.6519
vn -0.7637 0.0072 -0.6455
vn -0.8073 0.0115 -0.5900
vn -0.9422 -0.0083 -0.3350
vn -0.6391 0.0066 -0.7691
vn -0.5590 0.0267 -0.8288
vn -0.3983 -0.0319 -0.9167
vn -0.1493 -0.0005 -0.9888
vn -0.2936 0.0211 -0.9557
vn -0.0736 0.0037 -0.9973
vn 0.6087 -0.0007 -0.7934
vn 0.6169 -0.0007 -0.7870
vn 0.8179 -0.0017 -0.5754
vn 0.8268 -0.0018 -0.5625
vn 0.9533 0.0105 -0.3019
vn 0.9613 0.0129 -0.2754
vn 0.9999 -0.0141 0.0036
vn 0.6779 -0.0133 0.7350
vn 0.1655 0.0011 0.9862
vn -0.0226 0.0116 0.9997
vn -0.0616 0.0086 0.9981
vn -0.2897 -0.0017 0.9571
vn -0.3281 -0.0023 0.9446
vn -0.5839 -0.0035 0.8118
vn -0.6341 -0.0034 0.7732
vn -0.8747 0.0047 0.4847
vn -0.9098 0.0075 0.4150
vn -0.9983 0.0175 0.0550
vn -0.9996 0.0181 0.0204
vn -0.9604 -0.0156 -0.2783
usemtl None
s off
f 1/1/1 2/2/1 3/3/1
f 4/4/1 2/2/1 1/1/1
f 4/4/1 5/5/1 2/2/1
f 4/4/1 6/6/1 5/5/1
f 7/7/1 6/6/1 4/4/1
f 7/7/1 8/8/1 6/6/1
f 9/9/1 8/8/1 7/7/1
f 9/9/1 10/10/1 8/8/1
f 11/11/1 10/10/1 9/9/1
f 11/11/1 12/12/1 10/10/1
f 13/13/1 12/12/1 11/11/1
f 13/13/1 14/14/1 12/12/1
f 15/15/1 14/14/1 13/13/1
f 15/15/1 16/16/1 14/14/1
f 17/17/1 16/16/1 15/15/1
f 17/17/1 18/18/1 16/16/1
f 19/19/1 18/18/1 17/17/1
f 19/19/1 20/20/1 18/18/1
f 19/19/1 21/21/1 20/20/1
f 22/22/1 21/21/1 19/19/1
f 23/23/1 21/21/1 22/22/1
f 23/23/1 24/24/1 21/21/1
f 25/25/1 24/24/1 23/23/1
f 25/25/1 26/26/1 24/24/1
f 27/27/1 26/26/1 25/25/1
f 27/27/1 28/28/1 26/26/1
f 29/29/1 28/28/1 27/27/1
f 29/29/1 30/30/1 28/28/1
f 31/31/1 30/30/1 29/29/1
f 31/31/1 32/32/1 30/30/1
f 33/33/1 32/32/1 31/31/1
f 33/33/1 34/34/1 32/32/1
f 35/35/1 34/34/1 33/33/1
f 35/35/1 36/36/1 34/34/1
f 37/37/1 36/36/1 35/35/1
f 38/38/1 36/36/1 37/37/1
f 38/38/1 39/39/1 36/36/1
f 40/40/1 39/39/1 38/38/1
f 40/40/1 141/41/1 39/39/1
f 40/40/1 41/42/1 141/41/1
f 42/43/1 41/42/1 40/40/1
f 43/44/1 41/42/1 42/43/1
f 43/44/1 44/45/1 41/42/1
f 44/45/1 45/46/1 41/42/1
f 45/46/1 46/47/1 41/42/1
f 43/44/1 47/48/1 44/45/1
f 48/49/1 46/47/1 45/46/1
f 49/50/1 47/48/1 43/44/1
f 49/50/1 50/51/1 47/48/1
f 51/52/1 46/47/1 48/49/1
f 52/53/1 50/51/1 49/50/1
f 52/53/1 53/54/1 50/51/1
f 51/52/1 54/55/1 46/47/1
f 51/52/1 55/56/1 54/55/1
f 56/57/1 55/56/1 51/52/1
f 56/57/1 57/58/1 55/56/1
f 58/59/1 57/58/1 56/57/1
f 58/59/1 59/60/1 57/58/1
f 58/59/1 60/61/1 59/60/1
f 61/62/1 60/61/1 58/59/1
f 61/62/1 62/63/1 60/61/1
f 63/64/1 62/63/1 61/62/1
f 64/65/1 62/63/1 63/64/1
f 64/65/1 65/66/1 62/63/1
f 66/67/2 67/68/2 68/69/2
f 66/67/2 69/70/2 67/68/2
f 70/71/2 69/70/2 66/67/2
f 71/72/2 69/70/2 70/71/2
f 71/72/2 72/73/2 69/70/2
f 73/74/2 72/73/2 71/72/2
f 73/74/2 74/75/2 72/73/2
f 75/76/2 74/75/2 73/74/2
f 75/76/2 76/77/2 74/75/2
f 77/78/2 76/77/2 75/76/2
f 77/78/2 78/79/2 76/77/2
f 79/80/2 78/79/2 77/78/2
f 79/80/2 80/81/2 78/79/2
f 81/82/2 80/81/2 79/80/2
f 81/82/2 82/83/2 80/81/2
f 83/84/2 82/83/2 81/82/2
f 83/84/2 84/85/2 82/83/2
f 85/86/2 84/85/2 83/84/2
f 86/87/2 84/85/2 85/86/2
f 86/87/2 87/88/2 84/85/2
f 86/87/2 88/89/2 87/88/2
f 89/90/2 88/89/2 86/87/2
f 89/90/2 90/91/2 88/89/2
f 91/92/2 90/91/2 89/90/2
f 91/92/2 92/93/2 90/91/2
f 93/94/2 92/93/2 91/92/2
f 93/94/2 94/95/2 92/93/2
f 95/96/2 94/95/2 93/94/2
f 95/96/2 96/97/2 94/95/2
f 97/98/2 96/97/2 95/96/2
f 97/98/2 98/99/2 96/97/2
f 99/100/2 98/99/2 97/98/2
f 99/100/2 100/101/2 98/99/2
f 101/102/2 100/101/2 99/100/2
f 101/102/2 102/103/2 100/101/2
f 101/102/2 103/104/2 102/103/2
f 104/105/2 103/104/2 101/102/2
f 104/105/2 105/106/2 103/104/2
f 106/107/2 105/106/2 104/105/2
f 107/108/2 105/106/2 106/107/2
f 107/108/2 108/109/2 105/106/2
f 107/108/2 109/110/2 108/109/2
f 110/111/2 109/110/2 107/108/2
f 111/112/2 110/111/2 107/108/2
f 112/113/2 111/112/2 107/108/2
f 113/114/2 109/110/2 110/111/2
f 112/113/2 114/115/2 111/112/2
f 113/114/2 115/116/2 109/110/2
f 116/117/2 115/116/2 113/114/2
f 112/113/2 117/118/2 114/115/2
f 116/117/2 118/119/2 115/116/2
f 119/120/2 118/119/2 116/117/2
f 120/121/2 117/118/2 112/113/2
f 121/122/2 117/118/2 120/121/2
f 121/122/2 122/123/2 117/118/2
f 123/124/2 122/123/2 121/122/2
f 123/124/2 124/125/2 122/123/2
f 125/126/2 124/125/2 123/124/2
f 126/127/2 124/125/2 125/126/2
f 126/127/2 127/128/2 124/125/2
f 128/129/2 127/128/2 126/127/2
f 128/129/2 129/130/2 127/128/2
f 128/129/2 130/131/2 129/130/2
f 131/132/2 130/131/2 128/129/2
s 1
f 132/133/3 133/134/4 134/135/5 135/136/6
f 136/137/7 137/138/8 138/139/9
f 139/140/10 140/141/11 136/137/7
f 141/142/12 106/143/13 139/140/10
f 142/144/14 106/143/13 141/142/12
f 143/145/15 144/146/16 142/144/14
f 145/147/17 146/148/18 143/149/15
f 147/150/19 148/151/20 145/147/17
f 149/152/21 150/153/22 147/154/19
f 151/155/23 152/156/24 153/157/25
f 154/158/26 155/159/27 151/160/23
f 156/161/28 157/162/29 158/163/30
f 159/164/31 160/165/32 156/161/28
f 161/166/33 160/165/32 159/164/31
f 162/167/34 163/168/35 161/169/33
f 133/134/4 164/170/36 162/167/34
f 135/136/6 134/135/5 165/171/37 166/172/38
f 166/172/38 165/171/37 167/173/39 168/174/40
f 168/174/40 167/173/39 169/175/41 170/176/42
f 170/177/42 169/178/41 138/139/9 171/179/43
f 150/153/22 149/152/21 153/157/25 152/156/24
f 138/139/9 137/138/8 171/179/43
f 136/137/7 140/141/11 137/138/8
f 139/140/10 106/143/13 140/141/11
f 142/144/14 144/146/16 106/143/13
f 143/145/15 172/180/44 144/146/16
f 143/149/15 146/148/18 172/181/44
f 145/147/17 148/151/20 146/148/18
f 147/154/19 150/153/22 148/182/20
f 173/183/45 154/158/26 174/184/46 175/185/47
f 151/155/23 155/186/27 152/156/24
f 154/158/26 173/183/45 155/159/27
f 175/185/47 174/184/46 176/187/48 177/188/49
f 177/188/49 176/187/48 178/189/50 179/190/51
f 179/190/51 178/189/50 180/191/52 181/192/53
f 181/193/53 180/194/52 182/195/54 183/196/55
f 183/196/55 182/195/54 158/163/30 184/197/56
f 158/163/30 157/162/29 184/197/56
f 156/161/28 160/165/32 157/162/29
f 161/169/33 163/168/35 160/198/32
f 162/167/34 164/170/36 163/168/35
f 133/134/4 132/133/3 164/170/36
