# Blender v2.78 (sub 0) OBJ File: ''
# www.blender.org
mtllib Mum_2D_2.mtl
o Curve_Curve.2029
v -0.005028 0.015000 -0.145096
v -0.000187 0.015000 -0.149168
v -0.001320 0.015000 -0.149758
v 0.002869 0.015000 -0.145288
v 0.009125 0.015000 -0.135791
v -0.012777 0.015000 -0.132557
v 0.018216 0.015000 -0.120027
v -0.018965 0.015000 -0.120568
v -0.023393 0.015000 -0.109532
v 0.023765 0.015000 -0.108452
v -0.026069 0.015000 -0.099434
v 0.025324 0.015000 -0.104015
v 0.026243 0.015000 -0.099101
v -0.027002 0.015000 -0.090276
v 0.026369 0.015000 -0.086542
v -0.026121 0.015000 -0.081538
v 0.025884 0.015000 -0.080747
v -0.024711 0.015000 -0.077796
v 0.024534 0.015000 -0.076932
v -0.021926 0.015000 -0.073600
v 0.021105 0.015000 -0.071744
v -0.018186 0.015000 -0.069210
v 0.014618 0.015000 -0.065575
v -0.014057 0.015000 -0.065211
v -0.010130 0.015000 -0.062214
v 0.009814 0.015000 -0.062359
v 0.007028 0.015000 -0.061105
v -0.007497 0.015000 -0.060978
v 0.004663 0.015000 -0.060742
v -0.005499 0.015000 -0.060780
v -0.004162 0.015000 -0.060205
v 0.003677 0.015000 -0.059816
v -0.003499 0.015000 -0.059243
v 0.003472 0.015000 -0.058564
v -0.003534 0.015000 -0.058287
v -0.004114 0.015000 -0.057422
v 0.004847 0.015000 -0.057500
v 0.007869 0.015000 -0.056696
v -0.006146 0.015000 -0.056790
v -0.010027 0.015000 -0.056604
v 0.013079 0.015000 -0.055980
v -0.015314 0.015000 -0.055493
v 0.019190 0.015000 -0.054504
v -0.021779 0.015000 -0.053597
v 0.025163 0.015000 -0.052537
v -0.029892 0.015000 -0.050515
v 0.035425 0.015000 -0.047955
v 0.035425 0.015000 0.134684
v -0.027267 0.015000 0.141748
v 0.025923 0.015000 0.142921
v -0.022907 0.015000 0.144871
v 0.019705 0.015000 0.146538
v -0.017470 0.015000 0.147488
v 0.015151 0.015000 0.148288
v -0.012711 0.015000 0.148950
v 0.010174 0.015000 0.149469
v -0.007481 0.015000 0.149857
v 0.004686 0.015000 0.150109
v -0.001636 0.015000 0.150239
v -0.000187 0.000000 -0.149168
v -0.005028 0.000000 -0.145096
v -0.001320 0.000000 -0.149758
v 0.002869 0.000000 -0.145288
v 0.009125 0.000000 -0.135791
v -0.012777 0.000000 -0.132557
v 0.018216 0.000000 -0.120027
v -0.018965 0.000000 -0.120568
v -0.023393 0.000000 -0.109532
v 0.023765 0.000000 -0.108452
v -0.026069 0.000000 -0.099434
v 0.025324 0.000000 -0.104015
v 0.026243 0.000000 -0.099101
v -0.027002 0.000000 -0.090276
v 0.026369 0.000000 -0.086542
v -0.026121 0.000000 -0.081538
v 0.025884 0.000000 -0.080747
v -0.024711 0.000000 -0.077796
v 0.024534 0.000000 -0.076932
v -0.021926 0.000000 -0.073600
v 0.021105 0.000000 -0.071744
v -0.018186 0.000000 -0.069210
v 0.014618 0.000000 -0.065575
v -0.014057 0.000000 -0.065211
v -0.010130 0.000000 -0.062214
v 0.009814 0.000000 -0.062359
v 0.007028 0.000000 -0.061105
v -0.007497 0.000000 -0.060978
v 0.004663 0.000000 -0.060742
v -0.005499 0.000000 -0.060780
v -0.004162 0.000000 -0.060205
v 0.003677 0.000000 -0.059816
v -0.003499 0.000000 -0.059243
v 0.003472 0.000000 -0.058564
v -0.003534 0.000000 -0.058287
v -0.004114 0.000000 -0.057422
v 0.004847 0.000000 -0.057500
v 0.007869 0.000000 -0.056696
v -0.006146 0.000000 -0.056790
v -0.010027 0.000000 -0.056604
v 0.013079 0.000000 -0.055980
v -0.019283 0.000000 -0.054447
v 0.019190 0.000000 -0.054504
v 0.025163 0.000000 -0.052537
v -0.029892 0.000000 -0.050515
v 0.035425 0.000000 -0.047955
v -0.027267 -0.000000 0.141748
v 0.025923 -0.000000 0.142921
v -0.022907 -0.000000 0.144871
v 0.019705 -0.000000 0.146538
v -0.017470 -0.000000 0.147488
v 0.015151 -0.000000 0.148288
v -0.012711 -0.000000 0.148950
v 0.010174 -0.000000 0.149469
v -0.007481 -0.000000 0.149857
v 0.004686 -0.000000 0.150109
v -0.001636 -0.000000 0.150239
v -0.001132 0.000000 -0.150239
v -0.001182 0.015000 -0.150215
v 0.014170 0.015000 -0.127645
v 0.014941 0.000000 -0.126293
v 0.026210 0.015000 -0.081244
v 0.025919 0.000000 -0.103012
v 0.025705 0.015000 -0.103692
v 0.010542 0.015000 -0.062424
v 0.020371 0.000000 -0.070524
v 0.022033 0.015000 -0.072804
v 0.003205 0.015000 -0.058396
v 0.004113 0.000000 -0.060532
v 0.015146 0.015000 -0.055592
v 0.003812 0.000000 -0.057706
v 0.035209 0.015000 -0.048664
v 0.022917 0.000000 -0.053417
v 0.025237 0.015000 0.143493
v 0.025836 -0.000000 0.142997
v 0.011373 0.015000 0.149628
v 0.012988 -0.000000 0.149281
v -0.007336 0.015000 0.149944
v -0.011372 -0.000000 0.149628
v -0.021333 0.015000 0.146161
v -0.013941 0.015000 -0.056106
v -0.014184 0.000000 -0.056105
v -0.035390 0.015000 -0.048009
v -0.020965 0.015000 -0.071707
v -0.010771 0.000000 -0.062026
v -0.008279 0.015000 -0.061114
v -0.026904 0.015000 -0.084539
v -0.024873 0.000000 -0.077713
v 0.026091 0.000000 -0.080730
v 0.008305 0.000000 -0.061456
v 0.035425 -0.000000 0.134684
v -0.024712 -0.000000 0.143806
v -0.035425 0.015000 0.134684
v -0.035425 -0.000000 0.134684
v -0.035397 0.000000 -0.047989
v -0.004608 0.015000 -0.057038
v -0.004487 0.000000 -0.057087
v -0.003523 0.015000 -0.059991
v -0.003593 0.000000 -0.060076
v -0.027065 0.000000 -0.088532
v -0.025417 0.015000 -0.103254
v -0.025050 0.000000 -0.104667
v -0.016916 0.015000 -0.125130
v -0.016057 0.000000 -0.126806
vt 0.1274 0.0364
vt 0.1152 0.0263
vt 0.1181 0.0248
vt 0.1075 0.0359
vt 0.0917 0.0595
vt 0.1470 0.0675
vt 0.0687 0.0986
vt 0.1626 0.0972
vt 0.1738 0.1246
vt 0.0547 0.1273
vt 0.1806 0.1497
vt 0.0508 0.1383
vt 0.0485 0.1505
vt 0.1829 0.1724
vt 0.0481 0.1817
vt 0.1807 0.1941
vt 0.0494 0.1960
vt 0.1772 0.2034
vt 0.0528 0.2055
vt 0.1701 0.2138
vt 0.0614 0.2184
vt 0.1607 0.2247
vt 0.0778 0.2337
vt 0.1502 0.2346
vt 0.1403 0.2420
vt 0.0900 0.2417
vt 0.0970 0.2448
vt 0.1337 0.2451
vt 0.1030 0.2457
vt 0.1286 0.2456
vt 0.1253 0.2470
vt 0.1055 0.2480
vt 0.1236 0.2494
vt 0.1060 0.2511
vt 0.1237 0.2518
vt 0.1251 0.2539
vt 0.1025 0.2537
vt 0.0949 0.2557
vt 0.1303 0.2555
vt 0.1401 0.2560
vt 0.0817 0.2575
vt 0.1534 0.2587
vt 0.0663 0.2612
vt 0.1698 0.2634
vt 0.0512 0.2660
vt 0.1902 0.2711
vt 0.0253 0.2774
vt 0.2042 0.2774
vt 0.2042 0.7306
vt 0.0253 0.7306
vt 0.1836 0.7481
vt 0.0493 0.7510
vt 0.1726 0.7559
vt 0.0650 0.7600
vt 0.1589 0.7624
vt 0.0765 0.7644
vt 0.1469 0.7660
vt 0.0890 0.7673
vt 0.1336 0.7682
vt 0.1029 0.7689
vt 0.1189 0.7692
vt 0.3438 0.0263
vt 0.3315 0.0364
vt 0.3409 0.0248
vt 0.3515 0.0359
vt 0.3673 0.0595
vt 0.3119 0.0675
vt 0.3902 0.0986
vt 0.2963 0.0972
vt 0.2851 0.1246
vt 0.4043 0.1273
vt 0.2784 0.1497
vt 0.4082 0.1383
vt 0.4105 0.1505
vt 0.2760 0.1724
vt 0.4108 0.1817
vt 0.2782 0.1941
vt 0.4096 0.1960
vt 0.2818 0.2034
vt 0.4062 0.2055
vt 0.2888 0.2138
vt 0.3975 0.2184
vt 0.2983 0.2247
vt 0.3812 0.2337
vt 0.3087 0.2346
vt 0.3186 0.2420
vt 0.3690 0.2417
vt 0.3620 0.2448
vt 0.3253 0.2451
vt 0.3560 0.2457
vt 0.3303 0.2456
vt 0.3337 0.2470
vt 0.3535 0.2480
vt 0.3354 0.2494
vt 0.3530 0.2511
vt 0.3353 0.2518
vt 0.3338 0.2539
vt 0.3565 0.2537
vt 0.3641 0.2557
vt 0.3287 0.2555
vt 0.3189 0.2560
vt 0.3773 0.2575
vt 0.2955 0.2613
vt 0.3927 0.2612
vt 0.4078 0.2660
vt 0.2687 0.2711
vt 0.4337 0.2774
vt 0.2547 0.2774
vt 0.2547 0.7306
vt 0.4337 0.7306
vt 0.2753 0.7481
vt 0.4097 0.7510
vt 0.2864 0.7559
vt 0.3940 0.7600
vt 0.3001 0.7624
vt 0.3825 0.7644
vt 0.3121 0.7660
vt 0.3699 0.7673
vt 0.3253 0.7682
vt 0.3561 0.7689
vt 0.3401 0.7692
vt 0.6940 0.5272
vt 0.8531 0.5272
vt 0.8531 0.5793
vt 0.6939 0.5825
vt 0.8531 0.6909
vt 0.6939 0.6373
vt 0.8531 0.6356
vt 0.9333 0.2310
vt 0.9065 0.3871
vt 0.9036 0.2308
vt 0.0262 0.9752
vt 0.0324 0.8189
vt 0.0324 0.9752
vt 0.5152 0.7972
vt 0.4852 0.9533
vt 0.4842 0.7970
vt 0.5685 0.7975
vt 0.5346 0.9536
vt 0.8531 0.7944
vt 0.6940 0.7929
vt 0.8531 0.7685
vt 0.8531 0.8292
vt 0.6940 0.8252
vt 0.8531 0.8756
vt 0.6940 0.8856
vt 0.8531 0.9101
vt 0.9522 0.0248
vt 0.9514 0.1811
vt 0.9038 0.0248
vt 0.9468 0.5272
vt 0.9218 0.6835
vt 0.9156 0.5272
vt 0.6434 0.5786
vt 0.4843 0.5622
vt 0.6434 0.5484
vt 0.6940 0.6923
vt 0.8531 0.7128
vt 0.6940 0.7189
vt 0.9376 0.3874
vt 0.9482 0.2312
vt 0.9482 0.3875
vt 0.6434 0.4759
vt 0.4842 0.4776
vt 0.4842 0.0248
vt 0.6434 0.0248
vt 0.0253 0.8188
vt 0.5685 0.9538
vt 0.6940 0.9183
vt 0.8531 0.9442
vt 0.6939 0.9442
vt 0.6939 0.7685
vt 0.6939 0.0248
vt 0.8530 0.0248
vt 0.8530 0.4756
vt 0.6939 0.4756
vt 0.9747 0.0248
vt 0.9747 0.1812
vt 0.9036 0.1812
vt 0.6267 0.7970
vt 0.6267 0.9533
vt 0.6190 0.9533
vt 0.6190 0.7970
vt 0.9039 0.6835
vt 0.9036 0.5272
vt 0.4842 0.5883
vt 0.6434 0.6251
vt 0.4842 0.6287
vt 0.4843 0.5272
vt 0.6434 0.6813
vt 0.4842 0.6857
vt 0.6434 0.7473
vt 0.4843 0.7474
vn -0.0000 1.0000 -0.0000
vn -0.0000 1.0000 0.0005
vn -0.0005 1.0000 0.0001
vn -0.0000 -1.0000 -0.0000
vn -0.0135 0.0023 -0.9999
vn -0.0171 0.0023 -0.9999
vn 0.8656 -0.0009 -0.5007
vn 0.8705 -0.0007 -0.4921
vn 0.9732 -0.0045 0.2297
vn 0.9749 0.0030 -0.2226
vn 0.9713 0.0068 -0.2377
vn 0.4738 0.0070 0.8806
vn 0.7600 -0.0036 0.6499
vn 0.8011 0.0123 0.5984
vn 0.9248 -0.0421 -0.3780
vn 0.7487 0.0316 0.6622
vn 0.5845 -0.0044 0.8114
vn 0.2590 -0.0096 -0.9658
vn 0.7984 0.0082 -0.6020
vn 0.8152 0.0039 -0.5792
vn 0.3104 -0.0074 -0.9506
vn 0.5392 0.0035 0.8422
vn 0.5551 -0.0057 0.8318
vn 0.9096 0.0043 0.4154
vn 0.2006 -0.0019 0.9797
vn 0.2373 -0.0075 0.9714
vn -0.0999 0.0059 0.9950
vn -0.1913 -0.0128 0.9815
vn -0.4648 0.0052 0.8854
vn -0.2273 0.0038 -0.9738
vn -0.2306 0.0026 -0.9730
vn -0.8230 0.0010 -0.5680
vn -0.7885 0.0124 0.6149
vn -0.5101 -0.0070 0.8601
vn -0.4343 0.0207 0.9005
vn -0.9873 0.0204 0.1578
vn -0.8973 -0.0233 0.4408
vn 0.9700 -0.0088 0.2431
vn 0.4159 -0.0092 0.9094
vn 0.8454 -0.0175 -0.5338
vn 0.9100 0.0039 0.4146
vn -0.5448 -0.0157 0.8384
vn -0.9053 0.0065 0.4248
vn -0.8240 -0.0005 -0.5665
vn -0.6224 0.0011 -0.7827
vn -0.6269 0.0011 -0.7791
vn -0.8799 -0.0081 0.4750
vn -0.8766 -0.0077 0.4812
vn -0.9996 -0.0113 0.0251
vn -0.9735 0.0060 -0.2286
vn -0.9694 0.0053 -0.2453
vn -0.8945 0.0022 -0.4472
vn -0.8878 0.0025 -0.4603
usemtl None
s off
f 1/1/1 2/2/1 3/3/1
f 1/1/1 4/4/1 2/2/1
f 1/1/1 5/5/1 4/4/1
f 6/6/1 5/5/1 1/1/1
f 6/6/1 7/7/1 5/5/1
f 8/8/1 7/7/1 6/6/1
f 9/9/1 7/7/1 8/8/1
f 9/9/1 10/10/1 7/7/1
f 11/11/1 10/10/1 9/9/1
f 11/11/1 12/12/1 10/10/1
f 11/11/1 13/13/1 12/12/1
f 14/14/1 13/13/1 11/11/1
f 14/14/1 15/15/1 13/13/1
f 16/16/1 15/15/1 14/14/1
f 16/16/1 17/17/1 15/15/1
f 18/18/1 17/17/1 16/16/1
f 18/18/1 19/19/1 17/17/1
f 20/20/1 19/19/1 18/18/1
f 20/20/1 21/21/1 19/19/1
f 22/22/1 21/21/1 20/20/1
f 22/22/1 23/23/1 21/21/1
f 24/24/1 23/23/1 22/22/1
f 25/25/1 23/23/1 24/24/1
f 25/25/1 26/26/1 23/23/1
f 25/25/1 27/27/1 26/26/1
f 28/28/1 27/27/1 25/25/1
f 28/28/1 29/29/1 27/27/1
f 30/30/2 29/29/3 28/28/2
f 31/31/1 29/29/1 30/30/1
f 31/31/1 32/32/1 29/29/1
f 33/33/1 32/32/1 31/31/1
f 33/33/1 34/34/1 32/32/1
f 35/35/1 34/34/1 33/33/1
f 36/36/1 34/34/1 35/35/1
f 36/36/1 37/37/1 34/34/1
f 36/36/1 38/38/1 37/37/1
f 39/39/1 38/38/1 36/36/1
f 40/40/1 38/38/1 39/39/1
f 40/40/1 41/41/1 38/38/1
f 42/42/1 41/41/1 40/40/1
f 42/42/1 43/43/1 41/41/1
f 44/44/1 43/43/1 42/42/1
f 44/44/1 45/45/1 43/43/1
f 46/46/1 45/45/1 44/44/1
f 46/46/1 47/47/1 45/45/1
f 142/48/1 47/47/1 46/46/1
f 152/49/1 47/47/1 142/48/1
f 152/49/1 48/50/1 47/47/1
f 49/51/1 48/50/1 152/49/1
f 49/51/1 50/52/1 48/50/1
f 51/53/1 50/52/1 49/51/1
f 51/53/1 52/54/1 50/52/1
f 53/55/1 52/54/1 51/53/1
f 53/55/1 54/56/1 52/54/1
f 55/57/1 54/56/1 53/55/1
f 55/57/1 56/58/1 54/56/1
f 57/59/1 56/58/1 55/57/1
f 57/59/1 58/60/1 56/58/1
f 59/61/1 58/60/1 57/59/1
f 60/62/4 61/63/4 62/64/4
f 63/65/4 61/63/4 60/62/4
f 64/66/4 61/63/4 63/65/4
f 64/66/4 65/67/4 61/63/4
f 66/68/4 65/67/4 64/66/4
f 66/68/4 67/69/4 65/67/4
f 66/68/4 68/70/4 67/69/4
f 69/71/4 68/70/4 66/68/4
f 69/71/4 70/72/4 68/70/4
f 71/73/4 70/72/4 69/71/4
f 72/74/4 70/72/4 71/73/4
f 72/74/4 73/75/4 70/72/4
f 74/76/4 73/75/4 72/74/4
f 74/76/4 75/77/4 73/75/4
f 76/78/4 75/77/4 74/76/4
f 76/78/4 77/79/4 75/77/4
f 78/80/4 77/79/4 76/78/4
f 78/80/4 79/81/4 77/79/4
f 80/82/4 79/81/4 78/80/4
f 80/82/4 81/83/4 79/81/4
f 82/84/4 81/83/4 80/82/4
f 82/84/4 83/85/4 81/83/4
f 82/84/4 84/86/4 83/85/4
f 85/87/4 84/86/4 82/84/4
f 86/88/4 84/86/4 85/87/4
f 86/88/4 87/89/4 84/86/4
f 88/90/4 87/89/4 86/88/4
f 88/90/4 89/91/4 87/89/4
f 88/90/4 90/92/4 89/91/4
f 91/93/4 90/92/4 88/90/4
f 91/93/4 92/94/4 90/92/4
f 93/95/4 92/94/4 91/93/4
f 93/95/4 94/96/4 92/94/4
f 93/95/4 95/97/4 94/96/4
f 96/98/4 95/97/4 93/95/4
f 97/99/4 95/97/4 96/98/4
f 97/99/4 98/100/4 95/97/4
f 97/99/4 99/101/4 98/100/4
f 100/102/4 99/101/4 97/99/4
f 100/102/4 101/103/4 99/101/4
f 102/104/4 101/103/4 100/102/4
f 103/105/4 101/103/4 102/104/4
f 103/105/4 104/106/4 101/103/4
f 105/107/4 104/106/4 103/105/4
f 105/107/4 154/108/4 104/106/4
f 105/107/4 153/109/4 154/108/4
f 150/110/4 153/109/4 105/107/4
f 150/110/4 106/111/4 153/109/4
f 107/112/4 106/111/4 150/110/4
f 107/112/4 108/113/4 106/111/4
f 109/114/4 108/113/4 107/112/4
f 109/114/4 110/115/4 108/113/4
f 111/116/4 110/115/4 109/114/4
f 111/116/4 112/117/4 110/115/4
f 113/118/4 112/117/4 111/116/4
f 113/118/4 114/119/4 112/117/4
f 115/120/4 114/119/4 113/118/4
f 115/120/4 116/121/4 114/119/4
s 1
f 117/122/5 118/123/6 119/124/7 120/125/8
f 121/126/9 122/127/10 123/128/11
f 124/129/12 125/130/13 126/131/14
f 127/132/15 128/133/16 29/134/17
f 129/135/18 130/136/19 127/137/15
f 131/138/20 132/139/21 129/135/18
f 133/140/22 134/141/23 48/142/24
f 135/143/25 136/144/26 133/140/22
f 137/145/27 138/146/28 135/143/25
f 139/147/29 138/146/28 137/145/27
f 140/148/30 141/149/31 142/150/32
f 143/151/33 144/152/34 145/153/35
f 146/154/36 147/155/37 143/156/33
f 120/125/8 119/124/7 123/128/11 122/127/10
f 148/157/38 121/126/9 126/158/14 125/159/13
f 121/126/9 148/157/38 122/127/10
f 149/160/39 124/129/12 29/161/17 128/162/16
f 124/129/12 149/160/39 125/130/13
f 105/163/40 131/164/20 48/165/24 150/166/41
f 127/132/15 130/167/19 128/133/16
f 129/135/18 132/139/21 130/136/19
f 131/138/20 105/168/40 132/139/21
f 151/169/42 139/147/29 152/170/43 153/171/43
f 48/142/24 134/141/23 150/172/41
f 133/140/22 136/144/26 134/141/23
f 135/143/25 138/146/28 136/144/26
f 139/147/29 151/169/42 138/146/28
f 153/173/43 152/174/43 142/175/32 154/176/44
f 141/149/31 140/148/30 155/177/45 156/178/46
f 142/150/32 141/149/31 154/179/44
f 156/180/46 155/181/45 157/182/47 158/183/48
f 158/184/48 157/185/47 145/153/35 144/152/34
f 159/186/49 146/154/36 160/187/50 161/188/51
f 143/156/33 147/155/37 144/189/34
f 146/154/36 159/186/49 147/155/37
f 161/188/51 160/187/50 162/190/52 163/191/53
f 163/191/53 162/190/52 118/192/6 117/193/5
