# Blender v2.78 (sub 0) OBJ File: ''
# www.blender.org
mtllib Penguen_2.mtl
o Penguin_1:polygon1.002
v 0.042263 0.408926 -0.005826
v 0.000000 0.408926 -0.031594
v -0.042263 0.408926 -0.005826
v 0.000000 0.353943 0.079644
v 0.040950 0.353943 0.069632
v 0.000000 0.309833 0.069878
v -0.067744 0.001354 -0.037216
v -0.028681 0.001354 -0.037216
v -0.028681 0.026384 -0.032662
v -0.067087 0.353943 -0.011940
v -0.040950 0.353943 -0.042632
v -0.068852 0.026384 0.023388
v -0.028805 0.026384 0.023388
v 0.075991 0.001354 0.023388
v 0.022280 0.001354 0.023388
v 0.028681 0.001354 -0.037216
v 0.028681 0.026384 -0.032662
v 0.067087 0.353943 -0.011940
v 0.040950 0.353943 -0.042632
v 0.023060 0.408926 -0.026957
v -0.081243 0.001354 0.079725
v -0.078371 0.022486 0.069426
v -0.075991 0.001354 0.023388
v -0.018259 0.022486 0.069426
v 0.017192 0.001354 0.079725
v 0.028805 0.026384 0.023388
v 0.067744 0.001354 -0.037216
v 0.031964 0.408926 0.052317
v -0.031964 0.408926 0.052317
v 0.000000 0.408926 0.057938
v -0.017192 0.001354 0.079725
v -0.022280 0.001354 0.023388
v -0.067744 0.026384 -0.032662
v -0.074760 0.052070 -0.032662
v 0.081243 0.001354 0.079725
v 0.018259 0.022486 0.069426
v 0.078412 0.022486 0.069426
v -0.069713 0.309833 0.030980
v -0.067087 0.353943 0.033852
v -0.040950 0.353943 0.069632
v 0.000000 0.353943 -0.052644
v 0.000000 0.309833 -0.056583
v 0.045053 0.309833 -0.048787
v -0.031225 0.322471 0.058512
v 0.000000 0.364242 0.066596
v 0.031225 0.322471 0.058512
v -0.045710 0.408926 0.027697
v 0.036436 0.042468 -0.032662
v 0.067744 0.026384 -0.032662
v 0.068852 0.026384 0.023388
v 0.036436 0.042468 0.023388
v 0.069713 0.309833 0.030980
v 0.067087 0.353943 0.033852
v 0.045710 0.408926 0.027697
v 0.000000 0.417337 0.007058
v -0.023060 0.408926 -0.026957
v 0.000000 0.319147 0.118296
v 0.045053 0.309833 0.062082
v 0.000000 0.097779 0.079479
v -0.063559 0.143940 0.079397
v 0.000000 0.018916 -0.118296
v 0.000000 0.079397 -0.092240
v 0.000000 0.143940 -0.094579
v 0.063559 0.143940 -0.080710
v 0.054655 0.224569 -0.066676
v 0.080915 0.224569 0.036847
v 0.095153 0.143940 0.040088
v 0.063559 0.143940 0.079397
v -0.061999 0.099175 0.068441
v -0.045053 0.309833 0.062082
v 0.000000 0.224569 0.084978
v 0.000000 0.143940 0.093266
v -0.146279 0.136719 0.016248
v -0.129784 0.198390 0.039884
v -0.146279 0.125968 -0.031308
v -0.080587 0.285173 -0.013827
v 0.090681 0.100447 0.031882
v 0.074760 0.052070 0.023388
v 0.129784 0.198390 -0.030815
v 0.080915 0.224569 -0.035246
v 0.069713 0.309833 -0.010709
v 0.129784 0.198390 0.039884
v 0.080587 0.285173 0.029995
v -0.090681 0.095564 -0.038571
v -0.095153 0.143940 -0.038940
v -0.063559 0.143940 -0.080710
v -0.069713 0.309833 -0.010709
v -0.054655 0.224569 -0.066676
v -0.090681 0.100447 0.031882
v -0.074760 0.052070 0.023388
v 0.000000 0.041114 0.023388
v 0.095153 0.143940 -0.038940
v -0.080587 0.285173 0.029995
v -0.054655 0.224569 0.073038
v -0.080915 0.224569 0.036847
v 0.052480 0.043576 -0.065734
v 0.000000 0.032374 -0.032662
v 0.074760 0.052070 -0.032662
v 0.066349 0.086906 -0.076771
v 0.090681 0.095564 -0.038571
v -0.095153 0.143940 0.040088
v -0.080915 0.224569 -0.035246
v 0.000000 0.224569 -0.078617
v -0.052480 0.043576 -0.065734
v -0.036436 0.042468 -0.032662
v -0.036436 0.042468 0.023388
v 0.000000 0.060645 0.054818
v 0.061999 0.099175 0.068441
v 0.146279 0.136719 0.016248
v 0.146279 0.125968 -0.031308
v -0.129784 0.198390 -0.030815
v 0.080587 0.285173 -0.013827
v -0.045053 0.309833 -0.048787
v -0.066349 0.086906 -0.076771
v 0.054655 0.224569 0.073038
vt 0.3855 0.6533
vt 0.3855 0.6533
vt 0.3882 0.6668
vt 0.3882 0.6668
vt 0.3811 0.6798
vt 0.3805 0.6798
vt 0.3702 0.6815
vt 0.3764 0.6798
vt 0.3702 0.6798
vt 0.3702 0.6668
vt 0.3641 0.6798
vt 0.3594 0.6668
vt 0.3602 0.6798
vt 0.3523 0.6668
vt 0.3594 0.6798
vt 0.3523 0.6668
vt 0.1279 0.8112
vt 0.1049 0.7256
vt 0.1688 0.8112
vt 0.1549 0.7256
vt 0.2188 0.8112
vt 0.2188 0.7256
vt 0.2823 0.7256
vt 0.2188 0.6568
vt 0.2888 0.6568
vt 0.2579 0.8342
vt 0.2579 0.8512
vt 0.2835 0.8342
vt 0.2835 0.8512
vt 0.2835 0.8542
vt 0.2579 0.8512
vt 0.3552 0.6533
vt 0.3552 0.6533
vt 0.3611 0.6533
vt 0.3405 0.8298
vt 0.3891 0.8298
vt 0.3405 0.7889
vt 0.3891 0.7889
vt 0.3523 0.7471
vt 0.3891 0.7471
vt 0.2835 0.8304
vt 0.2835 0.8542
vt 0.2835 0.8342
vt 0.2835 0.8512
vt 0.2579 0.8512
vt 0.3797 0.6533
vt 0.3811 0.6668
vt 0.2032 0.8718
vt 0.2032 0.9198
vt 0.2582 0.8592
vt 0.2582 0.9310
vt 0.2832 0.9345
vt 0.2835 0.8280
vt 0.2620 0.8295
vt 0.2835 0.8304
vt 0.2579 0.8336
vt 0.3505 0.9283
vt 0.3505 0.8642
vt 0.2832 0.8580
vt 0.2835 0.8562
vt 0.2620 0.8559
vt 0.2579 0.8512
vt 0.2579 0.8336
vt 0.2579 0.8342
vt 0.3120 0.8112
vt 0.2685 0.8112
vt 0.3349 0.7256
vt 0.3617 0.6798
vt 0.3702 0.6798
vt 0.3788 0.6798
vt 0.3523 0.7056
vt 0.3891 0.7056
vt 0.3523 0.7471
vt 0.3891 0.7471
vt 0.3891 0.7889
vt 0.2835 0.8562
vt 0.2620 0.8559
vt 0.3891 0.7889
vt 0.3405 0.7889
vt 0.3891 0.7471
vt 0.3523 0.7471
vt 0.3523 0.7056
vt 0.3891 0.7056
vt 0.2835 0.8280
vt 0.2620 0.8295
vt 0.2032 0.8718
vt 0.2582 0.8592
vt 0.2032 0.9198
vt 0.2582 0.9310
vt 0.3505 0.9283
vt 0.2832 0.9345
vt 0.3505 0.8642
vt 0.2832 0.8580
vt 0.1005 0.6568
vt 0.1485 0.6568
vt 0.3702 0.6533
vt 0.1041 0.8283
vt 0.2208 0.8315
vt 0.1188 0.9033
vt 0.1041 0.8283
vt 0.3523 0.7471
vt 0.3405 0.7889
vt 0.3891 0.7471
vt 0.3891 0.7889
vt 0.3405 0.8298
vt 0.3405 0.7889
vt 0.3891 0.8298
vt 0.3394 0.6568
vt 0.6985 0.4310
vt 0.6675 0.4310
vt 0.6921 0.3411
vt 0.6539 0.3411
vt 0.6472 0.2559
vt 0.6296 0.2559
vt 0.6472 0.2070
vt 0.6472 0.2559
vt 0.6589 0.2083
vt 0.6888 0.2559
vt 0.6975 0.2100
vt 0.7723 0.2559
vt 0.7720 0.2047
vt 0.7414 0.3847
vt 0.7434 0.3917
vt 0.7484 0.3810
vt 0.7457 0.3907
vt 0.7434 0.3917
vt 0.7460 0.4010
vt 0.7437 0.4010
vt 0.7434 0.4137
vt 0.7417 0.4137
vt 0.7374 0.4273
vt 0.7367 0.4137
vt 0.7327 0.4273
vt 0.7683 0.3411
vt 0.6888 0.2559
vt 0.6589 0.2083
vt 0.6732 0.1677
vt 0.7064 0.1588
vt 0.6985 0.4310
vt 0.6921 0.3411
vt 0.6675 0.4310
vt 0.6539 0.3411
vt 0.6429 0.4310
vt 0.6356 0.3411
vt 0.8645 0.2573
vt 0.8395 0.3221
vt 0.9277 0.2456
vt 0.9144 0.3221
vt 0.9330 0.3498
vt 0.8961 0.4140
vt 0.8931 0.4399
vt 0.8489 0.4399
vt 0.7723 0.2559
vt 0.6975 0.2100
vt 0.7720 0.2047
vt 0.7064 0.1588
vt 0.7657 0.1588
vt 0.8645 0.2573
vt 0.9277 0.2456
vt 0.8395 0.3221
vt 0.9144 0.3221
vt 0.8961 0.4140
vt 0.9330 0.3498
vt 0.8931 0.4399
vt 0.8089 0.2573
vt 0.8029 0.3498
vt 0.8499 0.4140
vt 0.8489 0.4399
vt 0.7371 0.3930
vt 0.7371 0.4010
vt 0.7437 0.4010
vt 0.7327 0.4273
vt 0.7374 0.4273
vt 0.7367 0.4137
vt 0.7417 0.4137
vt 0.8123 0.1957
vt 0.7657 0.1588
vt 0.7064 0.1484
vt 0.7064 0.1471
vt 0.7064 0.1484
vt 0.7657 0.1378
vt 0.7371 0.3930
vt 0.7371 0.4010
vt 0.8089 0.2573
vt 0.8029 0.3498
vt 0.8499 0.4140
vt 0.8472 0.1238
vt 0.8006 0.1498
vt 0.7657 0.1484
vt 0.8123 0.1957
vt 0.7683 0.3411
vt 0.7387 0.4273
vt 0.8006 0.1498
vt 0.7657 0.1484
vt 0.9344 0.2306
vt 0.8582 0.2306
vt 0.9430 0.1265
vt 0.8798 0.1381
vt 0.8798 0.1381
vt 0.8582 0.2306
vt 0.9430 0.1265
vt 0.9344 0.2306
vt 0.7414 0.3847
vn 0.9982 0.0594 0.0000
vn 0.9145 0.2032 -0.3498
vn 0.9088 0.2522 -0.3323
vn 0.9254 0.1718 0.3378
vn 0.9089 0.2521 -0.3323
vn 0.6879 0.7192 0.0977
vn 0.6016 0.7247 -0.3360
vn 0.0000 0.9997 -0.0254
vn 0.2968 0.7011 -0.6484
vn 0.0000 0.7614 -0.6482
vn -0.0000 0.2402 -0.9707
vn -0.2968 0.7011 -0.6484
vn -0.5447 0.3007 -0.7829
vn -0.6016 0.7247 -0.3360
vn -0.9089 0.2521 -0.3323
vn -0.6879 0.7192 0.0977
vn -0.9254 0.1718 0.3378
vn -0.9254 0.1718 0.3377
vn -0.4628 0.7127 0.5272
vn -0.4313 0.1074 0.8958
vn 0.0000 0.6387 0.7695
vn 0.0000 0.0782 0.9969
vn 0.4313 0.1073 0.8958
vn 0.0000 -0.0117 0.9999
vn 0.6248 0.0508 0.7791
vn -0.8749 -0.0020 -0.4843
vn 0.6560 0.2596 -0.7087
vn -0.3499 -0.5708 -0.7428
vn 0.5920 -0.4775 -0.6492
vn 0.7459 -0.6619 -0.0742
vn 0.6560 0.2597 -0.7087
vn 0.7990 0.5450 0.2540
vn -0.8872 0.2110 0.4104
vn -0.9145 0.2032 -0.3498
vn -0.5269 0.1854 -0.8294
vn -0.5447 0.3006 -0.7829
vn 0.0000 0.2403 -0.9707
vn -0.7211 -0.4397 -0.5355
vn -0.8749 -0.0019 -0.4843
vn -0.7712 -0.4432 0.4569
vn -0.6893 0.5526 0.4686
vn 0.2870 -0.6013 0.7457
vn 0.7990 0.5451 0.2539
vn 0.9406 -0.3240 -0.1015
vn -0.7459 -0.6619 -0.0742
vn 0.3499 -0.5708 -0.7428
vn -0.5924 -0.4771 -0.6492
vn -0.6560 0.2596 -0.7087
vn 0.5270 0.1854 -0.8294
vn 0.5447 0.3007 -0.7829
vn 0.2969 0.7011 -0.6483
vn 0.7990 0.5450 0.2539
vn 0.4807 0.7718 0.4162
vn -0.7083 0.6556 0.2615
vn -0.4452 -0.4647 0.7654
vn -0.7084 0.6556 0.2615
vn -0.9406 -0.3239 -0.1015
vn -0.9406 -0.3240 -0.1015
vn 0.7130 -0.3966 0.5782
vn -0.7131 -0.3965 0.5782
vn -0.4807 0.7718 0.4162
vn -0.7990 0.5451 0.2540
vn -0.6560 0.2597 -0.7087
vn 0.6893 0.5525 0.4686
vn 0.9406 -0.3239 -0.1014
vn 0.8749 -0.0020 -0.4843
vn 0.4628 0.7127 0.5272
vn 0.4313 0.1074 0.8958
vn 0.6249 0.0508 0.7791
vn 0.4627 0.7127 0.5272
vn -0.0489 -0.9474 -0.3164
vn -0.2870 -0.6013 0.7457
vn -0.7990 0.5450 0.2540
vn 0.7131 -0.3965 0.5782
vn 0.7990 0.5451 0.2540
vn -0.7211 -0.4396 -0.5355
vn 0.0488 -0.9474 -0.3164
vn 0.0489 -0.9474 -0.3164
vn 0.4452 -0.4647 0.7654
vn 0.9406 -0.3239 -0.1015
vn 0.7083 0.6557 0.2615
vn -0.7990 0.5450 0.2539
vn 0.6893 0.5526 0.4686
vn 0.7084 0.6556 0.2614
vn -0.7130 -0.3966 0.5782
vn -0.6248 0.0508 0.7791
vn -0.4313 0.1073 0.8958
vn 0.0000 0.1698 -0.9855
vn 0.5269 0.1854 -0.8294
vn 0.5269 0.1854 -0.8295
vn 0.5447 0.3006 -0.7829
vn 0.2969 0.7011 -0.6484
vn -0.7619 0.4882 0.4257
vn 0.0000 0.7533 0.6577
vn 0.7619 0.4882 0.4257
vn -0.2969 0.7011 -0.6484
vn -0.0488 -0.9474 -0.3164
vn 0.7211 -0.4396 -0.5355
vn 0.8749 -0.0019 -0.4843
vn 0.7211 -0.4397 -0.5355
vn 0.7712 -0.4432 0.4569
vn 0.7713 -0.4432 0.4569
vn 0.8872 0.2110 0.4104
vn 0.0000 0.6386 0.7695
vn 0.0000 0.7615 -0.6482
vn 0.0000 -0.9984 -0.0566
vn 0.8872 0.2111 0.4104
vn 0.4318 -0.0957 0.8969
vn 0.4260 0.1446 0.8931
vn 0.5297 -0.0547 0.8464
vn -0.0000 -0.0274 0.9996
vn 0.0000 -0.3650 0.9310
vn -0.5297 -0.0547 0.8464
vn -0.5116 -0.3827 0.7693
vn -0.9447 0.0058 0.3279
vn -0.9417 -0.2208 0.2540
vn -0.9530 0.0098 -0.3027
vn -0.9484 -0.2498 -0.1952
vn -0.5389 -0.8278 -0.1562
vn -0.6426 -0.1250 -0.7559
vn 0.0000 -0.5779 -0.8161
vn -0.0000 0.1856 -0.9826
vn 0.6426 -0.1250 -0.7559
vn -0.0000 0.0332 -0.9994
vn 0.5292 0.1211 -0.8398
vn -0.0000 0.2167 -0.9762
vn 0.5063 0.2170 -0.8346
vn 0.6912 0.1757 -0.7010
vn 0.4318 -0.0958 0.8969
vn 0.9447 0.0059 0.3279
vn 0.5116 -0.3827 0.7693
vn -0.0000 -0.7129 0.7012
vn -0.8872 0.2111 0.4104
vn -0.4318 -0.0958 0.8969
vn -0.4260 0.1446 0.8931
vn -0.0000 0.1387 0.9903
vn -0.9576 0.2813 -0.0627
vn -0.8437 0.2969 0.4472
vn -0.3574 -0.5293 -0.7695
vn -0.7110 0.3438 -0.6134
vn -0.6912 0.1757 -0.7010
vn -0.8203 0.4629 -0.3359
vn -0.9145 0.2033 -0.3498
vn 0.9530 0.0098 -0.3027
vn 0.9417 -0.2208 0.2540
vn 0.9484 -0.2498 -0.1951
vn 0.7211 -0.4397 -0.5354
vn 0.9576 0.2813 -0.0627
vn 0.3574 -0.5292 -0.7695
vn 0.8437 0.2969 0.4472
vn 0.7110 0.3438 -0.6134
vn 0.8203 0.4629 -0.3359
vn 0.9145 0.2033 -0.3498
vn -0.5903 -0.5727 0.5688
vn 0.8437 0.2969 0.4473
vn 0.6874 0.3633 0.6289
vn 0.8871 0.2111 0.4104
vn 0.8203 0.4629 -0.3360
vn -0.5293 0.1211 -0.8398
vn -0.5062 0.2173 -0.8346
vn -0.7211 -0.4397 -0.5354
vn -0.9484 -0.2498 -0.1951
vn 0.0000 -0.9376 0.3477
vn -0.0000 -0.9946 0.1036
vn 0.9484 -0.2498 -0.1952
vn 0.5293 0.1211 -0.8398
vn 0.5903 -0.5727 0.5688
vn -0.8437 0.2968 0.4472
vn -0.6874 0.3633 0.6289
vn -0.8203 0.4629 -0.3360
vn -0.4318 -0.0957 0.8969
vn -0.9447 0.0059 0.3279
vn 0.5389 -0.8278 -0.1562
vn -0.2869 -0.6013 0.7458
vn -0.6912 0.1758 -0.7010
vn -0.5270 0.1854 -0.8294
vn 0.0488 -0.9473 -0.3165
vn 0.3574 -0.5293 -0.7695
vn -0.5062 0.2170 -0.8347
vn -0.5292 0.1211 -0.8398
vn 0.6248 0.0507 0.7791
vn -0.0000 -0.0118 0.9999
vn 0.3576 -0.5292 -0.7695
usemtl None
s 1
f 52/1/1 81/2/1 53/3/1
f 81/2/2 18/4/3 53/3/4
f 53/3/4 18/4/5 54/5/6
f 18/4/5 1/6/7 54/5/6
f 54/5/6 1/6/7 55/7/8
f 1/6/7 20/8/9 55/7/8
f 55/7/8 20/8/9 2/9/10
f 20/8/9 41/10/11 2/9/10
f 2/9/10 41/10/11 56/11/12
f 41/10/11 11/12/13 56/11/12
f 56/11/12 11/12/13 3/13/14
f 11/12/13 10/14/15 3/13/14
f 3/13/14 10/14/15 47/15/16
f 10/14/15 39/16/17 47/15/16
f 47/17/16 39/18/18 29/19/19
f 39/18/18 40/20/20 29/19/19
f 29/19/19 40/20/20 30/21/21
f 40/20/20 4/22/22 30/21/21
f 30/21/21 4/22/22 5/23/23
f 4/22/22 6/24/24 5/23/23
f 5/23/23 6/24/24 58/25/25
f 33/26/26 9/27/27 7/28/28
f 9/27/27 8/29/29 7/28/28
f 7/28/28 8/29/29 32/30/30
f 8/29/29 9/27/31 32/30/30
f 32/30/30 9/27/31 13/31/32
f 38/32/33 39/16/17 87/33/34
f 39/16/17 10/14/15 87/33/34
f 87/33/34 10/14/15 113/34/35
f 10/14/15 11/12/36 113/34/35
f 113/34/35 11/12/36 41/10/37
f 34/35/38 33/36/39 90/37/40
f 33/36/39 12/38/41 90/37/40
f 90/37/40 12/38/41 106/39/42
f 12/38/41 13/40/43 106/39/42
f 14/41/44 15/42/45 27/43/46
f 15/42/45 16/44/47 27/43/46
f 27/43/46 16/44/47 17/45/48
f 16/44/47 15/42/45 17/45/48
f 81/2/2 43/46/49 18/4/5
f 43/46/49 19/47/50 18/4/5
f 18/4/5 19/47/50 1/6/7
f 19/47/50 20/8/51 1/6/7
f 13/48/52 12/49/41 24/50/53
f 12/49/41 22/51/54 24/50/53
f 24/50/53 22/51/54 21/52/55
f 21/53/55 22/54/56 23/55/57
f 22/54/56 12/56/41 23/55/57
f 23/55/57 12/56/41 33/26/39
f 23/57/58 32/58/30 21/52/55
f 32/58/30 31/59/59 21/52/55
f 21/52/55 31/59/59 24/50/53
f 25/60/60 36/61/61 15/42/45
f 36/61/61 26/62/62 15/42/45
f 15/42/45 26/62/62 17/45/63
f 50/63/64 14/41/65 49/64/66
f 14/41/65 27/43/46 49/64/66
f 49/64/66 27/43/46 17/45/63
f 54/65/6 28/66/67 53/67/4
f 28/66/67 5/23/68 53/67/4
f 53/67/4 5/23/68 58/25/69
f 47/15/16 29/68/19 55/7/8
f 29/68/19 30/69/21 55/7/8
f 55/7/8 30/69/21 28/70/70
f 48/71/71 17/72/63 51/73/72
f 17/72/63 26/74/73 51/73/72
f 51/73/72 26/74/73 50/75/64
f 31/76/74 32/30/30 24/77/53
f 32/30/30 13/31/75 24/77/53
f 32/30/30 23/55/58 7/28/28
f 23/55/58 33/26/26 7/28/28
f 33/78/26 34/79/76 9/80/31
f 34/79/76 105/81/77 9/80/31
f 105/82/78 106/39/42 9/83/31
f 106/39/42 13/40/75 9/83/31
f 35/84/79 14/41/80 37/85/81
f 14/41/80 50/63/64 37/85/81
f 26/86/82 36/87/61 50/88/83
f 36/87/61 37/89/84 50/88/83
f 14/90/44 35/91/79 15/92/45
f 35/91/79 25/93/85 15/92/45
f 37/89/81 36/87/61 35/91/79
f 36/87/61 25/93/60 35/91/79
f 38/94/33 70/95/86 39/18/17
f 70/95/86 40/20/20 39/18/17
f 70/95/86 6/24/24 40/20/87
f 6/24/24 4/22/22 40/20/87
f 113/34/35 41/10/11 42/96/88
f 41/10/11 43/46/89 42/96/88
f 43/46/90 41/10/11 19/47/91
f 41/10/11 20/8/92 19/47/91
f 44/97/93 57/98/94 45/99/94
f 57/98/94 46/100/95 45/99/94
f 56/11/96 3/13/14 55/7/8
f 3/13/14 47/15/16 55/7/8
f 48/101/97 98/102/98 17/103/63
f 98/102/98 49/104/99 17/103/63
f 98/105/100 78/106/101 49/107/99
f 78/106/101 50/75/64 49/107/99
f 51/73/72 50/75/83 78/106/102
f 52/108/103 53/67/4 58/25/69
f 28/66/67 30/21/104 5/23/23
f 28/70/67 54/5/6 55/7/8
f 56/11/12 55/7/8 2/9/105
f 44/97/106 46/100/106 57/98/106
f 52/109/107 58/110/25 66/111/108
f 58/110/25 115/112/109 66/111/108
f 66/111/108 115/112/109 68/113/110
f 115/112/109 72/114/111 68/113/110
f 68/113/110 72/114/111 59/115/112
f 72/114/111 60/116/113 59/115/112
f 59/115/112 60/116/113 69/117/114
f 60/116/113 101/118/115 69/117/114
f 69/117/114 101/118/115 89/119/116
f 101/118/115 85/120/117 89/119/116
f 89/119/116 85/120/117 84/121/118
f 104/122/119 114/123/120 61/124/121
f 114/123/120 62/125/122 61/124/121
f 61/124/121 62/125/122 99/126/123
f 62/125/122 63/127/124 99/126/123
f 99/126/123 63/127/124 64/128/125
f 63/127/124 103/129/126 64/128/125
f 64/128/125 103/129/126 65/130/127
f 103/129/126 43/131/89 65/130/127
f 65/130/127 43/131/89 80/132/128
f 43/131/89 81/133/2 80/132/128
f 80/134/128 66/111/129 67/135/130
f 66/111/129 68/113/110 67/135/130
f 67/135/130 68/113/110 108/136/131
f 68/113/110 59/115/112 108/136/131
f 108/136/131 59/115/112 107/137/132
f 59/115/112 69/117/114 107/137/132
f 107/137/132 69/117/114 90/138/40
f 38/139/133 95/140/134 70/141/86
f 95/140/134 94/142/135 70/141/86
f 70/141/86 94/142/135 6/143/24
f 94/142/135 71/144/136 6/143/24
f 6/143/24 71/144/136 115/112/109
f 71/144/136 72/114/111 115/112/109
f 73/145/137 74/146/138 75/147/139
f 74/146/138 111/148/140 75/147/139
f 75/147/139 111/148/140 102/149/141
f 111/148/140 76/150/142 102/149/141
f 102/149/141 76/150/142 87/151/143
f 76/150/142 38/152/33 87/151/143
f 80/134/128 67/135/130 92/153/144
f 67/135/130 77/154/145 92/153/144
f 92/153/144 77/154/145 100/155/146
f 77/154/145 78/156/101 100/155/146
f 100/155/146 78/156/101 98/157/147
f 109/158/148 110/159/149 82/160/150
f 110/159/149 79/161/151 82/160/150
f 82/160/150 79/161/151 112/162/152
f 79/161/151 80/163/128 112/162/152
f 112/162/152 80/163/128 81/164/153
f 109/165/154 82/160/155 66/166/108
f 82/160/155 83/167/156 66/166/108
f 66/166/108 83/167/156 52/168/157
f 83/167/156 112/162/158 52/168/157
f 52/168/157 112/162/158 81/164/2
f 84/169/118 85/170/117 114/123/120
f 85/170/117 86/171/159 114/123/120
f 114/123/120 86/171/159 63/127/124
f 86/171/159 103/129/126 63/127/124
f 87/172/34 113/173/35 102/174/141
f 113/173/35 88/175/160 102/174/141
f 102/174/141 88/175/160 86/171/159
f 88/175/160 103/129/126 86/171/159
f 114/176/120 34/177/161 84/121/162
f 34/177/161 90/138/40 84/121/162
f 84/121/162 90/138/40 89/119/116
f 90/138/40 69/117/114 89/119/116
f 90/138/40 106/178/42 107/137/132
f 106/178/42 91/179/163 107/137/132
f 107/137/132 91/179/163 51/180/72
f 91/179/163 97/181/164 51/180/72
f 100/182/165 99/126/123 92/183/144
f 99/126/123 64/128/166 92/183/144
f 92/183/144 64/128/166 80/132/128
f 64/128/166 65/130/127 80/132/128
f 73/184/167 95/185/134 74/146/168
f 95/185/134 93/186/169 74/146/168
f 74/146/168 93/186/169 76/150/170
f 93/186/169 38/152/33 76/150/170
f 72/114/111 94/142/135 60/116/113
f 94/142/135 95/140/171 60/116/113
f 60/116/113 95/140/171 101/118/172
f 61/187/121 96/188/173 97/181/164
f 96/188/173 48/189/97 97/181/164
f 97/181/164 48/189/97 51/180/174
f 48/189/97 96/188/173 98/157/147
f 96/188/173 99/190/123 98/157/147
f 98/157/147 99/190/123 100/155/165
f 85/120/117 101/118/172 102/191/175
f 101/118/172 95/140/134 102/191/175
f 43/131/49 103/129/126 42/192/88
f 103/129/126 113/173/176 42/192/88
f 114/176/120 104/193/119 34/177/161
f 104/193/119 105/194/77 34/177/161
f 61/187/121 97/181/164 104/193/119
f 97/181/164 105/194/77 104/193/119
f 105/194/177 97/181/164 106/178/42
f 97/181/164 91/179/163 106/178/42
f 51/180/72 78/156/101 107/137/132
f 78/156/101 108/136/131 107/137/132
f 78/156/101 77/154/145 108/136/131
f 77/154/145 67/135/130 108/136/131
f 102/195/141 95/196/171 75/197/139
f 95/196/171 73/198/167 75/197/139
f 109/199/154 66/200/108 110/201/178
f 66/200/108 80/202/128 110/201/178
f 111/148/140 74/146/138 76/150/142
f 71/144/136 94/142/135 72/114/111
f 83/167/156 82/160/155 112/162/152
f 88/175/179 113/173/35 103/129/126
f 114/123/120 63/127/124 62/125/122
f 85/170/117 102/174/141 86/171/180
f 58/110/181 6/143/182 115/112/109
f 110/159/183 80/163/128 79/161/151
f 38/152/33 93/186/169 95/185/171
f 61/124/121 99/126/123 96/203/173
