# Blender v2.78 (sub 0) OBJ File: ''
# www.blender.org
mtllib Picky.mtl
o Arm.049
v 0.063000 0.029750 -0.038708
v 0.071500 0.033850 0.023292
v 0.060100 0.001850 -0.042808
v 0.030400 0.001850 -0.042908
v 0.030000 0.027650 -0.043008
v 0.070800 0.001850 0.060792
v 0.066000 0.019750 0.062492
v 0.045700 0.017850 0.060492
v 0.053400 0.001850 0.079092
v 0.025000 0.031750 0.017892
v 0.023500 0.019050 0.061892
v 0.035600 0.001850 0.079892
v 0.021900 0.001850 0.059392
v 0.045300 0.001850 0.058392
v -0.060100 0.001850 -0.042808
v -0.071500 0.033850 0.023292
v -0.063000 0.029750 -0.038708
v -0.030400 0.001850 -0.042908
v -0.030000 0.027650 -0.043008
v -0.070800 0.001850 0.060792
v -0.066000 0.019750 0.062492
v -0.045700 0.017850 0.060492
v -0.053400 0.001850 0.079092
v -0.023500 0.019050 0.061892
v -0.025000 0.031750 0.017892
v -0.035600 0.001850 0.079892
v -0.021900 0.001850 0.059392
v -0.045300 0.001850 0.058392
v 0.184000 0.237850 0.057600
v 0.065300 0.187950 -0.028300
v 0.122600 0.240850 0.036200
v 0.042700 0.238750 -0.003900
v 0.164000 0.243250 0.079900
v 0.070000 0.189350 0.015100
v 0.156600 0.256250 0.057100
v -0.122600 0.240850 0.036200
v -0.065300 0.187950 -0.028300
v -0.184000 0.237850 0.057600
v -0.042700 0.238750 -0.003900
v -0.070000 0.189350 0.015100
v -0.164000 0.243250 0.079900
v -0.156600 0.256250 0.057100
v 0.000000 0.071450 -0.050300
v 0.012600 0.051450 0.013400
v 0.000000 0.050650 0.013200
v 0.059500 0.100150 0.056300
v 0.000000 0.098750 0.084300
v 0.050600 0.173150 0.070000
v 0.092900 0.103950 0.011800
v 0.065400 0.238750 0.003600
v 0.000000 0.172250 0.086100
v 0.077600 0.089450 -0.054600
v 0.000000 0.235150 -0.049000
v 0.000000 0.109050 -0.080400
v 0.000000 0.233950 0.047800
v 0.000000 0.379750 -0.155800
v 0.082100 0.263350 -0.083400
v 0.000000 0.260450 -0.106700
v 0.111100 0.375650 -0.117000
v 0.140600 0.359350 0.009400
v 0.129000 0.468950 0.019000
v 0.104300 0.478350 -0.106400
v 0.000000 0.525150 -0.107800
v 0.075800 0.531750 -0.017500
v 0.129100 0.548150 0.033000
v 0.088300 0.442950 0.118700
v 0.055800 0.524850 0.066200
v 0.000000 0.456550 0.135700
v 0.069100 0.307850 0.109000
v 0.106700 0.269650 0.058900
v 0.028600 0.250250 0.102800
v 0.000000 0.543550 0.045900
v 0.000000 0.246850 0.107000
v 0.000000 0.288250 0.150900
v 0.000000 0.339850 0.119800
v 0.000000 0.337950 0.155800
v 0.034300 0.310750 0.152400
v -0.075800 0.531750 -0.017500
v -0.104300 0.478350 -0.106400
v -0.129000 0.468950 0.019000
v -0.111100 0.375650 -0.117000
v -0.082100 0.263350 -0.083400
v -0.140600 0.359350 0.009400
v -0.129100 0.548150 0.033000
v -0.065400 0.238750 0.003600
v -0.088300 0.442950 0.118700
v -0.055800 0.524850 0.066200
v -0.069100 0.307850 0.109000
v -0.106700 0.269650 0.058900
v -0.028600 0.250250 0.102800
v -0.034300 0.310750 0.152400
v 0.000800 0.132450 -0.082300
v 0.000800 0.128950 -0.101000
v 0.000800 0.135050 -0.108600
v 0.000800 0.128850 -0.090700
v 0.000800 0.115150 -0.095600
v 0.000800 0.120350 -0.098500
v 0.000800 0.101450 -0.073600
v 0.000800 0.115950 -0.103100
v 0.000800 0.114650 -0.074900
v 0.000800 0.118450 -0.124100
v -0.012600 0.051450 0.013400
v -0.059500 0.100150 0.056300
v -0.050600 0.173150 0.070000
v -0.092900 0.103950 0.011800
v -0.077600 0.089450 -0.054600
v -0.000800 0.132450 -0.082300
v -0.000800 0.128950 -0.101000
v -0.000800 0.128850 -0.090700
v -0.000800 0.135050 -0.108600
v -0.000800 0.115150 -0.095600
v -0.000800 0.120350 -0.098500
v -0.000800 0.101450 -0.073600
v -0.000800 0.115950 -0.103100
v -0.000800 0.118450 -0.124100
v -0.000800 0.114650 -0.074900
v 0.071500 0.033850 0.024000
v 0.063000 0.029750 -0.038000
v 0.030000 0.027650 -0.042300
v 0.025000 0.031750 0.018600
v -0.030000 0.027650 -0.042300
v -0.025000 0.031750 0.018600
v -0.071500 0.033850 0.024000
v -0.063000 0.029750 -0.038000
vt 0.1333 0.2860
vt 0.0791 0.2808
vt 0.1356 0.3288
vt 0.1492 0.3289
vt 0.1522 0.2875
vt 0.0776 0.3268
vt 0.0757 0.3006
vt 0.0631 0.2969
vt 0.0696 0.3268
vt 0.0445 0.2810
vt 0.0510 0.3018
vt 0.0574 0.3268
vt 0.0506 0.3268
vt 0.0083 0.2815
vt 0.0059 0.3274
vt 0.0142 0.2271
vt 0.0360 0.2268
vt 0.0250 0.1742
vt 0.0072 0.1737
vt 0.0176 0.1631
vt 0.0443 0.1729
vt 0.0311 0.1635
vt 0.0626 0.3268
vt 0.1356 0.3288
vt 0.0791 0.2808
vt 0.1333 0.2860
vt 0.1492 0.3289
vt 0.1522 0.2875
vt 0.0776 0.3268
vt 0.0757 0.3006
vt 0.0631 0.2969
vt 0.0696 0.3268
vt 0.0510 0.3018
vt 0.0445 0.2810
vt 0.0574 0.3268
vt 0.0506 0.3268
vt 0.0083 0.2815
vt 0.0059 0.3274
vt 0.0250 0.1742
vt 0.0360 0.2268
vt 0.0142 0.2271
vt 0.0072 0.1737
vt 0.0176 0.1631
vt 0.0443 0.1729
vt 0.0311 0.1635
vt 0.0626 0.3268
vt 0.1880 0.0264
vt 0.1836 0.1461
vt 0.2329 0.0765
vt 0.2017 0.1448
vt 0.2630 0.0548
vt 0.2908 0.1430
vt 0.2368 0.0534
vt 0.3235 0.0462
vt 0.3239 0.1407
vt 0.2329 0.0765
vt 0.1836 0.1461
vt 0.1880 0.0264
vt 0.2017 0.1448
vt 0.2908 0.1430
vt 0.2630 0.0548
vt 0.2368 0.0534
vt 0.3235 0.0462
vt 0.3239 0.1407
vt 0.3252 0.3253
vt 0.1920 0.3166
vt 0.1740 0.3222
vt 0.2127 0.2723
vt 0.1734 0.2713
vt 0.2024 0.2092
vt 0.2494 0.2656
vt 0.2502 0.1658
vt 0.1742 0.2092
vt 0.2907 0.2635
vt 0.3272 0.2187
vt 0.3216 0.2686
vt 0.2176 0.1662
vt 0.1742 0.0831
vt 0.1371 0.1286
vt 0.1740 0.1246
vt 0.1399 0.0852
vt 0.0882 0.0838
vt 0.0978 0.0490
vt 0.1375 0.0445
vt 0.1663 0.0244
vt 0.1748 0.1506
vt 0.0960 0.1512
vt 0.0963 0.0189
vt 0.0830 0.0219
vt 0.0466 0.0624
vt 0.0524 0.0305
vt 0.0017 0.0566
vt 0.0337 0.1136
vt 0.0680 0.1273
vt 0.0153 0.1364
vt 0.0017 0.0050
vt 0.0267 0.1512
vt 0.0017 0.1371
vt 0.0017 0.1184
vt 0.0017 0.1016
vt 0.0017 0.1048
vt 0.0141 0.1124
vt 0.0963 0.0189
vt 0.1375 0.0445
vt 0.0978 0.0490
vt 0.1399 0.0852
vt 0.1371 0.1286
vt 0.0882 0.0838
vt 0.0830 0.0219
vt 0.0960 0.1512
vt 0.0466 0.0624
vt 0.0524 0.0305
vt 0.0337 0.1136
vt 0.0680 0.1273
vt 0.0153 0.1364
vt 0.0141 0.1124
vt 0.0965 0.1987
vt 0.1103 0.1808
vt 0.1105 0.1987
vt 0.0966 0.1808
vt 0.0833 0.1987
vt 0.0833 0.1808
vt 0.1610 0.1982
vt 0.1233 0.1987
vt 0.1362 0.1808
vt 0.1233 0.1808
vt 0.1610 0.1807
vt 0.1398 0.1988
vt 0.1920 0.3166
vt 0.2127 0.2723
vt 0.2024 0.2092
vt 0.2494 0.2656
vt 0.2502 0.1658
vt 0.2907 0.2635
vt 0.0965 0.1987
vt 0.1103 0.1808
vt 0.0966 0.1808
vt 0.1105 0.1987
vt 0.0833 0.1987
vt 0.0833 0.1808
vt 0.1610 0.1982
vt 0.1233 0.1987
vt 0.1398 0.1988
vt 0.1362 0.1808
vt 0.1233 0.1808
vt 0.1610 0.1807
vt 0.1338 0.2103
vt 0.0791 0.2808
vt 0.1333 0.2860
vt 0.1522 0.2875
vt 0.1119 0.2022
vt 0.1579 0.2380
vt 0.0785 0.2071
vt 0.0275 0.2459
vt 0.0083 0.2815
vt 0.0445 0.2810
vt 0.0113 0.2383
vt 0.0275 0.2459
vt 0.0083 0.2815
vt 0.0445 0.2810
vt 0.0785 0.2071
vt 0.0791 0.2808
vt 0.1333 0.2860
vt 0.1338 0.2103
vt 0.1522 0.2875
vt 0.1119 0.2022
vn 0.4687 0.0249 -0.8830
vn 0.8065 0.5588 0.1933
vn 0.6338 -0.6670 -0.3917
vn -0.2961 -0.6418 -0.7074
vn -0.8498 -0.0123 -0.5269
vn 0.8055 -0.5406 0.2427
vn 0.4536 0.6499 0.6098
vn -0.0398 0.8081 0.5877
vn -0.1960 -0.0982 0.9757
vn -0.6995 0.6897 0.1869
vn -0.5837 0.6254 0.5178
vn 0.0957 -0.1996 0.9752
vn -0.8885 -0.4501 0.0895
vn -0.0043 -0.9887 0.1501
vn -0.6339 -0.6670 -0.3917
vn -0.8065 0.5588 0.1933
vn -0.4687 0.0249 -0.8830
vn 0.2961 -0.6418 -0.7074
vn 0.8498 -0.0123 -0.5269
vn -0.8055 -0.5406 0.2427
vn -0.4536 0.6499 0.6098
vn 0.0398 0.8081 0.5877
vn 0.1960 -0.0982 0.9757
vn 0.5837 0.6254 0.5178
vn 0.6995 0.6897 0.1869
vn -0.0957 -0.1996 0.9752
vn 0.8885 -0.4501 0.0895
vn 0.0043 -0.9887 0.1501
vn 0.8886 0.0200 -0.4582
vn 0.5654 0.1126 -0.8171
vn -0.2634 0.9580 -0.1131
vn -0.1239 0.9728 0.1958
vn -0.2406 0.4433 0.8635
vn -0.2127 -0.5455 0.8107
vn 0.1328 0.9911 -0.0115
vn 0.2634 0.9580 -0.1131
vn -0.5654 0.1126 -0.8171
vn -0.8886 0.0200 -0.4582
vn 0.1239 0.9728 0.1958
vn 0.2127 -0.5455 0.8107
vn 0.2407 0.4433 0.8635
vn -0.1328 0.9911 -0.0115
vn -0.0000 -0.7444 -0.6677
vn -0.5674 -0.7622 0.3117
vn -0.0001 -0.9292 0.3695
vn 0.2867 -0.4038 0.8688
vn -0.0000 -0.3651 0.9310
vn 0.5654 0.2121 0.7971
vn 0.9652 -0.0185 0.2608
vn 0.8859 -0.4620 0.0418
vn -0.0000 0.2646 0.9643
vn 0.6290 -0.1478 -0.7632
vn 0.0000 -0.4944 -0.8693
vn -0.0000 -0.2292 -0.9734
vn -0.0000 -0.3969 0.9179
vn 0.0000 -0.0769 -0.9970
vn 0.5682 -0.6700 -0.4777
vn -0.0000 -0.7027 -0.7114
vn 0.8133 -0.0773 -0.5767
vn 0.9895 -0.1327 0.0569
vn 0.9654 0.2479 0.0809
vn 0.6333 0.4709 -0.6142
vn -0.0000 0.8300 -0.5578
vn 0.3717 0.8966 -0.2408
vn 0.6525 0.7484 0.1191
vn 0.6904 0.1692 0.7033
vn 0.2784 0.7462 0.6047
vn 0.0000 0.2996 0.9541
vn 0.5863 0.0459 0.8088
vn 0.7739 -0.5209 0.3602
vn 0.3698 -0.7814 0.5026
vn -0.0000 0.9654 0.2609
vn 0.0000 -0.8849 0.4657
vn -0.0000 -0.5146 0.8574
vn -0.0000 0.5967 0.8025
vn 0.0000 0.7132 0.7010
vn 0.5121 -0.1689 0.8421
vn -0.3717 0.8966 -0.2408
vn -0.6333 0.4709 -0.6142
vn -0.9654 0.2479 0.0809
vn -0.8133 -0.0773 -0.5767
vn -0.5682 -0.6700 -0.4777
vn -0.9895 -0.1327 0.0569
vn -0.6525 0.7484 0.1191
vn -0.8859 -0.4620 0.0418
vn -0.6904 0.1692 0.7033
vn -0.2784 0.7462 0.6047
vn -0.5863 0.0459 0.8088
vn -0.7739 -0.5209 0.3602
vn -0.3698 -0.7814 0.5027
vn -0.5121 -0.1689 0.8421
vn 1.0000 -0.0000 0.0000
vn 0.5674 -0.7622 0.3117
vn -0.2867 -0.4038 0.8688
vn -0.5654 0.2121 0.7971
vn -0.9652 -0.0185 0.2608
vn -0.6290 -0.1478 -0.7632
vn -1.0000 -0.0000 0.0000
vn 0.8401 -0.3759 0.3910
vn 0.6760 -0.3462 -0.6505
vn -0.5179 -0.5365 -0.6663
vn -0.5981 -0.4534 0.6609
vn 0.5179 -0.5365 -0.6663
vn 0.5981 -0.4534 0.6609
vn -0.8401 -0.3759 0.3909
vn -0.6760 -0.3462 -0.6505
usemtl None
s 1
f 1/1/1 2/2/2 3/3/3
f 3/3/3 4/4/4 1/1/1
f 1/1/1 4/4/4 5/5/5
f 3/3/3 2/2/2 6/6/6
f 2/2/2 7/7/7 6/6/6
f 7/7/7 2/2/2 8/8/8
f 7/7/7 8/8/8 9/9/9
f 6/6/6 7/7/7 9/9/9
f 10/10/10 11/11/11 8/8/8
f 12/12/12 8/8/8 11/11/11
f 10/10/10 13/13/13 11/11/11
f 12/12/12 11/11/11 13/13/13
f 10/10/10 5/14/5 13/13/13
f 13/13/13 5/14/5 4/15/4
f 10/10/10 8/8/8 2/2/2
f 4/16/4 3/17/3 14/18/14
f 4/16/4 14/18/14 13/19/13
f 14/18/14 12/20/12 13/19/13
f 14/18/14 3/17/3 6/21/6
f 14/18/14 6/21/6 9/22/9
f 8/8/8 14/23/14 9/9/9
f 14/23/14 8/8/8 12/12/12
f 15/24/15 16/25/16 17/26/17
f 17/26/17 18/27/18 15/24/15
f 19/28/19 18/27/18 17/26/17
f 20/29/20 16/25/16 15/24/15
f 20/29/20 21/30/21 16/25/16
f 22/31/22 16/25/16 21/30/21
f 23/32/23 22/31/22 21/30/21
f 23/32/23 21/30/21 20/29/20
f 22/31/22 24/33/24 25/34/25
f 24/33/24 22/31/22 26/35/26
f 24/33/24 27/36/27 25/34/25
f 27/36/27 24/33/24 26/35/26
f 27/36/27 19/37/19 25/34/25
f 18/38/18 19/37/19 27/36/27
f 16/25/16 22/31/22 25/34/25
f 28/39/28 15/40/15 18/41/18
f 27/42/27 28/39/28 18/41/18
f 27/42/27 26/43/26 28/39/28
f 20/44/20 15/40/15 28/39/28
f 23/45/23 20/44/20 28/39/28
f 23/32/23 28/46/28 22/31/22
f 26/35/26 22/31/22 28/46/28
f 29/47/29 30/48/30 31/49/31
f 31/49/31 30/48/30 32/50/32
f 33/51/33 31/49/31 34/52/34
f 35/53/35 31/49/31 33/51/33
f 35/53/35 33/51/33 29/47/29
f 31/49/31 35/53/35 29/47/29
f 34/52/34 31/49/31 32/50/32
f 29/54/29 34/52/34 30/55/30
f 34/52/34 29/54/29 33/51/33
f 36/56/36 37/57/37 38/58/38
f 39/59/39 37/57/37 36/56/36
f 40/60/40 36/56/36 41/61/41
f 41/61/41 36/56/36 42/62/42
f 38/58/38 41/61/41 42/62/42
f 38/58/38 42/62/42 36/56/36
f 39/59/39 36/56/36 40/60/40
f 38/63/38 40/60/40 41/61/41
f 40/60/40 38/63/38 37/64/37
f 43/65/43 44/66/44 45/67/45
f 46/68/46 45/67/45 44/66/44
f 47/69/47 45/67/45 46/68/46
f 48/70/48 47/69/47 46/68/46
f 48/70/48 46/68/46 49/71/49
f 48/70/48 49/71/49 50/72/50
f 47/69/47 48/70/48 51/73/51
f 50/72/50 49/71/49 52/74/52
f 52/74/52 53/75/53 50/72/50
f 54/76/54 52/74/52 43/65/43
f 54/76/54 53/75/53 52/74/52
f 55/77/55 51/73/51 48/70/48
f 50/72/50 55/77/55 48/70/48
f 56/78/56 57/79/57 58/80/58
f 59/81/59 57/79/57 56/78/56
f 60/82/60 57/79/57 59/81/59
f 59/81/59 61/83/61 60/82/60
f 62/84/62 61/83/61 59/81/59
f 56/78/56 62/84/62 59/81/59
f 63/85/63 62/84/62 56/78/56
f 58/80/58 57/79/57 53/86/53
f 53/86/53 57/79/57 50/87/50
f 64/88/64 61/83/61 62/84/62
f 62/84/62 63/85/63 64/88/64
f 65/89/65 61/83/61 64/88/64
f 61/83/61 66/90/66 60/82/60
f 66/90/66 61/83/61 67/91/67
f 67/91/67 61/83/61 65/89/65
f 68/92/68 66/90/66 67/91/67
f 68/92/68 69/93/69 66/90/66
f 69/93/69 70/94/70 66/90/66
f 66/90/66 70/94/70 60/82/60
f 69/93/69 71/95/71 70/94/70
f 71/95/71 50/87/50 70/94/70
f 68/92/68 67/91/67 72/96/72
f 50/87/50 71/95/71 55/97/55
f 73/98/73 55/97/55 71/95/71
f 71/95/71 74/99/74 73/98/73
f 69/93/69 68/92/68 75/100/75
f 76/101/76 69/93/69 75/100/75
f 77/102/77 69/93/69 76/101/76
f 77/102/77 76/101/76 74/99/74
f 71/95/71 69/93/69 77/102/77
f 71/95/71 77/102/77 74/99/74
f 57/79/57 60/82/60 70/94/70
f 50/87/50 57/79/57 70/94/70
f 63/85/63 78/103/78 72/96/72
f 56/78/56 79/104/79 63/85/63
f 78/103/78 63/85/63 79/104/79
f 79/104/79 80/105/80 78/103/78
f 81/106/81 80/105/80 79/104/79
f 81/106/81 79/104/79 56/78/56
f 56/78/56 82/107/82 81/106/81
f 58/80/58 82/107/82 56/78/56
f 81/106/81 82/107/82 83/108/83
f 83/108/83 80/105/80 81/106/81
f 78/103/78 80/105/80 84/109/84
f 53/86/53 82/107/82 58/80/58
f 85/110/85 82/107/82 53/86/53
f 83/108/83 86/111/86 80/105/80
f 87/112/87 80/105/80 86/111/86
f 84/109/84 80/105/80 87/112/87
f 87/112/87 86/111/86 68/92/68
f 86/111/86 88/113/88 68/92/68
f 86/111/86 89/114/89 88/113/88
f 89/114/89 83/108/83 82/107/82
f 83/108/83 89/114/89 86/111/86
f 89/114/89 90/115/90 88/113/88
f 89/114/89 85/110/85 90/115/90
f 72/96/72 87/112/87 68/92/68
f 89/114/89 82/107/82 85/110/85
f 55/97/55 90/115/90 85/110/85
f 90/115/90 55/97/55 73/98/73
f 73/98/73 74/99/74 90/115/90
f 75/100/75 68/92/68 88/113/88
f 75/100/75 88/113/88 76/101/76
f 76/101/76 88/113/88 91/116/91
f 74/99/74 76/101/76 91/116/91
f 72/96/72 64/88/64 63/85/63
f 91/116/91 88/113/88 90/115/90
f 74/99/74 91/116/91 90/115/90
f 64/88/64 67/91/67 65/89/65
f 72/96/72 67/91/67 64/88/64
f 92/117/92 93/118/92 94/119/92
f 95/120/92 93/118/92 92/117/92
f 96/121/92 95/120/92 92/117/92
f 97/122/92 95/120/92 96/121/92
f 98/123/92 99/124/92 96/125/92
f 96/125/92 99/124/92 97/126/92
f 97/126/92 99/124/92 93/118/92
f 93/118/92 99/124/92 94/119/92
f 98/123/92 96/125/92 100/127/92
f 101/128/92 99/124/92 98/123/92
f 45/67/45 102/129/93 43/65/43
f 102/129/93 45/67/45 103/130/94
f 103/130/94 45/67/45 47/69/47
f 103/130/94 47/69/47 104/131/95
f 105/132/96 103/130/94 104/131/95
f 85/133/85 105/132/96 104/131/95
f 51/73/51 104/131/95 47/69/47
f 106/134/97 105/132/96 85/133/85
f 85/133/85 53/75/53 106/134/97
f 43/65/43 106/134/97 54/76/54
f 106/134/97 53/75/53 54/76/54
f 104/131/95 51/73/51 55/77/55
f 104/131/95 55/77/55 85/133/85
f 84/109/84 87/112/87 78/103/78
f 78/103/78 87/112/87 72/96/72
f 107/135/98 108/136/98 109/137/98
f 110/138/98 108/136/98 107/135/98
f 111/139/98 109/137/98 112/140/98
f 107/135/98 109/137/98 111/139/98
f 113/141/98 114/142/98 115/143/98
f 111/144/98 114/142/98 113/141/98
f 112/145/98 114/142/98 111/144/98
f 108/136/98 114/142/98 112/145/98
f 110/138/98 114/142/98 108/136/98
f 116/146/98 111/144/98 113/141/98
f 52/147/52 117/148/99 118/149/100
f 118/149/100 119/150/101 52/147/52
f 117/148/99 52/147/52 49/151/49
f 52/147/52 119/150/101 43/152/43
f 49/151/49 46/153/46 117/148/99
f 44/154/44 119/155/101 120/156/102
f 43/157/43 119/155/101 44/154/44
f 120/156/102 46/153/46 44/154/44
f 46/153/46 120/156/102 117/148/99
f 102/158/93 121/159/103 43/157/43
f 122/160/104 121/159/103 102/158/93
f 102/158/93 103/161/94 122/160/104
f 123/162/105 122/160/104 103/161/94
f 124/163/106 123/162/105 106/164/97
f 106/164/97 121/165/103 124/163/106
f 105/166/96 106/164/97 123/162/105
f 43/152/43 121/165/103 106/164/97
f 123/162/105 103/161/94 105/166/96
