# Blender v2.78 (sub 0) OBJ File: ''
# www.blender.org
mtllib Sallanan_at.mtl
o Curve_Curve.228
v 0.081155 0.015000 -0.108705
v 0.089720 0.015000 -0.115933
v 0.088485 0.015000 -0.115834
v 0.087058 0.015000 -0.099280
v 0.068315 0.015000 -0.092078
v 0.089672 0.015000 -0.093689
v 0.098317 0.015000 -0.084266
v 0.116122 0.015000 -0.066796
v -0.086766 0.015000 -0.072952
v -0.075020 0.015000 -0.075829
v -0.080615 0.015000 -0.076247
v 0.049342 0.015000 -0.062792
v -0.070226 0.015000 -0.071826
v -0.064057 0.015000 -0.061973
v 0.121502 0.015000 -0.057978
v -0.102548 0.015000 -0.051897
v 0.090787 0.015000 -0.055124
v 0.039051 0.015000 -0.047413
v 0.084939 0.015000 -0.055505
v 0.121495 0.015000 -0.050354
v -0.074942 0.015000 -0.049598
v -0.051321 0.015000 -0.037292
v 0.113112 0.015000 -0.047314
v -0.078499 0.015000 -0.048369
v -0.070068 0.015000 -0.046090
v 0.085636 0.015000 -0.011673
v 0.117693 0.015000 -0.047502
v -0.112984 0.015000 -0.040663
v 0.036579 0.015000 -0.042636
v -0.096048 0.015000 -0.030689
v 0.036065 0.015000 -0.038011
v -0.065269 0.015000 -0.036563
v -0.122643 0.015000 -0.035069
v 0.033039 0.015000 -0.034585
v -0.071547 0.015000 -0.021753
v -0.040981 0.015000 -0.032222
v -0.133248 0.015000 -0.033402
v 0.024245 0.015000 -0.030479
v -0.135871 0.015000 -0.032356
v -0.030360 0.015000 -0.029088
v -0.131031 0.015000 -0.028156
v 0.003622 0.015000 -0.027344
v -0.017246 0.015000 -0.027479
v -0.104691 0.015000 -0.023430
v -0.122254 0.015000 -0.023114
v -0.112895 0.015000 -0.022214
v -0.077927 0.015000 -0.000498
v 0.083084 0.015000 0.010419
v 0.079462 0.015000 0.023132
v -0.086316 0.015000 0.048585
v -0.046900 0.015000 0.025531
v -0.034603 0.015000 0.033644
v 0.060093 0.015000 0.036224
v 0.092542 0.015000 0.050926
v -0.015297 0.015000 0.040107
v 0.051249 0.015000 0.039626
v 0.036958 0.015000 0.042750
v -0.119417 0.015000 0.052148
v -0.138122 0.015000 0.037981
v 0.008289 0.015000 0.043202
v -0.132593 0.015000 0.064328
v 0.087884 0.015000 0.082028
v 0.128575 0.015000 0.052614
v 0.150298 0.015000 0.052967
v 0.136103 0.015000 0.043688
v -0.074534 0.015000 0.078228
v 0.117383 0.015000 0.063298
v 0.137191 0.015000 0.068217
v -0.090009 0.015000 0.063467
v -0.092633 0.015000 0.069693
v 0.103588 0.015000 0.071394
v 0.105763 0.015000 0.071522
v -0.101715 0.015000 0.085701
v 0.111894 0.015000 0.089108
v -0.070459 0.015000 0.081460
v 0.077448 0.015000 0.086928
v -0.050462 0.015000 0.088890
v 0.062037 0.015000 0.092422
v -0.030400 0.015000 0.093649
v -0.075182 0.015000 0.098885
v 0.035447 0.015000 0.097109
v -0.002305 0.015000 0.097364
v 0.083351 0.015000 0.104149
v -0.050034 0.015000 0.108248
v 0.056760 0.015000 0.112731
v -0.020293 0.015000 0.115194
v 0.035654 0.015000 0.116436
v -0.003246 0.015000 0.116540
v 0.089720 0.000000 -0.115933
v 0.081155 0.000000 -0.108705
v 0.088485 0.000000 -0.115834
v 0.087058 0.000000 -0.099280
v 0.068315 0.000000 -0.092078
v 0.089672 0.000000 -0.093689
v 0.098317 0.000000 -0.084266
v 0.116122 0.000000 -0.066796
v -0.075020 0.000000 -0.075829
v -0.086766 0.000000 -0.072952
v -0.080615 0.000000 -0.076247
v 0.049342 0.000000 -0.062792
v -0.068475 0.000000 -0.069813
v 0.121502 0.000000 -0.057978
v -0.102548 0.000000 -0.051897
v 0.090787 0.000000 -0.055124
v 0.084939 0.000000 -0.055505
v 0.039051 0.000000 -0.047413
v 0.121495 0.000000 -0.050354
v -0.074942 0.000000 -0.049598
v -0.051321 0.000000 -0.037292
v 0.113112 0.000000 -0.047314
v -0.078499 0.000000 -0.048369
v -0.070068 0.000000 -0.046090
v 0.085636 0.000000 -0.011673
v 0.117693 0.000000 -0.047502
v -0.112984 0.000000 -0.040663
v 0.036579 0.000000 -0.042636
v -0.096048 0.000000 -0.030689
v 0.036065 0.000000 -0.038011
v -0.065269 0.000000 -0.036563
v -0.122643 0.000000 -0.035069
v 0.033039 0.000000 -0.034585
v -0.071547 0.000000 -0.021753
v -0.040981 0.000000 -0.032222
v -0.133248 0.000000 -0.033402
v 0.024245 0.000000 -0.030479
v -0.135871 0.000000 -0.032356
v -0.030360 0.000000 -0.029088
v -0.131031 0.000000 -0.028156
v 0.003622 0.000000 -0.027344
v -0.017246 0.000000 -0.027479
v -0.104691 0.000000 -0.023430
v -0.122254 0.000000 -0.023114
v -0.112895 0.000000 -0.022214
v -0.077927 0.000000 -0.000498
v 0.083084 -0.000000 0.010419
v 0.079462 -0.000000 0.023132
v -0.046900 -0.000000 0.025531
v -0.086316 -0.000000 0.048585
v -0.034603 -0.000000 0.033644
v 0.060093 -0.000000 0.036224
v 0.092542 -0.000000 0.050926
v -0.015297 -0.000000 0.040107
v 0.051249 -0.000000 0.039626
v 0.036958 -0.000000 0.042750
v -0.119417 -0.000000 0.052148
v -0.149907 -0.000000 0.048083
v -0.138122 -0.000000 0.037981
v 0.008289 -0.000000 0.043202
v -0.132593 -0.000000 0.064327
v 0.087884 -0.000000 0.082028
v 0.150298 -0.000000 0.052967
v 0.128575 -0.000000 0.052614
v 0.136103 -0.000000 0.043688
v -0.074534 -0.000000 0.078228
v 0.117383 -0.000000 0.063298
v 0.137191 -0.000000 0.068217
v -0.090009 -0.000000 0.063467
v -0.092633 -0.000000 0.069693
v 0.103588 -0.000000 0.071394
v 0.105763 -0.000000 0.071522
v -0.101715 -0.000000 0.085701
v 0.111894 -0.000000 0.089108
v -0.070483 -0.000000 0.081449
v 0.077448 -0.000000 0.086928
v -0.050462 -0.000000 0.088890
v 0.062037 -0.000000 0.092422
v -0.030400 -0.000000 0.093649
v -0.075182 -0.000000 0.098885
v 0.035447 -0.000000 0.097109
v -0.002305 -0.000000 0.097364
v 0.083351 -0.000000 0.104149
v -0.050034 -0.000000 0.108248
v 0.056760 -0.000000 0.112731
v -0.020293 -0.000000 0.115194
v 0.035654 -0.000000 0.116436
v -0.003246 -0.000000 0.116540
v 0.086926 0.000000 -0.096624
v 0.087170 0.015000 -0.096343
v 0.118147 0.015000 -0.064616
v 0.120290 0.000000 -0.062116
v 0.089682 0.015000 -0.116540
v 0.122270 0.015000 -0.051685
v 0.114709 0.015000 -0.046755
v 0.118763 0.000000 -0.046159
v 0.085159 0.015000 -0.056559
v 0.085158 0.000000 -0.056609
v 0.135953 0.015000 0.044262
v 0.136369 -0.000000 0.044527
v 0.104320 0.015000 0.073027
v -0.031815 0.015000 0.114496
v -0.014126 -0.000000 0.116231
v 0.047943 0.015000 0.115609
v -0.117698 0.015000 0.076518
v -0.071861 -0.000000 0.101719
v -0.149915 0.015000 0.048038
v -0.151147 -0.000000 0.049422
v -0.138173 0.015000 0.038167
v -0.138395 -0.000000 0.038058
v -0.104214 0.015000 -0.023482
v -0.103286 0.000000 -0.023909
v -0.075805 0.015000 -0.050675
v -0.122254 0.015000 -0.022688
v -0.119943 0.000000 -0.022306
v -0.135960 0.015000 -0.032725
v -0.136398 0.000000 -0.032499
v 0.036787 0.015000 -0.043651
v 0.035354 0.000000 -0.040236
v 0.035195 0.015000 -0.036183
v -0.044080 0.015000 0.090876
v -0.029106 -0.000000 0.095301
v -0.073552 0.015000 0.079357
v 0.016408 0.015000 0.098712
v 0.088226 0.015000 0.083187
v 0.050082 -0.000000 0.095773
v 0.089489 0.000000 -0.116458
v 0.085635 0.015000 -0.012111
v 0.085637 0.000000 -0.011311
v 0.079900 0.015000 0.024082
v 0.079840 -0.000000 0.023983
v 0.103820 -0.000000 0.072311
v 0.151117 0.015000 0.053466
v 0.151147 -0.000000 0.053550
v 0.106974 0.015000 0.092608
v 0.105044 -0.000000 0.093773
v 0.047345 -0.000000 0.115600
v -0.091780 0.015000 0.069636
v -0.091727 -0.000000 0.069565
v -0.078079 0.015000 0.000215
v -0.077787 0.000000 -0.001133
v -0.065591 0.015000 -0.037379
v -0.065539 0.000000 -0.037331
v -0.075743 0.000000 -0.050565
v -0.114778 0.015000 -0.037840
v -0.114191 0.000000 -0.038294
v -0.086961 0.015000 -0.072749
v -0.086599 0.000000 -0.073118
v -0.073608 0.015000 -0.076667
v -0.073340 0.000000 -0.076484
v -0.050264 0.015000 -0.036567
v -0.049036 0.000000 -0.035950
v -0.025711 0.015000 -0.028084
v -0.024718 0.000000 -0.027956
v 0.016372 0.015000 -0.028170
v 0.018033 0.000000 -0.028450
v 0.075285 0.015000 -0.102155
v 0.075716 0.000000 -0.102705
v -0.047044 -0.000000 0.025943
v -0.047056 0.015000 0.026025
v -0.073137 -0.000000 0.079592
v 0.088046 -0.000000 0.082388
v 0.037438 0.015000 0.042696
v 0.036441 -0.000000 0.042803
v -0.004274 0.015000 0.042523
v -0.006091 -0.000000 0.042281
vt 0.7940 0.0707
vt 0.8029 0.0532
vt 0.8032 0.0554
vt 0.7756 0.0644
vt 0.7709 0.0991
vt 0.7651 0.0622
vt 0.7457 0.0512
vt 0.7089 0.0279
vt 0.8000 0.3705
vt 0.8002 0.3494
vt 0.8032 0.3587
vt 0.7287 0.1431
vt 0.7915 0.3428
vt 0.7724 0.3362
vt 0.6918 0.0223
vt 0.7706 0.4057
vt 0.6992 0.0756
vt 0.7067 0.1667
vt 0.7022 0.0854
vt 0.6789 0.0253
vt 0.7557 0.3597
vt 0.7254 0.3244
vt 0.6771 0.0408
vt 0.7550 0.3662
vt 0.7478 0.3528
vt 0.6275 0.1017
vt 0.6756 0.0329
vt 0.7556 0.4279
vt 0.6995 0.1728
vt 0.7320 0.4031
vt 0.6919 0.1755
vt 0.7297 0.3484
vt 0.7500 0.4466
vt 0.6873 0.1820
vt 0.7071 0.3650
vt 0.7127 0.3088
vt 0.7514 0.4653
vt 0.6838 0.1986
vt 0.7506 0.4702
vt 0.7031 0.2920
vt 0.7416 0.4636
vt 0.6867 0.2349
vt 0.6952 0.2704
vt 0.7231 0.4207
vt 0.7295 0.4507
vt 0.7243 0.4351
vt 0.6735 0.3843
vt 0.5910 0.1148
vt 0.5708 0.1261
vt 0.5935 0.4181
vt 0.6170 0.3419
vt 0.5983 0.3242
vt 0.5563 0.1642
vt 0.5184 0.1149
vt 0.5797 0.2940
vt 0.5540 0.1806
vt 0.5544 0.2062
vt 0.6196 0.5261
vt 0.6006 0.4758
vt 0.6321 0.5020
vt 0.5650 0.2551
vt 0.5852 0.5031
vt 0.4675 0.1352
vt 0.5013 0.0543
vt 0.4920 0.0175
vt 0.5134 0.0379
vt 0.5385 0.4099
vt 0.4876 0.0776
vt 0.4713 0.0458
vt 0.5697 0.4303
vt 0.5602 0.4373
vt 0.4793 0.1042
vt 0.4782 0.1006
vt 0.5366 0.4591
vt 0.4459 0.0972
vt 0.5314 0.4042
vt 0.4633 0.1549
vt 0.5108 0.3732
vt 0.4601 0.1833
vt 0.4948 0.3410
vt 0.5037 0.4192
vt 0.4627 0.2304
vt 0.4773 0.2947
vt 0.4317 0.1517
vt 0.4778 0.3802
vt 0.4277 0.2003
vt 0.4542 0.3324
vt 0.4298 0.2377
vt 0.4451 0.3039
vt 0.3925 0.4903
vt 0.3837 0.4728
vt 0.3929 0.4882
vt 0.3653 0.4791
vt 0.3606 0.4444
vt 0.3548 0.4814
vt 0.3354 0.4923
vt 0.2986 0.5156
vt 0.3899 0.1942
vt 0.3897 0.1730
vt 0.3929 0.1848
vt 0.3184 0.4005
vt 0.3771 0.2029
vt 0.2815 0.5213
vt 0.3602 0.1378
vt 0.2889 0.4679
vt 0.2919 0.4581
vt 0.2964 0.3768
vt 0.2686 0.5182
vt 0.3454 0.1838
vt 0.3151 0.2191
vt 0.2668 0.5028
vt 0.3447 0.1773
vt 0.3375 0.1907
vt 0.2172 0.4418
vt 0.2653 0.5106
vt 0.3453 0.1156
vt 0.2892 0.3707
vt 0.3217 0.1404
vt 0.2816 0.3680
vt 0.3194 0.1951
vt 0.3397 0.0969
vt 0.2770 0.3615
vt 0.2967 0.1785
vt 0.3024 0.2347
vt 0.3410 0.0782
vt 0.2735 0.3449
vt 0.3403 0.0734
vt 0.2928 0.2515
vt 0.3313 0.0799
vt 0.2764 0.3086
vt 0.2849 0.2732
vt 0.3128 0.1228
vt 0.3192 0.0928
vt 0.3140 0.1084
vt 0.2632 0.1592
vt 0.1807 0.4287
vt 0.1605 0.4175
vt 0.2067 0.2016
vt 0.1832 0.1254
vt 0.1880 0.2193
vt 0.1460 0.3793
vt 0.1081 0.4287
vt 0.1694 0.2496
vt 0.1437 0.3629
vt 0.1441 0.3374
vt 0.1903 0.0677
vt 0.2093 0.0175
vt 0.2218 0.0415
vt 0.1547 0.2884
vt 0.1749 0.0404
vt 0.0572 0.4084
vt 0.0817 0.5261
vt 0.0910 0.4893
vt 0.1031 0.5056
vt 0.1282 0.1336
vt 0.0773 0.4660
vt 0.0610 0.4977
vt 0.1594 0.1132
vt 0.1499 0.1063
vt 0.0690 0.4393
vt 0.0679 0.4429
vt 0.1263 0.0844
vt 0.0356 0.4464
vt 0.1211 0.1393
vt 0.0530 0.3887
vt 0.1005 0.1703
vt 0.0498 0.3603
vt 0.0845 0.2026
vt 0.0934 0.1243
vt 0.0524 0.3132
vt 0.0670 0.2489
vt 0.0214 0.3918
vt 0.0675 0.1634
vt 0.0174 0.3432
vt 0.0439 0.2112
vt 0.0195 0.3058
vt 0.0348 0.2396
vt 0.6274 0.8704
vt 0.5451 0.8697
vt 0.5451 0.7926
vt 0.6274 0.7870
vt 0.9802 0.1433
vt 0.9802 0.2258
vt 0.9552 0.1431
vt 0.5450 0.7724
vt 0.3884 0.5610
vt 0.3884 0.6437
vt 0.3728 0.5620
vt 0.8975 0.4436
vt 0.8975 0.5261
vt 0.8447 0.4436
vt 0.9115 0.2607
vt 0.9115 0.3432
vt 0.8380 0.2607
vt 0.0174 0.7980
vt 0.0998 0.8260
vt 0.0176 0.9176
vt 0.0175 0.6355
vt 0.0997 0.7268
vt 0.0176 0.5615
vt 0.0999 0.5610
vt 0.8621 0.9000
vt 0.8621 0.9825
vt 0.8360 0.9001
vt 0.1349 0.8288
vt 0.2172 0.8305
vt 0.1348 0.8970
vt 0.9230 0.6193
vt 0.9188 0.7017
vt 0.8970 0.6192
vt 0.9526 0.6194
vt 0.9526 0.7019
vt 0.2522 0.7182
vt 0.3345 0.7245
vt 0.2521 0.7302
vt 0.4277 0.6919
vt 0.5100 0.6666
vt 0.4279 0.7441
vt 0.4277 0.6027
vt 0.7449 0.8701
vt 0.6626 0.8116
vt 0.7449 0.7717
vt 0.9556 0.2255
vt 0.8970 0.8193
vt 0.8977 0.7368
vt 0.9488 0.7368
vt 0.9490 0.8193
vt 0.3694 0.6446
vt 0.8380 0.5261
vt 0.8979 0.9367
vt 0.8970 0.8542
vt 0.9434 0.8546
vt 0.9434 0.9371
vt 0.8380 0.0175
vt 0.9204 0.0179
vt 0.9204 0.1059
vt 0.8381 0.1042
vt 0.9471 0.3432
vt 0.9464 0.2607
vt 0.9769 0.2608
vt 0.9769 0.3433
vt 0.8384 0.3432
vt 0.1349 0.5610
vt 0.2173 0.5610
vt 0.2171 0.6638
vt 0.1348 0.6677
vt 0.2173 0.7701
vt 0.1350 0.7708
vt 0.5101 0.8767
vt 0.4277 0.8764
vt 0.4277 0.7791
vt 0.5101 0.7790
vt 0.0999 0.9168
vt 0.8329 0.9825
vt 0.6626 0.5613
vt 0.7449 0.5610
vt 0.7448 0.6714
vt 0.6625 0.6738
vt 0.7449 0.7367
vt 0.6626 0.7368
vt 0.9826 0.0175
vt 0.9826 0.0999
vt 0.9552 0.0999
vt 0.9553 0.0175
vt 0.7797 0.7368
vt 0.8621 0.7377
vt 0.8621 0.7674
vt 0.7798 0.7686
vt 0.2171 0.8970
vt 0.2170 0.8057
vt 0.8621 0.8454
vt 0.7798 0.8462
vt 0.8621 0.8651
vt 0.7798 0.8651
vt 0.6277 0.7368
vt 0.5453 0.7375
vt 0.5450 0.6610
vt 0.6274 0.6585
vt 0.5451 0.6188
vt 0.6274 0.6172
vt 0.5453 0.5630
vt 0.6277 0.5610
vt 0.3345 0.7593
vt 0.2522 0.7614
vt 0.2522 0.5963
vt 0.3345 0.5950
vt 0.2522 0.5610
vt 0.3345 0.5613
vt 0.2521 0.7967
vt 0.3345 0.7964
vt 0.3345 0.8898
vt 0.2521 0.8899
vt 0.9204 0.2246
vt 0.8380 0.2258
vt 0.8381 0.1409
vt 0.9204 0.1408
vt 0.5102 0.7429
vt 0.5102 0.5610
vt 0.6626 0.8707
vt 0.9324 0.5261
vt 0.9327 0.4436
vt 0.9708 0.4436
vt 0.9720 0.5261
vt 0.8621 0.7006
vt 0.7798 0.7019
vt 0.7797 0.6397
vt 0.8621 0.6369
vt 0.7798 0.5610
vt 0.8621 0.5610
vn 0.0000 1.0000 0.0000
vn -0.0000 -1.0000 -0.0000
vn 0.9503 -0.0123 -0.3110
vn 0.9460 -0.0135 -0.3239
vn 0.8408 0.0345 -0.5402
vn 0.9255 -0.0445 -0.3761
vn 0.4454 -0.0143 -0.8952
vn 0.9526 0.0423 0.3013
vn 0.0641 0.0638 0.9959
vn 0.5120 -0.0875 0.8545
vn 0.5904 -0.0029 0.8071
vn 0.5909 -0.0125 0.8066
vn -0.1051 -0.0214 -0.9942
vn -0.0821 -0.0090 -0.9966
vn 0.1763 0.0283 -0.9839
vn -0.2106 -0.0605 0.9757
vn -0.0641 0.0300 0.9975
vn 0.1899 0.0102 0.9818
vn -0.5419 -0.1791 0.8211
vn -0.3936 0.1895 0.8995
vn -0.9947 0.0888 -0.0511
vn -0.9981 0.0185 0.0587
vn -0.0465 0.0105 -0.9989
vn -0.0647 0.0015 -0.9979
vn 0.3921 0.0130 0.9198
vn 0.4301 -0.0009 0.9028
vn -0.0713 0.0088 0.9974
vn -0.2973 0.0026 0.9548
vn -0.2120 -0.0236 0.9770
vn -0.9783 0.0413 -0.2032
vn -0.9866 -0.0067 -0.1629
vn -0.9122 0.0057 -0.4096
vn -0.7402 0.0416 -0.6711
vn -0.7649 0.0820 -0.6389
vn 0.3078 0.0267 -0.9511
vn 0.1720 -0.0731 -0.9824
vn 0.9318 0.0212 -0.3623
vn -0.0109 0.1036 -0.9946
vn -0.9279 -0.0252 -0.3721
vn -0.1934 -0.1729 -0.9658
vn 0.4365 -0.0102 -0.8997
vn 0.9974 0.0008 0.0717
vn 0.9970 0.0008 0.0775
vn 0.9884 -0.0015 -0.1517
vn 0.9888 -0.0015 -0.1489
vn 0.2210 0.0424 -0.9743
vn 0.9959 -0.0108 -0.0901
vn 0.9964 -0.0108 -0.0842
vn 0.5318 -0.0032 0.8469
vn 0.5032 -0.0017 0.8642
vn 0.1830 0.0023 0.9831
vn -0.3782 -0.0003 -0.9257
vn -0.3832 -0.0003 -0.9237
vn -0.9676 0.0002 -0.2526
vn -0.9657 0.0005 -0.2598
vn -0.9860 0.0018 0.1666
vn -0.9864 0.0018 0.1644
vn -0.0751 0.0063 0.9972
vn -0.5336 -0.0006 -0.8458
vn -0.5505 -0.0010 -0.8349
vn -0.5563 -0.0039 -0.8310
vn -0.5452 -0.0037 -0.8383
vn 0.3678 0.0185 -0.9297
vn 0.3829 0.0189 -0.9236
vn 0.6448 0.0166 -0.7642
vn 0.6141 0.0149 -0.7891
vn 0.1654 0.0022 -0.9862
vn 0.1516 0.0024 -0.9884
vn -0.2334 0.0491 -0.9712
vn -0.2668 0.0556 -0.9622
vn -0.7783 -0.0099 -0.6278
vn -0.7744 -0.0090 -0.6326
vn 0.3605 0.0183 0.9326
vn 0.3627 0.0183 0.9317
vn 0.9220 0.0070 -0.3870
vn -0.9481 0.0351 -0.3159
vn -0.3681 -0.0089 0.9297
vn 0.1388 -0.0047 0.9903
vn 0.1269 -0.0047 0.9919
vn -0.1760 0.0036 0.9844
vn -0.2036 0.0048 0.9790
usemtl None
s off
f 1/1/1 2/2/1 3/3/1
f 1/1/1 4/4/1 2/2/1
f 5/5/1 4/4/1 1/1/1
f 5/5/1 6/6/1 4/4/1
f 5/5/1 7/7/1 6/6/1
f 5/5/1 8/8/1 7/7/1
f 9/9/1 10/10/1 11/11/1
f 12/12/1 8/8/1 5/5/1
f 9/9/1 13/13/1 10/10/1
f 9/9/1 14/14/1 13/13/1
f 12/12/1 15/15/1 8/8/1
f 16/16/1 14/14/1 9/9/1
f 12/12/1 17/17/1 15/15/1
f 18/18/1 19/19/1 12/12/1
f 19/19/1 17/17/1 12/12/1
f 17/17/1 20/20/1 15/15/1
f 16/16/1 21/21/1 14/14/1
f 21/21/1 22/22/1 14/14/1
f 23/23/1 20/20/1 17/17/1
f 16/16/1 24/24/1 21/21/1
f 25/25/1 22/22/1 21/21/1
f 18/18/1 26/26/1 19/19/1
f 23/23/1 27/27/1 20/20/1
f 28/28/1 24/24/1 16/16/1
f 29/29/1 26/26/1 18/18/1
f 28/28/1 30/30/1 24/24/1
f 31/31/1 26/26/1 29/29/1
f 32/32/1 22/22/1 25/25/1
f 33/33/1 30/30/1 28/28/1
f 34/34/1 26/26/1 31/31/1
f 35/35/1 22/22/1 32/32/1
f 35/35/1 36/36/1 22/22/1
f 37/37/1 30/30/1 33/33/1
f 38/38/1 26/26/1 34/34/1
f 39/39/1 30/30/1 37/37/1
f 35/35/1 40/40/1 36/36/1
f 41/41/1 30/30/1 39/39/1
f 42/42/1 26/26/1 38/38/1
f 35/35/1 43/43/1 40/40/1
f 35/35/1 42/42/1 43/43/1
f 35/35/1 26/26/1 42/42/1
f 41/41/1 44/44/1 30/30/1
f 45/45/1 44/44/1 41/41/1
f 45/45/1 46/46/1 44/44/1
f 47/47/1 26/26/1 35/35/1
f 47/47/1 48/48/1 26/26/1
f 47/47/1 49/49/1 48/48/1
f 50/50/1 51/51/1 47/47/1
f 51/51/1 49/49/1 47/47/1
f 52/52/1 49/49/1 51/51/1
f 52/52/1 53/53/1 49/49/1
f 53/53/1 54/54/1 49/49/1
f 55/55/1 53/53/1 52/52/1
f 55/55/1 56/56/1 53/53/1
f 55/55/1 57/57/1 56/56/1
f 195/58/1 58/59/1 59/60/1
f 60/61/1 57/57/1 55/55/1
f 61/62/1 58/59/1 195/58/1
f 62/63/1 54/54/1 53/53/1
f 63/64/1 64/65/1 65/66/1
f 50/50/1 66/67/1 51/51/1
f 67/68/1 64/65/1 63/64/1
f 67/68/1 68/69/1 64/65/1
f 69/70/1 66/67/1 50/50/1
f 61/62/1 70/71/1 58/59/1
f 62/63/1 71/72/1 54/54/1
f 72/73/1 68/69/1 67/68/1
f 70/71/1 66/67/1 69/70/1
f 61/62/1 66/67/1 70/71/1
f 62/63/1 72/73/1 71/72/1
f 62/63/1 68/69/1 72/73/1
f 73/74/1 66/67/1 61/62/1
f 62/63/1 74/75/1 68/69/1
f 73/74/1 75/76/1 66/67/1
f 76/77/1 74/75/1 62/63/1
f 73/74/1 77/78/1 75/76/1
f 78/79/1 74/75/1 76/77/1
f 73/74/1 79/80/1 77/78/1
f 80/81/1 79/80/1 73/74/1
f 81/82/1 74/75/1 78/79/1
f 80/81/1 82/83/1 79/80/1
f 81/82/1 83/84/1 74/75/1
f 82/83/1 83/84/1 81/82/1
f 80/81/1 83/84/1 82/83/1
f 84/85/1 83/84/1 80/81/1
f 84/85/1 85/86/1 83/84/1
f 86/87/1 85/86/1 84/85/1
f 86/87/1 87/88/1 85/86/1
f 88/89/1 87/88/1 86/87/1
f 89/90/2 90/91/2 91/92/2
f 92/93/2 90/91/2 89/90/2
f 92/93/2 93/94/2 90/91/2
f 94/95/2 93/94/2 92/93/2
f 95/96/2 93/94/2 94/95/2
f 96/97/2 93/94/2 95/96/2
f 97/98/2 98/99/2 99/100/2
f 96/97/2 100/101/2 93/94/2
f 101/102/2 98/99/2 97/98/2
f 102/103/2 100/101/2 96/97/2
f 101/102/2 103/104/2 98/99/2
f 104/105/2 100/101/2 102/103/2
f 105/106/2 106/107/2 100/101/2
f 104/105/2 105/106/2 100/101/2
f 107/108/2 104/105/2 102/103/2
f 108/109/2 103/104/2 101/102/2
f 109/110/2 108/109/2 101/102/2
f 107/108/2 110/111/2 104/105/2
f 111/112/2 103/104/2 108/109/2
f 109/110/2 112/113/2 108/109/2
f 113/114/2 106/107/2 105/106/2
f 114/115/2 110/111/2 107/108/2
f 111/112/2 115/116/2 103/104/2
f 113/114/2 116/117/2 106/107/2
f 117/118/2 115/116/2 111/112/2
f 113/114/2 118/119/2 116/117/2
f 109/110/2 119/120/2 112/113/2
f 117/118/2 120/121/2 115/116/2
f 113/114/2 121/122/2 118/119/2
f 109/110/2 122/123/2 119/120/2
f 123/124/2 122/123/2 109/110/2
f 117/118/2 124/125/2 120/121/2
f 113/114/2 125/126/2 121/122/2
f 117/118/2 126/127/2 124/125/2
f 127/128/2 122/123/2 123/124/2
f 117/118/2 128/129/2 126/127/2
f 113/114/2 129/130/2 125/126/2
f 130/131/2 122/123/2 127/128/2
f 129/130/2 122/123/2 130/131/2
f 113/114/2 122/123/2 129/130/2
f 131/132/2 128/129/2 117/118/2
f 131/132/2 132/133/2 128/129/2
f 133/134/2 132/133/2 131/132/2
f 113/114/2 134/135/2 122/123/2
f 135/136/2 134/135/2 113/114/2
f 136/137/2 134/135/2 135/136/2
f 137/138/2 138/139/2 134/135/2
f 136/137/2 137/138/2 134/135/2
f 136/137/2 139/140/2 137/138/2
f 140/141/2 139/140/2 136/137/2
f 141/142/2 140/141/2 136/137/2
f 140/141/2 142/143/2 139/140/2
f 143/144/2 142/143/2 140/141/2
f 144/145/2 142/143/2 143/144/2
f 145/146/2 146/147/2 147/148/2
f 144/145/2 148/149/2 142/143/2
f 145/146/2 149/150/2 146/147/2
f 141/142/2 150/151/2 140/141/2
f 151/152/2 152/153/2 153/154/2
f 154/155/2 138/139/2 137/138/2
f 151/152/2 155/156/2 152/153/2
f 156/157/2 155/156/2 151/152/2
f 154/155/2 157/158/2 138/139/2
f 158/159/2 149/150/2 145/146/2
f 159/160/2 150/151/2 141/142/2
f 156/157/2 160/161/2 155/156/2
f 154/155/2 158/159/2 157/158/2
f 154/155/2 149/150/2 158/159/2
f 160/161/2 150/151/2 159/160/2
f 156/157/2 150/151/2 160/161/2
f 154/155/2 161/162/2 149/150/2
f 162/163/2 150/151/2 156/157/2
f 163/164/2 161/162/2 154/155/2
f 162/163/2 164/165/2 150/151/2
f 165/166/2 161/162/2 163/164/2
f 162/163/2 166/167/2 164/165/2
f 167/168/2 161/162/2 165/166/2
f 167/168/2 168/169/2 161/162/2
f 162/163/2 169/170/2 166/167/2
f 170/171/2 168/169/2 167/168/2
f 171/172/2 169/170/2 162/163/2
f 171/172/2 170/171/2 169/170/2
f 171/172/2 168/169/2 170/171/2
f 171/172/2 172/173/2 168/169/2
f 173/174/2 172/173/2 171/172/2
f 173/174/2 174/175/2 172/173/2
f 175/176/2 174/175/2 173/174/2
f 175/176/2 176/177/2 174/175/2
s 1
f 177/178/3 178/179/4 179/180/5 180/181/6
f 178/182/4 177/183/3 181/184/7
f 182/185/8 180/181/6 179/180/5
f 183/186/9 184/187/10 182/188/8
f 185/189/11 186/190/12 183/191/9
f 187/192/13 188/193/14 189/194/15
f 190/195/16 191/196/17 192/197/18
f 193/198/19 194/199/20 190/195/16
f 195/200/21 196/201/22 193/198/19
f 197/202/23 198/203/24 195/204/21
f 199/205/25 200/206/26 201/207/27
f 202/208/28 203/209/29 199/210/25
f 204/211/30 205/212/31 202/208/28
f 206/213/32 207/214/33 208/215/34
f 209/216/35 210/217/36 211/218/37
f 212/219/38 210/217/36 209/216/35
f 213/220/39 214/221/40 212/222/38
f 181/184/7 177/183/3 215/223/41
f 186/224/12 185/225/11 216/226/42 217/227/43
f 182/188/8 184/187/10 180/228/6
f 183/191/9 186/190/12 184/229/10
f 217/230/43 216/231/42 218/232/44 219/233/45
f 219/234/45 218/235/44 189/236/15 220/237/46
f 188/238/14 187/239/13 221/240/47 222/241/48
f 189/194/15 188/193/14 220/242/46
f 222/243/48 221/244/47 223/245/49 224/246/50
f 224/246/50 223/245/49 192/247/18 225/248/51
f 198/249/24 197/250/23 226/251/52 227/252/53
f 192/197/18 191/196/17 225/253/51
f 190/195/16 194/199/20 191/196/17
f 193/198/19 196/201/22 194/199/20
f 195/204/21 198/203/24 196/254/22
f 227/255/53 226/256/52 228/257/54 229/258/55
f 229/258/55 228/257/54 230/259/56 231/260/57
f 231/261/57 230/262/56 201/263/27 232/264/58
f 205/265/31 204/266/30 233/267/59 234/268/60
f 201/207/27 200/206/26 232/269/58
f 199/205/25 203/270/29 200/206/26
f 202/208/28 205/212/31 203/209/29
f 234/268/60 233/267/59 235/271/61 236/272/62
f 236/272/62 235/271/61 237/273/63 238/274/64
f 238/275/64 237/276/63 239/277/65 240/278/66
f 240/278/66 239/277/65 241/279/67 242/280/68
f 242/280/68 241/279/67 243/281/69 244/282/70
f 244/283/70 243/284/69 208/215/34 207/214/33
f 207/214/33 206/213/32 245/285/71 246/286/72
f 246/286/72 245/285/71 181/287/7 215/288/41
f 247/289/73 248/290/74 211/291/37 249/292/75
f 250/293/76 213/294/39 53/295/77 140/296/77
f 211/218/37 210/217/36 249/297/75
f 212/219/38 214/298/40 210/217/36
f 213/220/39 250/299/76 214/221/40
f 140/300/77 53/301/77 251/302/78 252/303/79
f 252/304/79 251/305/78 253/306/80 254/307/81
f 254/307/81 253/306/80 248/308/74 247/309/73
