# Blender v2.78 (sub 0) OBJ File: ''
# www.blender.org
mtllib Starbucks_logo.mtl
o Curve_Curve.3436
v -0.021396 0.015000 -0.148817
v 0.010491 0.015000 -0.149982
v -0.007718 0.015000 -0.150152
v 0.022672 0.015000 -0.148691
v 0.034886 0.015000 -0.146327
v -0.039486 0.015000 -0.145154
v 0.046831 0.015000 -0.142957
v -0.056580 0.015000 -0.139207
v 0.058416 0.015000 -0.138604
v 0.069612 0.015000 -0.133283
v -0.073290 0.015000 -0.131140
v 0.080660 0.015000 -0.126831
v -0.088147 0.015000 -0.121393
v 0.093055 0.015000 -0.117964
v -0.097553 0.015000 -0.113828
v 0.105359 0.015000 -0.107007
v -0.110888 0.015000 -0.100723
v 0.116343 0.015000 -0.094823
v -0.121016 0.015000 -0.088098
v 0.125926 0.015000 -0.081517
v -0.130875 0.015000 -0.072606
v 0.134010 0.015000 -0.067215
v -0.138523 0.015000 -0.056179
v 0.140916 0.015000 -0.050985
v -0.143239 0.015000 -0.042360
v 0.145963 0.015000 -0.033841
v -0.146673 0.015000 -0.027872
v 0.148730 0.015000 -0.017459
v -0.148657 0.015000 -0.013811
v -0.148957 0.015000 0.001498
v 0.148957 0.015000 0.013716
v -0.148600 0.015000 0.013907
v -0.146370 0.015000 0.029142
v 0.146380 0.015000 0.031564
v -0.142031 0.015000 0.045987
v 0.141070 0.015000 0.050201
v -0.135895 0.015000 0.062008
v 0.135823 0.015000 0.062988
v 0.128940 0.015000 0.076246
v -0.127995 0.015000 0.077122
v 0.119839 0.015000 0.089787
v -0.118345 0.015000 0.091291
v 0.108664 0.015000 0.103280
v -0.107307 0.015000 0.104095
v 0.091532 0.015000 0.118831
v -0.094418 0.015000 0.116112
v -0.081835 0.015000 0.125372
v 0.072327 0.015000 0.131479
v -0.071130 0.015000 0.131819
v -0.059855 0.015000 0.137359
v 0.051370 0.015000 0.141031
v -0.048013 0.015000 0.141991
v 0.034728 0.015000 0.145915
v -0.035451 0.015000 0.145738
v 0.023276 0.015000 0.148173
v -0.021685 0.015000 0.148354
v 0.007348 0.015000 0.149821
v -0.010264 0.015000 0.149630
v 0.010491 0.000000 -0.149982
v -0.021396 0.000000 -0.148817
v -0.007718 0.000000 -0.150152
v 0.022672 0.000000 -0.148691
v 0.034886 0.000000 -0.146327
v -0.039486 0.000000 -0.145154
v 0.046831 0.000000 -0.142957
v -0.056580 0.000000 -0.139207
v 0.058416 0.000000 -0.138604
v 0.069612 0.000000 -0.133283
v -0.073290 0.000000 -0.131140
v 0.080660 0.000000 -0.126831
v -0.088147 0.000000 -0.121393
v 0.093055 0.000000 -0.117964
v -0.097553 0.000000 -0.113828
v 0.105359 0.000000 -0.107007
v -0.110888 0.000000 -0.100723
v 0.116343 0.000000 -0.094823
v -0.121016 0.000000 -0.088098
v 0.125926 0.000000 -0.081517
v -0.130875 0.000000 -0.072606
v 0.134010 0.000000 -0.067215
v -0.138523 0.000000 -0.056179
v 0.140916 0.000000 -0.050985
v -0.143239 0.000000 -0.042360
v 0.145963 0.000000 -0.033841
v -0.146673 0.000000 -0.027872
v 0.148730 0.000000 -0.017459
v -0.148657 0.000000 -0.013811
v -0.148957 -0.000000 0.001498
v 0.148957 -0.000000 0.013716
v -0.148600 -0.000000 0.013907
v -0.146370 -0.000000 0.029142
v 0.146380 -0.000000 0.031564
v -0.142031 -0.000000 0.045987
v 0.141070 -0.000000 0.050201
v -0.135895 -0.000000 0.062008
v 0.135823 -0.000000 0.062988
v 0.128940 -0.000000 0.076246
v -0.127995 -0.000000 0.077122
v 0.119839 -0.000000 0.089787
v -0.118345 -0.000000 0.091291
v 0.108664 -0.000000 0.103280
v -0.107307 -0.000000 0.104095
v 0.091532 -0.000000 0.118831
v -0.094418 -0.000000 0.116112
v -0.081835 -0.000000 0.125372
v 0.072327 -0.000000 0.131479
v -0.071130 -0.000000 0.131819
v -0.059855 -0.000000 0.137359
v 0.051370 -0.000000 0.141031
v -0.048013 -0.000000 0.141991
v 0.034728 -0.000000 0.145915
v -0.035451 -0.000000 0.145738
v 0.023276 -0.000000 0.148173
v -0.021685 -0.000000 0.148354
v 0.007348 -0.000000 0.149821
v -0.010264 -0.000000 0.149630
v 0.148645 0.015000 -0.019209
v 0.148782 0.015000 0.019568
v 0.148953 -0.000000 0.013822
v 0.063578 0.015000 -0.137017
v 0.059594 0.000000 -0.138805
v 0.018882 0.015000 -0.149695
v 0.098624 0.015000 -0.113595
v 0.094331 0.000000 -0.117210
v 0.125746 0.015000 -0.082887
v 0.117243 0.000000 -0.094048
v 0.142944 0.015000 -0.045295
v 0.134732 0.000000 -0.066244
v 0.145341 0.000000 -0.036812
v 0.137673 0.015000 0.059787
v 0.143106 -0.000000 0.046063
v 0.113601 0.015000 0.098892
v 0.119572 -0.000000 0.091680
v 0.073959 0.015000 0.131059
v 0.081037 -0.000000 0.126781
v 0.036170 0.015000 0.145863
v 0.038832 -0.000000 0.145447
v -0.039640 0.015000 0.144778
v -0.026822 -0.000000 0.147749
v -0.007705 0.015000 0.150152
v -0.078791 0.015000 0.128331
v -0.054961 -0.000000 0.139548
v -0.148854 0.015000 0.011035
v -0.148392 -0.000000 0.023130
v -0.144323 0.015000 0.039001
v -0.072268 0.015000 -0.131766
v -0.085535 0.000000 -0.124109
v -0.093946 0.015000 -0.117093
v -0.045664 0.015000 -0.143496
v -0.046223 0.000000 -0.143394
v -0.012736 0.000000 -0.150024
v -0.014059 0.015000 -0.149906
v 0.017801 0.000000 -0.149681
v 0.002416 -0.000000 0.149973
v -0.085440 -0.000000 0.123512
v -0.112590 0.015000 0.098672
v -0.114115 -0.000000 0.096904
v -0.131804 0.015000 0.070877
v -0.132924 -0.000000 0.068734
v -0.148008 0.015000 -0.023875
v -0.147851 0.000000 -0.025211
v -0.134888 0.015000 -0.065281
v -0.133940 0.000000 -0.067233
v -0.115041 0.015000 -0.096326
v -0.114251 0.000000 -0.097197
vt 0.7141 0.5380
vt 0.7642 0.5406
vt 0.7355 0.5406
vt 0.7833 0.5385
vt 0.8026 0.5346
vt 0.6857 0.5313
vt 0.8214 0.5289
vt 0.6589 0.5207
vt 0.8397 0.5215
vt 0.8574 0.5124
vt 0.6327 0.5063
vt 0.8748 0.5013
vt 0.6095 0.4891
vt 0.8945 0.4861
vt 0.5948 0.4757
vt 0.9140 0.4671
vt 0.5741 0.4526
vt 0.9314 0.4461
vt 0.5583 0.4305
vt 0.9467 0.4230
vt 0.5431 0.4033
vt 0.9596 0.3982
vt 0.5313 0.3745
vt 0.9707 0.3700
vt 0.5241 0.3503
vt 0.9789 0.3401
vt 0.5189 0.3250
vt 0.9835 0.3116
vt 0.5160 0.3004
vt 0.5157 0.2737
vt 0.9843 0.2572
vt 0.5165 0.2520
vt 0.5202 0.2255
vt 0.9805 0.2260
vt 0.5273 0.1962
vt 0.9724 0.1934
vt 0.5371 0.1683
vt 0.9644 0.1710
vt 0.9537 0.1478
vt 0.5498 0.1421
vt 0.9396 0.1240
vt 0.5652 0.1175
vt 0.9222 0.1003
vt 0.5827 0.0954
vt 0.8955 0.0729
vt 0.6032 0.0746
vt 0.6231 0.0586
vt 0.8655 0.0505
vt 0.6400 0.0476
vt 0.6578 0.0381
vt 0.8327 0.0335
vt 0.6765 0.0302
vt 0.8066 0.0247
vt 0.6963 0.0239
vt 0.7887 0.0206
vt 0.7180 0.0195
vt 0.7636 0.0174
vt 0.7360 0.0175
vt 0.2358 0.5406
vt 0.2859 0.5380
vt 0.2645 0.5406
vt 0.2167 0.5385
vt 0.1974 0.5346
vt 0.3143 0.5313
vt 0.1786 0.5289
vt 0.3411 0.5207
vt 0.1603 0.5215
vt 0.1426 0.5124
vt 0.3673 0.5063
vt 0.1252 0.5013
vt 0.3905 0.4891
vt 0.1055 0.4861
vt 0.4052 0.4757
vt 0.0860 0.4671
vt 0.4259 0.4526
vt 0.0686 0.4461
vt 0.4417 0.4305
vt 0.0533 0.4230
vt 0.4569 0.4033
vt 0.0404 0.3982
vt 0.4687 0.3745
vt 0.0293 0.3700
vt 0.4759 0.3503
vt 0.0211 0.3401
vt 0.4811 0.3250
vt 0.0165 0.3116
vt 0.4840 0.3004
vt 0.4843 0.2737
vt 0.0157 0.2572
vt 0.4835 0.2520
vt 0.4798 0.2255
vt 0.0195 0.2260
vt 0.4727 0.1962
vt 0.0276 0.1934
vt 0.4629 0.1683
vt 0.0356 0.1710
vt 0.0463 0.1478
vt 0.4502 0.1421
vt 0.0604 0.1240
vt 0.4348 0.1175
vt 0.0778 0.1003
vt 0.4173 0.0954
vt 0.1045 0.0729
vt 0.3968 0.0746
vt 0.3769 0.0586
vt 0.1345 0.0505
vt 0.3600 0.0476
vt 0.3422 0.0381
vt 0.1673 0.0335
vt 0.3235 0.0302
vt 0.1934 0.0247
vt 0.3037 0.0239
vt 0.2113 0.0206
vt 0.2820 0.0195
vt 0.2364 0.0174
vt 0.2640 0.0175
vt 0.1214 0.7521
vt 0.1423 0.7490
vt 0.1423 0.8166
vt 0.1214 0.8066
vt 0.0162 0.6368
vt 0.0371 0.6438
vt 0.0159 0.7148
vt 0.0168 0.5755
vt 0.0376 0.5830
vt 0.1424 0.6368
vt 0.1216 0.6169
vt 0.1425 0.5820
vt 0.1423 0.7032
vt 0.1215 0.6663
vt 0.1214 0.7181
vt 0.1424 0.8862
vt 0.1215 0.8625
vt 0.1425 0.9533
vt 0.1216 0.9410
vt 0.1740 0.7949
vt 0.1949 0.8089
vt 0.1741 0.8775
vt 0.1740 0.7243
vt 0.1949 0.7290
vt 0.1741 0.5984
vt 0.1950 0.6182
vt 0.1740 0.6489
vt 0.0691 0.9108
vt 0.0900 0.9506
vt 0.0691 0.9733
vt 0.0691 0.6730
vt 0.0899 0.6908
vt 0.0690 0.7176
vt 0.0158 0.8738
vt 0.0368 0.8969
vt 0.0160 0.9115
vt 0.0157 0.8274
vt 0.0366 0.8285
vt 0.0366 0.7701
vt 0.0157 0.7723
vt 0.0368 0.7168
vt 0.1217 0.5755
vt 0.1949 0.6659
vt 0.1951 0.8911
vt 0.0900 0.8973
vt 0.0691 0.8347
vt 0.0900 0.8307
vt 0.1951 0.5755
vt 0.0690 0.7758
vt 0.0899 0.7716
vt 0.0691 0.6237
vt 0.0900 0.6220
vt 0.0691 0.5773
vt 0.0900 0.5755
vt 0.0376 0.9810
vt 0.0167 0.9826
vt 0.0163 0.9481
vt 0.0372 0.9468
vn 0.0000 1.0000 0.0000
vn 0.0000 -1.0000 -0.0000
vn 0.9966 -0.0018 -0.0829
vn 0.9945 0.0076 -0.1045
vn 0.9924 -0.0054 0.1227
vn 0.9977 -0.0163 0.0656
vn 0.4309 0.0044 -0.9024
vn 0.3791 0.0022 -0.9254
vn 0.1396 -0.0027 -0.9902
vn 0.6609 0.0116 -0.7504
vn 0.6155 0.0023 -0.7882
vn 0.8389 -0.0083 -0.5442
vn 0.7710 0.0117 -0.6367
vn 0.9498 0.0074 -0.3129
vn 0.9037 0.0241 -0.4274
vn 0.9691 -0.0012 -0.2466
vn 0.9074 -0.0232 0.4197
vn 0.9528 0.0277 0.3024
vn 0.7333 -0.0134 0.6798
vn 0.8062 0.0076 0.5916
vn 0.4807 -0.0072 0.8768
vn 0.5626 0.0086 0.8267
vn 0.2245 0.0324 0.9739
vn 0.2583 0.0206 0.9658
vn -0.2755 0.0082 0.9613
vn -0.1783 0.0011 0.9840
vn -0.0373 -0.0105 0.9992
vn -0.5268 -0.0197 0.8497
vn -0.3753 0.0197 0.9267
vn -0.9994 0.0090 0.0337
vn -0.9877 0.0298 0.1535
vn -0.9545 -0.0082 0.2980
vn -0.4653 -0.0217 -0.8849
vn -0.5738 0.0094 -0.8189
vn -0.6542 0.0064 -0.7563
vn -0.2992 0.0020 -0.9542
vn -0.3102 -0.0097 -0.9506
vn -0.0891 0.0009 -0.9960
vn -0.1012 0.0016 -0.9949
vn 0.1271 -0.0101 -0.9918
vn 0.0517 -0.0012 0.9987
vn -0.6038 -0.0141 0.7970
vn -0.7458 0.0105 0.6661
vn -0.7613 0.0085 0.6483
vn -0.8848 -0.0189 0.4656
vn -0.8962 -0.0231 0.4430
vn -0.9877 -0.0148 -0.1560
vn -0.9849 -0.0134 -0.1725
vn -0.9080 0.0005 -0.4189
vn -0.8978 0.0008 -0.4404
vn -0.7742 -0.0092 -0.6329
vn -0.7668 -0.0105 -0.6418
usemtl None
s off
f 1/1/1 2/2/1 3/3/1
f 1/1/1 4/4/1 2/2/1
f 1/1/1 5/5/1 4/4/1
f 6/6/1 5/5/1 1/1/1
f 6/6/1 7/7/1 5/5/1
f 8/8/1 7/7/1 6/6/1
f 8/8/1 9/9/1 7/7/1
f 8/8/1 10/10/1 9/9/1
f 11/11/1 10/10/1 8/8/1
f 11/11/1 12/12/1 10/10/1
f 13/13/1 12/12/1 11/11/1
f 13/13/1 14/14/1 12/12/1
f 15/15/1 14/14/1 13/13/1
f 15/15/1 16/16/1 14/14/1
f 17/17/1 16/16/1 15/15/1
f 17/17/1 18/18/1 16/16/1
f 19/19/1 18/18/1 17/17/1
f 19/19/1 20/20/1 18/18/1
f 21/21/1 20/20/1 19/19/1
f 21/21/1 22/22/1 20/20/1
f 23/23/1 22/22/1 21/21/1
f 23/23/1 24/24/1 22/22/1
f 25/25/1 24/24/1 23/23/1
f 25/25/1 26/26/1 24/24/1
f 27/27/1 26/26/1 25/25/1
f 27/27/1 28/28/1 26/26/1
f 29/29/1 28/28/1 27/27/1
f 30/30/1 28/28/1 29/29/1
f 30/30/1 31/31/1 28/28/1
f 32/32/1 31/31/1 30/30/1
f 33/33/1 31/31/1 32/32/1
f 33/33/1 34/34/1 31/31/1
f 35/35/1 34/34/1 33/33/1
f 35/35/1 36/36/1 34/34/1
f 37/37/1 36/36/1 35/35/1
f 37/37/1 38/38/1 36/36/1
f 37/37/1 39/39/1 38/38/1
f 40/40/1 39/39/1 37/37/1
f 40/40/1 41/41/1 39/39/1
f 42/42/1 41/41/1 40/40/1
f 42/42/1 43/43/1 41/41/1
f 44/44/1 43/43/1 42/42/1
f 44/44/1 45/45/1 43/43/1
f 46/46/1 45/45/1 44/44/1
f 47/47/1 45/45/1 46/46/1
f 47/47/1 48/48/1 45/45/1
f 49/49/1 48/48/1 47/47/1
f 50/50/1 48/48/1 49/49/1
f 50/50/1 51/51/1 48/48/1
f 52/52/1 51/51/1 50/50/1
f 52/52/1 53/53/1 51/51/1
f 54/54/1 53/53/1 52/52/1
f 54/54/1 55/55/1 53/53/1
f 56/56/1 55/55/1 54/54/1
f 56/56/1 57/57/1 55/55/1
f 58/58/1 57/57/1 56/56/1
f 59/59/2 60/60/2 61/61/2
f 62/62/2 60/60/2 59/59/2
f 63/63/2 60/60/2 62/62/2
f 63/63/2 64/64/2 60/60/2
f 65/65/2 64/64/2 63/63/2
f 65/65/2 66/66/2 64/64/2
f 67/67/2 66/66/2 65/65/2
f 68/68/2 66/66/2 67/67/2
f 68/68/2 69/69/2 66/66/2
f 70/70/2 69/69/2 68/68/2
f 70/70/2 71/71/2 69/69/2
f 72/72/2 71/71/2 70/70/2
f 72/72/2 73/73/2 71/71/2
f 74/74/2 73/73/2 72/72/2
f 74/74/2 75/75/2 73/73/2
f 76/76/2 75/75/2 74/74/2
f 76/76/2 77/77/2 75/75/2
f 78/78/2 77/77/2 76/76/2
f 78/78/2 79/79/2 77/77/2
f 80/80/2 79/79/2 78/78/2
f 80/80/2 81/81/2 79/79/2
f 82/82/2 81/81/2 80/80/2
f 82/82/2 83/83/2 81/81/2
f 84/84/2 83/83/2 82/82/2
f 84/84/2 85/85/2 83/83/2
f 86/86/2 85/85/2 84/84/2
f 86/86/2 87/87/2 85/85/2
f 86/86/2 88/88/2 87/87/2
f 89/89/2 88/88/2 86/86/2
f 89/89/2 90/90/2 88/88/2
f 89/89/2 91/91/2 90/90/2
f 92/92/2 91/91/2 89/89/2
f 92/92/2 93/93/2 91/91/2
f 94/94/2 93/93/2 92/92/2
f 94/94/2 95/95/2 93/93/2
f 96/96/2 95/95/2 94/94/2
f 97/97/2 95/95/2 96/96/2
f 97/97/2 98/98/2 95/95/2
f 99/99/2 98/98/2 97/97/2
f 99/99/2 100/100/2 98/98/2
f 101/101/2 100/100/2 99/99/2
f 101/101/2 102/102/2 100/100/2
f 103/103/2 102/102/2 101/101/2
f 103/103/2 104/104/2 102/102/2
f 103/103/2 105/105/2 104/104/2
f 106/106/2 105/105/2 103/103/2
f 106/106/2 107/107/2 105/105/2
f 106/106/2 108/108/2 107/107/2
f 109/109/2 108/108/2 106/106/2
f 109/109/2 110/110/2 108/108/2
f 111/111/2 110/110/2 109/109/2
f 111/111/2 112/112/2 110/110/2
f 113/113/2 112/112/2 111/111/2
f 113/113/2 114/114/2 112/112/2
f 115/115/2 114/114/2 113/113/2
f 115/115/2 116/116/2 114/114/2
s 1
f 86/117/3 117/118/4 118/119/5 119/120/6
f 120/121/7 121/122/8 122/123/9
f 123/124/10 124/125/11 120/121/7
f 125/126/12 126/127/13 123/128/10
f 127/129/14 128/130/15 125/126/12
f 117/118/4 129/131/16 127/129/14
f 130/132/17 131/133/18 118/119/5
f 132/134/19 133/135/20 130/132/17
f 134/136/21 135/137/22 132/138/19
f 136/139/23 137/140/24 134/136/21
f 138/141/25 139/142/26 140/143/27
f 141/144/28 142/145/29 138/146/25
f 143/147/30 144/148/31 145/149/32
f 146/150/33 147/151/34 148/152/35
f 149/153/36 150/154/37 146/150/33
f 122/123/9 151/155/38 152/156/39
f 122/123/9 121/122/8 153/157/40
f 120/121/7 124/125/11 121/122/8
f 123/128/10 126/127/13 124/158/11
f 125/126/12 128/130/15 126/127/13
f 127/129/14 129/131/16 128/130/15
f 117/118/4 86/117/3 129/131/16
f 137/140/24 136/139/23 140/143/27 154/159/41
f 118/119/5 131/133/18 119/120/6
f 130/132/17 133/135/20 131/133/18
f 132/138/19 135/137/22 133/160/20
f 134/136/21 137/140/24 135/137/22
f 155/161/42 141/144/28 156/162/43 157/163/44
f 140/143/27 139/142/26 154/159/41
f 138/141/25 142/164/29 139/142/26
f 141/144/28 155/161/42 142/145/29
f 157/163/44 156/162/43 158/165/45 159/166/46
f 159/166/46 158/165/45 145/149/32 144/148/31
f 144/148/31 143/147/30 160/167/47 161/168/48
f 161/168/48 160/167/47 162/169/49 163/170/50
f 163/171/50 162/172/49 164/173/51 165/174/52
f 165/174/52 164/173/51 148/152/35 147/151/34
f 150/154/37 149/153/36 152/156/39 151/155/38
f 146/150/33 150/154/37 147/151/34
f 122/123/9 153/157/40 151/155/38
