# Blender v2.78 (sub 0) OBJ File: ''
# www.blender.org
mtllib Visne.mtl
o fg_cherry.003
v 0.118393 0.079076 -0.147046
v 0.087532 0.082752 -0.060938
v 0.069408 0.097173 -0.152256
v 0.054527 0.099526 -0.146944
v 0.102097 0.090133 -0.065749
v 0.064064 0.084360 -0.154519
v 0.094343 0.103789 0.039065
v 0.104222 0.074995 -0.067424
v 0.074299 0.091958 0.037556
v 0.101772 0.084438 0.036255
v 0.077083 0.025800 0.155068
v 0.131093 0.085014 0.173377
v 0.080529 0.100650 0.182267
v 0.029323 0.091184 0.169283
v 0.117072 0.008619 0.081478
v 0.041334 0.013211 0.078431
v 0.107770 0.036292 0.036803
v 0.057451 0.039343 0.034780
v 0.028572 0.080600 0.030865
v 0.054644 0.070452 0.024257
v 0.115143 0.066784 0.026691
v 0.133548 0.123500 0.031657
v 0.168211 0.067623 0.079209
v 0.141636 0.073745 0.035414
v 0.156247 0.145793 0.073334
v 0.090183 0.184266 0.068275
v 0.089596 0.148088 0.028361
v 0.153268 0.148914 0.127945
v 0.165064 0.071850 0.133737
v 0.042876 0.128998 0.028009
v 0.088140 0.186841 0.122958
v 0.019772 0.154069 0.067843
v 0.123937 0.131760 0.169863
v 0.018725 0.157072 0.122532
v -0.001968 0.077942 0.072364
v 0.084430 0.154767 0.166838
v -0.002707 0.082023 0.126988
v 0.042323 0.136709 0.166580
v 0.018047 0.074392 -0.047976
v 0.037808 0.070548 -0.041063
v 0.059865 0.103646 -0.158151
v -0.063938 0.079241 0.050192
v 0.061276 0.085483 -0.161342
v -0.097178 0.087388 0.050598
v 0.018179 0.057661 -0.050642
v -0.094334 0.076873 0.043196
v 0.075780 0.099803 -0.154529
v -0.097962 0.023926 0.109011
v -0.138962 0.092438 0.111168
v -0.039598 0.104841 0.128518
v -0.162984 0.060465 0.075153
v -0.017768 0.026015 0.078733
v -0.155313 0.037171 0.026886
v -0.070005 -0.004534 0.032853
v -0.005736 0.045854 0.030960
v -0.040441 0.025559 0.000478
v 0.005515 0.094639 0.038261
v -0.072468 0.049034 -0.030231
v -0.046652 0.051833 -0.018007
v -0.015163 0.135175 0.016883
v -0.001531 0.101860 0.088940
v -0.033521 0.165887 0.055787
v -0.004925 0.076235 0.018642
v -0.089650 0.169884 0.004239
v -0.052198 0.136940 -0.017075
v -0.071136 0.167962 0.095835
v -0.077700 0.098603 -0.038043
v -0.126470 0.171903 0.045018
v -0.127649 0.110840 -0.026886
v -0.111922 0.139803 0.116977
v -0.092790 0.101514 0.136803
v -0.163931 0.113695 0.014332
v -0.118907 0.033217 -0.014151
v -0.145486 0.142194 0.086151
v -0.168211 0.106884 0.067538
v 0.120423 0.099463 -0.149400
v 0.004638 0.125219 -0.181899
v -0.010900 0.120744 -0.145809
v 0.116912 0.099798 -0.126291
v -0.027054 0.090768 -0.152086
v 0.085828 0.090263 0.034881
v 0.088223 0.121170 0.021933
v -0.038662 0.083837 0.002108
v -0.039661 0.112280 -0.015312
v -0.012374 0.083855 -0.182267
vt 0.1659 0.9233
vt 0.1892 0.8891
vt 0.1983 0.9170
vt 0.2370 0.0775
vt 0.2265 0.1238
vt 0.2189 0.1211
vt 0.2436 0.0809
vt 0.2639 0.0754
vt 0.2458 0.0319
vt 0.2518 0.0295
vt 0.2389 0.0303
vt 0.2729 0.0726
vt 0.2300 0.0295
vt 0.2712 0.1230
vt 0.2569 0.1235
vt 0.2995 0.0798
vt 0.3002 0.1233
vt 0.2921 0.0805
vt 0.3071 0.1230
vt 0.2845 0.0295
vt 0.2755 0.0298
vt 0.6104 0.7987
vt 0.7100 0.7371
vt 0.7221 0.8119
vt 0.9399 0.2410
vt 0.8617 0.2889
vt 0.8402 0.2352
vt 0.6931 0.8817
vt 0.9752 0.3413
vt 0.6607 0.9248
vt 0.4966 0.9308
vt 0.4488 0.8293
vt 0.5564 0.8305
vt 0.5625 0.8465
vt 0.8824 0.3641
vt 0.3705 0.8803
vt 0.3721 0.8051
vt 0.9521 0.4110
vt 0.5362 0.7608
vt 0.4647 0.7600
vt 0.4140 0.7446
vt 0.8929 0.4254
vt 0.2469 0.8997
vt 0.2566 0.8606
vt 0.2957 0.8490
vt 0.2874 0.7775
vt 0.2465 0.7747
vt 0.2282 0.7390
vt 0.1202 0.5202
vt 0.1752 0.4400
vt 0.1857 0.5014
vt 0.0721 0.4696
vt 0.7390 0.5265
vt 0.8045 0.5030
vt 0.8229 0.5386
vt 0.6551 0.6020
vt 0.6909 0.4997
vt 0.7557 0.5897
vt 0.7165 0.5943
vt 0.0528 0.3940
vt 0.1545 0.3649
vt 0.7540 0.6553
vt 0.6481 0.6398
vt 0.5723 0.6428
vt 0.6340 0.5375
vt 0.7135 0.6936
vt 0.1701 0.6986
vt 0.1117 0.6866
vt 0.1889 0.6228
vt 0.5584 0.5420
vt 0.0714 0.3289
vt 0.1330 0.3112
vt 0.1313 0.6110
vt 0.0712 0.7366
vt 0.0030 0.6576
vt 0.8329 0.6245
vt 0.5017 0.6398
vt 0.4933 0.5786
vt 0.5605 0.7331
vt 0.1389 0.7406
vt 0.2006 0.7621
vt 0.1510 0.8154
vt 0.2220 0.8232
vt 0.0020 0.7181
vt 0.0241 0.5824
vt 0.8232 0.6636
vt 0.1871 0.8780
vt 0.4946 0.6946
vt 0.1215 0.5451
vt 0.1221 0.8851
vt 0.0565 0.5277
vt 0.0880 0.0793
vt 0.0981 0.0759
vt 0.1059 0.1375
vt 0.0471 0.0295
vt 0.1252 0.0793
vt 0.1318 0.1375
vt 0.1227 0.1373
vt 0.0298 0.0295
vt 0.1168 0.0789
vt 0.1262 0.0321
vt 0.1319 0.0295
vt 0.1914 0.0879
vt 0.2101 0.0295
vt 0.2001 0.0909
vt 0.1490 0.1373
vt 0.1340 0.1346
vt 0.1141 0.1357
vt 0.2161 0.0311
vt 0.2462 0.4231
vt 0.3623 0.4346
vt 0.3314 0.4975
vt 0.3771 0.3607
vt 0.2713 0.5237
vt 0.2595 0.3112
vt 0.4068 0.7406
vt 0.3062 0.6868
vt 0.3223 0.6254
vt 0.1918 0.3776
vt 0.4524 0.6406
vt 0.7282 0.6976
vt 0.8458 0.7462
vt 0.7346 0.7542
vt 0.3740 0.5671
vt 0.8294 0.8192
vt 0.9135 0.7987
vt 0.8743 0.8541
vt 0.4863 0.5852
vt 0.7574 0.8234
vt 0.4353 0.5375
vt 0.7909 0.8451
vt 0.8449 0.8870
vt 0.4710 0.5523
vt 0.7626 0.3115
vt 0.6533 0.2835
vt 0.7225 0.2723
vt 0.7158 0.3444
vt 0.5358 0.3595
vt 0.5749 0.4043
vt 0.5646 0.4378
vt 0.4225 0.3331
vt 0.5028 0.3104
vt 0.5067 0.4061
vt 0.4830 0.3757
vt 0.6583 0.3974
vt 0.5966 0.3374
vt 0.4563 0.4405
vt 0.7857 0.4247
vt 0.7272 0.4766
vt 0.3832 0.4324
vt 0.9923 0.2066
vt 0.8930 0.2312
vt 0.9980 0.1480
vt 0.6184 0.4477
vt 0.5811 0.4113
vt 0.9001 0.1724
vt 0.4146 0.5335
vt 0.8004 0.1338
vt 0.7918 0.1921
vt 0.5116 0.4918
vt 0.6602 0.4957
vt 0.9644 0.0811
vt 0.9355 0.0019
vt 0.9779 0.0393
vt 0.9046 0.0325
vt 0.4759 0.5053
vt 0.8445 0.0724
vt 0.9050 0.0958
vt 0.9520 0.4294
vt 0.9980 0.5987
vt 0.9454 0.6192
vt 0.3019 0.7467
vt 0.3644 0.9299
vt 0.3033 0.9161
vt 0.9196 0.4342
vt 0.3297 0.7446
vt 0.2421 0.7196
vt 0.1951 0.7351
vt 0.2492 0.5347
vt 0.2151 0.5277
vt 0.2966 0.7351
vt 0.2556 0.7130
vt 0.2986 0.5277
vt 0.0782 0.7874
vt 0.1159 0.8265
vt 0.0388 0.7917
vt 0.1059 0.7406
vt 0.0020 0.8822
vt 0.0206 0.8305
vt 0.0343 0.9162
vt 0.0497 0.8644
vt 0.0991 0.8621
vt 0.0461 0.9162
vt 0.0412 0.8305
vt 0.1055 0.9360
vt 0.1587 0.8896
vt 0.1466 0.9507
vt 0.1061 0.8891
vn 0.4385 0.0374 0.8980
vn 0.4902 -0.8708 0.0385
vn 0.6202 0.5673 -0.5417
vn -0.9858 0.0736 0.1508
vn 0.6502 0.7404 -0.1703
vn -0.8879 0.2433 0.3904
vn 0.5243 0.8399 -0.1402
vn 0.3409 -0.9000 -0.2718
vn 0.3838 0.9175 -0.1046
vn 0.5341 -0.8405 -0.0909
vn -0.9885 -0.1105 -0.1034
vn 0.6870 -0.7218 0.0834
vn -0.0743 -0.7725 0.6306
vn 0.5299 -0.2216 0.8186
vn -0.0402 0.1273 0.9911
vn 0.9185 -0.2886 0.2702
vn -0.6157 -0.1529 0.7730
vn 0.4355 -0.8640 -0.2526
vn -0.9644 -0.1757 0.1974
vn -0.5204 -0.8013 -0.2952
vn 0.8554 -0.1413 -0.4983
vn -0.8250 -0.0412 -0.5636
vn 0.2306 -0.4132 -0.8810
vn -0.2133 -0.3868 -0.8972
vn -0.4141 -0.0659 -0.9079
vn 0.4702 -0.1272 -0.8733
vn 0.0153 0.0985 -0.9950
vn 0.0556 0.0994 -0.9935
vn 0.3378 0.2067 -0.9182
vn 0.4703 -0.1272 -0.8733
vn 0.7093 0.4937 -0.5031
vn 0.0668 0.8238 -0.5629
vn 0.0378 0.1821 -0.9825
vn 0.0520 0.3114 -0.9489
vn 0.7771 0.5797 0.2451
vn -0.2328 0.2369 -0.9432
vn 0.0490 0.9788 0.1991
vn -0.6033 0.5723 -0.5555
vn 0.4430 0.4181 0.7931
vn 0.5300 -0.2215 0.8186
vn -0.7192 0.6697 0.1851
vn 0.0154 0.0986 -0.9950
vn 0.0039 0.6456 0.7636
vn -0.0401 0.1274 0.9910
vn -0.4140 -0.0659 -0.9079
vn -0.9645 -0.1757 0.1974
vn -0.4578 0.4665 0.7568
vn -0.4748 0.8382 -0.2681
vn 0.8134 0.1500 0.5620
vn -0.6417 0.7654 -0.0491
vn 0.6312 0.0726 0.7722
vn -0.3549 -0.8575 -0.3725
vn -0.2890 0.8441 -0.4516
vn -0.4172 -0.8097 -0.4128
vn -0.4729 -0.7555 -0.4535
vn 0.9028 0.1967 0.3824
vn -0.2803 -0.7184 0.6367
vn -0.2146 0.0870 0.9728
vn -0.7312 0.0329 0.6814
vn 0.5623 0.1760 0.8080
vn -0.8724 -0.3836 0.3030
vn 0.7269 -0.6305 0.2724
vn -0.7516 -0.5664 -0.3380
vn -0.0115 -0.9475 -0.3195
vn 0.9470 0.2902 0.1379
vn -0.2843 -0.3404 -0.8963
vn 0.8272 -0.3252 -0.4583
vn 0.4305 -0.4849 -0.7613
vn 0.9186 0.0922 -0.3842
vn 0.1365 -0.2124 -0.9676
vn 0.5753 0.0141 -0.8178
vn 0.4885 -0.0162 -0.8724
vn 0.7031 0.3999 -0.5880
vn 0.9186 0.0923 -0.3842
vn 0.5513 0.8192 -0.1580
vn -0.0133 0.7243 -0.6894
vn 0.5029 0.0522 -0.8628
vn 0.2625 0.3699 -0.8912
vn 0.1356 0.8871 0.4413
vn 0.0533 0.1794 -0.9823
vn -0.4704 0.8736 -0.1246
vn -0.2676 0.2175 -0.9387
vn -0.4094 0.5657 0.7158
vn -0.2147 0.0870 0.9728
vn -0.8501 0.2588 -0.4587
vn -0.2842 -0.3404 -0.8963
vn 0.4885 -0.0163 -0.8724
vn -0.7422 0.5474 0.3865
vn 0.1366 -0.2125 -0.9676
vn -0.9628 0.1914 0.1909
vn 0.6203 0.5673 -0.5417
vn -0.4637 0.6592 -0.5920
vn -0.2534 0.9052 0.3412
vn -0.1615 -0.3617 -0.9182
vn 0.4385 0.0375 0.8979
vn 0.4902 -0.8707 0.0385
vn -0.7998 -0.3968 0.4504
vn 0.0400 0.1022 -0.9940
vn 0.0153 0.0986 -0.9950
vn 0.0378 0.1820 -0.9826
vn 0.5317 -0.0049 -0.8469
vn -0.7999 -0.3967 0.4503
vn -0.1614 -0.3617 -0.9182
usemtl None
s off
f 79/1/1 1/2/2 76/3/3
s 1
f 2/4/4 3/5/5 4/6/6
f 2/4/4 5/7/7 3/5/5
f 2/8/4 4/9/6 6/10/8
f 2/4/4 7/11/9 5/7/7
f 2/8/4 6/10/8 8/12/10
f 2/4/4 9/13/11 7/11/9
f 2/8/4 8/12/10 10/14/12
f 2/8/4 10/14/12 9/15/11
f 8/16/10 3/17/5 5/18/7
f 8/16/10 6/19/8 3/17/5
f 8/16/10 5/18/7 10/20/12
f 10/20/12 5/18/7 7/21/9
f 11/22/13 12/23/14 13/24/15
f 11/25/13 29/26/16 12/27/14
f 11/22/13 13/24/15 14/28/17
f 11/25/13 15/29/18 29/26/16
f 11/22/13 14/28/17 37/30/19
f 11/31/13 16/32/20 15/33/18
f 11/22/13 37/30/19 16/34/20
f 29/26/16 15/29/18 23/35/21
f 37/36/19 35/37/22 16/32/20
f 15/29/18 17/38/23 23/35/21
f 15/33/18 16/32/20 17/39/23
f 35/37/22 18/40/24 16/32/20
f 35/37/22 19/41/25 18/40/24
f 16/32/20 18/40/24 17/39/23
f 23/35/21 17/38/23 24/42/26
f 19/43/25 20/44/27 18/45/24
f 17/46/23 21/47/28 24/48/26
f 17/46/23 18/45/24 21/47/28
f 21/47/28 18/45/24 20/44/27
f 22/49/29 23/50/21 24/51/30
f 22/49/29 25/52/31 23/50/21
f 22/53/29 24/54/30 21/55/28
f 22/53/29 26/56/32 25/57/31
f 22/53/29 21/55/28 82/58/33
f 22/53/29 27/59/34 26/56/32
f 22/53/29 82/58/33 27/59/34
f 23/50/21 25/52/31 28/60/35
f 23/50/21 28/60/35 29/61/16
f 26/56/32 27/59/34 30/62/36
f 26/63/32 31/64/37 25/65/31
f 26/56/32 30/62/36 32/66/38
f 26/67/32 32/68/38 31/69/37
f 25/65/31 31/64/37 28/70/35
f 27/59/34 82/58/33 30/62/36
f 29/61/16 28/60/35 33/71/39
f 29/61/16 33/71/39 12/72/40
f 32/68/38 34/73/41 31/69/37
f 32/68/38 30/74/36 35/75/22
f 32/68/38 35/75/22 34/73/41
f 82/58/33 20/76/42 30/62/36
f 28/70/35 36/77/43 33/78/39
f 28/70/35 31/64/37 36/77/43
f 31/64/37 34/79/41 36/77/43
f 12/80/40 33/81/39 13/82/44
f 33/81/39 36/83/43 13/82/44
f 35/75/22 30/74/36 19/84/45
f 35/75/22 37/85/46 34/73/41
f 19/86/45 30/62/36 20/76/42
f 36/83/43 38/87/47 13/82/44
f 36/77/43 34/79/41 38/88/47
f 34/73/41 37/85/46 38/89/47
f 13/82/44 38/87/47 14/90/17
f 14/91/17 38/89/47 37/85/46
f 39/92/48 40/93/49 41/94/50
f 39/92/48 42/95/51 40/93/49
f 39/96/48 41/97/50 43/98/52
f 39/92/48 44/99/53 42/95/51
f 39/96/48 43/98/52 45/100/54
f 39/96/48 46/101/55 44/102/53
f 39/96/48 45/100/54 46/101/55
f 45/103/54 43/104/52 40/105/49
f 45/103/54 42/106/51 46/107/55
f 45/103/54 40/105/49 42/106/51
f 41/94/50 40/93/49 47/108/56
f 47/109/56 40/105/49 43/104/52
f 48/110/57 71/111/58 49/112/59
f 48/110/57 50/113/60 71/111/58
f 48/110/57 49/112/59 51/114/61
f 48/110/57 52/115/62 50/113/60
f 48/116/57 51/117/61 53/118/63
f 48/110/57 54/119/64 52/115/62
f 48/116/57 53/118/63 54/120/64
f 50/121/60 52/122/62 61/123/65
f 53/118/63 73/124/66 54/120/64
f 52/122/62 55/125/67 61/123/65
f 52/122/62 54/126/64 56/127/68
f 52/122/62 56/127/68 55/125/67
f 54/120/64 73/124/66 56/128/68
f 61/123/65 55/125/67 57/129/69
f 73/124/66 58/130/70 56/128/68
f 55/125/67 63/131/71 57/129/69
f 55/125/67 56/127/68 59/132/72
f 55/125/67 59/132/72 63/131/71
f 59/133/72 56/128/68 58/130/70
f 60/134/73 61/135/65 57/136/74
f 60/134/73 62/137/75 61/135/65
f 60/138/73 57/139/74 63/140/71
f 60/138/73 64/141/76 62/142/75
f 60/138/73 63/140/71 84/143/77
f 60/138/73 65/144/78 64/141/76
f 60/138/73 84/143/77 65/144/78
f 61/135/65 62/137/75 66/145/79
f 61/135/65 66/145/79 50/146/60
f 64/141/76 65/144/78 67/147/80
f 64/148/76 68/149/81 62/137/75
f 64/141/76 67/147/80 69/150/82
f 64/151/76 69/152/82 68/153/81
f 62/137/75 68/149/81 66/145/79
f 65/144/78 84/143/77 67/147/80
f 50/146/60 66/145/79 70/154/83
f 50/146/60 70/154/83 71/155/84
f 69/152/82 72/156/85 68/153/81
f 69/150/82 67/147/80 73/157/86
f 69/152/82 53/158/63 72/156/85
f 69/152/82 73/159/86 53/158/63
f 84/143/77 59/160/87 67/147/80
f 66/145/79 74/161/88 70/154/83
f 66/145/79 68/149/81 74/161/88
f 68/153/81 72/156/85 74/162/88
f 71/163/84 70/164/83 49/165/59
f 70/164/83 74/162/88 49/165/59
f 73/157/86 67/147/80 58/166/89
f 58/166/89 67/147/80 59/160/87
f 53/158/63 51/167/61 72/156/85
f 74/162/88 75/168/90 49/165/59
f 74/162/88 72/156/85 75/168/90
f 75/168/90 72/156/85 51/167/61
f 75/168/90 51/167/61 49/165/59
f 76/169/91 77/170/92 78/171/93
f 76/172/91 85/173/94 77/174/92
f 76/169/91 78/171/93 79/175/95
f 76/172/91 1/176/96 85/173/94
f 78/177/93 80/178/97 79/179/95
f 80/178/97 1/180/96 79/179/95
f 80/181/97 85/182/94 1/183/96
f 81/184/98 20/185/99 82/186/100
f 81/184/98 21/187/28 20/185/99
f 81/184/98 82/186/100 21/187/28
f 83/188/101 59/189/72 84/190/77
f 83/191/101 63/192/71 59/193/72
f 83/191/101 84/194/77 63/192/71
f 80/195/102 77/196/92 85/197/103
f 80/195/102 78/198/93 77/196/92
