# Blender v2.78 (sub 0) OBJ File: ''
# www.blender.org
mtllib Yilasi_geyik_kafasi_2D.mtl
o Curve_Curve.4587
v 0.102159 0.015000 -0.145112
v 0.124422 0.015000 -0.141365
v 0.113762 0.015000 -0.150687
v 0.056901 0.015000 -0.143701
v 0.079571 0.015000 -0.140712
v 0.068645 0.015000 -0.150845
v -0.124732 0.015000 -0.133542
v -0.107759 0.015000 -0.148871
v -0.122101 0.015000 -0.148202
v -0.058557 0.015000 -0.142349
v -0.074974 0.015000 -0.150671
v 0.087056 0.015000 -0.121333
v 0.070029 0.015000 -0.099314
v 0.116333 0.015000 -0.114726
v -0.072242 0.015000 -0.098862
v -0.118316 0.015000 -0.114778
v -0.000429 0.015000 -0.120174
v 0.053432 0.015000 -0.107726
v 0.029188 0.015000 -0.121704
v -0.147543 0.015000 -0.117216
v 0.145613 0.015000 -0.116967
v -0.048016 0.015000 -0.107042
v -0.150299 0.015000 -0.103048
v 0.147978 0.015000 -0.101435
v -0.068090 0.015000 -0.096407
v -0.144188 0.015000 -0.096049
v 0.062918 0.015000 -0.095573
v 0.101255 0.015000 -0.094589
v -0.103400 0.015000 -0.095946
v -0.082433 0.015000 -0.065064
v 0.133146 0.015000 -0.092884
v 0.065432 0.015000 -0.092993
v -0.135978 0.015000 -0.093217
v 0.081147 0.015000 -0.065273
v 0.123158 0.015000 -0.061057
v -0.122914 0.015000 -0.061739
v -0.137240 0.015000 -0.044292
v 0.134335 0.015000 -0.045255
v 0.125674 0.015000 -0.034762
v -0.119043 0.015000 -0.033430
v -0.091821 0.015000 -0.033372
v 0.091001 0.015000 -0.033369
v 0.091706 0.015000 -0.012319
v -0.098191 0.015000 -0.005986
v 0.081349 0.015000 -0.003674
v 0.066785 0.015000 -0.002527
v -0.117068 0.015000 0.016732
v -0.076530 0.015000 0.017682
v 0.068490 0.015000 0.031470
v -0.069624 0.015000 0.018974
v -0.080508 0.015000 0.033450
v -0.103091 0.015000 0.040189
v 0.055194 0.015000 0.088658
v -0.058941 0.015000 0.086631
v -0.020192 0.015000 0.135752
v 0.024850 0.015000 0.125604
v 0.004122 0.015000 0.143026
v 0.124422 0.000000 -0.141365
v 0.102159 0.000000 -0.145112
v 0.113762 0.000000 -0.150687
v 0.079571 0.000000 -0.140712
v 0.056901 0.000000 -0.143701
v 0.068645 0.000000 -0.150845
v -0.107759 0.000000 -0.148871
v -0.124732 0.000000 -0.133542
v -0.122101 0.000000 -0.148202
v -0.058557 0.000000 -0.142349
v -0.074974 0.000000 -0.150671
v 0.087056 0.000000 -0.121333
v 0.070029 0.000000 -0.099314
v 0.116333 0.000000 -0.114726
v -0.072242 0.000000 -0.098862
v -0.118316 0.000000 -0.114778
v 0.053432 0.000000 -0.107726
v -0.000429 0.000000 -0.120174
v 0.029188 0.000000 -0.121704
v -0.147543 0.000000 -0.117216
v 0.145613 0.000000 -0.116967
v -0.048016 0.000000 -0.107042
v -0.150299 0.000000 -0.103048
v 0.147978 0.000000 -0.101435
v -0.068090 0.000000 -0.096407
v -0.144188 0.000000 -0.096049
v 0.062918 0.000000 -0.095573
v 0.101255 0.000000 -0.094589
v -0.103400 0.000000 -0.095946
v -0.082433 0.000000 -0.065064
v 0.133146 0.000000 -0.092884
v 0.065432 0.000000 -0.092993
v -0.135978 0.000000 -0.093217
v 0.081147 0.000000 -0.065273
v 0.123158 0.000000 -0.061057
v -0.122914 0.000000 -0.061739
v -0.137240 0.000000 -0.044292
v 0.134335 0.000000 -0.045255
v 0.125674 0.000000 -0.034762
v -0.119043 0.000000 -0.033430
v -0.091821 0.000000 -0.033372
v 0.091001 0.000000 -0.033369
v 0.091706 0.000000 -0.012319
v -0.098191 0.000000 -0.005986
v 0.081349 0.000000 -0.003674
v 0.066785 0.000000 -0.002527
v -0.117068 -0.000000 0.016732
v -0.076530 -0.000000 0.017682
v 0.068490 -0.000000 0.031470
v -0.069624 -0.000000 0.018974
v -0.080508 -0.000000 0.033450
v -0.103091 -0.000000 0.040189
v 0.055194 -0.000000 0.088658
v -0.058941 -0.000000 0.086631
v -0.020192 -0.000000 0.135752
v 0.024850 -0.000000 0.125604
v 0.004122 -0.000000 0.143026
v -0.088868 0.000000 -0.121462
v -0.088902 0.015000 -0.121418
v -0.064943 0.015000 -0.153719
v -0.064406 0.000000 -0.153618
v 0.020813 0.015000 -0.124469
v 0.026260 0.000000 -0.127490
v -0.071245 0.015000 -0.097455
v 0.067710 0.015000 -0.093948
v 0.057008 0.015000 -0.148631
v 0.056927 0.000000 -0.148731
v 0.116495 0.015000 -0.114811
v 0.120191 0.000000 -0.152340
v 0.117174 0.015000 -0.153259
v 0.150299 0.015000 -0.105662
v 0.138193 0.015000 -0.046520
v 0.138180 0.000000 -0.046788
v 0.079383 0.015000 -0.069974
v 0.072885 0.015000 0.003615
v 0.067120 0.000000 -0.001247
v 0.091490 0.015000 -0.009048
v 0.001920 0.015000 0.153719
v 0.064261 -0.000000 0.073079
v -0.072839 0.015000 0.021379
v -0.059378 -0.000000 0.085606
v -0.111283 0.015000 0.036398
v -0.097218 -0.000000 0.044338
v -0.138824 0.015000 -0.043652
v -0.092062 0.000000 -0.028873
v -0.091917 0.015000 -0.029617
v -0.084219 0.015000 -0.066640
v -0.136685 0.000000 -0.054843
v -0.142992 0.015000 -0.092960
v -0.100892 0.000000 -0.096066
v -0.127542 0.015000 -0.119585
v -0.148176 0.000000 -0.096343
v -0.121645 0.015000 -0.152844
v -0.123976 0.000000 -0.151024
v -0.071411 0.000000 -0.096126
v 0.087788 0.015000 -0.122911
v 0.087738 0.000000 -0.122694
v 0.067607 0.000000 -0.093615
v 0.150230 0.000000 -0.103759
v 0.079058 0.000000 -0.069505
v 0.092147 0.000000 -0.015022
v 0.002718 -0.000000 0.152837
v -0.071332 -0.000000 0.017763
v -0.084237 0.000000 -0.064316
v -0.126707 0.000000 -0.119132
vt 0.9749 0.0893
vt 0.9689 0.0537
vt 0.9837 0.0707
vt 0.9727 0.1618
vt 0.9679 0.1255
vt 0.9841 0.1430
vt 0.9569 0.4528
vt 0.9813 0.4255
vt 0.9802 0.4485
vt 0.9375 0.3954
vt 0.9708 0.3467
vt 0.9841 0.3730
vt 0.9370 0.1136
vt 0.9020 0.1409
vt 0.9264 0.0667
vt 0.9015 0.3688
vt 0.9270 0.4425
vt 0.9353 0.2537
vt 0.9154 0.1674
vt 0.9377 0.2062
vt 0.9309 0.4893
vt 0.9299 0.0198
vt 0.9145 0.3299
vt 0.9083 0.4938
vt 0.9052 0.0160
vt 0.8976 0.3621
vt 0.8972 0.4840
vt 0.8960 0.1523
vt 0.8944 0.0909
vt 0.8969 0.4187
vt 0.8477 0.3851
vt 0.8916 0.0398
vt 0.8919 0.1482
vt 0.8926 0.4709
vt 0.8477 0.1231
vt 0.8409 0.0559
vt 0.8425 0.4500
vt 0.8147 0.4730
vt 0.8157 0.0380
vt 0.7990 0.0519
vt 0.7973 0.4438
vt 0.7972 0.4002
vt 0.7968 0.1074
vt 0.7633 0.1063
vt 0.7536 0.4105
vt 0.7495 0.1229
vt 0.7477 0.1463
vt 0.7174 0.4408
vt 0.7158 0.3758
vt 0.6936 0.1436
vt 0.7137 0.3648
vt 0.6907 0.3822
vt 0.6800 0.4184
vt 0.6025 0.1650
vt 0.6059 0.3478
vt 0.5276 0.2858
vt 0.5437 0.2137
vt 0.5159 0.2469
vt 0.4689 0.4561
vt 0.4749 0.4205
vt 0.4837 0.4391
vt 0.4679 0.3843
vt 0.4727 0.3480
vt 0.4841 0.3668
vt 0.4813 0.0842
vt 0.4569 0.0570
vt 0.4802 0.0613
vt 0.4375 0.1144
vt 0.4708 0.1630
vt 0.4841 0.1368
vt 0.4370 0.3962
vt 0.4020 0.3689
vt 0.4264 0.4431
vt 0.4015 0.1410
vt 0.4270 0.0673
vt 0.4154 0.3423
vt 0.4353 0.2561
vt 0.4377 0.3035
vt 0.4309 0.0205
vt 0.4299 0.4900
vt 0.4145 0.1799
vt 0.4083 0.0160
vt 0.4052 0.4938
vt 0.3976 0.1477
vt 0.3972 0.0258
vt 0.3960 0.3575
vt 0.3944 0.4189
vt 0.3969 0.0911
vt 0.3477 0.1246
vt 0.3916 0.4700
vt 0.3919 0.3615
vt 0.3926 0.0389
vt 0.3477 0.3867
vt 0.3409 0.4539
vt 0.3425 0.0598
vt 0.3147 0.0368
vt 0.3157 0.4718
vt 0.2990 0.4579
vt 0.2973 0.0659
vt 0.2972 0.1095
vt 0.2968 0.4024
vt 0.2633 0.4035
vt 0.2536 0.0993
vt 0.2495 0.3869
vt 0.2477 0.3635
vt 0.2174 0.0690
vt 0.2158 0.1339
vt 0.1936 0.3662
vt 0.2137 0.1450
vt 0.1907 0.1275
vt 0.1800 0.0914
vt 0.1025 0.3448
vt 0.1059 0.1620
vt 0.0276 0.2239
vt 0.0437 0.2961
vt 0.0159 0.2629
vt 0.8693 0.7614
vt 0.8692 0.6690
vt 0.9251 0.6691
vt 0.9251 0.7616
vt 0.1427 0.6129
vt 0.2347 0.6063
vt 0.1429 0.7377
vt 0.1429 0.5258
vt 0.3516 0.7584
vt 0.3516 0.8508
vt 0.2674 0.7584
vt 0.3925 0.9001
vt 0.4504 0.8087
vt 0.4504 0.9012
vt 0.9016 0.7936
vt 0.8457 0.8860
vt 0.8459 0.7936
vt 0.7136 0.7674
vt 0.6217 0.7672
vt 0.7136 0.6661
vt 0.0159 0.7906
vt 0.1068 0.7960
vt 0.0169 0.8199
vt 0.0180 0.5258
vt 0.1109 0.6827
vt 0.3587 0.7207
vt 0.2670 0.6211
vt 0.3587 0.5258
vt 0.1780 0.9784
vt 0.2245 0.8957
vt 0.2245 0.9840
vt 0.1471 0.8636
vt 0.2245 0.7706
vt 0.2245 0.8622
vt 0.5888 0.7243
vt 0.5159 0.8167
vt 0.5188 0.7243
vt 0.6271 0.5308
vt 0.7190 0.5954
vt 0.6217 0.6338
vt 0.4839 0.7218
vt 0.3921 0.6807
vt 0.4840 0.6763
vt 0.4840 0.7758
vt 0.3921 0.7726
vt 0.8137 0.7936
vt 0.8139 0.8860
vt 0.7479 0.7936
vt 0.8407 0.5271
vt 0.8407 0.6194
vt 0.7531 0.6180
vt 0.7508 0.5258
vt 0.6817 0.7994
vt 0.6817 0.8918
vt 0.6218 0.8918
vt 0.6217 0.7994
vt 0.2348 0.7374
vt 0.2348 0.5259
vt 0.2667 0.8509
vt 0.9265 0.5258
vt 0.9266 0.6183
vt 0.8726 0.6183
vt 0.8731 0.5258
vt 0.7455 0.6658
vt 0.8373 0.6688
vt 0.8373 0.7616
vt 0.7457 0.7566
vt 0.3920 0.8079
vt 0.9025 0.8860
vt 0.1109 0.9036
vt 0.0192 0.9019
vt 0.1084 0.8305
vt 0.6217 0.6658
vt 0.3920 0.5258
vt 0.4841 0.5355
vt 0.4841 0.6443
vt 0.3921 0.6432
vt 0.1097 0.5289
vt 0.5898 0.5258
vt 0.5898 0.6922
vt 0.5159 0.5800
vt 0.2667 0.7264
vt 0.5250 0.8487
vt 0.5699 0.9407
vt 0.5159 0.9407
vt 0.1427 0.7697
vt 0.5898 0.8167
vt 0.3135 0.9754
vt 0.2667 0.8850
vt 0.3135 0.8829
vt 0.7190 0.5258
vt 0.3920 0.7213
vt 0.7455 0.8860
vn -0.0000 1.0000 0.0000
vn 0.0000 1.0000 0.0014
vn 0.0003 1.0000 -0.0000
vn -0.0003 1.0000 -0.0000
vn 0.0000 1.0000 -0.0003
vn 0.0000 1.0000 0.0005
vn -0.0005 1.0000 -0.0000
vn -0.0000 1.0000 -0.0005
vn 0.0000 -1.0000 -0.0000
vn -0.0885 -0.0394 -0.9953
vn -0.0795 -0.0095 -0.9968
vn 0.3509 0.0024 -0.9364
vn 0.3916 0.0032 -0.9201
vn 0.0540 0.2159 -0.9749
vn 0.2226 0.2205 -0.9496
vn 0.6560 -0.0424 -0.7536
vn -0.5282 0.0797 -0.8454
vn -0.5071 -0.0027 -0.8619
vn -0.5083 -0.0009 -0.8612
vn 0.8177 0.0212 -0.5752
vn 0.5024 0.0888 -0.8601
vn 0.2712 0.1158 -0.9555
vn 0.9881 -0.0439 -0.1472
vn 0.8276 -0.0312 -0.5604
vn 0.9817 -0.1394 -0.1294
vn 0.9780 -0.1457 -0.1496
vn 0.9986 0.0456 -0.0285
vn 0.8268 -0.3304 0.4552
vn 0.7755 -0.4199 0.4715
vn 0.5273 -0.2709 0.8053
vn 0.0156 0.1698 0.9854
vn 0.6070 0.7491 0.2654
vn -0.3084 0.1676 0.9364
vn -0.6106 0.7204 0.3289
vn -0.9208 -0.0665 0.3844
vn -0.2981 0.2734 0.9146
vn -0.9507 -0.1311 0.2809
vn -0.7891 -0.3600 0.4976
vn -0.7849 -0.2674 0.5590
vn -0.9188 -0.2894 -0.2686
vn -0.9008 0.0085 -0.4341
vn -0.7752 -0.1230 0.6196
vn -0.3567 -0.6536 0.6675
vn -0.9209 0.0357 -0.3883
vn -0.9468 0.0940 0.3077
vn -0.2410 -0.0375 -0.9698
vn -0.4490 -0.0946 -0.8885
vn 0.6153 -0.0596 -0.7861
vn -0.0353 -0.0684 -0.9970
vn -0.0320 -0.0682 -0.9972
vn -0.5035 -0.0157 -0.8639
vn 0.9977 -0.0675 0.0066
vn 0.9973 0.0341 -0.0646
vn 0.5374 -0.2214 0.8138
vn 0.0722 -0.0547 0.9959
vn -0.2955 -0.2518 0.9216
vn -0.8643 -0.0760 -0.4971
vn -0.9107 -0.0630 -0.4083
usemtl None
s off
f 1/1/1 2/2/1 3/3/1
f 4/4/1 5/5/1 6/6/1
f 7/7/1 8/8/1 9/9/1
f 7/7/1 116/10/1 8/8/1
f 116/10/1 10/11/1 11/12/1
f 12/13/1 2/2/1 1/1/1
f 4/4/1 12/13/1 5/5/1
f 13/14/1 12/13/1 4/4/1
f 12/13/1 14/15/1 2/2/1
f 116/10/1 15/16/1 10/11/1
f 7/7/1 15/16/1 116/10/1
f 13/14/1 14/15/1 12/13/1
f 16/17/1 15/16/1 7/7/1
f 17/18/1 18/19/1 19/20/1
f 20/21/1 15/16/1 16/17/1
f 13/14/1 21/22/1 14/15/1
f 22/23/1 18/19/1 17/18/1
f 23/24/1 15/16/1 20/21/1
f 13/14/1 24/25/1 21/22/1
f 25/26/1 18/19/1 22/23/1
f 26/27/1 15/16/1 23/24/1
f 25/26/1 27/28/1 18/19/1
f 26/27/1 25/26/1 15/16/1
f 26/27/1 27/28/1 25/26/1
f 13/14/1 28/29/1 24/25/1
f 29/30/2 27/28/2 26/27/2
f 30/31/1 27/28/1 29/30/1
f 31/32/1 24/25/1 28/29/1
f 32/33/1 28/29/1 13/14/1
f 33/34/1 29/30/1 26/27/1
f 30/31/1 32/33/1 27/28/1
f 30/31/1 28/29/1 32/33/1
f 30/31/1 34/35/1 28/29/1
f 30/31/3 35/36/4 34/35/5
f 36/37/6 35/36/7 30/31/6
f 37/38/1 35/36/1 36/37/1
f 37/38/1 38/39/1 35/36/1
f 37/38/1 39/40/1 38/39/1
f 40/41/1 39/40/1 37/38/1
f 41/42/1 39/40/1 40/41/1
f 41/42/8 42/43/8 39/40/7
f 41/42/1 43/44/1 42/43/1
f 44/45/1 43/44/1 41/42/1
f 44/45/1 45/46/1 43/44/1
f 44/45/1 46/47/1 45/46/1
f 47/48/1 46/47/1 44/45/1
f 48/49/1 46/47/1 47/48/1
f 48/49/1 49/50/1 46/47/1
f 50/51/1 49/50/1 48/49/1
f 47/48/1 51/52/1 48/49/1
f 52/53/1 51/52/1 47/48/1
f 50/51/1 53/54/1 49/50/1
f 54/55/1 53/54/1 50/51/1
f 55/56/1 53/54/1 54/55/1
f 55/56/1 56/57/1 53/54/1
f 55/56/1 57/58/1 56/57/1
f 58/59/9 59/60/9 60/61/9
f 61/62/9 62/63/9 63/64/9
f 64/65/9 65/66/9 66/67/9
f 115/68/9 65/66/9 64/65/9
f 67/69/9 115/68/9 68/70/9
f 58/59/9 69/71/9 59/60/9
f 69/71/9 62/63/9 61/62/9
f 69/71/9 70/72/9 62/63/9
f 71/73/9 69/71/9 58/59/9
f 72/74/9 115/68/9 67/69/9
f 72/74/9 65/66/9 115/68/9
f 71/73/9 70/72/9 69/71/9
f 72/74/9 73/75/9 65/66/9
f 74/76/9 75/77/9 76/78/9
f 72/74/9 77/79/9 73/75/9
f 78/80/9 70/72/9 71/73/9
f 74/76/9 79/81/9 75/77/9
f 72/74/9 80/82/9 77/79/9
f 81/83/9 70/72/9 78/80/9
f 74/76/9 82/84/9 79/81/9
f 72/74/9 83/85/9 80/82/9
f 84/86/9 82/84/9 74/76/9
f 82/84/9 83/85/9 72/74/9
f 84/86/9 83/85/9 82/84/9
f 85/87/9 70/72/9 81/83/9
f 84/86/9 86/88/9 83/85/9
f 84/86/9 87/89/9 86/88/9
f 81/83/9 88/90/9 85/87/9
f 85/87/9 89/91/9 70/72/9
f 86/88/9 90/92/9 83/85/9
f 89/91/9 87/89/9 84/86/9
f 85/87/9 87/89/9 89/91/9
f 91/93/9 87/89/9 85/87/9
f 92/94/9 87/89/9 91/93/9
f 92/94/9 93/95/9 87/89/9
f 92/94/9 94/96/9 93/95/9
f 95/97/9 94/96/9 92/94/9
f 96/98/9 94/96/9 95/97/9
f 96/98/9 97/99/9 94/96/9
f 96/98/9 98/100/9 97/99/9
f 99/101/9 98/100/9 96/98/9
f 100/102/9 98/100/9 99/101/9
f 100/102/9 101/103/9 98/100/9
f 102/104/9 101/103/9 100/102/9
f 103/105/9 101/103/9 102/104/9
f 103/105/9 104/106/9 101/103/9
f 103/105/9 105/107/9 104/106/9
f 106/108/9 105/107/9 103/105/9
f 106/108/9 107/109/9 105/107/9
f 108/110/9 104/106/9 105/107/9
f 108/110/9 109/111/9 104/106/9
f 110/112/9 107/109/9 106/108/9
f 110/112/9 111/113/9 107/109/9
f 110/112/9 112/114/9 111/113/9
f 113/115/9 112/114/9 110/112/9
f 114/116/9 112/114/9 113/115/9
s 1
f 115/117/10 116/118/11 117/119/12 118/120/13
f 119/121/14 120/122/15 121/123/16
f 122/124/17 120/122/15 119/121/14
f 123/125/18 124/126/19 122/127/17
f 125/128/20 126/129/21 127/130/22
f 128/131/23 71/132/24 125/133/20
f 129/134/25 130/135/26 131/136/27
f 132/137/28 133/138/29 134/139/30
f 135/140/31 136/141/32 132/137/28
f 137/142/33 138/143/34 135/144/31
f 139/145/35 140/146/36 137/147/33
f 141/148/37 142/149/38 143/150/39
f 144/151/40 145/152/41 141/153/37
f 146/154/42 147/155/43 144/156/40
f 148/157/44 149/158/45 146/159/42
f 150/160/46 151/161/47 148/157/44
f 116/162/11 115/163/10 150/164/46
f 118/165/13 117/166/12 121/167/16 152/168/48
f 124/169/19 123/170/18 153/171/49 154/172/50
f 121/123/16 120/122/15 152/173/48
f 122/124/17 155/174/51 120/122/15
f 122/127/17 124/126/19 155/175/51
f 154/176/50 153/177/49 127/178/22 126/179/21
f 156/180/52 128/181/23 131/182/27 157/183/53
f 125/128/20 71/184/24 126/129/21
f 128/131/23 156/185/52 71/132/24
f 130/186/26 129/187/25 134/139/30 158/188/54
f 131/136/27 130/135/26 157/189/53
f 140/190/36 139/191/35 143/192/39 142/193/38
f 134/139/30 133/138/29 158/188/54
f 132/137/28 136/141/32 133/138/29
f 135/140/31 159/194/55 136/141/32
f 135/195/31 138/196/34 159/197/55
f 137/142/33 160/198/56 138/143/34
f 137/199/33 140/200/36 160/201/56
f 141/148/37 145/202/41 142/149/38
f 144/151/40 161/203/57 145/152/41
f 144/204/40 147/205/43 161/206/57
f 146/154/42 149/207/45 147/155/43
f 148/157/44 162/208/58 149/158/45
f 148/157/44 151/161/47 162/208/58
f 150/164/46 115/163/10 151/209/47
