# 3ds Max Wavefront OBJ Exporter v0.97b - (c)2007 guruware
# File Created: 05.11.2009 02:18:29

mtllib Sphere-Frame_1.mtl

#
# object Sphere
#

v  -8.0313 -18.7967 8.0313
v  -7.3771 -14.6270 14.6270
v  -12.6797 -12.6797 12.6797
v  -14.6270 -14.6270 7.3771
v  -8.6409 -20.1905 -0.0000
v  -15.5293 -15.5293 -0.0000
v  0.0000 -20.1905 8.6409
v  0.0000 -15.5293 15.5293
v  0.0000 -21.9618 -0.0000
v  -7.3771 -14.6270 -14.6270
v  -8.0313 -18.7967 -8.0313
v  -14.6270 -14.6270 -7.3771
v  -12.6797 -12.6797 -12.6797
v  0.0000 -15.5293 -15.5293
v  0.0000 -20.1905 -8.6409
v  8.0313 -18.7967 -8.0313
v  7.3771 -14.6270 -14.6270
v  12.6797 -12.6797 -12.6797
v  14.6270 -14.6270 -7.3771
v  8.6409 -20.1905 -0.0000
v  15.5293 -15.5293 -0.0000
v  7.3771 -14.6270 14.6270
v  8.0313 -18.7967 8.0313
v  14.6270 -14.6270 7.3771
v  12.6797 -12.6797 12.6797
v  -8.0313 18.7967 8.0313
v  -14.6270 14.6270 7.3771
v  -12.6797 12.6797 12.6797
v  -7.3771 14.6270 14.6270
v  0.0000 20.1905 8.6409
v  0.0000 15.5293 15.5293
v  -8.6409 20.1905 -0.0000
v  -15.5293 15.5293 -0.0000
v  0.0000 21.9618 -0.0000
v  14.6270 14.6270 7.3771
v  8.0313 18.7967 8.0313
v  7.3771 14.6270 14.6270
v  12.6797 12.6797 12.6797
v  15.5293 15.5293 -0.0000
v  8.6409 20.1905 -0.0000
v  8.0313 18.7967 -8.0313
v  14.6270 14.6270 -7.3771
v  12.6797 12.6797 -12.6797
v  7.3771 14.6270 -14.6270
v  0.0000 20.1905 -8.6409
v  0.0000 15.5293 -15.5293
v  -14.6270 14.6270 -7.3771
v  -8.0313 18.7967 -8.0313
v  -7.3771 14.6270 -14.6270
v  -12.6797 12.6797 -12.6797
v  -8.0313 -8.0313 18.7967
v  -14.6270 -7.3771 14.6270
v  0.0000 -8.6409 20.1905
v  -8.6409 0.0000 20.1905
v  -15.5293 0.0000 15.5293
v  0.0000 0.0000 21.9618
v  14.6270 -7.3771 14.6270
v  8.0313 -8.0313 18.7967
v  15.5293 0.0000 15.5293
v  8.6409 0.0000 20.1905
v  8.0313 8.0313 18.7967
v  14.6270 7.3771 14.6270
v  0.0000 8.6409 20.1905
v  -14.6270 7.3771 14.6270
v  -8.0313 8.0313 18.7967
v  18.7967 -8.0313 8.0313
v  20.1905 -8.6409 -0.0000
v  20.1905 0.0000 8.6409
v  21.9618 0.0000 -0.0000
v  14.6270 -7.3771 -14.6270
v  18.7967 -8.0313 -8.0313
v  15.5293 0.0000 -15.5293
v  20.1905 0.0000 -8.6409
v  18.7967 8.0313 -8.0313
v  14.6270 7.3771 -14.6270
v  20.1905 8.6409 -0.0000
v  18.7967 8.0313 8.0313
v  8.0313 -8.0313 -18.7967
v  0.0000 -8.6409 -20.1905
v  8.6409 0.0000 -20.1905
v  0.0000 0.0000 -21.9618
v  -14.6270 -7.3771 -14.6270
v  -8.0313 -8.0313 -18.7967
v  -15.5293 0.0000 -15.5293
v  -8.6409 0.0000 -20.1905
v  -8.0313 8.0313 -18.7967
v  -14.6270 7.3771 -14.6270
v  0.0000 8.6409 -20.1905
v  8.0313 8.0313 -18.7967
v  -18.7967 -8.0313 -8.0313
v  -20.1905 -8.6409 -0.0000
v  -20.1905 0.0000 -8.6409
v  -21.9618 0.0000 -0.0000
v  -18.7967 -8.0313 8.0313
v  -20.1905 0.0000 8.6409
v  -18.7967 8.0313 8.0313
v  -20.1905 8.6409 -0.0000
v  -18.7967 8.0313 -8.0313
# 98 vertices

vn -0.3528 -0.8667 0.3528
vn -0.3102 -0.6722 0.6722
vn -0.5941 -0.5688 0.5688
vn -0.6768 -0.6657 0.3144
vn -0.3848 -0.9230 -0.0038
vn -0.7071 -0.7071 0.0000
vn 0.0038 -0.9230 0.3848
vn 0.0040 -0.7071 0.7071
vn 0.0000 -1.0000 -0.0000
vn -0.3186 -0.6702 -0.6702
vn -0.3556 -0.8644 -0.3556
vn -0.6657 -0.6768 -0.3144
vn -0.5603 -0.5857 -0.5857
vn -0.0040 -0.7071 -0.7071
vn -0.0038 -0.9230 -0.3848
vn 0.3528 -0.8667 -0.3528
vn 0.3102 -0.6722 -0.6722
vn 0.5941 -0.5688 -0.5688
vn 0.6768 -0.6657 -0.3144
vn 0.3848 -0.9230 0.0038
vn 0.7071 -0.7071 -0.0000
vn 0.3186 -0.6702 0.6702
vn 0.3556 -0.8644 0.3556
vn 0.6657 -0.6768 0.3144
vn 0.5603 -0.5857 0.5857
vn -0.3528 0.8667 0.3528
vn -0.6722 0.6722 0.3102
vn -0.5688 0.5688 0.5941
vn -0.3144 0.6657 0.6768
vn 0.0038 0.9230 0.3848
vn -0.0000 0.7071 0.7071
vn -0.3848 0.9230 -0.0038
vn -0.7071 0.7071 -0.0040
vn -0.0000 1.0000 0.0000
vn 0.6702 0.6702 0.3186
vn 0.3556 0.8644 0.3556
vn 0.3144 0.6768 0.6657
vn 0.5857 0.5857 0.5603
vn 0.7071 0.7071 0.0040
vn 0.3848 0.9230 0.0038
vn 0.3528 0.8667 -0.3528
vn 0.6722 0.6722 -0.3102
vn 0.5688 0.5688 -0.5941
vn 0.3144 0.6657 -0.6768
vn -0.0038 0.9230 -0.3848
vn 0.0000 0.7071 -0.7071
vn -0.6702 0.6702 -0.3186
vn -0.3556 0.8644 -0.3556
vn -0.3144 0.6768 -0.6657
vn -0.5857 0.5857 -0.5603
vn -0.3528 -0.3528 0.8667
vn -0.6768 -0.3144 0.6657
vn 0.0038 -0.3848 0.9230
vn -0.3848 0.0038 0.9230
vn -0.7071 0.0000 0.7071
vn 0.0000 0.0000 1.0000
vn 0.6657 -0.3144 0.6768
vn 0.3556 -0.3556 0.8644
vn 0.7071 0.0000 0.7071
vn 0.3848 -0.0038 0.9230
vn 0.3528 0.3528 0.8667
vn 0.6768 0.3144 0.6657
vn -0.0038 0.3848 0.9230
vn -0.6657 0.3144 0.6768
vn -0.3556 0.3556 0.8644
vn 0.8667 -0.3528 0.3528
vn 0.9230 -0.3848 -0.0038
vn 0.9230 0.0038 0.3848
vn 1.0000 0.0000 -0.0000
vn 0.6768 -0.3144 -0.6657
vn 0.8644 -0.3556 -0.3556
vn 0.7071 0.0000 -0.7071
vn 0.9230 -0.0038 -0.3848
vn 0.8667 0.3528 -0.3528
vn 0.6657 0.3144 -0.6768
vn 0.9230 0.3848 0.0038
vn 0.8644 0.3556 0.3556
vn 0.3528 -0.3528 -0.8667
vn -0.0038 -0.3848 -0.9230
vn 0.3848 0.0038 -0.9230
vn 0.0000 0.0000 -1.0000
vn -0.6657 -0.3144 -0.6768
vn -0.3556 -0.3556 -0.8644
vn -0.7071 0.0000 -0.7071
vn -0.3848 -0.0038 -0.9230
vn -0.3528 0.3528 -0.8667
vn -0.6768 0.3144 -0.6657
vn 0.0038 0.3848 -0.9230
vn 0.3556 0.3556 -0.8644
vn -0.8667 -0.3528 -0.3528
vn -0.9230 -0.3848 0.0038
vn -0.9230 0.0038 -0.3848
vn -1.0000 0.0000 -0.0000
vn -0.8644 -0.3556 0.3556
vn -0.9230 -0.0038 0.3848
vn -0.8667 0.3528 0.3528
vn -0.9230 0.3848 -0.0038
vn -0.8644 0.3556 -0.3556
# 98 vertex normals

vt 0.7500 0.2500 0.0000
vt 0.7500 0.0000 0.0000
vt 1.0000 0.0000 0.0000
vt 1.0000 0.2500 0.0000
vt 0.7500 0.5000 0.0000
vt 1.0000 0.5000 0.0000
vt 0.5000 0.2500 0.0000
vt 0.5000 0.0000 0.0000
vt 0.5000 0.5000 0.0000
vt 0.7500 1.0000 0.0000
vt 0.7500 0.7500 0.0000
vt 1.0000 0.7500 0.0000
vt 1.0000 1.0000 0.0000
vt 0.5000 1.0000 0.0000
vt 0.5000 0.7500 0.0000
vt 0.2500 0.7500 0.0000
vt 0.2500 1.0000 0.0000
vt 0.0000 1.0000 0.0000
vt 0.0000 0.7500 0.0000
vt 0.2500 0.5000 0.0000
vt 0.0000 0.5000 0.0000
vt 0.2500 0.0000 0.0000
vt 0.2500 0.2500 0.0000
vt 0.0000 0.2500 0.0000
vt 0.0000 0.0000 0.0000
# 25 texture coords

g Sphere
usemtl 004_default_green
s 1
f 1/1/1 2/2/2 3/3/3 4/4/4 
f 5/5/5 1/1/1 4/4/4 6/6/6 
f 7/7/7 8/8/8 2/2/2 1/1/1 
f 9/9/9 7/7/7 1/1/1 5/5/5 
f 10/10/10 11/11/11 12/12/12 13/13/13 
f 14/14/14 15/15/15 11/11/11 10/10/10 
f 11/11/11 5/5/5 6/6/6 12/12/12 
f 15/15/15 9/9/9 5/5/5 11/11/11 
f 16/16/16 17/17/17 18/18/18 19/19/19 
f 20/20/20 16/16/16 19/19/19 21/21/21 
f 15/15/15 14/14/14 17/17/17 16/16/16 
f 9/9/9 15/15/15 16/16/16 20/20/20 
f 22/22/22 23/23/23 24/24/24 25/25/25 
f 8/8/8 7/7/7 23/23/23 22/22/22 
f 23/23/23 20/20/20 21/21/21 24/24/24 
f 7/7/7 9/9/9 20/20/20 23/23/23 
f 26/23/26 27/24/27 28/25/28 29/22/29 
f 30/7/30 26/23/26 29/22/29 31/8/31 
f 32/20/32 33/21/33 27/24/27 26/23/26 
f 34/9/34 32/20/32 26/23/26 30/7/30 
f 35/4/35 36/1/36 37/2/37 38/3/38 
f 39/6/39 40/5/40 36/1/36 35/4/35 
f 36/1/36 30/7/30 31/8/31 37/2/37 
f 40/5/40 34/9/34 30/7/30 36/1/36 
f 41/11/41 42/12/42 43/13/43 44/10/44 
f 45/15/45 41/11/41 44/10/44 46/14/46 
f 40/5/40 39/6/39 42/12/42 41/11/41 
f 34/9/34 40/5/40 41/11/41 45/15/45 
f 47/19/47 48/16/48 49/17/49 50/18/50 
f 33/21/33 32/20/32 48/16/48 47/19/47 
f 48/16/48 45/15/45 46/14/46 49/17/49 
f 32/20/32 34/9/34 45/15/45 48/16/48 
f 51/23/51 52/24/52 3/25/3 2/22/2 
f 53/7/53 51/23/51 2/22/2 8/8/8 
f 54/20/54 55/21/55 52/24/52 51/23/51 
f 56/9/56 54/20/54 51/23/51 53/7/53 
f 57/4/57 58/1/58 22/2/22 25/3/25 
f 59/6/59 60/5/60 58/1/58 57/4/57 
f 58/1/58 53/7/53 8/8/8 22/2/22 
f 60/5/60 56/9/56 53/7/53 58/1/58 
f 61/11/61 62/12/62 38/13/38 37/10/37 
f 63/15/63 61/11/61 37/10/37 31/14/31 
f 60/5/60 59/6/59 62/12/62 61/11/61 
f 56/9/56 60/5/60 61/11/61 63/15/63 
f 64/19/64 65/16/65 29/17/29 28/18/28 
f 55/21/55 54/20/54 65/16/65 64/19/64 
f 65/16/65 63/15/63 31/14/31 29/17/29 
f 54/20/54 56/9/56 63/15/63 65/16/65 
f 66/23/66 57/24/57 25/25/25 24/22/24 
f 67/7/67 66/23/66 24/22/24 21/8/21 
f 68/20/68 59/21/59 57/24/57 66/23/66 
f 69/9/69 68/20/68 66/23/66 67/7/67 
f 70/4/70 71/1/71 19/2/19 18/3/18 
f 72/6/72 73/5/73 71/1/71 70/4/70 
f 71/1/71 67/7/67 21/8/21 19/2/19 
f 73/5/73 69/9/69 67/7/67 71/1/71 
f 74/11/74 75/12/75 43/13/43 42/10/42 
f 76/15/76 74/11/74 42/10/42 39/14/39 
f 73/5/73 72/6/72 75/12/75 74/11/74 
f 69/9/69 73/5/73 74/11/74 76/15/76 
f 62/19/62 77/16/77 35/17/35 38/18/38 
f 59/21/59 68/20/68 77/16/77 62/19/62 
f 77/16/77 76/15/76 39/14/39 35/17/35 
f 68/20/68 69/9/69 76/15/76 77/16/77 
f 78/23/78 70/24/70 18/25/18 17/22/17 
f 79/7/79 78/23/78 17/22/17 14/8/14 
f 80/20/80 72/21/72 70/24/70 78/23/78 
f 81/9/81 80/20/80 78/23/78 79/7/79 
f 82/4/82 83/1/83 10/2/10 13/3/13 
f 84/6/84 85/5/85 83/1/83 82/4/82 
f 83/1/83 79/7/79 14/8/14 10/2/10 
f 85/5/85 81/9/81 79/7/79 83/1/83 
f 86/11/86 87/12/87 50/13/50 49/10/49 
f 88/15/88 86/11/86 49/10/49 46/14/46 
f 85/5/85 84/6/84 87/12/87 86/11/86 
f 81/9/81 85/5/85 86/11/86 88/15/88 
f 75/19/75 89/16/89 44/17/44 43/18/43 
f 72/21/72 80/20/80 89/16/89 75/19/75 
f 89/16/89 88/15/88 46/14/46 44/17/44 
f 80/20/80 81/9/81 88/15/88 89/16/89 
f 90/23/90 82/24/82 13/25/13 12/22/12 
f 91/7/91 90/23/90 12/22/12 6/8/6 
f 92/20/92 84/21/84 82/24/82 90/23/90 
f 93/9/93 92/20/92 90/23/90 91/7/91 
f 52/4/52 94/1/94 4/2/4 3/3/3 
f 55/6/55 95/5/95 94/1/94 52/4/52 
f 94/1/94 91/7/91 6/8/6 4/2/4 
f 95/5/95 93/9/93 91/7/91 94/1/94 
f 96/11/96 64/12/64 28/13/28 27/10/27 
f 97/15/97 96/11/96 27/10/27 33/14/33 
f 95/5/95 55/6/55 64/12/64 96/11/96 
f 93/9/93 95/5/95 96/11/96 97/15/97 
f 87/19/87 98/16/98 47/17/47 50/18/50 
f 84/21/84 92/20/92 98/16/98 87/19/87 
f 98/16/98 97/15/97 33/14/33 47/17/47 
f 92/20/92 93/9/93 97/15/97 98/16/98 
# 96 polygons

