# Blender v2.78 (sub 0) OBJ File: 'ribbon.obj'
# www.blender.org
mtllib yüzük.mtl
o Aneis_
v -0.232071 0.301400 0.002477
v -0.228610 0.300624 -0.021423
v -0.236018 0.238901 -0.021992
v -0.239574 0.238791 0.001906
v -0.219248 0.298298 -0.039861
v -0.226360 0.239084 -0.040408
v -0.206090 0.295013 -0.054846
v -0.212771 0.239288 -0.055355
v 0.161993 0.085113 0.004773
v 0.155961 0.091463 -0.056309
v 0.111838 0.056796 -0.056671
v 0.116059 0.049026 0.004397
v 0.004506 0.017766 0.003988
v 0.004672 0.026769 -0.057056
v -0.051054 0.033449 -0.057044
v -0.053496 0.024730 0.003991
v -0.107731 0.046458 0.004144
v -0.103147 0.054336 -0.056912
v -0.148063 0.087990 -0.056655
v -0.154474 0.081500 0.004408
v 0.197022 0.131869 0.005231
v 0.189616 0.136377 -0.055869
v 0.059735 0.034353 0.057671
v 0.062337 0.026053 0.004131
v 0.004180 0.026383 0.057539
v 0.111331 0.056424 0.057924
v 0.155468 0.091091 0.058272
v -0.206596 0.294626 0.059749
v -0.219616 0.298023 0.044804
v -0.226729 0.238795 0.044257
v -0.213278 0.238902 0.059240
v -0.228825 0.300454 0.026388
v -0.236220 0.238746 0.025820
v -0.208603 0.359928 0.003035
v -0.205494 0.358307 -0.020882
v -0.197056 0.353677 -0.039339
v -0.185216 0.347105 -0.054346
v 0.060227 0.034726 -0.056924
v -0.204815 0.183721 -0.055849
v -0.213549 0.181152 0.005244
v -0.190575 0.127432 0.004784
v -0.182744 0.132126 -0.056287
v 0.218765 0.186089 0.005736
v 0.210504 0.188483 -0.055369
v 0.225716 0.244103 0.006266
v 0.217185 0.244208 -0.054859
v 0.189123 0.136005 0.058726
v 0.209998 0.188097 0.059213
v -0.051546 0.033077 0.057537
v -0.185709 0.346719 0.060235
v -0.197425 0.353401 0.045326
v -0.205696 0.358151 0.026930
v -0.170799 0.410382 0.003540
v -0.168221 0.408051 -0.020391
v -0.161293 0.401415 -0.038879
v -0.151561 0.392019 -0.053906
v 0.217429 0.301933 0.006782
v 0.209215 0.299761 -0.054365
v 0.194456 0.355652 0.007256
v 0.187144 0.351356 -0.053927
v -0.221849 0.238981 0.005760
v -0.183236 0.131740 0.058294
v -0.205307 0.183348 0.058746
v 0.216679 0.243822 0.059722
v 0.208722 0.299375 0.060216
v -0.152053 0.391633 0.060676
v -0.161661 0.401126 0.045799
v -0.168436 0.407896 0.027420
v -0.121216 0.449350 0.003933
v -0.119346 0.446445 -0.019999
v -0.114379 0.438266 -0.038488
v -0.107424 0.426686 -0.053544
v 0.158354 0.401585 0.007632
v 0.152463 0.395492 -0.053559
v 0.111597 0.436613 0.007896
v 0.107547 0.429146 -0.053303
v 0.057363 0.458355 0.008035
v 0.055454 0.450033 -0.053170
v 0.186651 0.350984 0.060668
v -0.148555 0.087618 0.057926
v -0.103640 0.053964 0.057669
v 0.151970 0.395119 0.061022
v -0.107930 0.426313 0.061037
v -0.114747 0.437991 0.046177
v -0.119561 0.446290 0.027813
v -0.063245 0.474142 0.004225
v -0.062206 0.470881 -0.019707
v -0.059540 0.461718 -0.038223
v -0.055827 0.448756 -0.053291
v -0.000640 0.465319 0.008038
v -0.000272 0.456713 -0.053159
v -0.058471 0.457032 0.007909
v -0.112179 0.434058 0.007643
v 0.107055 0.428773 0.061292
v 0.054961 0.449660 0.061425
v -0.056320 0.448384 0.061290
v -0.059909 0.461443 0.046442
v -0.062407 0.470726 0.028104
v -0.000822 0.483089 0.004375
v -0.000682 0.479705 -0.019569
v -0.000497 0.470184 -0.038082
v -0.158126 0.397972 0.007267
v -0.193155 0.351215 0.006809
v -0.214885 0.296982 0.006290
v -0.000765 0.456341 0.061422
v -0.000865 0.469909 0.046583
v -0.000884 0.479550 0.028242
v 0.061788 0.475574 0.004363
v 0.061028 0.472297 -0.019566
v 0.058733 0.463073 -0.038087
v -0.116411 0.031003 0.000156
v -0.114604 0.034095 -0.023715
v -0.056919 0.010968 -0.023865
v -0.057881 0.007536 0.000004
v -0.057121 0.010812 0.023946
v 0.004729 0.000020 0.000005
v 0.004589 0.003404 0.023936
v -0.217895 0.180028 -0.040941
v -0.227194 0.177379 -0.022534
v 0.058365 0.462797 0.046578
v 0.060827 0.472142 0.028245
v 0.120318 0.452106 0.004210
v 0.118727 0.449170 -0.019716
v 0.114113 0.440882 -0.038230
v 0.063816 0.021667 -0.042075
v 0.118654 0.045118 -0.041810
v 0.066315 0.012370 -0.023724
v 0.123469 0.036820 -0.023446
v 0.067152 0.008968 0.000142
v 0.125124 0.033760 0.000433
v 0.123253 0.036665 0.024366
v 0.174706 0.072714 0.000840
v 0.172128 0.075059 0.024758
v 0.113745 0.440593 0.046436
v 0.118511 0.449014 0.028096
v 0.170773 0.414290 0.003930
v 0.168458 0.411897 -0.020006
v 0.161853 0.405106 -0.038498
v 0.118286 0.044843 0.042855
v 0.165200 0.081695 0.043246
v -0.194429 0.125178 -0.041406
v -0.202758 0.120241 -0.023035
v -0.230626 0.176370 0.001347
v -0.205834 0.118401 0.000857
v -0.202959 0.120085 0.024776
v -0.166866 0.068806 0.000450
v -0.164551 0.071212 0.024373
v -0.218263 0.179753 0.043737
v -0.194797 0.124903 0.043259
v -0.227410 0.177224 0.025277
v 0.161484 0.404831 0.046167
v 0.168257 0.411742 0.027805
v 0.209742 0.364709 0.003510
v 0.206867 0.363024 -0.020410
v 0.198705 0.358207 -0.038892
v 0.063448 0.021391 0.042590
v -0.157945 0.078004 0.042878
v -0.054457 0.020312 -0.042211
v 0.004772 0.013201 -0.042217
v 0.004791 0.003560 -0.023876
v 0.066113 0.012215 0.024088
v 0.198336 0.357918 0.045773
v 0.206665 0.362869 0.027402
v 0.234534 0.306740 0.003019
v 0.231317 0.305886 -0.020897
v 0.222170 0.303357 -0.039357
v -0.109837 0.042503 -0.042069
v 0.004404 0.012925 0.042449
v -0.054825 0.020037 0.042454
v 0.221802 0.303082 0.045308
v 0.231102 0.305717 0.026914
v 0.243481 0.244318 0.002460
v 0.240127 0.244350 -0.021453
v 0.230636 0.244301 -0.039890
v -0.110205 0.042228 0.042596
v -0.114819 0.033940 0.024096
v -0.157577 0.078279 -0.041800
v 0.165569 0.081970 -0.041419
v 0.230268 0.244026 0.044775
v 0.239926 0.244195 0.026359
v 0.235979 0.181710 0.001889
v 0.232732 0.182642 -0.022022
v 0.223524 0.185073 -0.040438
v 0.172343 0.075214 -0.023053
v -0.164349 0.071368 -0.023439
v 0.223156 0.184798 0.044241
v 0.232517 0.182486 0.025790
v 0.212510 0.123181 0.001332
v 0.209604 0.124958 -0.022563
v 0.201332 0.129708 -0.040960
v 0.209402 0.124803 0.025249
v 0.200964 0.129433 0.043719
vt 0.2597 0.5000
vt 0.2597 0.4813
vt 0.3013 0.4813
vt 0.3013 0.5000
vt 0.2597 0.4655
vt 0.3013 0.4655
vt 0.2597 0.4506
vt 0.3013 0.4506
vt 0.6763 0.5032
vt 0.6763 0.4506
vt 0.6347 0.4506
vt 0.6347 0.5032
vt 0.5513 0.5032
vt 0.5513 0.4506
vt 0.5097 0.4506
vt 0.5097 0.5032
vt 0.4680 0.5032
vt 0.4680 0.4506
vt 0.4263 0.4506
vt 0.4263 0.5032
vt 0.7180 0.5032
vt 0.7180 0.4506
vt 0.5930 0.5494
vt 0.5930 0.5032
vt 0.5513 0.5494
vt 0.6347 0.5494
vt 0.6763 0.5494
vt 0.2597 0.5494
vt 0.2597 0.5345
vt 0.3013 0.5345
vt 0.3013 0.5494
vt 0.2597 0.5187
vt 0.3013 0.5187
vt 0.2180 0.5000
vt 0.2180 0.4813
vt 0.2180 0.4655
vt 0.2180 0.4506
vt 0.5930 0.4506
vt 0.3430 0.4506
vt 0.3430 0.5032
vt 0.3847 0.5032
vt 0.3847 0.4506
vt 0.7597 0.5032
vt 0.7597 0.4506
vt 0.8013 0.5032
vt 0.8013 0.4506
vt 0.7180 0.5494
vt 0.7597 0.5494
vt 0.5097 0.5494
vt 0.2180 0.5494
vt 0.2180 0.5345
vt 0.2180 0.5187
vt 0.1763 0.5000
vt 0.1763 0.4813
vt 0.1763 0.4655
vt 0.1763 0.4506
vt 0.8430 0.5032
vt 0.8430 0.4506
vt 0.8847 0.5032
vt 0.8847 0.4506
vt 0.3013 0.5032
vt 0.3847 0.5494
vt 0.3430 0.5494
vt 0.8013 0.5494
vt 0.8430 0.5494
vt 0.1763 0.5494
vt 0.1763 0.5345
vt 0.1763 0.5187
vt 0.1347 0.5000
vt 0.1347 0.4813
vt 0.1347 0.4655
vt 0.1347 0.4506
vt 0.9263 0.5032
vt 0.9263 0.4506
vt 0.9680 0.5032
vt 0.9680 0.4506
vt 1.0097 0.5032
vt 1.0097 0.4506
vt 0.8847 0.5494
vt 0.4263 0.5494
vt 0.4680 0.5494
vt 0.9263 0.5494
vt 0.1347 0.5494
vt 0.1347 0.5345
vt 0.1347 0.5187
vt 0.0930 0.5000
vt 0.0930 0.4813
vt 0.0930 0.4655
vt 0.0930 0.4506
vt 0.0513 0.5032
vt 0.0513 0.4506
vt 0.0097 0.4506
vt 0.0097 0.5032
vt 0.0930 0.5032
vt 0.1347 0.5032
vt 0.9680 0.5494
vt 1.0097 0.5494
vt 0.0930 0.5494
vt 0.0930 0.5345
vt 0.0930 0.5187
vt 0.0513 0.5000
vt 0.0513 0.4813
vt 0.0513 0.4655
vt 0.1763 0.5032
vt 0.2180 0.5032
vt 0.2597 0.5032
vt 0.0513 0.5494
vt 0.0097 0.5494
vt 0.0513 0.5345
vt 0.0513 0.5187
vt 0.0097 0.5000
vt 0.0097 0.4813
vt 0.0097 0.4655
vt 0.4680 0.5000
vt 0.4680 0.4813
vt 0.5097 0.4813
vt 0.5097 0.5000
vt 0.5097 0.5187
vt 0.5513 0.5000
vt 0.5513 0.5187
vt 0.3430 0.4655
vt 0.3430 0.4813
vt 0.0097 0.5345
vt 0.0097 0.5187
vt 0.9680 0.5000
vt 0.9680 0.4813
vt 1.0097 0.4813
vt 1.0097 0.5000
vt 0.9680 0.4655
vt 1.0097 0.4655
vt 0.5930 0.4655
vt 0.6347 0.4655
vt 0.5930 0.4813
vt 0.6347 0.4813
vt 0.5930 0.5000
vt 0.6347 0.5000
vt 0.6347 0.5187
vt 0.6763 0.5000
vt 0.6763 0.5187
vt 0.9680 0.5345
vt 1.0097 0.5345
vt 0.9680 0.5187
vt 1.0097 0.5187
vt 0.9263 0.5000
vt 0.9263 0.4813
vt 0.9263 0.4655
vt 0.6347 0.5345
vt 0.6763 0.5345
vt 0.3847 0.4655
vt 0.3847 0.4813
vt 0.3430 0.5000
vt 0.3847 0.5000
vt 0.3847 0.5187
vt 0.4263 0.5000
vt 0.4263 0.5187
vt 0.3430 0.5345
vt 0.3847 0.5345
vt 0.3430 0.5187
vt 0.9263 0.5345
vt 0.9263 0.5187
vt 0.8847 0.5000
vt 0.8847 0.4813
vt 0.8847 0.4655
vt 0.5930 0.5345
vt 0.4263 0.5345
vt 0.5097 0.4655
vt 0.5513 0.4655
vt 0.5513 0.4813
vt 0.5930 0.5187
vt 0.8847 0.5345
vt 0.8847 0.5187
vt 0.8430 0.5000
vt 0.8430 0.4813
vt 0.8430 0.4655
vt 0.4680 0.4655
vt 0.5513 0.5345
vt 0.5097 0.5345
vt 0.8430 0.5345
vt 0.8430 0.5187
vt 0.8013 0.5000
vt 0.8013 0.4813
vt 0.8013 0.4655
vt 0.4680 0.5345
vt 0.4680 0.5187
vt 0.4263 0.4655
vt 0.6763 0.4655
vt 0.8013 0.5345
vt 0.8013 0.5187
vt 0.7597 0.5000
vt 0.7597 0.4813
vt 0.7597 0.4655
vt 0.6763 0.4813
vt 0.4263 0.4813
vt 0.7597 0.5345
vt 0.7597 0.5187
vt 0.7180 0.5000
vt 0.7180 0.4813
vt 0.7180 0.4655
vt 0.7180 0.5187
vt 0.7180 0.5345
vn -0.9688 0.2476 0.0128
vn -0.9037 0.2360 -0.3573
vn -0.9326 -0.0049 -0.3608
vn -0.9999 -0.0116 0.0089
vn -0.7396 0.1979 -0.6432
vn -0.7631 0.0017 -0.6462
vn -0.6489 0.1761 -0.7402
vn -0.6695 0.0044 -0.7428
vn -0.7152 0.6989 0.0052
vn -0.7022 0.6849 0.1947
vn -0.5001 0.8436 0.1953
vn -0.5099 0.8602 0.0060
vn -0.0115 0.9999 0.0036
vn -0.0097 0.9811 0.1931
vn 0.2455 0.9505 0.1903
vn 0.2476 0.9689 0.0008
vn 0.4899 0.8718 -0.0030
vn 0.4839 0.8550 0.1865
vn 0.6895 0.7010 0.1823
vn 0.6988 0.7153 -0.0073
vn -0.8717 0.4900 0.0033
vn -0.8562 0.4793 0.1928
vn -0.2661 0.9462 -0.1841
vn -0.2699 0.9629 0.0054
vn -0.0130 0.9825 -0.1859
vn -0.5013 0.8456 -0.1836
vn -0.7022 0.6877 -0.1843
vn -0.6353 0.1521 0.7571
vn -0.7277 0.1770 0.6627
vn -0.7513 -0.0192 0.6597
vn -0.6559 -0.0197 0.7546
vn -0.8970 0.2242 0.3809
vn -0.9259 -0.0167 0.3774
vn -0.8716 0.4899 0.0157
vn -0.8135 0.4612 -0.3544
vn -0.6661 0.3814 -0.6410
vn -0.5845 0.3367 -0.7383
vn -0.2639 0.9447 0.1948
vn 0.9492 0.2628 0.1729
vn 0.9627 0.2701 -0.0169
vn 0.8600 0.5101 -0.0121
vn 0.8482 0.4990 0.1775
vn -0.9688 0.2478 0.0003
vn -0.9518 0.2408 0.1898
vn -0.9999 -0.0113 -0.0036
vn -0.9824 -0.0142 0.1860
vn -0.8555 0.4831 -0.1862
vn -0.9507 0.2458 -0.1891
vn 0.2408 0.9521 -0.1886
vn -0.5709 0.3127 0.7591
vn -0.6542 0.3605 0.6649
vn -0.8067 0.4494 0.3838
vn -0.7151 0.6988 0.0177
vn -0.6680 0.6554 -0.3526
vn -0.5475 0.5396 -0.6396
vn -0.4808 0.4751 -0.7370
vn -0.9629 -0.2697 -0.0080
vn -0.9460 -0.2685 0.1816
vn -0.8603 -0.5097 -0.0129
vn -0.8450 -0.5047 0.1768
vn 0.9857 0.0086 0.1685
vn 0.9997 0.0118 -0.0213
vn 0.8407 0.5027 -0.2013
vn 0.9412 0.2676 -0.2060
vn -0.9812 -0.0081 -0.1929
vn -0.9449 -0.2612 -0.1973
vn -0.4671 0.4512 0.7604
vn -0.5356 0.5188 0.6663
vn -0.6612 0.6435 0.3856
vn -0.5098 0.8601 0.0184
vn -0.4772 0.8053 -0.3519
vn -0.3920 0.6618 -0.6390
vn -0.3447 0.5820 -0.7365
vn -0.6990 -0.7149 -0.0175
vn -0.6863 -0.7066 0.1722
vn -0.4901 -0.8714 -0.0220
vn -0.4807 -0.8607 0.1679
vn -0.2479 -0.9685 -0.0257
vn -0.2422 -0.9562 0.1641
vn -0.8443 -0.4963 -0.2020
vn 0.6827 0.7037 -0.1966
vn 0.4782 0.8569 -0.1924
vn -0.6864 -0.6972 -0.2067
vn -0.3311 0.5581 0.7609
vn -0.3801 0.6409 0.6669
vn -0.4705 0.7934 0.3862
vn -0.2698 0.9627 0.0179
vn -0.2541 0.9007 -0.3524
vn -0.2103 0.7396 -0.6394
vn -0.1856 0.6500 -0.7369
vn 0.0113 -0.9995 -0.0286
vn 0.0129 -0.9868 0.1614
vn 0.2699 -0.9624 -0.0303
vn 0.2671 -0.9503 0.1596
vn 0.5098 -0.8598 -0.0309
vn 0.5034 -0.8493 0.1591
vn -0.4818 -0.8505 -0.2109
vn 0.9775 0.0146 -0.2104
vn -0.2445 -0.9456 -0.2147
vn -0.1721 0.6261 0.7605
vn -0.1983 0.7187 0.6665
vn -0.2474 0.8888 0.3857
vn -0.0114 0.9998 0.0161
vn -0.0140 0.9351 -0.3542
vn -0.0146 0.7676 -0.6408
vn -0.0144 0.6746 -0.7380
vn 0.7149 -0.6985 -0.0301
vn 0.7054 -0.6905 0.1598
vn 0.8715 -0.4897 -0.0282
vn 0.8594 -0.4850 0.1617
vn 0.9686 -0.2475 -0.0252
vn 0.9551 -0.2465 0.1646
vn 0.0093 -0.9760 -0.2174
vn 0.2625 -0.9397 -0.2191
vn -0.0008 0.6506 0.7594
vn -0.0027 0.7467 0.6652
vn -0.0072 0.9233 0.3840
vn 0.2477 0.9687 0.0133
vn 0.2269 0.9062 -0.3568
vn 0.1817 0.7441 -0.6429
vn 0.1574 0.6540 -0.7399
vn -0.4901 -0.8716 -0.0095
vn -0.4588 -0.8042 -0.3779
vn -0.2336 -0.8944 -0.3814
vn -0.2477 -0.9687 -0.0133
vn -0.2269 -0.9062 0.3568
vn 0.0114 -0.9998 -0.0161
vn 0.0140 -0.9351 0.3541
vn -0.7351 -0.1940 -0.6496
vn -0.8982 -0.2450 -0.3649
vn -0.6450 -0.1669 -0.7457
vn 0.4975 -0.8392 -0.2197
vn 0.6986 -0.6812 -0.2189
vn 0.1710 0.6301 0.7575
vn 0.1935 0.7231 0.6630
vn 0.2336 0.8944 0.3814
vn 0.4900 0.8716 0.0095
vn 0.4521 0.8160 -0.3602
vn 0.3652 0.6705 -0.6458
vn 0.3180 0.5897 -0.7424
vn 0.1984 -0.7186 -0.6665
vn 0.1721 -0.6261 -0.7605
vn 0.3310 -0.5580 -0.7609
vn 0.3801 -0.6409 -0.6669
vn 0.2474 -0.8888 -0.3857
vn 0.4705 -0.7934 -0.3862
vn 0.2699 -0.9627 -0.0179
vn 0.5098 -0.8601 -0.0184
vn 0.4772 -0.8053 0.3520
vn 0.7151 -0.6988 -0.0177
vn 0.6679 -0.6554 0.3526
vn 0.8519 -0.4766 -0.2171
vn 0.9471 -0.2393 -0.2141
vn 0.3316 0.5657 0.7550
vn 0.3770 0.6496 0.6602
vn 0.4588 0.8042 0.3779
vn 0.6990 0.7151 0.0054
vn 0.6462 0.6705 -0.3644
vn 0.5233 0.5520 -0.6491
vn 0.4564 0.4860 -0.7453
vn 0.3920 -0.6618 0.6390
vn 0.5475 -0.5396 0.6396
vn -0.6574 -0.3757 -0.6532
vn -0.8028 -0.4680 -0.3694
vn -0.9629 -0.2699 0.0044
vn -0.8602 -0.5099 -0.0003
vn -0.7961 -0.4799 0.3687
vn -0.6989 -0.7152 -0.0054
vn -0.6462 -0.6705 0.3644
vn -0.6313 -0.1910 0.7516
vn -0.7233 -0.2149 0.6563
vn -0.6454 -0.3966 0.6528
vn -0.5633 -0.3500 0.7485
vn -0.8915 -0.2568 0.3733
vn 0.3447 -0.5820 0.7365
vn 0.4808 -0.4751 0.7370
vn 0.4701 0.4620 0.7521
vn 0.5353 0.5311 0.6568
vn 0.6529 0.6587 0.3738
vn 0.8602 0.5099 0.0003
vn 0.7961 0.4799 -0.3688
vn 0.6455 0.3966 -0.6527
vn 0.5633 0.3499 -0.7485
vn 0.1856 -0.6500 0.7369
vn 0.2103 -0.7396 0.6394
vn -0.5234 -0.5521 0.6491
vn -0.4564 -0.4860 0.7453
vn -0.1935 -0.7232 -0.6630
vn -0.1710 -0.6301 -0.7574
vn 0.0008 -0.6506 -0.7594
vn 0.0027 -0.7467 -0.6652
vn 0.0073 -0.9233 -0.3840
vn 0.2541 -0.9007 0.3524
vn 0.5769 0.3260 0.7489
vn 0.6574 0.3757 0.6532
vn 0.8028 0.4680 0.3694
vn 0.9629 0.2699 -0.0044
vn 0.8915 0.2568 -0.3733
vn 0.7233 0.2149 -0.6563
vn 0.6313 0.1909 -0.7517
vn -0.3770 -0.6496 -0.6602
vn 0.0146 -0.7676 0.6408
vn 0.0144 -0.6746 0.7380
vn -0.5769 -0.3260 -0.7489
vn -0.1574 -0.6541 0.7399
vn -0.1817 -0.7441 0.6429
vn 0.6450 0.1669 0.7457
vn 0.7351 0.1939 0.6496
vn 0.8982 0.2450 0.3649
vn 0.9999 0.0115 -0.0089
vn 0.9259 0.0166 -0.3774
vn 0.7513 0.0192 -0.6597
vn 0.6559 0.0197 -0.7546
vn -0.3316 -0.5657 -0.7550
vn -0.3652 -0.6705 0.6458
vn -0.3180 -0.5897 0.7424
vn -0.4521 -0.8160 0.3602
vn -0.4701 -0.4620 -0.7520
vn -0.5353 -0.5311 -0.6568
vn 0.4671 -0.4512 -0.7604
vn 0.5356 -0.5188 -0.6664
vn 0.6695 -0.0044 0.7428
vn 0.7631 -0.0017 0.6463
vn 0.9326 0.0049 0.3608
vn 0.9688 -0.2476 -0.0128
vn 0.8970 -0.2242 -0.3809
vn 0.7277 -0.1770 -0.6627
vn 0.6353 -0.1521 -0.7571
vn 0.6613 -0.6435 -0.3856
vn -0.6529 -0.6588 -0.3738
vn 0.6489 -0.1761 0.7402
vn 0.7396 -0.1979 0.6433
vn 0.9037 -0.2360 0.3573
vn 0.8716 -0.4899 -0.0157
vn 0.8067 -0.4494 -0.3838
vn 0.6541 -0.3605 -0.6649
vn 0.5709 -0.3127 -0.7591
vn 0.8135 -0.4612 0.3544
vn 0.5845 -0.3367 0.7383
vn 0.6661 -0.3814 0.6410
usemtl _ring_box__Aneis_material13
s 1
f 1/1/1 2/2/2 3/3/3 4/4/4
f 2/2/2 5/5/5 6/6/6 3/3/3
f 5/5/5 7/7/7 8/8/8 6/6/6
f 9/9/9 10/10/10 11/11/11 12/12/12
f 13/13/13 14/14/14 15/15/15 16/16/16
f 17/17/17 18/18/18 19/19/19 20/20/20
f 21/21/21 22/22/22 10/10/10 9/9/9
f 23/23/23 24/24/24 13/13/13 25/25/25
f 26/26/26 12/12/12 24/24/24 23/23/23
f 27/27/27 9/9/9 12/12/12 26/26/26
f 28/28/28 29/29/29 30/30/30 31/31/31
f 29/29/29 32/32/32 33/33/33 30/30/30
f 32/32/32 1/1/1 4/4/4 33/33/33
f 34/34/34 35/35/35 2/2/2 1/1/1
f 35/35/35 36/36/36 5/5/5 2/2/2
f 36/36/36 37/37/37 7/7/7 5/5/5
f 12/12/12 11/11/11 38/38/38 24/24/24
f 39/39/39 40/40/40 41/41/41 42/42/42
f 43/43/43 44/44/44 22/22/22 21/21/21
f 43/43/43 45/45/45 46/46/46 44/44/44
f 47/47/47 21/21/21 9/9/9 27/27/27
f 48/48/48 43/43/43 21/21/21 47/47/47
f 25/25/25 13/13/13 16/16/16 49/49/49
f 50/50/50 51/51/51 29/29/29 28/28/28
f 51/51/51 52/52/52 32/32/32 29/29/29
f 52/52/52 34/34/34 1/1/1 32/32/32
f 53/53/53 54/54/54 35/35/35 34/34/34
f 54/54/54 55/55/55 36/36/36 35/35/35
f 55/55/55 56/56/56 37/37/37 36/36/36
f 45/45/45 57/57/57 58/58/58 46/46/46
f 57/57/57 59/59/59 60/60/60 58/58/58
f 16/16/16 15/15/15 18/18/18 17/17/17
f 40/40/40 39/39/39 8/8/61 61/61/62
f 62/62/63 41/41/41 40/40/40 63/63/64
f 48/48/48 64/64/65 45/45/45 43/43/43
f 64/64/65 65/65/66 57/57/57 45/45/45
f 66/66/67 67/67/68 51/51/51 50/50/50
f 67/67/68 68/68/69 52/52/52 51/51/51
f 68/68/69 53/53/53 34/34/34 52/52/52
f 69/69/70 70/70/71 54/54/54 53/53/53
f 70/70/71 71/71/72 55/55/55 54/54/54
f 71/71/72 72/72/73 56/56/56 55/55/55
f 59/59/59 73/73/74 74/74/75 60/60/60
f 73/73/74 75/75/76 76/76/77 74/74/75
f 75/75/76 77/77/78 78/78/79 76/76/77
f 24/24/24 38/38/38 14/14/14 13/13/13
f 65/65/66 79/79/80 59/59/59 57/57/57
f 20/20/20 80/80/81 81/81/82 17/17/17
f 79/79/80 82/82/83 73/73/74 59/59/59
f 83/83/84 84/84/85 67/67/68 66/66/67
f 84/84/85 85/85/86 68/68/69 67/67/68
f 85/85/86 69/69/70 53/53/53 68/68/69
f 86/86/87 87/87/88 70/70/71 69/69/70
f 87/87/88 88/88/89 71/71/72 70/70/71
f 88/88/89 89/89/90 72/72/73 71/71/72
f 90/90/91 91/91/92 78/92/79 77/93/78
f 42/42/42 41/41/41 20/20/20 19/19/19
f 92/94/93 89/89/94 91/91/92 90/90/91
f 89/89/94 92/94/93 93/95/95 72/72/96
f 82/82/83 94/96/97 75/75/76 73/73/74
f 63/63/64 40/40/40 61/61/62 31/31/98
f 94/96/97 95/97/99 77/77/78 75/75/76
f 96/98/100 97/99/101 84/84/85 83/83/84
f 97/99/101 98/100/102 85/85/86 84/84/85
f 98/100/102 86/86/87 69/69/70 85/85/86
f 99/101/103 100/102/104 87/87/88 86/86/87
f 100/102/104 101/103/105 88/88/89 87/87/88
f 101/103/105 91/91/106 89/89/90 88/88/89
f 72/72/96 93/95/95 102/104/107 56/56/108
f 56/56/108 102/104/107 103/105/109 37/37/110
f 37/37/110 103/105/109 104/106/111 7/7/112
f 7/7/112 104/106/111 61/61/62 8/8/61
f 17/17/17 81/81/82 49/49/49 16/16/16
f 105/107/113 90/90/91 77/93/78 95/108/99
f 96/98/114 92/94/93 90/90/91 105/107/113
f 105/107/115 106/109/116 97/99/101 96/98/100
f 106/109/116 107/110/117 98/100/102 97/99/101
f 107/110/117 99/101/103 86/86/87 98/100/102
f 108/111/118 109/112/119 100/102/104 99/101/103
f 109/112/119 110/113/120 101/103/105 100/102/104
f 110/113/120 78/92/121 91/91/106 101/103/105
f 111/114/122 112/115/123 113/116/124 114/117/125
f 115/118/126 114/117/125 116/119/127 117/120/128
f 3/3/3 6/6/6 118/121/129 119/122/130
f 6/6/6 8/8/8 39/39/131 118/121/129
f 41/41/41 62/62/63 80/80/81 20/20/20
f 92/94/93 96/98/114 83/83/132 93/95/95
f 93/95/95 83/83/132 66/66/133 102/104/107
f 95/108/134 120/123/135 106/109/116 105/107/115
f 120/123/135 121/124/136 107/110/117 106/109/116
f 121/124/136 108/111/118 99/101/103 107/110/117
f 122/125/137 123/126/138 109/127/119 108/128/118
f 123/126/138 124/129/139 110/130/120 109/127/119
f 124/129/139 76/76/140 78/78/121 110/130/120
f 125/131/141 38/38/142 11/11/143 126/132/144
f 127/133/145 125/131/141 126/132/144 128/134/146
f 129/135/147 127/133/145 128/134/146 130/136/148
f 131/137/149 130/136/148 132/138/150 133/139/151
f 102/104/107 66/66/133 50/50/152 103/105/109
f 103/105/109 50/50/152 28/28/153 104/106/111
f 104/106/111 28/28/153 31/31/98 61/61/62
f 94/96/154 134/140/155 120/141/135 95/97/134
f 134/140/155 135/142/156 121/143/136 120/141/135
f 135/142/156 122/125/137 108/128/118 121/143/136
f 136/144/157 137/145/158 123/126/138 122/125/137
f 137/145/158 138/146/159 124/129/139 123/126/138
f 138/146/159 74/74/160 76/76/140 124/129/139
f 139/147/161 131/137/149 133/139/151 140/148/162
f 119/122/130 118/121/129 141/149/163 142/150/164
f 143/151/165 119/122/130 142/150/164 144/152/166
f 145/153/167 144/152/166 146/154/168 147/155/169
f 63/63/170 148/156/171 149/157/172 62/62/173
f 148/156/171 150/158/174 145/153/167 149/157/172
f 26/26/175 139/147/161 140/148/162 27/27/176
f 82/82/177 151/159/178 134/140/155 94/96/154
f 151/159/178 152/160/179 135/142/156 134/140/155
f 152/160/179 136/144/157 122/125/137 135/142/156
f 153/161/180 154/162/181 137/145/158 136/144/157
f 154/162/181 155/163/182 138/146/159 137/145/158
f 155/163/182 60/60/183 74/74/160 138/146/159
f 23/23/184 156/164/185 139/147/161 26/26/175
f 149/157/172 145/153/167 147/155/169 157/165/186
f 62/62/173 149/157/172 157/165/186 80/80/187
f 158/166/188 15/15/189 14/14/190 159/167/191
f 113/116/124 158/166/188 159/167/191 160/168/192
f 114/117/125 113/116/124 160/168/192 116/119/127
f 117/120/128 116/119/127 129/135/147 161/169/193
f 79/79/194 162/170/195 151/159/178 82/82/177
f 162/170/195 163/171/196 152/160/179 151/159/178
f 163/171/196 153/161/180 136/144/157 152/160/179
f 164/172/197 165/173/198 154/162/181 153/161/180
f 165/173/198 166/174/199 155/163/182 154/162/181
f 166/174/199 58/58/200 60/60/183 155/163/182
f 112/115/123 167/175/201 158/166/188 113/116/124
f 168/176/202 117/120/128 161/169/193 156/164/185
f 25/25/203 168/176/202 156/164/185 23/23/184
f 118/121/129 39/39/131 42/42/204 141/149/163
f 49/49/205 169/177/206 168/176/202 25/25/203
f 169/177/206 115/118/126 117/120/128 168/176/202
f 150/158/174 143/151/165 144/152/166 145/153/167
f 65/65/207 170/178/208 162/170/195 79/79/194
f 170/178/208 171/179/209 163/171/196 162/170/195
f 171/179/209 164/172/197 153/161/180 163/171/196
f 172/180/210 173/181/211 165/173/198 164/172/197
f 173/181/211 174/182/212 166/174/199 165/173/198
f 174/182/212 46/46/213 58/58/200 166/174/199
f 167/175/201 18/18/214 15/15/189 158/166/188
f 80/80/187 157/165/186 175/183/215 81/81/216
f 157/165/186 147/155/169 176/184/217 175/183/215
f 141/149/163 42/42/204 19/19/218 177/185/219
f 126/132/144 11/11/143 10/10/220 178/186/221
f 177/185/219 19/19/218 18/18/214 167/175/201
f 4/4/4 3/3/3 119/122/130 143/151/165
f 64/64/222 179/187/223 170/178/208 65/65/207
f 179/187/223 180/188/224 171/179/209 170/178/208
f 180/188/224 172/180/210 164/172/197 171/179/209
f 181/189/225 182/190/226 173/181/211 172/180/210
f 182/190/226 183/191/227 174/182/212 173/181/211
f 183/191/227 44/44/228 46/46/213 174/182/212
f 128/134/146 126/132/144 178/186/221 184/192/229
f 33/33/33 4/4/4 143/151/165 150/158/174
f 30/30/30 33/33/33 150/158/174 148/156/171
f 142/150/164 141/149/163 177/185/219 185/193/230
f 185/193/230 177/185/219 167/175/201 112/115/123
f 146/154/168 185/193/230 112/115/123 111/114/122
f 130/136/148 128/134/146 184/192/229 132/138/150
f 48/48/231 186/194/232 179/187/223 64/64/222
f 186/194/232 187/195/233 180/188/224 179/187/223
f 187/195/233 181/189/225 172/180/210 180/188/224
f 188/196/234 189/197/235 182/190/226 181/189/225
f 189/197/235 190/198/236 183/191/227 182/190/226
f 190/198/236 22/22/237 44/44/228 183/191/227
f 133/139/151 132/138/150 188/196/234 191/199/238
f 31/31/31 30/30/30 148/156/171 63/63/170
f 159/167/191 14/14/190 38/38/142 125/131/141
f 144/152/166 142/150/164 185/193/230 146/154/168
f 176/184/217 111/114/122 114/117/125 115/118/126
f 175/183/215 176/184/217 115/118/126 169/177/206
f 160/168/192 159/167/191 125/131/141 127/133/145
f 47/47/239 192/200/240 186/194/232 48/48/231
f 192/200/240 191/199/238 187/195/233 186/194/232
f 191/199/238 188/196/234 181/189/225 187/195/233
f 132/138/150 184/192/229 189/197/235 188/196/234
f 184/192/229 178/186/221 190/198/236 189/197/235
f 178/186/221 10/10/220 22/22/237 190/198/236
f 140/148/162 133/139/151 191/199/238 192/200/240
f 81/81/216 175/183/215 169/177/206 49/49/205
f 116/119/127 160/168/192 127/133/145 129/135/147
f 147/155/169 146/154/168 111/114/122 176/184/217
f 161/169/193 129/135/147 130/136/148 131/137/149
f 27/27/176 140/148/162 192/200/240 47/47/239
f 156/164/185 161/169/193 131/137/149 139/147/161
