# Blender v2.78 (sub 0) OBJ File: ''
# www.blender.org
mtllib Alti_dik.mtl
o instance_0_ID5.004
v 0.058557 0.074660 0.015000
v 0.090963 0.095474 0.015000
v 0.222034 0.148847 0.015000
v 0.117591 0.125245 0.015000
v 0.136625 0.161945 0.015000
v 0.237473 0.232398 0.015000
v 0.146769 0.203072 0.015000
v 0.222034 0.315949 0.015000
v 0.138274 0.287287 0.015000
v 0.177754 0.388464 0.015000
v 0.094384 0.355324 0.015000
v 0.026855 0.388952 0.015000
v -0.010239 0.389601 0.015000
v -0.111667 0.397573 0.015000
v -0.097756 0.410154 0.015000
v 0.022592 0.456965 0.015000
v 0.041348 0.457090 0.015000
v -0.046215 0.379163 0.015000
v 0.184042 0.688708 0.015000
v 0.130774 0.646143 0.015000
v 0.072120 0.659469 0.015000
v -0.113740 0.661816 0.015000
v -0.085072 0.682344 0.015000
v 0.152160 0.703768 0.015000
v 0.118565 0.714472 0.015000
v 0.048620 0.722141 0.015000
v -0.159891 0.081272 0.015000
v -0.050198 0.076561 0.015000
v -0.082042 0.098499 0.015000
v -0.202917 0.165938 0.015000
v -0.218186 0.210959 0.015000
v -0.134991 0.207998 0.015000
v -0.124284 0.291877 0.015000
v -0.105249 0.328577 0.015000
v -0.138895 0.397294 0.015000
v -0.139531 0.411572 0.015000
v -0.227747 0.446304 0.015000
v -0.139553 0.425864 0.015000
v -0.138958 0.440144 0.015000
v -0.137749 0.454385 0.015000
v -0.216181 0.492416 0.015000
v -0.135928 0.468561 0.015000
v -0.200271 0.537214 0.015000
v -0.122603 0.524088 0.015000
v -0.117793 0.537547 0.015000
v -0.104829 0.564789 0.015000
v -0.161709 0.610337 0.015000
v -0.066894 0.611466 0.015000
v -0.016278 0.643961 0.015000
v 0.022581 0.064221 -0.015000
v -0.159891 0.081272 -0.015000
v -0.050198 0.076561 -0.015000
v -0.082042 0.098499 -0.015000
v -0.183426 0.122578 -0.015000
v -0.218186 0.210959 -0.015000
v -0.134429 0.250750 -0.015000
v -0.229095 0.257231 -0.015000
v -0.124284 0.291877 -0.015000
v -0.237473 0.351832 -0.015000
v -0.234867 0.399300 -0.015000
v -0.137643 0.383056 -0.015000
v -0.227747 0.446304 -0.015000
v -0.139553 0.425864 -0.015000
v -0.138958 0.440144 -0.015000
v -0.137749 0.454385 -0.015000
v -0.135928 0.468561 -0.015000
v -0.133498 0.482645 -0.015000
v -0.130463 0.496612 -0.015000
v -0.126830 0.510435 -0.015000
v -0.180164 0.580293 -0.015000
v -0.104829 0.564789 -0.015000
v -0.087719 0.589637 -0.015000
v -0.066894 0.611466 -0.015000
v -0.042879 0.629727 -0.015000
v -0.113740 0.661816 -0.015000
v 0.012239 0.653808 -0.015000
v 0.072120 0.659469 -0.015000
v 0.157786 0.632706 -0.015000
v 0.152160 0.703768 -0.015000
v -0.020885 0.711175 -0.015000
v 0.083847 0.720633 -0.015000
v 0.048620 0.722141 -0.015000
v -0.046215 0.379163 -0.015000
v -0.010239 0.389601 -0.015000
v 0.029107 0.000000 -0.015000
v 0.177754 0.076333 -0.015000
v 0.090963 0.095474 -0.015000
v 0.222034 0.148847 -0.015000
v 0.117591 0.125245 -0.015000
v 0.147332 0.245824 -0.015000
v 0.222034 0.315949 -0.015000
v 0.120214 0.324635 -0.015000
v 0.026855 0.388952 -0.015000
v -0.097756 0.410154 -0.015000
v -0.082758 0.421419 -0.015000
v -0.066797 0.431272 -0.015000
v -0.032526 0.446432 -0.015000
v 0.041348 0.457090 -0.015000
v 0.182332 0.615166 0.015000
v 0.184042 0.688708 -0.015000
v 0.022581 0.064221 0.015000
v 0.058557 0.074660 -0.015000
v -0.014513 0.064870 -0.015000
v -0.014513 0.064870 0.015000
v 0.136625 0.161945 -0.015000
v 0.146769 0.203072 -0.015000
v -0.107873 0.129187 0.015000
v -0.107873 0.129187 -0.015000
v 0.147332 0.245824 0.015000
v -0.125933 0.166535 0.015000
v -0.125933 0.166535 -0.015000
v 0.138274 0.287287 -0.015000
v -0.134991 0.207998 -0.015000
v 0.120214 0.324635 0.015000
v -0.134429 0.250750 0.015000
v 0.094384 0.355324 -0.015000
v 0.062540 0.377261 0.015000
v 0.062540 0.377261 -0.015000
v -0.105249 0.328577 -0.015000
v -0.078621 0.358348 0.015000
v -0.078621 0.358348 -0.015000
v -0.042879 0.629727 0.015000
v -0.087719 0.589637 0.015000
v -0.016278 0.643961 -0.015000
v 0.110484 0.024432 0.015000
v 0.110484 0.024432 -0.015000
v 0.177754 0.076333 0.015000
v 0.237473 0.232398 -0.015000
v 0.177754 0.388464 -0.015000
v 0.110484 0.440364 -0.015000
v 0.110484 0.440364 0.015000
v 0.060039 0.455510 0.015000
v 0.060039 0.455510 -0.015000
v 0.022592 0.456965 -0.015000
v 0.003924 0.455135 -0.015000
v 0.003924 0.455135 0.015000
v -0.014499 0.451614 -0.015000
v -0.014499 0.451614 0.015000
v -0.032526 0.446432 0.015000
v -0.050007 0.439633 -0.015000
v -0.050007 0.439633 0.015000
v -0.066797 0.431272 0.015000
v -0.082758 0.421419 0.015000
v -0.111667 0.397573 -0.015000
v -0.124377 0.383779 0.015000
v -0.124377 0.383779 -0.015000
v -0.135780 0.368885 0.015000
v -0.135780 0.368885 -0.015000
v -0.137643 0.383056 0.015000
v -0.138895 0.397294 -0.015000
v -0.139531 0.411572 -0.015000
v -0.133498 0.482645 0.015000
v -0.130463 0.496612 0.015000
v -0.126830 0.510435 0.015000
v -0.122603 0.524088 -0.015000
v -0.117793 0.537547 -0.015000
v 0.012239 0.653808 0.015000
v 0.041954 0.659021 -0.015000
v 0.041954 0.659021 0.015000
v 0.101977 0.655140 -0.015000
v 0.101977 0.655140 0.015000
v 0.130774 0.646143 -0.015000
v 0.157786 0.632706 0.015000
v 0.182332 0.615166 -0.015000
v 0.118565 0.714472 -0.015000
v 0.083847 0.720633 0.015000
v 0.013503 0.718970 -0.015000
v 0.013503 0.718970 0.015000
v -0.020885 0.711175 0.015000
v -0.053937 0.698894 -0.015000
v -0.053937 0.698894 0.015000
v -0.085072 0.682344 -0.015000
v -0.139436 0.637672 -0.015000
v -0.139436 0.637672 0.015000
v -0.161709 0.610337 -0.015000
v -0.180164 0.580293 0.015000
v -0.200271 0.537214 -0.015000
v -0.216181 0.492416 -0.015000
v -0.234867 0.399300 0.015000
v -0.237473 0.351832 0.015000
v -0.235543 0.304331 0.015000
v -0.235543 0.304331 -0.015000
v -0.229095 0.257231 0.015000
v -0.202917 0.165938 -0.015000
v -0.183426 0.122578 0.015000
v -0.055627 0.006265 -0.015000
v -0.132526 0.042398 0.015000
v -0.132526 0.042398 -0.015000
v -0.055627 0.006265 0.015000
v 0.029107 -0.000000 0.015000
vt 0.0000 0.0000
vt 0.0000 0.0000
vt 0.0000 0.0000
vt 0.0000 0.0000
vt 0.0000 0.0000
vt 0.0000 0.0000
vt 0.0000 0.0000
vt 0.0000 0.0000
vt 0.0000 0.0000
vt 0.0000 0.0000
vt 0.0000 0.0000
vt 0.0000 0.0000
vt 0.0000 0.0000
vt 0.0000 0.0000
vt 0.0000 0.0000
vt 0.0000 0.0000
vt 0.0000 0.0000
vt 0.0000 0.0000
vt 0.0000 0.0000
vt 0.0000 0.0000
vt 0.0000 0.0000
vt 0.0000 0.0000
vt 0.0000 0.0000
vt 0.0000 0.0000
vt 0.0000 0.0000
vt 0.0000 0.0000
vt 0.0000 0.0000
vt 0.0000 0.0000
vt 0.0000 0.0000
vt 0.0000 0.0000
vt 0.0000 0.0000
vt 0.0000 0.0000
vt 0.0000 0.0000
vt 0.0000 0.0000
vt 0.0000 0.0000
vt 0.0000 0.0000
vt 0.0000 0.0000
vt 0.0000 0.0000
vt 0.0000 0.0000
vt 0.0000 0.0000
vt 0.0000 0.0000
vt 0.0000 0.0000
vt 0.0000 0.0000
vt 0.0000 0.0000
vt 0.0000 0.0000
vt 0.0000 0.0000
vt 0.0000 0.0000
vt 0.0000 0.0000
vt 0.0000 0.0000
vt 0.0000 0.0000
vt 0.0000 0.0000
vt 0.0000 0.0000
vt 0.0000 0.0000
vt 0.0000 0.0000
vt 0.0000 0.0000
vt 0.0000 0.0000
vt 0.0000 0.0000
vt 0.0000 0.0000
vt 0.0000 0.0000
vt 0.0000 0.0000
vt 0.0000 0.0000
vt 0.0000 0.0000
vt 0.0000 0.0000
vt 0.0000 0.0000
vt 0.0000 0.0000
vt 0.0000 0.0000
vt 0.0000 0.0000
vt 0.0000 0.0000
vt 0.0000 0.0000
vt 0.0000 0.0000
vt 0.0000 0.0000
vt 0.0000 0.0000
vt 0.0000 0.0000
vt 0.0000 0.0000
vt 0.0000 0.0000
vt 0.0000 0.0000
vt 0.0000 0.0000
vt 0.0000 0.0000
vt 0.0000 0.0000
vt 0.0000 0.0000
vt 0.0000 0.0000
vt 0.0000 0.0000
vt 0.0000 0.0000
vt 0.0000 0.0000
vt 0.0000 0.0000
vt 0.0000 0.0000
vt 0.0000 0.0000
vt 0.0000 0.0000
vt 0.0000 0.0000
vt 0.0000 0.0000
vt 0.0000 0.0000
vt 0.0000 0.0000
vt 0.0000 0.0000
vt 0.0000 0.0000
vt 0.0000 0.0000
vt 0.0000 0.0000
vt 0.0000 0.0000
vt 0.0000 0.0000
vt 0.0000 0.0000
vt 0.0000 0.0000
vt 0.0000 0.0000
vt 0.0000 0.0000
vt 0.0000 0.0000
vt 0.0000 0.0000
vt 0.0000 0.0000
vt 0.0000 0.0000
vt 0.0000 0.0000
vt 0.0000 0.0000
vt 0.0000 0.0000
vt 0.0000 0.0000
vt 0.0000 0.0000
vt 0.0000 0.0000
vt 0.0000 0.0000
vt 0.0000 0.0000
vt 0.0000 0.0000
vt 0.0000 0.0000
vt 0.0000 0.0000
vt 0.0000 0.0000
vt 0.0000 0.0000
vt 0.0000 0.0000
vt 0.0000 0.0000
vt 0.0000 0.0000
vt 0.0000 0.0000
vt 0.0000 0.0000
vt 0.0000 0.0000
vt 0.0000 0.0000
vt 0.0000 0.0000
vt 0.0000 0.0000
vt 0.0000 0.0000
vt 0.0000 0.0000
vt 0.0000 0.0000
vt 0.0000 0.0000
vt 0.0000 0.0000
vt 0.0000 0.0000
vt 0.0000 0.0000
vt 0.0000 0.0000
vt 0.0000 0.0000
vt 0.0000 0.0000
vt 0.0000 0.0000
vt 0.0000 0.0000
vt 0.0000 0.0000
vt 0.0000 0.0000
vt 0.0000 0.0000
vt 0.0000 0.0000
vt 0.0000 0.0000
vt 0.0000 0.0000
vt 0.0000 0.0000
vt 0.0000 0.0000
vt 0.0000 0.0000
vt 0.0000 0.0000
vt 0.0000 0.0000
vt 0.0000 0.0000
vt 0.0000 0.0000
vt 0.0000 0.0000
vt 0.0000 0.0000
vt 0.0000 0.0000
vt 0.0000 0.0000
vt 0.0000 0.0000
vt 0.0000 0.0000
vt 0.0000 0.0000
vt 0.0000 0.0000
vt 0.0000 0.0000
vt 0.0000 0.0000
vt 0.0000 0.0000
vt 0.0000 0.0000
vt 0.0000 0.0000
vt 0.0000 0.0000
vt 0.0000 0.0000
vt 0.0000 0.0000
vt 0.0000 0.0000
vt 0.0000 0.0000
vt 0.0000 0.0000
vt 0.0000 0.0000
vt 0.0000 0.0000
vt 0.0000 0.0000
vt 0.0000 0.0000
vt 0.0000 0.0000
vt 0.0000 0.0000
vt 0.0000 0.0000
vt 0.0000 0.0000
vt 0.0000 0.0000
vt 0.0000 0.0000
vt 0.0000 0.0000
vt 0.0000 0.0000
vt 0.0000 0.0000
vt 0.0000 0.0000
vt 0.0000 0.0000
vt 0.0000 0.0000
vt 0.0000 0.0000
vt 0.0000 0.0000
vt -0.0000 0.5961
vt -0.0333 0.5544
vt -0.0000 0.5544
vt -0.0333 0.5961
vt -0.0000 0.6177
vt -0.0333 0.5749
vt -0.0000 0.5749
vt -0.0333 0.6177
vt -0.0000 -0.5261
vt 0.0333 -0.4849
vt -0.0000 -0.4849
vt 0.0333 -0.5261
vt -0.0000 0.5975
vt -0.0333 0.5532
vt -0.0000 0.5532
vt -0.0333 0.5975
vt -0.0000 -0.4116
vt 0.0333 -0.3699
vt -0.0000 -0.3699
vt 0.0333 -0.4116
vt -0.0000 0.5459
vt -0.0333 0.5000
vt -0.0000 0.5000
vt -0.0333 0.5459
vt -0.0000 -0.2670
vt 0.0333 -0.2240
vt -0.0000 -0.2240
vt 0.0333 -0.2670
vt -0.0000 0.4709
vt -0.0333 0.4239
vt -0.0000 0.4239
vt -0.0333 0.4709
vt 0.0333 -0.1095
vt -0.0000 -0.0649
vt -0.0000 -0.1095
vt 0.0333 -0.0649
vt -0.0000 0.3768
vt -0.0333 0.3293
vt -0.0000 0.3293
vt -0.0333 0.3768
vt 0.0333 0.0474
vt -0.0000 0.0935
vt -0.0000 0.0474
vt 0.0333 0.0935
vt -0.0000 0.2642
vt -0.0333 0.2171
vt 0.0000 0.2171
vt -0.0333 0.2642
vt 0.0333 0.1958
vt -0.0000 0.2429
vt -0.0000 0.1958
vt 0.0333 0.2429
vt 0.0000 0.1326
vt -0.0333 0.0865
vt 0.0000 0.0865
vt -0.0333 0.1326
vt 0.0333 0.3306
vt 0.0000 0.3781
vt 0.0000 0.3306
vt 0.0333 0.3781
vt 0.0000 -0.0174
vt -0.0333 -0.0620
vt 0.0000 -0.0620
vt -0.0333 -0.0174
vt 0.0333 0.4476
vt 0.0000 0.4946
vt 0.0000 0.4476
vt 0.0333 0.4946
vt -0.0333 -0.2236
vt 0.0000 -0.1806
vt -0.0333 -0.1806
vt 0.0000 -0.2236
vt 0.0333 0.5406
vt 0.0000 0.5865
vt 0.0000 0.5406
vt 0.0333 0.5865
vt -0.0333 -0.3849
vt 0.0000 -0.3432
vt -0.0333 -0.3432
vt 0.0000 -0.3849
vt 0.0333 0.6009
vt 0.0000 0.6452
vt 0.0000 0.6009
vt 0.0333 0.6452
vt -0.0333 -0.5245
vt 0.0000 -0.4833
vt -0.0333 -0.4833
vt 0.0000 -0.5245
vt 0.0333 0.6598
vt 0.0000 0.6170
vt 0.0333 0.6170
vt 0.0000 0.6598
vt 0.0333 0.6202
vt 0.0000 0.5785
vt 0.0333 0.5785
vt 0.0000 0.6202
vn -0.0000 -0.0000 1.0000
vn 0.0000 0.0000 -1.0000
vn 0.9997 -0.0232 0.0000
vn -0.4138 0.9103 0.0000
vn -0.1321 0.9912 0.0000
vn -0.6488 0.7610 0.0000
vn 0.1663 0.9861 0.0000
vn -0.8230 0.5680 0.0000
vn 0.4439 0.8961 0.0000
vn -0.9358 0.3524 0.0000
vn 0.6722 0.7404 0.0000
vn -0.9919 0.1271 0.0000
vn 0.8392 0.5439 0.0000
vn -0.9949 -0.1008 0.0000
vn 0.9451 0.3266 0.0000
vn -0.9452 -0.3266 0.0000
vn 0.9949 0.1008 0.0000
vn -0.8392 -0.5439 0.0000
vn 0.9919 -0.1272 0.0000
vn -0.6722 -0.7404 0.0000
vn 0.9358 -0.3524 0.0000
vn -0.4439 -0.8961 0.0000
vn 0.8230 -0.5680 0.0000
vn -0.1663 -0.9861 0.0000
vn 0.6488 -0.7610 0.0000
vn 0.1321 -0.9912 0.0000
vn 0.4138 -0.9103 0.0000
vn 0.5402 -0.8415 0.0000
vn 0.6665 -0.7455 0.0000
vn 0.7760 -0.6307 0.0000
vn 0.4004 -0.9164 0.0000
vn 0.7446 -0.6676 -0.0000
vn 0.4568 -0.8896 -0.0000
vn 0.9340 -0.3574 0.0000
vn 1.0000 0.0000 0.0000
vn 0.9340 0.3574 0.0000
vn 0.7446 0.6676 0.0000
vn 0.4568 0.8896 0.0000
vn 0.2876 0.9578 0.0000
vn 0.0842 0.9964 0.0000
vn 0.0388 0.9992 0.0000
vn -0.0522 0.9986 0.0000
vn -0.1428 0.9898 0.0000
vn -0.2322 0.9727 0.0000
vn -0.3197 0.9475 0.0000
vn -0.4045 0.9145 0.0000
vn -0.4860 0.8739 0.0000
vn -0.5635 0.8261 0.0000
vn -0.6363 0.7714 0.0000
vn -0.7038 0.7104 0.0000
vn -0.7655 0.6434 0.0000
vn -0.7940 0.6079 0.0000
vn 0.9915 0.1303 0.0000
vn 0.9940 0.1090 0.0000
vn 0.9978 0.0661 0.0000
vn 0.9997 0.0230 0.0000
vn 0.9998 -0.0201 0.0000
vn 0.9998 -0.0200 0.0000
vn 0.9980 -0.0631 0.0000
vn 0.9944 -0.1060 0.0000
vn 0.9889 -0.1488 0.0000
vn 0.9815 -0.1912 0.0000
vn 0.9724 -0.2334 0.0000
vn 0.9614 -0.2750 0.0000
vn 0.9487 -0.3162 0.0000
vn 0.9417 -0.3365 0.0000
vn 0.9030 -0.4297 0.0000
vn 0.8660 -0.5000 0.0000
vn 0.2504 -0.9681 0.0000
vn 0.0941 -0.9956 0.0000
vn -0.0645 -0.9979 0.0000
vn -0.2215 -0.9751 0.0000
vn -0.3730 -0.9278 0.0000
vn -0.5150 -0.8572 0.0000
vn -0.5814 -0.8136 0.0000
vn 0.4271 0.9042 0.0000
vn 0.3662 0.9306 0.0000
vn 0.2397 0.9709 0.0000
vn 0.1090 0.9940 0.0000
vn -0.0236 0.9997 0.0000
vn -0.1558 0.9878 0.0000
vn -0.2853 0.9584 0.0000
vn -0.4097 0.9122 0.0000
vn -0.5269 0.8499 0.0000
vn -0.6349 0.7726 0.0000
vn -0.7316 0.6817 0.0000
vn -0.8155 0.5788 0.0000
vn -0.8521 0.5234 0.0000
vn -0.9062 0.4229 0.0000
vn -0.9253 0.3792 0.0000
vn -0.9572 0.2893 0.0000
vn -0.9805 0.1968 0.0000
vn -0.9947 0.1024 0.0000
vn -1.0000 0.0071 0.0000
vn -0.9961 -0.0882 0.0000
vn -0.9832 -0.1828 0.0000
vn -0.9613 -0.2756 0.0000
vn -0.9306 -0.3660 0.0000
vn -0.8915 -0.4530 0.0000
vn -0.8443 -0.5359 0.0000
vn -0.8177 -0.5756 0.0000
vn -0.2537 -0.9673 -0.0000
vn -0.4253 -0.9051 -0.0000
vn 0.1087 -0.9941 -0.0000
usemtl None
s off
f 125/1/1 189/2/1 190/3/1
f 189/2/1 125/1/1 187/4/1
f 187/4/1 125/1/1 127/5/1
f 187/4/1 127/5/1 101/6/1
f 101/6/1 127/5/1 1/7/1
f 1/7/1 127/5/1 2/8/1
f 2/8/1 127/5/1 3/9/1
f 2/8/1 3/9/1 4/10/1
f 4/10/1 3/9/1 5/11/1
f 5/11/1 3/9/1 6/12/1
f 5/11/1 6/12/1 7/13/1
f 7/13/1 6/12/1 109/14/1
f 109/14/1 6/12/1 8/15/1
f 109/14/1 8/15/1 9/16/1
f 9/16/1 8/15/1 114/17/1
f 114/17/1 8/15/1 10/18/1
f 114/17/1 10/18/1 11/19/1
f 11/19/1 10/18/1 117/20/1
f 117/20/1 10/18/1 12/21/1
f 12/21/1 10/18/1 131/22/1
f 12/21/1 131/22/1 13/23/1
f 13/23/1 131/22/1 14/24/1
f 14/24/1 131/22/1 15/25/1
f 15/25/1 131/22/1 143/26/1
f 143/26/1 131/22/1 142/27/1
f 142/27/1 131/22/1 141/28/1
f 141/28/1 131/22/1 139/29/1
f 139/29/1 131/22/1 132/30/1
f 139/29/1 132/30/1 138/31/1
f 138/31/1 132/30/1 136/32/1
f 136/32/1 132/30/1 16/33/1
f 16/33/1 132/30/1 17/34/1
f 18/35/1 147/36/1 120/37/1
f 147/36/1 18/35/1 145/38/1
f 145/38/1 18/35/1 13/23/1
f 145/38/1 13/23/1 14/24/1
f 19/39/1 163/40/1 99/41/1
f 163/40/1 19/39/1 20/42/1
f 20/42/1 19/39/1 161/43/1
f 161/43/1 19/39/1 21/44/1
f 21/44/1 19/39/1 22/45/1
f 22/45/1 19/39/1 23/46/1
f 23/46/1 19/39/1 171/47/1
f 171/47/1 19/39/1 24/48/1
f 171/47/1 24/48/1 169/49/1
f 169/49/1 24/48/1 25/50/1
f 169/49/1 25/50/1 168/51/1
f 168/51/1 25/50/1 166/52/1
f 168/51/1 166/52/1 26/53/1
f 187/4/1 104/54/1 27/55/1
f 104/54/1 187/4/1 101/6/1
f 27/55/1 104/54/1 28/56/1
f 27/55/1 28/56/1 29/57/1
f 27/55/1 29/57/1 185/58/1
f 185/58/1 29/57/1 107/59/1
f 185/58/1 107/59/1 30/60/1
f 30/60/1 107/59/1 110/61/1
f 30/60/1 110/61/1 31/62/1
f 31/62/1 110/61/1 32/63/1
f 31/62/1 32/63/1 115/64/1
f 31/62/1 115/64/1 183/65/1
f 183/65/1 115/64/1 33/66/1
f 183/65/1 33/66/1 181/67/1
f 181/67/1 33/66/1 34/68/1
f 181/67/1 34/68/1 180/69/1
f 180/69/1 34/68/1 120/37/1
f 180/69/1 120/37/1 147/36/1
f 180/69/1 147/36/1 179/70/1
f 179/70/1 147/36/1 149/71/1
f 179/70/1 149/71/1 35/72/1
f 179/70/1 35/72/1 36/73/1
f 179/70/1 36/73/1 37/74/1
f 37/74/1 36/73/1 38/75/1
f 37/74/1 38/75/1 39/76/1
f 37/74/1 39/76/1 40/77/1
f 37/74/1 40/77/1 41/78/1
f 41/78/1 40/77/1 42/79/1
f 41/78/1 42/79/1 152/80/1
f 41/78/1 152/80/1 153/81/1
f 41/78/1 153/81/1 43/82/1
f 43/82/1 153/81/1 154/83/1
f 43/82/1 154/83/1 44/84/1
f 43/82/1 44/84/1 45/85/1
f 43/82/1 45/85/1 176/86/1
f 176/86/1 45/85/1 46/87/1
f 176/86/1 46/87/1 123/88/1
f 176/86/1 123/88/1 47/89/1
f 47/89/1 123/88/1 48/90/1
f 47/89/1 48/90/1 174/91/1
f 174/91/1 48/90/1 122/92/1
f 174/91/1 122/92/1 49/93/1
f 174/91/1 49/93/1 22/45/1
f 22/45/1 49/93/1 157/94/1
f 22/45/1 157/94/1 159/95/1
f 22/45/1 159/95/1 21/44/1
f 188/96/2 103/97/2 50/98/2
f 103/97/2 188/96/2 51/99/2
f 103/97/2 51/99/2 52/100/2
f 52/100/2 51/99/2 53/101/2
f 53/101/2 51/99/2 54/102/2
f 53/101/2 54/102/2 108/103/2
f 108/103/2 54/102/2 184/104/2
f 108/103/2 184/104/2 111/105/2
f 111/105/2 184/104/2 55/106/2
f 111/105/2 55/106/2 113/107/2
f 113/107/2 55/106/2 56/108/2
f 56/108/2 55/106/2 57/109/2
f 56/108/2 57/109/2 58/110/2
f 58/110/2 57/109/2 182/111/2
f 58/110/2 182/111/2 119/112/2
f 119/112/2 182/111/2 59/113/2
f 119/112/2 59/113/2 121/114/2
f 121/114/2 59/113/2 148/115/2
f 148/115/2 59/113/2 60/116/2
f 148/115/2 60/116/2 61/117/2
f 61/117/2 60/116/2 150/118/2
f 150/118/2 60/116/2 151/119/2
f 151/119/2 60/116/2 62/120/2
f 151/119/2 62/120/2 63/121/2
f 63/121/2 62/120/2 64/122/2
f 64/122/2 62/120/2 65/123/2
f 65/123/2 62/120/2 178/124/2
f 65/123/2 178/124/2 66/125/2
f 66/125/2 178/124/2 67/126/2
f 67/126/2 178/124/2 68/127/2
f 68/127/2 178/124/2 177/128/2
f 68/127/2 177/128/2 69/129/2
f 69/129/2 177/128/2 155/130/2
f 155/130/2 177/128/2 156/131/2
f 156/131/2 177/128/2 70/132/2
f 156/131/2 70/132/2 71/133/2
f 71/133/2 70/132/2 72/134/2
f 72/134/2 70/132/2 175/135/2
f 72/134/2 175/135/2 73/136/2
f 73/136/2 175/135/2 173/137/2
f 73/136/2 173/137/2 74/138/2
f 74/138/2 173/137/2 124/139/2
f 124/139/2 173/137/2 75/140/2
f 124/139/2 75/140/2 76/141/2
f 76/141/2 75/140/2 158/142/2
f 158/142/2 75/140/2 77/143/2
f 78/144/2 100/145/2 164/146/2
f 100/145/2 78/144/2 162/147/2
f 100/145/2 162/147/2 160/148/2
f 100/145/2 160/148/2 77/143/2
f 100/145/2 77/143/2 75/140/2
f 100/145/2 75/140/2 172/149/2
f 100/145/2 172/149/2 170/150/2
f 100/145/2 170/150/2 79/151/2
f 79/151/2 170/150/2 80/152/2
f 79/151/2 80/152/2 165/153/2
f 165/153/2 80/152/2 167/154/2
f 165/153/2 167/154/2 81/155/2
f 81/155/2 167/154/2 82/156/2
f 148/115/2 83/157/2 121/114/2
f 83/157/2 148/115/2 146/158/2
f 83/157/2 146/158/2 84/159/2
f 84/159/2 146/158/2 144/160/2
f 186/161/2 126/162/2 85/163/2
f 126/162/2 186/161/2 188/96/2
f 126/162/2 188/96/2 86/164/2
f 86/164/2 188/96/2 50/98/2
f 86/164/2 50/98/2 102/165/2
f 86/164/2 102/165/2 87/166/2
f 86/164/2 87/166/2 88/167/2
f 88/167/2 87/166/2 89/168/2
f 88/167/2 89/168/2 105/169/2
f 88/167/2 105/169/2 128/170/2
f 128/170/2 105/169/2 106/171/2
f 128/170/2 106/171/2 90/172/2
f 128/170/2 90/172/2 91/173/2
f 91/173/2 90/172/2 112/174/2
f 91/173/2 112/174/2 92/175/2
f 91/173/2 92/175/2 129/176/2
f 129/176/2 92/175/2 116/177/2
f 129/176/2 116/177/2 118/178/2
f 129/176/2 118/178/2 93/179/2
f 129/176/2 93/179/2 130/180/2
f 130/180/2 93/179/2 84/159/2
f 130/180/2 84/159/2 144/160/2
f 130/180/2 144/160/2 94/181/2
f 130/180/2 94/181/2 95/182/2
f 130/180/2 95/182/2 96/183/2
f 130/180/2 96/183/2 140/184/2
f 130/180/2 140/184/2 97/185/2
f 130/180/2 97/185/2 133/186/2
f 133/186/2 97/185/2 137/187/2
f 133/186/2 137/187/2 135/188/2
f 133/186/2 135/188/2 134/189/2
f 133/186/2 134/189/2 98/190/2
f 164/146/3 19/39/3 99/41/3
f 19/39/3 164/146/3 100/145/3
s 1
f 1/191/4 50/192/5 101/193/5
f 50/192/5 1/191/4 102/194/4
f 2/195/6 102/196/4 1/197/4
f 102/196/4 2/195/6 87/198/6
f 101/199/5 103/200/7 104/201/7
f 103/200/7 101/199/5 50/202/5
f 4/203/8 87/204/6 2/205/6
f 87/204/6 4/203/8 89/206/8
f 104/207/7 52/208/9 28/209/9
f 52/208/9 104/207/7 103/210/7
f 5/211/10 89/212/8 4/213/8
f 89/212/8 5/211/10 105/214/10
f 28/215/9 53/216/11 29/217/11
f 53/216/11 28/215/9 52/218/9
f 7/219/12 105/220/10 5/221/10
f 105/220/10 7/219/12 106/222/12
f 53/223/11 107/224/13 29/225/11
f 107/224/13 53/223/11 108/226/13
f 109/227/14 106/228/12 7/229/12
f 106/228/12 109/227/14 90/230/14
f 108/231/13 110/232/15 107/233/13
f 110/232/15 108/231/13 111/234/15
f 9/235/16 90/236/14 109/237/14
f 90/236/14 9/235/16 112/238/16
f 111/239/15 32/240/17 110/241/15
f 32/240/17 111/239/15 113/242/17
f 114/243/18 112/244/16 9/245/16
f 112/244/16 114/243/18 92/246/18
f 113/247/17 115/248/19 32/249/17
f 115/248/19 113/247/17 56/250/19
f 11/251/20 92/252/18 114/253/18
f 92/252/18 11/251/20 116/254/20
f 56/255/19 33/256/21 115/257/19
f 33/256/21 56/255/19 58/258/21
f 116/259/20 117/260/22 118/261/22
f 117/260/22 116/259/20 11/262/20
f 58/263/21 34/264/23 33/265/21
f 34/264/23 58/263/21 119/266/23
f 118/267/22 12/268/24 93/269/24
f 12/268/24 118/267/22 117/270/22
f 119/271/23 120/272/25 34/273/23
f 120/272/25 119/271/23 121/274/25
f 93/275/24 13/276/26 84/277/26
f 13/276/26 93/275/24 12/278/24
f 83/279/27 120/280/25 121/281/25
f 120/280/25 83/279/27 18/282/27
f 84/283/26 18/284/27 83/285/27
f 18/284/27 84/283/26 13/286/26
f 74/138/28 48/90/29 73/136/29
f 48/90/29 74/138/28 122/92/28
f 72/134/30 48/90/29 123/88/30
f 48/90/29 72/134/30 73/136/29
f 124/139/31 122/92/28 74/138/28
f 122/92/28 124/139/31 49/93/31
f 86/164/32 125/1/33 126/162/33
f 125/1/33 86/164/32 127/5/32
f 86/164/32 3/9/34 127/5/32
f 3/9/34 86/164/32 88/167/34
f 88/167/34 6/12/35 3/9/34
f 6/12/35 88/167/34 128/170/35
f 128/170/35 8/15/36 6/12/35
f 8/15/36 128/170/35 91/173/36
f 91/173/36 10/18/37 8/15/36
f 10/18/37 91/173/36 129/176/37
f 10/18/37 130/180/38 131/22/38
f 130/180/38 10/18/37 129/176/37
f 131/22/38 133/186/39 132/30/39
f 133/186/39 131/22/38 130/180/38
f 132/30/40 98/190/41 17/34/41
f 98/190/41 132/30/40 133/186/40
f 17/34/41 134/189/42 16/33/42
f 134/189/42 17/34/41 98/190/41
f 16/33/42 135/188/43 136/32/43
f 135/188/43 16/33/42 134/189/42
f 136/32/43 137/187/44 138/31/44
f 137/187/44 136/32/43 135/188/43
f 138/31/44 97/185/45 139/29/45
f 97/185/45 138/31/44 137/187/44
f 139/29/45 140/184/46 141/28/46
f 140/184/46 139/29/45 97/185/45
f 141/28/46 96/183/47 142/27/47
f 96/183/47 141/28/46 140/184/46
f 142/27/47 95/182/48 143/26/48
f 95/182/48 142/27/47 96/183/47
f 143/26/48 94/181/49 15/25/49
f 94/181/49 143/26/48 95/182/48
f 15/25/49 144/160/50 14/24/50
f 144/160/50 15/25/49 94/181/49
f 144/160/50 145/38/51 14/24/50
f 145/38/51 144/160/50 146/158/51
f 146/158/51 147/36/52 145/38/51
f 147/36/52 146/158/51 148/115/52
f 148/115/53 149/71/54 147/36/53
f 149/71/54 148/115/53 61/117/54
f 61/117/54 35/72/55 149/71/54
f 35/72/55 61/117/54 150/118/55
f 150/118/55 36/73/56 35/72/55
f 36/73/56 150/118/55 151/119/56
f 151/119/56 38/75/57 36/73/56
f 38/75/57 151/119/56 63/121/58
f 63/121/58 39/76/59 38/75/57
f 39/76/59 63/121/58 64/122/59
f 64/122/59 40/77/60 39/76/59
f 40/77/60 64/122/59 65/123/60
f 65/123/60 42/79/61 40/77/60
f 42/79/61 65/123/60 66/125/61
f 66/125/61 152/80/62 42/79/61
f 152/80/62 66/125/61 67/126/62
f 67/126/62 153/81/63 152/80/62
f 153/81/63 67/126/62 68/127/63
f 68/127/63 154/83/64 153/81/63
f 154/83/64 68/127/63 69/129/64
f 69/129/64 44/84/65 154/83/64
f 44/84/65 69/129/64 155/130/65
f 155/130/65 45/85/66 44/84/65
f 45/85/66 155/130/65 156/131/66
f 156/131/67 46/87/68 45/85/67
f 46/87/68 156/131/67 71/133/68
f 71/133/68 123/88/30 46/87/68
f 123/88/30 71/133/68 72/134/30
f 76/141/69 49/93/31 124/139/31
f 49/93/31 76/141/69 157/94/69
f 158/142/70 157/94/69 76/141/69
f 157/94/69 158/142/70 159/95/70
f 77/143/71 159/95/70 158/142/70
f 159/95/70 77/143/71 21/44/71
f 160/148/72 21/44/71 77/143/71
f 21/44/71 160/148/72 161/43/72
f 162/147/73 161/43/72 160/148/72
f 161/43/72 162/147/73 20/42/73
f 78/144/74 20/42/73 162/147/73
f 20/42/73 78/144/74 163/40/74
f 164/146/75 163/40/74 78/144/74
f 163/40/74 164/146/75 99/41/75
f 19/39/76 79/151/77 24/48/77
f 79/151/77 19/39/76 100/145/76
f 24/48/77 165/153/78 25/50/78
f 165/153/78 24/48/77 79/151/77
f 25/50/78 81/155/79 166/52/79
f 81/155/79 25/50/78 165/153/78
f 166/52/79 82/156/80 26/53/80
f 82/156/80 166/52/79 81/155/79
f 26/53/80 167/154/81 168/51/81
f 167/154/81 26/53/80 82/156/80
f 168/51/81 80/152/82 169/49/82
f 80/152/82 168/51/81 167/154/81
f 169/49/82 170/150/83 171/47/83
f 170/150/83 169/49/82 80/152/82
f 171/47/83 172/149/84 23/46/84
f 172/149/84 171/47/83 170/150/83
f 23/46/84 75/140/85 22/45/85
f 75/140/85 23/46/84 172/149/84
f 22/45/85 173/137/86 174/91/86
f 173/137/86 22/45/85 75/140/85
f 173/137/86 47/89/87 174/91/86
f 47/89/87 173/137/86 175/135/87
f 175/135/87 176/86/88 47/89/87
f 176/86/88 175/135/87 70/132/88
f 70/132/89 43/82/90 176/86/89
f 43/82/90 70/132/89 177/128/90
f 177/128/90 41/78/91 43/82/90
f 41/78/91 177/128/90 178/124/91
f 178/124/91 37/74/92 41/78/91
f 37/74/92 178/124/91 62/120/92
f 62/120/92 179/70/93 37/74/92
f 179/70/93 62/120/92 60/116/93
f 60/116/93 180/69/94 179/70/93
f 180/69/94 60/116/93 59/113/94
f 59/113/94 181/67/95 180/69/94
f 181/67/95 59/113/94 182/111/95
f 182/111/95 183/65/96 181/67/95
f 183/65/96 182/111/95 57/109/96
f 57/109/96 31/62/97 183/65/96
f 31/62/97 57/109/96 55/106/97
f 55/106/97 30/60/98 31/62/97
f 30/60/98 55/106/97 184/104/98
f 184/104/98 185/58/99 30/60/98
f 185/58/99 184/104/98 54/102/99
f 54/102/99 27/55/100 185/58/99
f 27/55/100 54/102/99 51/99/100
f 51/99/100 187/4/101 27/55/100
f 187/4/101 51/99/100 188/96/101
f 186/161/102 187/4/103 188/96/103
f 187/4/103 186/161/102 189/2/102
f 85/163/104 189/2/102 186/161/102
f 189/2/102 85/163/104 190/3/104
f 126/162/33 190/3/104 85/163/104
f 190/3/104 126/162/33 125/1/33
