# Blender v2.78 (sub 0) OBJ File: ''
# www.blender.org
mtllib Cubuklu_dis.mtl
o polySurface20
v 0.058690 0.784304 0.009737
v 0.000000 0.784304 0.009737
v 0.000000 0.884121 0.009737
v 0.058690 0.901402 0.009737
v 0.133979 0.784304 0.009737
v 0.118286 0.874034 0.009737
v 0.101652 0.697935 0.009737
v 0.049953 0.692534 0.009737
v 0.000000 0.697935 0.009737
v 0.090227 0.640501 0.009737
v 0.050123 0.637155 0.009737
v 0.013791 0.642648 0.009737
v 0.049953 0.570569 0.009737
v 0.085677 0.571860 0.009737
v 0.069754 0.504241 0.009737
v 0.049953 0.491314 0.009737
v 0.020707 0.576154 0.009737
v 0.026207 0.504241 0.009737
v -0.058689 0.784304 0.009737
v -0.058689 0.901402 0.009737
v -0.133979 0.784304 0.009737
v -0.118285 0.874034 0.009737
v -0.101652 0.697935 0.009737
v -0.049952 0.692534 0.009737
v -0.050122 0.637155 0.009737
v -0.090226 0.640501 0.009737
v -0.013791 0.642648 0.009737
v -0.049952 0.570569 0.009737
v -0.049952 0.491314 0.009737
v -0.069754 0.504241 0.009737
v -0.085676 0.571860 0.009737
v -0.020707 0.576154 0.009737
v -0.026207 0.504241 0.009737
v 0.058690 0.784304 -0.009737
v 0.058690 0.901402 -0.009737
v 0.000000 0.884121 -0.009737
v 0.000000 0.784304 -0.009737
v 0.133979 0.784304 -0.009737
v 0.118286 0.874034 -0.009737
v 0.101652 0.697935 -0.009737
v 0.049953 0.692534 -0.009737
v 0.000000 0.697935 -0.009737
v 0.050123 0.637155 -0.009737
v 0.090227 0.640501 -0.009737
v 0.013791 0.642648 -0.009737
v 0.049953 0.570569 -0.009737
v 0.049953 0.491314 -0.009737
v 0.069754 0.504241 -0.009737
v 0.085677 0.571860 -0.009737
v 0.020707 0.576154 -0.009737
v 0.026207 0.504241 -0.009737
v -0.058689 0.784304 -0.009737
v -0.058689 0.901402 -0.009737
v -0.133979 0.784304 -0.009737
v -0.118285 0.874034 -0.009737
v -0.101652 0.697935 -0.009737
v -0.049952 0.692534 -0.009737
v -0.090226 0.640501 -0.009737
v -0.050122 0.637155 -0.009737
v -0.013791 0.642648 -0.009737
v -0.049952 0.570569 -0.009737
v -0.085676 0.571860 -0.009737
v -0.069754 0.504241 -0.009737
v -0.049952 0.491314 -0.009737
v -0.020707 0.576154 -0.009737
v -0.026207 0.504241 -0.009737
v -0.020014 0.000000 -0.006016
v -0.022592 -0.000000 0.000207
v -0.022592 0.715612 0.000207
v -0.020014 0.715612 -0.006016
v -0.020014 -0.000000 0.006430
v -0.020014 0.715612 0.006430
v -0.013791 -0.000000 0.009007
v -0.013791 0.715612 0.009007
v -0.007568 -0.000000 0.006430
v -0.007568 0.715612 0.006430
v -0.004990 -0.000000 0.000207
v -0.004990 0.715612 0.000207
v -0.007568 0.000000 -0.006016
v -0.007568 0.715612 -0.006016
v -0.013791 0.000000 -0.008594
v -0.013791 0.715612 -0.008594
vt 0.3758 0.4107
vt 0.4680 0.3942
vt 0.4896 0.5232
vt 0.4006 0.5611
vt 0.2659 0.4328
vt 0.3014 0.5402
vt 0.2803 0.3126
vt 0.3646 0.2907
vt 0.4443 0.2854
vt 0.2865 0.2324
vt 0.3534 0.2194
vt 0.4130 0.2178
vt 0.3452 0.1331
vt 0.2910 0.1429
vt 0.2993 0.0536
vt 0.3275 0.0315
vt 0.3919 0.1330
vt 0.3683 0.0413
vt 0.5560 0.8183
vt 0.5286 0.9681
vt 0.4405 0.9285
vt 0.4654 0.8011
vt 0.6656 0.8424
vt 0.6292 0.9499
vt 0.6534 0.7212
vt 0.5689 0.6995
vt 0.4887 0.6942
vt 0.5797 0.6286
vt 0.6465 0.6408
vt 0.5196 0.6269
vt 0.5867 0.5420
vt 0.6029 0.4400
vt 0.6316 0.4617
vt 0.6403 0.5515
vt 0.5404 0.5425
vt 0.5626 0.4508
vt 0.1336 0.3894
vt 0.0795 0.5295
vt 0.0009 0.4766
vt 0.0480 0.3560
vt 0.2362 0.4361
vt 0.1786 0.5314
vt 0.2475 0.3103
vt 0.1684 0.2740
vt 0.0881 0.2532
vt 0.1903 0.2070
vt 0.2545 0.2297
vt 0.1317 0.1955
vt 0.2109 0.1229
vt 0.2429 0.0237
vt 0.2676 0.0500
vt 0.2611 0.1411
vt 0.1644 0.1163
vt 0.2012 0.0284
vt 0.7997 0.7961
vt 0.8858 0.7621
vt 0.9351 0.8799
vt 0.8591 0.9358
vt 0.6941 0.8454
vt 0.7589 0.9402
vt 0.6861 0.7187
vt 0.7645 0.6819
vt 0.8437 0.6599
vt 0.6789 0.6381
vt 0.7416 0.6148
vt 0.7997 0.6027
vt 0.7210 0.5305
vt 0.6697 0.5487
vt 0.6631 0.4591
vt 0.6879 0.4327
vt 0.7670 0.5236
vt 0.7295 0.4367
vt 0.5016 0.5521
vt 0.4128 0.5901
vt 0.3941 0.5920
vt 0.2945 0.5709
vt 0.2714 0.5500
vt 0.4425 0.2077
vt 0.4722 0.2735
vt 0.2796 0.0296
vt 0.3075 0.0073
vt 0.3347 0.0010
vt 0.3751 0.0105
vt 0.3986 0.0332
vt 0.4224 0.1246
vt 0.5158 0.9968
vt 0.4277 0.9570
vt 0.6596 0.9588
vt 0.6347 0.9811
vt 0.5339 0.9990
vt 0.4603 0.6827
vt 0.4898 0.6165
vt 0.6220 0.4150
vt 0.6507 0.4367
vt 0.5104 0.5346
vt 0.5324 0.4435
vt 0.5547 0.4205
vt 0.5951 0.4097
vt 0.9036 0.0379
vt 0.9130 0.0379
vt 0.9130 0.5433
vt 0.9036 0.5433
vt 0.9223 0.0379
vt 0.9223 0.5433
vt 0.9317 0.0379
vt 0.9317 0.5433
vt 0.9411 0.0379
vt 0.9411 0.5433
vt 0.9505 0.0379
vt 0.9505 0.5433
vt 0.9599 0.0379
vt 0.9599 0.5433
vt 0.9693 0.0379
vt 0.9693 0.5433
vt 0.9787 0.0379
vt 0.9787 0.5433
vn -0.0000 0.0000 -1.0000
vn 0.0000 -0.0000 1.0000
vn 0.2825 -0.9593 0.0000
vn -0.4173 -0.9088 0.0000
vn -0.9850 -0.1723 0.0000
vn -0.9365 0.3505 0.0000
vn -0.9808 0.1951 0.0000
vn 0.9703 0.2420 0.0000
vn -0.9734 0.2292 0.0000
vn -0.5467 0.8374 0.0000
vn 0.4781 0.8783 0.0000
vn 0.9971 0.0763 0.0000
vn -0.9978 0.0661 0.0000
vn 0.9946 0.1035 0.0000
vn -0.2825 -0.9593 0.0000
vn 0.9850 -0.1723 0.0000
vn 0.4173 -0.9088 0.0000
vn 0.9365 0.3505 0.0000
vn 0.9808 0.1951 0.0000
vn -0.9703 0.2420 0.0000
vn 0.5466 0.8374 0.0000
vn 0.9734 0.2292 0.0000
vn -0.9971 0.0763 0.0000
vn -0.4781 0.8783 0.0000
vn 0.9978 0.0661 0.0000
vn -0.9946 0.1035 0.0000
vn -0.9239 0.0000 -0.3827
vn -0.9239 -0.0000 0.3827
vn -0.3826 -0.0000 0.9239
vn 0.3826 -0.0000 0.9239
vn 0.9239 -0.0000 0.3827
vn 0.9239 0.0000 -0.3827
vn 0.3827 0.0000 -0.9239
vn -0.3827 0.0000 -0.9239
usemtl None
s 1
f 1/1/1 2/2/1 3/3/1 4/4/1
f 5/5/1 1/1/1 4/4/1 6/6/1
f 7/7/1 8/8/1 1/1/1 5/5/1
f 8/8/1 9/9/1 2/2/1 1/1/1
f 8/8/1 7/7/1 10/10/1 11/11/1
f 9/9/1 8/8/1 11/11/1 12/12/1
f 13/13/1 14/14/1 15/15/1 16/16/1
f 17/17/1 13/13/1 16/16/1 18/18/1
f 11/11/1 10/10/1 14/14/1 13/13/1
f 12/12/1 11/11/1 13/13/1 17/17/1
f 19/19/1 20/20/1 3/21/1 2/22/1
f 21/23/1 22/24/1 20/20/1 19/19/1
f 23/25/1 21/23/1 19/19/1 24/26/1
f 24/26/1 19/19/1 2/22/1 9/27/1
f 24/26/1 25/28/1 26/29/1 23/25/1
f 9/27/1 27/30/1 25/28/1 24/26/1
f 28/31/1 29/32/1 30/33/1 31/34/1
f 32/35/1 33/36/1 29/32/1 28/31/1
f 25/28/1 28/31/1 31/34/1 26/29/1
f 27/30/1 32/35/1 28/31/1 25/28/1
f 34/37/2 35/38/2 36/39/2 37/40/2
f 38/41/2 39/42/2 35/38/2 34/37/2
f 40/43/2 38/41/2 34/37/2 41/44/2
f 41/44/2 34/37/2 37/40/2 42/45/2
f 41/44/2 43/46/2 44/47/2 40/43/2
f 42/45/2 45/48/2 43/46/2 41/44/2
f 46/49/2 47/50/2 48/51/2 49/52/2
f 50/53/2 51/54/2 47/50/2 46/49/2
f 43/46/2 46/49/2 49/52/2 44/47/2
f 45/48/2 50/53/2 46/49/2 43/46/2
f 52/55/2 37/56/2 36/57/2 53/58/2
f 54/59/2 52/55/2 53/58/2 55/60/2
f 56/61/2 57/62/2 52/55/2 54/59/2
f 57/62/2 42/63/2 37/56/2 52/55/2
f 57/62/2 56/61/2 58/64/2 59/65/2
f 42/63/2 57/62/2 59/65/2 60/66/2
f 61/67/2 62/68/2 63/69/2 64/70/2
f 65/71/2 61/67/2 64/70/2 66/72/2
f 59/65/2 58/64/2 62/68/2 61/67/2
f 60/66/2 59/65/2 61/67/2 65/71/2
f 36/73/3 35/74/3 4/4/3 3/3/3
f 35/75/4 39/76/4 6/6/4 4/4/4
f 39/77/5 38/41/5 5/5/5 6/6/5
f 38/41/6 40/43/6 7/7/6 5/5/6
f 40/43/7 44/47/7 10/10/7 7/7/7
f 45/78/8 42/79/8 9/9/8 12/12/8
f 49/52/9 48/51/9 15/15/9 14/14/9
f 48/80/10 47/81/10 16/16/10 15/15/10
f 47/82/11 51/83/11 18/18/11 16/16/11
f 51/84/12 50/85/12 17/17/12 18/18/12
f 44/47/13 49/52/13 14/14/13 10/10/13
f 50/85/14 45/78/14 12/12/14 17/17/14
f 53/86/15 36/87/15 3/21/15 20/20/15
f 54/59/16 55/88/16 22/24/16 21/23/16
f 55/89/17 53/90/17 20/20/17 22/24/17
f 56/61/18 54/59/18 21/23/18 23/25/18
f 58/64/19 56/61/19 23/25/19 26/29/19
f 42/91/20 60/92/20 27/30/20 9/27/20
f 64/93/21 63/94/21 30/33/21 29/32/21
f 63/69/22 62/68/22 31/34/22 30/33/22
f 65/95/23 66/96/23 33/36/23 32/35/23
f 66/97/24 64/98/24 29/32/24 33/36/24
f 62/68/25 58/64/25 26/29/25 31/34/25
f 60/92/26 65/95/26 32/35/26 27/30/26
f 67/99/27 68/100/27 69/101/27 70/102/27
f 68/100/28 71/103/28 72/104/28 69/101/28
f 71/103/29 73/105/29 74/106/29 72/104/29
f 73/105/30 75/107/30 76/108/30 74/106/30
f 75/107/31 77/109/31 78/110/31 76/108/31
f 77/109/32 79/111/32 80/112/32 78/110/32
f 79/111/33 81/113/33 82/114/33 80/112/33
f 81/113/34 67/115/34 70/116/34 82/114/34
