# Blender v2.78 (sub 0) OBJ File: ''
# www.blender.org
mtllib Cucky_tavuk.mtl
o Body.026
v 0.065563 0.096419 0.032461
v 0.000000 0.095686 0.085278
v 0.000000 0.050754 0.053368
v 0.040255 0.167301 0.035670
v 0.000000 0.167118 0.065197
v 0.036679 0.094219 -0.041814
v 0.036679 0.039292 0.010362
v 0.000000 0.049287 -0.029802
v 0.007978 0.040026 0.007061
v 0.000000 0.129889 -0.044656
v 0.000000 0.169869 -0.009445
v 0.000000 0.125396 -0.094723
v -0.040255 0.167301 0.035670
v -0.036679 0.094219 -0.041814
v -0.006144 0.113200 -0.088396
v 0.000000 0.103480 -0.096190
v 0.006144 0.113200 -0.088396
v 0.000000 0.121269 -0.100500
v 0.000000 0.114484 -0.089863
v -0.036679 0.039292 0.010362
v -0.065563 0.096419 0.032461
v -0.007979 0.040026 0.007061
v 0.079134 0.234515 -0.039796
v 0.000000 0.361057 -0.096465
v 0.072166 0.398561 -0.036312
v 0.000000 0.242493 -0.087295
v 0.112237 0.234698 0.045482
v 0.093164 0.189584 0.036312
v 0.000000 0.434048 -0.046490
v 0.075742 0.403421 0.056577
v 0.000000 0.444409 0.059603
v 0.000000 0.406630 0.112329
v 0.060795 0.336207 0.102609
v 0.056669 0.238641 0.102884
v 0.031819 0.212141 0.110495
v 0.000000 0.337949 0.126542
v 0.000000 0.242401 0.122140
v 0.000000 0.196736 0.112145
v 0.000000 0.220210 0.160195
v -0.031820 0.212141 0.110495
v 0.000000 0.218560 0.142130
v 0.000000 0.183348 0.145065
v 0.006144 0.191234 0.125992
v 0.000000 0.199487 0.110220
v 0.000000 0.183165 0.110403
v 0.000000 0.186924 0.124800
v 0.000000 0.173720 0.136629
v 0.000000 0.179405 0.123149
v -0.006144 0.191234 0.125992
v 0.000000 0.508506 -0.102701
v 0.022649 0.418367 -0.043189
v 0.000000 0.463024 -0.099491
v 0.000000 0.548302 -0.050800
v 0.000000 0.462749 -0.146623
v 0.016872 0.361882 -0.087846
v 0.000000 0.410665 -0.160195
v 0.000000 0.374903 -0.134611
v 0.000000 0.500345 0.032186
v 0.000000 0.439825 0.062079
v -0.022649 0.418367 -0.043189
v -0.016872 0.361882 -0.087846
v 0.000000 0.328229 -0.095915
v 0.000000 0.335015 -0.140296
v -0.079134 0.234515 -0.039796
v -0.072166 0.398561 -0.036312
v -0.112238 0.234698 0.045482
v -0.093164 0.189584 0.036312
v -0.075742 0.403421 0.056577
v -0.060796 0.336207 0.102609
v -0.056669 0.238641 0.102884
v 0.103984 0.099629 0.036679
v 0.049883 0.109349 0.053826
v 0.050250 0.069185 0.026592
v 0.095273 0.103205 0.036679
v 0.142039 0.163266 0.036679
v 0.029435 0.155105 0.028609
v -0.050250 0.069185 0.026592
v -0.049884 0.109349 0.053826
v -0.103985 0.099629 0.036679
v -0.095273 0.103205 0.036679
v -0.142039 0.163266 0.036679
v -0.029435 0.155105 0.028609
v 0.049883 0.018110 0.099950
v 0.065380 0.006556 0.107744
v 0.065105 0.021595 0.106919
v 0.027326 0.002155 -0.002751
v 0.021916 0.016735 0.018706
v 0.042456 0.021411 0.121132
v 0.027417 0.017652 0.104443
v 0.042547 0.002980 0.120306
v 0.016139 0.020586 0.116822
v 0.016505 0.005548 0.117556
v 0.012379 0.001880 0.000275
v 0.021090 0.105864 0.014396
v 0.028609 0.002063 0.050800
v -0.065105 0.021595 0.106919
v -0.065380 0.006556 0.107744
v -0.049884 0.018110 0.099950
v -0.027327 0.002155 -0.002751
v -0.021916 0.016735 0.018706
v -0.042456 0.021411 0.121132
v -0.027417 0.017652 0.104443
v -0.042547 0.002980 0.120306
v -0.016139 0.020586 0.116822
v -0.016505 0.005548 0.117556
v -0.012379 0.001880 0.000275
v -0.021090 0.105864 0.014396
v -0.028610 0.002063 0.050800
vt 0.7297 0.2649
vt 0.6766 0.2589
vt 0.7000 0.3040
vt 0.7449 0.1907
vt 0.6941 0.1918
vt 0.7802 0.2753
vt 0.7413 0.2947
vt 0.7485 0.3229
vt 0.7349 0.3076
vt 0.8098 0.2257
vt 0.7853 0.1936
vt 0.8619 0.2307
vt 0.7449 0.1907
vt 0.7802 0.2753
vt 0.8543 0.2435
vt 0.8591 0.2489
vt 0.8543 0.2435
vt 0.8690 0.2356
vt 0.8613 0.2375
vt 0.7413 0.2947
vt 0.7297 0.2649
vt 0.7349 0.3076
vt 0.7958 0.1252
vt 0.8561 0.0718
vt 0.7995 0.0528
vt 0.8588 0.1290
vt 0.7404 0.1279
vt 0.7405 0.1614
vt 0.8167 0.1812
vt 0.8316 0.0290
vt 0.7281 0.0452
vt 0.7812 0.0259
vt 0.6705 0.0261
vt 0.7027 0.0742
vt 0.7038 0.1276
vt 0.6917 0.1460
vt 0.6705 0.0734
vt 0.6705 0.1323
vt 0.6705 0.1568
vt 0.8506 0.2098
vt 0.8082 0.2097
vt 0.8477 0.1846
vt 0.8515 0.2262
vt 0.8082 0.2097
vt 0.6705 0.1826
vt 0.7578 0.1809
vt 0.9312 0.2131
vt 0.9202 0.2346
vt 0.9423 0.2264
vt 0.9456 0.2170
vt 0.9566 0.2273
vt 0.9513 0.2375
vt 0.9345 0.2456
vt 0.9445 0.2389
vt 0.9423 0.2264
vt 0.9181 0.1486
vt 0.9092 0.2033
vt 0.9271 0.1616
vt 0.8948 0.1503
vt 0.9372 0.1600
vt 0.9481 0.2081
vt 0.9739 0.1777
vt 0.9740 0.1864
vt 0.8632 0.1960
vt 0.8650 0.2248
vt 0.9092 0.2033
vt 0.9481 0.2081
vt 0.9713 0.2318
vt 0.9966 0.2195
vt 0.7958 0.1252
vt 0.7995 0.0528
vt 0.7404 0.1279
vt 0.7405 0.1614
vt 0.7281 0.0452
vt 0.7027 0.0742
vt 0.7038 0.1276
vt 0.6917 0.1460
vt 0.7578 0.1809
vt 0.9256 0.1308
vt 0.8759 0.1177
vt 0.8890 0.1440
vt 0.9198 0.1269
vt 0.9800 0.0784
vt 0.8690 0.0798
vt 0.9209 0.0354
vt 0.8707 0.0182
vt 0.9289 0.0317
vt 0.8890 0.1440
vt 0.8759 0.1177
vt 0.9256 0.1308
vt 0.9198 0.1269
vt 0.9800 0.0784
vt 0.8690 0.0798
vt 0.9209 0.0354
vt 0.8707 0.0182
vt 0.9289 0.0317
vt 0.9774 0.3117
vt 0.9915 0.3234
vt 0.9913 0.3153
vt 0.9706 0.2590
vt 0.9621 0.2634
vt 0.9669 0.3216
vt 0.9546 0.3126
vt 0.9672 0.3304
vt 0.9417 0.3172
vt 0.9420 0.3252
vt 0.9555 0.2595
vt 0.9925 0.1361
vt 0.9798 0.1180
vt 0.9593 0.1352
vt 0.9166 0.2814
vt 0.8873 0.2952
vt 0.9226 0.2668
vt 0.9270 0.2922
vt 0.9167 0.3051
vt 0.9227 0.3184
vt 0.8578 0.3037
vt 0.8577 0.2880
vt 0.9946 0.1474
vt 0.9556 0.1489
vt 0.9913 0.3153
vt 0.9915 0.3234
vt 0.9774 0.3117
vt 0.9706 0.2590
vt 0.9621 0.2634
vt 0.9669 0.3216
vt 0.9546 0.3126
vt 0.9672 0.3304
vt 0.9417 0.3172
vt 0.9420 0.3252
vt 0.9555 0.2595
vt 0.9593 0.1352
vt 0.9798 0.1180
vt 0.9925 0.1361
vt 0.9226 0.2668
vt 0.8873 0.2952
vt 0.9166 0.2814
vt 0.9270 0.2922
vt 0.9167 0.3051
vt 0.9227 0.3184
vt 0.8578 0.3037
vt 0.8577 0.2880
vt 0.9946 0.1474
vt 0.9556 0.1489
vn 0.9085 -0.2122 0.3599
vn -0.0000 -0.0342 0.9994
vn 0.0000 -0.8624 0.5063
vn 0.9871 -0.1267 -0.0974
vn -0.0000 -0.6237 0.7817
vn 0.8580 0.0283 -0.5128
vn 0.4931 -0.8652 -0.0908
vn 0.0000 -0.8998 -0.4362
vn -0.3057 -0.9521 -0.0059
vn -0.0000 0.8308 -0.5566
vn 0.0000 -0.5033 -0.8641
vn 0.0001 0.3170 -0.9484
vn -0.9872 -0.1266 -0.0973
vn -0.8580 0.0283 -0.5128
vn -0.8067 0.1269 -0.5772
vn 0.0000 -0.4557 -0.8901
vn 0.8066 0.1270 -0.5772
vn 0.0000 0.9995 0.0325
vn 0.0000 0.7660 -0.6429
vn -0.4931 -0.8652 -0.0908
vn -0.9085 -0.2122 0.3599
vn 0.3057 -0.9521 -0.0059
vn 0.6541 -0.4065 -0.6379
vn -0.0000 0.2045 -0.9789
vn 0.7525 0.5115 -0.4149
vn 0.0000 -0.4505 -0.8928
vn 0.9482 -0.1240 0.2924
vn 0.5865 -0.7679 0.2575
vn -0.0000 0.8560 -0.5170
vn 0.7512 0.5410 0.3781
vn -0.0000 0.9888 0.1490
vn -0.0000 0.5146 0.8574
vn 0.5977 0.1421 0.7890
vn 0.4900 -0.1093 0.8648
vn 0.6165 -0.3556 0.7025
vn -0.0000 0.0474 0.9989
vn -0.0000 0.2324 0.9726
vn 0.0000 -0.8519 0.5236
vn -0.0000 -0.2657 0.9640
vn -0.6165 -0.3556 0.7025
vn -0.0000 0.9422 0.3349
vn -0.0000 -0.3014 0.9535
vn 0.9705 -0.1631 -0.1774
vn -0.0000 0.4956 -0.8686
vn -0.0001 -0.9836 -0.1805
vn -0.0000 -0.6214 -0.7835
vn 0.0000 -0.9969 0.0784
vn -0.0000 -0.1755 -0.9845
vn -0.9705 -0.1631 -0.1774
vn -0.0000 0.2537 -0.9673
vn 0.9851 0.1562 -0.0721
vn -0.0000 0.7305 -0.6829
vn -0.0000 0.9977 -0.0678
vn -0.0000 0.8173 -0.5762
vn 0.9632 -0.1168 -0.2420
vn -0.0001 -0.3658 -0.9307
vn 0.0000 -0.3100 -0.9507
vn -0.0000 0.6789 0.7342
vn 0.0000 0.4429 0.8966
vn -0.9851 0.1562 -0.0721
vn -0.9632 -0.1168 -0.2420
vn 0.0000 -0.9885 -0.1511
vn 0.0000 -0.7015 -0.7127
vn -0.6541 -0.4065 -0.6379
vn -0.7525 0.5115 -0.4149
vn -0.9482 -0.1240 0.2924
vn -0.5865 -0.7679 0.2575
vn -0.7512 0.5410 0.3781
vn -0.5977 0.1421 0.7890
vn -0.4900 -0.1093 0.8648
vn 0.6986 0.5091 0.5029
vn 0.2108 0.1270 0.9693
vn 0.3263 -0.2399 -0.9143
vn 0.5011 0.3770 -0.7790
vn 0.3350 0.1647 0.9277
vn 0.1269 0.3809 -0.9159
vn -0.3263 -0.2399 -0.9143
vn -0.2108 0.1270 0.9693
vn -0.6985 0.5091 0.5029
vn -0.5011 0.3770 -0.7789
vn -0.3350 0.1648 0.9277
vn -0.1269 0.3808 -0.9159
vn 0.3190 0.4399 0.8395
vn -0.0090 -0.8233 0.5675
vn 0.4461 0.8806 0.1599
vn 0.8104 -0.3617 -0.4610
vn -0.0364 0.9983 0.0463
vn 0.0714 0.8965 0.4372
vn 0.0176 0.4321 0.9017
vn 0.1407 -0.7683 0.6244
vn -0.4347 0.8422 0.3190
vn 0.2558 -0.8277 0.4996
vn -0.9090 -0.3850 -0.1594
vn -0.3304 0.5062 -0.7966
vn 0.0423 -0.9908 0.1289
vn -0.4462 0.8806 0.1599
vn 0.0090 -0.8233 0.5675
vn -0.3190 0.4399 0.8395
vn -0.8104 -0.3616 -0.4610
vn 0.0364 0.9983 0.0463
vn -0.0760 0.8966 0.4362
vn -0.0177 0.4321 0.9017
vn -0.1407 -0.7683 0.6244
vn 0.4347 0.8422 0.3190
vn -0.2558 -0.8276 0.4996
vn 0.9090 -0.3850 -0.1594
vn 0.3302 0.5063 -0.7967
vn -0.0423 -0.9908 0.1289
usemtl None
s 1
f 1/1/1 2/2/2 3/3/3
f 1/1/1 4/4/4 2/2/2
f 2/2/2 4/4/4 5/5/5
f 1/1/1 6/6/6 4/4/4
f 6/6/6 1/1/1 7/7/7
f 6/6/6 7/7/7 8/8/8
f 1/1/1 3/3/3 7/7/7
f 9/9/9 3/3/3 8/8/8
f 7/7/7 3/3/3 9/9/9
f 8/8/8 7/7/7 9/9/9
f 10/10/10 4/4/4 6/6/6
f 11/11/11 4/4/4 10/10/10
f 6/6/6 12/12/12 10/10/10
f 10/10/10 13/13/13 11/11/11
f 14/14/14 13/13/13 10/10/10
f 10/10/10 12/12/12 14/14/14
f 14/14/14 12/12/12 15/15/15
f 15/15/15 16/16/16 14/14/14
f 6/6/6 16/16/16 17/17/17
f 17/17/17 12/12/12 6/6/6
f 16/16/16 18/18/18 17/17/17
f 15/15/15 18/18/18 16/16/16
f 18/18/18 19/19/19 17/17/17
f 12/12/12 17/17/17 19/19/19
f 15/15/15 19/19/19 18/18/18
f 19/19/19 15/15/15 12/12/12
f 8/8/8 16/16/16 6/6/6
f 8/8/8 20/20/20 14/14/14
f 20/20/20 21/21/21 14/14/14
f 13/13/13 14/14/14 21/21/21
f 20/20/20 3/3/3 21/21/21
f 8/8/8 3/3/3 22/22/22
f 22/22/22 3/3/3 20/20/20
f 22/22/22 20/20/20 8/8/8
f 3/3/3 2/2/2 21/21/21
f 2/2/2 13/13/13 21/21/21
f 5/5/5 13/13/13 2/2/2
f 14/14/14 16/16/16 8/8/8
f 23/23/23 24/24/24 25/25/25
f 26/26/26 24/24/24 23/23/23
f 25/25/25 27/27/27 23/23/23
f 28/28/28 23/23/23 27/27/27
f 26/26/26 23/23/23 11/29/11
f 25/25/25 24/24/24 29/30/29
f 27/27/27 25/25/25 30/31/30
f 30/31/30 25/25/25 31/32/31
f 31/32/31 32/33/32 30/31/30
f 31/32/31 25/25/25 29/30/29
f 33/34/33 27/27/27 30/31/30
f 32/33/32 33/34/33 30/31/30
f 27/27/27 33/34/33 34/35/34
f 35/36/35 27/27/27 34/35/34
f 28/28/28 27/27/27 35/36/35
f 33/34/33 36/37/36 34/35/34
f 36/37/36 33/34/33 32/33/32
f 34/35/34 36/37/36 37/38/37
f 35/36/35 34/35/34 37/38/37
f 38/39/38 28/28/28 35/36/35
f 39/40/39 35/41/35 37/42/37
f 35/41/35 39/40/39 38/43/38
f 37/42/37 40/44/40 39/40/39
f 38/43/38 39/40/39 40/44/40
f 5/45/5 28/28/28 38/39/38
f 4/46/4 28/28/28 5/45/5
f 11/29/11 23/23/23 4/46/4
f 23/23/23 28/28/28 4/46/4
f 41/47/41 42/48/42 43/49/43
f 43/49/43 44/50/44 41/47/41
f 44/50/44 43/49/43 45/51/45
f 45/51/45 43/49/43 46/52/46
f 47/53/47 43/49/43 42/48/42
f 43/49/43 47/53/47 48/54/48
f 43/49/43 48/54/48 46/52/46
f 49/55/49 42/48/42 41/47/41
f 48/54/48 47/53/47 49/55/49
f 46/52/46 49/55/49 45/51/45
f 41/47/41 44/50/44 49/55/49
f 45/51/45 49/55/49 44/50/44
f 42/48/42 49/55/49 47/53/47
f 46/52/46 48/54/48 49/55/49
f 50/56/50 51/57/51 52/58/52
f 53/59/53 51/57/51 50/56/50
f 54/60/54 52/58/52 51/57/51
f 51/57/51 55/61/55 54/60/54
f 54/60/54 55/61/55 56/62/56
f 56/62/56 55/61/55 57/63/57
f 58/64/58 51/57/51 53/59/53
f 51/57/51 58/64/58 59/65/59
f 52/58/52 60/66/60 50/56/50
f 50/56/50 60/66/60 53/59/53
f 60/66/60 52/58/52 54/60/54
f 59/65/59 58/64/58 60/66/60
f 53/59/53 60/66/60 58/64/58
f 54/60/54 61/67/61 60/66/60
f 56/62/56 61/67/61 54/60/54
f 57/63/57 61/67/61 56/62/56
f 55/61/55 62/68/62 63/69/63
f 63/69/63 62/68/62 61/67/61
f 55/61/55 63/69/63 57/63/57
f 57/63/57 63/69/63 61/67/61
f 64/70/64 24/24/24 26/26/26
f 65/71/65 24/24/24 64/70/64
f 64/70/64 66/72/66 65/71/65
f 66/72/66 64/70/64 67/73/67
f 11/29/11 64/70/64 26/26/26
f 29/30/29 24/24/24 65/71/65
f 68/74/68 65/71/65 66/72/66
f 31/32/31 65/71/65 68/74/68
f 68/74/68 32/33/32 31/32/31
f 29/30/29 65/71/65 31/32/31
f 68/74/68 66/72/66 69/75/69
f 68/74/68 69/75/69 32/33/32
f 70/76/70 69/75/69 66/72/66
f 70/76/70 66/72/66 40/77/40
f 40/77/40 66/72/66 67/73/67
f 70/76/70 36/37/36 69/75/69
f 32/33/32 69/75/69 36/37/36
f 37/38/37 36/37/36 70/76/70
f 37/38/37 70/76/70 40/77/40
f 40/77/40 67/73/67 38/39/38
f 5/45/5 67/73/67 13/78/13
f 38/39/38 67/73/67 5/45/5
f 13/78/13 64/70/64 11/29/11
f 13/78/13 67/73/67 64/70/64
f 71/79/71 72/80/72 73/81/73
f 72/80/72 71/79/71 74/82/74
f 74/82/74 75/83/75 72/80/72
f 75/83/75 76/84/76 72/80/72
f 76/84/76 75/83/75 74/85/74
f 74/85/74 73/86/73 76/84/76
f 73/86/73 74/85/74 71/87/71
f 77/88/77 78/89/78 79/90/79
f 80/91/80 79/90/79 78/89/78
f 78/89/78 81/92/81 80/91/80
f 78/89/78 82/93/82 81/92/81
f 80/94/80 81/92/81 82/93/82
f 82/93/82 77/95/77 80/94/80
f 79/96/79 80/94/80 77/95/77
f 83/97/83 84/98/84 85/99/85
f 84/98/84 86/100/86 85/99/85
f 85/99/85 87/101/87 83/97/83
f 87/101/87 88/102/88 83/97/83
f 89/103/89 88/102/88 87/101/87
f 90/104/90 88/102/88 89/103/89
f 87/101/87 91/105/91 89/103/89
f 91/105/91 92/106/92 89/103/89
f 93/107/93 92/106/92 91/105/91
f 88/102/88 90/104/90 83/97/83
f 85/99/85 86/100/86 87/101/87
f 87/108/87 86/109/86 94/110/94
f 83/111/83 95/112/95 84/113/84
f 95/112/95 83/111/83 90/114/90
f 95/112/95 90/114/90 89/115/89
f 95/112/95 89/115/89 92/116/92
f 93/117/93 95/112/95 92/116/92
f 86/118/86 95/112/95 93/117/93
f 95/112/95 86/118/86 84/113/84
f 87/101/87 93/107/93 91/105/91
f 94/110/94 93/119/93 87/108/87
f 86/120/86 93/119/93 94/110/94
f 96/121/96 97/122/97 98/123/98
f 96/121/96 99/124/99 97/122/97
f 98/123/98 100/125/100 96/121/96
f 98/123/98 101/126/101 100/125/100
f 100/125/100 101/126/101 102/127/102
f 102/127/102 101/126/101 103/128/103
f 102/127/102 104/129/104 100/125/100
f 102/127/102 105/130/105 104/129/104
f 104/129/104 105/130/105 106/131/106
f 98/123/98 103/128/103 101/126/101
f 100/125/100 99/124/99 96/121/96
f 107/132/107 99/133/99 100/134/100
f 97/135/97 108/136/108 98/137/98
f 103/138/103 98/137/98 108/136/108
f 102/139/102 103/138/103 108/136/108
f 105/140/105 102/139/102 108/136/108
f 105/140/105 108/136/108 106/141/106
f 106/141/106 108/136/108 99/142/99
f 97/135/97 99/142/99 108/136/108
f 104/129/104 106/131/106 100/125/100
f 100/134/100 106/143/106 107/132/107
f 107/132/107 106/143/106 99/144/99
