# Blender v2.78 (sub 0) OBJ File: ''
# www.blender.org
mtllib Dur_levhasi.mtl
o Cylinder001.004
v 0.099600 0.496100 -0.011900
v 0.154900 0.544200 -0.011900
v 0.154900 0.544200 -0.007900
v 0.099600 0.496100 -0.007900
v 0.203000 0.615000 -0.011900
v 0.203000 0.615000 -0.007900
v 0.203000 0.615000 -0.004000
v 0.154900 0.544200 -0.004000
v 0.099600 0.496100 -0.004000
v 0.219000 0.699100 -0.011900
v 0.219000 0.699100 -0.007900
v 0.203000 0.783200 -0.011900
v 0.203000 0.783200 -0.007900
v 0.203000 0.783200 -0.004000
v 0.219000 0.699100 -0.004000
v 0.154900 0.853900 -0.011900
v 0.154900 0.853900 -0.007900
v 0.084100 0.902000 -0.011900
v 0.084100 0.902000 -0.007900
v 0.084100 0.902000 -0.004000
v 0.154900 0.853900 -0.004000
v 0.000000 0.918100 -0.011900
v 0.000000 0.918100 -0.007900
v -0.084100 0.902000 -0.011900
v -0.084100 0.902000 -0.007900
v -0.084100 0.902000 -0.004000
v 0.000000 0.918100 -0.004000
v -0.154800 0.853900 -0.011900
v -0.154800 0.853900 -0.007900
v -0.202900 0.783200 -0.011900
v -0.202900 0.783200 -0.007900
v -0.202900 0.783200 -0.004000
v -0.154800 0.853900 -0.004000
v -0.219000 0.699100 -0.011900
v -0.219000 0.699100 -0.007900
v -0.202900 0.615000 -0.011900
v -0.202900 0.615000 -0.007900
v -0.202900 0.615000 -0.004000
v -0.219000 0.699100 -0.004000
v -0.154800 0.544200 -0.011900
v -0.154800 0.544200 -0.007900
v -0.099600 0.496100 -0.011900
v -0.099600 0.496100 -0.007900
v -0.099600 0.496100 -0.004000
v -0.154800 0.544200 -0.004000
v -0.025000 0.006000 -0.010900
v 0.000000 0.006000 -0.011900
v 0.000000 0.006000 -0.007900
v -0.033300 0.006000 -0.007900
v 0.025000 0.006000 -0.010900
v 0.033400 0.006000 -0.007900
v 0.033400 0.006000 -0.004000
v 0.000000 0.006000 -0.004000
v -0.033300 0.006000 -0.004000
v 0.154900 0.544200 0.000000
v 0.099600 0.496100 0.000000
v 0.203000 0.615000 0.000000
v 0.203000 0.615000 0.004000
v 0.154900 0.544200 0.004000
v 0.099600 0.496100 0.004000
v 0.219000 0.699100 0.000000
v 0.203000 0.783200 0.000000
v 0.203000 0.783200 0.004000
v 0.219000 0.699100 0.004000
v 0.154900 0.853900 0.000000
v 0.084100 0.902000 0.000000
v 0.084100 0.902000 0.004000
v 0.154900 0.853900 0.004000
v 0.000000 0.918100 0.000000
v -0.084100 0.902000 0.000000
v -0.084100 0.902000 0.004000
v 0.000000 0.918100 0.004000
v -0.154800 0.853900 0.000000
v -0.202900 0.783200 0.000000
v -0.202900 0.783200 0.004000
v -0.154800 0.853900 0.004000
v -0.219000 0.699100 0.000000
v -0.202900 0.615000 0.000000
v -0.202900 0.615000 0.004000
v -0.219000 0.699100 0.004000
v -0.154800 0.544200 0.000000
v -0.099600 0.496100 0.000000
v -0.099600 0.496100 0.004000
v -0.154800 0.544200 0.004000
v 0.000000 0.006000 -0.000000
v -0.033300 0.006000 -0.000000
v 0.033400 0.006000 -0.000000
v 0.033400 0.006000 0.004000
v 0.000000 0.006000 0.004000
v -0.033300 0.006000 0.004000
v 0.154900 0.544200 0.007900
v 0.099600 0.496100 0.007900
v 0.203000 0.615000 0.007900
v 0.203000 0.615000 0.011900
v 0.154900 0.544200 0.011900
v 0.099600 0.496100 0.011900
v 0.219000 0.699100 0.007900
v 0.203000 0.783200 0.007900
v 0.203000 0.783200 0.011900
v 0.219000 0.699100 0.011900
v 0.154900 0.853900 0.007900
v 0.084100 0.902000 0.007900
v 0.084100 0.902000 0.011900
v 0.154900 0.853900 0.011900
v 0.000000 0.918100 0.007900
v -0.084100 0.902000 0.007900
v -0.084100 0.902000 0.011900
v 0.000000 0.918100 0.011900
v -0.154800 0.853900 0.007900
v -0.202900 0.783200 0.007900
v -0.202900 0.783200 0.011900
v -0.154800 0.853900 0.011900
v -0.219000 0.699100 0.007900
v -0.202900 0.615000 0.007900
v -0.202900 0.615000 0.011900
v -0.219000 0.699100 0.011900
v -0.154800 0.544200 0.007900
v -0.099600 0.496100 0.007900
v -0.099600 0.496100 0.011900
v -0.154800 0.544200 0.011900
v 0.000000 0.006000 0.007900
v -0.033300 0.006000 0.007900
v 0.033400 0.006000 0.007900
v 0.025000 0.006000 0.010900
v 0.000000 0.006000 0.011900
v -0.025000 0.006000 0.010900
v 0.000000 0.655300 -0.011900
v -0.062000 0.480100 -0.011900
v 0.062100 0.480100 -0.011900
v 0.033400 0.480100 -0.011900
v 0.000000 0.480100 -0.011900
v -0.033300 0.480100 -0.011900
v 0.000000 0.655300 0.011900
v 0.062100 0.480100 0.011900
v -0.062000 0.480100 0.011900
v -0.033300 0.480100 0.011900
v 0.000000 0.480100 0.011900
v 0.033400 0.480100 0.011900
v 0.062100 0.480100 -0.007900
v 0.033400 0.480100 -0.007900
v 0.062100 0.480100 -0.004000
v 0.033400 0.480100 -0.004000
v -0.033300 0.480100 -0.004000
v -0.062000 0.480100 -0.004000
v -0.062000 0.480100 -0.007900
v -0.033300 0.480100 -0.007900
v 0.062100 0.480100 0.000000
v 0.033400 0.480100 0.000000
v 0.062100 0.480100 0.004000
v 0.033400 0.480100 0.004000
v -0.033300 0.480100 0.004000
v -0.062000 0.480100 0.004000
v -0.062000 0.480100 0.000000
v -0.033300 0.480100 0.000000
v 0.062100 0.480100 0.007900
v 0.033400 0.480100 0.007900
v -0.062000 0.480100 0.007900
v -0.033300 0.480100 0.007900
v 0.000000 0.243000 -0.011900
v -0.025000 0.243000 -0.010900
v 0.025000 0.243000 -0.010900
v 0.033400 0.243000 -0.007900
v 0.033400 0.243000 -0.004000
v 0.033400 0.243000 -0.000000
v 0.033400 0.243000 0.004000
v 0.033400 0.243000 0.007900
v 0.025000 0.243000 0.010900
v 0.000000 0.243000 0.011900
v -0.025000 0.243000 0.010900
v -0.033300 0.243000 0.007900
v -0.033300 0.243000 0.004000
v -0.033300 0.243000 -0.000000
v -0.033300 0.243000 -0.004000
v -0.033300 0.243000 -0.007900
vt 0.2840 0.3283
vt 0.2840 0.3473
vt 0.2829 0.3473
vt 0.2829 0.3283
vt 0.2840 0.3669
vt 0.2829 0.3669
vt 0.2819 0.3669
vt 0.2819 0.3473
vt 0.2819 0.3283
vt 0.3334 0.2481
vt 0.3334 0.2677
vt 0.3323 0.2677
vt 0.3323 0.2481
vt 0.3334 0.2907
vt 0.3323 0.2907
vt 0.3312 0.2907
vt 0.3312 0.2677
vt 0.3312 0.2481
vt 0.3334 0.3136
vt 0.3323 0.3136
vt 0.3334 0.3332
vt 0.3323 0.3332
vt 0.3312 0.3332
vt 0.3312 0.3136
vt 0.3267 0.2481
vt 0.3267 0.2677
vt 0.3257 0.2677
vt 0.3257 0.2481
vt 0.3267 0.2907
vt 0.3257 0.2907
vt 0.3246 0.2907
vt 0.3246 0.2677
vt 0.3246 0.2481
vt 0.3267 0.3136
vt 0.3257 0.3136
vt 0.3267 0.3332
vt 0.3257 0.3332
vt 0.3246 0.3332
vt 0.3246 0.3136
vt 0.3400 0.2481
vt 0.3400 0.2677
vt 0.3389 0.2677
vt 0.3389 0.2481
vt 0.3400 0.2907
vt 0.3389 0.2907
vt 0.3378 0.2907
vt 0.3378 0.2677
vt 0.3378 0.2481
vt 0.3400 0.3136
vt 0.3389 0.3136
vt 0.3400 0.3316
vt 0.3389 0.3316
vt 0.3378 0.3316
vt 0.3378 0.3136
vt 0.2518 0.2428
vt 0.2521 0.2491
vt 0.2510 0.2491
vt 0.2510 0.2407
vt 0.2518 0.2555
vt 0.2510 0.2576
vt 0.2499 0.2576
vt 0.2499 0.2491
vt 0.2499 0.2407
vt 0.2808 0.3473
vt 0.2808 0.3283
vt 0.2808 0.3669
vt 0.2797 0.3669
vt 0.2797 0.3473
vt 0.2797 0.3283
vt 0.3301 0.2677
vt 0.3301 0.2481
vt 0.3301 0.2907
vt 0.3290 0.2907
vt 0.3290 0.2677
vt 0.3290 0.2481
vt 0.3301 0.3136
vt 0.3301 0.3332
vt 0.3290 0.3332
vt 0.3290 0.3136
vt 0.3235 0.2677
vt 0.3235 0.2481
vt 0.3235 0.2907
vt 0.3224 0.2907
vt 0.3224 0.2677
vt 0.3224 0.2481
vt 0.3235 0.3136
vt 0.3235 0.3332
vt 0.3224 0.3332
vt 0.3224 0.3136
vt 0.3367 0.2677
vt 0.3367 0.2481
vt 0.3367 0.2907
vt 0.3357 0.2907
vt 0.3357 0.2677
vt 0.3357 0.2481
vt 0.3367 0.3136
vt 0.3367 0.3316
vt 0.3357 0.3316
vt 0.3357 0.3136
vt 0.2488 0.2491
vt 0.2488 0.2407
vt 0.2488 0.2576
vt 0.2478 0.2576
vt 0.2478 0.2491
vt 0.2478 0.2407
vt 0.2786 0.3473
vt 0.2786 0.3283
vt 0.2786 0.3669
vt 0.2775 0.3669
vt 0.2775 0.3473
vt 0.2775 0.3283
vt 0.3280 0.2677
vt 0.3280 0.2481
vt 0.3280 0.2907
vt 0.3269 0.2907
vt 0.3269 0.2677
vt 0.3269 0.2481
vt 0.3280 0.3136
vt 0.3280 0.3332
vt 0.3269 0.3332
vt 0.3269 0.3136
vt 0.3213 0.2677
vt 0.3213 0.2481
vt 0.3213 0.2907
vt 0.3203 0.2907
vt 0.3203 0.2677
vt 0.3203 0.2481
vt 0.3213 0.3136
vt 0.3213 0.3332
vt 0.3203 0.3332
vt 0.3203 0.3136
vt 0.3346 0.2677
vt 0.3346 0.2481
vt 0.3346 0.2907
vt 0.3335 0.2907
vt 0.3335 0.2677
vt 0.3335 0.2481
vt 0.3346 0.3136
vt 0.3346 0.3316
vt 0.3335 0.3316
vt 0.3335 0.3136
vt 0.2467 0.2491
vt 0.2467 0.2407
vt 0.2467 0.2576
vt 0.2459 0.2555
vt 0.2456 0.2491
vt 0.2459 0.2428
vt 0.1204 0.2257
vt 0.1115 0.2077
vt 0.1623 0.1958
vt 0.1282 0.2337
vt 0.1067 0.1847
vt 0.1115 0.1618
vt 0.1244 0.1422
vt 0.1440 0.1293
vt 0.1669 0.1245
vt 0.1899 0.1293
vt 0.2095 0.1422
vt 0.2224 0.1618
vt 0.2271 0.1847
vt 0.2224 0.2077
vt 0.2095 0.2273
vt 0.1899 0.2402
vt 0.1708 0.2465
vt 0.1597 0.2467
vt 0.1524 0.2437
vt 0.1440 0.2402
vt 0.1355 0.2367
vt 0.8080 0.5415
vt 0.8562 0.5833
vt 0.7217 0.6801
vt 0.7754 0.5277
vt 0.8981 0.6448
vt 0.9122 0.7178
vt 0.8983 0.7910
vt 0.8566 0.8526
vt 0.7951 0.8945
vt 0.7221 0.9086
vt 0.6490 0.8947
vt 0.5873 0.8530
vt 0.5454 0.7916
vt 0.5313 0.7185
vt 0.5452 0.6454
vt 0.5869 0.5838
vt 0.6349 0.5418
vt 0.6675 0.5278
vt 0.6924 0.5278
vt 0.7214 0.5278
vt 0.7504 0.5277
vt 0.2840 0.3099
vt 0.2840 0.3171
vt 0.2829 0.3171
vt 0.2829 0.3099
vt 0.2819 0.3171
vt 0.2819 0.3099
vt 0.2334 0.1318
vt 0.2334 0.1245
vt 0.2344 0.1245
vt 0.2344 0.1318
vt 0.3378 0.3396
vt 0.3389 0.3396
vt 0.3400 0.3396
vt 0.2355 0.1245
vt 0.2355 0.1318
vt 0.2808 0.3171
vt 0.2808 0.3099
vt 0.2797 0.3171
vt 0.2797 0.3099
vt 0.2312 0.1318
vt 0.2312 0.1245
vt 0.2323 0.1245
vt 0.2323 0.1318
vt 0.3357 0.3396
vt 0.3367 0.3396
vt 0.2786 0.3171
vt 0.2786 0.3099
vt 0.2775 0.3171
vt 0.2775 0.3099
vt 0.2290 0.1318
vt 0.2290 0.1245
vt 0.2301 0.1245
vt 0.2301 0.1318
vt 0.3335 0.3396
vt 0.3346 0.3396
vt 0.1191 0.3002
vt 0.1128 0.2975
vt 0.1254 0.3028
vt 0.1006 0.3628
vt 0.0942 0.3602
vt 0.0879 0.3575
vt 0.1527 0.2438
vt 0.1275 0.3037
vt 0.2380 0.3533
vt 0.2369 0.3533
vt 0.2369 0.2933
vt 0.2380 0.2933
vt 0.2369 0.2333
vt 0.2380 0.2333
vt 0.1027 0.3637
vt 0.2358 0.3533
vt 0.2358 0.2933
vt 0.2347 0.3533
vt 0.2347 0.2933
vt 0.2347 0.2333
vt 0.2358 0.2333
vt 0.2337 0.3533
vt 0.2337 0.2933
vt 0.2655 0.2406
vt 0.2659 0.2407
vt 0.2548 0.3047
vt 0.2526 0.3042
vt 0.2419 0.3683
vt 0.2396 0.3679
vt 0.2337 0.2333
vt 0.2655 0.2406
vt 0.2745 0.2424
vt 0.2615 0.3061
vt 0.2834 0.2442
vt 0.2683 0.3074
vt 0.2553 0.3711
vt 0.2486 0.3697
vt 0.2838 0.2443
vt 0.2705 0.3079
vt 0.3412 0.2481
vt 0.3423 0.2481
vt 0.3423 0.3081
vt 0.3412 0.3081
vt 0.3423 0.3681
vt 0.3412 0.3681
vt 0.2576 0.3715
vt 0.3434 0.2481
vt 0.3434 0.3081
vt 0.3445 0.2481
vt 0.3445 0.3081
vt 0.3445 0.3681
vt 0.3434 0.3681
vt 0.3455 0.2481
vt 0.3455 0.3081
vt 0.1355 0.2367
vt 0.1358 0.2368
vt 0.1107 0.2967
vt 0.0858 0.3567
vt 0.3455 0.3681
vn 0.5308 -0.8475 0.0000
vn 0.7479 -0.6638 0.0000
vn 0.9238 -0.3829 0.0000
vn 1.0000 -0.0000 0.0000
vn 0.9239 0.3827 0.0000
vn 0.7069 0.7073 0.0000
vn 0.3825 0.9240 0.0000
vn 0.3824 0.9240 -0.0000
vn 0.0000 1.0000 0.0000
vn -0.3826 0.9239 0.0000
vn -0.7071 0.7071 0.0000
vn -0.9239 0.3827 -0.0000
vn -1.0000 0.0000 0.0000
vn -0.9240 -0.3825 0.0000
vn -0.9240 -0.3824 0.0000
vn -0.9238 -0.3829 0.0000
vn -0.7479 -0.6638 -0.0000
vn -0.7480 -0.6637 0.0000
vn -0.5308 -0.8475 0.0000
vn -0.0000 -1.0000 -0.0000
vn 0.3829 0.9238 0.0000
vn -0.7482 -0.6634 0.0000
vn 0.0000 0.0000 -1.0000
vn 0.0000 0.0003 1.0000
vn 0.0000 -0.0000 1.0000
vn -0.0000 0.0003 -1.0000
vn 0.2007 -0.9796 0.0000
vn 0.2008 -0.9796 -0.0000
vn -0.2005 -0.9797 0.0000
vn 0.2003 -0.9797 0.0000
vn -0.2006 -0.9797 -0.0000
vn -0.7146 -0.0253 -0.6991
vn 0.0012 -0.0019 -1.0000
vn 0.0009 -0.0013 -1.0000
vn -0.1901 -0.0015 -0.9818
vn 0.7062 -0.0031 -0.7080
vn 0.1868 -0.0040 -0.9824
vn 0.1892 0.0000 -0.9819
vn -0.1892 0.0000 -0.9819
vn 0.8184 -0.0041 -0.5747
vn 0.8169 0.0000 -0.5768
vn 0.9998 -0.0174 0.0112
vn 0.8169 -0.0000 0.5768
vn 0.7146 -0.0253 0.6991
vn 0.1901 -0.0015 0.9818
vn 0.1892 0.0000 0.9819
vn -0.0013 -0.0019 1.0000
vn -0.0009 -0.0013 1.0000
vn -0.7062 -0.0031 0.7080
vn -0.1868 -0.0040 0.9824
vn -0.1892 -0.0000 0.9819
vn -0.8184 -0.0040 0.5747
vn -0.8169 -0.0000 0.5768
vn -0.9998 -0.0174 -0.0112
vn -0.8169 0.0000 -0.5768
usemtl None
s 1
f 1/1/1 2/2/2 3/3/2 4/4/1
f 2/2/2 5/5/3 6/6/3 3/3/2
f 7/7/3 8/8/2 3/3/2 6/6/3
f 8/8/2 9/9/1 4/4/1 3/3/2
f 5/10/3 10/11/4 11/12/4 6/13/3
f 10/11/4 12/14/5 13/15/5 11/12/4
f 14/16/5 15/17/4 11/12/4 13/15/5
f 15/17/4 7/18/3 6/13/3 11/12/4
f 12/14/5 16/19/6 17/20/6 13/15/5
f 16/19/6 18/21/7 19/22/8 17/20/6
f 20/23/8 21/24/6 17/20/6 19/22/8
f 21/24/6 14/16/5 13/15/5 17/20/6
f 18/25/7 22/26/9 23/27/9 19/28/8
f 22/26/9 24/29/10 25/30/10 23/27/9
f 26/31/10 27/32/9 23/27/9 25/30/10
f 27/32/9 20/33/8 19/28/8 23/27/9
f 24/29/10 28/34/11 29/35/11 25/30/10
f 28/34/11 30/36/12 31/37/12 29/35/11
f 32/38/12 33/39/11 29/35/11 31/37/12
f 33/39/11 26/31/10 25/30/10 29/35/11
f 30/40/12 34/41/13 35/42/13 31/43/12
f 34/41/13 36/44/14 37/45/15 35/42/13
f 38/46/16 39/47/13 35/42/13 37/45/15
f 39/47/13 32/48/12 31/43/12 35/42/13
f 36/44/14 40/49/17 41/50/18 37/45/15
f 40/49/17 42/51/19 43/52/19 41/50/18
f 44/53/19 45/54/18 41/50/18 43/52/19
f 45/54/18 38/46/16 37/45/15 41/50/18
f 46/55/20 47/56/20 48/57/20 49/58/20
f 47/56/20 50/59/20 51/60/20 48/57/20
f 52/61/20 53/62/20 48/57/20 51/60/20
f 53/62/20 54/63/20 49/58/20 48/57/20
f 9/9/1 8/8/2 55/64/2 56/65/1
f 8/8/2 7/7/3 57/66/3 55/64/2
f 58/67/3 59/68/2 55/64/2 57/66/3
f 59/68/2 60/69/1 56/65/1 55/64/2
f 7/18/3 15/17/4 61/70/4 57/71/3
f 15/17/4 14/16/5 62/72/5 61/70/4
f 63/73/5 64/74/4 61/70/4 62/72/5
f 64/74/4 58/75/3 57/71/3 61/70/4
f 14/16/5 21/24/6 65/76/6 62/72/5
f 21/24/6 20/23/8 66/77/21 65/76/6
f 67/78/8 68/79/6 65/76/6 66/77/21
f 68/79/6 63/73/5 62/72/5 65/76/6
f 20/33/8 27/32/9 69/80/9 66/81/21
f 27/32/9 26/31/10 70/82/10 69/80/9
f 71/83/10 72/84/9 69/80/9 70/82/10
f 72/84/9 67/85/8 66/81/21 69/80/9
f 26/31/10 33/39/11 73/86/11 70/82/10
f 33/39/11 32/38/12 74/87/12 73/86/11
f 75/88/12 76/89/11 73/86/11 74/87/12
f 76/89/11 71/83/10 70/82/10 73/86/11
f 32/48/12 39/47/13 77/90/13 74/91/12
f 39/47/13 38/46/16 78/92/16 77/90/13
f 79/93/15 80/94/13 77/90/13 78/92/16
f 80/94/13 75/95/12 74/91/12 77/90/13
f 38/46/16 45/54/18 81/96/17 78/92/16
f 45/54/18 44/53/19 82/97/19 81/96/17
f 83/98/19 84/99/18 81/96/17 82/97/19
f 84/99/18 79/93/15 78/92/16 81/96/17
f 54/63/20 53/62/20 85/100/20 86/101/20
f 53/62/20 52/61/20 87/102/20 85/100/20
f 88/103/20 89/104/20 85/100/20 87/102/20
f 89/104/20 90/105/20 86/101/20 85/100/20
f 60/69/1 59/68/2 91/106/2 92/107/1
f 59/68/2 58/67/3 93/108/3 91/106/2
f 94/109/3 95/110/2 91/106/2 93/108/3
f 95/110/2 96/111/1 92/107/1 91/106/2
f 58/75/3 64/74/4 97/112/4 93/113/3
f 64/74/4 63/73/5 98/114/5 97/112/4
f 99/115/5 100/116/4 97/112/4 98/114/5
f 100/116/4 94/117/3 93/113/3 97/112/4
f 63/73/5 68/79/6 101/118/6 98/114/5
f 68/79/6 67/78/8 102/119/8 101/118/6
f 103/120/7 104/121/6 101/118/6 102/119/8
f 104/121/6 99/115/5 98/114/5 101/118/6
f 67/85/8 72/84/9 105/122/9 102/123/8
f 72/84/9 71/83/10 106/124/10 105/122/9
f 107/125/10 108/126/9 105/122/9 106/124/10
f 108/126/9 103/127/7 102/123/8 105/122/9
f 71/83/10 76/89/11 109/128/11 106/124/10
f 76/89/11 75/88/12 110/129/12 109/128/11
f 111/130/12 112/131/11 109/128/11 110/129/12
f 112/131/11 107/125/10 106/124/10 109/128/11
f 75/95/12 80/94/13 113/132/13 110/133/12
f 80/94/13 79/93/15 114/134/15 113/132/13
f 115/135/14 116/136/13 113/132/13 114/134/15
f 116/136/13 111/137/12 110/133/12 113/132/13
f 79/93/15 84/99/18 117/138/22 114/134/15
f 84/99/18 83/98/19 118/139/19 117/138/22
f 119/140/19 120/141/17 117/138/22 118/139/19
f 120/141/17 115/135/14 114/134/15 117/138/22
f 90/105/20 89/104/20 121/142/20 122/143/20
f 89/104/20 88/103/20 123/144/20 121/142/20
f 124/145/20 125/146/20 121/142/20 123/144/20
f 125/146/20 126/147/20 122/143/20 121/142/20
f 42/148/23 40/149/23 127/150/23 128/151/23
f 40/149/23 36/152/23 34/153/23 127/150/23
f 30/154/23 28/155/23 127/150/23 34/153/23
f 28/155/23 24/156/23 22/157/23 127/150/23
f 18/158/23 16/159/23 127/150/23 22/157/23
f 16/159/23 12/160/23 10/161/23 127/150/23
f 5/162/23 2/163/23 127/150/23 10/161/23
f 2/163/23 1/164/23 129/165/23 127/150/23
f 130/166/23 131/167/23 127/150/23 129/165/23
f 131/167/23 132/168/24 128/151/23 127/150/23
f 96/169/25 95/170/25 133/171/25 134/172/25
f 95/170/25 94/173/25 100/174/25 133/171/25
f 99/175/25 104/176/25 133/171/25 100/174/25
f 104/176/25 103/177/25 108/178/25 133/171/25
f 107/179/25 112/180/25 133/171/25 108/178/25
f 112/180/25 111/181/25 116/182/25 133/171/25
f 115/183/25 120/184/25 133/171/25 116/182/25
f 120/184/25 119/185/25 135/186/25 133/171/25
f 136/187/25 137/188/25 133/171/25 135/186/25
f 137/188/25 138/189/26 134/172/25 133/171/25
f 130/190/20 129/191/27 139/192/28 140/193/20
f 129/191/27 1/1/1 4/4/1 139/192/28
f 9/9/1 141/194/28 139/192/28 4/4/1
f 141/194/28 142/195/20 140/193/20 139/192/28
f 143/196/20 144/197/29 145/198/29 146/199/20
f 144/200/29 44/53/19 43/52/19 145/201/29
f 42/51/19 128/202/29 145/201/29 43/52/19
f 128/203/29 132/204/20 146/199/20 145/198/29
f 142/195/20 141/194/28 147/205/28 148/206/20
f 141/194/28 9/9/1 56/65/1 147/205/28
f 60/69/1 149/207/30 147/205/28 56/65/1
f 149/207/30 150/208/20 148/206/20 147/205/28
f 151/209/20 152/210/29 153/211/31 154/212/20
f 152/213/29 83/98/19 82/97/19 153/214/31
f 44/53/19 144/200/29 153/214/31 82/97/19
f 144/197/29 143/196/20 154/212/20 153/211/31
f 150/208/20 149/207/30 155/215/28 156/216/20
f 149/207/30 60/69/1 92/107/1 155/215/28
f 96/111/1 134/217/27 155/215/28 92/107/1
f 134/217/27 138/218/20 156/216/20 155/215/28
f 136/219/20 135/220/29 157/221/29 158/222/20
f 135/223/29 119/140/19 118/139/19 157/224/29
f 83/98/19 152/213/29 157/224/29 118/139/19
f 152/210/29 151/209/20 158/222/20 157/221/29
f 132/168/32 131/167/33 159/225/34 160/226/35
f 131/167/33 130/166/36 161/227/37 159/225/34
f 50/228/38 47/229/23 159/225/34 161/227/37
f 47/229/23 46/230/39 160/226/35 159/225/34
f 130/166/36 140/231/4 162/232/40 161/227/37
f 140/233/4 142/234/4 163/235/4 162/236/40
f 52/237/4 51/238/41 162/236/40 163/235/4
f 51/239/41 50/228/38 161/227/37 162/232/40
f 142/234/4 148/240/4 164/241/4 163/235/4
f 148/240/4 150/242/4 165/243/4 164/241/4
f 88/244/4 87/245/4 164/241/4 165/243/4
f 87/245/4 52/237/4 163/235/4 164/241/4
f 150/242/4 156/246/42 166/247/43 165/243/4
f 156/248/42 138/249/44 167/250/45 166/251/43
f 124/252/46 123/253/43 166/251/43 167/250/45
f 123/254/43 88/244/4 165/243/4 166/247/43
f 138/255/44 137/256/47 168/257/48 167/250/45
f 137/256/47 136/258/49 169/259/50 168/257/48
f 126/260/51 125/261/25 168/257/48 169/259/50
f 125/261/25 124/252/46 167/250/45 168/257/48
f 136/258/49 158/262/13 170/263/52 169/259/50
f 158/264/13 151/265/13 171/266/13 170/267/52
f 90/268/13 122/269/53 170/267/52 171/266/13
f 122/270/53 126/260/51 169/259/50 170/263/52
f 151/265/13 154/271/13 172/272/13 171/266/13
f 154/271/13 143/273/13 173/274/13 172/272/13
f 54/275/13 86/276/13 172/272/13 173/274/13
f 86/276/13 90/268/13 171/266/13 172/272/13
f 143/273/13 146/277/54 174/278/55 173/274/13
f 146/279/54 132/280/32 160/226/35 174/281/55
f 46/230/39 49/282/55 174/281/55 160/226/35
f 49/283/55 54/275/13 173/274/13 174/278/55
