# Blender v2.78 (sub 0) OBJ File: ''
# www.blender.org
mtllib elips_cok_ayrik_yansus.mtl
o Capsule002
v 0.177750 0.045400 -0.008450
v 0.178050 0.045600 -0.008950
v 0.178050 0.045400 -0.008950
v -0.097150 0.043100 0.000050
v -0.091250 0.043100 0.011150
v -0.091250 0.048600 0.009650
v -0.091250 0.052700 0.005550
v -0.091250 0.054200 0.000050
v -0.091250 0.052700 -0.005550
v -0.091250 0.048600 -0.009650
v -0.091250 0.043100 -0.011150
v -0.091250 0.037500 -0.009650
v -0.091250 0.033400 -0.005550
v -0.091250 0.031900 0.000050
v -0.091250 0.033400 0.005550
v -0.091250 0.037500 0.009650
v -0.086950 0.043100 0.021550
v -0.086950 0.053800 0.018650
v -0.086950 0.061700 0.010750
v -0.086950 0.064600 0.000050
v -0.086950 0.061700 -0.010750
v -0.086950 0.053800 -0.018650
v -0.086950 0.043100 -0.021450
v -0.086950 0.032300 -0.018650
v -0.086950 0.024400 -0.010750
v -0.086950 0.021600 0.000050
v -0.086950 0.024400 0.010750
v -0.086950 0.032300 0.018650
v -0.080150 0.043100 0.030450
v -0.080150 0.058300 0.026350
v -0.080150 0.069400 0.015250
v -0.080150 0.073500 0.000050
v -0.080150 0.069400 -0.015150
v -0.080150 0.058300 -0.026350
v -0.080150 0.043100 -0.030350
v -0.080150 0.027900 -0.026350
v -0.080150 0.016700 -0.015150
v -0.080150 0.012700 0.000050
v -0.080150 0.016700 0.015250
v -0.080150 0.027900 0.026350
v -0.071250 0.043100 0.037250
v -0.071250 0.061700 0.032250
v -0.071250 0.075300 0.018650
v -0.071250 0.080300 0.000050
v -0.071250 0.075300 -0.018650
v -0.071250 0.061700 -0.032250
v -0.071250 0.043100 -0.037250
v -0.071250 0.024400 -0.032250
v -0.071250 0.010800 -0.018650
v -0.071250 0.005800 0.000050
v -0.071250 0.010800 0.018650
v -0.071250 0.024400 0.032250
v -0.060850 0.043100 0.041550
v -0.060850 0.063900 0.036050
v -0.060850 0.079100 0.020850
v -0.060850 0.084600 0.000050
v -0.060850 0.079100 -0.020750
v -0.060850 0.063900 -0.035950
v -0.060850 0.043100 -0.041550
v -0.060850 0.022300 -0.035950
v -0.060850 0.007100 -0.020750
v -0.060850 0.001500 0.000050
v -0.060850 0.007100 0.020850
v -0.060850 0.022300 0.036050
v -0.049750 0.043100 0.043050
v -0.049750 0.064600 0.037250
v -0.049750 0.080300 0.021550
v -0.049750 0.086100 0.000050
v -0.049750 0.080300 -0.021450
v -0.049750 0.064600 -0.037250
v -0.049750 0.043100 -0.043050
v -0.049750 0.021600 -0.037250
v -0.049750 0.005800 -0.021450
v -0.049750 -0.000000 0.000050
v -0.049750 0.005800 0.021550
v -0.049750 0.021600 0.037250
v 0.041650 0.043100 0.043050
v 0.041650 0.064600 0.037250
v 0.041650 0.080300 0.021550
v 0.041650 0.086100 0.000050
v 0.041650 0.080300 -0.021450
v 0.041650 0.064600 -0.037250
v 0.041650 0.043100 -0.043050
v 0.041650 0.021600 -0.037250
v 0.041650 0.005800 -0.021450
v 0.041650 -0.000000 0.000050
v 0.041650 0.005800 0.021550
v 0.041650 0.021600 0.037250
v 0.052750 0.043100 0.041550
v 0.052750 0.063900 0.036050
v 0.052750 0.079100 0.020850
v 0.052750 0.084600 0.000050
v 0.052750 0.079100 -0.020750
v 0.052750 0.063900 -0.035950
v 0.052750 0.043100 -0.041550
v 0.052750 0.022300 -0.035950
v 0.052750 0.007100 -0.020750
v 0.052750 0.001500 0.000050
v 0.052750 0.007100 0.020850
v 0.052750 0.022300 0.036050
v 0.063050 0.043100 0.037250
v 0.063050 0.061700 0.032250
v 0.063050 0.075300 0.018650
v 0.063050 0.080300 0.000050
v 0.063050 0.075300 -0.018650
v 0.063050 0.061700 -0.032250
v 0.063050 0.043100 -0.037250
v 0.063050 0.024400 -0.032250
v 0.063050 0.010800 -0.018650
v 0.063050 0.005800 0.000050
v 0.063050 0.010800 0.018650
v 0.063050 0.024400 0.032250
v 0.072050 0.043100 0.030450
v 0.072050 0.058300 0.026350
v 0.072050 0.069400 0.015250
v 0.072050 0.073500 0.000050
v 0.072050 0.069400 -0.015150
v 0.072050 0.058300 -0.026350
v 0.072050 0.043100 -0.030350
v 0.072050 0.027900 -0.026350
v 0.072050 0.016700 -0.015150
v 0.072050 0.012700 0.000050
v 0.072050 0.016700 0.015250
v 0.072050 0.027900 0.026350
v 0.078850 0.043100 0.021550
v 0.078850 0.053800 0.018650
v 0.078850 0.061700 0.010750
v 0.078850 0.064600 0.000050
v 0.078850 0.061700 -0.010750
v 0.078850 0.053800 -0.018650
v 0.078850 0.043100 -0.021450
v 0.078850 0.032300 -0.018650
v 0.078850 0.024400 -0.010750
v 0.078850 0.021600 0.000050
v 0.078850 0.024400 0.010750
v 0.078850 0.032300 0.018650
v 0.083150 0.043100 0.011150
v 0.083150 0.048600 0.009650
v 0.083150 0.052700 0.005550
v 0.083150 0.054200 0.000050
v 0.083150 0.052700 -0.005550
v 0.083150 0.048600 -0.009650
v 0.083150 0.043100 -0.011150
v 0.083150 0.037500 -0.009650
v 0.083150 0.033400 -0.005550
v 0.083150 0.031900 0.000050
v 0.083150 0.033400 0.005550
v 0.083150 0.037500 0.009650
v 0.088150 0.043100 0.000050
v -0.178050 0.045000 -0.006950
v -0.177950 0.044900 -0.006750
v -0.178050 0.044900 -0.007050
vt 0.5000 0.5000
vt 0.3879 0.5647
vt 0.3706 0.5000
vt 0.5000 0.5000
vt 0.6294 0.5000
vt 0.6121 0.5647
vt 0.5647 0.6121
vt 0.5000 0.6294
vt 0.4353 0.6121
vt 0.3879 0.5647
vt 0.3706 0.5000
vt 0.3879 0.4353
vt 0.4353 0.3879
vt 0.5000 0.3706
vt 0.5647 0.3879
vt 0.6121 0.4353
vt 0.7500 0.5000
vt 0.7165 0.6250
vt 0.6250 0.7165
vt 0.5000 0.7500
vt 0.3750 0.7165
vt 0.2835 0.6250
vt 0.2500 0.5000
vt 0.2835 0.3750
vt 0.3750 0.2835
vt 0.5000 0.2500
vt 0.6250 0.2835
vt 0.7165 0.3750
vt 0.8536 0.5000
vt 0.8062 0.6768
vt 0.6768 0.8062
vt 0.5000 0.8536
vt 0.3232 0.8062
vt 0.1938 0.6768
vt 0.1464 0.5000
vt 0.1938 0.3232
vt 0.3232 0.1938
vt 0.5000 0.1464
vt 0.6768 0.1938
vt 0.8062 0.3232
vt 0.9330 0.5000
vt 0.8750 0.7165
vt 0.7165 0.8750
vt 0.5000 0.9330
vt 0.2835 0.8750
vt 0.1250 0.7165
vt 0.0670 0.5000
vt 0.1250 0.2835
vt 0.2835 0.1250
vt 0.5000 0.0670
vt 0.7165 0.1250
vt 0.8750 0.2835
vt 0.9830 0.5000
vt 0.9183 0.7415
vt 0.7415 0.9183
vt 0.5000 0.9830
vt 0.2585 0.9183
vt 0.0817 0.7415
vt 0.0170 0.5000
vt 0.0817 0.2585
vt 0.2585 0.0817
vt 0.5000 0.0170
vt 0.7415 0.0817
vt 0.9183 0.2585
vt 1.0000 0.5000
vt 0.9330 0.7500
vt 0.7500 0.9330
vt 0.5000 1.0000
vt 0.2500 0.9330
vt 0.0670 0.7500
vt 0.0000 0.5000
vt 0.0670 0.2500
vt 0.2500 0.0670
vt 0.5000 0.0000
vt 0.7500 0.0670
vt 0.9330 0.2500
vt 0.0000 0.0000
vt 0.0833 0.0000
vt 0.0833 1.0000
vt 0.0000 1.0000
vt 0.1667 0.0000
vt 0.1667 1.0000
vt 0.2500 0.0000
vt 0.2500 1.0000
vt 0.3333 0.0000
vt 0.3333 1.0000
vt 0.4167 0.0000
vt 0.4167 1.0000
vt 0.5000 0.0000
vt 0.5000 1.0000
vt 0.5833 0.0000
vt 0.5833 1.0000
vt 0.6667 0.0000
vt 0.6667 1.0000
vt 0.7500 0.0000
vt 0.7500 1.0000
vt 0.8333 0.0000
vt 0.8333 1.0000
vt 0.9167 0.0000
vt 0.9167 1.0000
vt 1.0000 0.0000
vt 1.0000 1.0000
vt 0.9830 0.5000
vt 0.9183 0.7415
vt 0.9330 0.7500
vt 1.0000 0.5000
vt 0.7415 0.9183
vt 0.7500 0.9330
vt 0.5000 0.9830
vt 0.5000 1.0000
vt 0.2585 0.9183
vt 0.2500 0.9330
vt 0.0817 0.7415
vt 0.0670 0.7500
vt 0.0170 0.5000
vt 0.0000 0.5000
vt 0.0817 0.2585
vt 0.0670 0.2500
vt 0.2585 0.0817
vt 0.2500 0.0670
vt 0.5000 0.0170
vt 0.5000 0.0000
vt 0.7415 0.0817
vt 0.7500 0.0670
vt 0.9183 0.2585
vt 0.9330 0.2500
vt 0.9330 0.5000
vt 0.8750 0.7165
vt 0.7165 0.8750
vt 0.5000 0.9330
vt 0.2835 0.8750
vt 0.1250 0.7165
vt 0.0670 0.5000
vt 0.1250 0.2835
vt 0.2835 0.1250
vt 0.5000 0.0670
vt 0.7165 0.1250
vt 0.8750 0.2835
vt 0.8536 0.5000
vt 0.8062 0.6768
vt 0.6768 0.8062
vt 0.5000 0.8536
vt 0.3232 0.8062
vt 0.1938 0.6768
vt 0.1464 0.5000
vt 0.1938 0.3232
vt 0.3232 0.1938
vt 0.5000 0.1464
vt 0.6768 0.1938
vt 0.8062 0.3232
vt 0.7500 0.5000
vt 0.7165 0.6250
vt 0.6250 0.7165
vt 0.5000 0.7500
vt 0.3750 0.7165
vt 0.2835 0.6250
vt 0.2500 0.5000
vt 0.2835 0.3750
vt 0.3750 0.2835
vt 0.5000 0.2500
vt 0.6250 0.2835
vt 0.7165 0.3750
vt 0.6294 0.5000
vt 0.6121 0.5647
vt 0.5647 0.6121
vt 0.5000 0.6294
vt 0.4353 0.6121
vt 0.3879 0.5647
vt 0.3706 0.5000
vt 0.3879 0.4353
vt 0.4353 0.3879
vt 0.5000 0.3706
vt 0.5647 0.3879
vt 0.6121 0.4353
vt 0.5000 0.5000
vt 0.3879 0.5647
vt 0.5000 0.5000
vt 0.3706 0.5000
vn -1.0000 0.0000 -0.0000
vn -0.9603 0.1394 -0.2415
vn -0.9603 -0.0000 -0.2789
vn -1.0000 0.0001 0.0020
vn -0.9084 0.0003 0.4182
vn -0.9084 0.2092 0.3621
vn -0.9086 0.3615 0.2091
vn -0.9087 0.4174 -0.0005
vn -0.9088 0.3613 -0.2087
vn -0.9091 0.2086 -0.3606
vn -0.9090 -0.0003 -0.4167
vn -0.9090 -0.2084 -0.3610
vn -0.9090 -0.3608 -0.2089
vn -0.9087 -0.4175 0.0002
vn -0.9085 -0.3619 0.2089
vn -0.9085 -0.2094 0.3617
vn -0.8561 -0.0001 0.5168
vn -0.8562 0.2578 0.4477
vn -0.8561 0.4479 0.2579
vn -0.8561 0.5168 0.0001
vn -0.8562 0.4477 -0.2578
vn -0.8560 0.2579 -0.4480
vn -0.8561 0.0001 -0.5167
vn -0.8562 -0.2578 -0.4477
vn -0.8561 -0.4479 -0.2579
vn -0.8561 -0.5167 -0.0001
vn -0.8562 -0.4477 0.2578
vn -0.8561 -0.2579 0.4479
vn -0.6964 -0.0004 0.7177
vn -0.6961 0.3585 0.6220
vn -0.6961 0.6222 0.3582
vn -0.6963 0.7177 0.0003
vn -0.6962 0.6220 -0.3584
vn -0.6961 0.3582 -0.6222
vn -0.6964 0.0003 -0.7176
vn -0.6961 -0.3585 -0.6220
vn -0.6961 -0.6222 -0.3582
vn -0.6964 -0.7177 -0.0003
vn -0.6961 -0.6220 0.3585
vn -0.6961 -0.3582 0.6222
vn -0.4913 0.0002 0.8710
vn -0.4915 0.4355 0.7542
vn -0.4917 0.7540 0.4355
vn -0.4913 0.8710 0.0001
vn -0.4916 0.7540 -0.4356
vn -0.4917 0.4355 -0.7540
vn -0.4912 -0.0001 -0.8711
vn -0.4913 -0.4356 -0.7542
vn -0.4918 -0.7540 -0.4355
vn -0.4910 -0.8712 0.0003
vn -0.4915 -0.7542 0.4353
vn -0.4916 -0.4356 0.7540
vn -0.2548 -0.0004 0.9670
vn -0.2535 0.4836 0.8378
vn -0.2528 0.8380 0.4835
vn -0.2548 0.9670 0.0004
vn -0.2533 0.8377 -0.4838
vn -0.2527 0.4835 -0.8380
vn -0.2547 0.0003 -0.9670
vn -0.2532 -0.4839 -0.8377
vn -0.2527 -0.8380 -0.4836
vn -0.2548 -0.9670 -0.0004
vn -0.2533 -0.8377 0.4839
vn -0.2527 -0.4835 0.8381
vn -0.0660 -0.0005 0.9978
vn -0.0635 0.4996 0.8639
vn -0.0639 0.8641 0.4992
vn -0.0660 0.9978 0.0005
vn -0.0635 0.8639 -0.4996
vn -0.0639 0.4992 -0.8641
vn -0.0660 0.0005 -0.9978
vn -0.0635 -0.4996 -0.8639
vn -0.0639 -0.8641 -0.4992
vn -0.0660 -0.9978 -0.0005
vn -0.0635 -0.8639 0.4996
vn -0.0639 -0.4992 0.8641
vn 0.0658 0.0005 0.9978
vn 0.0635 0.4992 0.8641
vn 0.0631 0.8640 0.4996
vn 0.0658 0.9978 -0.0005
vn 0.0636 0.8642 -0.4992
vn 0.0632 0.4996 -0.8639
vn 0.0657 -0.0005 -0.9978
vn 0.0636 -0.4992 -0.8641
vn 0.0632 -0.8639 -0.4996
vn 0.0657 -0.9978 0.0005
vn 0.0636 -0.8641 0.4992
vn 0.0632 -0.4996 0.8639
vn 0.2555 0.0001 0.9668
vn 0.2532 0.4835 0.8379
vn 0.2539 0.8376 0.4837
vn 0.2553 0.9669 -0.0002
vn 0.2532 0.8379 -0.4835
vn 0.2538 0.4837 -0.8376
vn 0.2553 -0.0003 -0.9669
vn 0.2533 -0.4836 -0.8379
vn 0.2539 -0.8375 -0.4838
vn 0.2554 -0.9668 0.0003
vn 0.2532 -0.8379 0.4835
vn 0.2538 -0.4837 0.8376
vn 0.4909 -0.0002 0.8712
vn 0.4916 0.4355 0.7541
vn 0.4913 0.7543 0.4356
vn 0.4910 0.8712 0.0003
vn 0.4915 0.7541 -0.4356
vn 0.4912 0.4356 -0.7543
vn 0.4908 0.0001 -0.8713
vn 0.4915 -0.4356 -0.7541
vn 0.4912 -0.7543 -0.4356
vn 0.4908 -0.8713 0.0000
vn 0.4915 -0.7541 0.4356
vn 0.4910 -0.4358 0.7543
vn 0.6965 0.0003 0.7176
vn 0.6961 0.3582 0.6222
vn 0.6962 0.6220 0.3585
vn 0.6965 0.7176 -0.0003
vn 0.6961 0.6222 -0.3582
vn 0.6961 0.3585 -0.6220
vn 0.6965 -0.0003 -0.7176
vn 0.6961 -0.3581 -0.6223
vn 0.6962 -0.6220 -0.3584
vn 0.6965 -0.7176 0.0003
vn 0.6961 -0.6222 0.3582
vn 0.6962 -0.3585 0.6220
vn 0.8571 0.0001 0.5151
vn 0.8571 0.2570 0.4464
vn 0.8572 0.4462 0.2570
vn 0.8571 0.5152 -0.0002
vn 0.8571 0.4463 -0.2572
vn 0.8572 0.2567 -0.4464
vn 0.8572 -0.0002 -0.5150
vn 0.8571 -0.2570 -0.4464
vn 0.8572 -0.4463 -0.2570
vn 0.8572 -0.5151 0.0001
vn 0.8571 -0.4464 0.2570
vn 0.8572 -0.2570 0.4462
vn 0.9193 -0.0003 0.3936
vn 0.9194 0.1970 0.3404
vn 0.9193 0.3408 0.1968
vn 0.9192 0.3937 0.0004
vn 0.9194 0.3404 -0.1970
vn 0.9193 0.1969 -0.3409
vn 0.9193 0.0003 -0.3936
vn 0.9194 -0.1969 -0.3405
vn 0.9192 -0.3409 -0.1970
vn 0.9193 -0.3936 -0.0003
vn 0.9194 -0.3405 0.1970
vn 0.9193 -0.1968 0.3408
vn 1.0000 -0.0000 -0.0000
vn 0.9076 0.1093 -0.4053
usemtl None
s 1
f 1/1/1 2/2/2 3/3/3
f 4/4/4 5/5/5 6/6/6
f 4/4/4 6/6/6 7/7/7
f 4/4/4 7/7/7 8/8/8
f 4/4/4 8/8/8 9/9/9
f 4/4/4 9/9/9 10/10/10
f 4/4/4 10/10/10 11/11/11
f 4/4/4 11/11/11 12/12/12
f 4/4/4 12/12/12 13/13/13
f 4/4/4 13/13/13 14/14/14
f 4/4/4 14/14/14 15/15/15
f 4/4/4 15/15/15 16/16/16
f 4/4/4 16/16/16 5/5/5
f 17/17/17 18/18/18 6/6/6 5/5/5
f 18/18/18 19/19/19 7/7/7 6/6/6
f 19/19/19 20/20/20 8/8/8 7/7/7
f 20/20/20 21/21/21 9/9/9 8/8/8
f 21/21/21 22/22/22 10/10/10 9/9/9
f 22/22/22 23/23/23 11/11/11 10/10/10
f 23/23/23 24/24/24 12/12/12 11/11/11
f 24/24/24 25/25/25 13/13/13 12/12/12
f 25/25/25 26/26/26 14/14/14 13/13/13
f 26/26/26 27/27/27 15/15/15 14/14/14
f 27/27/27 28/28/28 16/16/16 15/15/15
f 28/28/28 17/17/17 5/5/5 16/16/16
f 29/29/29 30/30/30 18/18/18 17/17/17
f 30/30/30 31/31/31 19/19/19 18/18/18
f 31/31/31 32/32/32 20/20/20 19/19/19
f 32/32/32 33/33/33 21/21/21 20/20/20
f 33/33/33 34/34/34 22/22/22 21/21/21
f 34/34/34 35/35/35 23/23/23 22/22/22
f 35/35/35 36/36/36 24/24/24 23/23/23
f 36/36/36 37/37/37 25/25/25 24/24/24
f 37/37/37 38/38/38 26/26/26 25/25/25
f 38/38/38 39/39/39 27/27/27 26/26/26
f 39/39/39 40/40/40 28/28/28 27/27/27
f 40/40/40 29/29/29 17/17/17 28/28/28
f 41/41/41 42/42/42 30/30/30 29/29/29
f 42/42/42 43/43/43 31/31/31 30/30/30
f 43/43/43 44/44/44 32/32/32 31/31/31
f 44/44/44 45/45/45 33/33/33 32/32/32
f 45/45/45 46/46/46 34/34/34 33/33/33
f 46/46/46 47/47/47 35/35/35 34/34/34
f 47/47/47 48/48/48 36/36/36 35/35/35
f 48/48/48 49/49/49 37/37/37 36/36/36
f 49/49/49 50/50/50 38/38/38 37/37/37
f 50/50/50 51/51/51 39/39/39 38/38/38
f 51/51/51 52/52/52 40/40/40 39/39/39
f 52/52/52 41/41/41 29/29/29 40/40/40
f 53/53/53 54/54/54 42/42/42 41/41/41
f 54/54/54 55/55/55 43/43/43 42/42/42
f 55/55/55 56/56/56 44/44/44 43/43/43
f 56/56/56 57/57/57 45/45/45 44/44/44
f 57/57/57 58/58/58 46/46/46 45/45/45
f 58/58/58 59/59/59 47/47/47 46/46/46
f 59/59/59 60/60/60 48/48/48 47/47/47
f 60/60/60 61/61/61 49/49/49 48/48/48
f 61/61/61 62/62/62 50/50/50 49/49/49
f 62/62/62 63/63/63 51/51/51 50/50/50
f 63/63/63 64/64/64 52/52/52 51/51/51
f 64/64/64 53/53/53 41/41/41 52/52/52
f 65/65/65 66/66/66 54/54/54 53/53/53
f 66/66/66 67/67/67 55/55/55 54/54/54
f 67/67/67 68/68/68 56/56/56 55/55/55
f 68/68/68 69/69/69 57/57/57 56/56/56
f 69/69/69 70/70/70 58/58/58 57/57/57
f 70/70/70 71/71/71 59/59/59 58/58/58
f 71/71/71 72/72/72 60/60/60 59/59/59
f 72/72/72 73/73/73 61/61/61 60/60/60
f 73/73/73 74/74/74 62/62/62 61/61/61
f 74/74/74 75/75/75 63/63/63 62/62/62
f 75/75/75 76/76/76 64/64/64 63/63/63
f 76/76/76 65/65/65 53/53/53 64/64/64
f 77/77/77 78/78/78 66/79/66 65/80/65
f 78/78/78 79/81/79 67/82/67 66/79/66
f 79/81/79 80/83/80 68/84/68 67/82/67
f 80/83/80 81/85/81 69/86/69 68/84/68
f 81/85/81 82/87/82 70/88/70 69/86/69
f 82/87/82 83/89/83 71/90/71 70/88/70
f 83/89/83 84/91/84 72/92/72 71/90/71
f 84/91/84 85/93/85 73/94/73 72/92/72
f 85/93/85 86/95/86 74/96/74 73/94/73
f 86/95/86 87/97/87 75/98/75 74/96/74
f 87/97/87 88/99/88 76/100/76 75/98/75
f 88/99/88 77/101/77 65/102/65 76/100/76
f 89/103/89 90/104/90 78/105/78 77/106/77
f 90/104/90 91/107/91 79/108/79 78/105/78
f 91/107/91 92/109/92 80/110/80 79/108/79
f 92/109/92 93/111/93 81/112/81 80/110/80
f 93/111/93 94/113/94 82/114/82 81/112/81
f 94/113/94 95/115/95 83/116/83 82/114/82
f 95/115/95 96/117/96 84/118/84 83/116/83
f 96/117/96 97/119/97 85/120/85 84/118/84
f 97/119/97 98/121/98 86/122/86 85/120/85
f 98/121/98 99/123/99 87/124/87 86/122/86
f 99/123/99 100/125/100 88/126/88 87/124/87
f 100/125/100 89/103/89 77/106/77 88/126/88
f 101/127/101 102/128/102 90/104/90 89/103/89
f 102/128/102 103/129/103 91/107/91 90/104/90
f 103/129/103 104/130/104 92/109/92 91/107/91
f 104/130/104 105/131/105 93/111/93 92/109/92
f 105/131/105 106/132/106 94/113/94 93/111/93
f 106/132/106 107/133/107 95/115/95 94/113/94
f 107/133/107 108/134/108 96/117/96 95/115/95
f 108/134/108 109/135/109 97/119/97 96/117/96
f 109/135/109 110/136/110 98/121/98 97/119/97
f 110/136/110 111/137/111 99/123/99 98/121/98
f 111/137/111 112/138/112 100/125/100 99/123/99
f 112/138/112 101/127/101 89/103/89 100/125/100
f 113/139/113 114/140/114 102/128/102 101/127/101
f 114/140/114 115/141/115 103/129/103 102/128/102
f 115/141/115 116/142/116 104/130/104 103/129/103
f 116/142/116 117/143/117 105/131/105 104/130/104
f 117/143/117 118/144/118 106/132/106 105/131/105
f 118/144/118 119/145/119 107/133/107 106/132/106
f 119/145/119 120/146/120 108/134/108 107/133/107
f 120/146/120 121/147/121 109/135/109 108/134/108
f 121/147/121 122/148/122 110/136/110 109/135/109
f 122/148/122 123/149/123 111/137/111 110/136/110
f 123/149/123 124/150/124 112/138/112 111/137/111
f 124/150/124 113/139/113 101/127/101 112/138/112
f 125/151/125 126/152/126 114/140/114 113/139/113
f 126/152/126 127/153/127 115/141/115 114/140/114
f 127/153/127 128/154/128 116/142/116 115/141/115
f 128/154/128 129/155/129 117/143/117 116/142/116
f 129/155/129 130/156/130 118/144/118 117/143/117
f 130/156/130 131/157/131 119/145/119 118/144/118
f 131/157/131 132/158/132 120/146/120 119/145/119
f 132/158/132 133/159/133 121/147/121 120/146/120
f 133/159/133 134/160/134 122/148/122 121/147/121
f 134/160/134 135/161/135 123/149/123 122/148/122
f 135/161/135 136/162/136 124/150/124 123/149/123
f 136/162/136 125/151/125 113/139/113 124/150/124
f 137/163/137 138/164/138 126/152/126 125/151/125
f 138/164/138 139/165/139 127/153/127 126/152/126
f 139/165/139 140/166/140 128/154/128 127/153/127
f 140/166/140 141/167/141 129/155/129 128/154/128
f 141/167/141 142/168/142 130/156/130 129/155/129
f 142/168/142 143/169/143 131/157/131 130/156/130
f 143/169/143 144/170/144 132/158/132 131/157/131
f 144/170/144 145/171/145 133/159/133 132/158/132
f 145/171/145 146/172/146 134/160/134 133/159/133
f 146/172/146 147/173/147 135/161/135 134/160/134
f 147/173/147 148/174/148 136/162/136 135/161/135
f 148/174/148 137/163/137 125/151/125 136/162/136
f 137/163/137 149/175/149 138/164/138
f 138/164/138 149/175/149 139/165/139
f 139/165/139 149/175/149 140/166/140
f 140/166/140 149/175/149 141/167/141
f 141/167/141 149/175/149 142/168/142
f 142/168/142 149/175/149 143/169/143
f 143/169/143 149/175/149 144/170/144
f 144/170/144 149/175/149 145/171/145
f 145/171/145 149/175/149 146/172/146
f 146/172/146 149/175/149 147/173/147
f 147/173/147 149/175/149 148/174/148
f 148/174/148 149/175/149 137/163/137
f 150/176/150 151/177/150 152/178/150
