# Blender v2.78 (sub 0) OBJ File: ''
# www.blender.org
mtllib Havuç.mtl
o carrot:polySurface1.002
v 0.000000 0.041715 0.266952
v 0.024077 0.050142 0.253294
v 0.032503 0.074219 0.266952
v 0.000000 0.074219 0.284512
v 0.024077 0.098295 0.253294
v 0.000000 0.106722 0.266952
v -0.024077 0.098295 0.253294
v -0.032503 0.074219 0.266952
v -0.024077 0.050142 0.253294
v 0.037792 0.112011 0.140540
v 0.000000 0.126006 0.141082
v 0.000000 0.149721 -0.069793
v 0.055709 0.129928 -0.069631
v 0.043495 0.117714 -0.175553
v 0.000000 0.132936 -0.193761
v -0.043495 0.117714 -0.175553
v -0.055709 0.129928 -0.069631
v -0.037792 0.112011 0.140540
v 0.058718 0.074219 -0.193761
v 0.000000 0.074219 -0.217172
v 0.043495 0.030724 -0.175553
v 0.000000 0.015501 -0.193761
v -0.043495 0.030724 -0.175553
v -0.058718 0.074219 -0.193761
v 0.055709 0.018510 -0.069631
v 0.000000 -0.001284 -0.069793
v 0.000000 0.022432 0.141082
v 0.037792 0.036427 0.140540
v -0.037792 0.036427 0.140540
v -0.055709 0.018510 -0.069631
v 0.075503 0.074219 -0.069793
v 0.051787 0.074219 0.141082
v -0.051787 0.074219 0.141082
v -0.075503 0.074219 -0.069793
v 0.050106 0.124324 0.035860
v 0.067468 0.074219 0.035956
v 0.000000 0.141686 0.035956
v -0.050106 0.124324 0.035860
v -0.067468 0.074219 0.035956
v 0.050106 0.024113 0.035860
v 0.000000 0.006751 0.035956
v -0.050106 0.024113 0.035860
v -0.020902 0.082046 -0.228524
v -0.009954 0.082046 -0.228524
v -0.009954 0.082046 -0.197170
v -0.020902 0.082046 -0.197170
v -0.009954 0.093493 -0.197170
v -0.020902 0.093493 -0.197170
v -0.009954 0.093493 -0.228524
v -0.020902 0.093493 -0.228524
v -0.020902 0.149482 -0.273113
v -0.009954 0.149482 -0.273113
v -0.009954 0.148437 -0.284512
v -0.020902 0.148437 -0.284512
v -0.009954 0.108018 -0.245251
v -0.020902 0.108018 -0.245251
v -0.009954 0.099874 -0.253293
v -0.020902 0.099874 -0.253293
v -0.009954 0.129548 -0.267838
v -0.020902 0.129548 -0.267838
v -0.009954 0.125468 -0.278533
v -0.020902 0.125468 -0.278533
v -0.017230 0.060030 -0.228524
v -0.011755 0.069512 -0.228524
v -0.011755 0.069512 -0.197170
v -0.017230 0.060030 -0.197170
v -0.021668 0.075236 -0.197170
v -0.027143 0.065754 -0.197170
v -0.021668 0.075236 -0.228524
v -0.027143 0.065754 -0.228524
v -0.075631 0.093748 -0.273113
v -0.070157 0.103231 -0.273113
v -0.069252 0.102708 -0.284512
v -0.074726 0.093226 -0.284512
v -0.034248 0.082498 -0.245251
v -0.039723 0.073016 -0.245251
v -0.027195 0.078426 -0.253293
v -0.032669 0.068944 -0.253293
v -0.052893 0.093263 -0.267838
v -0.058368 0.083781 -0.267838
v -0.049360 0.091223 -0.278533
v -0.054835 0.081741 -0.278533
v 0.003673 0.052203 -0.228524
v -0.001802 0.061685 -0.228524
v -0.001802 0.061685 -0.197170
v 0.003673 0.052203 -0.197170
v -0.011715 0.055962 -0.197170
v -0.006241 0.046480 -0.197170
v -0.011715 0.055962 -0.228524
v -0.006241 0.046480 -0.228524
v -0.054729 0.018485 -0.273113
v -0.060203 0.027967 -0.273113
v -0.059298 0.028489 -0.284512
v -0.053824 0.019007 -0.284512
v -0.024295 0.048699 -0.245251
v -0.018820 0.039217 -0.245251
v -0.017241 0.052771 -0.253293
v -0.011767 0.043289 -0.253293
v -0.042940 0.037934 -0.267838
v -0.037465 0.028452 -0.267838
v -0.039407 0.039974 -0.278533
v -0.033932 0.030492 -0.278533
v 0.020902 0.066392 -0.228524
v 0.009954 0.066392 -0.228524
v 0.009954 0.066392 -0.197170
v 0.020902 0.066392 -0.197170
v 0.009954 0.054945 -0.197170
v 0.020902 0.054945 -0.197170
v 0.009954 0.054945 -0.228524
v 0.020902 0.054945 -0.228524
v 0.020902 -0.001045 -0.273113
v 0.009954 -0.001045 -0.273113
v 0.009954 0.000000 -0.284512
v 0.020902 0.000000 -0.284512
v 0.009954 0.040419 -0.245251
v 0.020902 0.040419 -0.245251
v 0.009954 0.048564 -0.253293
v 0.020902 0.048564 -0.253293
v 0.009954 0.018890 -0.267838
v 0.020902 0.018890 -0.267838
v 0.009954 0.022969 -0.278533
v 0.020902 0.022969 -0.278533
v 0.017230 0.088407 -0.228524
v 0.011755 0.078925 -0.228524
v 0.011755 0.078925 -0.197170
v 0.017230 0.088407 -0.197170
v 0.021668 0.073202 -0.197170
v 0.027143 0.082684 -0.197170
v 0.021668 0.073202 -0.228524
v 0.027143 0.082684 -0.228524
v 0.075631 0.054689 -0.273113
v 0.070157 0.045207 -0.273113
v 0.069252 0.045729 -0.284512
v 0.074726 0.055211 -0.284512
v 0.034248 0.065939 -0.245251
v 0.039723 0.075421 -0.245251
v 0.027195 0.070011 -0.253293
v 0.032669 0.079493 -0.253293
v 0.052893 0.055174 -0.267838
v 0.058368 0.064656 -0.267838
v 0.049360 0.057214 -0.278533
v 0.054835 0.066696 -0.278533
v -0.003673 0.096234 -0.228524
v 0.001802 0.086752 -0.228524
v 0.001802 0.086752 -0.197170
v -0.003673 0.096234 -0.197170
v 0.011715 0.092476 -0.197170
v 0.006241 0.101958 -0.197170
v 0.011715 0.092476 -0.228524
v 0.006241 0.101958 -0.228524
v 0.054729 0.129953 -0.273113
v 0.060203 0.120470 -0.273113
v 0.059298 0.119948 -0.284512
v 0.053824 0.129430 -0.284512
v 0.024295 0.099738 -0.245251
v 0.018820 0.109221 -0.245251
v 0.017241 0.095666 -0.253293
v 0.011767 0.105149 -0.253293
v 0.042940 0.110503 -0.267838
v 0.037465 0.119985 -0.267838
v 0.039407 0.108463 -0.278533
v 0.033932 0.117946 -0.278533
vt 0.1863 0.7707
vt 0.1272 0.7500
vt 0.1065 0.6908
vt 0.1863 0.6908
vt 0.1272 0.6317
vt 0.1863 0.6110
vt 0.2455 0.6317
vt 0.2662 0.6908
vt 0.2455 0.7500
vt 0.0935 0.5980
vt 0.1863 0.5636
vt 0.1863 0.5053
vt 0.0495 0.5539
vt 0.0795 0.5840
vt 0.1863 0.5466
vt 0.2932 0.5840
vt 0.3232 0.5539
vt 0.2792 0.5980
vt 0.0421 0.6908
vt 0.1863 0.6908
vt 0.0795 0.7977
vt 0.1863 0.8351
vt 0.2932 0.7977
vt 0.3306 0.6908
vt 0.0495 0.8277
vt 0.1863 0.8763
vt 0.1863 0.8180
vt 0.0935 0.7837
vt 0.2792 0.7837
vt 0.3232 0.8277
vt 0.0009 0.6908
vt 0.0591 0.6908
vt 0.3136 0.6908
vt 0.3718 0.6908
vt 0.0632 0.5677
vt 0.0206 0.6908
vt 0.1863 0.5251
vt 0.3094 0.5677
vt 0.3521 0.6908
vt 0.0632 0.8139
vt 0.1863 0.8566
vt 0.3094 0.8139
vt 0.5680 0.2031
vt 0.6105 0.1615
vt 0.6522 0.2040
vt 0.6096 0.2456
vt 0.6938 0.2466
vt 0.6512 0.2882
vt 0.7354 0.2891
vt 0.6929 0.3307
vt 0.6929 0.3307
vt 0.7354 0.2891
vt 0.7770 0.3316
vt 0.7345 0.3733
vt 0.6531 0.1198
vt 0.6947 0.1624
vt 0.5254 0.2447
vt 0.5671 0.2873
vt 0.7354 0.2891
vt 0.6929 0.3307
vt 0.7770 0.3316
vt 0.7770 0.3316
vt 0.7345 0.3733
vt 0.7345 0.3733
vt 0.7354 0.2891
vt 0.6929 0.3307
vt 0.7770 0.3316
vt 0.7345 0.3733
vt 0.5680 0.2031
vt 0.6105 0.1615
vt 0.6522 0.2040
vt 0.6096 0.2456
vt 0.6938 0.2466
vt 0.6512 0.2882
vt 0.7354 0.2891
vt 0.6929 0.3307
vt 0.6929 0.3307
vt 0.7354 0.2891
vt 0.7770 0.3316
vt 0.7345 0.3733
vt 0.6531 0.1198
vt 0.6947 0.1624
vt 0.5254 0.2447
vt 0.5671 0.2873
vt 0.7354 0.2891
vt 0.6929 0.3307
vt 0.7770 0.3316
vt 0.7770 0.3316
vt 0.7345 0.3733
vt 0.7345 0.3733
vt 0.7354 0.2891
vt 0.6929 0.3307
vt 0.7770 0.3316
vt 0.7345 0.3733
vt 0.5680 0.2031
vt 0.6105 0.1615
vt 0.6522 0.2040
vt 0.6096 0.2456
vt 0.6938 0.2466
vt 0.6512 0.2882
vt 0.7354 0.2891
vt 0.6929 0.3307
vt 0.6929 0.3307
vt 0.7354 0.2891
vt 0.7770 0.3316
vt 0.7345 0.3733
vt 0.6531 0.1198
vt 0.6947 0.1624
vt 0.5254 0.2447
vt 0.5671 0.2873
vt 0.7354 0.2891
vt 0.6929 0.3307
vt 0.7770 0.3316
vt 0.7770 0.3316
vt 0.7345 0.3733
vt 0.7345 0.3733
vt 0.7354 0.2891
vt 0.6929 0.3307
vt 0.7770 0.3316
vt 0.7345 0.3733
vt 0.5680 0.2031
vt 0.6105 0.1615
vt 0.6522 0.2040
vt 0.6096 0.2456
vt 0.6938 0.2466
vt 0.6512 0.2882
vt 0.7354 0.2891
vt 0.6929 0.3307
vt 0.6929 0.3307
vt 0.7354 0.2891
vt 0.7770 0.3316
vt 0.7345 0.3733
vt 0.6531 0.1198
vt 0.6947 0.1624
vt 0.5254 0.2447
vt 0.5671 0.2873
vt 0.7354 0.2891
vt 0.6929 0.3307
vt 0.7770 0.3316
vt 0.7770 0.3316
vt 0.7345 0.3733
vt 0.7345 0.3733
vt 0.7354 0.2891
vt 0.6929 0.3307
vt 0.7770 0.3316
vt 0.7345 0.3733
vt 0.5680 0.2031
vt 0.6105 0.1615
vt 0.6522 0.2040
vt 0.6096 0.2456
vt 0.6938 0.2466
vt 0.6512 0.2882
vt 0.7354 0.2891
vt 0.6929 0.3307
vt 0.6929 0.3307
vt 0.7354 0.2891
vt 0.7770 0.3316
vt 0.7345 0.3733
vt 0.6531 0.1198
vt 0.6947 0.1624
vt 0.5254 0.2447
vt 0.5671 0.2873
vt 0.7354 0.2891
vt 0.6929 0.3307
vt 0.7770 0.3316
vt 0.7770 0.3316
vt 0.7345 0.3733
vt 0.7345 0.3733
vt 0.7354 0.2891
vt 0.6929 0.3307
vt 0.7770 0.3316
vt 0.7345 0.3733
vt 0.5680 0.2031
vt 0.6105 0.1615
vt 0.6522 0.2040
vt 0.6096 0.2456
vt 0.6938 0.2466
vt 0.6512 0.2882
vt 0.7354 0.2891
vt 0.6929 0.3307
vt 0.6929 0.3307
vt 0.7354 0.2891
vt 0.7770 0.3316
vt 0.7345 0.3733
vt 0.6531 0.1198
vt 0.6947 0.1624
vt 0.5254 0.2447
vt 0.5671 0.2873
vt 0.7354 0.2891
vt 0.6929 0.3307
vt 0.7770 0.3316
vt 0.7770 0.3316
vt 0.7345 0.3733
vt 0.7345 0.3733
vt 0.7354 0.2891
vt 0.6929 0.3307
vt 0.7770 0.3316
vt 0.7345 0.3733
vn -0.0000 -0.8446 0.5354
vn 0.6532 -0.6532 0.3828
vn 0.8446 -0.0000 0.5354
vn -0.0000 0.0000 1.0000
vn 0.6532 0.6532 0.3828
vn 0.0000 0.8446 0.5354
vn -0.6532 0.6532 0.3828
vn -0.8446 -0.0000 0.5354
vn -0.6532 -0.6532 0.3828
vn 0.6980 0.6980 0.1598
vn 0.0000 0.9878 0.1558
vn 0.0000 0.9994 -0.0351
vn 0.7066 0.7066 -0.0365
vn 0.6414 0.6414 -0.4210
vn -0.0000 0.8082 -0.5890
vn -0.6414 0.6414 -0.4210
vn -0.7066 0.7066 -0.0365
vn -0.6980 0.6980 0.1598
vn 0.8082 -0.0000 -0.5890
vn 0.0000 0.0000 -1.0000
vn 0.6414 -0.6414 -0.4210
vn -0.0000 -0.8082 -0.5890
vn -0.6414 -0.6414 -0.4211
vn -0.8082 -0.0000 -0.5890
vn 0.7066 -0.7066 -0.0365
vn 0.0000 -0.9994 -0.0351
vn 0.0000 -0.9878 0.1558
vn 0.6980 -0.6980 0.1598
vn -0.6980 -0.6980 0.1598
vn -0.7066 -0.7066 -0.0365
vn 0.9994 -0.0000 -0.0351
vn 0.9878 0.0000 0.1558
vn -0.9878 0.0000 0.1558
vn -0.9994 -0.0000 -0.0351
vn 0.7021 0.7021 0.1183
vn 0.9936 0.0000 0.1130
vn 0.0000 0.9936 0.1130
vn -0.7021 0.7021 0.1183
vn -0.9936 0.0000 0.1130
vn 0.7022 -0.7022 0.1182
vn -0.0000 -0.9936 0.1131
vn -0.7022 -0.7022 0.1180
vn 0.0000 -1.0000 -0.0000
vn 0.0000 1.0000 0.0000
vn 0.0000 0.9958 -0.0913
vn 1.0000 -0.0000 0.0000
vn -1.0000 -0.0000 0.0000
vn 0.0000 0.7551 0.6557
vn 0.0000 -0.8116 -0.5842
vn 0.0000 0.7238 0.6900
vn 0.0000 -0.7022 -0.7120
vn 0.0000 0.2558 0.9667
vn 0.0000 -0.2519 -0.9678
vn 0.8660 -0.5000 -0.0000
vn -0.8660 0.5000 0.0000
vn -0.8624 0.4979 -0.0913
vn 0.5000 0.8660 -0.0000
vn -0.5000 -0.8660 0.0000
vn -0.6539 0.3776 0.6557
vn 0.7029 -0.4058 -0.5842
vn -0.6269 0.3620 0.6900
vn 0.6081 -0.3511 -0.7120
vn -0.2215 0.1279 0.9667
vn 0.2182 -0.1260 -0.9678
vn 0.8660 0.5000 0.0000
vn -0.8660 -0.5000 -0.0000
vn -0.8624 -0.4979 -0.0913
vn -0.5000 0.8660 -0.0000
vn 0.5000 -0.8660 0.0000
vn 0.5000 -0.8661 0.0000
vn 0.4999 -0.8661 -0.0000
vn -0.6539 -0.3775 0.6557
vn 0.7029 0.4058 -0.5842
vn -0.6269 -0.3620 0.6900
vn 0.6081 0.3511 -0.7120
vn -0.2215 -0.1279 0.9667
vn 0.2182 0.1260 -0.9678
vn 0.0000 -0.9958 -0.0913
vn 0.0000 -0.7550 0.6557
vn 0.0000 0.8116 -0.5842
vn 0.0000 -0.7239 0.6900
vn 0.0000 0.7022 -0.7120
vn 0.0000 -0.2558 0.9667
vn 0.0000 0.2519 -0.9678
vn 0.8624 -0.4979 -0.0913
vn 0.6539 -0.3775 0.6557
vn -0.7029 0.4058 -0.5842
vn 0.6269 -0.3620 0.6900
vn -0.6081 0.3511 -0.7120
vn 0.2215 -0.1279 0.9667
vn -0.2182 0.1260 -0.9677
vn 0.8624 0.4979 -0.0913
vn 0.6539 0.3775 0.6557
vn -0.7029 -0.4058 -0.5842
vn 0.6269 0.3619 0.6900
vn -0.6081 -0.3511 -0.7120
vn 0.2215 0.1279 0.9667
vn -0.2182 -0.1260 -0.9677
usemtl None
s 1
f 1/1/1 2/2/2 3/3/3 4/4/4
f 3/3/3 5/5/5 6/6/6 4/4/4
f 6/6/6 7/7/7 8/8/8 4/4/4
f 8/8/8 9/9/9 1/1/1 4/4/4
f 6/6/6 5/5/5 10/10/10 11/11/11
f 12/12/12 13/13/13 14/14/14 15/15/15
f 15/15/15 16/16/16 17/17/17 12/12/12
f 11/11/11 18/18/18 7/7/7 6/6/6
f 15/15/15 14/14/14 19/19/19 20/20/20
f 19/19/19 21/21/21 22/22/22 20/20/20
f 22/22/22 23/23/23 24/24/24 20/20/20
f 24/24/24 16/16/16 15/15/15 20/20/20
f 22/22/22 21/21/21 25/25/25 26/26/26
f 27/27/27 28/28/28 2/2/2 1/1/1
f 1/1/1 9/9/9 29/29/29 27/27/27
f 26/26/26 30/30/30 23/23/23 22/22/22
f 31/31/31 25/25/25 21/21/21 19/19/19
f 19/19/19 14/14/14 13/13/13 31/31/31
f 32/32/32 10/10/10 5/5/5 3/3/3
f 3/3/3 2/2/2 28/28/28 32/32/32
f 33/33/33 29/29/29 9/9/9 8/8/8
f 8/8/8 7/7/7 18/18/18 33/33/33
f 34/34/34 17/17/17 16/16/16 24/24/24
f 24/24/24 23/23/23 30/30/30 34/34/34
f 13/13/13 35/35/35 36/36/36 31/31/31
f 35/35/35 10/10/10 32/32/32 36/36/36
f 10/10/10 35/35/35 37/37/37 11/11/11
f 35/35/35 13/13/13 12/12/12 37/37/37
f 11/11/11 37/37/37 38/38/38 18/18/18
f 37/37/37 12/12/12 17/17/17 38/38/38
f 18/18/18 38/38/38 39/39/39 33/33/33
f 38/38/38 17/17/17 34/34/34 39/39/39
f 28/28/28 40/40/40 36/36/36 32/32/32
f 40/40/40 25/25/25 31/31/31 36/36/36
f 25/25/25 40/40/40 41/41/41 26/26/26
f 40/40/40 28/28/28 27/27/27 41/41/41
f 26/26/26 41/41/41 42/42/42 30/30/30
f 41/41/41 27/27/27 29/29/29 42/42/42
f 30/30/30 42/42/42 39/39/39 34/34/34
f 42/42/42 29/29/29 33/33/33 39/39/39
f 43/43/43 44/44/43 45/45/43 46/46/43
f 46/46/4 45/45/4 47/47/4 48/48/4
f 48/48/44 47/47/44 49/49/44 50/50/44
f 51/51/45 52/52/45 53/53/45 54/54/45
f 44/44/46 49/55/46 47/56/46 45/45/46
f 50/57/47 43/43/47 46/46/47 48/58/47
f 50/50/48 49/49/48 55/59/48 56/60/48
f 49/49/46 44/61/46 57/62/46 55/59/46
f 44/61/49 43/63/49 58/64/49 57/62/49
f 43/63/47 50/50/47 56/60/47 58/64/47
f 56/60/50 55/59/50 59/65/50 60/66/50
f 55/59/46 57/62/46 61/67/46 59/65/46
f 57/62/51 58/64/51 62/68/51 61/67/51
f 58/64/47 56/60/47 60/66/47 62/68/47
f 60/66/52 59/65/52 52/52/52 51/51/52
f 59/65/46 61/67/46 53/53/46 52/52/46
f 61/67/53 62/68/53 54/54/53 53/53/53
f 62/68/47 60/66/47 51/51/47 54/54/47
f 63/69/54 64/70/54 65/71/54 66/72/54
f 66/72/4 65/71/4 67/73/4 68/74/4
f 68/74/55 67/73/55 69/75/55 70/76/55
f 71/77/56 72/78/56 73/79/56 74/80/56
f 64/70/57 69/81/57 67/82/57 65/71/57
f 70/83/58 63/69/58 66/72/58 68/84/58
f 70/76/59 69/75/59 75/85/59 76/86/59
f 69/75/57 64/87/57 77/88/57 75/85/57
f 64/87/60 63/89/60 78/90/60 77/88/60
f 63/89/58 70/76/58 76/86/58 78/90/58
f 76/86/61 75/85/61 79/91/61 80/92/61
f 75/85/57 77/88/57 81/93/57 79/91/57
f 77/88/62 78/90/62 82/94/62 81/93/62
f 78/90/58 76/86/58 80/92/58 82/94/58
f 80/92/63 79/91/63 72/78/63 71/77/63
f 79/91/57 81/93/57 73/79/57 72/78/57
f 81/93/64 82/94/64 74/80/64 73/79/64
f 82/94/58 80/92/58 71/77/58 74/80/58
f 83/95/65 84/96/65 85/97/65 86/98/65
f 86/98/4 85/97/4 87/99/4 88/100/4
f 88/100/66 87/99/66 89/101/66 90/102/66
f 91/103/67 92/104/67 93/105/67 94/106/67
f 84/96/68 89/107/68 87/108/68 85/97/68
f 90/109/69 83/95/70 86/98/71 88/110/71
f 90/102/72 89/101/72 95/111/72 96/112/72
f 89/101/68 84/113/68 97/114/68 95/111/68
f 84/113/73 83/115/73 98/116/73 97/114/73
f 83/115/70 90/102/69 96/112/69 98/116/69
f 96/112/74 95/111/74 99/117/74 100/118/74
f 95/111/68 97/114/68 101/119/68 99/117/68
f 97/114/75 98/116/75 102/120/75 101/119/75
f 98/116/69 96/112/69 100/118/69 102/120/69
f 100/118/76 99/117/76 92/104/76 91/103/76
f 99/117/68 101/119/68 93/105/68 92/104/68
f 101/119/77 102/120/77 94/106/77 93/105/77
f 102/120/69 100/118/69 91/103/69 94/106/69
f 103/121/44 104/122/44 105/123/44 106/124/44
f 106/124/4 105/123/4 107/125/4 108/126/4
f 108/126/43 107/125/43 109/127/43 110/128/43
f 111/129/78 112/130/78 113/131/78 114/132/78
f 104/122/47 109/133/47 107/134/47 105/123/47
f 110/135/46 103/121/46 106/124/46 108/136/46
f 110/128/79 109/127/79 115/137/79 116/138/79
f 109/127/47 104/139/47 117/140/47 115/137/47
f 104/139/80 103/141/80 118/142/80 117/140/80
f 103/141/46 110/128/46 116/138/46 118/142/46
f 116/138/81 115/137/81 119/143/81 120/144/81
f 115/137/47 117/140/47 121/145/47 119/143/47
f 117/140/82 118/142/82 122/146/82 121/145/82
f 118/142/46 116/138/46 120/144/46 122/146/46
f 120/144/83 119/143/83 112/130/83 111/129/83
f 119/143/47 121/145/47 113/131/47 112/130/47
f 121/145/84 122/146/84 114/132/84 113/131/84
f 122/146/46 120/144/46 111/129/46 114/132/46
f 123/147/55 124/148/55 125/149/55 126/150/55
f 126/150/4 125/149/4 127/151/4 128/152/4
f 128/152/54 127/151/54 129/153/54 130/154/54
f 131/155/85 132/156/85 133/157/85 134/158/85
f 124/148/58 129/159/58 127/160/58 125/149/58
f 130/161/57 123/147/57 126/150/57 128/162/57
f 130/154/86 129/153/86 135/163/86 136/164/86
f 129/153/58 124/165/58 137/166/58 135/163/58
f 124/165/87 123/167/87 138/168/87 137/166/87
f 123/167/57 130/154/57 136/164/57 138/168/57
f 136/164/88 135/163/88 139/169/88 140/170/88
f 135/163/58 137/166/58 141/171/58 139/169/58
f 137/166/89 138/168/89 142/172/89 141/171/89
f 138/168/57 136/164/57 140/170/57 142/172/57
f 140/170/90 139/169/90 132/156/90 131/155/90
f 139/169/58 141/171/58 133/157/58 132/156/58
f 141/171/91 142/172/91 134/158/91 133/157/91
f 142/172/57 140/170/57 131/155/57 134/158/57
f 143/173/66 144/174/66 145/175/66 146/176/66
f 146/176/4 145/175/4 147/177/4 148/178/4
f 148/178/65 147/177/65 149/179/65 150/180/65
f 151/181/92 152/182/92 153/183/92 154/184/92
f 144/174/69 149/185/69 147/186/69 145/175/69
f 150/187/68 143/173/68 146/176/68 148/188/68
f 150/180/93 149/179/93 155/189/93 156/190/93
f 149/179/69 144/191/69 157/192/69 155/189/69
f 144/191/94 143/193/94 158/194/94 157/192/94
f 143/193/68 150/180/68 156/190/68 158/194/68
f 156/190/95 155/189/95 159/195/95 160/196/95
f 155/189/69 157/192/69 161/197/69 159/195/69
f 157/192/96 158/194/96 162/198/96 161/197/96
f 158/194/68 156/190/68 160/196/68 162/198/68
f 160/196/97 159/195/97 152/182/97 151/181/97
f 159/195/69 161/197/69 153/183/69 152/182/69
f 161/197/98 162/198/98 154/184/98 153/183/98
f 162/198/68 160/196/68 151/181/68 154/184/68
