# Blender v2.78 (sub 0) OBJ File: ''
# www.blender.org
mtllib Kadin_figuru.mtl
o Curve_Curve.1804
v -0.015565 0.015000 -0.158229
v 0.021648 0.015000 -0.156787
v 0.006837 0.015000 -0.158973
v -0.035273 0.015000 -0.152943
v 0.032724 0.015000 -0.153587
v 0.045426 0.015000 -0.148172
v -0.049678 0.015000 -0.146240
v 0.059305 0.015000 -0.139407
v -0.062715 0.015000 -0.137432
v 0.070265 0.015000 -0.129890
v -0.074191 0.015000 -0.126669
v -0.001150 0.015000 -0.125243
v 0.079716 0.015000 -0.118942
v 0.010752 0.015000 -0.124284
v -0.017034 0.015000 -0.122762
v -0.083881 0.015000 -0.114114
v 0.019687 0.015000 -0.122166
v 0.030268 0.015000 -0.117881
v -0.031673 0.015000 -0.116824
v 0.087489 0.015000 -0.106773
v 0.043110 0.015000 -0.109155
v -0.045751 0.015000 -0.106146
v -0.091181 0.015000 -0.100766
v 0.053094 0.015000 -0.098325
v 0.093398 0.015000 -0.093610
v -0.054010 0.015000 -0.096184
v -0.096724 0.015000 -0.085813
v -0.059708 0.015000 -0.086123
v 0.058470 0.015000 -0.089592
v 0.097576 0.015000 -0.078262
v 0.063096 0.015000 -0.078670
v -0.064174 0.015000 -0.071028
v -0.099585 0.015000 -0.069328
v 0.065800 0.015000 -0.063556
v 0.099238 0.015000 -0.061334
v -0.065251 0.015000 -0.058035
v -0.099860 0.015000 -0.053187
v 0.065404 0.015000 -0.051100
v 0.098092 0.015000 -0.042824
v -0.063766 0.015000 -0.045333
v -0.098019 0.015000 -0.038671
v 0.062534 0.015000 -0.038828
v -0.059771 0.015000 -0.033192
v 0.093376 0.015000 -0.025421
v 0.057391 0.015000 -0.027384
v -0.093978 0.015000 -0.024834
v -0.051729 0.015000 -0.019593
v 0.049641 0.015000 -0.016307
v 0.087352 0.015000 -0.012023
v -0.086042 0.015000 -0.008163
v -0.041781 0.015000 -0.009442
v 0.035547 0.015000 -0.004091
v 0.079531 0.015000 0.000229
v -0.032893 0.015000 -0.002933
v -0.073009 0.015000 0.009122
v 0.020014 0.015000 0.003133
v -0.023265 0.015000 0.001696
v -0.010880 0.015000 0.005166
v 0.070038 0.015000 0.011180
v 0.005014 0.015000 0.005821
v 0.059015 0.015000 0.020655
v -0.056235 0.015000 0.023337
v 0.045573 0.015000 0.029074
v -0.039105 0.015000 0.032422
v 0.033656 0.015000 0.034208
v 0.021461 0.015000 0.037932
v -0.022015 0.015000 0.061565
v 0.021215 0.015000 0.061565
v -0.057102 0.015000 0.061867
v 0.054996 0.015000 0.061867
v -0.059716 0.015000 0.064279
v 0.057409 0.015000 0.064682
v -0.059716 0.015000 0.098756
v 0.057409 0.015000 0.099158
v 0.054795 0.015000 0.101570
v -0.057303 0.015000 0.101570
v 0.021266 0.015000 0.101872
v -0.021764 0.015000 0.138409
v 0.020964 0.015000 0.138610
v -0.002789 0.015000 0.158973
v 0.021648 0.000000 -0.156787
v -0.015565 0.000000 -0.158229
v 0.006837 0.000000 -0.158973
v -0.035273 0.000000 -0.152943
v 0.032724 0.000000 -0.153587
v 0.045426 0.000000 -0.148172
v -0.049678 0.000000 -0.146240
v 0.059305 0.000000 -0.139407
v -0.062715 0.000000 -0.137432
v 0.070265 0.000000 -0.129890
v -0.074191 0.000000 -0.126669
v -0.001150 0.000000 -0.125243
v 0.079716 0.000000 -0.118942
v 0.013682 0.000000 -0.123979
v -0.017034 0.000000 -0.122762
v -0.083881 0.000000 -0.114114
v 0.030268 0.000000 -0.117881
v -0.031673 0.000000 -0.116824
v 0.087489 0.000000 -0.106773
v 0.043110 0.000000 -0.109155
v -0.045751 0.000000 -0.106146
v -0.091181 0.000000 -0.100766
v 0.053094 0.000000 -0.098325
v 0.093398 0.000000 -0.093610
v -0.054010 0.000000 -0.096184
v -0.096724 0.000000 -0.085813
v -0.059708 0.000000 -0.086123
v 0.058470 0.000000 -0.089592
v 0.097576 0.000000 -0.078262
v 0.063096 0.000000 -0.078670
v -0.064174 0.000000 -0.071028
v -0.099585 0.000000 -0.069328
v 0.065800 0.000000 -0.063556
v 0.099238 0.000000 -0.061334
v -0.065251 0.000000 -0.058035
v -0.099860 0.000000 -0.053187
v 0.065404 0.000000 -0.051100
v 0.098092 0.000000 -0.042824
v -0.063766 0.000000 -0.045333
v -0.098019 0.000000 -0.038671
v 0.062534 0.000000 -0.038828
v -0.059771 0.000000 -0.033192
v 0.093376 0.000000 -0.025421
v 0.057391 0.000000 -0.027384
v -0.093978 0.000000 -0.024834
v -0.051729 0.000000 -0.019593
v 0.049641 0.000000 -0.016307
v 0.087352 0.000000 -0.012023
v -0.086042 0.000000 -0.008163
v -0.041781 0.000000 -0.009442
v 0.035547 0.000000 -0.004091
v 0.079531 -0.000000 0.000229
v -0.032893 0.000000 -0.002933
v -0.073009 -0.000000 0.009122
v 0.020014 -0.000000 0.003133
v -0.023265 -0.000000 0.001696
v -0.010880 -0.000000 0.005166
v 0.070038 -0.000000 0.011180
v 0.005014 -0.000000 0.005821
v 0.059015 -0.000000 0.020655
v -0.056235 -0.000000 0.023337
v 0.045573 -0.000000 0.029074
v -0.039105 -0.000000 0.032422
v 0.033656 -0.000000 0.034208
v 0.021461 -0.000000 0.037932
v -0.022015 -0.000000 0.061565
v -0.057102 -0.000000 0.061867
v 0.054996 -0.000000 0.061867
v -0.059716 -0.000000 0.064279
v 0.057409 -0.000000 0.064682
v -0.059716 -0.000000 0.098756
v 0.057409 -0.000000 0.099158
v 0.054795 -0.000000 0.101570
v -0.057303 -0.000000 0.101570
v -0.022065 -0.000000 0.101872
v 0.021266 -0.000000 0.101872
v -0.021764 -0.000000 0.138409
v 0.020964 -0.000000 0.138610
v -0.002789 -0.000000 0.158973
v 0.012821 0.000000 -0.158711
v 0.012135 0.015000 -0.158786
v 0.049071 0.015000 -0.147266
v 0.050456 0.000000 -0.146573
v 0.098000 0.015000 -0.081781
v 0.090583 0.000000 -0.104185
v 0.079318 0.015000 -0.119888
v 0.097335 0.015000 -0.037259
v 0.099860 0.000000 -0.050548
v 0.084425 0.015000 -0.006478
v 0.083627 0.000000 -0.004412
v 0.057049 0.015000 0.023416
v 0.021614 0.015000 0.038268
v 0.051041 -0.000000 0.026955
v 0.021202 -0.000000 0.061565
v -0.022065 0.015000 0.101872
v -0.021140 0.015000 0.139904
v -0.022361 0.015000 0.037832
v -0.022312 -0.000000 0.037853
v -0.057471 0.015000 -0.141710
v -0.082219 0.000000 -0.118762
v -0.084998 0.015000 -0.113904
v -0.023028 0.015000 -0.157367
v -0.048848 0.000000 -0.147050
v -0.042082 0.015000 -0.109784
v -0.025116 0.000000 -0.120644
v -0.020522 0.015000 -0.121937
v -0.057730 0.015000 -0.090682
v -0.054827 0.000000 -0.096740
v 0.042134 0.015000 -0.007692
v 0.014532 -0.000000 0.004969
v 0.010983 0.015000 0.005471
v 0.056538 0.015000 0.062483
v 0.056700 -0.000000 0.062649
v 0.021551 -0.000000 0.038025
v 0.056291 0.015000 0.100945
v 0.055784 -0.000000 0.101206
v 0.020349 0.015000 0.140152
v 0.020184 -0.000000 0.140313
v -0.021027 -0.000000 0.139693
v -0.058845 0.015000 0.100956
v -0.059007 -0.000000 0.100789
v -0.058597 0.015000 0.062492
v -0.058091 -0.000000 0.062231
v -0.048221 0.015000 0.028669
v -0.049196 -0.000000 0.028204
v -0.085207 0.015000 -0.004323
v -0.086009 0.000000 -0.005647
v -0.099365 0.015000 -0.044899
v -0.099511 0.000000 -0.046034
v -0.098764 0.015000 -0.078340
v -0.098550 0.000000 -0.079478
v -0.018194 0.000000 -0.157981
v 0.005547 0.000000 -0.125122
v 0.006816 0.015000 -0.125033
v -0.066100 0.015000 -0.058953
v -0.066064 0.000000 -0.056926
v -0.056304 0.015000 -0.025444
v -0.055314 0.000000 -0.023899
v -0.026422 0.015000 0.001928
v -0.025178 -0.000000 0.002456
v 0.044265 0.000000 -0.009922
v 0.060370 0.015000 -0.032640
v 0.060729 0.000000 -0.033398
v 0.066203 0.015000 -0.056831
v 0.066234 0.000000 -0.057820
v 0.060250 0.015000 -0.087971
v 0.059771 0.000000 -0.088953
v 0.037771 0.015000 -0.113861
v 0.036736 0.000000 -0.114567
vt 0.6583 0.0214
vt 0.5846 0.0453
vt 0.6130 0.0326
vt 0.7007 0.0210
vt 0.5642 0.0581
vt 0.5418 0.0762
vt 0.7332 0.0265
vt 0.5189 0.1018
vt 0.7643 0.0369
vt 0.5023 0.1272
vt 0.7932 0.0522
vt 0.6478 0.0963
vt 0.4894 0.1547
vt 0.6245 0.1050
vt 0.6810 0.0924
vt 0.8196 0.0722
vt 0.6078 0.1143
vt 0.5890 0.1290
vt 0.7136 0.0962
vt 0.4807 0.1838
vt 0.5682 0.1539
vt 0.7478 0.1098
vt 0.8417 0.0951
vt 0.5542 0.1814
vt 0.4762 0.2137
vt 0.7699 0.1253
vt 0.8611 0.1222
vt 0.7869 0.1425
vt 0.5484 0.2022
vt 0.4764 0.2472
vt 0.5452 0.2269
vt 0.8042 0.1705
vt 0.8761 0.1540
vt 0.5482 0.2590
vt 0.4825 0.2824
vt 0.8136 0.1962
vt 0.8856 0.1865
vt 0.5560 0.2840
vt 0.4951 0.3192
vt 0.8178 0.2228
vt 0.8900 0.2169
vt 0.5685 0.3072
vt 0.8165 0.2496
vt 0.5143 0.3518
vt 0.5852 0.3275
vt 0.8897 0.2472
vt 0.8080 0.2817
vt 0.6069 0.3455
vt 0.5338 0.3755
vt 0.8831 0.2855
vt 0.7938 0.3079
vt 0.6420 0.3623
vt 0.5563 0.3959
vt 0.7796 0.3260
vt 0.8666 0.3278
vt 0.6771 0.3682
vt 0.7629 0.3408
vt 0.7401 0.3549
vt 0.5814 0.4127
vt 0.7086 0.3652
vt 0.6088 0.4257
vt 0.8410 0.3661
vt 0.6404 0.4351
vt 0.8118 0.3941
vt 0.6671 0.4388
vt 0.7812 0.4146
vt 0.6936 0.4394
vt 0.7938 0.4628
vt 0.7073 0.4871
vt 0.8642 0.4436
vt 0.6398 0.5068
vt 0.8708 0.4470
vt 0.6366 0.5139
vt 0.8900 0.5168
vt 0.6558 0.5837
vt 0.6624 0.5871
vt 0.8868 0.5238
vt 0.8164 0.5443
vt 0.7297 0.5688
vt 0.8362 0.6185
vt 0.7508 0.6430
vt 0.8097 0.6708
vt 0.1292 0.6465
vt 0.2029 0.6704
vt 0.1576 0.6592
vt 0.2453 0.6708
vt 0.1088 0.6337
vt 0.0864 0.6156
vt 0.2778 0.6654
vt 0.0635 0.5900
vt 0.3089 0.6549
vt 0.0468 0.5646
vt 0.3378 0.6396
vt 0.1924 0.5955
vt 0.0340 0.5371
vt 0.1634 0.5845
vt 0.2256 0.5994
vt 0.3642 0.6196
vt 0.1336 0.5628
vt 0.2582 0.5956
vt 0.0253 0.5081
vt 0.1128 0.5379
vt 0.2923 0.5820
vt 0.3863 0.5967
vt 0.0988 0.5104
vt 0.0208 0.4781
vt 0.3144 0.5665
vt 0.4057 0.5696
vt 0.3315 0.5493
vt 0.0929 0.4897
vt 0.0210 0.4447
vt 0.0898 0.4649
vt 0.3488 0.5213
vt 0.4207 0.5378
vt 0.0928 0.4328
vt 0.0271 0.4094
vt 0.3582 0.4956
vt 0.4302 0.5053
vt 0.1005 0.4078
vt 0.0397 0.3726
vt 0.3623 0.4690
vt 0.4346 0.4749
vt 0.1131 0.3846
vt 0.3611 0.4422
vt 0.0589 0.3400
vt 0.1298 0.3643
vt 0.4343 0.4446
vt 0.3526 0.4101
vt 0.1515 0.3463
vt 0.0784 0.3163
vt 0.4277 0.4063
vt 0.3384 0.3840
vt 0.1865 0.3295
vt 0.1009 0.2959
vt 0.3242 0.3658
vt 0.4112 0.3640
vt 0.2217 0.3236
vt 0.3075 0.3510
vt 0.2846 0.3370
vt 0.1260 0.2791
vt 0.2532 0.3267
vt 0.1534 0.2662
vt 0.3856 0.3258
vt 0.1850 0.2567
vt 0.3564 0.2977
vt 0.2117 0.2530
vt 0.3257 0.2772
vt 0.2382 0.2524
vt 0.3384 0.2291
vt 0.2519 0.2047
vt 0.4088 0.2482
vt 0.1844 0.1850
vt 0.4154 0.2448
vt 0.1811 0.1779
vt 0.4346 0.1750
vt 0.2004 0.1081
vt 0.2070 0.1047
vt 0.4314 0.1680
vt 0.3610 0.1475
vt 0.2743 0.1230
vt 0.3808 0.0734
vt 0.2954 0.0488
vt 0.3543 0.0210
vt 0.9317 0.6383
vt 0.9790 0.6369
vt 0.9792 0.7103
vt 0.9318 0.7130
vt 0.9790 0.1570
vt 0.9316 0.1102
vt 0.9791 0.0775
vt 0.9790 0.2506
vt 0.9316 0.2226
vt 0.9791 0.3157
vt 0.9317 0.3200
vt 0.9792 0.3794
vt 0.4762 0.7129
vt 0.5236 0.7764
vt 0.4762 0.7896
vt 0.9683 0.9776
vt 0.9210 0.9776
vt 0.9683 0.9287
vt 0.7431 0.8363
vt 0.7904 0.8363
vt 0.7431 0.9162
vt 0.9210 0.8363
vt 0.9683 0.8363
vt 0.9210 0.8861
vt 0.9790 0.4870
vt 0.9318 0.4287
vt 0.9792 0.4214
vt 0.9790 0.5633
vt 0.9316 0.5065
vt 0.3353 0.8808
vt 0.2879 0.8435
vt 0.3353 0.8336
vt 0.1099 0.9075
vt 0.1573 0.9203
vt 0.1100 0.9482
vt 0.3770 0.7179
vt 0.4243 0.7791
vt 0.3769 0.7867
vt 0.9318 0.0224
vt 0.9792 0.0210
vt 0.4243 0.9790
vt 0.3769 0.9789
vt 0.3769 0.9057
vt 0.4243 0.9055
vt 0.5236 0.8499
vt 0.5236 0.7128
vt 0.9210 0.9282
vt 0.7904 0.7939
vt 0.7431 0.7942
vt 0.7431 0.7134
vt 0.7904 0.7128
vt 0.4762 0.8930
vt 0.5236 0.8919
vt 0.5236 0.9654
vt 0.4762 0.9655
vt 0.8320 0.8363
vt 0.8794 0.8363
vt 0.8794 0.9167
vt 0.8320 0.9171
vt 0.6541 0.7132
vt 0.7015 0.7128
vt 0.7015 0.7997
vt 0.6541 0.7994
vt 0.6541 0.8418
vt 0.7015 0.8417
vt 0.7015 0.9187
vt 0.6541 0.9190
vt 0.7904 0.9157
vt 0.8320 0.7132
vt 0.8794 0.7128
vt 0.8794 0.7937
vt 0.8320 0.7942
vt 0.5652 0.8823
vt 0.6126 0.8811
vt 0.6126 0.9576
vt 0.5652 0.9575
vt 0.6126 0.8391
vt 0.5652 0.8391
vt 0.5652 0.7864
vt 0.6125 0.7844
vt 0.9683 0.8861
vt 0.5652 0.7143
vt 0.6126 0.7128
vt 0.0682 0.9506
vt 0.0209 0.9534
vt 0.0208 0.8682
vt 0.0682 0.8658
vt 0.0208 0.7979
vt 0.0682 0.7955
vt 0.0208 0.7231
vt 0.0682 0.7128
vt 0.9316 0.5735
vt 0.2879 0.7785
vt 0.3353 0.7758
vt 0.1098 0.8405
vt 0.1572 0.8362
vt 0.2880 0.9097
vt 0.1098 0.7705
vt 0.1572 0.7672
vt 0.1099 0.7139
vt 0.1573 0.7128
vt 0.4243 0.8610
vt 0.3770 0.8634
vt 0.1990 0.7175
vt 0.2464 0.7128
vt 0.2463 0.7654
vt 0.1989 0.7670
vt 0.4243 0.7128
vt 0.2462 0.8163
vt 0.1989 0.8184
vt 0.2463 0.8817
vt 0.1989 0.8838
vt 0.2464 0.9359
vt 0.1990 0.9374
vt 0.2880 0.7149
vt 0.3353 0.7128
vn 0.0000 1.0000 0.0000
vn 0.0000 1.0000 -0.0001
vn -0.0000 -1.0000 -0.0000
vn 0.1418 0.0041 -0.9899
vn 0.1320 0.0045 -0.9912
vn 0.5035 -0.0457 -0.8628
vn 0.5296 -0.0514 -0.8467
vn 0.9764 -0.0936 -0.1944
vn 0.8871 0.0661 -0.4569
vn 0.7521 -0.0265 -0.6585
vn 0.9659 -0.0394 0.2560
vn 0.9970 0.0209 0.0750
vn 0.8503 0.0271 0.5255
vn 0.8338 -0.0059 0.5521
vn 0.5967 -0.0268 0.8020
vn 0.8228 0.0016 0.5683
vn 0.5015 -0.0107 0.8651
vn 0.7228 -0.0044 -0.6911
vn 0.7229 -0.0053 -0.6910
vn -0.7081 -0.0037 0.7061
vn -0.7078 -0.0050 0.7064
vn -0.6999 -0.0053 0.7142
vn -0.8124 -0.0035 0.5831
vn -0.8139 -0.0034 0.5810
vn -0.7194 0.0050 -0.6945
vn -0.5879 -0.0157 -0.8088
vn -0.8033 0.0259 -0.5951
vn -0.8593 0.0268 -0.5108
vn -0.2294 -0.0124 -0.9733
vn -0.4790 0.0033 -0.8778
vn 0.6355 0.0441 0.7708
vn 0.3823 0.0062 0.9240
vn 0.2803 -0.0221 0.9597
vn 0.9126 -0.0020 0.4088
vn 0.8376 0.0106 0.5462
vn -0.6182 0.0161 -0.7859
vn -0.2039 -0.0113 -0.9789
vn -0.1249 -0.0201 -0.9920
vn 0.7174 -0.0117 -0.6966
vn 0.7270 -0.0117 -0.6866
vn 0.8155 -0.0128 0.5786
vn 0.7210 -0.0023 0.6929
vn 0.6985 -0.0018 0.7156
vn 0.7060 0.0020 0.7082
vn 0.6990 -0.0049 0.7151
vn 0.6891 -0.0049 0.7246
vn -0.7025 -0.0066 0.7117
vn -0.7170 -0.0117 0.6970
vn -0.7266 -0.0117 0.6870
vn -0.7207 -0.0023 -0.6933
vn -0.6982 -0.0018 -0.7159
vn -0.7192 0.0059 -0.6948
vn -0.5059 -0.0041 0.8626
vn -0.5211 -0.0041 0.8535
vn -0.8263 -0.0008 0.5633
vn -0.8442 -0.0003 0.5360
vn -0.9870 0.0016 0.1607
vn -0.9896 0.0014 0.1439
vn -0.9812 -0.0090 -0.1928
vn -0.9777 -0.0098 -0.2100
vn -0.1559 -0.0210 -0.9875
vn -0.0907 0.0080 0.9958
vn -0.1154 0.0072 0.9933
vn 0.9995 0.0320 0.0077
vn 0.9988 0.0268 -0.0401
vn 0.8528 -0.0022 -0.5222
vn 0.8305 -0.0022 -0.5570
vn 0.4101 0.0048 -0.9120
vn 0.3765 0.0056 -0.9264
vn -0.6723 0.0257 -0.7398
vn -0.9080 -0.0047 -0.4190
vn -0.9137 -0.0044 -0.4064
vn -0.9997 0.0012 -0.0250
vn -1.0000 0.0012 -0.0073
vn -0.9012 0.0012 0.4334
vn -0.8905 0.0012 0.4550
vn -0.5688 0.0005 0.8224
vn -0.5466 0.0005 0.8374
usemtl None
s off
f 1/1/1 2/2/1 3/3/1
f 4/4/1 2/2/1 1/1/1
f 4/4/1 5/5/1 2/2/1
f 4/4/1 6/6/1 5/5/1
f 7/7/1 6/6/1 4/4/1
f 7/7/1 8/8/1 6/6/1
f 9/9/1 8/8/1 7/7/1
f 9/9/1 10/10/1 8/8/1
f 11/11/1 10/10/1 9/9/1
f 11/11/1 12/12/1 10/10/1
f 12/12/1 13/13/1 10/10/1
f 14/14/2 13/13/2 12/12/2
f 11/11/1 15/15/1 12/12/1
f 16/16/1 15/15/1 11/11/1
f 17/17/1 13/13/1 14/14/1
f 18/18/1 13/13/1 17/17/1
f 16/16/1 19/19/1 15/15/1
f 18/18/1 20/20/1 13/13/1
f 21/21/1 20/20/1 18/18/1
f 16/16/1 22/22/1 19/19/1
f 23/23/1 22/22/1 16/16/1
f 24/24/1 20/20/1 21/21/1
f 24/24/1 25/25/1 20/20/1
f 23/23/1 26/26/1 22/22/1
f 27/27/1 26/26/1 23/23/1
f 27/27/1 28/28/1 26/26/1
f 29/29/1 25/25/1 24/24/1
f 29/29/1 30/30/1 25/25/1
f 31/31/1 30/30/1 29/29/1
f 27/27/1 32/32/1 28/28/1
f 33/33/1 32/32/1 27/27/1
f 34/34/1 30/30/1 31/31/1
f 34/34/1 35/35/1 30/30/1
f 33/33/1 36/36/1 32/32/1
f 37/37/1 36/36/1 33/33/1
f 38/38/1 35/35/1 34/34/1
f 38/38/1 39/39/1 35/35/1
f 37/37/1 40/40/1 36/36/1
f 41/41/1 40/40/1 37/37/1
f 42/42/1 39/39/1 38/38/1
f 41/41/1 43/43/1 40/40/1
f 42/42/1 44/44/1 39/39/1
f 45/45/1 44/44/1 42/42/1
f 46/46/1 43/43/1 41/41/1
f 46/46/1 47/47/1 43/43/1
f 48/48/1 44/44/1 45/45/1
f 48/48/1 49/49/1 44/44/1
f 50/50/1 47/47/1 46/46/1
f 50/50/1 51/51/1 47/47/1
f 52/52/1 49/49/1 48/48/1
f 52/52/1 53/53/1 49/49/1
f 50/50/1 54/54/1 51/51/1
f 55/55/1 54/54/1 50/50/1
f 56/56/1 53/53/1 52/52/1
f 55/55/1 57/57/1 54/54/1
f 55/55/1 58/58/1 57/57/1
f 56/56/1 59/59/1 53/53/1
f 60/60/1 59/59/1 56/56/1
f 55/55/1 60/60/1 58/58/1
f 55/55/1 59/59/1 60/60/1
f 55/55/1 61/61/1 59/59/1
f 62/62/1 61/61/1 55/55/1
f 62/62/1 63/63/1 61/61/1
f 64/64/1 63/63/1 62/62/1
f 64/64/1 65/65/1 63/63/1
f 177/66/1 65/65/1 64/64/1
f 177/66/1 66/67/1 65/65/1
f 67/68/1 66/67/1 177/66/1
f 67/68/1 68/69/1 66/67/1
f 69/70/1 68/69/1 67/68/1
f 69/70/1 70/71/1 68/69/1
f 71/72/1 70/71/1 69/70/1
f 71/72/1 72/73/1 70/71/1
f 73/74/1 72/73/1 71/72/1
f 73/74/1 74/75/1 72/73/1
f 73/74/1 75/76/1 74/75/1
f 76/77/1 75/76/1 73/74/1
f 175/78/1 75/76/1 76/77/1
f 175/78/1 77/79/1 75/76/1
f 78/80/1 77/79/1 175/78/1
f 78/80/1 79/81/1 77/79/1
f 80/82/1 79/81/1 78/80/1
f 81/83/3 82/84/3 83/85/3
f 81/83/3 84/86/3 82/84/3
f 85/87/3 84/86/3 81/83/3
f 86/88/3 84/86/3 85/87/3
f 86/88/3 87/89/3 84/86/3
f 88/90/3 87/89/3 86/88/3
f 88/90/3 89/91/3 87/89/3
f 90/92/3 89/91/3 88/90/3
f 90/92/3 91/93/3 89/91/3
f 92/94/3 91/93/3 90/92/3
f 93/95/3 92/94/3 90/92/3
f 93/95/3 94/96/3 92/94/3
f 95/97/3 91/93/3 92/94/3
f 95/97/3 96/98/3 91/93/3
f 93/95/3 97/99/3 94/96/3
f 98/100/3 96/98/3 95/97/3
f 99/101/3 97/99/3 93/95/3
f 99/101/3 100/102/3 97/99/3
f 101/103/3 96/98/3 98/100/3
f 101/103/3 102/104/3 96/98/3
f 99/101/3 103/105/3 100/102/3
f 104/106/3 103/105/3 99/101/3
f 105/107/3 102/104/3 101/103/3
f 105/107/3 106/108/3 102/104/3
f 107/109/3 106/108/3 105/107/3
f 104/106/3 108/110/3 103/105/3
f 109/111/3 108/110/3 104/106/3
f 109/111/3 110/112/3 108/110/3
f 111/113/3 106/108/3 107/109/3
f 111/113/3 112/114/3 106/108/3
f 109/111/3 113/115/3 110/112/3
f 114/116/3 113/115/3 109/111/3
f 115/117/3 112/114/3 111/113/3
f 115/117/3 116/118/3 112/114/3
f 114/116/3 117/119/3 113/115/3
f 118/120/3 117/119/3 114/116/3
f 119/121/3 116/118/3 115/117/3
f 119/121/3 120/122/3 116/118/3
f 118/120/3 121/123/3 117/119/3
f 122/124/3 120/122/3 119/121/3
f 123/125/3 121/123/3 118/120/3
f 123/125/3 124/126/3 121/123/3
f 122/124/3 125/127/3 120/122/3
f 126/128/3 125/127/3 122/124/3
f 123/125/3 127/129/3 124/126/3
f 128/130/3 127/129/3 123/125/3
f 126/128/3 129/131/3 125/127/3
f 130/132/3 129/131/3 126/128/3
f 128/130/3 131/133/3 127/129/3
f 132/134/3 131/133/3 128/130/3
f 133/135/3 129/131/3 130/132/3
f 133/135/3 134/136/3 129/131/3
f 132/134/3 135/137/3 131/133/3
f 136/138/3 134/136/3 133/135/3
f 137/139/3 134/136/3 136/138/3
f 138/140/3 135/137/3 132/134/3
f 138/140/3 139/141/3 135/137/3
f 139/141/3 134/136/3 137/139/3
f 138/140/3 134/136/3 139/141/3
f 140/142/3 134/136/3 138/140/3
f 140/142/3 141/143/3 134/136/3
f 142/144/3 141/143/3 140/142/3
f 142/144/3 143/145/3 141/143/3
f 144/146/3 143/145/3 142/144/3
f 144/146/3 178/147/3 143/145/3
f 145/148/3 178/147/3 144/146/3
f 145/148/3 146/149/3 178/147/3
f 174/150/3 146/149/3 145/148/3
f 174/150/3 147/151/3 146/149/3
f 148/152/3 147/151/3 174/150/3
f 148/152/3 149/153/3 147/151/3
f 150/154/3 149/153/3 148/152/3
f 150/154/3 151/155/3 149/153/3
f 152/156/3 151/155/3 150/154/3
f 153/157/3 151/155/3 152/156/3
f 153/157/3 154/158/3 151/155/3
f 153/157/3 155/159/3 154/158/3
f 156/160/3 155/159/3 153/157/3
f 156/160/3 157/161/3 155/159/3
f 158/162/3 157/161/3 156/160/3
f 158/162/3 159/163/3 157/161/3
s 1
f 160/164/4 161/165/5 162/166/6 163/167/7
f 164/168/8 165/169/9 166/170/10
f 167/171/11 168/172/12 164/168/8
f 169/173/13 170/174/14 167/171/11
f 171/175/15 170/174/14 169/173/13
f 172/176/16 173/177/17 171/178/15
f 68/179/18 174/180/19 172/181/16
f 175/182/20 155/183/21 176/184/22
f 177/185/23 178/186/24 67/187/25
f 179/188/26 180/189/27 181/190/28
f 182/191/29 183/192/30 179/188/26
f 184/193/31 185/194/32 186/195/33
f 187/196/34 188/197/35 184/198/31
f 189/199/36 190/200/37 191/201/38
f 163/202/7 162/203/6 166/170/10 165/169/9
f 174/204/19 68/205/18 192/206/39 193/207/40
f 164/168/8 168/172/12 165/169/9
f 167/171/11 170/174/14 168/172/12
f 171/178/15 173/177/17 170/208/14
f 172/176/16 194/209/41 173/177/17
f 172/181/16 174/180/19 194/210/41
f 193/211/40 192/212/39 195/213/42 196/214/43
f 196/215/43 195/216/42 77/217/44 156/218/44
f 156/219/44 77/220/44 197/221/45 198/222/46
f 198/223/46 197/224/45 176/225/22 199/226/47
f 155/227/21 175/228/20 200/229/48 201/230/49
f 176/184/22 155/183/21 199/231/47
f 201/232/49 200/233/48 202/234/50 203/235/51
f 203/236/51 202/237/50 67/238/25 146/239/52
f 178/240/24 177/241/23 204/242/53 205/243/54
f 67/187/25 178/186/24 146/244/52
f 205/243/54 204/242/53 206/245/55 207/246/56
f 207/247/56 206/248/55 208/249/57 209/250/58
f 209/250/58 208/249/57 210/251/59 211/252/60
f 211/252/60 210/251/59 181/253/28 180/254/27
f 212/255/61 182/191/29 161/165/5 160/164/4
f 179/188/26 183/192/30 180/189/27
f 182/191/29 212/255/61 183/192/30
f 213/256/62 214/257/63 186/195/33 185/194/32
f 188/197/35 187/196/34 215/258/64 216/259/65
f 184/193/31 188/260/35 185/194/32
f 216/259/65 215/258/64 217/261/66 218/262/67
f 218/262/67 217/261/66 219/263/68 220/264/69
f 220/265/69 219/266/68 191/201/38 190/200/37
f 221/267/70 189/268/36 222/269/71 223/270/72
f 189/199/36 221/271/70 190/200/37
f 223/270/72 222/269/71 224/272/73 225/273/74
f 225/273/74 224/272/73 226/274/75 227/275/76
f 227/275/76 226/274/75 228/276/77 229/277/78
f 229/278/78 228/279/77 214/257/63 213/256/62
