# Blender v2.78 (sub 0) OBJ File: ''
# www.blender.org
mtllib Kardan_adam_2D.mtl
o Curve_Curve.4522
v -0.040776 0.015000 -0.150906
v 0.053957 0.015000 -0.136042
v 0.035477 0.015000 -0.150974
v -0.056796 0.015000 -0.130980
v 0.055130 0.015000 -0.092509
v -0.057876 0.015000 -0.093464
v -0.073932 0.015000 -0.091330
v 0.067233 0.015000 -0.091442
v 0.070533 0.015000 -0.083331
v -0.073730 0.015000 -0.078648
v 0.065293 0.015000 -0.078368
v 0.053169 0.015000 -0.077296
v -0.055663 0.015000 -0.078028
v -0.062247 0.015000 -0.078028
v -0.061912 0.015000 -0.078028
v -0.061527 0.015000 -0.078028
v -0.061028 0.015000 -0.078028
v -0.060438 0.015000 -0.078028
v -0.059779 0.015000 -0.078028
v -0.059074 0.015000 -0.078028
v -0.058346 0.015000 -0.078028
v -0.057618 0.015000 -0.078028
v -0.056913 0.015000 -0.078028
v -0.056254 0.015000 -0.078028
v -0.071080 0.015000 -0.058001
v 0.068949 0.015000 -0.052382
v -0.071984 0.015000 -0.022883
v 0.066771 0.015000 -0.018834
v 0.052824 0.015000 0.001109
v -0.059023 0.015000 -0.001800
v -0.064462 0.015000 0.006755
v 0.077887 0.015000 0.020460
v -0.083404 0.015000 0.025586
v -0.095849 0.015000 0.051717
v 0.095411 0.015000 0.064664
v -0.096340 0.015000 0.080035
v 0.082993 0.015000 0.108418
v -0.083728 0.015000 0.110070
v -0.058342 0.015000 0.134044
v 0.052536 0.015000 0.135352
v 0.018918 0.015000 0.147405
v -0.015243 0.015000 0.148363
v 0.053957 0.000000 -0.136042
v -0.040776 0.000000 -0.150906
v 0.035477 0.000000 -0.150974
v -0.056796 0.000000 -0.130980
v 0.055130 0.000000 -0.092509
v -0.057876 0.000000 -0.093464
v -0.073932 0.000000 -0.091330
v 0.067233 0.000000 -0.091442
v 0.070533 0.000000 -0.083331
v -0.073730 0.000000 -0.078648
v 0.065293 0.000000 -0.078368
v 0.053169 0.000000 -0.077296
v -0.055663 0.000000 -0.078028
v -0.062247 0.000000 -0.078028
v -0.061912 0.000000 -0.078028
v -0.061527 0.000000 -0.078028
v -0.061028 0.000000 -0.078028
v -0.060438 0.000000 -0.078028
v -0.059779 0.000000 -0.078028
v -0.059074 0.000000 -0.078028
v -0.058346 0.000000 -0.078028
v -0.057618 0.000000 -0.078028
v -0.056913 0.000000 -0.078028
v -0.056254 0.000000 -0.078028
v -0.071080 0.000000 -0.058001
v 0.068949 0.000000 -0.052382
v -0.071984 0.000000 -0.022883
v 0.066771 0.000000 -0.018834
v 0.052824 -0.000000 0.001109
v -0.059023 0.000000 -0.001800
v -0.064462 -0.000000 0.006755
v 0.077887 -0.000000 0.020460
v -0.083404 -0.000000 0.025586
v -0.095849 -0.000000 0.051717
v 0.095411 -0.000000 0.064664
v -0.096340 -0.000000 0.080035
v 0.082993 -0.000000 0.108418
v -0.083728 -0.000000 0.110070
v -0.058342 -0.000000 0.134044
v 0.052536 -0.000000 0.135352
v 0.018918 -0.000000 0.147405
v -0.015243 -0.000000 0.148363
v 0.050264 0.000000 -0.147730
v 0.051182 0.015000 -0.145091
v 0.072079 0.015000 -0.086995
v 0.072420 0.000000 -0.086926
v 0.073684 0.015000 -0.039385
v 0.074571 0.000000 -0.049632
v 0.052988 0.015000 -0.077494
v 0.096340 0.015000 0.053287
v 0.056203 -0.000000 0.000141
v 0.053424 0.015000 0.000686
v 0.072448 0.015000 0.122282
v 0.095228 -0.000000 0.095294
v -0.032399 0.015000 0.150974
v 0.009585 -0.000000 0.150228
v -0.094037 0.015000 0.096811
v -0.086723 -0.000000 0.112391
v -0.093729 0.015000 0.039935
v -0.096284 -0.000000 0.051969
v -0.059263 0.015000 -0.000544
v -0.062324 -0.000000 0.001060
v -0.075523 0.015000 -0.040929
v -0.073865 0.015000 -0.077936
v -0.067292 0.000000 -0.076058
v -0.059726 0.015000 -0.094951
v -0.061389 0.000000 -0.095692
v -0.054660 0.015000 -0.146895
v -0.055306 0.000000 -0.143458
vt 0.1424 0.6537
vt 0.3476 0.6221
vt 0.3076 0.6537
vt 0.1077 0.6116
vt 0.3500 0.5301
vt 0.1053 0.5323
vt 0.0705 0.5278
vt 0.3762 0.5278
vt 0.3833 0.5106
vt 0.0709 0.5010
vt 0.3720 0.5002
vt 0.3457 0.4979
vt 0.1101 0.4997
vt 0.0958 0.4997
vt 0.0000 0.0000
vt 0.0000 0.0000
vt 0.0000 0.0000
vt 0.0000 0.0000
vt 0.0000 0.0000
vt 0.0000 0.0000
vt 0.0000 0.0000
vt 0.0000 0.0000
vt 0.0000 0.0000
vt 0.0000 0.0000
vt 0.0000 0.0000
vt 0.0000 0.0000
vt 0.0766 0.4574
vt 0.3799 0.4452
vt 0.0746 0.3832
vt 0.3751 0.3743
vt 0.3448 0.3322
vt 0.1026 0.3386
vt 0.0908 0.3205
vt 0.3991 0.2913
vt 0.0498 0.2807
vt 0.0228 0.2255
vt 0.4369 0.1978
vt 0.0217 0.1657
vt 0.4100 0.1054
vt 0.0489 0.1022
vt 0.1038 0.0515
vt 0.3439 0.0485
vt 0.2711 0.0231
vt 0.1971 0.0211
vt 0.5696 0.6221
vt 0.7747 0.6537
vt 0.6096 0.6537
vt 0.8095 0.6116
vt 0.5672 0.5301
vt 0.8119 0.5323
vt 0.8467 0.5278
vt 0.5410 0.5278
vt 0.5338 0.5106
vt 0.8462 0.5010
vt 0.5452 0.5002
vt 0.5714 0.4979
vt 0.8071 0.4997
vt 0.8214 0.4997
vt 0.0000 0.0000
vt 0.0000 0.0000
vt 0.0000 0.0000
vt 0.0000 0.0000
vt 0.0000 0.0000
vt 0.0000 0.0000
vt 0.0000 0.0000
vt 0.0000 0.0000
vt 0.0000 0.0000
vt 0.0000 0.0000
vt 0.0000 0.0000
vt 0.0000 0.0000
vt 0.8405 0.4574
vt 0.5373 0.4452
vt 0.8426 0.3832
vt 0.5421 0.3743
vt 0.5723 0.3322
vt 0.8145 0.3386
vt 0.8263 0.3205
vt 0.5181 0.2913
vt 0.8674 0.2807
vt 0.8944 0.2255
vt 0.4802 0.1978
vt 0.8955 0.1657
vt 0.5072 0.1054
vt 0.8683 0.1022
vt 0.8133 0.0515
vt 0.5732 0.0485
vt 0.6461 0.0231
vt 0.7200 0.0211
vt 0.4854 0.8314
vt 0.4559 0.8247
vt 0.4558 0.6959
vt 0.4854 0.6964
vt 0.9686 0.7845
vt 0.9388 0.7633
vt 0.9783 0.6934
vt 0.9581 0.9789
vt 0.9477 0.8376
vt 0.9783 0.8389
vt 0.4125 0.8502
vt 0.3850 0.7806
vt 0.4125 0.6959
vt 0.2758 0.9257
vt 0.2534 0.8397
vt 0.2758 0.6959
vt 0.9729 0.1374
vt 0.9404 0.1050
vt 0.9535 0.0211
vt 0.9755 0.2575
vt 0.9458 0.2329
vt 0.9679 0.3420
vt 0.9388 0.3394
vt 0.9742 0.4278
vt 0.9755 0.5060
vt 0.9438 0.5025
vt 0.9724 0.5415
vt 0.9431 0.5438
vt 0.2100 0.9210
vt 0.1801 0.9191
vt 0.2100 0.6974
vt 0.5287 0.7053
vt 0.5292 0.7048
vt 0.5745 0.6959
vt 0.5745 0.7704
vt 0.9734 0.6511
vt 0.9436 0.6445
vt 0.0217 0.7772
vt 0.0584 0.6959
vt 0.0584 0.9133
vt 0.3191 0.8396
vt 0.3417 0.6959
vt 0.3417 0.9110
vt 0.1017 0.8326
vt 0.1365 0.6959
vt 0.1365 0.9146
vt 0.1798 0.6959
vn 0.0000 1.0000 0.0000
vn 0.0010 1.0000 -0.0000
vn -0.0010 1.0000 -0.0000
vn -0.0001 1.0000 -0.0010
vn -0.0000 0.0000 -1.0000
vn 0.0000 0.0000 1.0000
vn 0.0000 -1.0000 -0.0000
vn 0.5339 0.0967 -0.8400
vn 0.6235 0.1039 -0.7749
vn 0.9106 0.4095 -0.0563
vn 0.9100 0.4110 -0.0550
vn 0.9861 0.1107 0.1239
vn 0.9316 0.3590 -0.0564
vn 0.7443 0.6628 0.0821
vn 0.7848 -0.5682 -0.2476
vn 0.9934 -0.0237 -0.1124
vn 0.9870 0.0793 -0.1398
vn 0.5692 -0.3272 0.7543
vn 0.8980 0.3024 0.3195
vn -0.2560 -0.5447 0.7986
vn 0.1960 0.3274 0.9243
vn -0.9513 -0.0805 0.2977
vn -0.7529 0.1468 0.6416
vn -0.9014 -0.1301 -0.4131
vn -0.9879 -0.0211 -0.1535
vn -0.9754 0.1864 -0.1180
vn -0.9729 0.0272 -0.2298
vn -0.8750 -0.4779 0.0770
vn -0.9171 -0.3175 -0.2411
vn -0.8884 -0.4390 -0.1342
vn -0.9160 0.0953 -0.3897
vn -0.9479 -0.0187 -0.3179
vn -0.6229 -0.0957 -0.7764
vn -0.7364 -0.0867 -0.6709
usemtl None
s off
f 1/1/1 2/2/1 3/3/1
f 4/4/1 2/2/1 1/1/1
f 4/4/1 5/5/1 2/2/1
f 6/6/1 5/5/1 4/4/1
f 7/7/2 5/5/3 6/6/4
f 7/7/1 8/8/1 5/5/1
f 7/7/1 9/9/1 8/8/1
f 10/10/1 9/9/1 7/7/1
f 10/10/1 11/11/1 9/9/1
f 10/10/1 12/12/1 11/11/1
f 13/13/1 12/12/1 10/10/1
f 14/14/1 13/13/1 10/10/1
f 15/15/5 13/16/5 14/17/5
f 16/18/6 13/16/6 15/15/6
f 17/19/5 13/16/5 16/18/5
f 18/20/5 13/16/5 17/19/5
f 19/21/6 13/16/6 18/20/6
f 20/22/5 13/16/5 19/21/5
f 21/23/6 13/16/6 20/22/6
f 22/24/5 13/16/5 21/23/5
f 23/25/6 13/16/6 22/24/6
f 24/26/5 13/16/5 23/25/5
f 25/27/1 12/12/1 13/13/1
f 25/27/1 26/28/1 12/12/1
f 27/29/1 26/28/1 25/27/1
f 27/29/1 28/30/1 26/28/1
f 27/29/1 29/31/1 28/30/1
f 30/32/1 29/31/1 27/29/1
f 31/33/1 29/31/1 30/32/1
f 31/33/1 32/34/1 29/31/1
f 33/35/1 32/34/1 31/33/1
f 34/36/1 32/34/1 33/35/1
f 34/36/1 35/37/1 32/34/1
f 36/38/1 35/37/1 34/36/1
f 36/38/1 37/39/1 35/37/1
f 38/40/1 37/39/1 36/38/1
f 39/41/1 37/39/1 38/40/1
f 39/41/1 40/42/1 37/39/1
f 39/41/1 41/43/1 40/42/1
f 42/44/1 41/43/1 39/41/1
f 43/45/7 44/46/7 45/47/7
f 43/45/7 46/48/7 44/46/7
f 47/49/7 46/48/7 43/45/7
f 47/49/7 48/50/7 46/48/7
f 47/49/7 49/51/7 48/50/7
f 50/52/7 49/51/7 47/49/7
f 51/53/7 49/51/7 50/52/7
f 51/53/7 52/54/7 49/51/7
f 53/55/7 52/54/7 51/53/7
f 54/56/7 52/54/7 53/55/7
f 54/56/7 55/57/7 52/54/7
f 55/57/7 56/58/7 52/54/7
f 55/59/5 57/60/5 56/61/5
f 55/59/6 58/62/6 57/60/6
f 55/59/6 59/63/6 58/62/6
f 55/59/5 60/64/5 59/63/5
f 55/59/6 61/65/6 60/64/6
f 55/59/5 62/66/5 61/65/5
f 55/59/6 63/67/6 62/66/6
f 55/59/6 64/68/6 63/67/6
f 55/59/6 65/69/6 64/68/6
f 55/59/6 66/70/6 65/69/6
f 54/56/7 67/71/7 55/57/7
f 68/72/7 67/71/7 54/56/7
f 68/72/7 69/73/7 67/71/7
f 70/74/7 69/73/7 68/72/7
f 71/75/7 69/73/7 70/74/7
f 71/75/7 72/76/7 69/73/7
f 71/75/7 73/77/7 72/76/7
f 74/78/7 73/77/7 71/75/7
f 74/78/7 75/79/7 73/77/7
f 74/78/7 76/80/7 75/79/7
f 77/81/7 76/80/7 74/78/7
f 77/81/7 78/82/7 76/80/7
f 79/83/7 78/82/7 77/81/7
f 79/83/7 80/84/7 78/82/7
f 79/83/7 81/85/7 80/84/7
f 82/86/7 81/85/7 79/83/7
f 83/87/7 81/85/7 82/86/7
f 83/87/7 84/88/7 81/85/7
s 1
f 85/89/8 86/90/9 87/91/10 88/92/11
f 89/93/12 90/94/13 91/95/14
f 92/96/15 93/97/16 94/98/17
f 95/99/18 96/100/19 92/101/15
f 97/102/20 98/103/21 95/104/18
f 99/105/22 100/106/23 97/107/20
f 101/108/24 102/109/25 99/105/22
f 103/110/26 104/111/27 101/108/24
f 105/112/28 104/111/27 103/110/26
f 106/113/29 107/114/30 105/112/28
f 108/115/31 109/116/32 106/113/29
f 86/117/9 85/118/8 110/119/33
f 88/120/11 87/121/10 91/122/14 90/123/13
f 90/94/13 89/93/12 94/98/17 93/97/16
f 109/116/32 108/115/31 110/124/33 111/125/34
f 92/126/15 96/127/19 93/128/16
f 95/129/18 98/130/21 96/131/19
f 97/132/20 100/133/23 98/134/21
f 99/105/22 102/109/25 100/106/23
f 101/108/24 104/111/27 102/109/25
f 105/112/28 107/114/30 104/111/27
f 106/113/29 109/116/32 107/114/30
f 110/119/33 85/118/8 111/135/34
