# Blender v2.78 (sub 0) OBJ File: ''
# www.blender.org
mtllib Karpuz_dilimi.mtl
o Curve_Curve.2023
v 0.013249 0.015000 -0.108447
v 0.021380 0.015000 -0.103018
v 0.015543 0.015000 -0.109213
v 0.007221 0.015000 -0.105528
v 0.004390 0.015000 -0.103758
v -0.002211 0.015000 -0.098290
v -0.026099 0.015000 -0.075543
v 0.093514 0.015000 -0.021342
v 0.145624 0.015000 0.038428
v 0.149912 0.015000 0.043741
v -0.137737 0.015000 0.056715
v 0.144493 0.015000 0.052436
v 0.141640 0.015000 0.056438
v 0.138928 0.015000 0.059518
v -0.128337 0.015000 0.064562
v 0.135302 0.015000 0.062704
v 0.123675 0.015000 0.071411
v -0.120658 0.015000 0.070297
v -0.112644 0.015000 0.075711
v 0.109538 0.015000 0.080509
v -0.104332 0.015000 0.080784
v -0.091425 0.015000 0.087752
v 0.094971 0.015000 0.088355
v -0.077966 0.015000 0.093765
v 0.083677 0.015000 0.093413
v 0.072139 0.015000 0.097857
v -0.068821 0.015000 0.097283
v -0.059558 0.015000 0.100365
v 0.056250 0.015000 0.102685
v -0.045947 0.015000 0.104084
v 0.040817 0.015000 0.106123
v -0.030685 0.015000 0.106951
v 0.027044 0.015000 0.108082
v -0.016386 0.015000 0.108580
v 0.012756 0.015000 0.109141
v -0.001809 0.015000 0.109307
v 0.021380 0.000000 -0.103018
v 0.013249 0.000000 -0.108447
v 0.015543 0.000000 -0.109213
v 0.007221 0.000000 -0.105528
v 0.004390 0.000000 -0.103758
v -0.002211 0.000000 -0.098290
v -0.026099 0.000000 -0.075543
v 0.093514 0.000000 -0.021342
v 0.145624 -0.000000 0.038428
v -0.150107 -0.000000 0.044863
v 0.149912 -0.000000 0.043741
v -0.137737 -0.000000 0.056715
v 0.144493 -0.000000 0.052436
v 0.141640 -0.000000 0.056438
v 0.138928 -0.000000 0.059518
v -0.128337 -0.000000 0.064562
v 0.135302 -0.000000 0.062704
v 0.123675 -0.000000 0.071411
v -0.120658 -0.000000 0.070297
v -0.112644 -0.000000 0.075711
v 0.109538 -0.000000 0.080509
v -0.104332 -0.000000 0.080784
v -0.091425 -0.000000 0.087752
v 0.094971 -0.000000 0.088355
v -0.077966 -0.000000 0.093765
v 0.083677 -0.000000 0.093413
v 0.072139 -0.000000 0.097857
v -0.068821 -0.000000 0.097283
v -0.059558 -0.000000 0.100365
v 0.056250 -0.000000 0.102685
v -0.045947 -0.000000 0.104084
v 0.040817 -0.000000 0.106123
v -0.030685 -0.000000 0.106951
v 0.027044 -0.000000 0.108082
v -0.016386 -0.000000 0.108580
v 0.012756 -0.000000 0.109141
v -0.001809 -0.000000 0.109307
v 0.150020 -0.000000 0.043554
v 0.150107 0.015000 0.043394
v 0.140660 0.015000 0.058048
v 0.140523 -0.000000 0.058213
v 0.015759 0.000000 -0.109453
v 0.015573 0.015000 -0.109395
v -0.000808 0.015000 0.109433
v 0.004497 -0.000000 0.109453
v 0.032212 0.015000 0.107676
v -0.030329 0.015000 0.107129
v -0.024865 -0.000000 0.107846
v -0.062716 0.015000 0.099662
v -0.061004 -0.000000 0.100382
v 0.001874 0.015000 -0.102461
v -0.150107 0.015000 0.044863
v 0.110634 0.015000 0.080353
v 0.108423 -0.000000 0.081657
v 0.069609 0.015000 0.099014
v 0.067252 -0.000000 0.099782
v 0.033427 -0.000000 0.107419
v -0.099066 0.015000 0.084046
v -0.101509 -0.000000 0.082702
v -0.130459 0.015000 0.063203
v -0.132107 -0.000000 0.061837
v 0.002032 0.000000 -0.102591
vt 0.9713 0.0248
vt 0.9507 0.0204
vt 0.9691 0.0203
vt 0.9757 0.0377
vt 0.9771 0.0444
vt 0.9784 0.0618
vt 0.9784 0.1288
vt 0.7156 0.0287
vt 0.5446 0.0358
vt 0.9748 0.4801
vt 0.5299 0.0369
vt 0.9378 0.4785
vt 0.5244 0.0571
vt 0.5224 0.0669
vt 0.5216 0.0752
vt 0.9116 0.4756
vt 0.5220 0.0850
vt 0.5257 0.1143
vt 0.8912 0.4724
vt 0.8708 0.4682
vt 0.5325 0.1479
vt 0.8505 0.4630
vt 0.8204 0.4538
vt 0.5419 0.1803
vt 0.7909 0.4424
vt 0.5509 0.2040
vt 0.5611 0.2272
vt 0.7718 0.4339
vt 0.7532 0.4246
vt 0.5772 0.2574
vt 0.7271 0.4098
vt 0.5948 0.2849
vt 0.6999 0.3913
vt 0.6122 0.3079
vt 0.6761 0.3726
vt 0.6318 0.3305
vt 0.6533 0.3521
vt 0.4507 0.4800
vt 0.4713 0.4756
vt 0.4691 0.4801
vt 0.4757 0.4627
vt 0.4771 0.4560
vt 0.4784 0.4386
vt 0.4784 0.3716
vt 0.2156 0.4717
vt 0.0446 0.4646
vt 0.4748 0.0203
vt 0.0299 0.4635
vt 0.4378 0.0219
vt 0.0244 0.4433
vt 0.0224 0.4335
vt 0.0216 0.4252
vt 0.4116 0.0248
vt 0.0220 0.4154
vt 0.0257 0.3861
vt 0.3912 0.0280
vt 0.3708 0.0322
vt 0.0325 0.3525
vt 0.3505 0.0374
vt 0.3204 0.0466
vt 0.0419 0.3201
vt 0.2909 0.0580
vt 0.0509 0.2964
vt 0.0611 0.2732
vt 0.2718 0.0665
vt 0.2532 0.0758
vt 0.0772 0.2430
vt 0.2271 0.0906
vt 0.0948 0.2155
vt 0.1999 0.1091
vt 0.1122 0.1925
vt 0.1761 0.1278
vt 0.1318 0.1699
vt 0.1533 0.1483
vt 0.4446 0.7797
vt 0.3712 0.7801
vt 0.3712 0.7452
vt 0.4445 0.7447
vt 0.2114 0.9345
vt 0.1381 0.5209
vt 0.2114 0.5207
vt 0.2546 0.8512
vt 0.3280 0.8610
vt 0.2547 0.9105
vt 0.2546 0.7948
vt 0.3280 0.8055
vt 0.2546 0.7288
vt 0.3280 0.7325
vt 0.0216 0.5517
vt 0.0949 0.9797
vt 0.0216 0.9797
vt 0.1381 0.9346
vt 0.3712 0.6704
vt 0.4445 0.6653
vt 0.3712 0.5856
vt 0.4445 0.5812
vt 0.3712 0.5207
vt 0.4446 0.5228
vt 0.2546 0.6484
vt 0.3280 0.6428
vt 0.3280 0.9125
vt 0.2546 0.5727
vt 0.3280 0.5685
vt 0.2547 0.5207
vt 0.3280 0.5207
vt 0.0949 0.5513
vt 0.0216 0.5211
vt 0.0949 0.5207
vn 0.0000 1.0000 -0.0000
vn 0.0000 -1.0000 -0.0000
vn 0.9976 -0.0073 -0.0693
vn 0.9970 -0.0067 -0.0771
vn 0.7295 -0.0037 0.6840
vn 0.7272 -0.0038 0.6864
vn 0.1946 0.0071 -0.9809
vn 0.1858 0.0077 -0.9826
vn -0.0165 0.0036 0.9999
vn 0.0136 0.0002 0.9999
vn 0.1404 0.0028 0.9901
vn -0.1575 -0.0021 0.9875
vn -0.1223 -0.0052 0.9925
vn -0.3191 0.0047 0.9477
vn -0.3025 0.0002 0.9531
vn -0.5804 -0.0003 -0.8143
vn -1.0000 0.0031 0.0082
vn -1.0000 0.0032 0.0082
vn 0.5135 -0.0035 0.8581
vn 0.4936 -0.0027 0.8697
vn 0.3270 0.0041 0.9450
vn 0.3076 0.0049 0.9515
vn 0.1511 -0.0011 0.9885
vn -0.4705 -0.0047 0.8824
vn -0.4893 -0.0035 0.8721
vn -0.6175 0.0026 0.7866
vn -0.6289 0.0029 0.7775
vn -0.5783 -0.0003 -0.8158
usemtl None
s off
f 1/1/1 2/2/1 3/3/1
f 4/4/1 2/2/1 1/1/1
f 5/5/1 2/2/1 4/4/1
f 6/6/1 2/2/1 5/5/1
f 7/7/1 2/2/1 6/6/1
f 7/7/1 8/8/1 2/2/1
f 7/7/1 9/9/1 8/8/1
f 88/10/1 9/9/1 7/7/1
f 88/10/1 10/11/1 9/9/1
f 11/12/1 10/11/1 88/10/1
f 11/12/1 12/13/1 10/11/1
f 11/12/1 13/14/1 12/13/1
f 11/12/1 14/15/1 13/14/1
f 15/16/1 14/15/1 11/12/1
f 15/16/1 16/17/1 14/15/1
f 15/16/1 17/18/1 16/17/1
f 18/19/1 17/18/1 15/16/1
f 19/20/1 17/18/1 18/19/1
f 19/20/1 20/21/1 17/18/1
f 21/22/1 20/21/1 19/20/1
f 22/23/1 20/21/1 21/22/1
f 22/23/1 23/24/1 20/21/1
f 24/25/1 23/24/1 22/23/1
f 24/25/1 25/26/1 23/24/1
f 24/25/1 26/27/1 25/26/1
f 27/28/1 26/27/1 24/25/1
f 28/29/1 26/27/1 27/28/1
f 28/29/1 29/30/1 26/27/1
f 30/31/1 29/30/1 28/29/1
f 30/31/1 31/32/1 29/30/1
f 32/33/1 31/32/1 30/31/1
f 32/33/1 33/34/1 31/32/1
f 34/35/1 33/34/1 32/33/1
f 34/35/1 35/36/1 33/34/1
f 36/37/1 35/36/1 34/35/1
f 37/38/2 38/39/2 39/40/2
f 37/38/2 40/41/2 38/39/2
f 37/38/2 41/42/2 40/41/2
f 37/38/2 42/43/2 41/42/2
f 37/38/2 43/44/2 42/43/2
f 44/45/2 43/44/2 37/38/2
f 45/46/2 43/44/2 44/45/2
f 45/46/2 46/47/2 43/44/2
f 47/48/2 46/47/2 45/46/2
f 47/48/2 48/49/2 46/47/2
f 49/50/2 48/49/2 47/48/2
f 50/51/2 48/49/2 49/50/2
f 51/52/2 48/49/2 50/51/2
f 51/52/2 52/53/2 48/49/2
f 53/54/2 52/53/2 51/52/2
f 54/55/2 52/53/2 53/54/2
f 54/55/2 55/56/2 52/53/2
f 54/55/2 56/57/2 55/56/2
f 57/58/2 56/57/2 54/55/2
f 57/58/2 58/59/2 56/57/2
f 57/58/2 59/60/2 58/59/2
f 60/61/2 59/60/2 57/58/2
f 60/61/2 61/62/2 59/60/2
f 62/63/2 61/62/2 60/61/2
f 63/64/2 61/62/2 62/63/2
f 63/64/2 64/65/2 61/62/2
f 63/64/2 65/66/2 64/65/2
f 66/67/2 65/66/2 63/64/2
f 66/67/2 67/68/2 65/66/2
f 68/69/2 67/68/2 66/67/2
f 68/69/2 69/70/2 67/68/2
f 70/71/2 69/70/2 68/69/2
f 70/71/2 71/72/2 69/70/2
f 72/73/2 71/72/2 70/71/2
f 72/73/2 73/74/2 71/72/2
s 1
f 74/75/3 75/76/4 76/77/5 77/78/6
f 75/79/4 78/80/7 79/81/8
f 80/82/9 81/83/10 82/84/11
f 83/85/12 84/86/13 80/82/9
f 85/87/14 86/88/15 83/85/12
f 87/89/16 46/90/17 88/91/18
f 75/79/4 74/92/3 78/80/7
f 77/78/6 76/77/5 89/93/19 90/94/20
f 90/94/20 89/93/19 91/95/21 92/96/22
f 92/96/22 91/95/21 82/97/11 93/98/23
f 86/88/15 85/87/14 94/99/24 95/100/25
f 82/84/11 81/83/10 93/101/23
f 80/82/9 84/86/13 81/83/10
f 83/85/12 86/88/15 84/86/13
f 95/100/25 94/99/24 96/102/26 97/103/27
f 97/103/27 96/102/26 88/104/18 46/105/17
f 98/106/28 87/89/16 79/107/8 78/108/7
f 87/89/16 98/106/28 46/90/17
