# Blender v2.78 (sub 0) OBJ File: ''
# www.blender.org
mtllib Kirmizi_lastik.mtl
o Kirmizi_lastik:Mesh
v -0.012938 0.137270 0.048696
v -0.035548 0.137270 0.035698
v -0.065213 0.147131 0.065483
v -0.023729 0.147131 0.089317
v 0.013140 0.137270 0.048636
v 0.024104 0.147131 0.089220
v 0.035698 0.137270 0.035548
v 0.065483 0.147131 0.065213
v 0.048696 0.137270 0.012938
v 0.089317 0.147131 0.023729
v 0.048636 0.137270 -0.013140
v 0.089220 0.147131 -0.024104
v 0.035548 0.137270 -0.035698
v 0.065213 0.147131 -0.065483
v 0.012938 0.137270 -0.048696
v 0.023729 0.147131 -0.089317
v -0.013140 0.137270 -0.048636
v -0.024104 0.147131 -0.089220
v -0.035698 0.137270 -0.035548
v -0.065483 0.147131 -0.065213
v -0.048696 0.137270 -0.012938
v -0.089317 0.147131 -0.023736
v -0.048636 0.137270 0.013140
v -0.089220 0.147131 0.024104
v -0.091674 0.137270 0.092056
v -0.033365 0.137270 0.125563
v 0.033890 0.137270 0.125421
v 0.092056 0.137270 0.091674
v 0.125563 0.137270 0.033365
v 0.125421 0.137270 -0.033890
v 0.091674 0.137270 -0.092056
v 0.033365 0.137270 -0.125563
v -0.033890 0.137270 -0.125421
v -0.092056 0.137270 -0.091674
v -0.125563 0.137270 -0.033364
v -0.125421 0.137270 0.033890
v -0.110675 0.110345 0.111140
v -0.040276 0.110345 0.151581
v 0.040914 0.110345 0.151416
v 0.111140 0.110345 0.110675
v 0.151581 0.110345 0.040276
v 0.151416 0.110345 -0.040914
v 0.110675 0.110345 -0.111140
v 0.040276 0.110345 -0.151589
v -0.040914 0.110345 -0.151416
v -0.111140 0.110345 -0.110675
v -0.151581 0.110345 -0.040276
v -0.151416 0.110345 0.040914
v -0.117631 0.073565 0.118119
v -0.042805 0.073565 0.161112
v 0.043480 0.073565 0.160932
v 0.118119 0.073565 0.117624
v 0.161112 0.073566 0.042805
v 0.160932 0.073566 -0.043480
v 0.117631 0.073566 -0.118119
v 0.042805 0.073566 -0.161112
v -0.043480 0.073566 -0.160932
v -0.118119 0.073566 -0.117631
v -0.161112 0.073566 -0.042805
v -0.160932 0.073566 0.043480
v -0.110675 0.036779 0.111140
v -0.040276 0.036779 0.151581
v 0.040914 0.036779 0.151416
v 0.111140 0.036779 0.110675
v 0.151581 0.036779 0.040276
v 0.151416 0.036779 -0.040914
v 0.110675 0.036779 -0.111140
v 0.040276 0.036779 -0.151589
v -0.040914 0.036779 -0.151416
v -0.111140 0.036779 -0.110675
v -0.151581 0.036779 -0.040276
v -0.151416 0.036779 0.040914
v -0.091674 0.009853 0.092056
v -0.033365 0.009853 0.125563
v 0.033890 0.009853 0.125421
v 0.092056 0.009853 0.091674
v 0.125563 0.009853 0.033365
v 0.125421 0.009853 -0.033890
v 0.091674 0.009853 -0.092056
v 0.033365 0.009853 -0.125563
v -0.033890 0.009853 -0.125421
v -0.092056 0.009853 -0.091674
v -0.125563 0.009853 -0.033365
v -0.125421 0.009853 0.033890
v -0.065213 -0.000000 0.065483
v -0.023729 -0.000000 0.089317
v 0.024104 -0.000000 0.089220
v 0.065483 -0.000000 0.065213
v 0.089317 -0.000000 0.023729
v 0.089220 0.000000 -0.024104
v 0.065213 0.000000 -0.065483
v 0.023729 0.000000 -0.089317
v -0.024104 0.000000 -0.089220
v -0.065483 0.000000 -0.065213
v -0.089317 0.000000 -0.023736
v -0.089220 -0.000000 0.024104
v -0.035548 0.009853 0.035698
v -0.012938 0.009853 0.048696
v 0.013140 0.009853 0.048636
v 0.035698 0.009853 0.035548
v 0.048696 0.009853 0.012938
v 0.048636 0.009853 -0.013140
v 0.035548 0.009853 -0.035698
v 0.012938 0.009853 -0.048696
v -0.013140 0.009853 -0.048636
v -0.035698 0.009853 -0.035548
v -0.048696 0.009853 -0.012938
v -0.048636 0.009853 0.013140
v 0.041619 0.137270 0.011061
v 0.041567 0.137270 -0.011234
v 0.036666 0.121736 -0.009906
v 0.036704 0.121736 0.009756
v 0.030385 0.137270 -0.030513
v 0.026798 0.121736 -0.026911
v 0.011054 0.137270 -0.041619
v 0.009756 0.121736 -0.036704
v -0.011234 0.137270 -0.041574
v -0.009906 0.121736 -0.036666
v -0.030513 0.137270 -0.030385
v -0.026911 0.121736 -0.026798
v -0.041619 0.137270 -0.011061
v -0.036704 0.121736 -0.009756
v -0.041567 0.137270 0.011234
v -0.036666 0.121736 0.009906
v -0.030385 0.137270 0.030513
v -0.026798 0.121736 0.026911
v -0.011054 0.137270 0.041619
v -0.009756 0.121736 0.036704
v 0.011234 0.137270 0.041574
v 0.009906 0.121736 0.036666
v 0.030513 0.137270 0.030385
v 0.026911 0.121736 0.026798
v 0.041619 0.009853 0.011061
v 0.041567 0.009853 -0.011234
v 0.030385 0.009853 -0.030513
v 0.011054 0.009853 -0.041619
v -0.011234 0.009853 -0.041574
v -0.030513 0.009853 -0.030385
v -0.041619 0.009853 -0.011061
v -0.041567 0.009853 0.011234
v -0.030385 0.009853 0.030513
v -0.011054 0.009853 0.041619
v 0.011234 0.009853 0.041574
v 0.030513 0.009853 0.030385
v 0.009906 0.025395 0.036666
v 0.026911 0.025395 0.026798
v -0.009756 0.025395 0.036704
v -0.026798 0.025395 0.026911
v -0.036666 0.025395 0.009906
v -0.036704 0.025395 -0.009756
v -0.026911 0.025395 -0.026798
v -0.009906 0.025395 -0.036666
v 0.009756 0.025395 -0.036704
v 0.026798 0.025395 -0.026911
v 0.036666 0.025395 -0.009906
v 0.036704 0.025395 0.009756
v 0.021958 0.073566 0.021868
v 0.029950 0.073566 0.007955
v 0.008082 0.073566 0.029913
v -0.007955 0.073566 0.029950
v -0.021868 0.073566 0.021958
v -0.029912 0.073566 0.008082
v -0.029950 0.073566 -0.007955
v -0.021958 0.073566 -0.021868
v -0.008082 0.073566 -0.029912
v 0.007955 0.073566 -0.029950
v 0.021868 0.073566 -0.021958
v 0.029912 0.073566 -0.008082
vt 0.0209 0.8100
vt 0.0233 0.8017
vt 0.0335 0.8047
vt 0.0310 0.8163
vt 0.0173 0.8166
vt 0.0254 0.8275
vt 0.0223 0.7115
vt 0.0184 0.7044
vt 0.0280 0.6951
vt 0.0335 0.7066
vt 0.0241 0.7200
vt 0.0358 0.7177
vt 0.0245 0.7294
vt 0.0360 0.7284
vt 0.0245 0.7396
vt 0.0348 0.7391
vt 0.0247 0.7500
vt 0.0350 0.7497
vt 0.0248 0.7604
vt 0.0349 0.7605
vt 0.0249 0.7708
vt 0.0347 0.7710
vt 0.0248 0.7814
vt 0.0348 0.7821
vt 0.0246 0.7919
vt 0.0346 0.7932
vt 0.0419 0.8059
vt 0.0400 0.8199
vt 0.0351 0.8357
vt 0.0373 0.6887
vt 0.0420 0.7040
vt 0.0437 0.7166
vt 0.0438 0.7279
vt 0.0429 0.7390
vt 0.0432 0.7495
vt 0.0432 0.7604
vt 0.0429 0.7712
vt 0.0432 0.7824
vt 0.0429 0.7938
vt 0.0492 0.8063
vt 0.0485 0.8219
vt 0.0462 0.8411
vt 0.0469 0.6850
vt 0.0495 0.7027
vt 0.0502 0.7161
vt 0.0500 0.7275
vt 0.0493 0.7388
vt 0.0495 0.7497
vt 0.0494 0.7603
vt 0.0492 0.7713
vt 0.0496 0.7824
vt 0.0496 0.7939
vt 0.0560 0.8064
vt 0.0569 0.8221
vt 0.0580 0.8427
vt 0.0568 0.6838
vt 0.0565 0.7024
vt 0.0562 0.7159
vt 0.0557 0.7273
vt 0.0552 0.7387
vt 0.0549 0.7499
vt 0.0545 0.7604
vt 0.0547 0.7712
vt 0.0550 0.7822
vt 0.0556 0.7938
vt 0.0628 0.8060
vt 0.0652 0.8208
vt 0.0698 0.8401
vt 0.0668 0.6853
vt 0.0635 0.7029
vt 0.0622 0.7162
vt 0.0615 0.7271
vt 0.0609 0.7388
vt 0.0603 0.7500
vt 0.0598 0.7606
vt 0.0600 0.7711
vt 0.0605 0.7821
vt 0.0615 0.7935
vt 0.0701 0.8046
vt 0.0737 0.8184
vt 0.0805 0.8336
vt 0.0764 0.6894
vt 0.0710 0.7045
vt 0.0688 0.7169
vt 0.0682 0.7277
vt 0.0670 0.7390
vt 0.0666 0.7499
vt 0.0663 0.7607
vt 0.0662 0.7710
vt 0.0670 0.7819
vt 0.0682 0.7928
vt 0.0785 0.8024
vt 0.0826 0.8144
vt 0.0895 0.8247
vt 0.0855 0.6961
vt 0.0795 0.7074
vt 0.0769 0.7184
vt 0.0764 0.7290
vt 0.0750 0.7396
vt 0.0744 0.7501
vt 0.0746 0.7605
vt 0.0744 0.7708
vt 0.0750 0.7811
vt 0.0765 0.7917
vt 0.0882 0.7986
vt 0.0916 0.8072
vt 0.0959 0.8129
vt 0.0947 0.7059
vt 0.0905 0.7129
vt 0.0882 0.7215
vt 0.0865 0.7309
vt 0.0853 0.7412
vt 0.0843 0.7509
vt 0.0841 0.7602
vt 0.0846 0.7701
vt 0.0850 0.7799
vt 0.0862 0.7894
vt 0.1116 0.0886
vt 0.1111 0.0967
vt 0.1045 0.0962
vt 0.1050 0.0887
vt 0.1101 0.1041
vt 0.1035 0.1036
vt 0.1092 0.1112
vt 0.1028 0.1108
vt 0.1090 0.1179
vt 0.1026 0.1179
vt 0.1092 0.1246
vt 0.1029 0.1250
vt 0.1101 0.1316
vt 0.1036 0.1323
vt 0.1111 0.1391
vt 0.1045 0.1395
vt 0.1116 0.1472
vt 0.1051 0.1471
vt 0.1115 0.1556
vt 0.1051 0.1547
vt 0.1100 0.1641
vt 0.1039 0.1623
vt 0.1099 0.0717
vt 0.1115 0.0802
vt 0.1050 0.0811
vt 0.1039 0.0736
vt 0.1145 0.0887
vt 0.1140 0.0971
vt 0.0553 0.0919
vt 0.0567 0.0832
vt 0.0595 0.0838
vt 0.0581 0.0923
vt 0.1131 0.1047
vt 0.0545 0.1006
vt 0.0573 0.1009
vt 0.1122 0.1114
vt 0.0540 0.1092
vt 0.0568 0.1094
vt 0.1120 0.1179
vt 0.0538 0.1179
vt 0.0566 0.1179
vt 0.1122 0.1243
vt 0.0540 0.1265
vt 0.0568 0.1264
vt 0.1131 0.1311
vt 0.0545 0.1351
vt 0.0573 0.1349
vt 0.1141 0.1388
vt 0.0552 0.1438
vt 0.0581 0.1434
vt 0.1145 0.1471
vt 0.0567 0.1526
vt 0.0594 0.1519
vt 0.1143 0.1560
vt 0.0590 0.1615
vt 0.0616 0.1604
vt 0.1125 0.1654
vt 0.0632 0.1702
vt 0.0652 0.1683
vt 0.1124 0.0704
vt 0.1143 0.0799
vt 0.0591 0.0743
vt 0.0632 0.0655
vt 0.0652 0.0675
vt 0.0617 0.0754
vt 0.0704 0.0706
vt 0.0675 0.0778
vt 0.0675 0.1579
vt 0.0703 0.1650
vt 0.0657 0.1503
vt 0.0645 0.1424
vt 0.0639 0.1343
vt 0.0634 0.1261
vt 0.0632 0.1179
vt 0.0634 0.1097
vt 0.0639 0.1015
vt 0.0645 0.0934
vt 0.0657 0.0855
vt 0.0859 0.0829
vt 0.0853 0.0894
vt 0.0865 0.0765
vt 0.0865 0.1593
vt 0.0858 0.1529
vt 0.0852 0.1464
vt 0.0846 0.1396
vt 0.0841 0.1325
vt 0.0837 0.1252
vt 0.0836 0.1179
vt 0.0837 0.1105
vt 0.0841 0.1033
vt 0.0847 0.0962
vn 0.0295 0.9934 -0.1110
vn 0.0810 0.9934 -0.0813
vn -0.0094 0.9999 0.0094
vn -0.0034 0.9999 0.0128
vn -0.0300 0.9934 -0.1108
vn 0.0035 0.9999 0.0128
vn -0.0814 0.9934 -0.0810
vn 0.0094 0.9999 0.0094
vn -0.1110 0.9934 -0.0295
vn 0.0128 0.9999 0.0034
vn -0.1108 0.9934 0.0299
vn 0.0128 0.9999 -0.0035
vn -0.0810 0.9934 0.0813
vn 0.0094 0.9999 -0.0094
vn -0.0295 0.9934 0.1109
vn 0.0034 0.9999 -0.0128
vn 0.0299 0.9934 0.1108
vn -0.0035 0.9999 -0.0128
vn 0.0813 0.9934 0.0810
vn -0.0094 0.9999 -0.0094
vn 0.1110 0.9934 0.0295
vn -0.0129 0.9999 -0.0034
vn 0.1108 0.9934 -0.0299
vn -0.0128 0.9999 0.0035
vn -0.3501 0.8683 0.3515
vn -0.1274 0.8682 0.4795
vn 0.1294 0.8683 0.4789
vn 0.3515 0.8683 0.3501
vn 0.4795 0.8682 0.1274
vn 0.4789 0.8683 -0.1294
vn 0.3501 0.8682 -0.3516
vn 0.1274 0.8683 -0.4795
vn -0.1294 0.8683 -0.4789
vn -0.3515 0.8683 -0.3501
vn -0.4795 0.8683 -0.1274
vn -0.4789 0.8683 0.1294
vn -0.6104 0.5017 0.6130
vn -0.2221 0.5017 0.8360
vn 0.2256 0.5017 0.8351
vn 0.6130 0.5017 0.6104
vn 0.8360 0.5017 0.2222
vn 0.8351 0.5017 -0.2256
vn 0.6104 0.5017 -0.6130
vn 0.2221 0.5017 -0.8360
vn -0.2257 0.5017 -0.8351
vn -0.6130 0.5017 -0.6104
vn -0.8360 0.5017 -0.2221
vn -0.8351 0.5017 0.2256
vn -0.7056 0.0000 0.7086
vn -0.2568 0.0000 0.9665
vn 0.2608 0.0000 0.9654
vn 0.7086 0.0000 0.7056
vn 0.9665 0.0000 0.2568
vn 0.9654 0.0000 -0.2608
vn 0.7056 0.0000 -0.7086
vn 0.2568 0.0000 -0.9665
vn -0.2608 0.0000 -0.9654
vn -0.7086 0.0000 -0.7056
vn -0.9665 0.0000 -0.2568
vn -0.9654 0.0000 0.2608
vn -0.6104 -0.5017 0.6129
vn -0.2221 -0.5017 0.8360
vn 0.2256 -0.5017 0.8351
vn 0.6130 -0.5017 0.6104
vn 0.8360 -0.5017 0.2221
vn 0.8351 -0.5017 -0.2256
vn 0.6104 -0.5017 -0.6129
vn 0.2221 -0.5017 -0.8360
vn -0.2256 -0.5017 -0.8351
vn -0.6129 -0.5017 -0.6104
vn -0.8360 -0.5017 -0.2221
vn -0.8351 -0.5017 0.2256
vn -0.3501 -0.8682 0.3516
vn -0.1274 -0.8683 0.4795
vn 0.1294 -0.8682 0.4790
vn 0.3516 -0.8682 0.3501
vn 0.4795 -0.8683 0.1274
vn 0.4790 -0.8682 -0.1294
vn 0.3501 -0.8683 -0.3515
vn 0.1274 -0.8682 -0.4795
vn -0.1294 -0.8682 -0.4790
vn -0.3516 -0.8682 -0.3501
vn -0.4795 -0.8683 -0.1274
vn -0.4790 -0.8682 0.1294
vn -0.0094 -0.9999 0.0094
vn -0.0034 -0.9999 0.0129
vn 0.0035 -0.9999 0.0128
vn 0.0094 -0.9999 0.0094
vn 0.0129 -0.9999 0.0034
vn 0.0128 -0.9999 -0.0035
vn 0.0094 -0.9999 -0.0094
vn 0.0034 -0.9999 -0.0128
vn -0.0035 -0.9999 -0.0128
vn -0.0094 -0.9999 -0.0093
vn -0.0128 -0.9999 -0.0034
vn -0.0128 -0.9999 0.0035
vn 0.0810 -0.9934 -0.0813
vn 0.0295 -0.9934 -0.1109
vn -0.0300 -0.9934 -0.1108
vn -0.0814 -0.9934 -0.0810
vn -0.1109 -0.9934 -0.0295
vn -0.1108 -0.9934 0.0300
vn -0.0810 -0.9934 0.0814
vn -0.0295 -0.9934 0.1109
vn 0.0300 -0.9934 0.1108
vn 0.0814 -0.9934 0.0810
vn 0.1109 -0.9934 0.0295
vn 0.1108 -0.9934 -0.0300
vn -0.5584 0.8162 -0.1483
vn -0.5577 0.8162 0.1507
vn -0.9399 0.2282 0.2540
vn -0.9410 0.2282 -0.2500
vn -0.4077 0.8162 0.4094
vn -0.6870 0.2282 0.6899
vn -0.1483 0.8162 0.5584
vn -0.2500 0.2282 0.9410
vn 0.1507 0.8162 0.5577
vn 0.2540 0.2282 0.9399
vn 0.4094 0.8162 0.4077
vn 0.6899 0.2282 0.6870
vn 0.5583 0.8162 0.1484
vn 0.9410 0.2282 0.2500
vn 0.5577 0.8162 -0.1507
vn 0.9399 0.2282 -0.2540
vn 0.4077 0.8162 -0.4094
vn 0.6870 0.2282 -0.6899
vn 0.1483 0.8162 -0.5584
vn 0.2500 0.2282 -0.9410
vn -0.1507 0.8162 -0.5578
vn -0.2540 0.2282 -0.9399
vn -0.4094 0.8162 -0.4077
vn -0.6899 0.2282 -0.6870
vn -0.5584 -0.8162 -0.1483
vn -0.5577 -0.8162 0.1507
vn -0.4077 -0.8163 0.4093
vn -0.1484 -0.8162 0.5583
vn 0.1507 -0.8162 0.5577
vn 0.4094 -0.8162 0.4077
vn 0.5583 -0.8163 0.1483
vn 0.5577 -0.8162 -0.1507
vn 0.4077 -0.8162 -0.4094
vn 0.1483 -0.8162 -0.5584
vn -0.1507 -0.8162 -0.5577
vn -0.4094 -0.8162 -0.4077
vn -0.2540 -0.2282 -0.9399
vn -0.6899 -0.2282 -0.6870
vn 0.2500 -0.2282 -0.9410
vn 0.6870 -0.2283 -0.6899
vn 0.9399 -0.2282 -0.2540
vn 0.9410 -0.2282 0.2500
vn 0.6899 -0.2282 0.6870
vn 0.2540 -0.2282 0.9399
vn -0.2500 -0.2282 0.9410
vn -0.6870 -0.2283 0.6899
vn -0.9399 -0.2282 0.2540
vn -0.9410 -0.2282 -0.2500
vn -0.9665 0.0000 -0.2567
vn 0.7057 0.0000 -0.7086
vn 0.9665 0.0000 0.2567
vn 0.7086 0.0000 0.7057
vn -0.2567 0.0000 0.9665
vn -0.7057 0.0000 0.7086
usemtl None
s 1
f 1/1/1 2/2/2 3/3/3 4/4/4
f 5/5/5 1/1/1 4/4/4 6/6/6
f 7/7/7 5/8/5 6/9/6 8/10/8
f 9/11/9 7/7/7 8/10/8 10/12/10
f 11/13/11 9/11/9 10/12/10 12/14/12
f 13/15/13 11/13/11 12/14/12 14/16/14
f 15/17/15 13/15/13 14/16/14 16/18/16
f 17/19/17 15/17/15 16/18/16 18/20/18
f 19/21/19 17/19/17 18/20/18 20/22/20
f 21/23/21 19/21/19 20/22/20 22/24/22
f 23/25/23 21/23/21 22/24/22 24/26/24
f 2/2/2 23/25/23 24/26/24 3/3/3
f 4/4/4 3/3/3 25/27/25 26/28/26
f 6/6/6 4/4/4 26/28/26 27/29/27
f 8/10/8 6/9/6 27/30/27 28/31/28
f 10/12/10 8/10/8 28/31/28 29/32/29
f 12/14/12 10/12/10 29/32/29 30/33/30
f 14/16/14 12/14/12 30/33/30 31/34/31
f 16/18/16 14/16/14 31/34/31 32/35/32
f 18/20/18 16/18/16 32/35/32 33/36/33
f 20/22/20 18/20/18 33/36/33 34/37/34
f 22/24/22 20/22/20 34/37/34 35/38/35
f 24/26/24 22/24/22 35/38/35 36/39/36
f 3/3/3 24/26/24 36/39/36 25/27/25
f 26/28/26 25/27/25 37/40/37 38/41/38
f 27/29/27 26/28/26 38/41/38 39/42/39
f 28/31/28 27/30/27 39/43/39 40/44/40
f 29/32/29 28/31/28 40/44/40 41/45/41
f 30/33/30 29/32/29 41/45/41 42/46/42
f 31/34/31 30/33/30 42/46/42 43/47/43
f 32/35/32 31/34/31 43/47/43 44/48/44
f 33/36/33 32/35/32 44/48/44 45/49/45
f 34/37/34 33/36/33 45/49/45 46/50/46
f 35/38/35 34/37/34 46/50/46 47/51/47
f 36/39/36 35/38/35 47/51/47 48/52/48
f 25/27/25 36/39/36 48/52/48 37/40/37
f 38/41/38 37/40/37 49/53/49 50/54/50
f 39/42/39 38/41/38 50/54/50 51/55/51
f 40/44/40 39/43/39 51/56/51 52/57/52
f 41/45/41 40/44/40 52/57/52 53/58/53
f 42/46/42 41/45/41 53/58/53 54/59/54
f 43/47/43 42/46/42 54/59/54 55/60/55
f 44/48/44 43/47/43 55/60/55 56/61/56
f 45/49/45 44/48/44 56/61/56 57/62/57
f 46/50/46 45/49/45 57/62/57 58/63/58
f 47/51/47 46/50/46 58/63/58 59/64/59
f 48/52/48 47/51/47 59/64/59 60/65/60
f 37/40/37 48/52/48 60/65/60 49/53/49
f 50/54/50 49/53/49 61/66/61 62/67/62
f 51/55/51 50/54/50 62/67/62 63/68/63
f 52/57/52 51/56/51 63/69/63 64/70/64
f 53/58/53 52/57/52 64/70/64 65/71/65
f 54/59/54 53/58/53 65/71/65 66/72/66
f 55/60/55 54/59/54 66/72/66 67/73/67
f 56/61/56 55/60/55 67/73/67 68/74/68
f 57/62/57 56/61/56 68/74/68 69/75/69
f 58/63/58 57/62/57 69/75/69 70/76/70
f 59/64/59 58/63/58 70/76/70 71/77/71
f 60/65/60 59/64/59 71/77/71 72/78/72
f 49/53/49 60/65/60 72/78/72 61/66/61
f 62/67/62 61/66/61 73/79/73 74/80/74
f 63/68/63 62/67/62 74/80/74 75/81/75
f 64/70/64 63/69/63 75/82/75 76/83/76
f 65/71/65 64/70/64 76/83/76 77/84/77
f 66/72/66 65/71/65 77/84/77 78/85/78
f 67/73/67 66/72/66 78/85/78 79/86/79
f 68/74/68 67/73/67 79/86/79 80/87/80
f 69/75/69 68/74/68 80/87/80 81/88/81
f 70/76/70 69/75/69 81/88/81 82/89/82
f 71/77/71 70/76/70 82/89/82 83/90/83
f 72/78/72 71/77/71 83/90/83 84/91/84
f 61/66/61 72/78/72 84/91/84 73/79/73
f 74/80/74 73/79/73 85/92/85 86/93/86
f 75/81/75 74/80/74 86/93/86 87/94/87
f 76/83/76 75/82/75 87/95/87 88/96/88
f 77/84/77 76/83/76 88/96/88 89/97/89
f 78/85/78 77/84/77 89/97/89 90/98/90
f 79/86/79 78/85/78 90/98/90 91/99/91
f 80/87/80 79/86/79 91/99/91 92/100/92
f 81/88/81 80/87/80 92/100/92 93/101/93
f 82/89/82 81/88/81 93/101/93 94/102/94
f 83/90/83 82/89/82 94/102/94 95/103/95
f 84/91/84 83/90/83 95/103/95 96/104/96
f 73/79/73 84/91/84 96/104/96 85/92/85
f 86/93/86 85/92/85 97/105/97 98/106/98
f 87/94/87 86/93/86 98/106/98 99/107/99
f 88/96/88 87/95/87 99/108/99 100/109/100
f 89/97/89 88/96/88 100/109/100 101/110/101
f 90/98/90 89/97/89 101/110/101 102/111/102
f 91/99/91 90/98/90 102/111/102 103/112/103
f 92/100/92 91/99/91 103/112/103 104/113/104
f 93/101/93 92/100/92 104/113/104 105/114/105
f 94/102/94 93/101/93 105/114/105 106/115/106
f 95/103/95 94/102/94 106/115/106 107/116/107
f 96/104/96 95/103/95 107/116/107 108/117/108
f 85/92/85 96/104/96 108/117/108 97/105/97
f 109/118/109 110/119/110 111/120/111 112/121/112
f 110/119/110 113/122/113 114/123/114 111/120/111
f 113/122/113 115/124/115 116/125/116 114/123/114
f 115/124/115 117/126/117 118/127/118 116/125/116
f 117/126/117 119/128/119 120/129/120 118/127/118
f 119/128/119 121/130/121 122/131/122 120/129/120
f 121/130/121 123/132/123 124/133/124 122/131/122
f 123/132/123 125/134/125 126/135/126 124/133/124
f 125/134/125 127/136/127 128/137/128 126/135/126
f 127/136/127 129/138/129 130/139/130 128/137/128
f 129/140/129 131/141/131 132/142/132 130/143/130
f 131/141/131 109/118/109 112/121/112 132/142/132
f 9/144/9 11/145/11 110/119/110 109/118/109
f 102/146/102 101/147/101 133/148/133 134/149/134
f 11/145/11 13/150/13 113/122/113 110/119/110
f 103/151/103 102/146/102 134/149/134 135/152/135
f 13/150/13 15/153/15 115/124/115 113/122/113
f 104/154/104 103/151/103 135/152/135 136/155/136
f 15/153/15 17/156/17 117/126/117 115/124/115
f 105/157/105 104/154/104 136/155/136 137/158/137
f 17/156/17 19/159/19 119/128/119 117/126/117
f 106/160/106 105/157/105 137/158/137 138/161/138
f 19/159/19 21/162/21 121/130/121 119/128/119
f 107/163/107 106/160/106 138/161/138 139/164/139
f 21/162/21 23/165/23 123/132/123 121/130/121
f 108/166/108 107/163/107 139/164/139 140/167/140
f 23/165/23 2/168/2 125/134/125 123/132/123
f 97/169/97 108/166/108 140/167/140 141/170/141
f 2/168/2 1/171/1 127/136/127 125/134/125
f 98/172/98 97/169/97 141/170/141 142/173/142
f 1/171/1 5/174/5 129/138/129 127/136/127
f 99/175/99 98/172/98 142/173/142 143/176/143
f 5/177/5 7/178/7 131/141/131 129/140/129
f 100/179/100 99/180/99 143/181/143 144/182/144
f 7/178/7 9/144/9 109/118/109 131/141/131
f 101/147/101 100/179/100 144/182/144 133/148/133
f 145/183/145 146/184/146 144/182/144 143/181/143
f 147/185/147 145/186/145 143/176/143 142/173/142
f 148/187/148 147/185/147 142/173/142 141/170/141
f 149/188/149 148/187/148 141/170/141 140/167/140
f 150/189/150 149/188/149 140/167/140 139/164/139
f 151/190/151 150/189/150 139/164/139 138/161/138
f 152/191/152 151/190/151 138/161/138 137/158/137
f 153/192/153 152/191/152 137/158/137 136/155/136
f 154/193/154 153/192/153 136/155/136 135/152/135
f 155/194/155 154/193/154 135/152/135 134/149/134
f 156/195/156 155/194/155 134/149/134 133/148/133
f 146/184/146 156/195/156 133/148/133 144/182/144
f 146/184/146 157/196/58 158/197/157 156/195/156
f 157/196/58 132/142/132 112/121/112 158/197/157
f 132/142/132 157/196/58 159/198/57 130/143/130
f 157/196/58 146/184/146 145/183/145 159/198/57
f 130/139/130 159/199/57 160/200/56 128/137/128
f 159/199/57 145/186/145 147/185/147 160/200/56
f 128/137/128 160/200/56 161/201/158 126/135/126
f 160/200/56 147/185/147 148/187/148 161/201/158
f 126/135/126 161/201/158 162/202/54 124/133/124
f 161/201/158 148/187/148 149/188/149 162/202/54
f 124/133/124 162/202/54 163/203/159 122/131/122
f 162/202/54 149/188/149 150/189/150 163/203/159
f 122/131/122 163/203/159 164/204/160 120/129/120
f 163/203/159 150/189/150 151/190/151 164/204/160
f 120/129/120 164/204/160 165/205/51 118/127/118
f 164/204/160 151/190/151 152/191/152 165/205/51
f 118/127/118 165/205/51 166/206/161 116/125/116
f 165/205/51 152/191/152 153/192/153 166/206/161
f 116/125/116 166/206/161 167/207/162 114/123/114
f 166/206/161 153/192/153 154/193/154 167/207/162
f 114/123/114 167/207/162 168/208/60 111/120/111
f 167/207/162 154/193/154 155/194/155 168/208/60
f 111/120/111 168/208/60 158/197/157 112/121/112
f 168/208/60 155/194/155 156/195/156 158/197/157
