# Blender v2.78 (sub 0) OBJ File: ''
# www.blender.org
mtllib Kristal_2.mtl
o Kristal_2:Mesh
v -0.000548 0.004470 -0.008716
v 0.080377 0.194510 -0.001673
v 0.006843 0.004470 0.030131
v 0.076891 0.200901 -0.055963
v 0.031780 0.197403 -0.078983
v -0.015735 0.004470 -0.019558
v -0.031934 0.234926 -0.042518
v -0.056754 0.004470 0.040636
v -0.014178 0.238412 0.014328
v -0.064146 0.004470 0.001789
v -0.010088 0.226350 -0.072627
v -0.043950 0.004470 -0.013259
v -0.041579 0.004470 0.051478
v 0.007447 0.235995 0.029784
v -0.003418 0.004470 0.045180
v 0.061807 0.222945 0.020801
v -0.068190 0.117432 0.044901
v -0.048238 0.004470 -0.006973
v -0.076382 0.115131 0.018580
v -0.046936 0.004470 0.011306
v -0.054350 0.004470 -0.013724
v -0.086887 0.110250 0.012584
v -0.123723 0.088195 0.034803
v -0.086329 0.004470 0.019859
v -0.111882 0.090449 0.064051
v -0.082913 0.004470 -0.003347
v -0.112080 0.100966 0.017081
v -0.071409 0.004470 -0.015711
v -0.080205 0.004470 0.026622
v -0.089548 0.091797 0.072395
v -0.058452 0.004470 0.023670
v -0.071362 0.111691 0.059670
v 0.150366 0.057691 0.003857
v 0.085780 0.004470 0.045354
v 0.084688 0.004470 0.022264
v 0.147438 0.070299 0.032095
v 0.067363 0.004470 0.006019
v 0.138060 0.072740 -0.025798
v 0.089627 0.102999 -0.009715
v 0.019928 0.004470 0.037498
v 0.103269 0.109600 0.024298
v 0.020195 0.004470 0.015908
v 0.034244 0.004470 0.005670
v 0.108429 0.085638 -0.027390
v 0.032710 0.004470 0.052640
v 0.111973 0.103929 0.037580
v 0.059600 0.004470 0.054848
v 0.138480 0.080351 0.042263
v -0.124316 0.004470 -0.011574
v -0.091872 0.080874 -0.036384
v -0.121353 0.004470 0.009435
v -0.094661 0.078875 -0.061438
v -0.136890 0.093970 -0.059265
v -0.146848 0.004470 0.011074
v -0.129777 0.099595 -0.036977
v -0.149810 0.004470 -0.009936
v -0.131532 0.083663 -0.067108
v -0.145698 0.004470 -0.014875
v -0.108338 0.070427 -0.068003
v -0.130405 0.004470 -0.015862
v -0.121109 0.101001 -0.030864
v -0.140759 0.004470 0.015362
v -0.125466 0.004470 0.014374
v -0.099309 0.094807 -0.032259
v 0.047224 0.283290 -0.047132
v -0.106700 0.131388 0.043239
v 0.161128 0.140452 0.002591
v -0.105166 0.107136 -0.066539
v 0.000186 0.003598 0.023728
v 0.076102 0.003598 0.016570
v 0.046761 0.003598 0.001731
v 0.086840 0.003598 0.035093
v 0.000186 0.003598 -0.012527
v 0.076102 0.003598 0.053627
v -0.039904 0.003598 -0.011400
v 0.046761 0.003598 0.062808
v -0.069245 0.003598 -0.003905
v 0.000186 0.003598 0.060774
v -0.079983 0.003598 0.014618
v -0.039904 0.003598 0.052779
v -0.069245 0.003598 0.033152
v 0.107281 0.003598 -0.005148
v 0.123560 0.003598 0.026912
v -0.051954 0.003598 -0.040509
v 0.058811 0.003598 -0.036140
v 0.000186 0.003598 -0.049167
v 0.058811 0.003598 0.078565
v 0.109592 0.003598 0.062564
v -0.097681 0.003598 0.014618
v -0.084247 0.003598 -0.020708
v -0.051954 0.003598 0.076043
v 0.000186 0.003598 0.078983
v -0.090126 0.003598 0.049955
v -0.128951 0.003598 0.005077
v -0.116889 0.003598 -0.001895
v -0.121989 0.003598 -0.006996
v -0.115030 0.003598 0.005077
v -0.128951 0.003598 -0.008855
v -0.116889 0.003598 0.012038
v -0.135922 0.003598 -0.006996
v -0.121989 0.003598 0.017139
v -0.141012 0.003598 -0.001895
v -0.128951 0.003598 0.018999
v -0.142884 0.003598 0.005077
v -0.135922 0.003598 0.017139
v -0.141012 0.003598 0.012038
v -0.112867 0.003598 -0.022800
v -0.101085 0.003598 -0.011017
v -0.145045 0.003598 -0.022800
v -0.128951 0.003598 -0.027111
v -0.101085 0.003598 0.021160
v -0.096774 0.003598 0.005077
v -0.161128 0.003598 0.005077
v -0.156817 0.003598 -0.011017
v -0.128951 0.003598 0.037254
v -0.112867 0.003598 0.032943
v -0.156817 0.003598 0.021160
v -0.145045 0.003598 0.032943
vt 0.8017 0.2084
vt 0.8109 0.1804
vt 0.8093 0.2084
vt 0.8010 0.1766
vt 0.7417 0.2661
vt 0.7384 0.2363
vt 0.7444 0.2346
vt 0.7378 0.2661
vt 0.8121 0.2275
vt 0.8041 0.2572
vt 0.8037 0.2275
vt 0.8105 0.2572
vt 0.7877 0.2240
vt 0.7831 0.2537
vt 0.7822 0.2237
vt 0.7870 0.2537
vt 0.8146 0.2689
vt 0.8234 0.2391
vt 0.8208 0.2689
vt 0.8140 0.2363
vt 0.7283 0.2623
vt 0.7329 0.2326
vt 0.7322 0.2623
vt 0.7296 0.2326
vt 0.8224 0.2667
vt 0.8301 0.2421
vt 0.8287 0.2667
vt 0.8211 0.2421
vt 0.7927 0.2831
vt 0.7882 0.2533
vt 0.7939 0.2496
vt 0.7889 0.2831
vt 0.8336 0.2047
vt 0.8246 0.2309
vt 0.8259 0.2047
vt 0.8323 0.2309
vt 0.8390 0.2310
vt 0.8337 0.2572
vt 0.8348 0.2314
vt 0.8370 0.2572
vt 0.8289 0.2800
vt 0.8224 0.2988
vt 0.8216 0.2772
vt 0.8275 0.2988
vt 0.8294 0.2278
vt 0.8234 0.2575
vt 0.8233 0.2278
vt 0.8273 0.2575
vt 0.8056 0.2655
vt 0.8118 0.2405
vt 0.8109 0.2655
vt 0.8053 0.2405
vt 0.7918 0.2312
vt 0.7958 0.2049
vt 0.7952 0.2312
vt 0.7897 0.2052
vt 0.8185 0.2209
vt 0.8279 0.1941
vt 0.8266 0.2209
vt 0.8187 0.1890
vt 0.7209 0.2452
vt 0.7164 0.2749
vt 0.7176 0.2452
vt 0.7202 0.2749
vt 0.7282 0.2267
vt 0.7345 0.2458
vt 0.7288 0.2445
vt 0.7361 0.2263
vt 0.8136 0.2561
vt 0.8189 0.2359
vt 0.8174 0.2562
vt 0.8130 0.2336
vt 0.8269 0.2354
vt 0.8214 0.2551
vt 0.8203 0.2335
vt 0.8262 0.2551
vt 0.8346 0.2291
vt 0.8373 0.2517
vt 0.8342 0.2530
vt 0.8403 0.2291
vt 0.8278 0.2423
vt 0.8212 0.2644
vt 0.8216 0.2429
vt 0.8262 0.2624
vt 0.8083 0.2513
vt 0.8118 0.2287
vt 0.8112 0.2513
vt 0.8093 0.2287
vt 0.7439 0.2524
vt 0.7498 0.2358
vt 0.7479 0.2555
vt 0.7439 0.2358
vt 0.7471 0.2074
vt 0.7436 0.2223
vt 0.7446 0.2074
vt 0.7465 0.2246
vt 0.7954 0.2423
vt 0.8051 0.2126
vt 0.8037 0.2423
vt 0.7967 0.2126
vt 0.8170 0.2510
vt 0.8084 0.2732
vt 0.8090 0.2522
vt 0.8146 0.2732
vt 0.7544 0.2273
vt 0.7487 0.2549
vt 0.7488 0.2251
vt 0.7525 0.2549
vt 0.7683 0.2577
vt 0.7759 0.2364
vt 0.7739 0.2577
vt 0.7684 0.2344
vt 0.7349 0.2269
vt 0.7375 0.2566
vt 0.7336 0.2566
vt 0.7382 0.2269
vt 0.7060 0.2609
vt 0.7114 0.2317
vt 0.7101 0.2609
vt 0.7052 0.2328
vt 0.7729 0.2763
vt 0.7702 0.2505
vt 0.7748 0.2478
vt 0.7703 0.2763
vt 0.7322 0.2623
vt 0.7296 0.2326
vt 0.7329 0.2326
vt 0.7283 0.2623
vt 0.7861 0.1881
vt 0.7845 0.1722
vt 0.7906 0.1846
vt 0.7813 0.2155
vt 0.7708 0.2143
vt 0.7747 0.1984
vt 0.8226 0.1815
vt 0.8144 0.1830
vt 0.8198 0.1683
vt 0.8325 0.1865
vt 0.8352 0.1706
vt 0.8423 0.1865
vt 0.7838 0.1579
vt 0.7901 0.1753
vt 0.7799 0.1738
vt 0.7578 0.1893
vt 0.7599 0.1762
vt 0.7619 0.1893
vt 0.7907 0.1734
vt 0.7967 0.1874
vt 0.7870 0.1884
vt 0.7658 0.1773
vt 0.7673 0.1898
vt 0.7631 0.1908
vt 0.7201 0.1791
vt 0.7219 0.1653
vt 0.7244 0.1793
vt 0.7763 0.2108
vt 0.7637 0.2108
vt 0.7671 0.1970
vt 0.7463 0.1805
vt 0.7429 0.1814
vt 0.7440 0.1699
vt 0.7469 0.1696
vt 0.7502 0.1562
vt 0.7592 0.1696
vt 0.8154 0.1725
vt 0.8200 0.1830
vt 0.8125 0.1830
vt 0.7299 0.1887
vt 0.7363 0.1727
vt 0.7376 0.1879
vt 0.8226 0.2359
vt 0.8290 0.2518
vt 0.8187 0.2518
vt 0.7719 0.1744
vt 0.7747 0.1859
vt 0.7683 0.1880
vt 0.8088 0.1983
vt 0.8102 0.1840
vt 0.8113 0.1977
vt 0.8458 0.1728
vt 0.8394 0.1744
vt 0.8411 0.1566
vt 0.8181 0.2243
vt 0.8124 0.2224
vt 0.8154 0.2109
vt 0.8406 0.2135
vt 0.8426 0.1996
vt 0.8479 0.2111
vt 0.8006 0.1615
vt 0.8049 0.1742
vt 0.7989 0.1753
vt 0.8354 0.1908
vt 0.8358 0.1807
vt 0.8374 0.1903
vt 0.8712 0.1327
vt 0.8780 0.1486
vt 0.8686 0.1468
vt 0.8567 0.1744
vt 0.8591 0.1862
vt 0.8546 0.1862
vt 0.7925 0.1903
vt 0.7945 0.1752
vt 0.7962 0.1880
vt 0.8097 0.2164
vt 0.8015 0.2147
vt 0.8036 0.2025
vt 0.8185 0.2475
vt 0.8126 0.2493
vt 0.8161 0.2377
vt 0.8134 0.1875
vt 0.8156 0.1744
vt 0.8216 0.1875
vt 0.7905 0.2306
vt 0.7981 0.2465
vt 0.7876 0.2465
vt 0.7499 0.1903
vt 0.7516 0.1779
vt 0.7529 0.1903
vt 0.8218 0.1612
vt 0.8276 0.1732
vt 0.8196 0.1732
vt 0.7530 0.1998
vt 0.7551 0.2116
vt 0.7514 0.2109
vt 0.1867 0.7916
vt 0.2318 0.8176
vt 0.2127 0.8367
vt 0.2388 0.7916
vt 0.1867 0.8436
vt 0.2318 0.7655
vt 0.1607 0.8367
vt 0.2127 0.7465
vt 0.1416 0.8176
vt 0.1867 0.7395
vt 0.1346 0.7916
vt 0.1607 0.7465
vt 0.1416 0.7655
vt 0.2769 0.8436
vt 0.2908 0.7916
vt 0.1346 0.8817
vt 0.2388 0.8817
vt 0.1867 0.8957
vt 0.2388 0.7014
vt 0.2769 0.7395
vt 0.0826 0.7916
vt 0.0965 0.8436
vt 0.1346 0.7014
vt 0.1867 0.6875
vt 0.0965 0.7395
vt 0.1901 0.7874
vt 0.2291 0.8099
vt 0.2126 0.8264
vt 0.2351 0.7874
vt 0.1901 0.8325
vt 0.2291 0.7649
vt 0.1675 0.8264
vt 0.2126 0.7484
vt 0.1510 0.8099
vt 0.1901 0.7423
vt 0.1450 0.7874
vt 0.1675 0.7484
vt 0.1510 0.7649
vt 0.2421 0.8776
vt 0.2802 0.8395
vt 0.1380 0.8776
vt 0.1901 0.8915
vt 0.2802 0.7353
vt 0.2942 0.7874
vt 0.0859 0.7874
vt 0.0999 0.8395
vt 0.1901 0.6833
vt 0.2421 0.6972
vt 0.0999 0.7353
vt 0.1380 0.6972
vn 0.9119 -0.3852 -0.1415
vn 0.9088 -0.3793 -0.1739
vn 0.9163 -0.3871 -0.1027
vn 0.4953 -0.3695 -0.7862
vn 0.4468 -0.3684 -0.8152
vn 0.5423 -0.3694 -0.7546
vn -0.9531 0.1890 0.2363
vn -0.9369 0.2047 0.2834
vn -0.9681 0.1732 0.1810
vn -0.7096 -0.0631 -0.7018
vn -0.7096 -0.0631 -0.7017
vn -0.8084 0.0000 -0.5886
vn -0.5914 -0.1262 -0.7964
vn -0.2514 -0.2199 -0.9426
vn -0.2133 -0.2370 -0.9478
vn -0.2834 -0.2047 -0.9369
vn -0.5690 0.1976 0.7982
vn -0.5565 0.1960 0.8074
vn 0.1654 0.0551 0.9847
vn 0.1731 0.0551 0.9834
vn 0.7494 -0.1735 0.6390
vn 0.7494 -0.1736 0.6390
vn 0.6817 -0.1254 0.7208
vn 0.8042 -0.2208 0.5519
vn 0.9495 0.2511 -0.1883
vn 0.9038 0.2988 -0.3065
vn 0.9763 0.2047 -0.0708
vn 0.5377 0.3321 -0.7750
vn 0.3461 0.3225 -0.8810
vn 0.7001 0.3225 -0.6371
vn -0.8974 -0.4251 0.1181
vn -0.8235 -0.4312 0.3686
vn -0.9129 -0.3856 -0.1338
vn -0.7641 -0.0945 -0.6381
vn -0.7942 -0.1101 -0.5976
vn -0.7319 -0.0787 -0.6768
vn -0.0706 0.2512 -0.9654
vn 0.1096 0.2741 -0.9554
vn -0.2518 0.2124 -0.9442
vn -0.4772 -0.4929 0.7276
vn -0.6449 -0.4954 0.5820
vn -0.2834 -0.4724 0.8346
vn 0.4235 -0.3215 0.8469
vn 0.1186 -0.4504 0.8849
vn 0.6783 -0.1577 0.7177
vn 0.8762 -0.0158 0.4816
vn 0.8763 -0.0158 0.4816
vn 0.9614 0.1103 0.2522
vn 0.7232 -0.1415 0.6760
vn 0.6863 -0.7100 0.1578
vn 0.6234 -0.7813 -0.0316
vn 0.7162 -0.6059 0.3463
vn 0.4497 -0.7258 -0.5206
vn 0.4641 -0.7394 -0.4877
vn 0.4403 -0.7154 -0.5425
vn -0.7923 0.6040 0.0863
vn -0.7626 0.6211 0.1808
vn -0.8185 0.5745 -0.0079
vn -0.5743 0.1967 -0.7947
vn -0.5743 0.1967 -0.7946
vn -0.0393 -0.3698 -0.9283
vn -0.0393 -0.3697 -0.9283
vn -0.0869 -0.3079 -0.9474
vn 0.0078 -0.4314 -0.9021
vn -0.6031 0.5561 0.5718
vn -0.6284 0.5655 0.5341
vn -0.5743 0.5507 0.6058
vn -0.0470 0.1959 0.9795
vn -0.0786 0.2121 0.9741
vn -0.0157 0.1808 0.9834
vn 0.4310 -0.2665 0.8621
vn 0.5199 -0.3308 0.7876
vn 0.3382 -0.1966 0.9203
vn 0.9041 -0.4167 -0.0943
vn 0.8966 -0.4247 -0.1258
vn 0.9102 -0.4080 -0.0705
vn -0.9508 0.2515 0.1807
vn -0.9323 0.2818 0.2267
vn -0.9680 0.2125 0.1338
vn -0.8205 -0.1972 -0.5365
vn -0.8867 -0.1177 -0.4472
vn -0.7398 -0.2755 -0.6139
vn -0.1816 -0.5527 -0.8133
vn -0.0472 -0.6056 -0.7944
vn -0.3066 -0.4874 -0.8176
vn -0.5361 0.4573 0.7096
vn -0.5101 0.4552 0.7298
vn -0.5607 0.4501 0.6950
vn 0.1176 0.4156 0.9019
vn 0.0550 0.4244 0.9038
vn 0.1729 0.4088 0.8961
vn 0.5344 -0.6208 -0.5736
vn 0.5344 -0.6208 -0.5737
vn 0.6154 -0.5917 -0.5207
vn 0.4394 -0.6431 -0.6272
vn 0.7323 0.1260 0.6693
vn 0.6934 0.1655 0.7013
vn 0.7647 0.0867 0.6385
vn 0.8845 0.4263 0.1895
vn 0.9402 0.3397 -0.0237
vn 0.9402 0.3398 -0.0237
vn 0.4243 0.2436 -0.8721
vn 0.2752 0.7469 0.6054
vn 0.0868 0.3316 -0.9394
vn -0.2115 0.8773 0.4308
vn -0.5125 0.8516 0.1103
vn -0.4635 0.7070 -0.5342
vn 0.2991 0.8657 0.4014
vn 0.3387 0.9217 -0.1891
vn -0.0394 0.8115 -0.5830
vn -0.0550 0.5737 0.8172
vn -0.3611 0.6435 -0.6749
vn -0.3362 0.4613 0.8211
vn -0.8973 0.2834 0.3385
vn -0.8716 0.4005 -0.2827
vn 0.7955 0.0945 0.5986
vn 0.9797 -0.1254 0.1567
vn 0.8935 -0.1254 -0.4312
vn 0.2590 0.4631 0.8476
vn 0.1887 0.3223 -0.9276
vn -0.2435 0.8247 0.5105
vn -0.4660 0.8846 0.0157
vn -0.1811 0.5989 -0.7801
vn 0.8846 0.4660 0.0158
vn 0.9370 0.3228 -0.1338
vn 0.4316 -0.0000 -0.9021
vn 0.2749 0.9189 0.2828
vn -0.0157 0.0393 -0.9991
vn -0.2122 0.9747 0.0707
vn -0.4003 0.9107 -0.1020
vn -0.3686 0.4313 -0.8235
vn 0.0000 1.0000 0.0000
usemtl None
s 1
f 1/1/1 2/2/1 3/3/2
f 1/1/1 4/4/3 2/2/1
f 1/5/4 5/6/4 4/7/5
f 1/5/4 6/8/6 5/6/4
f 7/9/7 8/10/7 9/11/8
f 7/9/7 10/12/9 8/10/7
f 11/13/10 10/14/11 7/15/12
f 11/13/11 12/16/13 10/14/10
f 12/17/14 5/18/14 6/19/15
f 12/17/14 11/20/16 5/18/14
f 13/21/17 9/22/17 8/23/17
f 13/21/17 14/24/18 9/22/17
f 15/25/19 14/26/19 13/27/19
f 15/25/19 16/28/20 14/26/19
f 15/29/21 2/30/22 16/31/23
f 15/29/21 3/32/24 2/30/22
f 17/33/25 18/34/25 19/35/26
f 17/33/25 20/36/27 18/34/25
f 19/37/28 21/38/28 22/39/29
f 19/37/28 18/40/30 21/38/28
f 23/41/31 24/42/31 25/43/32
f 23/41/31 26/44/33 24/42/31
f 27/45/34 26/46/34 23/47/35
f 27/45/34 28/48/36 26/46/34
f 28/49/37 22/50/37 21/51/38
f 28/49/37 27/52/39 22/50/37
f 29/53/40 25/54/40 24/55/41
f 29/53/40 30/56/42 25/54/40
f 31/57/43 30/58/43 29/59/44
f 31/57/43 32/60/45 30/58/43
f 32/61/46 20/62/47 17/63/48
f 32/61/47 31/64/49 20/62/47
f 33/65/50 34/66/50 35/67/51
f 33/65/50 36/68/52 34/66/50
f 37/69/53 33/70/53 35/71/54
f 37/69/53 38/72/55 33/70/53
f 39/73/56 40/74/56 41/75/57
f 39/73/56 42/76/58 40/74/56
f 39/77/59 43/78/60 42/79/59
f 39/77/59 44/80/59 43/78/60
f 38/81/61 43/82/62 44/83/63
f 38/81/61 37/84/64 43/82/62
f 45/85/65 41/86/65 40/87/66
f 45/85/65 46/88/67 41/86/65
f 47/89/68 46/90/68 45/91/69
f 47/89/68 48/92/70 46/90/68
f 48/93/71 34/94/71 36/95/72
f 48/93/71 47/96/73 34/94/71
f 49/97/74 50/98/74 51/99/75
f 49/97/74 52/100/76 50/98/74
f 53/101/77 54/102/77 55/103/78
f 53/101/77 56/104/79 54/102/77
f 57/105/80 56/106/80 53/107/81
f 57/105/80 58/108/82 56/106/80
f 58/109/83 59/110/83 60/111/84
f 58/109/83 57/112/85 59/110/83
f 61/113/86 54/114/86 62/115/87
f 61/113/86 55/116/88 54/114/86
f 63/117/89 61/118/89 62/119/90
f 63/117/89 64/120/91 61/118/89
f 49/121/92 59/122/93 52/123/94
f 49/121/92 60/124/95 59/122/93
f 63/125/96 50/126/96 64/127/97
f 63/125/96 51/128/98 50/126/96
f 2/129/99 65/130/99 16/131/99
f 2/132/100 4/133/100 65/134/101
f 4/135/102 5/136/102 65/137/102
f 16/138/103 65/139/103 14/140/103
f 65/141/104 5/142/104 11/143/104
f 14/144/105 65/145/105 9/146/105
f 65/147/106 7/148/106 9/149/106
f 65/150/107 11/151/107 7/152/107
f 17/153/108 66/154/108 32/155/108
f 17/156/109 19/157/109 66/158/109
f 19/159/110 22/160/110 66/161/110
f 32/162/111 66/163/111 30/164/111
f 66/165/112 22/166/112 27/167/112
f 30/168/113 66/169/113 25/170/113
f 66/171/114 23/172/114 25/173/114
f 66/174/115 27/175/115 23/176/115
f 36/177/116 67/178/116 48/179/116
f 36/180/117 33/181/117 67/182/117
f 33/183/118 38/184/118 67/185/118
f 48/186/119 67/187/119 46/188/119
f 67/189/120 38/190/120 44/191/120
f 46/192/121 67/193/121 41/194/121
f 67/195/122 39/196/122 41/197/122
f 67/198/123 44/199/123 39/200/123
f 50/201/124 68/202/124 64/203/124
f 50/204/125 52/205/125 68/206/125
f 52/207/126 59/208/126 68/209/126
f 64/210/127 68/211/127 61/212/127
f 68/213/128 59/214/128 57/215/128
f 61/216/129 68/217/129 55/218/129
f 68/219/130 53/220/130 55/221/130
f 68/222/131 57/223/131 53/224/131
f 69/225/132 70/226/132 71/227/132
f 69/225/132 72/228/132 70/226/132
f 69/225/132 71/227/132 73/229/132
f 69/225/132 74/230/132 72/228/132
f 69/225/132 73/229/132 75/231/132
f 69/225/132 76/232/132 74/230/132
f 69/225/132 75/231/132 77/233/132
f 69/225/132 78/234/132 76/232/132
f 69/225/132 77/233/132 79/235/132
f 69/225/132 80/236/132 78/234/132
f 69/225/132 79/235/132 81/237/132
f 69/225/132 81/237/132 80/236/132
f 70/226/132 82/238/132 71/227/132
f 70/226/132 72/228/132 83/239/132
f 70/226/132 83/239/132 82/238/132
f 73/229/132 84/240/132 75/231/132
f 73/229/132 71/227/132 85/241/132
f 73/229/132 86/242/132 84/240/132
f 73/229/132 85/241/132 86/242/132
f 85/241/132 71/227/132 82/238/132
f 74/230/132 76/232/132 87/243/132
f 74/230/132 88/244/132 72/228/132
f 74/230/132 87/243/132 88/244/132
f 88/244/132 83/239/132 72/228/132
f 77/233/132 89/245/132 79/235/132
f 77/233/132 75/231/132 90/246/132
f 77/233/132 90/246/132 89/245/132
f 90/246/132 75/231/132 84/240/132
f 79/235/132 89/245/132 81/237/132
f 78/234/132 80/236/132 91/247/132
f 78/234/132 92/248/132 76/232/132
f 78/234/132 91/247/132 92/248/132
f 92/248/132 87/243/132 76/232/132
f 89/245/132 93/249/132 81/237/132
f 93/249/132 91/247/132 80/236/132
f 93/249/132 80/236/132 81/237/132
f 94/250/132 95/251/132 96/252/132
f 94/250/132 97/253/132 95/251/132
f 94/250/132 96/252/132 98/254/132
f 94/250/132 99/255/132 97/253/132
f 94/250/132 98/254/132 100/256/132
f 94/250/132 101/257/132 99/255/132
f 94/250/132 100/256/132 102/258/132
f 94/250/132 103/259/132 101/257/132
f 94/250/132 102/258/132 104/260/132
f 94/250/132 105/261/132 103/259/132
f 94/250/132 104/260/132 106/262/132
f 94/250/132 106/262/132 105/261/132
f 95/251/132 107/263/132 96/252/132
f 95/251/132 97/253/132 108/264/132
f 95/251/132 108/264/132 107/263/132
f 98/254/132 109/265/132 100/256/132
f 98/254/132 96/252/132 110/266/132
f 98/254/132 110/266/132 109/265/132
f 110/266/132 96/252/132 107/263/132
f 99/255/132 101/257/132 111/267/132
f 99/255/132 112/268/132 97/253/132
f 99/255/132 111/267/132 112/268/132
f 112/268/132 108/264/132 97/253/132
f 102/258/132 113/269/132 104/260/132
f 102/258/132 100/256/132 114/270/132
f 102/258/132 114/270/132 113/269/132
f 114/270/132 100/256/132 109/265/132
f 103/259/132 105/261/132 115/271/132
f 103/259/132 116/272/132 101/257/132
f 103/259/132 115/271/132 116/272/132
f 116/272/132 111/267/132 101/257/132
f 106/262/132 104/260/132 117/273/132
f 106/262/132 118/274/132 105/261/132
f 106/262/132 117/273/132 118/274/132
f 118/274/132 115/271/132 105/261/132
f 117/273/132 104/260/132 113/269/132
