# Blender v2.78 (sub 0) OBJ File: ''
# www.blender.org
mtllib Kristal_1.mtl
o Kristal_1:Mesh
v 0.074301 0.072532 0.014364
v 0.080930 0.227808 -0.018456
v 0.072629 0.084704 0.040615
v 0.083306 0.210459 -0.055838
v 0.065209 0.068147 0.005154
v 0.070356 0.204212 -0.068963
v 0.014599 0.208142 -0.059137
v 0.024410 0.083091 0.038298
v 0.012223 0.225491 -0.021741
v 0.026082 0.070919 0.012047
v 0.036274 0.067179 0.003761
v 0.029132 0.202833 -0.070943
v 0.033502 0.087476 0.047508
v 0.025173 0.231738 -0.008616
v 0.062437 0.088444 0.048901
v 0.066397 0.233117 -0.006650
v 0.023207 0.040342 0.047170
v -0.026904 0.149305 0.003321
v 0.026316 0.051839 0.062100
v -0.031333 0.132924 -0.017958
v -0.040660 0.124784 -0.021346
v 0.016667 0.034637 0.044780
v -0.070533 0.119534 0.000535
v -0.001196 0.042439 0.075078
v -0.066104 0.135915 0.021799
v -0.004305 0.030941 0.060134
v 0.000154 0.028991 0.052567
v -0.064168 0.116748 -0.010259
v 0.021844 0.053790 0.069667
v -0.056792 0.144055 0.025202
v 0.005330 0.048144 0.077454
v -0.033268 0.152091 0.014116
v 0.061103 0.021248 0.086209
v 0.139796 0.172036 0.048770
v 0.040131 0.041471 0.094202
v 0.169670 0.143233 0.037550
v 0.173660 0.132513 0.020831
v 0.063904 0.013724 0.074477
v 0.139856 0.137602 -0.027344
v 0.022195 0.037511 0.048534
v 0.109997 0.166404 -0.016124
v 0.040175 0.017288 0.040659
v 0.051350 0.011348 0.047141
v 0.155782 0.129125 -0.018105
v 0.019394 0.045035 0.060266
v 0.105993 0.177125 0.000594
v 0.028956 0.047410 0.087602
v 0.123885 0.180512 0.039531
v -0.171414 0.093269 0.029909
v -0.162630 0.146753 -0.000345
v -0.174818 0.083502 0.018822
v -0.158055 0.155699 0.013089
v -0.152086 0.151534 0.023134
v -0.167339 0.093650 0.033297
v -0.155782 0.084939 0.034353
v -0.132596 0.143556 -0.001005
v -0.128505 0.150463 0.014217
v -0.159185 0.075172 0.023281
v -0.137201 0.151079 0.019468
v -0.157953 0.088649 0.035966
v -0.137920 0.143585 -0.006490
v -0.163276 0.074790 0.019878
v -0.172646 0.079791 0.017209
v -0.153450 0.148176 -0.007385
v -0.154301 0.008855 0.017473
v -0.201625 0.100763 0.030071
v -0.147951 0.008855 -0.007165
v -0.205570 0.090013 0.053462
v -0.193442 0.088239 0.071353
v -0.149534 0.008855 0.025011
v -0.125322 0.008855 0.027357
v -0.159903 0.123201 0.048109
v -0.162250 0.116455 0.076077
v -0.118972 0.008855 0.002720
v -0.178132 0.104106 0.084743
v -0.132142 0.008855 0.030936
v -0.166708 0.124887 0.037374
v -0.123739 0.008855 -0.004818
v -0.141132 0.008855 -0.010743
v -0.191492 0.117466 0.028927
v 0.047024 0.283184 -0.069095
v -0.076502 0.177711 -0.025613
v 0.186197 0.213187 -0.015655
v -0.142935 0.168868 0.005126
v -0.200731 0.132249 0.069579
v 0.033513 0.007755 0.016264
v 0.050965 0.007755 0.006189
v 0.043588 0.007755 -0.001187
v 0.053663 0.007755 0.016264
v 0.033513 0.007755 -0.003886
v 0.050965 0.007755 0.026354
v 0.023423 0.007755 -0.001187
v 0.043588 0.007755 0.033731
v 0.016047 0.007755 0.006189
v 0.033513 0.007755 0.036429
v 0.013348 0.007755 0.016264
v 0.023423 0.007755 0.033731
v 0.016047 0.007755 0.026354
v 0.053663 0.007755 -0.018654
v 0.068416 0.007755 -0.003886
v 0.013348 0.007755 -0.018654
v 0.033513 0.007755 -0.024050
v 0.068416 0.007755 0.036429
v 0.073828 0.007755 0.016264
v -0.006802 0.007755 0.016264
v -0.001405 0.007755 -0.003886
v 0.033513 0.007755 0.056579
v 0.053663 0.007755 0.051183
v -0.001405 0.007755 0.036429
v 0.013348 0.007755 0.051183
v 0.060237 0.109371 0.042536
v 0.117945 0.121617 0.066735
v 0.137391 0.092506 0.049678
v 0.053081 0.114181 0.075078
v 0.129003 0.085877 -0.014644
v 0.003805 0.098079 0.065868
v 0.067291 0.062692 -0.034633
v -0.024689 0.063601 0.027123
v 0.019336 0.056459 -0.000683
v 0.130235 0.084660 0.091005
v 0.144432 0.047821 -0.027491
v 0.176167 0.053848 0.039940
v -0.024176 0.072825 0.093571
v 0.050089 0.072635 0.094612
v 0.006445 0.048026 -0.016140
v -0.045529 0.048188 -0.015568
v 0.205570 0.008855 -0.000947
v 0.070166 0.047645 -0.066574
v 0.172104 0.008855 -0.063245
v 0.047640 0.008855 0.095610
v -0.076575 0.048364 0.035643
v -0.070694 0.008855 0.095610
v 0.194411 0.008855 0.055060
v 0.146733 0.008855 0.095610
v 0.073025 0.008855 -0.095611
v 0.002324 0.008855 -0.068158
v -0.101022 0.008855 0.033414
v -0.072880 0.008855 -0.044972
vt 0.5583 0.1133
vt 0.5366 0.2326
vt 0.5285 0.1133
vt 0.5774 0.2326
vt 0.3563 0.2379
vt 0.3718 0.1587
vt 0.3736 0.2379
vt 0.3580 0.1587
vt 0.5706 0.2595
vt 0.5997 0.1384
vt 0.6114 0.2595
vt 0.5699 0.1384
vt 0.2785 0.2292
vt 0.2628 0.1500
vt 0.2767 0.1500
vt 0.2611 0.2292
vt 0.6291 0.1680
vt 0.6074 0.2873
vt 0.5992 0.1680
vt 0.6482 0.2873
vt 0.3666 0.1842
vt 0.3511 0.2634
vt 0.3528 0.1842
vt 0.3684 0.2634
vt 0.6551 0.1628
vt 0.6335 0.2821
vt 0.6253 0.1628
vt 0.6743 0.2821
vt 0.3507 0.2520
vt 0.3662 0.1728
vt 0.3680 0.2520
vt 0.3524 0.1728
vt 0.6501 0.1344
vt 0.6349 0.2403
vt 0.6291 0.1344
vt 0.6636 0.2403
vt 0.3580 0.1587
vt 0.3736 0.2379
vt 0.3563 0.2379
vt 0.3718 0.1587
vt 0.6238 0.2165
vt 0.6385 0.0972
vt 0.6516 0.2165
vt 0.6183 0.0972
vt 0.3736 0.2379
vt 0.3580 0.1587
vt 0.3718 0.1587
vt 0.3563 0.2379
vt 0.5492 0.1628
vt 0.5276 0.2821
vt 0.5194 0.1628
vt 0.5684 0.2821
vt 0.3979 0.1196
vt 0.3696 0.2389
vt 0.3681 0.1196
vt 0.4105 0.2389
vt 0.3563 0.2379
vt 0.3718 0.1587
vt 0.3736 0.2379
vt 0.3580 0.1587
vt 0.4874 0.1803
vt 0.4658 0.2996
vt 0.4576 0.1803
vt 0.5066 0.2996
vt 0.3580 0.1587
vt 0.3736 0.2379
vt 0.3563 0.2379
vt 0.3718 0.1587
vt 0.6380 0.2318
vt 0.6596 0.1125
vt 0.6788 0.2318
vt 0.6298 0.1125
vt 0.2818 0.2208
vt 0.2662 0.1416
vt 0.2800 0.1416
vt 0.2645 0.2208
vt 0.7961 0.1394
vt 0.7744 0.2587
vt 0.7663 0.1394
vt 0.8152 0.2587
vt 0.3718 0.1587
vt 0.3563 0.2379
vt 0.3580 0.1587
vt 0.3736 0.2379
vt 0.7209 0.1504
vt 0.6992 0.2697
vt 0.6911 0.1504
vt 0.7401 0.2697
vt 0.4137 0.2770
vt 0.3769 0.3544
vt 0.3915 0.2770
vt 0.3991 0.3544
vt 0.5316 0.2555
vt 0.5434 0.3347
vt 0.5317 0.3347
vt 0.5425 0.2555
vt 0.4147 0.2016
vt 0.4328 0.2790
vt 0.4106 0.2790
vt 0.4329 0.2016
vt 0.5317 0.3347
vt 0.5425 0.2555
vt 0.5434 0.3347
vt 0.5316 0.2555
vt 0.4137 0.2770
vt 0.3769 0.3544
vt 0.3915 0.2770
vt 0.3991 0.3544
vt 0.4924 0.2639
vt 0.4805 0.1847
vt 0.4914 0.1847
vt 0.4806 0.2639
vt 0.4777 0.1569
vt 0.4409 0.2344
vt 0.4555 0.1569
vt 0.4631 0.2344
vt 0.5316 0.2555
vt 0.5434 0.3347
vt 0.5317 0.3347
vt 0.5425 0.2555
vt 0.6551 0.1628
vt 0.6335 0.2821
vt 0.6253 0.1628
vt 0.6743 0.2821
vt 0.3580 0.1587
vt 0.3736 0.2379
vt 0.3563 0.2379
vt 0.3718 0.1587
vt 0.6504 0.1755
vt 0.6880 0.2947
vt 0.6567 0.2947
vt 0.6733 0.1755
vt 0.3563 0.2379
vt 0.3718 0.1587
vt 0.3736 0.2379
vt 0.3580 0.1587
vt 0.6551 0.1628
vt 0.6335 0.2821
vt 0.6253 0.1628
vt 0.6743 0.2821
vt 0.2973 0.2712
vt 0.2882 0.1920
vt 0.2962 0.1920
vt 0.2872 0.2712
vt 0.3138 0.1472
vt 0.2988 0.2665
vt 0.2932 0.1472
vt 0.3271 0.2665
vt 0.3580 0.1587
vt 0.3736 0.2379
vt 0.3563 0.2379
vt 0.3718 0.1587
vt 0.3718 0.1587
vt 0.3563 0.2379
vt 0.3580 0.1587
vt 0.3736 0.2379
vt 0.3718 0.1587
vt 0.3736 0.2379
vt 0.3563 0.2379
vt 0.3580 0.1587
vt 0.3792 0.2713
vt 0.3672 0.3329
vt 0.3702 0.2713
vt 0.2051 0.2621
vt 0.2308 0.2621
vt 0.2386 0.3225
vt 0.3243 0.2564
vt 0.3332 0.2564
vt 0.3212 0.3180
vt 0.2291 0.2708
vt 0.2368 0.3312
vt 0.2033 0.2708
vt 0.2088 0.2752
vt 0.1753 0.2147
vt 0.2010 0.2147
vt 0.3332 0.2564
vt 0.3243 0.2564
vt 0.2683 0.3312
vt 0.2349 0.2708
vt 0.2606 0.2708
vt 0.2944 0.3410
vt 0.2974 0.2794
vt 0.3064 0.2794
vt 0.3332 0.2564
vt 0.3212 0.3180
vt 0.3243 0.2564
vt 0.3006 0.2287
vt 0.3263 0.2287
vt 0.3341 0.2892
vt 0.3243 0.2564
vt 0.3332 0.2564
vt 0.2606 0.2708
vt 0.2683 0.3312
vt 0.2349 0.2708
vt 0.2349 0.2708
vt 0.2606 0.2708
vt 0.3320 0.2788
vt 0.3200 0.3403
vt 0.3230 0.2788
vt 0.2249 0.3362
vt 0.1914 0.2758
vt 0.2172 0.2758
vt 0.3243 0.2564
vt 0.3332 0.2564
vt 0.3826 0.2724
vt 0.3706 0.3340
vt 0.3736 0.2724
vt 0.1900 0.2093
vt 0.2158 0.2093
vt 0.2235 0.2697
vt 0.3414 0.3101
vt 0.3504 0.3101
vt 0.3384 0.3716
vt 0.2837 0.2984
vt 0.2914 0.3588
vt 0.2579 0.2984
vt 0.2193 0.3391
vt 0.1858 0.2787
vt 0.2115 0.2787
vt 0.3332 0.2564
vt 0.3212 0.3180
vt 0.3243 0.2564
vt 0.2412 0.2900
vt 0.2077 0.2296
vt 0.2335 0.2296
vt 0.3475 0.3451
vt 0.3506 0.2836
vt 0.3595 0.2836
vt 0.3087 0.2932
vt 0.2967 0.3548
vt 0.2998 0.2932
vt 0.2463 0.3032
vt 0.2720 0.3032
vt 0.2797 0.3637
vt 0.3094 0.1819
vt 0.3267 0.1780
vt 0.3152 0.2385
vt 0.2606 0.2708
vt 0.2683 0.3312
vt 0.2349 0.2708
vt 0.3136 0.3278
vt 0.2894 0.2754
vt 0.3151 0.2754
vt 0.3332 0.2564
vt 0.3212 0.3180
vt 0.3243 0.2564
vt 0.2306 0.3138
vt 0.2163 0.2720
vt 0.2421 0.2720
vt 0.2801 0.3226
vt 0.2773 0.2732
vt 0.2863 0.2732
vt 0.3683 0.2932
vt 0.3528 0.3477
vt 0.3523 0.3002
vt 0.2796 0.2760
vt 0.3053 0.2760
vt 0.3131 0.3365
vt 0.2583 0.2160
vt 0.2771 0.2160
vt 0.2651 0.2608
vt 0.2976 0.2564
vt 0.3053 0.3168
vt 0.2718 0.2564
vt 0.2378 0.2917
vt 0.2043 0.2313
vt 0.2301 0.2313
vt 0.3176 0.2379
vt 0.3056 0.2994
vt 0.3086 0.2379
vt 0.2683 0.3312
vt 0.2349 0.2708
vt 0.2606 0.2708
vt 0.3485 0.2617
vt 0.3423 0.2187
vt 0.3617 0.2239
vt 0.2113 0.7939
vt 0.2676 0.8264
vt 0.2438 0.8502
vt 0.2763 0.7939
vt 0.2113 0.8589
vt 0.2676 0.7613
vt 0.1787 0.8502
vt 0.2438 0.7375
vt 0.1549 0.8264
vt 0.2113 0.7288
vt 0.1462 0.7939
vt 0.1787 0.7375
vt 0.1549 0.7613
vt 0.2763 0.9065
vt 0.3239 0.8589
vt 0.1462 0.9065
vt 0.2113 0.9240
vt 0.3239 0.7288
vt 0.3414 0.7939
vt 0.0811 0.7939
vt 0.0986 0.8589
vt 0.2113 0.6637
vt 0.2763 0.6812
vt 0.0986 0.7288
vt 0.1462 0.6812
vt 0.2286 0.7993
vt 0.2157 0.8092
vt 0.2064 0.8065
vt 0.2318 0.8082
vt 0.2038 0.7839
vt 0.2458 0.8048
vt 0.2237 0.7693
vt 0.2579 0.7902
vt 0.2437 0.7785
vt 0.2124 0.8189
vt 0.1899 0.7728
vt 0.1846 0.8117
vt 0.2570 0.8117
vt 0.2364 0.8206
vt 0.2487 0.7722
vt 0.2675 0.7753
vt 0.1443 0.7833
vt 0.2220 0.7551
vt 0.1700 0.7509
vt 0.2428 0.8425
vt 0.2762 0.7947
vt 0.2827 0.8205
vt 0.1658 0.8398
vt 0.2021 0.8471
vt 0.2235 0.7343
vt 0.2537 0.7454
vt 0.2920 0.7941
vt 0.2843 0.7613
vn 0.9966 -0.0235 0.0785
vn 0.7463 -0.3378 -0.5735
vn -0.9953 -0.0940 -0.0235
vn -0.6636 -0.3872 -0.6400
vn -0.6637 -0.3872 -0.6400
vn 0.0552 -0.4809 -0.8750
vn 0.0553 -0.4809 -0.8750
vn -0.7449 0.2039 0.6352
vn -0.0552 0.3627 0.9303
vn -0.0552 0.3626 0.9303
vn 0.6641 0.2532 0.7035
vn 0.6641 0.2529 0.7036
vn 0.8880 0.2515 -0.3850
vn 0.5266 -0.2594 -0.8096
vn -0.8351 -0.3388 0.4333
vn -0.6948 -0.6790 -0.2369
vn -0.6949 -0.6790 -0.2369
vn -0.1334 -0.6437 -0.7536
vn -0.1335 -0.6437 -0.7536
vn 0.1896 0.5609 0.8059
vn 0.7540 0.5891 0.2906
vn 0.3795 0.0316 0.9247
vn 0.3794 0.0316 0.9247
vn 0.7395 -0.4720 0.4799
vn -0.4726 -0.1103 -0.8743
vn -0.4557 -0.1335 -0.8801
vn -0.4855 -0.0940 -0.8692
vn 0.1566 -0.5800 -0.7994
vn 0.1568 -0.5800 -0.7994
vn 0.1565 -0.5800 -0.7994
vn 0.6592 -0.7141 -0.2354
vn -0.8334 0.3538 -0.4245
vn -0.8334 0.3538 -0.4246
vn -0.7479 0.6141 0.2519
vn -0.7672 0.6028 0.2192
vn -0.7310 0.6209 0.2830
vn -0.9623 0.2366 0.1341
vn -0.9699 0.2208 0.1025
vn -0.9546 0.2525 0.1578
vn -0.6924 0.3068 0.6530
vn -0.7555 0.3148 0.5746
vn -0.6279 0.2905 0.7221
vn 0.9262 -0.3768 -0.0157
vn 0.9260 -0.3772 -0.0154
vn 0.9137 -0.4016 -0.0630
vn 0.9351 -0.3536 0.0235
vn 0.5654 0.0236 0.8245
vn 0.5174 0.0470 0.8545
vn 0.6063 0.0079 0.7952
vn 0.0392 0.1960 0.9798
vn -0.1645 0.2115 0.9634
vn 0.2444 0.1735 0.9540
vn 0.6142 -0.4646 -0.6378
vn 0.5878 -0.4702 -0.6583
vn 0.6379 -0.4646 -0.6142
vn 0.0079 -0.3537 -0.9353
vn 0.0628 -0.3760 -0.9245
vn -0.0393 -0.3301 -0.9431
vn -0.6375 -0.1023 -0.7636
vn -0.6376 -0.1023 -0.7636
vn -0.5920 -0.1185 -0.7972
vn -0.6846 -0.0865 -0.7238
vn -0.8708 -0.4079 -0.2746
vn -0.8773 -0.4229 -0.2271
vn -0.8578 -0.3935 -0.3305
vn -0.6824 -0.6118 0.4000
vn -0.6673 -0.6124 0.4239
vn 0.9480 0.2507 0.1959
vn 0.9550 0.2604 0.1421
vn 0.9393 0.2426 0.2427
vn 0.5100 -0.2197 0.8317
vn 0.5687 -0.1659 0.8057
vn 0.4497 -0.2682 0.8520
vn -0.2127 -0.5672 0.7956
vn -0.2600 -0.5906 0.7639
vn -0.1572 -0.5423 0.8253
vn 0.7723 0.4492 -0.4492
vn 0.7519 0.4543 -0.4778
vn 0.7865 0.4483 -0.4247
vn 0.2353 0.4157 -0.8785
vn 0.2920 0.4183 -0.8601
vn 0.1806 0.4083 -0.8948
vn -0.4182 0.1263 -0.8995
vn -0.4182 0.1262 -0.8995
vn -0.3704 0.1656 -0.9140
vn -0.4643 0.0866 -0.8814
vn -0.4655 0.1736 0.8679
vn -0.2351 0.4780 0.8463
vn 0.5804 0.7137 0.3921
vn 0.8947 0.4238 -0.1413
vn 0.6538 0.1891 -0.7327
vn -0.0550 0.7696 0.6361
vn 0.0472 0.0157 -0.9988
vn -0.6631 0.6711 0.3316
vn -0.9040 0.3616 -0.2280
vn -0.5895 0.1493 -0.7939
vn 0.4715 0.8801 0.0550
vn 0.6313 0.5445 -0.5523
vn 0.2597 0.1023 -0.9603
vn -0.0235 0.8306 0.5563
vn -0.3241 -0.2921 -0.8998
vn -0.6449 0.4955 0.5819
vn -0.6449 0.4954 0.5819
vn -0.9771 -0.0079 0.2127
vn -0.8564 -0.2826 -0.4321
vn 0.0942 0.8085 0.5809
vn 0.6223 0.3781 0.6854
vn 0.9670 -0.0393 0.2516
vn -0.3937 0.9135 0.1024
vn -0.3938 0.9135 0.1024
vn 0.8736 -0.3069 -0.3777
vn -0.4324 0.7081 -0.5582
vn -0.1341 0.2366 -0.9623
vn 0.4401 -0.1336 -0.8879
vn -0.5343 0.6208 -0.5737
vn -0.5344 0.6208 -0.5736
vn -0.7028 0.6788 -0.2129
vn -0.3777 0.7556 0.5352
vn -0.3778 0.7555 0.5352
vn 0.1808 0.4400 -0.8796
vn 0.1966 0.6529 0.7315
vn 0.1967 0.6529 0.7315
vn 0.6542 0.4177 -0.6305
vn 0.8058 0.4266 -0.4108
vn 0.4265 0.6474 0.6317
vn 0.4269 0.6471 0.6316
vn -0.8114 0.4648 -0.3545
vn -0.9842 0.1496 -0.0945
vn -0.8262 -0.1180 0.5508
vn -0.1491 0.9176 -0.3686
vn -0.6135 -0.0708 0.7865
vn 0.2202 0.9753 0.0157
vn 0.3302 0.9119 0.2437
vn 0.0629 0.5112 0.8572
vn -0.0000 1.0000 0.0000
vn -0.1572 0.8801 -0.4479
vn 0.3534 0.9346 0.0393
vn 0.6133 0.7784 -0.1337
vn -0.1659 0.8217 0.5452
vn 0.3920 0.7761 -0.4939
vn -0.4076 0.8936 0.1881
vn -0.1572 0.8253 -0.5424
vn -0.3470 0.8832 -0.3154
vn -0.2204 0.8660 -0.4488
vn 0.4161 0.4004 0.8164
vn 0.4783 0.6978 -0.5332
vn 0.8037 0.5831 0.1182
vn -0.3938 0.6617 0.6380
vn -0.0629 0.3461 0.9361
vn -0.2053 0.8607 -0.4659
vn 0.7383 0.6519 -0.1728
vn -0.0473 0.7808 -0.6230
vn 0.4006 0.7147 -0.5733
vn 0.0079 0.0315 0.9995
vn -0.6537 0.7561 -0.0315
vn -0.5902 0.4014 0.7004
vn 0.7635 0.4644 0.4487
vn 0.4957 0.2675 0.8263
vn -0.0236 0.5973 -0.8017
vn -0.2368 0.7103 -0.6629
vn -0.8485 0.5264 0.0550
vn -0.5752 0.6619 -0.4807
usemtl None
s 1
f 1/1/1 2/2/1 3/3/1
f 1/1/1 4/4/1 2/2/1
f 4/5/2 5/6/2 6/7/2
f 4/5/2 1/8/2 5/6/2
f 7/9/3 8/10/3 9/11/3
f 7/9/3 10/12/3 8/10/3
f 7/13/4 11/14/5 10/15/5
f 7/13/4 12/16/4 11/14/5
f 11/17/6 6/18/6 5/19/6
f 11/17/7 12/20/7 6/18/7
f 13/21/8 9/22/8 8/23/8
f 13/21/8 14/24/8 9/22/8
f 15/25/9 14/26/10 13/27/9
f 15/25/9 16/28/10 14/26/10
f 16/29/11 3/30/11 2/31/11
f 16/29/12 15/32/12 3/30/12
f 17/33/13 18/34/13 19/35/13
f 17/33/13 20/36/13 18/34/13
f 17/37/14 21/38/14 20/39/14
f 17/37/14 22/40/14 21/38/14
f 23/41/15 24/42/15 25/43/15
f 23/41/15 26/44/15 24/42/15
f 23/45/16 27/46/17 26/47/17
f 23/45/16 28/48/16 27/46/17
f 27/49/18 21/50/19 22/51/18
f 27/49/18 28/52/19 21/50/19
f 29/53/20 30/54/20 31/55/20
f 29/53/20 32/56/20 30/54/20
f 32/57/21 19/58/21 18/59/21
f 32/57/21 29/60/21 19/58/21
f 33/61/22 34/62/22 35/63/22
f 33/61/23 36/64/23 34/62/23
f 33/65/24 37/66/24 36/67/24
f 33/65/24 38/68/24 37/66/24
f 39/69/25 40/70/25 41/71/26
f 39/69/25 42/72/27 40/70/25
f 39/73/28 43/74/29 42/75/29
f 39/73/28 44/76/30 43/74/29
f 43/77/31 37/78/31 38/79/31
f 43/77/31 44/80/31 37/78/31
f 45/81/32 41/82/32 40/83/32
f 45/81/33 46/84/33 41/82/33
f 47/85/34 46/86/34 45/87/35
f 47/85/34 48/88/36 46/86/34
f 49/89/37 50/90/37 51/91/38
f 49/89/37 52/92/39 50/90/37
f 49/93/40 53/94/40 52/95/41
f 49/93/40 54/96/42 53/94/40
f 55/97/43 56/98/44 57/99/45
f 55/97/43 58/100/46 56/98/44
f 59/101/47 55/102/47 57/103/48
f 59/101/47 60/104/49 55/102/47
f 60/105/50 53/106/50 54/107/51
f 60/105/50 59/108/52 53/106/50
f 61/109/53 58/110/53 62/111/54
f 61/109/53 56/112/55 58/110/53
f 63/113/56 61/114/56 62/115/57
f 63/113/56 64/116/58 61/114/56
f 63/117/59 50/118/60 64/119/61
f 63/117/59 51/120/62 50/118/60
f 65/121/63 66/122/63 67/123/64
f 65/121/63 68/124/65 66/122/63
f 65/125/66 69/126/66 68/127/66
f 65/125/66 70/128/67 69/126/66
f 71/129/68 72/130/68 73/131/69
f 71/129/68 74/132/70 72/130/68
f 75/133/71 71/134/71 73/135/72
f 75/133/71 76/136/73 71/134/71
f 76/137/74 69/138/74 70/139/75
f 76/137/74 75/140/76 69/138/74
f 77/141/77 74/142/77 78/143/78
f 77/141/77 72/144/79 74/142/77
f 79/145/80 77/146/80 78/147/81
f 79/145/80 80/148/82 77/146/80
f 79/149/83 66/150/84 80/151/85
f 79/149/83 67/152/86 66/150/84
f 31/153/87 25/154/87 24/155/87
f 31/153/87 30/156/87 25/154/87
f 35/157/88 34/158/88 48/159/88
f 35/157/88 48/159/88 47/160/88
f 2/161/89 81/162/89 16/163/89
f 2/164/90 4/165/90 81/166/90
f 4/167/91 6/168/91 81/169/91
f 16/170/92 81/171/92 14/172/92
f 81/173/93 6/174/93 12/175/93
f 14/176/94 81/169/94 9/177/94
f 81/178/95 7/179/95 9/180/95
f 81/181/96 12/182/96 7/183/96
f 18/184/97 82/185/97 32/186/97
f 18/187/98 20/188/98 82/189/98
f 20/190/99 21/191/99 82/185/99
f 32/192/100 82/193/100 30/194/100
f 82/193/101 21/195/101 28/196/101
f 30/197/102 82/198/103 25/199/103
f 82/200/104 23/201/104 25/202/104
f 82/185/105 28/203/105 23/204/105
f 34/205/106 83/206/106 48/207/106
f 34/208/107 36/209/107 83/210/107
f 36/211/108 37/212/108 83/213/108
f 48/214/109 83/215/110 46/216/109
f 83/217/111 37/218/111 44/219/111
f 46/220/112 83/221/112 41/222/112
f 83/223/113 39/224/113 41/225/113
f 83/226/114 44/227/114 39/228/114
f 50/229/115 84/230/116 64/231/115
f 50/232/117 52/233/117 84/234/117
f 52/235/118 53/236/118 84/237/119
f 64/238/120 84/239/120 61/240/120
f 84/241/121 53/242/122 59/243/122
f 61/244/123 84/245/123 56/246/123
f 84/247/124 57/248/124 56/249/124
f 84/250/125 59/251/126 57/252/126
f 66/253/127 85/254/127 80/255/127
f 66/256/128 68/257/128 85/258/128
f 68/259/129 69/260/129 85/261/129
f 80/262/130 85/263/130 77/264/130
f 85/265/131 69/266/131 75/267/131
f 77/268/132 85/269/132 72/270/132
f 85/271/133 73/272/133 72/273/133
f 85/274/134 75/275/134 73/276/134
f 86/277/135 87/278/135 88/279/135
f 86/277/135 89/280/135 87/278/135
f 86/277/135 88/279/135 90/281/135
f 86/277/135 91/282/135 89/280/135
f 86/277/135 90/281/135 92/283/135
f 86/277/135 93/284/135 91/282/135
f 86/277/135 92/283/135 94/285/135
f 86/277/135 95/286/135 93/284/135
f 86/277/135 94/285/135 96/287/135
f 86/277/135 97/288/135 95/286/135
f 86/277/135 96/287/135 98/289/135
f 86/277/135 98/289/135 97/288/135
f 87/278/135 99/290/135 88/279/135
f 87/278/135 89/280/135 100/291/135
f 87/278/135 100/291/135 99/290/135
f 90/281/135 101/292/135 92/283/135
f 90/281/135 88/279/135 102/293/135
f 90/281/135 102/293/135 101/292/135
f 102/293/135 88/279/135 99/290/135
f 91/282/135 93/284/135 103/294/135
f 91/282/135 104/295/135 89/280/135
f 91/282/135 103/294/135 104/295/135
f 104/295/135 100/291/135 89/280/135
f 94/285/135 105/296/135 96/287/135
f 94/285/135 92/283/135 106/297/135
f 94/285/135 106/297/135 105/296/135
f 106/297/135 92/283/135 101/292/135
f 95/286/135 97/288/135 107/298/135
f 95/286/135 108/299/135 93/284/135
f 95/286/135 107/298/135 108/299/135
f 108/299/135 103/294/135 93/284/135
f 98/289/135 96/287/135 109/300/135
f 98/289/135 110/301/135 97/288/135
f 98/289/135 109/300/135 110/301/135
f 110/301/135 107/298/135 97/288/135
f 109/300/135 96/287/135 105/296/135
f 111/302/136 112/303/137 113/304/138
f 111/302/136 114/305/139 112/303/137
f 111/302/136 113/304/138 115/306/140
f 111/302/136 116/307/141 114/305/139
f 111/302/136 115/306/140 117/308/142
f 111/302/136 118/309/143 116/307/141
f 111/302/136 117/308/142 119/310/144
f 111/302/136 119/310/144 118/309/143
f 112/303/137 120/311/145 113/304/138
f 112/303/137 114/305/139 120/311/145
f 115/306/140 121/312/146 117/308/142
f 115/306/140 113/304/138 122/313/147
f 115/306/140 122/313/147 121/312/146
f 113/304/138 120/311/145 122/313/147
f 116/307/141 118/309/143 123/314/148
f 116/307/141 124/315/149 114/305/139
f 116/307/141 123/314/148 124/315/149
f 114/305/139 124/315/149 120/311/145
f 119/310/144 117/308/142 125/316/150
f 119/310/144 126/317/150 118/309/143
f 119/310/144 125/316/150 126/317/150
f 121/312/146 122/313/147 127/318/151
f 121/312/146 128/319/152 117/308/142
f 121/312/146 127/318/151 129/320/153
f 121/312/146 129/320/153 128/319/152
f 117/308/142 128/319/152 125/316/150
f 123/314/148 130/321/154 124/315/149
f 123/314/148 118/309/143 131/322/155
f 123/314/148 132/323/156 130/321/154
f 123/314/148 131/322/155 132/323/156
f 118/309/143 126/317/150 131/322/155
f 124/315/149 130/321/154 120/311/145
f 122/313/147 133/324/157 127/318/151
f 122/313/147 120/311/145 134/325/158
f 122/313/147 134/325/158 133/324/157
f 134/325/158 120/311/145 130/321/154
f 129/320/153 135/326/159 128/319/152
f 125/316/150 136/327/160 126/317/150
f 125/316/150 128/319/152 136/327/160
f 128/319/152 135/326/159 136/327/160
f 132/323/156 131/322/155 137/328/161
f 126/317/150 136/327/160 138/329/162
f 126/317/150 138/329/162 131/322/155
f 131/322/155 138/329/162 137/328/161
