# Blender v2.78 (sub 0) OBJ File: ''
# www.blender.org
mtllib Madeni_para.mtl
o coin:Mesh
v 0.039018 0.076439 -0.196157
v 0.000000 0.076439 -0.200000
v -0.039018 0.076439 -0.196157
v -0.076536 0.076439 -0.184776
v -0.111114 0.076439 -0.166294
v -0.141421 0.076439 -0.141422
v -0.166294 0.076439 -0.111114
v -0.184776 0.076439 -0.076537
v -0.196157 0.076439 -0.039018
v -0.200000 0.076439 0.000000
v -0.196157 0.076439 0.039018
v -0.184776 0.076439 0.076537
v -0.166294 0.076439 0.111114
v -0.141421 0.076439 0.141421
v -0.111114 0.076439 0.166294
v -0.076537 0.076439 0.184776
v -0.039018 0.076439 0.196157
v 0.000000 0.076439 0.200000
v 0.039018 0.076439 0.196157
v 0.076537 0.076439 0.184776
v 0.111114 0.076439 0.166294
v 0.141421 0.076439 0.141421
v 0.166294 0.076439 0.111114
v 0.184776 0.076439 0.076537
v 0.196157 0.076439 0.039018
v 0.200000 0.076439 0.000000
v 0.196157 0.076439 -0.039018
v 0.184776 0.076439 -0.076537
v 0.166294 0.076439 -0.111114
v 0.141421 0.076439 -0.141421
v 0.111114 0.076439 -0.166294
v 0.076537 0.076439 -0.184776
v 0.000000 0.016439 -0.200000
v 0.039018 0.016439 -0.196157
v 0.076537 0.016439 -0.184776
v 0.111114 0.016439 -0.166294
v 0.141421 0.016439 -0.141421
v 0.166294 0.016439 -0.111114
v 0.184776 0.016439 -0.076537
v 0.196157 0.016439 -0.039018
v 0.200000 0.016439 -0.000000
v 0.196157 0.016439 0.039018
v 0.184776 0.016439 0.076537
v 0.166294 0.016439 0.111114
v 0.141421 0.016439 0.141421
v 0.111114 0.016439 0.166294
v 0.076537 0.016439 0.184776
v 0.039018 0.016439 0.196157
v 0.000000 0.016439 0.200000
v -0.039018 0.016439 0.196157
v -0.076537 0.016439 0.184776
v -0.111114 0.016439 0.166294
v -0.141421 0.016439 0.141421
v -0.166294 0.016439 0.111114
v -0.184776 0.016439 0.076537
v -0.196157 0.016439 0.039018
v -0.200000 0.016439 -0.000000
v -0.196157 0.016439 -0.039018
v -0.184776 0.016439 -0.076537
v -0.166294 0.016439 -0.111114
v -0.141421 0.016439 -0.141422
v -0.111114 0.016439 -0.166294
v -0.076536 0.016439 -0.184776
v -0.039018 0.016439 -0.196157
vt 0.2933 0.9804
vt 0.2467 0.9898
vt 0.2001 0.9804
vt 0.1553 0.9526
vt 0.1139 0.9075
vt 0.0777 0.8467
vt 0.0480 0.7726
vt 0.0259 0.6881
vt 0.0123 0.5965
vt 0.0077 0.5011
vt 0.0123 0.4058
vt 0.0259 0.3141
vt 0.0480 0.2296
vt 0.0777 0.1556
vt 0.1139 0.0948
vt 0.1553 0.0496
vt 0.2001 0.0218
vt 0.2467 0.0124
vt 0.2933 0.0218
vt 0.3381 0.0496
vt 0.3795 0.0948
vt 0.4157 0.1556
vt 0.4454 0.2296
vt 0.4675 0.3141
vt 0.4811 0.4058
vt 0.4857 0.5011
vt 0.4811 0.5965
vt 0.4675 0.6881
vt 0.4454 0.7726
vt 0.4157 0.8467
vt 0.3795 0.9075
vt 0.3381 0.9526
vt 0.7548 0.9932
vt 0.7090 0.9838
vt 0.6649 0.9560
vt 0.6243 0.9110
vt 0.5886 0.8504
vt 0.5594 0.7765
vt 0.5377 0.6922
vt 0.5243 0.6007
vt 0.5198 0.5056
vt 0.5243 0.4105
vt 0.5377 0.3190
vt 0.5594 0.2348
vt 0.5886 0.1609
vt 0.6243 0.1002
vt 0.6649 0.0552
vt 0.7090 0.0274
vt 0.7548 0.0181
vt 0.8006 0.0274
vt 0.8447 0.0552
vt 0.8853 0.1002
vt 0.9209 0.1609
vt 0.9502 0.2348
vt 0.9719 0.3190
vt 0.9852 0.4105
vt 0.9898 0.5056
vt 0.9852 0.6007
vt 0.9719 0.6922
vt 0.9502 0.7765
vt 0.9209 0.8504
vt 0.8853 0.9110
vt 0.8447 0.9560
vt 0.8006 0.9838
vt 0.4609 -0.8702
vt 0.5185 -0.8702
vt 0.5185 -0.8017
vt 0.4609 -0.8017
vt 0.5185 -0.7332
vt 0.4609 -0.7332
vt 0.5185 -0.6647
vt 0.4609 -0.6647
vt 0.5185 -0.5961
vt 0.4609 -0.5961
vt 0.5185 -0.5276
vt 0.4609 -0.5276
vt 0.5185 -0.4591
vt 0.4609 -0.4591
vt 0.5185 -0.3906
vt 0.4609 -0.3906
vt 0.5185 -0.3221
vt 0.4609 -0.3221
vt 0.5185 -0.2535
vt 0.4609 -0.2535
vt 0.5185 -0.1850
vt 0.4609 -0.1850
vt 0.5185 -0.1165
vt 0.4609 -0.1165
vt 0.4609 -0.1367
vt 0.5185 -0.1367
vt 0.5185 -0.0243
vt 0.4609 -0.0243
vt 0.5185 0.0881
vt 0.4609 0.0881
vt 0.5185 0.2163
vt 0.4609 0.2163
vt 0.5185 0.3553
vt 0.4609 0.3553
vt 0.5185 0.5000
vt 0.4609 0.5000
vt 0.5185 0.6447
vt 0.4609 0.6447
vt 0.5185 0.7837
vt 0.4609 0.7837
vt 0.5185 0.9119
vt 0.4609 0.9119
vt 0.5185 1.0243
vt 0.4609 1.0243
vt 0.5185 1.1165
vt 0.4609 1.1165
vt 0.5185 1.1850
vt 0.4609 1.1850
vt 0.5185 1.2272
vt 0.4609 1.2272
vt 0.4609 -1.4869
vt 0.5185 -1.4869
vt 0.5185 -1.4184
vt 0.4609 -1.4184
vt 0.5185 -1.3499
vt 0.4609 -1.3499
vt 0.5185 -1.2813
vt 0.4609 -1.2813
vt 0.5185 -1.2128
vt 0.4609 -1.2128
vt 0.5185 -1.1443
vt 0.4609 -1.1443
vt 0.5185 -1.0758
vt 0.4609 -1.0758
vt 0.5185 -1.0073
vt 0.4609 -1.0073
vt 0.4609 -0.9387
vt 0.5185 -0.9387
vn -0.0000 1.0000 0.0000
vn 0.0000 -1.0000 -0.0000
vn 0.0980 0.0000 -0.9952
vn 0.2903 0.0000 -0.9569
vn 0.4714 0.0000 -0.8819
vn 0.6344 0.0000 -0.7730
vn 0.7730 0.0000 -0.6344
vn 0.8819 0.0000 -0.4714
vn 0.9569 0.0000 -0.2903
vn 0.9952 0.0000 -0.0980
vn 0.9952 -0.0000 0.0980
vn 0.9569 -0.0000 0.2903
vn 0.8819 -0.0000 0.4714
vn 0.7730 -0.0000 0.6344
vn 0.6344 -0.0000 0.7730
vn 0.4714 -0.0000 0.8819
vn 0.2903 -0.0000 0.9569
vn 0.0980 -0.0000 0.9952
vn -0.0980 -0.0000 0.9952
vn -0.2903 -0.0000 0.9569
vn -0.4714 -0.0000 0.8819
vn -0.6344 -0.0000 0.7730
vn -0.7730 -0.0000 0.6344
vn -0.8819 -0.0000 0.4714
vn -0.9569 -0.0000 0.2903
vn -0.9952 -0.0000 0.0980
vn -0.9952 0.0000 -0.0980
vn -0.9569 0.0000 -0.2903
vn -0.8819 0.0000 -0.4714
vn -0.7730 0.0000 -0.6344
vn -0.6344 0.0000 -0.7730
vn -0.4714 0.0000 -0.8819
vn -0.0980 0.0000 -0.9952
vn -0.2903 0.0000 -0.9569
usemtl None
s 1
f 1/1/1 2/2/1 3/3/1 4/4/1 5/5/1 6/6/1 7/7/1 8/8/1 9/9/1 10/10/1 11/11/1 12/12/1 13/13/1 14/14/1 15/15/1 16/16/1 17/17/1 18/18/1 19/19/1 20/20/1 21/21/1 22/22/1 23/23/1 24/24/1 25/25/1 26/26/1 27/27/1 28/28/1 29/29/1 30/30/1 31/31/1 32/32/1
f 33/33/2 34/34/2 35/35/2 36/36/2 37/37/2 38/38/2 39/39/2 40/40/2 41/41/2 42/42/2 43/43/2 44/44/2 45/45/2 46/46/2 47/47/2 48/48/2 49/49/2 50/50/2 51/51/2 52/52/2 53/53/2 54/54/2 55/55/2 56/56/2 57/57/2 58/58/2 59/59/2 60/60/2 61/61/2 62/62/2 63/63/2 64/64/2
f 33/65/3 2/66/3 1/67/3 34/68/3
f 34/68/4 1/67/4 32/69/4 35/70/4
f 35/70/5 32/69/5 31/71/5 36/72/5
f 36/72/6 31/71/6 30/73/6 37/74/6
f 37/74/7 30/73/7 29/75/7 38/76/7
f 38/76/8 29/75/8 28/77/8 39/78/8
f 39/78/9 28/77/9 27/79/9 40/80/9
f 40/80/10 27/79/10 26/81/10 41/82/10
f 41/82/11 26/81/11 25/83/11 42/84/11
f 42/84/12 25/83/12 24/85/12 43/86/12
f 43/86/13 24/85/13 23/87/13 44/88/13
f 44/89/14 23/90/14 22/91/14 45/92/14
f 45/92/15 22/91/15 21/93/15 46/94/15
f 46/94/16 21/93/16 20/95/16 47/96/16
f 47/96/17 20/95/17 19/97/17 48/98/17
f 48/98/18 19/97/18 18/99/18 49/100/18
f 49/100/19 18/99/19 17/101/19 50/102/19
f 50/102/20 17/101/20 16/103/20 51/104/20
f 51/104/21 16/103/21 15/105/21 52/106/21
f 52/106/22 15/105/22 14/107/22 53/108/22
f 53/108/23 14/107/23 13/109/23 54/110/23
f 54/110/24 13/109/24 12/111/24 55/112/24
f 55/112/25 12/111/25 11/113/25 56/114/25
f 56/115/26 11/116/26 10/117/26 57/118/26
f 57/118/27 10/117/27 9/119/27 58/120/27
f 58/120/28 9/119/28 8/121/28 59/122/28
f 59/122/29 8/121/29 7/123/29 60/124/29
f 60/124/30 7/123/30 6/125/30 61/126/30
f 61/126/31 6/125/31 5/127/31 62/128/31
f 62/128/32 5/127/32 4/129/32 63/130/32
f 64/131/33 3/132/33 2/66/33 33/65/33
f 63/130/34 4/129/34 3/132/34 64/131/34
