# Blender v2.78 (sub 0) OBJ File: ''
# www.blender.org
mtllib Mum_2D.mtl
o Curve_Curve.2030
v 0.014073 0.015000 -0.144791
v 0.017275 0.015000 -0.139802
v 0.018528 0.015000 -0.150222
v 0.007482 0.015000 -0.133189
v 0.017191 0.015000 -0.132961
v 0.018199 0.015000 -0.125646
v -0.001790 0.015000 -0.114657
v 0.020574 0.015000 -0.115689
v 0.027821 0.015000 -0.093443
v -0.009062 0.015000 -0.102450
v -0.014028 0.015000 -0.095817
v -0.015905 0.015000 -0.091568
v -0.016492 0.015000 -0.087963
v 0.029604 0.015000 -0.085509
v -0.016012 0.015000 -0.083976
v 0.029404 0.015000 -0.080401
v -0.014358 0.015000 -0.078891
v 0.026764 0.015000 -0.074121
v -0.009599 0.015000 -0.071899
v 0.023600 0.015000 -0.069924
v -0.004925 0.015000 -0.067332
v 0.019174 0.015000 -0.066590
v -0.001385 0.015000 -0.064778
v 0.011486 0.015000 -0.062770
v 0.002952 0.015000 -0.062737
v 0.004182 0.015000 -0.061693
v 0.009867 0.015000 -0.061346
v 0.003654 0.015000 -0.061031
v 0.010041 0.015000 -0.060913
v -0.033329 0.015000 -0.060434
v -0.002535 0.015000 -0.060571
v -0.023748 0.015000 -0.061187
v 0.012635 0.015000 -0.060236
v -0.038461 0.015000 -0.058991
v 0.020409 0.015000 -0.059992
v 0.028881 0.015000 -0.058948
v -0.041399 0.015000 -0.057245
v 0.037803 0.015000 -0.056715
v -0.043814 0.015000 -0.055012
v 0.043381 0.015000 -0.054307
v -0.046847 0.015000 -0.050433
v 0.047206 0.015000 -0.051547
v 0.049989 0.015000 -0.048052
v -0.050559 0.015000 -0.041722
v 0.051666 0.015000 -0.043809
v 0.052249 0.015000 -0.038732
v -0.053360 0.015000 -0.029808
v 0.051739 0.015000 -0.032765
v 0.049848 0.015000 -0.024393
v -0.054447 0.015000 -0.017331
v 0.048973 0.015000 -0.018936
v 0.048839 0.015000 -0.016195
v 0.048141 0.015000 -0.013275
v -0.053820 0.015000 -0.005493
v 0.046990 0.015000 -0.011129
v 0.046360 0.015000 -0.008376
v -0.051502 0.015000 0.004499
v 0.045683 0.015000 0.011433
v -0.048863 0.015000 0.009620
v -0.045961 0.015000 0.012974
v -0.045173 0.015000 0.018652
v -0.044812 0.015000 0.036869
v 0.045545 0.015000 0.110649
v -0.044876 0.015000 0.100376
v -0.045485 0.015000 0.110608
v -0.046044 0.015000 0.112800
v 0.049797 0.015000 0.114061
v -0.047791 0.015000 0.113859
v -0.049473 0.015000 0.115600
v 0.052097 0.015000 0.117091
v -0.051256 0.015000 0.119244
v 0.053650 0.015000 0.120498
v -0.052267 0.015000 0.123708
v 0.054486 0.015000 0.125793
v -0.052404 0.015000 0.128436
v 0.053925 0.015000 0.131702
v -0.051586 0.015000 0.132859
v 0.052101 0.015000 0.135679
v -0.050343 0.015000 0.135508
v -0.047312 0.015000 0.139019
v 0.049235 0.015000 0.139148
v 0.043290 0.015000 0.143012
v -0.040075 0.015000 0.143297
v 0.034904 0.015000 0.146034
v -0.030120 0.015000 0.146639
v 0.023958 0.015000 0.148254
v -0.018053 0.015000 0.148914
v 0.009632 0.015000 0.149773
v -0.004502 0.015000 0.149993
v 0.017275 0.000000 -0.139802
v 0.014073 0.000000 -0.144791
v 0.018528 0.000000 -0.150222
v 0.007482 0.000000 -0.133189
v 0.017191 0.000000 -0.132961
v 0.018199 0.000000 -0.125646
v -0.001790 0.000000 -0.114657
v 0.020574 0.000000 -0.115689
v 0.027821 0.000000 -0.093443
v -0.009062 0.000000 -0.102450
v -0.014028 0.000000 -0.095817
v -0.015905 0.000000 -0.091568
v -0.016492 0.000000 -0.087963
v 0.029604 0.000000 -0.085509
v -0.016012 0.000000 -0.083976
v 0.029404 0.000000 -0.080401
v -0.014358 0.000000 -0.078891
v 0.026764 0.000000 -0.074121
v -0.009599 0.000000 -0.071899
v 0.023600 0.000000 -0.069924
v -0.004925 0.000000 -0.067332
v 0.019174 0.000000 -0.066590
v -0.001385 0.000000 -0.064778
v 0.002952 0.000000 -0.062737
v 0.004182 0.000000 -0.061693
v 0.009867 0.000000 -0.061346
v 0.003654 0.000000 -0.061031
v 0.010041 0.000000 -0.060913
v -0.002535 0.000000 -0.060571
v -0.033329 0.000000 -0.060434
v -0.023748 0.000000 -0.061187
v 0.012635 0.000000 -0.060236
v -0.038461 0.000000 -0.058991
v 0.020409 0.000000 -0.059992
v 0.028881 0.000000 -0.058948
v -0.041399 0.000000 -0.057245
v 0.037803 0.000000 -0.056715
v -0.043814 0.000000 -0.055012
v 0.043381 0.000000 -0.054307
v -0.046847 0.000000 -0.050433
v 0.047206 0.000000 -0.051547
v 0.049989 0.000000 -0.048052
v -0.050559 0.000000 -0.041722
v 0.051666 0.000000 -0.043809
v 0.052249 0.000000 -0.038732
v -0.053360 0.000000 -0.029808
v 0.051739 0.000000 -0.032765
v 0.049848 0.000000 -0.024393
v -0.054447 0.000000 -0.017331
v 0.048973 0.000000 -0.018936
v 0.048839 0.000000 -0.016195
v 0.048141 0.000000 -0.013275
v -0.053820 0.000000 -0.005493
v 0.046990 0.000000 -0.011129
v 0.046360 0.000000 -0.008376
v -0.051502 -0.000000 0.004498
v 0.045683 -0.000000 0.011433
v -0.048863 -0.000000 0.009620
v -0.045961 -0.000000 0.012974
v -0.045173 -0.000000 0.018652
v -0.044812 -0.000000 0.036869
v 0.045545 -0.000000 0.110649
v -0.044876 -0.000000 0.100376
v -0.045485 -0.000000 0.110608
v -0.046044 -0.000000 0.112800
v 0.049797 -0.000000 0.114061
v -0.047791 -0.000000 0.113859
v -0.049473 -0.000000 0.115600
v 0.052097 -0.000000 0.117091
v -0.051256 -0.000000 0.119244
v 0.053650 -0.000000 0.120498
v -0.052267 -0.000000 0.123708
v 0.054486 -0.000000 0.125793
v -0.052404 -0.000000 0.128436
v 0.053925 -0.000000 0.131702
v -0.051586 -0.000000 0.132859
v 0.052101 -0.000000 0.135679
v -0.050343 -0.000000 0.135508
v -0.047312 -0.000000 0.139019
v 0.049235 -0.000000 0.139148
v 0.043290 -0.000000 0.143012
v -0.040075 -0.000000 0.143297
v 0.034904 -0.000000 0.146034
v -0.030120 -0.000000 0.146639
v 0.023958 -0.000000 0.148254
v -0.018053 -0.000000 0.148914
v 0.009632 -0.000000 0.149773
v -0.004502 -0.000000 0.149993
v 0.029384 0.000000 -0.088125
v 0.029299 0.015000 -0.088315
v 0.028953 0.015000 -0.078181
v 0.028732 0.000000 -0.077619
v 0.017049 0.015000 -0.137164
v 0.017114 0.000000 -0.138772
v 0.018797 0.015000 -0.121636
v 0.018331 0.000000 -0.123589
v 0.009846 0.015000 -0.060704
v 0.011404 0.000000 -0.062721
v 0.011584 0.015000 -0.062828
v 0.050792 0.015000 -0.047785
v 0.043961 0.000000 -0.054474
v 0.040494 0.015000 -0.055845
v 0.052018 0.015000 -0.033954
v 0.052047 0.000000 -0.035247
v 0.048359 0.015000 -0.013895
v 0.046037 0.015000 -0.008131
v 0.046073 0.000000 -0.009185
v 0.053212 0.015000 0.119027
v 0.053892 -0.000000 0.119829
v 0.046118 0.015000 0.110979
v 0.054640 0.015000 0.128977
v -0.045236 0.015000 0.111913
v -0.045176 -0.000000 0.111866
v -0.050052 0.015000 0.116015
v -0.045239 0.015000 0.014303
v -0.054393 0.015000 -0.022773
v -0.054640 0.000000 -0.018029
v -0.051998 0.015000 0.004683
v -0.049336 0.015000 -0.045677
v -0.050504 0.000000 -0.042620
v -0.043202 0.015000 -0.055782
v -0.043468 0.000000 -0.055620
v -0.012689 0.015000 -0.075508
v -0.004928 0.000000 -0.066916
v -0.002462 0.015000 -0.065348
v -0.016525 0.015000 -0.086416
v -0.016338 0.000000 -0.082742
v 0.012080 0.015000 -0.141863
v 0.012461 0.000000 -0.142620
v -0.005997 0.015000 -0.106851
v 0.018521 0.000000 -0.150108
v 0.022076 0.015000 -0.068344
v 0.021752 0.000000 -0.068095
v 0.009890 0.000000 -0.060675
v 0.024779 0.015000 -0.059688
v 0.025575 0.000000 -0.059582
v 0.045676 -0.000000 0.110721
v 0.051188 0.000000 -0.045881
v 0.048607 0.000000 -0.014498
v 0.053846 -0.000000 0.131957
v 0.049125 0.015000 0.139827
v 0.048369 -0.000000 0.140431
v 0.031425 0.015000 0.147046
v 0.029955 -0.000000 0.147357
v 0.003448 0.015000 0.150191
v 0.001471 -0.000000 0.150222
v -0.024018 0.015000 0.148153
v -0.025724 -0.000000 0.147823
v -0.044486 0.015000 0.141335
v -0.045442 -0.000000 0.140740
v -0.052590 0.015000 0.131044
v -0.052717 -0.000000 0.130205
v -0.050294 -0.000000 0.116672
v -0.045328 -0.000000 0.014039
v -0.051647 -0.000000 0.004999
v -0.033862 0.015000 -0.060898
v -0.033100 0.000000 -0.060997
v 0.004532 0.015000 -0.061033
v 0.004578 0.000000 -0.061094
v -0.015193 0.015000 -0.093911
v -0.014977 0.000000 -0.094341
v -0.006146 0.000000 -0.106668
vt 0.5245 0.7620
vt 0.5324 0.7494
vt 0.5359 0.7754
vt 0.5074 0.7332
vt 0.5320 0.7323
vt 0.5343 0.7140
vt 0.4833 0.6871
vt 0.5399 0.6890
vt 0.5575 0.6331
vt 0.4645 0.6568
vt 0.4517 0.6404
vt 0.4468 0.6298
vt 0.4452 0.6208
vt 0.5617 0.6131
vt 0.4462 0.6109
vt 0.5611 0.6004
vt 0.4503 0.5981
vt 0.5542 0.5847
vt 0.4621 0.5804
vt 0.5460 0.5743
vt 0.4737 0.5688
vt 0.5347 0.5662
vt 0.4826 0.5623
vt 0.5151 0.5569
vt 0.4935 0.5571
vt 0.4966 0.5544
vt 0.5110 0.5533
vt 0.4952 0.5528
vt 0.5114 0.5523
vt 0.4016 0.5525
vt 0.4795 0.5518
vt 0.4259 0.5541
vt 0.5179 0.5505
vt 0.3886 0.5491
vt 0.5376 0.5496
vt 0.5590 0.5467
vt 0.3811 0.5448
vt 0.5815 0.5408
vt 0.3749 0.5393
vt 0.5955 0.5346
vt 0.3671 0.5280
vt 0.6051 0.5276
vt 0.6120 0.5187
vt 0.3574 0.5063
vt 0.6161 0.5080
vt 0.6174 0.4953
vt 0.3499 0.4766
vt 0.6159 0.4804
vt 0.6109 0.4595
vt 0.3467 0.4454
vt 0.6085 0.4459
vt 0.6080 0.4390
vt 0.6062 0.4318
vt 0.3479 0.4158
vt 0.6032 0.4264
vt 0.6015 0.4196
vt 0.3534 0.3907
vt 0.5991 0.3700
vt 0.3599 0.3778
vt 0.3671 0.3693
vt 0.3689 0.3550
vt 0.3692 0.3095
vt 0.5953 0.1218
vt 0.3669 0.1505
vt 0.3650 0.1250
vt 0.3635 0.1195
vt 0.6060 0.1131
vt 0.3590 0.1169
vt 0.3547 0.1126
vt 0.6117 0.1054
vt 0.3501 0.1036
vt 0.6155 0.0968
vt 0.3473 0.0924
vt 0.6174 0.0836
vt 0.3468 0.0806
vt 0.6158 0.0688
vt 0.3488 0.0695
vt 0.6111 0.0589
vt 0.3518 0.0628
vt 0.3594 0.0539
vt 0.6037 0.0503
vt 0.5885 0.0409
vt 0.3775 0.0430
vt 0.5672 0.0336
vt 0.4026 0.0343
vt 0.5394 0.0284
vt 0.4331 0.0282
vt 0.5031 0.0251
vt 0.4673 0.0250
vt 0.2110 0.0511
vt 0.2031 0.0385
vt 0.2146 0.0250
vt 0.1860 0.0673
vt 0.2106 0.0682
vt 0.2129 0.0865
vt 0.1619 0.1133
vt 0.2186 0.1115
vt 0.2361 0.1674
vt 0.1431 0.1436
vt 0.1303 0.1600
vt 0.1254 0.1706
vt 0.1238 0.1796
vt 0.2404 0.1873
vt 0.1249 0.1896
vt 0.2397 0.2001
vt 0.1289 0.2024
vt 0.2328 0.2157
vt 0.1407 0.2200
vt 0.2246 0.2261
vt 0.1524 0.2316
vt 0.2133 0.2343
vt 0.1612 0.2381
vt 0.1937 0.2436
vt 0.1721 0.2434
vt 0.1752 0.2461
vt 0.1896 0.2471
vt 0.1738 0.2477
vt 0.1900 0.2482
vt 0.1582 0.2486
vt 0.0802 0.2479
vt 0.1045 0.2464
vt 0.1965 0.2500
vt 0.0672 0.2514
vt 0.2162 0.2509
vt 0.2376 0.2538
vt 0.0597 0.2556
vt 0.2601 0.2597
vt 0.0535 0.2611
vt 0.2742 0.2659
vt 0.0457 0.2725
vt 0.2837 0.2729
vt 0.2907 0.2817
vt 0.0360 0.2942
vt 0.2948 0.2924
vt 0.2961 0.3051
vt 0.0285 0.3239
vt 0.2946 0.3201
vt 0.2895 0.3409
vt 0.0253 0.3551
vt 0.2871 0.3546
vt 0.2867 0.3614
vt 0.2848 0.3687
vt 0.0265 0.3847
vt 0.2818 0.3740
vt 0.2801 0.3809
vt 0.0320 0.4098
vt 0.2777 0.4304
vt 0.0385 0.4227
vt 0.0457 0.4312
vt 0.0475 0.4454
vt 0.0478 0.4910
vt 0.2740 0.6787
vt 0.0455 0.6499
vt 0.0436 0.6755
vt 0.0421 0.6810
vt 0.2846 0.6874
vt 0.0376 0.6836
vt 0.0333 0.6879
vt 0.2903 0.6950
vt 0.0287 0.6969
vt 0.2941 0.7036
vt 0.0260 0.7080
vt 0.2961 0.7169
vt 0.0255 0.7199
vt 0.2944 0.7317
vt 0.0274 0.7310
vt 0.2897 0.7415
vt 0.0304 0.7376
vt 0.0380 0.7465
vt 0.2823 0.7501
vt 0.2671 0.7596
vt 0.0562 0.7575
vt 0.2458 0.7669
vt 0.0812 0.7662
vt 0.2180 0.7721
vt 0.1117 0.7723
vt 0.1817 0.7754
vt 0.1459 0.7754
vt 0.8467 0.9089
vt 0.9747 0.9084
vt 0.9747 0.9338
vt 0.8467 0.9352
vt 0.9747 0.7879
vt 0.8467 0.7839
vt 0.9747 0.7552
vt 0.9747 0.8265
vt 0.8467 0.8216
vt 0.7508 0.8483
vt 0.7455 0.9749
vt 0.7452 0.8483
vt 0.4490 0.8255
vt 0.4324 0.9520
vt 0.4237 0.8255
vt 0.7960 0.0753
vt 0.6681 0.0721
vt 0.7960 0.0409
vt 0.7960 0.1259
vt 0.7960 0.1406
vt 0.6681 0.1379
vt 0.7960 0.4575
vt 0.6681 0.4594
vt 0.7960 0.4383
vt 0.7960 0.4822
vt 0.5107 0.9514
vt 0.5232 0.8255
vt 0.5232 0.9526
vt 0.9747 0.2660
vt 0.8467 0.0252
vt 0.9747 0.0250
vt 0.9747 0.3538
vt 0.8467 0.3420
vt 0.9747 0.2870
vt 0.9747 0.4124
vt 0.8467 0.4044
vt 0.9747 0.4398
vt 0.8467 0.4394
vt 0.5739 0.9521
vt 0.5934 0.8255
vt 0.5997 0.9520
vt 0.9747 0.5333
vt 0.8467 0.5243
vt 0.9747 0.5080
vt 0.9747 0.6819
vt 0.8467 0.6839
vt 0.9747 0.5881
vt 0.9747 0.7051
vt 0.8467 0.7553
vt 0.9747 0.9593
vt 0.8467 0.9599
vt 0.6684 0.9749
vt 0.6681 0.8483
vt 0.6946 0.8484
vt 0.6946 0.9750
vt 0.3468 0.9520
vt 0.3467 0.8255
vt 0.3843 0.8255
vt 0.3864 0.9520
vt 0.7508 0.9749
vt 0.6681 0.4377
vt 0.6681 0.0456
vt 0.6681 0.0250
vt 0.6681 0.1244
vt 0.6681 0.4897
vt 0.7960 0.5100
vt 0.6681 0.5116
vt 0.7960 0.7964
vt 0.6681 0.7983
vt 0.6681 0.7540
vt 0.7960 0.7503
vt 0.6681 0.6840
vt 0.7960 0.6790
vt 0.6681 0.6152
vt 0.7960 0.6110
vt 0.6681 0.5640
vt 0.7960 0.5616
vt 0.2961 0.8261
vt 0.2961 0.9527
vt 0.2737 0.9524
vt 0.2728 0.8259
vt 0.2352 0.9521
vt 0.2380 0.8256
vt 0.8467 0.2666
vt 0.8467 0.2864
vt 0.2239 0.8255
vt 0.0253 0.9520
vt 0.0260 0.8255
vt 0.0501 0.8255
vt 0.0521 0.9520
vt 0.1473 0.8255
vt 0.1474 0.9520
vt 0.6174 0.8255
vt 0.6174 0.9520
vt 0.9747 0.5524
vt 0.8467 0.5535
vt 0.8467 0.4899
vt 0.8467 0.5875
vt 0.8467 0.7049
vn 0.0000 1.0000 0.0000
vn 0.0000 -1.0000 -0.0000
vn 0.9920 0.0001 -0.1263
vn 0.9916 -0.0009 -0.1296
vn 0.9468 -0.0013 0.3217
vn 0.9421 -0.0012 0.3354
vn 1.0000 -0.0045 0.0013
vn 0.9997 0.0043 0.0261
vn 0.3801 0.0016 -0.9250
vn 0.9769 -0.0035 -0.2139
vn 0.9819 0.0031 -0.1894
vn 0.9175 -0.0070 -0.3977
vn 0.6494 0.0027 0.7605
vn 0.6300 -0.0010 0.7766
vn 0.8856 0.0161 -0.4643
vn 0.5294 -0.0070 -0.8483
vn 0.4159 0.0237 -0.9091
vn 0.9986 -0.0027 0.0533
vn 0.9993 0.0050 0.0377
vn 0.9590 -0.0096 0.2833
vn 0.9830 -0.0189 0.1827
vn 0.9748 -0.0108 0.2230
vn 0.9025 0.0179 -0.4302
vn 0.9301 -0.0139 -0.3672
vn 0.9326 -0.0100 -0.3607
vn 0.9838 0.0063 0.1790
vn -0.9074 -0.0023 -0.4204
vn -0.9157 -0.0102 -0.4016
vn -0.8670 0.0036 -0.4984
vn -0.9545 -0.0006 0.2982
vn -0.9972 0.0101 -0.0747
vn -1.0000 -0.0003 -0.0073
vn -0.9365 -0.0016 0.3506
vn -0.9248 0.0092 -0.3804
vn -0.9469 -0.0081 -0.3216
vn -0.6844 -0.0002 -0.7291
vn -0.6997 -0.0115 -0.7143
vn -0.8396 0.0054 0.5431
vn -0.6655 -0.0155 0.7463
vn -0.6070 0.0162 0.7945
vn -0.9979 0.0136 0.0627
vn -0.9725 -0.0268 0.2312
vn -0.8453 0.0055 -0.5342
vn -0.8378 0.0013 -0.5460
vn -0.8537 0.0028 -0.5208
vn 0.3920 -0.0072 -0.9199
vn 0.6591 0.0019 0.7521
vn 0.6530 0.0019 0.7574
vn 0.9072 0.0010 -0.4206
vn 0.1589 -0.0069 -0.9873
vn 0.1652 -0.0072 -0.9862
vn 0.9357 -0.0129 -0.3524
vn 0.9338 -0.0207 -0.3571
vn 0.9551 0.0039 0.2963
vn 0.9572 -0.0154 0.2889
vn 0.6646 0.0085 0.7471
vn 0.6439 0.0080 0.7650
vn 0.2456 0.0003 0.9694
vn 0.2292 0.0002 0.9734
vn 0.0203 -0.0004 0.9998
vn 0.0047 -0.0004 1.0000
vn -0.1965 -0.0001 0.9805
vn -0.2146 -0.0001 0.9767
vn -0.5808 0.0003 0.8140
vn -0.6035 0.0003 0.7973
vn -0.9699 0.0073 0.2436
vn -0.9763 0.0077 0.2162
vn -0.8846 -0.0036 -0.4663
vn -0.9524 0.0001 0.3050
vn -0.9306 -0.0136 0.3658
vn -0.2512 -0.0025 -0.9679
vn -0.2361 -0.0020 -0.9717
vn -0.9619 0.0022 -0.2733
vn -0.9635 0.0022 -0.2677
vn -0.9304 -0.0134 -0.3663
vn -0.9268 -0.0128 -0.3753
vn -0.8529 0.0031 -0.5221
usemtl None
s off
f 1/1/1 2/2/1 3/3/1
f 4/4/1 2/2/1 1/1/1
f 4/4/1 5/5/1 2/2/1
f 4/4/1 6/6/1 5/5/1
f 7/7/1 6/6/1 4/4/1
f 7/7/1 8/8/1 6/6/1
f 7/7/1 9/9/1 8/8/1
f 10/10/1 9/9/1 7/7/1
f 11/11/1 9/9/1 10/10/1
f 12/12/1 9/9/1 11/11/1
f 13/13/1 9/9/1 12/12/1
f 13/13/1 14/14/1 9/9/1
f 15/15/1 14/14/1 13/13/1
f 15/15/1 16/16/1 14/14/1
f 17/17/1 16/16/1 15/15/1
f 17/17/1 18/18/1 16/16/1
f 19/19/1 18/18/1 17/17/1
f 19/19/1 20/20/1 18/18/1
f 21/21/1 20/20/1 19/19/1
f 21/21/1 22/22/1 20/20/1
f 23/23/1 22/22/1 21/21/1
f 23/23/1 24/24/1 22/22/1
f 25/25/1 24/24/1 23/23/1
f 26/26/1 24/24/1 25/25/1
f 26/26/1 27/27/1 24/24/1
f 28/28/1 27/27/1 26/26/1
f 28/28/1 29/29/1 27/27/1
f 30/30/1 31/31/1 32/32/1
f 31/31/1 29/29/1 28/28/1
f 31/31/1 33/33/1 29/29/1
f 30/30/1 33/33/1 31/31/1
f 34/34/1 33/33/1 30/30/1
f 34/34/1 35/35/1 33/33/1
f 34/34/1 36/36/1 35/35/1
f 37/37/1 36/36/1 34/34/1
f 37/37/1 38/38/1 36/36/1
f 39/39/1 38/38/1 37/37/1
f 39/39/1 40/40/1 38/38/1
f 41/41/1 40/40/1 39/39/1
f 41/41/1 42/42/1 40/40/1
f 41/41/1 43/43/1 42/42/1
f 44/44/1 43/43/1 41/41/1
f 44/44/1 45/45/1 43/43/1
f 44/44/1 46/46/1 45/45/1
f 47/47/1 46/46/1 44/44/1
f 47/47/1 48/48/1 46/46/1
f 47/47/1 49/49/1 48/48/1
f 50/50/1 49/49/1 47/47/1
f 50/50/1 51/51/1 49/49/1
f 50/50/1 52/52/1 51/51/1
f 50/50/1 53/53/1 52/52/1
f 54/54/1 53/53/1 50/50/1
f 54/54/1 55/55/1 53/53/1
f 54/54/1 56/56/1 55/55/1
f 57/57/1 56/56/1 54/54/1
f 57/57/1 58/58/1 56/56/1
f 59/59/1 58/58/1 57/57/1
f 60/60/1 58/58/1 59/59/1
f 61/61/1 58/58/1 60/60/1
f 62/62/1 58/58/1 61/61/1
f 62/62/1 63/63/1 58/58/1
f 64/64/1 63/63/1 62/62/1
f 65/65/1 63/63/1 64/64/1
f 66/66/1 63/63/1 65/65/1
f 66/66/1 67/67/1 63/63/1
f 68/68/1 67/67/1 66/66/1
f 69/69/1 67/67/1 68/68/1
f 69/69/1 70/70/1 67/67/1
f 71/71/1 70/70/1 69/69/1
f 71/71/1 72/72/1 70/70/1
f 73/73/1 72/72/1 71/71/1
f 73/73/1 74/74/1 72/72/1
f 75/75/1 74/74/1 73/73/1
f 75/75/1 76/76/1 74/74/1
f 77/77/1 76/76/1 75/75/1
f 77/77/1 78/78/1 76/76/1
f 79/79/1 78/78/1 77/77/1
f 80/80/1 78/78/1 79/79/1
f 80/80/1 81/81/1 78/78/1
f 80/80/1 82/82/1 81/81/1
f 83/83/1 82/82/1 80/80/1
f 83/83/1 84/84/1 82/82/1
f 85/85/1 84/84/1 83/83/1
f 85/85/1 86/86/1 84/84/1
f 87/87/1 86/86/1 85/85/1
f 87/87/1 88/88/1 86/86/1
f 89/89/1 88/88/1 87/87/1
f 90/90/2 91/91/2 92/92/2
f 90/90/2 93/93/2 91/91/2
f 94/94/2 93/93/2 90/90/2
f 95/95/2 93/93/2 94/94/2
f 95/95/2 96/96/2 93/93/2
f 97/97/2 96/96/2 95/95/2
f 98/98/2 96/96/2 97/97/2
f 98/98/2 99/99/2 96/96/2
f 98/98/2 100/100/2 99/99/2
f 98/98/2 101/101/2 100/100/2
f 98/98/2 102/102/2 101/101/2
f 103/103/2 102/102/2 98/98/2
f 103/103/2 104/104/2 102/102/2
f 105/105/2 104/104/2 103/103/2
f 105/105/2 106/106/2 104/104/2
f 107/107/2 106/106/2 105/105/2
f 107/107/2 108/108/2 106/106/2
f 109/109/2 108/108/2 107/107/2
f 109/109/2 110/110/2 108/108/2
f 111/111/2 110/110/2 109/109/2
f 111/111/2 112/112/2 110/110/2
f 187/113/2 112/112/2 111/111/2
f 187/113/2 113/114/2 112/112/2
f 187/113/2 114/115/2 113/114/2
f 115/116/2 114/115/2 187/113/2
f 115/116/2 116/117/2 114/115/2
f 117/118/2 116/117/2 115/116/2
f 118/119/2 119/120/2 120/121/2
f 117/118/2 118/119/2 116/117/2
f 121/122/2 118/119/2 117/118/2
f 121/122/2 119/120/2 118/119/2
f 121/122/2 122/123/2 119/120/2
f 123/124/2 122/123/2 121/122/2
f 124/125/2 122/123/2 123/124/2
f 124/125/2 125/126/2 122/123/2
f 126/127/2 125/126/2 124/125/2
f 126/127/2 127/128/2 125/126/2
f 128/129/2 127/128/2 126/127/2
f 128/129/2 129/130/2 127/128/2
f 130/131/2 129/130/2 128/129/2
f 131/132/2 129/130/2 130/131/2
f 131/132/2 132/133/2 129/130/2
f 133/134/2 132/133/2 131/132/2
f 134/135/2 132/133/2 133/134/2
f 134/135/2 135/136/2 132/133/2
f 136/137/2 135/136/2 134/135/2
f 137/138/2 135/136/2 136/137/2
f 137/138/2 138/139/2 135/136/2
f 139/140/2 138/139/2 137/138/2
f 140/141/2 138/139/2 139/140/2
f 141/142/2 138/139/2 140/141/2
f 141/142/2 142/143/2 138/139/2
f 143/144/2 142/143/2 141/142/2
f 144/145/2 142/143/2 143/144/2
f 144/145/2 145/146/2 142/143/2
f 146/147/2 145/146/2 144/145/2
f 146/147/2 147/148/2 145/146/2
f 146/147/2 148/149/2 147/148/2
f 146/147/2 149/150/2 148/149/2
f 146/147/2 150/151/2 149/150/2
f 151/152/2 150/151/2 146/147/2
f 151/152/2 152/153/2 150/151/2
f 151/152/2 153/154/2 152/153/2
f 151/152/2 154/155/2 153/154/2
f 155/156/2 154/155/2 151/152/2
f 155/156/2 156/157/2 154/155/2
f 155/156/2 157/158/2 156/157/2
f 158/159/2 157/158/2 155/156/2
f 158/159/2 159/160/2 157/158/2
f 160/161/2 159/160/2 158/159/2
f 160/161/2 161/162/2 159/160/2
f 162/163/2 161/162/2 160/161/2
f 162/163/2 163/164/2 161/162/2
f 164/165/2 163/164/2 162/163/2
f 164/165/2 165/166/2 163/164/2
f 166/167/2 165/166/2 164/165/2
f 166/167/2 167/168/2 165/166/2
f 166/167/2 168/169/2 167/168/2
f 169/170/2 168/169/2 166/167/2
f 170/171/2 168/169/2 169/170/2
f 170/171/2 171/172/2 168/169/2
f 172/173/2 171/172/2 170/171/2
f 172/173/2 173/174/2 171/172/2
f 174/175/2 173/174/2 172/173/2
f 174/175/2 175/176/2 173/174/2
f 176/177/2 175/176/2 174/175/2
f 176/177/2 177/178/2 175/176/2
s 1
f 178/179/3 179/180/4 180/181/5 181/182/6
f 182/183/7 183/184/8 3/185/9
f 184/186/10 185/187/11 182/183/7
f 179/180/4 178/179/3 184/186/10
f 186/188/12 187/189/13 188/190/14
f 189/191/15 190/192/16 191/193/17
f 192/194/18 193/195/19 189/196/15
f 194/197/20 193/195/19 192/194/18
f 195/198/21 196/199/22 194/197/20
f 197/200/23 198/201/24 199/202/25
f 200/203/26 198/201/24 197/200/23
f 201/204/27 202/205/28 203/206/29
f 204/207/30 202/208/28 201/209/27
f 205/210/31 206/211/32 207/212/33
f 208/213/34 209/214/35 205/210/31
f 210/215/36 211/216/37 208/213/34
f 212/217/38 213/218/39 214/219/40
f 215/220/41 216/221/42 212/222/38
f 217/223/43 218/224/44 219/225/45
f 3/226/9 218/224/44 217/223/43
f 3/185/9 183/184/8 220/227/46
f 182/183/7 185/187/11 183/184/8
f 184/186/10 178/179/3 185/187/11
f 181/182/6 180/181/5 221/228/47 222/229/48
f 222/230/48 221/231/47 188/232/14 187/233/13
f 223/234/49 186/235/12 224/236/50 225/237/51
f 186/188/12 223/238/49 187/189/13
f 225/237/51 224/236/50 191/193/17 190/192/16
f 196/199/22 195/198/21 199/202/25 226/239/52
f 189/196/15 227/240/53 190/241/16
f 189/196/15 193/195/19 227/240/53
f 194/197/20 228/242/54 193/195/19
f 194/197/20 196/199/22 228/242/54
f 229/243/55 200/203/26 230/244/56 231/245/57
f 199/202/25 198/201/24 226/239/52
f 200/203/26 229/243/55 198/201/24
f 231/246/57 230/247/56 232/248/58 233/249/59
f 233/249/59 232/248/58 234/250/60 235/251/61
f 235/251/61 234/250/60 236/252/62 237/253/63
f 237/253/63 236/252/62 238/254/64 239/255/65
f 239/256/65 238/257/64 240/258/66 241/259/67
f 241/259/67 240/258/66 203/260/29 242/261/68
f 243/262/69 204/207/30 207/212/33 244/263/70
f 203/260/29 202/264/28 242/261/68
f 204/207/30 243/262/69 202/208/28
f 211/265/37 210/266/36 245/267/71 246/268/72
f 207/212/33 206/211/32 244/263/70
f 205/210/31 209/214/35 206/211/32
f 208/213/34 211/216/37 209/214/35
f 246/268/72 245/267/71 247/269/73 248/270/74
f 248/271/74 247/272/73 214/219/40 213/218/39
f 216/221/42 215/220/41 249/273/75 250/274/76
f 212/222/38 216/221/42 213/275/39
f 250/274/76 249/273/75 219/225/45 251/276/77
f 219/225/45 218/224/44 251/276/77
f 3/226/9 220/277/46 218/224/44
