# Blender v2.78 (sub 0) OBJ File: ''
# www.blender.org
mtllib Nota_2.mtl
o Curve_Curve.2300
v 0.105063 0.015000 -0.149916
v 0.129757 0.015000 -0.098244
v 0.092685 0.015000 -0.149699
v 0.068592 0.015000 -0.147561
v 0.050246 0.015000 -0.145067
v 0.031730 0.015000 -0.141781
v 0.013215 0.015000 -0.137732
v -0.005073 0.015000 -0.132979
v -0.025719 0.015000 -0.126690
v -0.043042 0.015000 -0.120547
v -0.052875 0.015000 -0.116622
v -0.028376 0.015000 -0.039839
v -0.019566 0.015000 -0.042802
v -0.001666 0.015000 -0.047756
v 0.026061 0.015000 -0.054036
v 0.052777 0.015000 -0.058952
v 0.077906 0.015000 -0.062325
v 0.099171 0.015000 -0.064623
v 0.129757 0.015000 -0.067700
v 0.103925 0.015000 -0.064847
v 0.129743 0.015000 0.050297
v 0.104208 0.015000 -0.062435
v 0.104530 0.015000 -0.041158
v 0.104465 0.015000 0.030338
v 0.104049 0.015000 0.038174
v -0.054104 0.015000 0.071215
v 0.076283 0.015000 0.036117
v 0.089995 0.015000 0.035752
v 0.083168 0.015000 0.035545
v 0.096630 0.015000 0.036740
v 0.069433 0.015000 0.037457
v 0.103729 0.015000 0.038653
v 0.062697 0.015000 0.039558
v 0.056433 0.015000 0.042284
v 0.050338 0.015000 0.045745
v 0.045562 0.015000 0.049331
v 0.040864 0.015000 0.053752
v 0.036731 0.015000 0.058664
v 0.033923 0.015000 0.062938
v 0.129182 0.015000 0.074851
v 0.031732 0.015000 0.067324
v 0.030161 0.015000 0.071781
v -0.077919 0.015000 0.068113
v -0.065708 0.015000 0.068553
v -0.072222 0.015000 0.067982
v -0.083732 0.015000 0.068812
v -0.089554 0.015000 0.070055
v -0.059488 0.015000 0.069704
v -0.095318 0.015000 0.071831
v 0.029208 0.015000 0.076271
v -0.101218 0.015000 0.074264
v -0.106209 0.015000 0.076969
v 0.028876 0.015000 0.080753
v 0.128354 0.015000 0.082537
v -0.111781 0.015000 0.080740
v 0.029164 0.015000 0.085190
v -0.118163 0.015000 0.086596
v 0.127335 0.015000 0.085656
v 0.030072 0.015000 0.089541
v 0.123976 0.015000 0.092101
v -0.123270 0.015000 0.093180
v 0.031601 0.015000 0.093767
v 0.121461 0.015000 0.095597
v 0.033751 0.015000 0.097828
v -0.126947 0.015000 0.100285
v 0.116163 0.015000 0.101249
v 0.036524 0.015000 0.101686
v 0.040792 0.015000 0.106146
v -0.128624 0.015000 0.105787
v 0.109191 0.015000 0.106960
v -0.129483 0.015000 0.111316
v 0.044993 0.015000 0.109367
v 0.103657 0.015000 0.110356
v 0.049894 0.015000 0.112350
v 0.096507 0.015000 0.113676
v -0.129185 0.015000 0.118406
v 0.055237 0.015000 0.114698
v -0.031592 0.015000 0.118886
v 0.060080 0.015000 0.116253
v 0.088482 0.015000 0.116121
v 0.083302 0.015000 0.116923
v 0.064816 0.015000 0.116969
v 0.073009 0.015000 0.117390
v -0.128127 0.015000 0.123106
v -0.033540 0.015000 0.122835
v -0.126464 0.015000 0.127576
v -0.035943 0.015000 0.126573
v -0.040076 0.015000 0.131345
v -0.123179 0.015000 0.133015
v -0.045738 0.015000 0.136675
v -0.118747 0.015000 0.137867
v -0.052097 0.015000 0.141264
v -0.113199 0.015000 0.142088
v -0.057204 0.015000 0.144037
v -0.106520 0.015000 0.145669
v -0.062555 0.015000 0.146324
v -0.100798 0.015000 0.147887
v -0.070163 0.015000 0.148492
v -0.094538 0.015000 0.149352
v -0.078278 0.015000 0.149696
v -0.086855 0.015000 0.149947
v 0.129757 0.000000 -0.098244
v 0.105063 0.000000 -0.149916
v 0.129757 0.000000 -0.150059
v 0.092685 0.000000 -0.149699
v 0.068592 0.000000 -0.147561
v 0.050246 0.000000 -0.145067
v 0.031730 0.000000 -0.141781
v 0.013215 0.000000 -0.137732
v -0.005073 0.000000 -0.132979
v -0.025719 0.000000 -0.126690
v -0.043042 0.000000 -0.120547
v -0.052875 0.000000 -0.116622
v -0.028376 0.000000 -0.039839
v -0.019566 0.000000 -0.042802
v -0.001666 0.000000 -0.047756
v 0.026061 0.000000 -0.054036
v 0.052777 0.000000 -0.058952
v 0.077906 0.000000 -0.062325
v 0.099171 0.000000 -0.064623
v 0.129757 0.000000 -0.067700
v 0.103925 0.000000 -0.064847
v 0.129743 -0.000000 0.050297
v 0.104208 0.000000 -0.062435
v 0.104530 0.000000 -0.041158
v -0.028976 -0.000000 0.111841
v 0.104465 -0.000000 0.030338
v 0.104049 -0.000000 0.038174
v 0.089995 -0.000000 0.035752
v 0.076283 -0.000000 0.036117
v 0.083168 -0.000000 0.035545
v 0.096630 -0.000000 0.036740
v 0.069433 -0.000000 0.037457
v 0.103729 -0.000000 0.038653
v 0.062697 -0.000000 0.039558
v 0.056433 -0.000000 0.042284
v 0.050338 -0.000000 0.045745
v 0.045562 -0.000000 0.049331
v 0.040864 -0.000000 0.053752
v 0.036731 -0.000000 0.058664
v 0.033923 -0.000000 0.062938
v 0.129182 -0.000000 0.074851
v 0.031732 -0.000000 0.067324
v 0.030161 -0.000000 0.071781
v -0.065708 -0.000000 0.068553
v -0.077919 -0.000000 0.068113
v -0.072222 -0.000000 0.067982
v -0.083732 -0.000000 0.068812
v -0.089554 -0.000000 0.070055
v -0.059488 -0.000000 0.069704
v -0.095318 -0.000000 0.071831
v 0.029208 -0.000000 0.076271
v -0.101218 -0.000000 0.074264
v -0.106209 -0.000000 0.076969
v 0.028876 -0.000000 0.080753
v 0.128354 -0.000000 0.082537
v -0.111781 -0.000000 0.080740
v 0.029164 -0.000000 0.085190
v -0.118163 -0.000000 0.086596
v 0.127335 -0.000000 0.085656
v 0.030072 -0.000000 0.089541
v 0.123976 -0.000000 0.092101
v -0.123270 -0.000000 0.093180
v 0.031601 -0.000000 0.093767
v 0.121461 -0.000000 0.095597
v 0.033751 -0.000000 0.097828
v -0.126947 -0.000000 0.100285
v 0.116163 -0.000000 0.101249
v 0.036524 -0.000000 0.101686
v 0.040792 -0.000000 0.106145
v -0.128624 -0.000000 0.105787
v 0.109191 -0.000000 0.106960
v -0.129483 -0.000000 0.111316
v 0.044993 -0.000000 0.109367
v 0.103657 -0.000000 0.110356
v 0.049894 -0.000000 0.112350
v 0.096507 -0.000000 0.113676
v -0.129185 -0.000000 0.118406
v 0.055237 -0.000000 0.114698
v -0.031592 -0.000000 0.118886
v 0.060080 -0.000000 0.116253
v 0.088482 -0.000000 0.116121
v 0.083302 -0.000000 0.116923
v 0.064816 -0.000000 0.116969
v 0.073009 -0.000000 0.117390
v -0.128127 -0.000000 0.123106
v -0.033540 -0.000000 0.122835
v -0.126464 -0.000000 0.127576
v -0.035943 -0.000000 0.126573
v -0.040076 -0.000000 0.131345
v -0.123179 -0.000000 0.133015
v -0.045738 -0.000000 0.136675
v -0.118747 -0.000000 0.137867
v -0.052097 -0.000000 0.141264
v -0.113199 -0.000000 0.142088
v -0.057204 -0.000000 0.144037
v -0.106520 -0.000000 0.145669
v -0.062555 -0.000000 0.146324
v -0.100798 -0.000000 0.147887
v -0.070163 -0.000000 0.148492
v -0.094538 -0.000000 0.149352
v -0.078278 -0.000000 0.149696
v -0.086855 -0.000000 0.149947
v 0.064778 0.015000 0.117280
v 0.072393 -0.000000 0.117455
v 0.090352 0.015000 0.116013
v 0.047138 0.015000 0.111212
v 0.055726 -0.000000 0.115275
v 0.033853 0.015000 0.098366
v 0.037956 -0.000000 0.104022
v 0.028621 0.015000 0.083713
v 0.029731 -0.000000 0.089051
v 0.032028 0.015000 0.065782
v 0.029354 -0.000000 0.073464
v 0.045659 0.015000 0.048941
v 0.037485 -0.000000 0.057250
v 0.129757 0.015000 -0.150059
v 0.129714 0.015000 0.065468
v 0.129707 -0.000000 0.067055
v 0.092131 0.015000 0.035526
v 0.076786 -0.000000 0.035955
v 0.065058 0.015000 0.038191
v 0.104214 0.015000 0.038738
v 0.104190 -0.000000 0.038750
v 0.104249 0.015000 -0.064984
v 0.104249 0.000000 -0.065249
v 0.060892 0.015000 -0.060231
v 0.011978 0.015000 -0.051157
v 0.034920 0.000000 -0.056115
v -0.028329 0.015000 -0.040059
v -0.028293 0.000000 -0.040281
v -0.033753 0.015000 0.124113
v -0.029164 -0.000000 0.112622
v -0.028976 0.015000 0.111840
v -0.048386 0.015000 0.138909
v -0.046287 -0.000000 0.137572
v -0.129582 0.015000 0.118778
v -0.125351 -0.000000 0.130021
v -0.123948 0.015000 0.132053
v -0.054107 -0.000000 0.071214
v -0.061806 0.015000 0.069104
v -0.052981 0.015000 -0.116579
v 0.002698 0.015000 -0.135185
v 0.014647 0.000000 -0.138548
v -0.037923 0.015000 -0.122523
v 0.049067 0.015000 -0.145135
v 0.093906 0.015000 -0.149791
v 0.071225 0.000000 -0.147972
v 0.128116 0.015000 0.083885
v 0.128002 -0.000000 0.084201
v 0.123180 0.015000 0.093478
v 0.123090 -0.000000 0.093616
v 0.111629 0.015000 0.105601
v 0.111155 -0.000000 0.105987
v 0.090517 -0.000000 0.115898
v 0.048415 -0.000000 0.046972
v 0.061240 -0.000000 0.039923
v 0.092574 -0.000000 0.035843
v -0.063666 0.015000 0.146954
v -0.064786 -0.000000 0.147316
v -0.035117 -0.000000 0.125513
v -0.081849 0.015000 0.150041
v -0.082858 -0.000000 0.150059
v -0.099644 0.015000 0.148534
v -0.100220 -0.000000 0.148372
v -0.115923 0.015000 0.140381
v -0.116705 -0.000000 0.139782
v -0.129757 -0.000000 0.115903
v -0.126819 0.015000 0.099110
v -0.126321 -0.000000 0.098012
v -0.115743 0.015000 0.083907
v -0.114834 -0.000000 0.083070
v -0.101218 0.015000 0.074079
v -0.100210 -0.000000 0.073629
v -0.081012 0.015000 0.068070
v -0.080052 -0.000000 0.067958
v -0.061933 -0.000000 0.069102
v -0.039556 0.000000 -0.121900
v 0.094059 0.000000 -0.149797
vt 0.4379 0.5220
vt 0.4821 0.4350
vt 0.4821 0.5223
vt 0.4157 0.5217
vt 0.3726 0.5181
vt 0.3397 0.5139
vt 0.3066 0.5083
vt 0.2734 0.5015
vt 0.2407 0.4935
vt 0.2037 0.4829
vt 0.1727 0.4726
vt 0.1551 0.4660
vt 0.1989 0.3366
vt 0.2147 0.3416
vt 0.2468 0.3499
vt 0.2964 0.3605
vt 0.3443 0.3688
vt 0.3893 0.3745
vt 0.4273 0.3783
vt 0.4821 0.3835
vt 0.4358 0.3787
vt 0.4821 0.1847
vt 0.4363 0.3747
vt 0.4369 0.3388
vt 0.1979 0.0810
vt 0.4368 0.2184
vt 0.4361 0.2052
vt 0.1529 0.1495
vt 0.3863 0.2086
vt 0.4109 0.2092
vt 0.3987 0.2096
vt 0.4228 0.2076
vt 0.3741 0.2064
vt 0.4355 0.2044
vt 0.3620 0.2028
vt 0.3508 0.1982
vt 0.3399 0.1924
vt 0.3313 0.1864
vt 0.3229 0.1789
vt 0.3155 0.1706
vt 0.3105 0.1634
vt 0.4811 0.1434
vt 0.3066 0.1560
vt 0.3038 0.1485
vt 0.1102 0.1547
vt 0.1321 0.1540
vt 0.1204 0.1549
vt 0.0998 0.1535
vt 0.0894 0.1514
vt 0.1432 0.1520
vt 0.0791 0.1485
vt 0.3021 0.1410
vt 0.0685 0.1444
vt 0.0596 0.1398
vt 0.3015 0.1334
vt 0.4796 0.1304
vt 0.0496 0.1334
vt 0.3020 0.1259
vt 0.0382 0.1236
vt 0.4778 0.1252
vt 0.3036 0.1186
vt 0.4717 0.1143
vt 0.0290 0.1125
vt 0.3063 0.1115
vt 0.4672 0.1084
vt 0.3102 0.1047
vt 0.0224 0.1005
vt 0.4578 0.0989
vt 0.3152 0.0982
vt 0.3228 0.0906
vt 0.0194 0.0912
vt 0.4453 0.0893
vt 0.0179 0.0819
vt 0.3303 0.0852
vt 0.4354 0.0835
vt 0.3391 0.0802
vt 0.4226 0.0780
vt 0.0184 0.0700
vt 0.3487 0.0762
vt 0.1932 0.0692
vt 0.3573 0.0736
vt 0.4082 0.0738
vt 0.3989 0.0725
vt 0.3658 0.0724
vt 0.3805 0.0717
vt 0.0203 0.0621
vt 0.1897 0.0625
vt 0.0233 0.0545
vt 0.1854 0.0562
vt 0.1780 0.0482
vt 0.0292 0.0454
vt 0.1679 0.0392
vt 0.0371 0.0372
vt 0.1565 0.0315
vt 0.0471 0.0301
vt 0.1473 0.0268
vt 0.0590 0.0241
vt 0.1377 0.0230
vt 0.0693 0.0203
vt 0.1241 0.0193
vt 0.0805 0.0178
vt 0.1096 0.0173
vt 0.0942 0.0168
vt 0.9821 0.1041
vt 0.9379 0.0171
vt 0.9821 0.0168
vt 0.9157 0.0175
vt 0.8726 0.0211
vt 0.8397 0.0253
vt 0.8066 0.0308
vt 0.7734 0.0376
vt 0.7407 0.0456
vt 0.7037 0.0562
vt 0.6727 0.0666
vt 0.6551 0.0732
vt 0.6989 0.2025
vt 0.7147 0.1975
vt 0.7468 0.1892
vt 0.7964 0.1786
vt 0.8443 0.1703
vt 0.8893 0.1647
vt 0.9273 0.1608
vt 0.9821 0.1556
vt 0.9358 0.1604
vt 0.9821 0.3544
vt 0.9363 0.1645
vt 0.9369 0.2003
vt 0.6979 0.4581
vt 0.9368 0.3208
vt 0.9361 0.3340
vt 0.6529 0.3896
vt 0.9109 0.3299
vt 0.8863 0.3305
vt 0.8987 0.3295
vt 0.9228 0.3316
vt 0.8741 0.3328
vt 0.9355 0.3348
vt 0.8620 0.3363
vt 0.8508 0.3409
vt 0.8399 0.3467
vt 0.8313 0.3528
vt 0.8229 0.3602
vt 0.8155 0.3685
vt 0.8105 0.3757
vt 0.9811 0.3958
vt 0.8066 0.3831
vt 0.8038 0.3906
vt 0.6321 0.3852
vt 0.6102 0.3844
vt 0.6204 0.3842
vt 0.5998 0.3856
vt 0.5894 0.3877
vt 0.6432 0.3871
vt 0.5791 0.3907
vt 0.8021 0.3982
vt 0.5685 0.3948
vt 0.5596 0.3993
vt 0.8015 0.4057
vt 0.9796 0.4087
vt 0.5496 0.4057
vt 0.8020 0.4132
vt 0.5382 0.4156
vt 0.9778 0.4140
vt 0.8036 0.4205
vt 0.9717 0.4248
vt 0.5290 0.4266
vt 0.8063 0.4276
vt 0.9672 0.4307
vt 0.8102 0.4345
vt 0.5224 0.4386
vt 0.9578 0.4402
vt 0.8152 0.4410
vt 0.8228 0.4485
vt 0.5194 0.4479
vt 0.9453 0.4499
vt 0.5179 0.4572
vt 0.8303 0.4539
vt 0.9354 0.4556
vt 0.8391 0.4589
vt 0.9226 0.4612
vt 0.5184 0.4691
vt 0.8487 0.4629
vt 0.6932 0.4700
vt 0.8573 0.4655
vt 0.9082 0.4653
vt 0.8989 0.4667
vt 0.8658 0.4667
vt 0.8805 0.4674
vt 0.5203 0.4771
vt 0.6897 0.4766
vt 0.5233 0.4846
vt 0.6854 0.4829
vt 0.6780 0.4909
vt 0.5292 0.4938
vt 0.6679 0.4999
vt 0.5371 0.5019
vt 0.6565 0.5077
vt 0.5471 0.5090
vt 0.6473 0.5123
vt 0.5590 0.5151
vt 0.6377 0.5162
vt 0.5693 0.5188
vt 0.6241 0.5198
vt 0.5805 0.5213
vt 0.6096 0.5219
vt 0.5942 0.5223
vt 0.6025 0.6002
vt 0.6513 0.6130
vt 0.6026 0.6434
vt 0.6026 0.5709
vt 0.6513 0.5851
vt 0.6026 0.7955
vt 0.6513 0.8054
vt 0.6027 0.8185
vt 0.6025 0.7703
vt 0.6513 0.7794
vt 0.6026 0.7405
vt 0.6513 0.7531
vt 0.6027 0.7136
vt 0.6513 0.7267
vt 0.0667 0.9832
vt 0.0180 0.9831
vt 0.0179 0.6296
vt 0.0666 0.6270
vt 0.8204 0.6509
vt 0.7717 0.6251
vt 0.8204 0.6051
vt 0.8204 0.6707
vt 0.7717 0.6707
vt 0.3562 0.5564
vt 0.4049 0.5560
vt 0.3562 0.7308
vt 0.3204 0.6293
vt 0.2717 0.5560
vt 0.3204 0.5560
vt 0.3204 0.7123
vt 0.2717 0.6733
vt 0.3204 0.7809
vt 0.2717 0.7808
vt 0.5179 0.5859
vt 0.5666 0.6065
vt 0.5179 0.6078
vt 0.5180 0.5560
vt 0.5667 0.5590
vt 0.8562 0.6330
vt 0.9050 0.6523
vt 0.8563 0.6559
vt 0.8204 0.8098
vt 0.7717 0.8098
vt 0.8204 0.7971
vt 0.1513 0.8716
vt 0.1026 0.8717
vt 0.1513 0.5560
vt 0.2358 0.6522
vt 0.1871 0.6728
vt 0.2358 0.5821
vt 0.2358 0.7315
vt 0.2358 0.8074
vt 0.1871 0.7691
vt 0.0179 0.5987
vt 0.0666 0.5982
vt 0.0179 0.5811
vt 0.0667 0.5809
vt 0.0180 0.5568
vt 0.0667 0.5560
vt 0.6513 0.6791
vt 0.6026 0.6799
vt 0.6513 0.6436
vt 0.7717 0.5759
vt 0.8204 0.5709
vt 0.7717 0.5984
vt 0.6513 0.5560
vt 0.7717 0.5560
vt 0.5667 0.8577
vt 0.5180 0.8573
vt 0.7717 0.6516
vt 0.4049 0.7309
vt 0.7359 0.6747
vt 0.6871 0.6710
vt 0.6871 0.6448
vt 0.7359 0.6429
vt 0.5667 0.5831
vt 0.6871 0.6139
vt 0.7359 0.6122
vt 0.6871 0.5841
vt 0.7359 0.5831
vt 0.6871 0.5573
vt 0.7359 0.5560
vt 0.9051 0.6696
vt 0.8563 0.6707
vt 0.9050 0.6281
vt 0.8562 0.6002
vt 0.9050 0.5984
vt 0.8563 0.5758
vt 0.9051 0.5745
vt 0.7717 0.7061
vt 0.8204 0.7044
vt 0.8204 0.7303
vt 0.7717 0.7320
vt 0.8204 0.7651
vt 0.7717 0.7667
vt 0.7717 0.7969
vt 0.1871 0.5562
vt 0.2358 0.5560
vt 0.1871 0.5793
vt 0.1026 0.5560
vt 0.1871 0.8077
vt 0.2358 0.8676
vt 0.1871 0.8676
vn 0.0000 1.0000 0.0000
vn -0.0000 -1.0000 -0.0000
vn -0.1319 0.0182 0.9911
vn -0.0054 -0.0048 1.0000
vn 0.2562 0.0082 0.9666
vn -0.5217 0.0163 0.8530
vn -0.3342 -0.0181 0.9423
vn -0.8463 0.0264 0.5321
vn -0.7296 -0.0160 0.6837
vn -0.9963 0.0252 0.0827
vn -0.9638 -0.0292 0.2650
vn -0.9056 0.0271 -0.4232
vn -0.9764 -0.0172 -0.2153
vn -0.6337 0.0240 -0.7732
vn -0.7945 -0.0009 -0.6073
vn 0.7046 -0.0000 -0.7096
vn 0.9991 0.0007 0.0433
vn 0.9988 0.0009 0.0495
vn 0.0980 0.0091 -0.9951
vn -0.1188 0.0142 -0.9928
vn -0.3068 0.0161 -0.9516
vn -0.6100 0.0002 -0.7924
vn -0.6118 -0.0052 -0.7910
vn -0.6717 -0.0131 0.7407
vn -0.6617 -0.0030 0.7497
vn 0.1369 0.0240 0.9903
vn 0.2345 0.0263 0.9718
vn 0.1849 -0.0133 0.9827
vn 0.7970 -0.0116 0.6039
vn 0.7893 -0.0028 0.6140
vn 0.8435 -0.0020 0.5372
vn 0.9776 -0.0131 0.2099
vn 0.9835 0.0009 0.1809
vn 0.5825 0.0091 0.8127
vn 0.6138 0.0055 0.7895
vn -0.9921 0.0018 0.1252
vn -0.8643 -0.0071 0.5030
vn -0.8305 0.0118 0.5569
vn -0.6039 -0.0001 -0.7970
vn -0.6049 -0.0010 -0.7963
vn 0.1621 0.0024 -0.9868
vn -0.8266 -0.0038 -0.5628
vn -0.8240 -0.0036 -0.5666
vn -0.2732 -0.0020 -0.9619
vn -0.2284 0.0184 -0.9734
vn -0.3285 -0.0051 -0.9445
vn -0.1587 -0.0249 -0.9870
vn -0.0482 0.0066 -0.9988
vn -0.1104 0.0116 -0.9938
vn 0.9603 0.0014 0.2788
vn 0.9588 0.0014 0.2841
vn 0.8138 -0.0003 0.5812
vn 0.8126 -0.0003 0.5828
vn 0.5920 0.0010 0.8060
vn 0.5846 0.0012 0.8113
vn 0.2668 -0.0015 0.9638
vn -0.5745 0.0007 -0.8185
vn -0.3888 -0.0062 -0.9213
vn 0.1213 -0.0174 -0.9925
vn 0.3242 -0.0066 0.9460
vn 0.3089 -0.0059 0.9511
vn 0.8236 -0.0220 0.5667
vn 0.0397 0.0007 0.9992
vn 0.0291 0.0006 0.9996
vn -0.2732 -0.0010 0.9620
vn -0.2824 -0.0010 0.9593
vn -0.5987 -0.0039 0.8009
vn -0.6104 -0.0041 0.7920
vn -0.9990 -0.0145 0.0415
vn -0.9245 0.0065 -0.3811
vn -0.9150 0.0059 -0.4034
vn -0.6926 0.0009 -0.7213
vn -0.6796 0.0008 -0.7336
vn -0.4259 0.0002 -0.9048
vn -0.4131 0.0001 -0.9107
vn -0.1183 0.0025 -0.9930
vn -0.1046 0.0027 -0.9945
vn 0.1597 0.0017 -0.9872
vn -0.3337 -0.0032 -0.9427
vn -0.0438 -0.0002 -0.9990
usemtl None
s off
f 1/1/1 2/2/1 217/3/1
f 3/4/1 2/2/1 1/1/1
f 4/5/1 2/2/1 3/4/1
f 5/6/1 2/2/1 4/5/1
f 6/7/1 2/2/1 5/6/1
f 7/8/1 2/2/1 6/7/1
f 8/9/1 2/2/1 7/8/1
f 9/10/1 2/2/1 8/9/1
f 10/11/1 2/2/1 9/10/1
f 11/12/1 2/2/1 10/11/1
f 12/13/1 2/2/1 11/12/1
f 12/13/1 13/14/1 2/2/1
f 13/14/1 14/15/1 2/2/1
f 14/15/1 15/16/1 2/2/1
f 15/16/1 16/17/1 2/2/1
f 16/17/1 17/18/1 2/2/1
f 17/18/1 18/19/1 2/2/1
f 18/19/1 19/20/1 2/2/1
f 18/19/1 20/21/1 19/20/1
f 20/21/1 21/22/1 19/20/1
f 22/23/1 21/22/1 20/21/1
f 23/24/1 21/22/1 22/23/1
f 11/12/1 234/25/1 12/13/1
f 24/26/1 21/22/1 23/24/1
f 25/27/1 21/22/1 24/26/1
f 26/28/1 234/25/1 11/12/1
f 27/29/1 28/30/1 29/31/1
f 27/29/1 30/32/1 28/30/1
f 31/33/1 30/32/1 27/29/1
f 31/33/1 32/34/1 30/32/1
f 33/35/1 32/34/1 31/33/1
f 32/34/1 21/22/1 25/27/1
f 33/35/1 21/22/1 32/34/1
f 34/36/1 21/22/1 33/35/1
f 35/37/1 21/22/1 34/36/1
f 36/38/1 21/22/1 35/37/1
f 37/39/1 21/22/1 36/38/1
f 38/40/1 21/22/1 37/39/1
f 39/41/1 21/22/1 38/40/1
f 39/41/1 40/42/1 21/22/1
f 41/43/1 40/42/1 39/41/1
f 42/44/1 40/42/1 41/43/1
f 43/45/1 44/46/1 45/47/1
f 46/48/1 44/46/1 43/45/1
f 47/49/1 44/46/1 46/48/1
f 47/49/1 48/50/1 44/46/1
f 47/49/1 26/28/1 48/50/1
f 49/51/1 26/28/1 47/49/1
f 49/51/1 234/25/1 26/28/1
f 50/52/1 40/42/1 42/44/1
f 51/53/1 234/25/1 49/51/1
f 52/54/1 234/25/1 51/53/1
f 53/55/1 40/42/1 50/52/1
f 53/55/1 54/56/1 40/42/1
f 55/57/1 234/25/1 52/54/1
f 56/58/1 54/56/1 53/55/1
f 57/59/1 234/25/1 55/57/1
f 56/58/1 58/60/1 54/56/1
f 59/61/1 58/60/1 56/58/1
f 59/61/1 60/62/1 58/60/1
f 61/63/1 234/25/1 57/59/1
f 62/64/1 60/62/1 59/61/1
f 62/64/1 63/65/1 60/62/1
f 64/66/1 63/65/1 62/64/1
f 65/67/1 234/25/1 61/63/1
f 64/66/1 66/68/1 63/65/1
f 67/69/1 66/68/1 64/66/1
f 68/70/1 66/68/1 67/69/1
f 69/71/1 234/25/1 65/67/1
f 68/70/1 70/72/1 66/68/1
f 71/73/1 234/25/1 69/71/1
f 72/74/1 70/72/1 68/70/1
f 72/74/1 73/75/1 70/72/1
f 74/76/1 73/75/1 72/74/1
f 74/76/1 75/77/1 73/75/1
f 76/78/1 234/25/1 71/73/1
f 77/79/1 75/77/1 74/76/1
f 76/78/1 78/80/1 234/25/1
f 79/81/1 75/77/1 77/79/1
f 79/81/1 80/82/1 75/77/1
f 79/81/1 81/83/1 80/82/1
f 82/84/1 81/83/1 79/81/1
f 83/85/1 81/83/1 82/84/1
f 84/86/1 78/80/1 76/78/1
f 84/86/1 85/87/1 78/80/1
f 86/88/1 85/87/1 84/86/1
f 86/88/1 87/89/1 85/87/1
f 86/88/1 88/90/1 87/89/1
f 89/91/1 88/90/1 86/88/1
f 89/91/1 90/92/1 88/90/1
f 91/93/1 90/92/1 89/91/1
f 91/93/1 92/94/1 90/92/1
f 93/95/1 92/94/1 91/93/1
f 93/95/1 94/96/1 92/94/1
f 95/97/1 94/96/1 93/95/1
f 95/97/1 96/98/1 94/96/1
f 97/99/1 96/98/1 95/97/1
f 97/99/1 98/100/1 96/98/1
f 99/101/1 98/100/1 97/99/1
f 99/101/1 100/102/1 98/100/1
f 101/103/1 100/102/1 99/101/1
f 102/104/2 103/105/2 104/106/2
f 102/104/2 105/107/2 103/105/2
f 102/104/2 106/108/2 105/107/2
f 102/104/2 107/109/2 106/108/2
f 102/104/2 108/110/2 107/109/2
f 102/104/2 109/111/2 108/110/2
f 102/104/2 110/112/2 109/111/2
f 102/104/2 111/113/2 110/112/2
f 102/104/2 112/114/2 111/113/2
f 102/104/2 113/115/2 112/114/2
f 102/104/2 114/116/2 113/115/2
f 115/117/2 114/116/2 102/104/2
f 116/118/2 115/117/2 102/104/2
f 117/119/2 116/118/2 102/104/2
f 118/120/2 117/119/2 102/104/2
f 119/121/2 118/120/2 102/104/2
f 120/122/2 119/121/2 102/104/2
f 121/123/2 120/122/2 102/104/2
f 122/124/2 120/122/2 121/123/2
f 123/125/2 122/124/2 121/123/2
f 123/125/2 124/126/2 122/124/2
f 123/125/2 125/127/2 124/126/2
f 126/128/2 113/115/2 114/116/2
f 123/125/2 127/129/2 125/127/2
f 123/125/2 128/130/2 127/129/2
f 126/128/2 240/131/2 113/115/2
f 129/132/2 130/133/2 131/134/2
f 132/135/2 130/133/2 129/132/2
f 132/135/2 133/136/2 130/133/2
f 134/137/2 133/136/2 132/135/2
f 134/137/2 135/138/2 133/136/2
f 123/125/2 134/137/2 128/130/2
f 123/125/2 135/138/2 134/137/2
f 123/125/2 136/139/2 135/138/2
f 123/125/2 137/140/2 136/139/2
f 123/125/2 138/141/2 137/140/2
f 123/125/2 139/142/2 138/141/2
f 123/125/2 140/143/2 139/142/2
f 123/125/2 141/144/2 140/143/2
f 142/145/2 141/144/2 123/125/2
f 142/145/2 143/146/2 141/144/2
f 142/145/2 144/147/2 143/146/2
f 145/148/2 146/149/2 147/150/2
f 145/148/2 148/151/2 146/149/2
f 145/148/2 149/152/2 148/151/2
f 150/153/2 149/152/2 145/148/2
f 240/131/2 149/152/2 150/153/2
f 240/131/2 151/154/2 149/152/2
f 126/128/2 151/154/2 240/131/2
f 142/145/2 152/155/2 144/147/2
f 126/128/2 153/156/2 151/154/2
f 126/128/2 154/157/2 153/156/2
f 142/145/2 155/158/2 152/155/2
f 156/159/2 155/158/2 142/145/2
f 126/128/2 157/160/2 154/157/2
f 156/159/2 158/161/2 155/158/2
f 126/128/2 159/162/2 157/160/2
f 160/163/2 158/161/2 156/159/2
f 160/163/2 161/164/2 158/161/2
f 162/165/2 161/164/2 160/163/2
f 126/128/2 163/166/2 159/162/2
f 162/165/2 164/167/2 161/164/2
f 165/168/2 164/167/2 162/165/2
f 165/168/2 166/169/2 164/167/2
f 126/128/2 167/170/2 163/166/2
f 168/171/2 166/169/2 165/168/2
f 168/171/2 169/172/2 166/169/2
f 168/171/2 170/173/2 169/172/2
f 126/128/2 171/174/2 167/170/2
f 172/175/2 170/173/2 168/171/2
f 126/128/2 173/176/2 171/174/2
f 172/175/2 174/177/2 170/173/2
f 175/178/2 174/177/2 172/175/2
f 175/178/2 176/179/2 174/177/2
f 177/180/2 176/179/2 175/178/2
f 126/128/2 178/181/2 173/176/2
f 177/180/2 179/182/2 176/179/2
f 180/183/2 178/181/2 126/128/2
f 177/180/2 181/184/2 179/182/2
f 182/185/2 181/184/2 177/180/2
f 183/186/2 181/184/2 182/185/2
f 183/186/2 184/187/2 181/184/2
f 183/186/2 185/188/2 184/187/2
f 180/183/2 186/189/2 178/181/2
f 187/190/2 186/189/2 180/183/2
f 187/190/2 188/191/2 186/189/2
f 189/192/2 188/191/2 187/190/2
f 190/193/2 188/191/2 189/192/2
f 190/193/2 191/194/2 188/191/2
f 192/195/2 191/194/2 190/193/2
f 192/195/2 193/196/2 191/194/2
f 194/197/2 193/196/2 192/195/2
f 194/197/2 195/198/2 193/196/2
f 196/199/2 195/198/2 194/197/2
f 196/199/2 197/200/2 195/198/2
f 198/201/2 197/200/2 196/199/2
f 198/201/2 199/202/2 197/200/2
f 200/203/2 199/202/2 198/201/2
f 200/203/2 201/204/2 199/202/2
f 202/205/2 201/204/2 200/203/2
f 202/205/2 203/206/2 201/204/2
s 1
f 204/207/3 205/208/4 206/209/5
f 207/210/6 208/211/7 204/207/3
f 209/212/8 210/213/9 207/214/6
f 211/215/10 212/216/11 209/212/8
f 213/217/12 214/218/13 211/215/10
f 215/219/14 216/220/15 213/217/12
f 104/221/16 217/222/16 218/223/17 219/224/18
f 220/225/19 221/226/20 222/227/21
f 223/228/22 224/229/23 220/225/19
f 225/230/24 226/231/25 223/232/22
f 227/233/26 226/234/25 225/235/24
f 228/236/27 229/237/28 227/233/26
f 230/238/29 231/239/30 228/236/27
f 232/240/31 233/241/32 234/242/33
f 235/243/34 236/244/35 232/240/31
f 237/245/36 238/246/37 239/247/38
f 26/248/39 240/249/40 241/250/41
f 242/251/42 113/252/43 26/253/39
f 243/254/44 244/255/45 245/256/46
f 246/257/47 244/255/45 243/254/44
f 247/258/48 248/259/49 246/257/47
f 219/224/18 218/223/17 249/260/50 250/261/51
f 250/261/51 249/260/50 251/262/52 252/263/53
f 252/263/53 251/262/52 253/264/54 254/265/55
f 254/266/55 253/267/54 206/209/5 255/268/56
f 256/269/57 215/270/14 222/227/21 257/271/58
f 206/209/5 205/208/4 255/268/56
f 204/207/3 208/211/7 205/208/4
f 207/210/6 210/272/9 208/211/7
f 209/212/8 212/216/11 210/213/9
f 211/215/10 214/218/13 212/216/11
f 213/217/12 216/220/15 214/218/13
f 215/270/14 256/269/57 216/273/15
f 231/274/30 230/275/29 234/242/33 233/241/32
f 222/227/21 221/226/20 257/271/58
f 220/225/19 258/276/59 221/226/20
f 220/225/19 224/229/23 258/276/59
f 223/232/22 226/231/25 224/277/23
f 227/233/26 229/237/28 226/234/25
f 228/236/27 231/239/30 229/237/28
f 236/278/35 235/279/34 259/280/60 260/281/61
f 232/240/31 261/282/62 233/241/32
f 232/240/31 236/244/35 261/282/62
f 260/281/61 259/280/60 262/283/63 263/284/64
f 263/284/64 262/283/63 264/285/65 265/286/66
f 265/286/66 264/285/65 266/287/67 267/288/68
f 267/289/68 266/290/67 239/247/38 238/246/37
f 268/291/69 237/245/36 269/292/70 270/293/71
f 237/245/36 268/291/69 238/246/37
f 270/293/71 269/292/70 271/294/72 272/295/73
f 272/296/73 271/297/72 273/298/74 274/299/75
f 274/299/75 273/298/74 275/300/76 276/301/77
f 276/301/77 275/300/76 241/250/41 277/302/78
f 113/303/43 242/304/42 245/256/46 278/305/79
f 241/250/41 240/249/40 277/302/78
f 26/253/39 113/252/43 240/306/40
f 279/307/80 247/258/48 217/308/16 104/309/16
f 245/256/46 244/255/45 278/305/79
f 246/257/47 248/259/49 244/255/45
f 247/258/48 279/307/80 248/259/49
