# Blender v2.78 (sub 0) OBJ File: ''
# www.blender.org
mtllib Ok_isareti.mtl
o Curve_Curve.184
v 0.146770 0.015000 -0.149886
v 0.149400 0.015000 -0.149703
v 0.148593 0.015000 -0.149918
v 0.149772 0.015000 -0.149219
v 0.132686 0.015000 -0.148254
v 0.149957 0.015000 -0.148444
v 0.149857 0.015000 -0.145838
v 0.107633 0.015000 -0.145031
v 0.148124 0.015000 -0.133204
v 0.043788 0.015000 -0.137235
v 0.032007 0.015000 -0.135740
v 0.021678 0.015000 -0.134545
v 0.018446 0.015000 -0.133991
v 0.019357 0.015000 -0.132806
v 0.023132 0.015000 -0.128700
v 0.034925 0.015000 -0.116545
v 0.062719 0.015000 -0.088750
v 0.141338 0.015000 -0.077101
v -0.150056 0.015000 0.123932
v 0.088733 0.015000 -0.062741
v 0.139026 0.015000 -0.058415
v 0.120548 0.015000 -0.030994
v 0.134604 0.015000 -0.021944
v 0.132176 0.015000 -0.019895
v 0.134126 0.015000 -0.019040
v 0.133906 0.015000 -0.018471
v 0.149400 0.000000 -0.149703
v 0.146770 0.000000 -0.149886
v 0.148593 0.000000 -0.149918
v 0.149772 0.000000 -0.149219
v 0.132686 0.000000 -0.148254
v 0.149957 0.000000 -0.148444
v 0.149857 0.000000 -0.145838
v 0.107633 0.000000 -0.145031
v 0.148124 0.000000 -0.133204
v 0.043788 0.000000 -0.137235
v 0.032007 0.000000 -0.135740
v 0.021678 0.000000 -0.134545
v 0.018446 0.000000 -0.133991
v 0.019357 0.000000 -0.132806
v 0.023132 0.000000 -0.128700
v 0.034925 0.000000 -0.116545
v 0.141338 0.000000 -0.077101
v 0.088733 0.000000 -0.062741
v -0.150056 -0.000000 0.123932
v 0.139026 0.000000 -0.058415
v 0.120548 0.000000 -0.030994
v 0.134604 0.000000 -0.021944
v 0.132176 0.000000 -0.019895
v 0.134126 0.000000 -0.019040
v 0.133906 0.000000 -0.018471
v 0.139296 0.000000 -0.060619
v 0.139266 0.015000 -0.060390
v 0.134096 0.015000 -0.018409
v 0.134083 0.000000 -0.018345
v 0.149776 0.015000 -0.149472
v 0.149250 0.000000 -0.149834
v 0.147243 0.015000 -0.149988
v 0.149786 0.015000 -0.146103
v 0.150056 0.000000 -0.148346
v 0.126619 0.015000 -0.025051
v -0.123994 0.015000 0.149988
v -0.124012 -0.000000 0.149970
v 0.062701 0.000000 -0.088768
v 0.145640 0.000000 -0.149789
v 0.018276 0.015000 -0.134063
v 0.123626 0.000000 -0.027965
v 0.032608 0.015000 -0.118866
v 0.032164 0.000000 -0.119313
v 0.018289 0.000000 -0.134061
vt 0.4866 0.0232
vt 0.4822 0.0205
vt 0.4837 0.0211
vt 0.4810 0.0209
vt 0.5078 0.0418
vt 0.4799 0.0221
vt 0.4773 0.0267
vt 0.5450 0.0755
vt 0.4667 0.0503
vt 0.6404 0.1606
vt 0.6579 0.1764
vt 0.6734 0.1900
vt 0.6781 0.1946
vt 0.6754 0.1956
vt 0.6649 0.1984
vt 0.6328 0.2061
vt 0.5582 0.2227
vt 0.4182 0.1544
vt 0.6781 0.8272
vt 0.4884 0.2382
vt 0.4022 0.1891
vt 0.4031 0.2570
vt 0.3707 0.2568
vt 0.3724 0.2630
vt 0.3684 0.2623
vt 0.3681 0.2635
vt 0.6081 0.8428
vt 0.1334 0.8428
vt 0.1379 0.8401
vt 0.1350 0.8422
vt 0.1323 0.8424
vt 0.1590 0.8215
vt 0.1312 0.8412
vt 0.1286 0.8366
vt 0.1963 0.7878
vt 0.1180 0.8130
vt 0.2916 0.7027
vt 0.3092 0.6869
vt 0.3247 0.6733
vt 0.3293 0.6687
vt 0.3266 0.6677
vt 0.3161 0.6649
vt 0.2841 0.6572
vt 0.2095 0.6406
vt 0.0695 0.7089
vt 0.1397 0.6251
vt 0.3293 0.0361
vt 0.0534 0.6742
vt 0.0544 0.6063
vt 0.0219 0.6065
vt 0.0237 0.6003
vt 0.0196 0.6010
vt 0.0194 0.5998
vt 0.2594 0.0205
vt 0.7169 0.7207
vt 0.7789 0.7212
vt 0.7789 0.8080
vt 0.7169 0.8081
vt 0.9806 0.2910
vt 0.9185 0.2899
vt 0.9806 0.2858
vt 0.7789 0.5439
vt 0.7169 0.5393
vt 0.7789 0.5370
vt 0.8798 0.8698
vt 0.8177 0.8492
vt 0.8798 0.8492
vt 0.7789 0.4953
vt 0.7169 0.4952
vt 0.7789 0.0206
vt 0.8177 0.0205
vt 0.8798 0.0205
vt 0.8177 0.4638
vt 0.9185 0.2825
vt 0.9806 0.0205
vt 0.7169 0.5364
vt 0.8177 0.8783
vt 0.8798 0.9795
vt 0.8177 0.9794
vt 0.8798 0.8080
vt 0.8177 0.8081
vt 0.8177 0.7324
vt 0.8798 0.7325
vt 0.7169 0.0205
vt 0.7789 0.9794
vt 0.7169 0.9795
vt 0.7169 0.8920
vt 0.7789 0.8907
vt 0.8798 0.4637
vt 0.7169 0.8492
vt 0.7789 0.8492
vt 0.9186 0.0206
vn 0.0000 1.0000 -0.0000
vn -0.0000 -1.0000 -0.0000
vn 0.9925 -0.0000 0.1221
vn 0.3544 0.0039 0.9351
vn 0.3468 -0.0039 0.9379
vn 0.7730 0.0207 -0.6341
vn 0.5042 -0.0162 -0.8634
vn 0.0338 0.0068 -0.9994
vn 0.9978 0.0082 0.0654
vn 0.9836 -0.0084 -0.1801
vn -0.6850 -0.0003 0.7285
vn 0.0006 -0.0012 1.0000
vn -0.0005 -0.0012 1.0000
vn 0.0010 0.0011 1.0000
vn -1.0000 0.0012 -0.0007
vn -1.0000 0.0011 0.0004
vn -1.0000 0.0000 -0.0000
vn -0.0714 -0.0056 -0.9974
vn -0.9407 0.0001 -0.3392
vn -0.6939 -0.0023 0.7201
vn -0.7174 0.0001 0.6967
vn -0.7179 0.0001 0.6961
vn -0.9406 0.0001 -0.3394
usemtl None
s off
f 1/1/1 2/2/1 3/3/1
f 1/1/1 4/4/1 2/2/1
f 5/5/1 4/4/1 1/1/1
f 5/5/1 6/6/1 4/4/1
f 5/5/1 7/7/1 6/6/1
f 8/8/1 7/7/1 5/5/1
f 8/8/1 9/9/1 7/7/1
f 10/10/1 9/9/1 8/8/1
f 11/11/1 9/9/1 10/10/1
f 12/12/1 9/9/1 11/11/1
f 13/13/1 9/9/1 12/12/1
f 14/14/1 9/9/1 13/13/1
f 15/15/1 9/9/1 14/14/1
f 16/16/1 9/9/1 15/15/1
f 17/17/1 9/9/1 16/16/1
f 17/17/1 18/18/1 9/9/1
f 19/19/1 20/20/1 17/17/1
f 20/20/1 18/18/1 17/17/1
f 20/20/1 21/21/1 18/18/1
f 22/22/1 21/21/1 20/20/1
f 22/22/1 23/23/1 21/21/1
f 24/24/1 23/23/1 22/22/1
f 24/24/1 25/25/1 23/23/1
f 26/26/1 25/25/1 24/24/1
f 19/19/1 62/27/1 20/20/1
f 27/28/2 28/29/2 29/30/2
f 30/31/2 28/29/2 27/28/2
f 30/31/2 31/32/2 28/29/2
f 32/33/2 31/32/2 30/31/2
f 33/34/2 31/32/2 32/33/2
f 33/34/2 34/35/2 31/32/2
f 35/36/2 34/35/2 33/34/2
f 35/36/2 36/37/2 34/35/2
f 35/36/2 37/38/2 36/37/2
f 35/36/2 38/39/2 37/38/2
f 35/36/2 39/40/2 38/39/2
f 35/36/2 40/41/2 39/40/2
f 35/36/2 41/42/2 40/41/2
f 35/36/2 42/43/2 41/42/2
f 35/36/2 64/44/2 42/43/2
f 43/45/2 64/44/2 35/36/2
f 44/46/2 45/47/2 64/44/2
f 43/45/2 44/46/2 64/44/2
f 46/48/2 44/46/2 43/45/2
f 46/48/2 47/49/2 44/46/2
f 48/50/2 47/49/2 46/48/2
f 48/50/2 49/51/2 47/49/2
f 50/52/2 49/51/2 48/50/2
f 50/52/2 51/53/2 49/51/2
f 63/54/2 45/47/2 44/46/2
s 1
f 52/55/3 53/56/3 54/57/4 55/58/5
f 56/59/6 57/60/7 58/61/8
f 59/62/9 60/63/10 56/64/6
f 53/56/3 52/55/3 59/62/9
f 61/65/11 55/66/5 54/67/4
f 62/68/12 63/69/13 20/70/14
f 17/71/15 64/72/16 19/73/17
f 58/61/8 65/74/18 66/75/19
f 56/64/6 60/63/10 57/76/7
f 59/62/9 52/55/3 60/63/10
f 67/77/20 61/65/11 20/78/14 44/79/14
f 61/65/11 67/77/20 55/66/5
f 63/80/13 62/81/12 19/82/17 45/83/17
f 20/70/14 63/69/13 44/84/14
f 64/85/16 17/86/15 68/87/21 69/88/22
f 19/73/17 64/72/16 45/89/17
f 69/88/22 68/87/21 66/90/19 70/91/23
f 66/75/19 65/74/18 70/92/23
f 58/61/8 57/60/7 65/74/18
