# Blender v2.78 (sub 0) OBJ File: ''
# www.blender.org
mtllib Panda.mtl
o Panda_1:polygon1.001
v -0.034839 0.055756 0.093403
v 0.000000 0.112408 -0.260189
v 0.153966 0.119265 -0.215288
v -0.155207 0.147591 -0.233862
v -0.153174 0.295251 -0.233862
v 0.064612 0.387776 -0.219079
v 0.000000 0.267821 -0.294993
v -0.064612 0.387776 -0.219079
v -0.139872 0.085839 -0.095954
v -0.153966 0.119265 -0.215288
v 0.000000 0.077879 0.235343
v -0.119886 0.003170 0.103913
v -0.123607 0.003170 0.175762
v -0.048692 0.075329 0.216803
v -0.064922 0.003170 0.181585
v -0.050587 0.003170 0.111735
v 0.124124 0.003136 -0.114941
v 0.073124 0.003136 -0.114941
v 0.062958 0.003136 -0.203261
v 0.051552 0.084392 -0.222214
v 0.139872 0.085839 -0.095954
v 0.150038 0.095660 -0.207500
v 0.124124 0.003136 -0.193544
v 0.195042 0.146661 -0.010114
v 0.155207 0.147591 -0.233862
v 0.153174 0.295251 -0.233862
v 0.192251 0.318581 -0.009356
v 0.119886 0.003170 0.103913
v 0.000000 0.287050 -0.312981
v 0.000000 0.298387 -0.262119
v -0.033047 0.253934 -0.267253
v -0.040904 0.228296 -0.322664
v 0.033047 0.253934 -0.267253
v 0.135634 0.085839 0.085580
v 0.123607 0.003170 0.175762
v 0.142629 0.083117 0.196472
v 0.064922 0.003170 0.181585
v 0.048692 0.075329 0.216803
v -0.047175 0.055756 -0.095954
v -0.051552 0.084392 -0.222214
v -0.062924 0.003136 -0.203261
v -0.124090 0.003136 -0.114941
v -0.073089 0.003136 -0.114941
v 0.050587 0.003170 0.111735
v 0.034839 0.055756 0.093403
v -0.150003 0.095660 -0.207500
v -0.124090 0.003136 -0.193544
v 0.047175 0.055756 -0.095954
v -0.135634 0.085839 0.085580
v 0.040904 0.228296 -0.322664
v 0.037561 0.196145 0.322664
v 0.037285 0.288807 0.297818
v 0.105171 0.299214 0.263875
v 0.153174 0.311930 0.214908
v 0.064612 0.402456 0.199022
v -0.153174 0.311930 0.214908
v -0.037044 0.288807 0.297818
v -0.142629 0.083117 0.196472
v -0.195042 0.146661 -0.010114
v -0.192251 0.318581 -0.009356
v 0.174711 0.147143 0.064732
v -0.184222 0.315273 0.071900
v -0.064612 0.402456 0.199022
v -0.120850 0.368272 0.149986
v -0.155172 0.392566 0.157670
v 0.120850 0.368272 0.149986
v 0.155172 0.392566 0.157670
v 0.175056 0.432505 0.200883
v 0.172368 0.147591 0.212875
v 0.058478 0.143870 0.294786
v 0.087114 0.449976 -0.009356
v -0.087114 0.449976 -0.009356
v -0.203037 0.363688 0.186961
v -0.175090 0.432505 0.200883
v -0.101036 0.454180 0.171075
v 0.184222 0.315273 0.071900
v -0.044212 0.363930 0.256087
v -0.104930 0.299214 0.263875
v -0.127708 0.189425 0.261773
v -0.037354 0.196145 0.322664
v -0.058478 0.143870 0.294786
v 0.127984 0.189425 0.261773
v -0.149555 0.103448 0.204570
v -0.172368 0.147591 0.212875
v -0.174711 0.147143 0.064732
v 0.149555 0.103448 0.204570
v 0.101036 0.454180 0.171075
v 0.203037 0.363688 0.186961
v 0.044419 0.363930 0.256087
v -0.088562 0.424613 0.085063
v 0.088562 0.424613 0.085063
vt 0.8874 0.3589
vt 0.9184 0.3554
vt 0.8874 0.3766
vt 0.9162 0.3680
vt 0.8874 0.3766
vt 0.9162 0.3680
vt 0.9184 0.3554
vt 0.7888 0.1382
vt 0.8814 0.1296
vt 0.8934 0.1110
vt 0.8934 0.2115
vt 0.9250 0.2542
vt 0.7888 0.2150
vt 0.8934 0.2972
vt 0.7888 0.2934
vt 0.6316 0.2833
vt 0.6316 0.2254
vt 0.9152 0.0879
vt 0.7173 0.0923
vt 0.9184 0.3355
vt 0.8877 0.3351
vt 0.8874 0.3589
vt 0.8441 0.3649
vt 0.8548 0.3747
vt 0.8580 0.3601
vt 0.8687 0.3737
vt 0.8814 0.3598
vt 0.8710 0.3456
vt 0.8558 0.3367
vt 0.8431 0.3509
vt 0.8814 0.1296
vt 0.7888 0.1382
vt 0.8934 0.1110
vt 0.7173 0.0923
vt 0.9152 0.0879
vt 0.7277 0.3573
vt 0.7258 0.3630
vt 0.7413 0.3589
vt 0.7413 0.3668
vt 0.6553 0.3532
vt 0.6405 0.3532
vt 0.6553 0.3747
vt 0.6405 0.3747
vt 0.6749 0.3532
vt 0.6579 0.3532
vt 0.6749 0.3747
vt 0.6579 0.3747
vt 0.6949 0.3747
vt 0.6778 0.3747
vt 0.6949 0.3532
vt 0.6778 0.3532
vt 0.6383 0.3747
vt 0.6237 0.3747
vt 0.6383 0.3532
vt 0.6237 0.3532
vt 0.6316 0.2254
vt 0.6380 0.1417
vt 0.7888 0.2150
vt 0.6971 0.3535
vt 0.6971 0.3737
vt 0.7220 0.3535
vt 0.7220 0.3737
vt 0.6579 0.3532
vt 0.6749 0.3532
vt 0.6579 0.3747
vt 0.6749 0.3747
vt 0.6237 0.3532
vt 0.6383 0.3532
vt 0.6237 0.3747
vt 0.6383 0.3747
vt 0.6778 0.3747
vt 0.6949 0.3747
vt 0.6778 0.3532
vt 0.6949 0.3532
vt 0.6553 0.3747
vt 0.6553 0.3532
vt 0.6405 0.3747
vt 0.6405 0.3532
vt 0.6380 0.1417
vt 0.9184 0.3355
vt 0.8877 0.3351
vt 0.6971 0.3737
vt 0.7220 0.3737
vt 0.6971 0.3535
vt 0.7220 0.3535
vt 0.8065 0.3737
vt 0.8261 0.3737
vt 0.8036 0.3620
vt 0.8273 0.3620
vt 0.8273 0.3620
vt 0.8036 0.3620
vt 0.8264 0.3525
vt 0.8058 0.3557
vt 0.8267 0.3459
vt 0.8061 0.3421
vt 0.7220 0.3737
vt 0.6971 0.3737
vt 0.7220 0.3535
vt 0.6971 0.3535
vt 0.6553 0.3747
vt 0.6405 0.3747
vt 0.6553 0.3532
vt 0.6405 0.3532
vt 0.6579 0.3532
vt 0.6749 0.3532
vt 0.6579 0.3747
vt 0.6749 0.3747
vt 0.6778 0.3747
vt 0.6949 0.3747
vt 0.6778 0.3532
vt 0.6949 0.3532
vt 0.6383 0.3532
vt 0.6237 0.3532
vt 0.6383 0.3747
vt 0.6237 0.3747
vt 0.8934 0.2115
vt 0.6949 0.3747
vt 0.6778 0.3747
vt 0.6949 0.3532
vt 0.6778 0.3532
vt 0.6237 0.3747
vt 0.6383 0.3747
vt 0.6237 0.3532
vt 0.6383 0.3532
vt 0.6971 0.3737
vt 0.6971 0.3535
vt 0.7220 0.3737
vt 0.7220 0.3535
vt 0.6749 0.3532
vt 0.6579 0.3532
vt 0.6749 0.3747
vt 0.6579 0.3747
vt 0.6553 0.3747
vt 0.6405 0.3747
vt 0.6553 0.3532
vt 0.6405 0.3532
vt 0.7277 0.3683
vt 0.7853 0.3487
vt 0.1363 0.5718
vt 0.2066 0.5673
vt 0.1307 0.5994
vt 0.2432 0.5790
vt 0.2020 0.6232
vt 0.2840 0.6232
vt 0.2149 0.6613
vt 0.2711 0.6613
vt 0.2711 0.7266
vt 0.3221 0.7327
vt 0.2764 0.7859
vt 0.3580 0.7410
vt 0.2915 0.8188
vt 0.1273 0.6315
vt 0.1533 0.6590
vt 0.1280 0.7410
vt 0.1643 0.7327
vt 0.2100 0.7859
vt 0.2152 0.7266
vt 0.3708 0.5865
vt 0.3652 0.6005
vt 0.4441 0.5884
vt 0.4577 0.6311
vt 0.5045 0.6307
vt 0.4532 0.7433
vt 0.5045 0.7455
vt 0.5045 0.8245
vt 0.5045 0.8245
vt 0.4441 0.8169
vt 0.5045 0.7455
vt 0.4532 0.7433
vt 0.4577 0.6311
vt 0.3591 0.6315
vt 0.4441 0.5884
vt 0.3690 0.8018
vt 0.4441 0.8169
vt 0.4007 0.7788
vt 0.3580 0.7410
vt 0.3591 0.6315
vt 0.1397 0.9023
vt 0.1703 0.8838
vt 0.1594 0.9306
vt 0.1888 0.8981
vt 0.1971 0.9204
vt 0.2149 0.8815
vt 0.1397 0.9023
vt 0.1594 0.9306
vt 0.1703 0.8838
vt 0.1888 0.8981
vt 0.2149 0.8815
vt 0.1971 0.9204
vt 0.3554 0.5994
vt 0.3331 0.6590
vt 0.5045 0.9317
vt 0.4445 0.8233
vt 0.4445 0.9329
vt 0.3690 0.9181
vt 0.1877 0.8532
vt 0.1877 0.8532
vt 0.3708 0.5865
vt 0.3652 0.6005
vt 0.3501 0.5718
vt 0.2795 0.5673
vt 0.3690 0.8018
vt 0.4007 0.7788
vt 0.1945 0.8188
vt 0.5045 0.6307
vt 0.3690 0.8381
vn 0.7655 0.6125 -0.1969
vn 0.7891 0.3398 -0.5117
vn 0.2112 0.7919 -0.5729
vn 0.4959 0.8649 -0.0781
vn -0.4201 0.9067 -0.0371
vn -0.2659 0.7233 -0.6373
vn -0.7891 0.3398 -0.5117
vn 0.7794 -0.5372 0.3223
vn 0.7569 -0.3062 -0.5774
vn 0.6939 -0.4769 -0.5395
vn -0.1250 -0.5156 -0.8477
vn -0.0000 -0.6833 -0.7301
vn -0.2189 -0.9735 0.0665
vn 0.3907 -0.6096 -0.6897
vn 0.0956 -0.9720 0.2147
vn 0.2657 -0.9630 -0.0449
vn -0.1563 -0.9456 -0.2853
vn 0.0000 -0.6833 -0.7302
vn 0.6623 -0.2110 -0.7189
vn 0.9584 -0.2850 -0.0136
vn -0.6623 -0.2110 -0.7189
vn -0.9667 -0.2558 0.0020
vn -0.9400 0.3381 -0.0449
vn 0.0000 0.1444 -0.9895
vn -0.6406 -0.2949 -0.7090
vn -0.8300 -0.5273 0.1816
vn -0.6939 -0.4769 -0.5395
vn -0.2696 -0.6701 0.6916
vn -0.0000 -0.8511 0.5251
vn -0.1563 -0.9456 -0.2852
vn 0.2656 -0.9630 -0.0449
vn -0.7006 -0.6655 -0.2576
vn -0.5452 -0.7738 -0.3225
vn -0.8400 -0.3594 0.4063
vn -0.4394 -0.6600 0.6093
vn 0.2657 -0.9630 -0.0450
vn 0.3925 -0.6523 -0.6484
vn -0.7006 -0.6654 -0.2576
vn -0.5452 -0.7739 -0.3224
vn -0.8400 -0.3595 0.4064
vn -0.4394 -0.6601 0.6093
vn 0.0293 -0.6232 0.7815
vn 0.4944 -0.7992 0.3419
vn -0.8300 -0.5273 0.1817
vn -0.6407 -0.6836 -0.3496
vn 0.5547 -0.6953 -0.4570
vn -0.2110 -0.8088 0.5489
vn 0.4963 -0.7151 0.4923
vn 0.7568 -0.3063 -0.5774
vn -0.2110 -0.8088 0.5490
vn -0.1250 -0.5157 -0.8476
vn 0.4962 -0.7151 0.4924
vn 0.7795 -0.5372 0.3223
vn 0.4962 -0.7151 0.4923
vn -0.2189 -0.9735 0.0664
vn 0.8030 -0.5862 -0.1075
vn 0.9584 -0.2850 -0.0137
vn 0.9422 0.3323 0.0430
vn 0.3107 -0.6370 -0.7055
vn 0.5881 -0.7717 0.2423
vn -0.5609 -0.8111 -0.1661
vn -0.2111 -0.6764 0.7057
vn -0.3123 0.7672 -0.5602
vn 0.7926 0.5915 -0.1484
vn 0.6485 0.5508 -0.5254
vn 0.7831 0.5994 -0.1659
vn -0.7874 0.6016 -0.1346
vn -0.7930 0.5918 -0.1446
vn -0.5059 0.4708 -0.7228
vn 0.0000 -0.9078 0.4195
vn 0.0000 -0.9076 0.4199
vn 0.4943 -0.7992 0.3420
vn 0.6304 -0.4060 0.6616
vn 0.5881 -0.7717 0.2422
vn 0.8030 -0.5862 -0.1074
vn 0.3107 -0.6371 -0.7054
vn 0.3107 -0.6370 -0.7054
vn 0.8031 -0.5862 -0.1074
vn 0.6738 -0.6601 0.3320
vn 0.2107 -0.7902 -0.5755
vn -0.6939 -0.4770 -0.5395
vn 0.3908 -0.6096 -0.6897
vn -0.8301 -0.5273 0.1816
vn -0.3008 -0.7853 0.5411
vn -0.7464 -0.5822 -0.3224
vn -0.3009 -0.7853 0.5411
vn 0.6738 -0.6601 0.3321
vn 0.2107 -0.7901 -0.5756
vn -0.7464 -0.5823 -0.3224
vn 0.8031 -0.5861 -0.1074
vn -0.9667 -0.2558 0.0019
vn -0.5060 0.4708 -0.7228
vn -0.3123 0.7671 -0.5603
vn -0.8401 -0.3594 0.4063
vn -0.6562 -0.5819 0.4804
vn -0.3323 -0.5004 0.7995
vn 0.2850 -0.4998 0.8179
vn -0.2345 -0.0469 0.9710
vn 0.3244 -0.0195 0.9457
vn 0.1542 0.3416 0.9271
vn 0.5180 0.2990 0.8014
vn 0.2422 0.5936 0.7674
vn 0.6550 0.3206 0.6843
vn 0.1563 0.7483 0.6447
vn -0.8764 -0.1932 0.4411
vn -0.6381 -0.0429 0.7688
vn -0.6541 0.3202 0.6853
vn -0.5180 0.2990 0.8014
vn -0.2422 0.6562 0.7147
vn -0.1543 0.3887 0.9083
vn 0.2421 0.5936 0.7675
vn -0.8400 -0.3595 0.4063
vn -0.6561 -0.5820 0.4804
vn -0.9388 -0.3279 0.1054
vn -0.9275 0.3378 0.1601
vn 0.4023 0.8885 0.2207
vn 0.9295 0.3417 0.1386
vn 0.9650 -0.2285 0.1289
vn 0.8922 -0.2519 0.3749
vn -0.1583 0.7873 0.5959
vn -0.4708 0.8516 0.2305
vn -0.7227 0.6582 0.2110
vn 0.6426 0.0392 -0.7652
vn -0.0195 -0.1855 -0.9825
vn 0.0605 0.3221 -0.9448
vn -0.4123 0.2521 -0.8755
vn -0.5475 0.4732 -0.6902
vn -0.4924 -0.1954 -0.8481
vn -0.6426 0.0392 -0.7652
vn -0.0605 0.3221 -0.9448
vn 0.0195 -0.1855 -0.9824
vn 0.4123 0.2521 -0.8755
vn 0.4924 -0.1954 -0.8481
vn 0.5470 0.4747 -0.6896
vn 0.6037 -0.5724 0.5549
vn 0.8923 -0.2518 0.3748
vn 0.6390 -0.0430 0.7680
vn 0.3244 -0.0196 0.9457
vn 0.5180 0.2991 0.8014
vn -0.1582 0.7873 0.5959
vn -0.4764 0.0156 0.8791
vn -0.0938 0.2502 0.9636
vn 0.1658 0.5564 0.8142
vn -0.1656 0.5564 0.8143
vn 0.0938 0.2502 0.9636
vn 0.6549 0.3206 0.6843
vn 0.4767 0.0155 0.8789
vn 0.8922 -0.2518 0.3749
vn 0.1563 0.7482 0.6448
vn 0.7227 0.6582 0.2110
vn 0.9295 0.3417 0.1387
vn -0.2421 0.6562 0.7147
vn -0.5180 0.2991 0.8014
vn -0.2344 -0.0469 0.9710
vn 0.6549 0.3207 0.6843
vn -0.2810 -0.6518 -0.7044
vn -0.4925 -0.1954 -0.8481
vn -0.0195 -0.1856 -0.9824
vn 0.2850 -0.4997 0.8179
vn 0.2810 -0.6518 -0.7044
vn 0.0196 -0.1856 -0.9824
vn 0.4925 -0.1954 -0.8481
vn -0.2422 0.6561 0.7147
vn -0.4707 0.8516 0.2305
vn -0.4202 0.9067 -0.0371
vn 0.4023 0.8885 0.2206
usemtl None
s 1
f 27/1/1 26/2/1 71/3/1
f 26/2/2 6/4/3 71/3/4
f 71/3/4 6/4/3 72/5/5
f 6/4/3 8/6/6 72/5/5
f 72/5/5 8/6/6 5/7/7
f 21/8/8 22/9/9 3/10/10
f 22/9/9 20/11/11 3/10/10
f 3/10/10 20/11/11 2/12/12
f 20/11/11 48/13/13 2/12/12
f 40/14/14 2/12/12 39/15/15
f 2/12/12 48/13/13 39/15/15
f 39/15/15 48/13/13 1/16/16
f 48/13/13 45/17/17 1/16/16
f 2/12/18 25/18/19 3/10/10
f 25/18/19 24/19/20 3/10/10
f 3/10/10 24/19/20 21/8/8
f 4/20/21 59/21/22 5/7/7
f 59/21/22 60/22/23 5/7/7
f 5/7/7 60/22/23 72/5/5
f 8/23/6 6/24/3 7/25/24
f 6/24/3 26/26/2 7/25/24
f 7/25/24 26/26/2 25/27/19
f 2/28/12 4/29/21 7/25/24
f 4/29/21 5/30/7 7/25/24
f 7/25/24 5/30/7 8/23/6
f 46/31/25 9/32/26 10/33/27
f 9/32/26 59/34/22 10/33/27
f 10/33/27 59/34/22 4/35/21
f 38/36/28 11/37/29 45/38/30
f 11/37/29 1/39/31 45/38/30
f 49/40/32 12/41/33 58/42/34
f 12/41/33 13/43/35 58/42/34
f 1/44/36 16/45/37 49/46/38
f 16/45/37 12/47/39 49/46/38
f 58/48/40 13/49/41 14/50/42
f 13/49/41 15/51/43 14/50/42
f 14/52/42 15/53/43 1/54/16
f 15/53/43 16/55/37 1/54/16
f 1/56/31 49/57/32 39/58/15
f 49/57/32 9/32/44 39/58/15
f 19/59/45 23/60/46 18/61/47
f 23/60/46 17/62/48 18/61/47
f 19/63/45 20/64/11 23/65/46
f 20/64/11 22/66/49 23/65/46
f 18/67/50 48/68/13 19/69/45
f 48/68/13 20/70/51 19/69/45
f 17/71/52 21/72/53 18/73/47
f 21/72/53 48/74/13 18/73/47
f 22/75/9 21/76/8 23/77/46
f 21/76/8 17/78/54 23/77/46
f 48/13/55 21/8/8 34/79/56
f 21/8/8 24/19/57 34/79/56
f 25/80/19 26/2/2 24/81/20
f 26/2/2 27/1/58 24/81/20
f 28/82/59 35/83/60 44/84/61
f 35/83/60 37/85/62 44/84/61
f 29/86/63 30/87/64 50/88/65
f 30/87/64 33/89/66 50/88/65
f 30/87/67 29/86/63 31/90/68
f 29/86/63 32/91/69 31/90/68
f 31/92/70 32/93/71 33/94/70
f 32/93/71 50/95/71 33/94/70
f 13/96/41 12/97/33 15/98/72
f 12/97/33 16/99/37 15/98/72
f 36/100/73 35/101/74 34/102/75
f 35/101/74 28/103/76 34/102/75
f 44/104/61 45/105/17 28/106/77
f 45/105/17 34/107/78 28/106/77
f 35/108/60 36/109/73 37/110/62
f 36/109/73 38/111/28 37/110/62
f 39/112/15 43/113/79 40/114/14
f 43/113/79 41/115/80 40/114/14
f 46/31/25 10/33/81 40/116/82
f 10/33/81 2/12/12 40/116/82
f 9/117/83 42/118/84 39/119/15
f 42/118/84 43/120/79 39/119/15
f 37/121/62 38/122/28 44/123/61
f 38/122/28 45/124/30 44/123/61
f 47/125/85 41/126/80 42/127/86
f 41/126/80 43/128/87 42/127/86
f 40/129/14 41/130/88 46/131/25
f 41/130/88 47/132/89 46/131/25
f 46/133/25 47/134/89 9/135/44
f 47/134/89 42/136/84 9/135/44
f 1/39/36 11/37/29 14/137/42
f 2/28/12 7/25/24 25/27/19
f 45/17/17 48/13/55 34/79/90
f 59/34/91 9/32/26 49/57/32
f 4/35/21 2/12/18 10/33/27
f 50/95/65 32/93/92 29/138/93
f 58/139/94 14/140/42 83/141/95
f 14/140/42 11/142/29 83/141/95
f 83/141/95 11/142/29 81/143/96
f 11/142/29 70/144/97 81/143/96
f 81/143/96 70/144/97 80/145/98
f 70/144/97 51/146/99 80/145/98
f 80/145/98 51/146/99 52/147/100
f 51/146/99 53/148/101 52/147/100
f 52/147/100 53/148/101 89/149/102
f 53/148/101 54/150/103 89/149/102
f 89/149/102 54/150/103 55/151/104
f 83/141/95 81/143/96 84/152/105
f 81/143/96 79/153/106 84/152/105
f 84/152/105 79/153/106 56/154/107
f 79/153/106 78/155/108 56/154/107
f 56/154/107 78/155/108 77/156/109
f 78/155/108 57/157/110 77/156/109
f 77/156/109 57/157/110 89/149/111
f 57/157/110 52/147/100 89/149/111
f 58/158/112 83/159/113 49/160/38
f 83/159/113 85/161/114 49/160/38
f 49/160/38 85/161/114 59/162/22
f 85/161/114 62/163/115 59/162/22
f 59/162/22 62/163/115 60/164/23
f 62/163/115 72/165/5 60/164/23
f 71/166/4 91/167/116 27/168/58
f 91/167/116 76/169/117 27/168/58
f 27/168/58 76/169/117 61/170/118
f 76/169/117 69/171/119 61/170/118
f 61/170/118 69/171/119 34/172/56
f 63/173/120 90/174/121 64/175/122
f 90/174/121 62/163/115 64/175/122
f 64/175/122 62/163/115 56/176/107
f 62/163/115 84/177/105 56/176/107
f 63/178/123 64/179/124 75/180/125
f 64/179/124 65/181/126 75/180/125
f 75/180/125 65/181/126 74/182/127
f 65/181/126 73/183/128 74/182/127
f 55/184/129 87/185/130 66/186/131
f 87/185/130 67/187/132 66/186/131
f 66/186/131 67/187/132 88/188/133
f 67/187/132 68/189/134 88/188/133
f 86/190/135 69/171/136 70/144/97
f 69/171/136 82/191/137 70/144/97
f 70/144/97 82/191/137 51/146/138
f 82/191/137 53/148/139 51/146/138
f 71/166/4 72/192/5 91/193/116
f 72/192/5 90/194/121 91/193/116
f 91/193/116 90/194/121 63/195/140
f 73/183/141 56/196/107 74/182/142
f 56/196/107 63/178/120 74/182/142
f 74/182/142 63/178/120 75/180/143
f 87/185/144 55/184/104 68/189/145
f 55/184/104 54/197/146 68/189/145
f 68/189/145 54/197/146 88/188/147
f 36/198/73 34/172/75 86/199/135
f 34/172/75 69/171/148 86/199/135
f 36/200/73 86/190/135 38/201/28
f 86/190/135 11/142/29 38/201/28
f 55/202/149 66/203/150 91/167/116
f 66/203/150 76/169/117 91/167/116
f 66/203/150 54/150/146 76/169/151
f 54/150/146 69/171/119 76/169/151
f 56/154/107 77/156/152 63/204/120
f 77/156/152 55/151/104 63/204/120
f 78/155/153 79/153/106 80/145/154
f 79/153/106 81/143/96 80/145/154
f 52/147/100 57/157/110 80/145/154
f 57/157/110 78/155/153 80/145/154
f 69/171/148 54/150/155 82/191/137
f 54/150/155 53/148/139 82/191/137
f 34/172/56 24/205/57 61/170/118
f 24/205/57 27/168/58 61/170/118
f 56/196/156 73/183/157 64/179/158
f 73/183/157 65/181/126 64/179/158
f 83/159/95 84/177/105 85/161/114
f 84/177/105 62/163/115 85/161/114
f 86/190/135 70/144/159 11/142/29
f 87/185/130 68/189/134 67/187/132
f 54/197/160 66/186/161 88/188/162
f 55/151/104 77/156/163 89/149/102
f 90/174/164 72/165/165 62/163/115
f 55/206/104 91/193/166 63/195/140
