# Blender v2.78 (sub 0) OBJ File: ''
# www.blender.org
mtllib para_cantasi.mtl
o Curve_Curve.3423
v -0.012570 0.015000 -0.148228
v -0.003055 0.015000 -0.149511
v -0.006632 0.015000 -0.149861
v 0.003011 0.015000 -0.147016
v -0.021763 0.015000 -0.143115
v 0.009511 0.015000 -0.142839
v -0.082140 0.015000 -0.141732
v -0.067820 0.015000 -0.141160
v -0.075889 0.015000 -0.142132
v -0.085299 0.015000 -0.140862
v 0.054769 0.015000 -0.139690
v 0.068066 0.015000 -0.141542
v 0.062030 0.015000 -0.141765
v 0.074361 0.015000 -0.139141
v -0.089419 0.015000 -0.138713
v -0.061049 0.015000 -0.138088
v 0.018774 0.015000 -0.135605
v -0.034004 0.015000 -0.134426
v 0.079835 0.015000 -0.135286
v -0.095484 0.015000 -0.133203
v 0.041803 0.015000 -0.133177
v -0.052775 0.015000 -0.132786
v 0.024131 0.015000 -0.132216
v 0.085501 0.015000 -0.129534
v -0.040957 0.015000 -0.130788
v 0.036005 0.015000 -0.130962
v 0.028831 0.015000 -0.130524
v -0.098788 0.015000 -0.128731
v -0.047535 0.015000 -0.130531
v 0.032402 0.015000 -0.130363
v -0.044834 0.015000 -0.130145
v 0.086995 0.015000 -0.126484
v -0.099033 0.015000 -0.126712
v 0.085403 0.015000 -0.124075
v -0.099582 0.015000 -0.124823
v -0.096514 0.015000 -0.119672
v 0.074511 0.015000 -0.111649
v -0.083195 0.015000 -0.104212
v 0.043996 0.015000 -0.079520
v -0.061093 0.015000 -0.080156
v -0.058190 0.015000 -0.076242
v -0.059989 0.015000 -0.074260
v 0.059580 0.015000 -0.069689
v -0.068570 0.015000 -0.068281
v 0.069918 0.015000 -0.062054
v -0.082314 0.015000 -0.055916
v 0.079206 0.015000 -0.054064
v 0.087554 0.015000 -0.045618
v -0.093090 0.015000 -0.044640
v 0.095048 0.015000 -0.036626
v -0.100151 0.015000 -0.036288
v 0.101686 0.015000 -0.027115
v -0.107274 0.015000 -0.025069
v 0.108827 0.015000 -0.014840
v -0.113434 0.015000 -0.012612
v 0.114654 0.015000 -0.002742
v -0.117119 0.015000 -0.002797
v -0.120119 0.015000 0.007359
v 0.119072 0.015000 0.009157
v -0.122925 0.015000 0.021703
v 0.122834 0.015000 0.024229
v -0.124469 0.015000 0.037082
v 0.124645 0.015000 0.040432
v -0.124792 0.015000 0.053550
v 0.124913 0.015000 0.054854
v 0.124115 0.015000 0.067753
v -0.124152 0.015000 0.067268
v 0.122223 0.015000 0.079340
v -0.121930 0.015000 0.079735
v 0.119176 0.015000 0.089860
v -0.117434 0.015000 0.093276
v 0.114898 0.015000 0.099526
v -0.113539 0.015000 0.101505
v 0.109323 0.015000 0.108540
v -0.108045 0.015000 0.110137
v 0.101019 0.015000 0.118588
v -0.101462 0.015000 0.118126
v -0.093923 0.015000 0.125309
v 0.092810 0.015000 0.125826
v 0.082909 0.015000 0.132549
v -0.083639 0.015000 0.132802
v 0.067275 0.015000 0.139805
v -0.068491 0.015000 0.140222
v 0.049008 0.015000 0.145139
v -0.054821 0.015000 0.144691
v -0.042867 0.015000 0.147285
v 0.028067 0.015000 0.148562
v -0.029734 0.015000 0.149011
v 0.004804 0.015000 0.150079
v -0.015097 0.015000 0.149940
v -0.003055 0.000000 -0.149511
v -0.012570 0.000000 -0.148228
v -0.006632 0.000000 -0.149861
v 0.003011 0.000000 -0.147016
v -0.021763 0.000000 -0.143115
v 0.009511 0.000000 -0.142839
v -0.067820 0.000000 -0.141160
v -0.082140 0.000000 -0.141732
v -0.075889 0.000000 -0.142132
v -0.085299 0.000000 -0.140862
v 0.068066 0.000000 -0.141542
v 0.054769 0.000000 -0.139690
v 0.062030 0.000000 -0.141765
v 0.074361 0.000000 -0.139141
v -0.089419 0.000000 -0.138713
v -0.061049 0.000000 -0.138088
v 0.018774 0.000000 -0.135605
v -0.034004 0.000000 -0.134426
v 0.079835 0.000000 -0.135286
v -0.095484 0.000000 -0.133203
v 0.041803 0.000000 -0.133177
v -0.052775 0.000000 -0.132786
v 0.024131 0.000000 -0.132216
v 0.085501 0.000000 -0.129534
v -0.040957 0.000000 -0.130788
v 0.036005 0.000000 -0.130962
v 0.028831 0.000000 -0.130524
v -0.098788 0.000000 -0.128731
v -0.047535 0.000000 -0.130531
v 0.032402 0.000000 -0.130363
v -0.044834 0.000000 -0.130145
v 0.086995 0.000000 -0.126484
v -0.099033 0.000000 -0.126712
v 0.085403 0.000000 -0.124075
v -0.099582 0.000000 -0.124823
v -0.096514 0.000000 -0.119672
v 0.074511 0.000000 -0.111649
v -0.083195 0.000000 -0.104212
v 0.043996 0.000000 -0.079520
v -0.061093 0.000000 -0.080156
v -0.058190 0.000000 -0.076242
v -0.059989 0.000000 -0.074260
v 0.059580 0.000000 -0.069689
v -0.068570 0.000000 -0.068281
v 0.069918 0.000000 -0.062054
v -0.082314 0.000000 -0.055916
v 0.079206 0.000000 -0.054064
v 0.087554 0.000000 -0.045618
v -0.093090 0.000000 -0.044640
v 0.095048 0.000000 -0.036626
v -0.100151 0.000000 -0.036288
v 0.101686 0.000000 -0.027116
v -0.107274 0.000000 -0.025069
v 0.108827 0.000000 -0.014840
v -0.113434 0.000000 -0.012612
v 0.114654 0.000000 -0.002742
v -0.117119 0.000000 -0.002797
v -0.120119 -0.000000 0.007359
v 0.119072 -0.000000 0.009157
v -0.122925 -0.000000 0.021703
v 0.122834 -0.000000 0.024229
v -0.124469 -0.000000 0.037082
v 0.124645 -0.000000 0.040432
v -0.124792 -0.000000 0.053550
v 0.124913 -0.000000 0.054854
v 0.124115 -0.000000 0.067753
v -0.124152 -0.000000 0.067268
v 0.122223 -0.000000 0.079340
v -0.121930 -0.000000 0.079735
v 0.119176 -0.000000 0.089860
v -0.117434 -0.000000 0.093276
v 0.114898 -0.000000 0.099526
v -0.113539 -0.000000 0.101505
v 0.109323 -0.000000 0.108540
v -0.108045 -0.000000 0.110137
v 0.101019 -0.000000 0.118588
v -0.101462 -0.000000 0.118126
v -0.093923 -0.000000 0.125309
v 0.092810 -0.000000 0.125826
v 0.082909 -0.000000 0.132549
v -0.083639 -0.000000 0.132802
v 0.067275 -0.000000 0.139805
v -0.068491 -0.000000 0.140222
v 0.049008 -0.000000 0.145139
v -0.054821 -0.000000 0.144691
v -0.042867 -0.000000 0.147285
v 0.028067 -0.000000 0.148562
v -0.029734 -0.000000 0.149011
v 0.004804 -0.000000 0.150079
v -0.015097 -0.000000 0.149940
v 0.034453 0.015000 -0.130201
v 0.025572 0.000000 -0.131128
v 0.023548 0.015000 -0.132277
v 0.067829 0.015000 -0.141591
v 0.065660 0.000000 -0.142141
v 0.058269 0.015000 -0.141217
v 0.087489 0.015000 -0.126272
v 0.087377 0.000000 -0.126769
v 0.077473 0.015000 -0.137415
v 0.044630 0.000000 -0.079141
v 0.077014 0.015000 -0.056660
v 0.073914 0.000000 -0.059341
v 0.105613 0.015000 -0.022033
v 0.097373 0.000000 -0.033846
v 0.123714 0.015000 0.025309
v 0.115729 0.000000 -0.001203
v 0.123325 0.015000 0.077015
v 0.124688 -0.000000 0.062957
v -0.005033 0.000000 -0.150049
v -0.005390 0.015000 -0.150079
v 0.005595 0.015000 -0.145685
v 0.005988 0.000000 -0.145425
v -0.072727 0.015000 -0.065246
v -0.095035 0.000000 -0.042944
v -0.098900 0.015000 -0.038046
v -0.057848 0.015000 -0.076229
v -0.057828 0.000000 -0.076204
v -0.099735 0.015000 -0.123994
v -0.099797 0.000000 -0.123515
v -0.098571 0.015000 -0.129625
v -0.066887 0.015000 -0.141215
v -0.081503 0.000000 -0.142119
v -0.085255 0.015000 -0.141418
v -0.036752 0.015000 -0.132670
v -0.041249 0.000000 -0.130158
v -0.047220 0.015000 -0.129920
v -0.015627 0.000000 -0.147079
v -0.016222 0.015000 -0.146732
v 0.036613 0.000000 -0.130908
v 0.054948 0.000000 -0.139770
v 0.077231 0.000000 -0.137505
v 0.120728 -0.000000 0.085729
v 0.112893 0.015000 0.103424
v 0.112109 -0.000000 0.104694
v 0.124049 -0.000000 0.030991
v 0.094008 0.015000 0.125783
v 0.092340 -0.000000 0.127092
v 0.060515 0.015000 0.142427
v 0.057956 -0.000000 0.143186
v 0.019469 0.015000 0.149606
v 0.016279 -0.000000 0.149822
v -0.022312 0.015000 0.149696
v -0.024336 -0.000000 0.149563
v -0.057311 0.015000 0.144529
v -0.058999 -0.000000 0.144032
v -0.087320 0.015000 0.130673
v -0.088540 -0.000000 0.129827
v -0.111209 0.015000 0.106915
v -0.111981 -0.000000 0.105678
v -0.123336 0.015000 0.074604
v -0.123478 -0.000000 0.073867
v -0.124913 0.015000 0.045323
v -0.124885 -0.000000 0.043385
v -0.121389 0.015000 0.011441
v -0.120918 -0.000000 0.009341
v -0.111158 0.015000 -0.018040
v -0.110289 0.000000 -0.019800
v -0.098578 0.000000 -0.129683
v -0.089266 0.000000 -0.138819
v -0.069320 0.000000 -0.067747
v -0.065225 0.000000 -0.140449
v -0.051104 0.000000 -0.131852
vt 0.7760 0.0217
vt 0.7584 0.0192
vt 0.7651 0.0186
vt 0.7471 0.0237
vt 0.7930 0.0313
vt 0.7350 0.0314
vt 0.9049 0.0347
vt 0.8784 0.0355
vt 0.8933 0.0338
vt 0.9108 0.0363
vt 0.6511 0.0367
vt 0.6265 0.0331
vt 0.6377 0.0327
vt 0.6148 0.0375
vt 0.9184 0.0404
vt 0.8658 0.0412
vt 0.7178 0.0447
vt 0.8156 0.0476
vt 0.6046 0.0445
vt 0.9296 0.0507
vt 0.6750 0.0490
vt 0.8504 0.0509
vt 0.7078 0.0510
vt 0.5940 0.0552
vt 0.8284 0.0545
vt 0.6858 0.0531
vt 0.6991 0.0541
vt 0.9356 0.0590
vt 0.8406 0.0550
vt 0.6924 0.0543
vt 0.8356 0.0557
vt 0.5912 0.0608
vt 0.9360 0.0628
vt 0.5941 0.0653
vt 0.9370 0.0663
vt 0.9313 0.0759
vt 0.6141 0.0885
vt 0.9064 0.1044
vt 0.6703 0.1486
vt 0.8651 0.1488
vt 0.8597 0.1561
vt 0.8630 0.1598
vt 0.6413 0.1667
vt 0.8788 0.1710
vt 0.6220 0.1808
vt 0.9041 0.1941
vt 0.6047 0.1955
vt 0.5891 0.2111
vt 0.9240 0.2152
vt 0.5751 0.2277
vt 0.9369 0.2309
vt 0.5627 0.2453
vt 0.9500 0.2518
vt 0.5493 0.2680
vt 0.9613 0.2750
vt 0.5383 0.2904
vt 0.9680 0.2933
vt 0.9734 0.3122
vt 0.5300 0.3125
vt 0.9784 0.3389
vt 0.5228 0.3404
vt 0.9811 0.3675
vt 0.5192 0.3705
vt 0.9815 0.3981
vt 0.5185 0.3973
vt 0.5199 0.4213
vt 0.9801 0.4236
vt 0.5232 0.4428
vt 0.9758 0.4467
vt 0.5287 0.4624
vt 0.9673 0.4718
vt 0.5365 0.4804
vt 0.9600 0.4871
vt 0.5467 0.4973
vt 0.9497 0.5031
vt 0.5620 0.5160
vt 0.9374 0.5178
vt 0.9233 0.5311
vt 0.5771 0.5296
vt 0.5954 0.5422
vt 0.9041 0.5449
vt 0.6243 0.5559
vt 0.8760 0.5584
vt 0.6581 0.5661
vt 0.8506 0.5666
vt 0.8284 0.5712
vt 0.6969 0.5727
vt 0.8040 0.5743
vt 0.7400 0.5758
vt 0.7769 0.5758
vt 0.2416 0.0192
vt 0.2240 0.0217
vt 0.2349 0.0186
vt 0.2529 0.0237
vt 0.2070 0.0313
vt 0.2650 0.0314
vt 0.1216 0.0355
vt 0.0951 0.0347
vt 0.1067 0.0338
vt 0.0892 0.0363
vt 0.3735 0.0331
vt 0.3489 0.0367
vt 0.3623 0.0327
vt 0.3852 0.0375
vt 0.0816 0.0404
vt 0.1342 0.0412
vt 0.2822 0.0447
vt 0.1844 0.0476
vt 0.3954 0.0445
vt 0.0704 0.0507
vt 0.3250 0.0490
vt 0.1496 0.0509
vt 0.2922 0.0510
vt 0.4060 0.0552
vt 0.1716 0.0545
vt 0.3142 0.0531
vt 0.3009 0.0541
vt 0.0644 0.0590
vt 0.1594 0.0550
vt 0.3076 0.0543
vt 0.1644 0.0557
vt 0.4088 0.0608
vt 0.0640 0.0628
vt 0.4059 0.0653
vt 0.0630 0.0663
vt 0.0687 0.0759
vt 0.3859 0.0885
vt 0.0936 0.1044
vt 0.3297 0.1486
vt 0.1349 0.1488
vt 0.1403 0.1561
vt 0.1370 0.1598
vt 0.3587 0.1667
vt 0.1212 0.1710
vt 0.3780 0.1808
vt 0.0959 0.1941
vt 0.3953 0.1955
vt 0.4109 0.2111
vt 0.0760 0.2152
vt 0.4249 0.2277
vt 0.0631 0.2309
vt 0.4373 0.2453
vt 0.0500 0.2518
vt 0.4507 0.2680
vt 0.0387 0.2750
vt 0.4617 0.2904
vt 0.0320 0.2933
vt 0.0266 0.3122
vt 0.4700 0.3125
vt 0.0216 0.3389
vt 0.4772 0.3404
vt 0.0189 0.3675
vt 0.4808 0.3705
vt 0.0185 0.3981
vt 0.4815 0.3973
vt 0.4801 0.4213
vt 0.0199 0.4236
vt 0.4768 0.4428
vt 0.0242 0.4467
vt 0.4713 0.4624
vt 0.0327 0.4718
vt 0.4635 0.4804
vt 0.0400 0.4871
vt 0.4533 0.4973
vt 0.0503 0.5031
vt 0.4380 0.5160
vt 0.0626 0.5178
vt 0.0767 0.5311
vt 0.4229 0.5296
vt 0.4046 0.5422
vt 0.0959 0.5449
vt 0.3757 0.5559
vt 0.1240 0.5584
vt 0.3419 0.5661
vt 0.1494 0.5666
vt 0.1716 0.5712
vt 0.3031 0.5727
vt 0.1960 0.5743
vt 0.2600 0.5758
vt 0.2231 0.5758
vt 0.7538 0.8222
vt 0.7667 0.7366
vt 0.7709 0.8222
vt 0.7054 0.7682
vt 0.7054 0.8539
vt 0.6899 0.7687
vt 0.9181 0.7366
vt 0.9181 0.8222
vt 0.8904 0.7369
vt 0.5942 0.7316
vt 0.5088 0.7315
vt 0.5942 0.6136
vt 0.3492 0.6865
vt 0.2638 0.6789
vt 0.3492 0.6130
vt 0.3492 0.7695
vt 0.2638 0.7432
vt 0.3492 0.8551
vt 0.2638 0.8100
vt 0.1413 0.8409
vt 0.2267 0.8633
vt 0.1414 0.9180
vt 0.8318 0.7366
vt 0.8323 0.8222
vt 0.8121 0.8222
vt 0.8112 0.7366
vt 0.3863 0.6472
vt 0.4717 0.7043
vt 0.3863 0.7150
vt 0.3864 0.6130
vt 0.4718 0.6131
vt 0.6313 0.6130
vt 0.7167 0.6136
vt 0.6313 0.7310
vt 0.5309 0.7688
vt 0.5231 0.8544
vt 0.5237 0.7688
vt 0.5923 0.7688
vt 0.5700 0.8543
vt 0.5633 0.7687
vt 0.7538 0.6801
vt 0.8392 0.6897
vt 0.7538 0.6994
vt 0.7538 0.6135
vt 0.8391 0.6327
vt 0.7538 0.6340
vt 0.6486 0.8558
vt 0.6416 0.7704
vt 0.6862 0.8545
vt 0.6313 0.8563
vt 0.8694 0.8226
vt 0.8722 0.7370
vt 0.8907 0.8224
vt 0.2266 0.8251
vt 0.1412 0.7901
vt 0.2266 0.7873
vt 0.5088 0.6130
vt 0.2638 0.6143
vt 0.2639 0.8629
vt 0.2267 0.9099
vt 0.1412 0.7358
vt 0.2266 0.7320
vt 0.1413 0.6736
vt 0.2266 0.6695
vt 0.1413 0.6169
vt 0.2267 0.6130
vt 0.0188 0.6167
vt 0.1041 0.6130
vt 0.1040 0.6653
vt 0.0187 0.6680
vt 0.1040 0.7163
vt 0.0186 0.7191
vt 0.1039 0.7730
vt 0.0185 0.7757
vt 0.1039 0.8355
vt 0.0185 0.8382
vt 0.1040 0.8950
vt 0.0186 0.8962
vt 0.1040 0.9371
vt 0.0187 0.9397
vt 0.1041 0.9791
vt 0.0188 0.9814
vt 0.4718 0.7957
vt 0.3864 0.7983
vt 0.3863 0.7537
vt 0.4717 0.7508
vt 0.5310 0.8544
vt 0.5545 0.8543
vt 0.4717 0.6395
vt 0.7167 0.7311
vt 0.4314 0.8372
vt 0.4314 0.9228
vt 0.3907 0.9213
vt 0.4015 0.8361
vt 0.5942 0.8544
vt 0.3863 0.8355
vt 0.8392 0.6130
vn 0.0000 1.0000 0.0000
vn 0.0000 -1.0000 -0.0000
vn -0.1329 -0.0087 -0.9911
vn 0.3288 0.0106 -0.9444
vn 0.4201 -0.0175 -0.9073
vn 0.1962 0.0134 -0.9805
vn 0.0938 -0.0139 -0.9955
vn -0.2468 0.0023 -0.9691
vn 0.9999 -0.0004 0.0150
vn 0.9997 -0.0153 -0.0209
vn 0.5747 -0.0032 -0.8184
vn 0.9942 0.0447 -0.0978
vn 0.9912 0.0302 -0.1292
vn 0.6763 0.0099 -0.7365
vn 0.6413 0.0009 -0.7673
vn 0.8622 -0.0071 -0.5065
vn 0.7945 0.0182 -0.6070
vn 0.9843 0.0021 -0.1766
vn 0.9291 0.0591 -0.3651
vn 0.9794 0.0008 0.2017
vn 0.9983 0.0352 0.0470
vn 0.0627 -0.0041 -0.9980
vn 0.0448 0.0018 -0.9990
vn 0.4881 0.0052 -0.8728
vn 0.4924 0.0054 -0.8704
vn -0.6579 -0.0116 -0.7530
vn -0.7667 0.0093 -0.6419
vn -0.8009 0.0067 -0.5988
vn -0.9946 0.0011 -0.1042
vn -0.9944 -0.0009 -0.1055
vn -0.9690 0.0119 0.2469
vn -0.9637 0.0119 0.2669
vn -0.8714 0.0138 -0.4905
vn 0.2741 -0.0005 -0.9617
vn -0.1393 -0.0176 -0.9901
vn -0.3583 0.0244 -0.9333
vn -0.4430 -0.0267 -0.8961
vn -0.2249 0.0190 -0.9742
vn 0.1562 -0.0187 -0.9875
vn -0.4198 0.0058 -0.9076
vn -0.4346 0.0116 -0.9005
vn -0.2300 0.0200 -0.9730
vn -0.3390 -0.0232 -0.9405
vn 0.5658 -0.0096 -0.8245
vn 0.9480 -0.0065 0.3182
vn 0.8550 0.0107 0.5184
vn 0.8446 0.0088 0.5353
vn 0.9938 -0.0192 -0.1094
vn 0.6226 -0.0027 0.7825
vn 0.5938 -0.0022 0.8046
vn 0.3177 0.0007 0.9482
vn 0.2875 0.0007 0.9578
vn 0.0928 0.0016 0.9957
vn 0.0705 0.0020 0.9975
vn -0.0707 0.0008 0.9975
vn -0.0835 0.0004 0.9965
vn -0.2818 -0.0007 0.9595
vn -0.3022 -0.0005 0.9532
vn -0.5687 -0.0003 0.8225
vn -0.5866 -0.0005 0.8099
vn -0.8369 0.0020 0.5474
vn -0.8509 0.0024 0.5253
vn -0.9788 0.0027 0.2048
vn -0.9807 0.0025 0.1954
vn -0.9997 -0.0012 -0.0234
vn -0.9993 -0.0013 -0.0365
vn -0.9769 -0.0005 -0.2137
vn -0.9722 -0.0002 -0.2342
vn -0.9024 -0.0058 -0.4308
vn -0.8942 -0.0070 -0.4476
vn -0.8725 0.0158 -0.4884
vn -0.5711 -0.0050 -0.8209
vn -0.6359 -0.0158 -0.7716
vn 0.3274 -0.0209 -0.9447
vn 0.3738 0.0323 -0.9269
usemtl None
s off
f 1/1/1 2/2/1 3/3/1
f 1/1/1 4/4/1 2/2/1
f 5/5/1 4/4/1 1/1/1
f 5/5/1 6/6/1 4/4/1
f 7/7/1 8/8/1 9/9/1
f 10/10/1 8/8/1 7/7/1
f 11/11/1 12/12/1 13/13/1
f 11/11/1 14/14/1 12/12/1
f 15/15/1 8/8/1 10/10/1
f 15/15/1 16/16/1 8/8/1
f 5/5/1 17/17/1 6/6/1
f 18/18/1 17/17/1 5/5/1
f 11/11/1 19/19/1 14/14/1
f 20/20/1 16/16/1 15/15/1
f 21/21/1 19/19/1 11/11/1
f 20/20/1 22/22/1 16/16/1
f 18/18/1 23/23/1 17/17/1
f 21/21/1 24/24/1 19/19/1
f 25/25/1 23/23/1 18/18/1
f 26/26/1 24/24/1 21/21/1
f 25/25/1 27/27/1 23/23/1
f 28/28/1 22/22/1 20/20/1
f 28/28/1 29/29/1 22/22/1
f 30/30/1 24/24/1 26/26/1
f 25/25/1 30/30/1 27/27/1
f 31/31/1 30/30/1 25/25/1
f 31/31/1 24/24/1 30/30/1
f 28/28/1 31/31/1 29/29/1
f 28/28/1 24/24/1 31/31/1
f 28/28/1 32/32/1 24/24/1
f 33/33/1 32/32/1 28/28/1
f 33/33/1 34/34/1 32/32/1
f 35/35/1 34/34/1 33/33/1
f 36/36/1 34/34/1 35/35/1
f 36/36/1 37/37/1 34/34/1
f 38/38/1 37/37/1 36/36/1
f 38/38/1 39/39/1 37/37/1
f 40/40/1 39/39/1 38/38/1
f 41/41/1 39/39/1 40/40/1
f 42/42/1 39/39/1 41/41/1
f 42/42/1 43/43/1 39/39/1
f 44/44/1 43/43/1 42/42/1
f 44/44/1 45/45/1 43/43/1
f 46/46/1 45/45/1 44/44/1
f 46/46/1 47/47/1 45/45/1
f 46/46/1 48/48/1 47/47/1
f 49/49/1 48/48/1 46/46/1
f 49/49/1 50/50/1 48/48/1
f 51/51/1 50/50/1 49/49/1
f 51/51/1 52/52/1 50/50/1
f 53/53/1 52/52/1 51/51/1
f 53/53/1 54/54/1 52/52/1
f 55/55/1 54/54/1 53/53/1
f 55/55/1 56/56/1 54/54/1
f 57/57/1 56/56/1 55/55/1
f 58/58/1 56/56/1 57/57/1
f 58/58/1 59/59/1 56/56/1
f 60/60/1 59/59/1 58/58/1
f 60/60/1 61/61/1 59/59/1
f 62/62/1 61/61/1 60/60/1
f 62/62/1 63/63/1 61/61/1
f 64/64/1 63/63/1 62/62/1
f 64/64/1 65/65/1 63/63/1
f 64/64/1 66/66/1 65/65/1
f 67/67/1 66/66/1 64/64/1
f 67/67/1 68/68/1 66/66/1
f 69/69/1 68/68/1 67/67/1
f 69/69/1 70/70/1 68/68/1
f 71/71/1 70/70/1 69/69/1
f 71/71/1 72/72/1 70/70/1
f 73/73/1 72/72/1 71/71/1
f 73/73/1 74/74/1 72/72/1
f 75/75/1 74/74/1 73/73/1
f 75/75/1 76/76/1 74/74/1
f 77/77/1 76/76/1 75/75/1
f 78/78/1 76/76/1 77/77/1
f 78/78/1 79/79/1 76/76/1
f 78/78/1 80/80/1 79/79/1
f 81/81/1 80/80/1 78/78/1
f 81/81/1 82/82/1 80/80/1
f 83/83/1 82/82/1 81/81/1
f 83/83/1 84/84/1 82/82/1
f 85/85/1 84/84/1 83/83/1
f 86/86/1 84/84/1 85/85/1
f 86/86/1 87/87/1 84/84/1
f 88/88/1 87/87/1 86/86/1
f 88/88/1 89/89/1 87/87/1
f 90/90/1 89/89/1 88/88/1
f 91/91/2 92/92/2 93/93/2
f 94/94/2 92/92/2 91/91/2
f 94/94/2 95/95/2 92/92/2
f 96/96/2 95/95/2 94/94/2
f 97/97/2 98/98/2 99/99/2
f 97/97/2 100/100/2 98/98/2
f 101/101/2 102/102/2 103/103/2
f 104/104/2 102/102/2 101/101/2
f 97/97/2 105/105/2 100/100/2
f 106/106/2 105/105/2 97/97/2
f 107/107/2 95/95/2 96/96/2
f 107/107/2 108/108/2 95/95/2
f 109/109/2 102/102/2 104/104/2
f 106/106/2 110/110/2 105/105/2
f 109/109/2 111/111/2 102/102/2
f 112/112/2 110/110/2 106/106/2
f 113/113/2 108/108/2 107/107/2
f 114/114/2 111/111/2 109/109/2
f 113/113/2 115/115/2 108/108/2
f 114/114/2 116/116/2 111/111/2
f 117/117/2 115/115/2 113/113/2
f 112/112/2 118/118/2 110/110/2
f 119/119/2 118/118/2 112/112/2
f 114/114/2 120/120/2 116/116/2
f 120/120/2 115/115/2 117/117/2
f 120/120/2 121/121/2 115/115/2
f 114/114/2 121/121/2 120/120/2
f 121/121/2 118/118/2 119/119/2
f 114/114/2 118/118/2 121/121/2
f 122/122/2 118/118/2 114/114/2
f 122/122/2 123/123/2 118/118/2
f 124/124/2 123/123/2 122/122/2
f 124/124/2 125/125/2 123/123/2
f 124/124/2 126/126/2 125/125/2
f 127/127/2 126/126/2 124/124/2
f 127/127/2 128/128/2 126/126/2
f 129/129/2 128/128/2 127/127/2
f 129/129/2 130/130/2 128/128/2
f 129/129/2 131/131/2 130/130/2
f 129/129/2 132/132/2 131/131/2
f 133/133/2 132/132/2 129/129/2
f 133/133/2 134/134/2 132/132/2
f 135/135/2 134/134/2 133/133/2
f 135/135/2 136/136/2 134/134/2
f 137/137/2 136/136/2 135/135/2
f 138/138/2 136/136/2 137/137/2
f 138/138/2 139/139/2 136/136/2
f 140/140/2 139/139/2 138/138/2
f 140/140/2 141/141/2 139/139/2
f 142/142/2 141/141/2 140/140/2
f 142/142/2 143/143/2 141/141/2
f 144/144/2 143/143/2 142/142/2
f 144/144/2 145/145/2 143/143/2
f 146/146/2 145/145/2 144/144/2
f 146/146/2 147/147/2 145/145/2
f 146/146/2 148/148/2 147/147/2
f 149/149/2 148/148/2 146/146/2
f 149/149/2 150/150/2 148/148/2
f 151/151/2 150/150/2 149/149/2
f 151/151/2 152/152/2 150/150/2
f 153/153/2 152/152/2 151/151/2
f 153/153/2 154/154/2 152/152/2
f 155/155/2 154/154/2 153/153/2
f 156/156/2 154/154/2 155/155/2
f 156/156/2 157/157/2 154/154/2
f 158/158/2 157/157/2 156/156/2
f 158/158/2 159/159/2 157/157/2
f 160/160/2 159/159/2 158/158/2
f 160/160/2 161/161/2 159/159/2
f 162/162/2 161/161/2 160/160/2
f 162/162/2 163/163/2 161/161/2
f 164/164/2 163/163/2 162/162/2
f 164/164/2 165/165/2 163/163/2
f 166/166/2 165/165/2 164/164/2
f 166/166/2 167/167/2 165/165/2
f 166/166/2 168/168/2 167/167/2
f 169/169/2 168/168/2 166/166/2
f 170/170/2 168/168/2 169/169/2
f 170/170/2 171/171/2 168/168/2
f 172/172/2 171/171/2 170/170/2
f 172/172/2 173/173/2 171/171/2
f 174/174/2 173/173/2 172/172/2
f 174/174/2 175/175/2 173/173/2
f 174/174/2 176/176/2 175/175/2
f 177/177/2 176/176/2 174/174/2
f 177/177/2 178/178/2 176/176/2
f 179/179/2 178/178/2 177/177/2
f 179/179/2 180/180/2 178/178/2
s 1
f 181/181/3 182/182/4 183/183/5
f 184/184/6 185/185/7 186/186/8
f 187/187/9 188/188/10 189/189/11
f 39/190/12 190/191/13 187/192/9
f 191/193/14 192/194/15 39/195/12
f 193/196/16 194/197/17 191/193/14
f 195/198/18 196/199/19 193/196/16
f 197/200/20 198/201/21 195/202/18
f 199/203/22 200/204/23 201/205/24 202/206/25
f 203/207/26 204/208/27 205/209/28
f 206/210/29 207/211/30 203/207/26
f 208/212/31 209/213/32 206/214/29
f 210/215/33 209/216/32 208/217/31
f 211/218/34 212/219/35 213/220/36
f 214/221/37 215/222/38 216/223/39
f 200/224/23 217/225/40 218/226/41
f 202/206/25 201/205/24 183/183/5 182/182/4
f 219/227/42 181/228/3 186/186/8 220/229/43
f 181/228/3 219/227/42 182/230/4
f 185/231/7 184/232/6 189/189/11 221/233/44
f 186/186/8 185/185/7 220/229/43
f 222/234/45 197/200/20 223/235/46 224/236/47
f 189/189/11 188/188/10 221/233/44
f 187/192/9 190/191/13 188/237/10
f 39/195/12 192/194/15 190/238/13
f 191/193/14 194/197/17 192/194/15
f 193/196/16 196/199/19 194/197/17
f 195/198/18 225/239/48 196/199/19
f 195/202/18 198/201/21 225/240/48
f 197/200/20 222/234/45 198/201/21
f 224/236/47 223/235/46 226/241/49 227/242/50
f 227/242/50 226/241/49 228/243/51 229/244/52
f 229/244/52 228/243/51 230/245/53 231/246/54
f 231/247/54 230/248/53 232/249/55 233/250/56
f 233/250/56 232/249/55 234/251/57 235/252/58
f 235/252/58 234/251/57 236/253/59 237/254/60
f 237/254/60 236/253/59 238/255/61 239/256/62
f 239/256/62 238/255/61 240/257/63 241/258/64
f 241/258/64 240/257/63 242/259/65 243/260/66
f 243/260/66 242/259/65 244/261/67 245/262/68
f 245/263/68 244/264/67 246/265/69 247/266/70
f 247/266/70 246/265/69 205/209/28 204/208/27
f 248/267/71 210/215/33 213/220/36 249/268/72
f 203/207/26 250/269/73 204/208/27
f 203/207/26 207/211/30 250/269/73
f 206/214/29 209/213/32 207/270/30
f 210/215/33 248/267/71 209/216/32
f 251/271/74 211/272/34 216/273/39 252/274/75
f 213/220/36 212/219/35 249/268/72
f 211/218/34 251/275/74 212/219/35
f 215/222/38 214/221/37 218/226/41 217/225/40
f 216/273/39 215/276/38 252/274/75
f 200/224/23 199/277/22 217/225/40
