# Blender v2.78 (sub 0) OBJ File: ''
# www.blender.org
mtllib Ricky.mtl
o Arm.039
v 0.137500 0.236182 0.135100
v 0.053900 0.170182 0.077200
v 0.037700 0.224182 0.114800
v 0.186000 0.231582 0.165700
v 0.120700 0.236182 0.159400
v 0.160100 0.251782 0.168500
v 0.166300 0.230782 0.194900
v 0.064600 0.166782 0.149200
v -0.037699 0.224182 0.114800
v -0.053900 0.170182 0.077200
v -0.137500 0.236182 0.135100
v -0.186000 0.231582 0.165700
v -0.120700 0.236182 0.159400
v -0.160100 0.251782 0.168500
v -0.166300 0.230782 0.194900
v -0.064600 0.166782 0.149200
v 0.060400 0.025282 0.128700
v 0.045200 0.025282 0.086300
v 0.090200 0.088182 0.143800
v 0.029600 0.025282 0.129500
v 0.000000 0.059182 0.038200
v 0.000000 0.044182 0.136000
v 0.000000 0.120782 0.203700
v 0.047900 0.232782 0.114800
v 0.000000 0.227982 0.148100
v -0.090200 0.088182 0.143800
v -0.047900 0.232782 0.114800
v -0.045200 0.025282 0.086300
v 0.096000 0.266082 0.188500
v 0.107300 0.297982 0.179300
v 0.062900 0.257482 0.211400
v 0.110000 0.244082 0.183200
v 0.091200 0.284782 0.208500
v 0.144900 0.263182 0.166800
v 0.000000 0.287782 0.238500
v 0.000000 0.317482 0.228800
v 0.096500 0.323282 0.194000
v 0.107600 0.432082 0.206800
v 0.134800 0.385882 0.098600
v 0.123800 0.461082 0.146600
v 0.079900 0.484382 0.192700
v 0.054200 0.498881 0.202900
v 0.000000 0.445682 0.242600
v 0.000000 0.241582 0.213500
v 0.155400 0.294882 0.164700
v 0.100700 0.498882 0.137000
v 0.063000 0.520982 0.149100
v 0.000000 0.515682 0.191900
v 0.000000 0.538482 0.098900
v 0.097500 0.422982 0.005300
v 0.000000 0.270282 0.001300
v 0.000000 0.229182 0.064700
v 0.000000 0.485282 -0.040900
v 0.162400 0.486982 0.151100
v 0.158400 0.541782 0.174300
v 0.107800 0.548782 0.203900
v -0.079900 0.484382 0.192700
v -0.100700 0.498882 0.137000
v -0.107600 0.432082 0.206800
v -0.123800 0.461082 0.146600
v -0.134800 0.385882 0.098600
v -0.096500 0.323282 0.194000
v -0.091200 0.284782 0.208500
v -0.155400 0.294882 0.164700
v -0.062899 0.257482 0.211400
v -0.110100 0.244082 0.183200
v -0.095999 0.266082 0.188500
v -0.107300 0.297982 0.179300
v -0.144900 0.263182 0.166800
v -0.158499 0.541782 0.174300
v -0.162400 0.486982 0.151100
v -0.107799 0.548782 0.203900
v -0.097500 0.422982 0.005300
v 0.000000 0.298682 0.277100
v 0.000000 0.294782 0.200200
v 0.016200 0.312082 0.260500
v -0.016200 0.312082 0.260500
v 0.000000 0.333182 0.274000
v 0.081400 0.216682 -0.154500
v 0.000000 0.098782 0.083900
v 0.000000 0.035682 -0.089700
v -0.081400 0.216682 -0.154500
v 0.000000 0.194282 -0.180400
v 0.000000 0.180182 -0.277100
v 0.000000 0.330782 -0.225500
v 0.000000 0.330682 -0.069100
v 0.000000 0.158082 -0.007900
v 0.077000 0.560082 0.211800
v 0.052500 0.534482 0.214100
v -0.060400 0.025282 0.128700
v -0.029600 0.025282 0.129500
v 0.045200 0.030900 0.098459
v 0.060400 0.030900 0.140859
v 0.064300 -0.000600 0.080259
v 0.026400 -0.000600 0.080259
v 0.083999 0.015600 0.209059
v 0.082300 -0.000700 0.213159
v 0.009200 0.015800 0.212259
v 0.029600 0.030900 0.141659
v 0.010600 -0.000700 0.215659
v -0.064300 -0.000600 0.080259
v -0.060401 0.030900 0.140859
v -0.045201 0.030900 0.098459
v -0.026399 -0.000600 0.080259
v -0.083999 0.015600 0.209059
v -0.082300 -0.000700 0.213159
v -0.029600 0.030900 0.141659
v -0.009200 0.015800 0.212259
v -0.010600 -0.000700 0.215659
vt 0.5461 0.4094
vt 0.5138 0.4787
vt 0.5619 0.4798
vt 0.5438 0.3687
vt 0.5752 0.4083
vt 0.5548 0.3907
vt 0.6014 0.3913
vt 0.6029 0.4408
vt 0.6606 0.4692
vt 0.6575 0.3687
vt 0.5619 0.4798
vt 0.5138 0.4787
vt 0.5461 0.4094
vt 0.5438 0.3687
vt 0.5752 0.4083
vt 0.5548 0.3907
vt 0.6014 0.3913
vt 0.6029 0.4408
vt 0.6575 0.3687
vt 0.6606 0.4692
vt 0.4379 0.6214
vt 0.4811 0.6172
vt 0.4339 0.5963
vt 0.3748 0.6237
vt 0.3432 0.6006
vt 0.3381 0.6195
vt 0.3685 0.5983
vt 0.5074 0.5985
vt 0.5074 0.6629
vt 0.5929 0.6190
vt 0.5557 0.5053
vt 0.5074 0.5042
vt 0.6643 0.6450
vt 0.6272 0.6466
vt 0.5929 0.6190
vt 0.5557 0.5053
vt 0.6272 0.6466
vt 0.3995 0.4650
vt 0.4186 0.4748
vt 0.4070 0.4510
vt 0.3680 0.4661
vt 0.3840 0.4617
vt 0.3797 0.4531
vt 0.3977 0.4537
vt 0.3398 0.4867
vt 0.3387 0.4585
vt 0.3390 0.4383
vt 0.3838 0.4349
vt 0.3864 0.3858
vt 0.4362 0.4152
vt 0.4191 0.3835
vt 0.3869 0.3700
vt 0.3668 0.3626
vt 0.3393 0.3799
vt 0.3387 0.4760
vt 0.3924 0.4469
vt 0.4319 0.3623
vt 0.3707 0.3415
vt 0.3418 0.3458
vt 0.3736 0.3348
vt 0.4786 0.4125
vt 0.5042 0.4562
vt 0.4850 0.4872
vt 0.4926 0.3794
vt 0.4086 0.3757
vt 0.4022 0.3740
vt 0.3986 0.3729
vt 0.3722 0.3685
vt 0.4319 0.3623
vt 0.3864 0.3858
vt 0.4191 0.3835
vt 0.4362 0.4152
vt 0.3838 0.4349
vt 0.3797 0.4531
vt 0.3924 0.4469
vt 0.3680 0.4661
vt 0.3840 0.4617
vt 0.3995 0.4650
vt 0.4070 0.4510
vt 0.3977 0.4537
vt 0.4254 0.4691
vt 0.4022 0.3740
vt 0.4086 0.3757
vt 0.3986 0.3729
vt 0.4786 0.4125
vt 0.3853 0.5022
vt 0.4105 0.5008
vt 0.3938 0.5021
vt 0.3938 0.5021
vt 0.3920 0.4931
vt 0.4606 0.5247
vt 0.3973 0.5236
vt 0.4007 0.5454
vt 0.4606 0.5247
vt 0.4605 0.5445
vt 0.4875 0.5426
vt 0.4907 0.5161
vt 0.4537 0.4945
vt 0.4141 0.5136
vt 0.4465 0.5681
vt 0.4644 0.5636
vt 0.4574 0.5616
vt 0.4575 0.5562
vt 0.4569 0.5498
vt 0.3373 0.5217
vt 0.3711 0.5413
vt 0.3775 0.5192
vt 0.3439 0.4934
vt 0.3682 0.4924
vt 0.6622 0.4951
vt 0.4339 0.5963
vt 0.4811 0.6172
vt 0.4379 0.6214
vt 0.3748 0.6237
vt 0.3381 0.6195
vt 0.3775 0.5192
vt 0.3711 0.5413
vt 0.3375 0.5202
vt 0.3439 0.4934
vt 0.3682 0.4924
vt 0.4811 0.6172
vt 0.4379 0.6214
vt 0.4778 0.6563
vt 0.4895 0.6417
vt 0.4380 0.6485
vt 0.4354 0.6640
vt 0.3381 0.6460
vt 0.3783 0.6453
vt 0.3748 0.6237
vt 0.3825 0.6634
vt 0.3381 0.6195
vt 0.3545 0.5881
vt 0.3648 0.5519
vt 0.3465 0.5491
vt 0.3645 0.5881
vt 0.4778 0.6563
vt 0.4379 0.6214
vt 0.4811 0.6172
vt 0.4895 0.6417
vt 0.4380 0.6485
vt 0.4354 0.6640
vt 0.3748 0.6237
vt 0.3783 0.6453
vt 0.3381 0.6460
vt 0.3825 0.6634
vt 0.3381 0.6195
vt 0.3545 0.5881
vt 0.3648 0.5519
vt 0.3645 0.5881
vt 0.3465 0.5491
vn 0.1579 0.7746 -0.6124
vn 0.6157 -0.4495 -0.6472
vn -0.2596 0.9654 -0.0235
vn 0.8875 0.2254 -0.4019
vn -0.4481 0.7649 0.4628
vn 0.1046 0.9919 0.0721
vn 0.2607 -0.0263 0.9651
vn -0.3028 -0.1336 0.9436
vn 0.2596 0.9654 -0.0234
vn -0.6157 -0.4495 -0.6472
vn -0.1578 0.7746 -0.6124
vn -0.8875 0.2254 -0.4019
vn 0.4481 0.7649 0.4628
vn -0.1046 0.9919 0.0721
vn -0.2607 -0.0263 0.9651
vn 0.3028 -0.1335 0.9437
vn 0.4591 -0.4280 0.7785
vn 0.5841 -0.5737 -0.5742
vn 0.9483 -0.2206 0.2283
vn -0.4314 -0.8558 0.2857
vn 0.0000 -0.5273 -0.8497
vn -0.0000 -0.6221 0.7829
vn -0.0000 0.0365 0.9993
vn 0.8741 -0.4462 -0.1920
vn -0.0000 -0.7871 0.6168
vn -0.9483 -0.2206 0.2283
vn -0.8741 -0.4462 -0.1920
vn -0.5841 -0.5737 -0.5742
vn 0.4828 -0.6396 -0.5982
vn 0.7517 -0.2670 -0.6030
vn 0.2437 -0.8304 0.5010
vn 0.8793 0.1167 -0.4617
vn 0.5645 -0.0306 0.8248
vn 0.7331 -0.4264 0.5299
vn -0.0000 -0.1414 0.9899
vn 0.0000 0.0938 0.9956
vn 0.7255 0.2077 0.6561
vn 0.6772 0.1473 0.7209
vn 0.9969 -0.0412 -0.0666
vn 0.9994 0.0343 -0.0105
vn 0.5275 0.4285 0.7336
vn 0.4628 0.2226 0.8581
vn -0.0360 0.3057 0.9514
vn -0.0000 -0.7993 0.6009
vn 0.1284 -0.3347 -0.9335
vn 0.4327 0.7307 -0.5280
vn 0.3353 0.9399 0.0641
vn -0.2109 0.7840 0.5838
vn -0.0146 0.9998 -0.0167
vn 0.7996 -0.0229 -0.6001
vn 0.0000 -0.5899 -0.8075
vn 0.0000 -0.4632 -0.8862
vn 0.0000 0.6265 -0.7794
vn 0.8296 -0.5043 0.2396
vn 0.4267 0.7388 -0.5217
vn -0.2106 0.5206 0.8274
vn -0.3497 0.5377 0.7672
vn -0.3758 0.7261 -0.5758
vn -0.6955 0.0996 0.7116
vn -0.9994 0.0343 -0.0105
vn -0.9969 -0.0412 -0.0666
vn -0.7255 0.2077 0.6561
vn -0.5643 -0.0301 0.8250
vn -0.1284 -0.3348 -0.9335
vn -0.2436 -0.8305 0.5009
vn -0.8770 0.1178 -0.4659
vn -0.4819 -0.6394 -0.5991
vn -0.7517 -0.2670 -0.6030
vn -0.7330 -0.4264 0.5299
vn -0.4266 0.7384 -0.5223
vn -0.8292 -0.5050 0.2396
vn 0.2112 0.5199 0.8277
vn -0.7996 -0.0229 -0.6001
vn 0.0000 -0.6691 0.7432
vn 0.0000 -0.1446 -0.9895
vn 0.9801 0.0086 0.1982
vn -0.9801 0.0086 0.1982
vn -0.0000 0.9064 0.4224
vn 0.9998 -0.0078 -0.0160
vn -0.0001 0.5483 0.8363
vn -0.0000 -0.7767 -0.6298
vn -0.9998 -0.0078 -0.0160
vn 0.0000 -0.9069 -0.4214
vn 0.0000 -0.8661 -0.4999
vn -0.0000 0.8016 -0.5979
vn -0.0000 0.8219 0.5697
vn -0.0000 0.6838 0.7297
vn 0.6675 0.0487 0.7430
vn -0.4589 0.5479 0.6994
vn -0.4591 -0.4280 0.7785
vn 0.4314 -0.8558 0.2857
vn -0.0011 0.7732 -0.6342
vn 0.4717 0.8817 -0.0097
vn 0.8616 0.1485 -0.4854
vn -0.8633 -0.1920 -0.4668
vn 0.6040 0.5511 0.5757
vn 0.4402 -0.8216 0.3622
vn -0.5572 0.7563 0.3429
vn -0.6308 0.7709 -0.0880
vn -0.4238 -0.3079 0.8518
vn -0.8615 0.1486 -0.4855
vn -0.4717 0.8817 -0.0097
vn 0.0010 0.7732 -0.6342
vn 0.8633 -0.1919 -0.4668
vn -0.6040 0.5511 0.5757
vn -0.4402 -0.8216 0.3622
vn 0.6308 0.7709 -0.0880
vn 0.5572 0.7563 0.3429
vn 0.4238 -0.3079 0.8518
usemtl None
s 1
f 1/1/1 2/2/2 3/3/3
f 4/4/4 2/2/2 1/1/1
f 5/5/5 1/1/1 3/3/3
f 1/1/1 5/5/5 6/6/6
f 7/7/7 6/6/6 5/5/5
f 7/7/7 4/4/4 6/6/6
f 1/1/1 6/6/6 4/4/4
f 8/8/8 7/7/7 5/5/5
f 5/5/5 3/3/3 8/8/8
f 2/9/2 4/10/4 7/7/7
f 2/9/2 7/7/7 8/8/8
f 9/11/9 10/12/10 11/13/11
f 11/13/11 10/12/10 12/14/12
f 9/11/9 11/13/11 13/15/13
f 14/16/14 13/15/13 11/13/11
f 13/15/13 14/16/14 15/17/15
f 14/16/14 12/14/12 15/17/15
f 12/14/12 14/16/14 11/13/11
f 13/15/13 15/17/15 16/18/16
f 16/18/16 9/11/9 13/15/13
f 15/17/15 12/19/12 10/20/10
f 16/18/16 15/17/15 10/20/10
f 17/21/17 18/22/18 19/23/19
f 20/24/20 21/25/21 18/26/18
f 22/27/22 21/25/21 20/24/20
f 22/27/22 17/21/17 19/23/19
f 20/24/20 17/21/17 22/27/22
f 23/28/23 22/29/22 19/30/19
f 23/28/23 19/30/19 24/31/24
f 24/31/24 25/32/25 23/28/23
f 21/33/21 19/30/19 18/34/18
f 19/30/19 21/33/21 24/31/24
f 26/35/26 27/36/27 21/33/21
f 26/35/26 21/33/21 28/37/28
f 29/38/29 24/39/24 30/40/30
f 31/41/31 24/39/24 29/38/29
f 32/42/32 31/41/31 29/38/29
f 32/42/32 33/43/33 31/41/31
f 34/44/34 30/40/30 33/43/33
f 34/44/34 33/43/33 29/38/29
f 25/45/25 24/39/24 31/41/31
f 35/46/35 31/41/31 33/43/33
f 35/46/35 33/43/33 36/47/36
f 36/47/36 33/43/33 37/48/37
f 38/49/38 36/47/36 37/48/37
f 37/48/37 39/50/39 38/49/38
f 39/50/39 30/40/30 24/39/24
f 39/50/39 37/48/37 30/40/30
f 39/50/39 40/51/40 38/49/38
f 40/51/40 41/52/41 38/49/38
f 38/49/38 41/52/41 42/53/42
f 38/49/38 42/53/42 43/54/43
f 36/47/36 38/49/38 43/54/43
f 44/55/44 31/41/31 35/46/35
f 45/56/45 37/48/37 33/43/33
f 39/50/39 46/57/46 40/51/40
f 41/52/41 46/57/46 47/58/47
f 41/52/41 47/58/47 42/53/42
f 43/54/43 42/53/42 48/59/48
f 49/60/49 48/59/48 47/58/47
f 50/61/50 46/57/46 39/50/39
f 24/39/24 50/61/50 39/50/39
f 51/62/51 50/61/50 24/39/24
f 51/62/51 24/39/24 52/63/52
f 50/61/50 53/64/53 46/57/46
f 53/64/53 49/60/49 46/57/46
f 49/60/49 47/58/47 46/57/46
f 30/40/30 37/48/37 45/56/45
f 50/61/50 51/62/51 53/64/53
f 54/65/54 46/57/46 55/66/55
f 46/57/46 56/67/56 55/66/55
f 56/67/56 46/57/46 41/52/41
f 54/65/54 40/51/40 46/57/46
f 57/68/57 48/59/48 49/60/49
f 58/69/58 57/68/57 49/60/49
f 48/59/48 57/68/57 43/54/43
f 43/54/43 57/68/57 59/70/59
f 59/70/59 57/68/57 60/71/60
f 59/70/59 60/71/60 61/72/61
f 59/70/59 61/72/61 62/73/62
f 62/73/62 36/47/36 59/70/59
f 43/54/43 59/70/59 36/47/36
f 62/73/62 63/74/63 36/47/36
f 36/47/36 63/74/63 35/46/35
f 63/74/63 62/73/62 64/75/64
f 60/71/60 58/69/58 61/72/61
f 63/74/63 65/76/65 35/46/35
f 35/46/35 65/76/65 44/55/44
f 65/76/65 63/74/63 66/77/66
f 67/78/67 65/76/65 66/77/66
f 68/79/68 62/73/62 61/72/61
f 63/74/63 68/79/68 69/80/69
f 67/78/67 63/74/63 69/80/69
f 67/78/67 27/81/27 65/76/65
f 27/81/27 68/79/68 61/72/61
f 68/79/68 27/81/27 67/78/67
f 65/76/65 27/81/27 25/45/25
f 68/79/68 63/74/63 64/75/64
f 65/76/65 25/45/25 44/55/44
f 64/75/64 62/73/62 68/79/68
f 70/82/70 58/69/58 71/83/71
f 70/82/70 72/84/72 58/69/58
f 57/68/57 58/69/58 72/84/72
f 58/69/58 60/71/60 71/83/71
f 52/63/52 27/81/27 51/62/51
f 27/81/27 73/85/73 51/62/51
f 61/72/61 73/85/73 27/81/27
f 61/72/61 58/69/58 73/85/73
f 53/64/53 51/62/51 73/85/73
f 58/69/58 53/64/53 73/85/73
f 58/69/58 49/60/49 53/64/53
f 32/42/32 29/38/29 33/43/33
f 74/86/74 75/87/75 76/88/76
f 77/89/77 75/87/75 74/86/74
f 76/88/76 78/90/78 74/86/74
f 76/88/76 75/87/75 78/90/78
f 74/86/74 78/90/78 77/89/77
f 78/90/78 75/87/75 77/89/77
f 79/91/79 80/92/80 81/93/81
f 80/92/80 82/94/82 81/93/81
f 82/94/82 83/95/83 81/93/81
f 82/94/82 84/96/84 83/95/83
f 84/96/84 85/97/85 79/91/79
f 82/94/82 85/97/85 84/96/84
f 79/91/79 85/97/85 86/98/86
f 86/98/86 85/97/85 82/94/82
f 86/98/86 87/99/87 79/91/79
f 80/92/80 87/99/87 82/94/82
f 79/91/79 87/99/87 80/92/80
f 82/94/82 87/99/87 86/98/86
f 81/93/81 83/95/83 79/91/79
f 83/95/83 84/96/84 79/91/79
f 42/100/42 47/101/47 88/102/88
f 89/103/89 88/102/88 47/101/47
f 48/104/48 89/103/89 47/101/47
f 88/102/88 89/103/89 42/100/42
f 48/104/48 42/100/42 89/103/89
f 45/56/45 33/43/33 30/40/30
f 41/105/41 40/106/40 54/107/54
f 54/107/54 56/108/56 41/105/41
f 55/109/55 56/108/56 54/107/54
f 34/44/34 29/38/29 30/40/30
f 52/110/52 24/31/24 21/33/21
f 21/33/21 27/36/27 52/110/52
f 26/111/26 28/112/28 90/113/90
f 91/114/91 21/25/21 22/27/22
f 28/115/28 21/25/21 91/114/91
f 22/27/22 90/113/90 91/114/91
f 26/111/26 90/113/90 22/27/22
f 26/35/26 22/29/22 23/28/23
f 27/36/27 26/35/26 23/28/23
f 23/28/23 25/32/25 27/36/27
f 63/74/63 67/78/67 66/77/66
f 68/79/68 67/78/67 69/80/69
f 71/116/71 60/117/60 57/118/57
f 57/118/57 72/119/72 71/116/71
f 71/116/71 72/119/72 70/120/70
f 25/45/25 31/41/31 44/55/44
f 92/121/92 93/122/93 94/123/94
f 94/123/94 95/124/95 92/121/92
f 94/123/94 93/122/93 96/125/96
f 97/126/97 94/123/94 96/125/96
f 95/127/95 98/128/98 99/129/99
f 98/128/98 95/127/95 100/130/100
f 95/127/95 99/129/99 92/131/92
f 93/122/93 98/128/98 96/125/96
f 100/130/100 96/125/96 98/128/98
f 97/126/97 96/125/96 100/130/100
f 99/129/99 98/128/98 93/122/93
f 95/132/95 97/133/97 100/134/100
f 94/135/94 97/133/97 95/132/95
f 101/136/101 102/137/102 103/138/103
f 103/138/103 104/139/104 101/136/101
f 105/140/105 102/137/102 101/136/101
f 105/140/105 101/136/101 106/141/106
f 107/142/107 108/143/108 104/144/104
f 109/145/109 104/144/104 108/143/108
f 103/146/103 107/142/107 104/144/104
f 102/137/102 108/143/108 107/142/107
f 105/140/105 108/143/108 102/137/102
f 108/143/108 105/140/105 109/145/109
f 109/145/109 105/140/105 106/141/106
f 104/147/104 106/148/106 101/149/101
f 109/150/109 106/148/106 104/147/104
