# Blender v2.78 (sub 0) OBJ File: ''
# www.blender.org
mtllib Sarap_sisesi.mtl
o pCylinder2
v -0.111471 0.006739 0.111471
v -0.106712 0.000009 0.106712
v 0.000000 0.000009 0.150913
v 0.000000 0.006739 0.157643
v -0.157643 0.006739 -0.000000
v -0.150913 0.000009 -0.000000
v 0.106712 0.000009 0.106712
v 0.111471 0.006739 0.111471
v 0.150913 0.000009 -0.000000
v 0.157643 0.006739 -0.000000
v 0.106712 0.000009 -0.106712
v 0.111471 0.006739 -0.111471
v 0.000000 0.000009 -0.150913
v 0.000000 0.006739 -0.157643
v -0.106712 0.000009 -0.106712
v -0.111471 0.006739 -0.111471
v 0.000000 0.257061 0.157643
v -0.111471 0.257061 0.111471
v 0.111471 0.257061 0.111471
v 0.157643 0.257061 -0.000000
v 0.111471 0.257061 -0.111471
v 0.000000 0.257061 -0.157643
v -0.111471 0.257061 -0.111471
v -0.157643 0.257061 -0.000000
v 0.091640 0.000009 0.091640
v 0.000000 0.000009 0.129599
v 0.000000 0.000009 -0.000000
v 0.129599 0.000009 -0.000000
v 0.091640 0.000009 -0.091640
v 0.000000 0.000009 -0.129599
v -0.091640 0.000009 -0.091640
v -0.129599 0.000009 -0.000000
v -0.091640 0.000009 0.091640
v -0.111471 0.514113 0.111471
v 0.000000 0.514113 0.157643
v 0.000000 0.574982 0.140064
v -0.099041 0.574982 0.099040
v 0.111471 0.514113 0.111470
v 0.099041 0.574982 0.099040
v 0.157643 0.514113 0.000000
v 0.140065 0.574982 0.000000
v 0.111471 0.514113 -0.111471
v 0.099041 0.574982 -0.099041
v 0.000000 0.514113 -0.157643
v 0.000000 0.574982 -0.140065
v -0.111471 0.514113 -0.111471
v -0.099041 0.574982 -0.099041
v -0.157643 0.514113 0.000000
v -0.140065 0.574982 0.000000
v -0.048841 0.746599 0.048841
v 0.000000 0.746599 0.069071
v 0.000000 0.774221 0.069071
v -0.048841 0.774221 0.048841
v 0.048841 0.746599 0.048841
v 0.048841 0.774221 0.048841
v 0.069071 0.746599 0.000000
v 0.069071 0.774221 0.000000
v 0.048841 0.746599 -0.048841
v 0.048841 0.774221 -0.048841
v 0.000000 0.746599 -0.069071
v 0.000000 0.774221 -0.069071
v -0.048841 0.746599 -0.048841
v -0.048841 0.774221 -0.048841
v -0.069071 0.746599 0.000000
v -0.069071 0.774221 0.000000
v -0.048841 0.877593 0.048841
v 0.000000 0.877593 0.069071
v 0.000000 0.923373 0.069071
v -0.048841 0.923373 0.048841
v 0.048841 0.877593 0.048841
v 0.048841 0.923373 0.048841
v 0.069071 0.877593 0.000000
v 0.069071 0.923373 0.000000
v 0.048841 0.877593 -0.048841
v 0.048841 0.923373 -0.048841
v 0.000000 0.877593 -0.069071
v 0.000000 0.923373 -0.069071
v -0.048841 0.877593 -0.048841
v -0.048841 0.923373 -0.048841
v -0.069071 0.877593 0.000000
v -0.069071 0.923373 0.000000
v -0.045795 0.927680 0.045795
v 0.000000 0.927680 0.064763
v 0.000000 0.927680 0.047714
v -0.033739 0.927680 0.033739
v 0.045795 0.927680 0.045794
v 0.033739 0.927680 0.033739
v 0.064763 0.927680 0.000000
v 0.047715 0.927680 0.000000
v 0.045795 0.927680 -0.045795
v 0.033739 0.927680 -0.033739
v 0.000000 0.927680 -0.064764
v 0.000000 0.927680 -0.047715
v -0.045795 0.927680 -0.045795
v -0.033739 0.927680 -0.033739
v -0.064763 0.927680 0.000000
v -0.047715 0.927680 0.000000
v 0.000000 0.927680 0.000000
v -0.080742 0.861385 0.000000
v -0.057093 0.861385 0.057093
v -0.057093 0.873285 0.057093
v -0.080742 0.873285 0.000000
v 0.000000 0.873285 0.080742
v 0.000000 0.861385 0.080742
v 0.057093 0.873285 0.057093
v 0.057093 0.861385 0.057093
v 0.080742 0.873285 0.000000
v 0.080742 0.861385 0.000000
v 0.057093 0.873285 -0.057093
v 0.057093 0.861385 -0.057093
v 0.000000 0.873285 -0.080742
v 0.000000 0.861385 -0.080742
v -0.057093 0.873285 -0.057094
v -0.057093 0.861385 -0.057094
v -0.076434 0.877593 0.000000
v -0.054047 0.877593 0.054047
v -0.069071 0.857077 0.000000
v -0.048841 0.857077 0.048841
v -0.054047 0.857077 0.054047
v -0.076434 0.857077 0.000000
v 0.000000 0.857077 0.069071
v 0.000000 0.857077 0.076434
v 0.000000 0.877593 0.076434
v 0.048841 0.857077 0.048841
v 0.054047 0.857077 0.054047
v 0.054047 0.877593 0.054047
v 0.069071 0.857077 0.000000
v 0.076434 0.857077 0.000000
v 0.076434 0.877593 0.000000
v 0.048841 0.857077 -0.048841
v 0.054047 0.857077 -0.054047
v 0.054047 0.877593 -0.054047
v 0.000000 0.857077 -0.069071
v 0.000000 0.857077 -0.076435
v 0.000000 0.877593 -0.076435
v -0.048841 0.857077 -0.048841
v -0.054047 0.857077 -0.054047
v -0.054047 0.877593 -0.054047
v 0.065155 0.743788 0.000000
v 0.046072 0.743788 -0.046072
v 0.046072 0.743788 0.046071
v 0.000000 0.743788 0.065155
v -0.046072 0.743788 0.046071
v -0.065155 0.743788 0.000000
v -0.046072 0.743788 -0.046072
v 0.000000 0.743788 -0.065155
v 0.000000 0.678859 -0.098697
v -0.069789 0.678859 -0.069789
v -0.057931 0.711324 -0.057931
v 0.000000 0.711324 -0.081926
v 0.069789 0.678859 -0.069789
v 0.057930 0.711324 -0.057931
v 0.098697 0.678859 0.000000
v 0.081926 0.711324 0.000000
v 0.069789 0.678859 0.069789
v 0.057930 0.711324 0.057930
v 0.000000 0.678859 0.098697
v 0.000000 0.711324 0.081926
v -0.069789 0.678859 0.069789
v -0.057930 0.711324 0.057930
v -0.098697 0.678859 0.000000
v -0.081926 0.711324 0.000000
v -0.086213 0.627933 -0.086213
v -0.121924 0.627933 0.000000
v 0.000000 0.627933 -0.121924
v 0.086213 0.627933 -0.086213
v 0.121924 0.627933 0.000000
v 0.086213 0.627933 0.086213
v 0.000000 0.627933 0.121924
v -0.086213 0.627933 0.086213
v -0.048841 0.829455 -0.048841
v -0.069071 0.829455 0.000000
v 0.000000 0.829455 -0.069071
v 0.048841 0.829455 -0.048841
v 0.069071 0.829455 0.000000
v 0.048841 0.829455 0.048841
v 0.000000 0.829455 0.069071
v -0.048841 0.829455 0.048841
vt 0.5681 0.6804
vt 0.5626 0.6861
vt 0.4363 0.6364
vt 0.4361 0.6285
vt 0.6247 0.8104
vt 0.6168 0.8106
vt 0.3118 0.6906
vt 0.3061 0.6851
vt 0.2621 0.8169
vt 0.2542 0.8170
vt 0.3163 0.9414
vt 0.3108 0.9471
vt 0.4426 0.9911
vt 0.4428 0.9990
vt 0.5671 0.9369
vt 0.5728 0.9424
vt 0.4299 0.0119
vt 0.5393 0.0010
vt 0.5292 0.2108
vt 0.4299 0.2046
vt 0.6478 0.0084
vt 0.6286 0.2274
vt 0.7533 0.0204
vt 0.7295 0.2371
vt 0.8588 0.0334
vt 0.8326 0.2519
vt 0.0010 0.0334
vt 0.1065 0.0204
vt 0.1303 0.2371
vt 0.0273 0.2519
vt 0.2120 0.0084
vt 0.2311 0.2274
vt 0.3205 0.0010
vt 0.3305 0.2108
vt 0.3298 0.7080
vt 0.4367 0.6614
vt 0.4394 0.8137
vt 0.2871 0.8165
vt 0.3337 0.9234
vt 0.4422 0.9660
vt 0.5491 0.9195
vt 0.5918 0.8110
vt 0.5452 0.7041
vt 0.4299 0.4108
vt 0.5165 0.4166
vt 0.5121 0.4638
vt 0.4299 0.4605
vt 0.6044 0.4267
vt 0.5954 0.4755
vt 0.6960 0.4455
vt 0.6814 0.4964
vt 0.7954 0.4708
vt 0.7727 0.5285
vt 0.0644 0.4705
vt 0.1638 0.4454
vt 0.1785 0.4963
vt 0.0868 0.5292
vt 0.2553 0.4267
vt 0.2645 0.4755
vt 0.3433 0.4166
vt 0.3476 0.4638
vt 0.7761 0.7286
vt 0.7766 0.6827
vt 0.8011 0.6828
vt 0.8009 0.7287
vt 0.7767 0.6369
vt 0.8013 0.6369
vt 0.7768 0.5908
vt 0.8011 0.5907
vt 0.7759 0.5433
vt 0.8005 0.5435
vt 0.7756 0.9140
vt 0.7763 0.8665
vt 0.8009 0.8667
vt 0.8002 0.9140
vt 0.7760 0.8204
vt 0.8008 0.8205
vt 0.7764 0.7745
vt 0.8010 0.7745
vt 0.9098 0.7287
vt 0.9098 0.6828
vt 0.9510 0.6829
vt 0.9511 0.7288
vt 0.9098 0.6365
vt 0.9508 0.6364
vt 0.9089 0.5905
vt 0.9492 0.5912
vt 0.9116 0.5433
vt 0.9519 0.5456
vt 0.9108 0.9154
vt 0.9097 0.8672
vt 0.9510 0.8667
vt 0.9523 0.9143
vt 0.9097 0.8206
vt 0.9510 0.8205
vt 0.9098 0.7746
vt 0.9508 0.7746
vt 0.0287 0.6313
vt 0.0829 0.6093
vt 0.0827 0.6294
vt 0.0428 0.6456
vt 0.1367 0.6320
vt 0.1224 0.6461
vt 0.1587 0.6861
vt 0.1386 0.6860
vt 0.1360 0.7400
vt 0.1218 0.7257
vt 0.0818 0.7620
vt 0.0820 0.7419
vt 0.0280 0.7392
vt 0.0423 0.7251
vt 0.0060 0.6851
vt 0.0261 0.6853
vt 0.0823 0.6856
vt 0.8887 0.7746
vt 0.8888 0.7287
vt 0.8986 0.7287
vt 0.8986 0.7746
vt 0.8987 0.6828
vt 0.8888 0.6828
vt 0.8987 0.6366
vt 0.8888 0.6367
vt 0.8976 0.5905
vt 0.8876 0.5905
vt 0.8997 0.5385
vt 0.8893 0.5383
vt 0.8986 0.8670
vt 0.8989 0.9199
vt 0.8881 0.9196
vt 0.8886 0.8669
vt 0.8986 0.8205
vt 0.8887 0.8205
vt 0.9038 0.7746
vt 0.9038 0.7287
vt 0.8774 0.7746
vt 0.8774 0.7287
vt 0.8835 0.7287
vt 0.8835 0.7746
vt 0.8775 0.6828
vt 0.8836 0.6828
vt 0.9038 0.6828
vt 0.8775 0.6367
vt 0.8837 0.6367
vt 0.9038 0.6366
vt 0.8763 0.5905
vt 0.8824 0.5905
vt 0.9028 0.5905
vt 0.8771 0.5425
vt 0.8837 0.5398
vt 0.9054 0.5402
vt 0.8762 0.9149
vt 0.8773 0.8669
vt 0.8835 0.8669
vt 0.8824 0.9178
vt 0.9045 0.9183
vt 0.9037 0.8671
vt 0.8774 0.8205
vt 0.8835 0.8205
vt 0.9037 0.8206
vt 0.7729 0.5908
vt 0.7721 0.5444
vt 0.7729 0.6369
vt 0.7728 0.6827
vt 0.7722 0.7286
vt 0.7726 0.7745
vt 0.7722 0.8204
vt 0.7725 0.8665
vt 0.7718 0.9130
vt 0.2165 0.5946
vt 0.2870 0.5729
vt 0.2963 0.6080
vt 0.2321 0.6278
vt 0.1489 0.6282
vt 0.1749 0.6595
vt 0.6431 0.5949
vt 0.7107 0.6297
vt 0.6845 0.6595
vt 0.6276 0.6280
vt 0.5728 0.5731
vt 0.5636 0.6083
vt 0.5016 0.5616
vt 0.4973 0.5977
vt 0.4300 0.5579
vt 0.4299 0.5944
vt 0.3583 0.5614
vt 0.3626 0.5976
vt 0.2743 0.5212
vt 0.3523 0.5090
vt 0.1950 0.5437
vt 0.1139 0.5794
vt 0.7461 0.5793
vt 0.6647 0.5436
vt 0.5855 0.5211
vt 0.5075 0.5090
vt 0.4299 0.5052
vt 0.0252 0.6277
vt 0.0829 0.6042
vt 0.0010 0.6851
vt 0.1403 0.6285
vt 0.1637 0.6862
vt 0.1395 0.7436
vt 0.0818 0.7670
vt 0.0244 0.7428
vt 0.4934 0.6278
vt 0.4297 0.6246
vt 0.3661 0.6281
vt 0.3045 0.6388
vt 0.2471 0.6577
vt 0.2000 0.6881
vt 0.6604 0.6868
vt 0.6128 0.6573
vt 0.5551 0.6383
vt 0.8518 0.8205
vt 0.8519 0.7746
vt 0.8518 0.8669
vt 0.8513 0.9146
vt 0.8507 0.5906
vt 0.8513 0.5429
vt 0.8523 0.6368
vt 0.8520 0.6828
vt 0.8519 0.7287
vn -0.2811 -0.6786 0.6786
vn -0.6786 -0.6786 0.2811
vn 0.2811 -0.6786 0.6786
vn 0.6786 -0.6786 0.2811
vn 0.6786 -0.6786 -0.2811
vn 0.2811 -0.6786 -0.6786
vn -0.2811 -0.6786 -0.6786
vn -0.6786 -0.6786 -0.2811
vn -0.7071 -0.0000 0.7071
vn 0.0000 -0.0000 1.0000
vn 0.7071 -0.0000 0.7071
vn 1.0000 0.0000 0.0000
vn 0.7071 0.0000 -0.7071
vn 0.0000 0.0000 -1.0000
vn -0.7071 0.0000 -0.7071
vn -1.0000 0.0000 0.0000
vn -0.0000 -1.0000 -0.0000
vn -0.7001 0.1405 0.7001
vn 0.0000 0.1405 0.9901
vn -0.0000 0.3009 0.9537
vn -0.6743 0.3009 0.6743
vn 0.7001 0.1405 0.7001
vn 0.6743 0.3009 0.6743
vn 0.9901 0.1405 0.0000
vn 0.9537 0.3009 -0.0000
vn 0.7001 0.1405 -0.7001
vn 0.6744 0.3008 -0.6744
vn -0.0000 0.1405 -0.9901
vn -0.0000 0.3009 -0.9537
vn -0.7001 0.1405 -0.7001
vn -0.6744 0.3008 -0.6744
vn -0.9901 0.1405 0.0000
vn -0.9537 0.3009 -0.0000
vn -0.6249 -0.4681 0.6248
vn -0.0000 -0.4681 0.8837
vn 0.6249 -0.4681 0.6248
vn 0.8837 -0.4681 -0.0000
vn 0.6248 -0.4682 -0.6248
vn -0.0000 -0.4681 -0.8837
vn -0.6248 -0.4682 -0.6249
vn -0.8837 -0.4681 0.0000
vn -0.4799 0.7345 0.4798
vn -0.0001 0.7345 0.6786
vn 0.0000 0.3900 0.9208
vn -0.6511 0.3900 0.6511
vn 0.4799 0.7345 0.4798
vn 0.6511 0.3900 0.6511
vn 0.6786 0.7345 -0.0000
vn 0.9208 0.3900 -0.0000
vn 0.4798 0.7345 -0.4799
vn 0.6511 0.3900 -0.6511
vn 0.0001 0.7345 -0.6786
vn 0.0000 0.3900 -0.9208
vn -0.4799 0.7345 -0.4798
vn -0.6511 0.3900 -0.6511
vn -0.6786 0.7345 0.0000
vn -0.9208 0.3900 -0.0000
vn -0.2650 0.9271 0.2650
vn -0.0000 0.9271 0.3748
vn 0.0000 1.0000 0.0000
vn 0.2650 0.9271 0.2650
vn 0.3748 0.9271 -0.0000
vn 0.2650 0.9271 -0.2650
vn 0.0000 0.9271 -0.3748
vn -0.2650 0.9271 -0.2650
vn -0.3748 0.9271 -0.0000
vn -0.9208 -0.3900 -0.0000
vn -0.6511 -0.3900 0.6511
vn 0.0000 -0.3900 0.9208
vn 0.6511 -0.3900 0.6511
vn 0.9208 -0.3900 -0.0000
vn 0.6511 -0.3900 -0.6511
vn 0.0000 -0.3900 -0.9208
vn -0.6511 -0.3900 -0.6511
vn -0.6786 -0.7345 -0.0000
vn -0.4798 -0.7345 0.4798
vn -0.2650 -0.9271 0.2650
vn -0.3748 -0.9271 0.0000
vn 0.0000 -0.7345 0.6786
vn 0.0000 -0.9271 0.3748
vn 0.4798 -0.7345 0.4798
vn 0.2650 -0.9271 0.2650
vn 0.6786 -0.7345 0.0000
vn 0.3748 -0.9271 -0.0000
vn 0.4798 -0.7345 -0.4798
vn 0.2650 -0.9271 -0.2650
vn 0.0000 -0.7345 -0.6786
vn 0.0000 -0.9271 -0.3748
vn -0.4798 -0.7345 -0.4798
vn -0.2650 -0.9271 -0.2650
vn 0.9687 -0.2483 -0.0000
vn 0.6850 -0.2483 -0.6850
vn 0.6850 -0.2483 0.6850
vn 0.0000 -0.2483 0.9687
vn -0.6850 -0.2483 0.6850
vn -0.9687 -0.2483 -0.0000
vn -0.6850 -0.2483 -0.6850
vn -0.0000 -0.2483 -0.9687
vn 0.0000 0.4371 -0.8994
vn -0.6360 0.4371 -0.6360
vn -0.6282 0.4590 -0.6282
vn 0.0000 0.4590 -0.8885
vn 0.6360 0.4371 -0.6360
vn 0.6282 0.4590 -0.6282
vn 0.8994 0.4371 0.0000
vn 0.8885 0.4590 0.0000
vn 0.6360 0.4371 0.6360
vn 0.6282 0.4590 0.6282
vn -0.0000 0.4371 0.8994
vn 0.0000 0.4590 0.8885
vn -0.6360 0.4371 0.6360
vn -0.6282 0.4590 0.6282
vn -0.8994 0.4371 -0.0000
vn -0.8885 0.4590 0.0000
vn -0.6569 0.3701 -0.6569
vn -0.9290 0.3701 0.0000
vn -0.0000 0.3701 -0.9290
vn 0.6569 0.3701 -0.6569
vn 0.9290 0.3701 0.0000
vn 0.6569 0.3701 0.6569
vn -0.0000 0.3701 0.9290
vn -0.6569 0.3701 0.6569
usemtl None
s off
f 1/1/1 2/2/1 3/3/1 4/4/1
f 2/2/2 1/1/2 5/5/2 6/6/2
f 4/4/3 3/3/3 7/7/3 8/8/3
f 8/8/4 7/7/4 9/9/4 10/10/4
f 10/10/5 9/9/5 11/11/5 12/12/5
f 12/12/6 11/11/6 13/13/6 14/14/6
f 14/14/7 13/13/7 15/15/7 16/16/7
f 16/16/8 15/15/8 6/6/8 5/5/8
s 1
f 1/17/9 4/18/10 17/19/10 18/20/9
f 4/18/10 8/21/11 19/22/11 17/19/10
f 8/21/11 10/23/12 20/24/12 19/22/11
f 10/23/12 12/25/13 21/26/13 20/24/12
f 12/27/13 14/28/14 22/29/14 21/30/13
f 14/28/14 16/31/15 23/32/15 22/29/14
f 16/31/15 5/33/16 24/34/16 23/32/15
f 5/33/16 1/17/9 18/20/9 24/34/16
f 25/35/17 26/36/17 27/37/17 28/38/17
f 29/39/17 28/38/17 27/37/17 30/40/17
f 31/41/17 30/40/17 27/37/17 32/42/17
f 33/43/17 32/42/17 27/37/17 26/36/17
f 34/44/18 35/45/19 36/46/20 37/47/21
f 35/45/19 38/48/22 39/49/23 36/46/20
f 38/48/22 40/50/24 41/51/25 39/49/23
f 40/50/24 42/52/26 43/53/27 41/51/25
f 42/54/26 44/55/28 45/56/29 43/57/27
f 44/55/28 46/58/30 47/59/31 45/56/29
f 46/58/30 48/60/32 49/61/33 47/59/31
f 48/60/32 34/44/18 37/47/21 49/61/33
f 50/62/34 51/63/35 52/64/10 53/65/9
f 51/63/35 54/66/36 55/67/11 52/64/10
f 54/66/36 56/68/37 57/69/12 55/67/11
f 56/68/37 58/70/38 59/71/13 57/69/12
f 58/72/38 60/73/39 61/74/14 59/75/13
f 60/73/39 62/76/40 63/77/15 61/74/14
f 62/76/40 64/78/41 65/79/16 63/77/15
f 64/78/41 50/62/34 53/65/9 65/79/16
f 66/80/42 67/81/43 68/82/44 69/83/45
f 67/81/43 70/84/46 71/85/47 68/82/44
f 70/84/46 72/86/48 73/87/49 71/85/47
f 72/86/48 74/88/50 75/89/51 73/87/49
f 74/90/50 76/91/52 77/92/53 75/93/51
f 76/91/52 78/94/54 79/95/55 77/92/53
f 78/94/54 80/96/56 81/97/57 79/95/55
f 80/96/56 66/80/42 69/83/45 81/97/57
f 82/98/58 83/99/59 84/100/60 85/101/60
f 83/99/59 86/102/61 87/103/60 84/100/60
f 86/102/61 88/104/62 89/105/60 87/103/60
f 88/104/62 90/106/63 91/107/60 89/105/60
f 90/106/63 92/108/64 93/109/60 91/107/60
f 92/108/64 94/110/65 95/111/60 93/109/60
f 94/110/65 96/112/66 97/113/60 95/111/60
f 96/112/66 82/98/58 85/101/60 97/113/60
f 97/113/60 98/114/60 93/109/60 95/111/60
f 84/100/60 98/114/60 97/113/60 85/101/60
f 84/100/60 87/103/60 89/105/60 98/114/60
f 93/109/60 98/114/60 89/105/60 91/107/60
f 99/115/67 100/116/68 101/117/45 102/118/57
f 103/119/44 101/117/45 100/116/68 104/120/69
f 105/121/47 103/119/44 104/120/69 106/122/70
f 107/123/49 105/121/47 106/122/70 108/124/71
f 109/125/51 107/123/49 108/124/71 110/126/72
f 111/127/53 109/128/51 110/129/72 112/130/73
f 113/131/55 111/127/53 112/130/73 114/132/74
f 102/118/57 113/131/55 114/132/74 99/115/67
f 66/80/42 80/96/56 115/133/66 116/134/58
f 117/135/75 118/136/76 119/137/77 120/138/78
f 118/136/76 121/139/79 122/140/80 119/137/77
f 67/81/43 66/80/42 116/134/58 123/141/59
f 121/139/79 124/142/81 125/143/82 122/140/80
f 70/84/46 67/81/43 123/141/59 126/144/61
f 124/142/81 127/145/83 128/146/84 125/143/82
f 72/86/48 70/84/46 126/144/61 129/147/62
f 127/145/83 130/148/85 131/149/86 128/146/84
f 74/88/50 72/86/48 129/147/62 132/150/63
f 130/151/85 133/152/87 134/153/88 131/154/86
f 76/91/52 74/90/50 132/155/63 135/156/64
f 133/152/87 136/157/89 137/158/90 134/153/88
f 78/94/54 76/91/52 135/156/64 138/159/65
f 136/157/89 117/135/75 120/138/78 137/158/90
f 80/96/56 78/94/54 138/159/65 115/133/66
f 139/160/91 140/161/92 58/70/38 56/68/37
f 141/162/93 139/160/91 56/68/37 54/66/36
f 142/163/94 141/162/93 54/66/36 51/63/35
f 143/164/95 142/163/94 51/63/35 50/62/34
f 144/165/96 143/164/95 50/62/34 64/78/41
f 145/166/97 144/165/96 64/78/41 62/76/40
f 146/167/98 145/166/97 62/76/40 60/73/39
f 140/168/92 146/167/98 60/73/39 58/72/38
f 147/169/99 148/170/100 149/171/101 150/172/102
f 151/173/103 147/169/99 150/172/102 152/174/104
f 153/175/105 151/176/103 152/177/104 154/178/106
f 155/179/107 153/175/105 154/178/106 156/180/108
f 157/181/109 155/179/107 156/180/108 158/182/110
f 159/183/111 157/181/109 158/182/110 160/184/112
f 161/185/113 159/183/111 160/184/112 162/186/114
f 148/170/100 161/185/113 162/186/114 149/171/101
f 148/170/100 163/187/115 164/188/116 161/185/113
f 163/187/115 47/59/31 49/61/33 164/188/116
f 47/59/31 163/187/115 165/189/117 45/56/29
f 163/187/115 148/170/100 147/169/99 165/189/117
f 45/56/29 165/189/117 166/190/118 43/57/27
f 165/189/117 147/169/99 151/173/103 166/190/118
f 43/53/27 166/191/118 167/192/119 41/51/25
f 166/191/118 151/176/103 153/175/105 167/192/119
f 41/51/25 167/192/119 168/193/120 39/49/23
f 167/192/119 153/175/105 155/179/107 168/193/120
f 39/49/23 168/193/120 169/194/121 36/46/20
f 168/193/120 155/179/107 157/181/109 169/194/121
f 36/46/20 169/194/121 170/195/122 37/47/21
f 169/194/121 157/181/109 159/183/111 170/195/122
f 37/47/21 170/195/122 164/188/116 49/61/33
f 170/195/122 159/183/111 161/185/113 164/188/116
f 82/98/58 69/196/45 68/197/44 83/99/59
f 69/196/45 82/98/58 96/112/66 81/198/57
f 83/99/59 68/197/44 71/199/47 86/102/61
f 86/102/61 71/199/47 73/200/49 88/104/62
f 88/104/62 73/200/49 75/201/51 90/106/63
f 90/106/63 75/201/51 77/202/53 92/108/64
f 92/108/64 77/202/53 79/203/55 94/110/65
f 94/110/65 79/203/55 81/198/57 96/112/66
f 116/134/58 101/117/45 103/119/44 123/141/59
f 101/117/45 116/134/58 115/133/66 102/118/57
f 102/118/57 115/133/66 138/159/65 113/131/55
f 100/116/68 119/137/77 122/140/80 104/120/69
f 119/137/77 100/116/68 99/115/67 120/138/78
f 120/138/78 99/115/67 114/132/74 137/158/90
f 104/120/69 122/140/80 125/143/82 106/122/70
f 123/141/59 103/119/44 105/121/47 126/144/61
f 106/122/70 125/143/82 128/146/84 108/124/71
f 126/144/61 105/121/47 107/123/49 129/147/62
f 108/124/71 128/146/84 131/149/86 110/126/72
f 129/147/62 107/123/49 109/125/51 132/150/63
f 110/129/72 131/154/86 134/153/88 112/130/73
f 132/155/63 109/128/51 111/127/53 135/156/64
f 112/130/73 134/153/88 137/158/90 114/132/74
f 135/156/64 111/127/53 113/131/55 138/159/65
f 160/184/112 158/182/110 142/204/94 143/205/95
f 162/186/114 160/184/112 143/205/95 144/206/96
f 149/171/101 162/186/114 144/206/96 145/207/97
f 150/172/102 149/171/101 145/207/97 146/208/98
f 152/174/104 150/172/102 146/208/98 140/209/92
f 154/178/106 152/177/104 140/210/92 139/211/91
f 156/180/108 154/178/106 139/211/91 141/212/93
f 158/182/110 156/180/108 141/212/93 142/204/94
f 18/20/9 17/19/10 35/45/19 34/44/18
f 24/34/16 18/20/9 34/44/18 48/60/32
f 23/32/15 24/34/16 48/60/32 46/58/30
f 22/29/14 23/32/15 46/58/30 44/55/28
f 21/30/13 22/29/14 44/55/28 42/54/26
f 20/24/12 21/26/13 42/52/26 40/50/24
f 19/22/11 20/24/12 40/50/24 38/48/22
f 17/19/10 19/22/11 38/48/22 35/45/19
f 3/3/17 2/2/17 33/43/17 26/36/17
f 7/7/17 3/3/17 26/36/17 25/35/17
f 9/9/17 7/7/17 25/35/17 28/38/17
f 11/11/17 9/9/17 28/38/17 29/39/17
f 13/13/17 11/11/17 29/39/17 30/40/17
f 15/15/17 13/13/17 30/40/17 31/41/17
f 6/6/17 15/15/17 31/41/17 32/42/17
f 2/2/17 6/6/17 32/42/17 33/43/17
f 171/213/15 172/214/16 117/135/75 136/157/89
f 173/215/14 171/213/15 136/157/89 133/152/87
f 174/216/13 173/215/14 133/152/87 130/151/85
f 175/217/12 174/218/13 130/148/85 127/145/83
f 176/219/11 175/217/12 127/145/83 124/142/81
f 177/220/10 176/219/11 124/142/81 121/139/79
f 178/221/9 177/220/10 121/139/79 118/136/76
f 172/214/16 178/221/9 118/136/76 117/135/75
f 172/214/16 65/79/16 53/65/9 178/221/9
f 65/79/16 172/214/16 171/213/15 63/77/15
f 63/77/15 171/213/15 173/215/14 61/74/14
f 61/74/14 173/215/14 174/216/13 59/75/13
f 59/71/13 174/218/13 175/217/12 57/69/12
f 57/69/12 175/217/12 176/219/11 55/67/11
f 55/67/11 176/219/11 177/220/10 52/64/10
f 52/64/10 177/220/10 178/221/9 53/65/9
