# Blender v2.78 (sub 0) OBJ File: ''
# www.blender.org
mtllib Sehir_siluet _2.mtl
o Curve_Curve.4571
v -0.129031 0.015000 -0.063986
v -0.104911 0.015000 -0.074404
v -0.117142 0.015000 -0.081161
v 0.055292 0.015000 -0.058425
v 0.070172 0.015000 -0.058426
v 0.062500 0.015000 -0.069035
v -0.101125 0.015000 -0.056676
v -0.142125 0.015000 0.017684
v -0.094375 0.015000 -0.018934
v 0.051327 0.015000 -0.044642
v 0.074138 0.015000 -0.044634
v 0.097969 0.015000 -0.031181
v 0.130875 0.015000 -0.012810
v 0.114682 0.015000 -0.054334
v -0.082641 0.015000 -0.044533
v -0.052793 0.015000 -0.035292
v -0.060504 0.015000 -0.058800
v 0.048750 0.015000 -0.035680
v 0.076250 0.015000 -0.035680
v 0.050250 0.015000 -0.035680
v 0.051750 0.015000 -0.035680
v 0.049531 0.015000 0.002687
v 0.073250 0.015000 -0.035680
v 0.079096 0.015000 0.024414
v 0.074750 0.015000 -0.035680
v -0.020875 0.015000 -0.007811
v 0.010484 0.015000 -0.012810
v -0.011313 0.015000 -0.060925
v -0.039055 0.015000 -0.019197
v 0.088906 0.015000 -0.015923
v 0.031687 0.015000 -0.040554
v 0.140984 0.015000 0.000945
v -0.036295 0.015000 0.025876
v 0.149975 0.015000 0.051702
v 0.150000 0.015000 0.102416
v -0.150000 0.015000 0.102416
v 0.000000 0.015000 0.102416
v -0.110725 0.000000 -0.080671
v -0.123146 0.000000 -0.077546
v -0.116438 0.000000 -0.102416
v -0.103167 0.000000 -0.063986
v -0.130500 0.000000 -0.056676
v -0.142125 -0.000000 0.017684
v -0.094375 0.000000 -0.018934
v 0.073635 0.000000 -0.044642
v 0.051327 0.000000 -0.044642
v 0.062490 0.000000 -0.058425
v 0.130875 0.000000 -0.012810
v 0.097969 0.000000 -0.031181
v 0.114682 0.000000 -0.054334
v -0.052793 0.000000 -0.035292
v -0.082641 0.000000 -0.044533
v -0.060504 0.000000 -0.058800
v 0.048750 0.000000 -0.035680
v 0.076250 0.000000 -0.035680
v 0.050250 0.000000 -0.035680
v 0.051750 0.000000 -0.035680
v 0.073250 0.000000 -0.035680
v 0.049531 -0.000000 0.002687
v 0.079096 -0.000000 0.024414
v 0.074750 0.000000 -0.035680
v 0.010484 0.000000 -0.012810
v -0.020875 0.000000 -0.007811
v -0.011313 0.000000 -0.060925
v -0.039055 0.000000 -0.019197
v 0.042875 0.000000 -0.040554
v 0.020500 0.000000 -0.040554
v 0.088906 0.000000 -0.015923
v 0.140984 -0.000000 0.000945
v -0.036295 -0.000000 0.025876
v 0.149975 -0.000000 0.051702
v 0.150000 -0.000000 0.102416
v -0.150000 -0.000000 0.102416
v 0.000000 -0.000000 0.102416
v -0.090230 0.008332 -0.031072
v -0.116088 0.000000 -0.075672
v -0.116787 0.015000 -0.075672
v -0.042477 0.015000 -0.036147
v -0.040706 0.000000 -0.023803
v -0.034348 0.015000 0.009187
v 0.017879 0.013571 -0.029123
v 0.062358 0.015000 -0.054577
v 0.035437 0.000000 -0.026843
v 0.086721 0.011785 0.000407
v 0.065917 0.000000 -0.058405
v 0.129135 0.010200 -0.022129
v 0.102340 0.000000 -0.038902
v -0.142125 0.007499 0.017684
vt 0.5549 0.0684
vt 0.5320 0.1217
vt 0.5171 0.0947
vt 0.3563 0.7525
vt 0.3235 0.7525
vt 0.3404 0.7291
vt 0.5710 0.1301
vt 0.7348 0.0395
vt 0.6541 0.1450
vt 0.3650 0.7830
vt 0.3148 0.7830
vt 0.6272 0.5700
vt 0.6676 0.6427
vt 0.5762 0.6069
vt 0.5978 0.1709
vt 0.6181 0.2369
vt 0.5663 0.2198
vt 0.3707 0.8028
vt 0.3101 0.8028
vt 0.0000 0.0000
vt 0.0000 0.0000
vt 0.0000 0.0000
vt 0.0000 0.0000
vt 0.7018 0.4629
vt 0.6173 0.5154
vt 0.6173 0.4679
vt 0.0000 0.0000
vt 0.7496 0.5283
vt 0.0000 0.0000
vt 0.6786 0.3074
vt 0.6676 0.3767
vt 0.5617 0.3285
vt 0.6536 0.2672
vt 0.6608 0.5499
vt 0.6065 0.4235
vt 0.6979 0.6650
vt 0.7528 0.2733
vt 0.8097 0.6849
vt 0.9214 0.6849
vt 0.9214 0.0221
vt 0.0000 0.0000
vt 0.0000 0.0000
vt 0.0000 0.0000
vt 0.0699 0.5981
vt 0.0768 0.6255
vt 0.0220 0.6107
vt 0.1066 0.5814
vt 0.1227 0.6418
vt 0.2865 0.6675
vt 0.2058 0.5620
vt 0.1898 0.8710
vt 0.1898 0.9203
vt 0.1594 0.8956
vt 0.2193 0.0643
vt 0.1789 0.1370
vt 0.1279 0.1001
vt 0.1698 0.4701
vt 0.1495 0.5360
vt 0.1181 0.4871
vt 0.2095 0.9260
vt 0.2095 0.8652
vt 0.0000 0.0000
vt 0.0000 0.0000
vt 0.0000 0.0000
vt 0.0000 0.0000
vt 0.1690 0.1916
vt 0.2534 0.2440
vt 0.1690 0.2391
vt 0.0000 0.0000
vt 0.3013 0.1787
vt 0.0000 0.0000
vt 0.2193 0.3303
vt 0.2303 0.3996
vt 0.1134 0.3784
vt 0.2053 0.4397
vt 0.1582 0.2587
vt 0.1582 0.3082
vt 0.2125 0.1570
vt 0.2496 0.0420
vt 0.3045 0.4337
vt 0.3614 0.0221
vt 0.4730 0.0221
vt 0.4730 0.6849
vt 0.0000 0.0000
vt 0.0000 0.0000
vt 0.0000 0.0000
vt 0.9761 0.2045
vt 0.9780 0.3169
vt 0.9655 0.3169
vt 0.4148 0.7371
vt 0.4414 0.7291
vt 0.4414 0.8398
vt 0.9779 0.4612
vt 0.9655 0.3880
vt 0.9779 0.3611
vt 0.0958 0.7291
vt 0.0958 0.8591
vt 0.0220 0.8516
vt 0.3340 0.9602
vt 0.3101 0.8781
vt 0.3340 0.8470
vt 0.9777 0.0221
vt 0.9777 0.1603
vt 0.9655 0.1542
vt 0.2095 0.8211
vt 0.1398 0.8211
vt 0.1567 0.7291
vt 0.4148 0.8953
vt 0.4272 0.8839
vt 0.4272 0.9779
vt 0.2536 0.7301
vt 0.2661 0.7291
vt 0.2661 0.9368
vn -0.0000 1.0000 0.0000
vn -0.0000 0.0000 -1.0000
vn 0.0000 0.0000 1.0000
vn 0.0000 -1.0000 -0.0000
vn 0.8611 0.0401 -0.5068
vn -0.1688 -0.0079 -0.9856
vn -0.1998 -0.0093 -0.9798
vn 0.4732 -0.5258 -0.7068
vn 0.6273 0.1674 -0.7606
vn 0.0066 -0.6350 -0.7725
vn 0.1158 0.8956 -0.4295
vn -0.2414 0.9001 -0.3627
vn 0.0882 0.1214 -0.9887
vn -0.4537 -0.5216 -0.7225
vn -0.3795 -0.6081 -0.6973
vn 0.8777 0.3030 -0.3712
vn 0.1437 0.2766 -0.9502
vn -0.1439 0.9307 -0.3362
vn -0.9632 -0.0449 -0.2650
usemtl None
s off
f 1/1/1 2/2/1 3/3/1
f 4/4/1 5/5/1 6/6/1
f 1/1/1 7/7/1 2/2/1
f 8/8/1 7/7/1 1/1/1
f 8/8/1 9/9/1 7/7/1
f 10/10/1 5/5/1 4/4/1
f 10/10/1 11/11/1 5/5/1
f 12/12/1 13/13/1 14/14/1
f 15/15/1 16/16/1 17/17/1
f 9/9/1 16/16/1 15/15/1
f 18/18/1 11/11/1 10/10/1
f 18/18/1 19/19/1 11/11/1
f 20/20/2 19/21/2 18/22/2
f 21/23/3 19/21/3 20/20/3
f 22/24/1 23/25/1 21/26/1
f 23/27/3 19/21/3 21/23/3
f 22/24/1 24/28/1 23/25/1
f 25/29/2 19/21/2 23/27/2
f 26/30/1 27/31/1 28/32/1
f 9/9/1 29/33/1 16/16/1
f 30/34/1 13/13/1 12/12/1
f 8/8/1 29/33/1 9/9/1
f 27/31/1 22/24/1 31/35/1
f 24/28/1 13/13/1 30/34/1
f 24/28/1 32/36/1 13/13/1
f 33/37/1 27/31/1 26/30/1
f 33/37/1 22/24/1 27/31/1
f 24/28/1 34/38/1 32/36/1
f 33/37/1 24/28/1 22/24/1
f 8/8/1 33/37/1 29/33/1
f 33/37/1 34/38/1 24/28/1
f 8/8/1 34/38/1 33/37/1
f 8/8/1 35/39/1 34/38/1
f 36/40/1 35/39/1 8/8/1
f 37/41/3 35/42/3 36/43/3
f 38/44/4 39/45/4 40/46/4
f 41/47/4 39/45/4 38/44/4
f 41/47/4 42/48/4 39/45/4
f 41/47/4 43/49/4 42/48/4
f 44/50/4 43/49/4 41/47/4
f 45/51/4 46/52/4 47/53/4
f 48/54/4 49/55/4 50/56/4
f 51/57/4 52/58/4 53/59/4
f 51/57/4 44/50/4 52/58/4
f 45/51/4 54/60/4 46/52/4
f 55/61/4 54/60/4 45/51/4
f 55/62/3 56/63/3 54/64/3
f 55/62/2 57/65/2 56/63/2
f 58/66/4 59/67/4 57/68/4
f 55/62/3 58/69/3 57/65/3
f 60/70/4 59/67/4 58/66/4
f 55/62/3 61/71/3 58/69/3
f 62/72/4 63/73/4 64/74/4
f 65/75/4 44/50/4 51/57/4
f 66/76/4 62/72/4 67/77/4
f 48/54/4 68/78/4 49/55/4
f 65/75/4 43/49/4 44/50/4
f 59/67/4 62/72/4 66/76/4
f 48/54/4 60/70/4 68/78/4
f 69/79/4 60/70/4 48/54/4
f 62/72/4 70/80/4 63/73/4
f 59/67/4 70/80/4 62/72/4
f 71/81/4 60/70/4 69/79/4
f 60/70/4 70/80/4 59/67/4
f 70/80/4 43/49/4 65/75/4
f 71/81/4 70/80/4 60/70/4
f 71/81/4 43/49/4 70/80/4
f 72/82/4 43/49/4 71/81/4
f 72/82/4 73/83/4 43/49/4
f 72/84/3 74/85/3 73/86/3
s 1
f 75/87/5 76/88/6 77/89/7
f 78/90/8 79/91/9 75/92/10
f 80/93/11 79/94/9 78/95/8
f 81/96/12 79/97/9 80/98/11
f 82/99/13 83/100/14 81/101/15
f 84/102/16 85/103/17 82/104/13
f 86/105/18 87/106/18 84/107/18
f 82/108/13 85/109/17 83/110/14
f 77/111/7 76/112/6 88/113/19
