# Blender v2.78 (sub 0) OBJ File: ''
# www.blender.org
mtllib Semsiye.mtl
o gardenUmbrella:Umbrella.002
v 0.347697 0.674218 -0.117272
v -0.000001 0.852031 0.000001
v 0.443278 0.674218 0.000001
v 0.443278 0.667314 0.000001
v -0.000001 0.845128 0.000001
v 0.347697 0.667314 -0.117272
v 0.276353 0.667314 -0.247137
v 0.276353 0.674218 -0.247137
v 0.228281 0.667314 -0.383375
v 0.228281 0.674218 -0.383375
v 0.079280 0.667314 -0.375196
v 0.079280 0.666912 -0.375196
v 0.079280 0.674218 -0.375196
v -0.079282 0.667314 -0.375196
v -0.079282 0.674218 -0.375196
v -0.228282 0.667314 -0.383375
v -0.228282 0.674218 -0.383375
v -0.283075 0.667314 -0.249303
v -0.283075 0.674218 -0.249303
v -0.355756 0.667314 -0.113863
v -0.355756 0.674218 -0.113863
v -0.443278 0.667314 0.000001
v -0.443278 0.674218 0.000001
v -0.352075 0.667314 0.110823
v -0.352075 0.674218 0.110823
v -0.282898 0.667314 0.230793
v -0.282898 0.674217 0.230793
v -0.228282 0.667314 0.383376
v -0.228282 0.674217 0.383376
v -0.079282 0.667314 0.367573
v -0.079282 0.666911 0.367573
v -0.079282 0.674217 0.367573
v 0.079280 0.667314 0.367573
v 0.079280 0.674217 0.367573
v 0.228281 0.667314 0.383376
v 0.228281 0.674217 0.383376
v 0.283404 0.667314 0.228606
v 0.283404 0.674217 0.228606
v 0.351675 0.667314 0.107665
v 0.351675 0.674218 0.107665
v 0.005839 0.830815 -0.007402
v 0.004792 0.830815 -0.009769
v 0.003123 0.830815 -0.011803
v 0.000952 0.830815 -0.013363
v -0.001577 0.830815 -0.014344
v -0.004293 0.830815 -0.014680
v -0.007008 0.830815 -0.014344
v -0.009537 0.830815 -0.013363
v -0.011709 0.830815 -0.011803
v -0.013377 0.830815 -0.009769
v -0.014424 0.830815 -0.007402
v -0.014782 0.830815 -0.004861
v -0.014424 0.830815 -0.002320
v -0.013377 0.830815 0.000048
v -0.011709 0.830815 0.002082
v -0.009537 0.830815 0.003642
v -0.007008 0.830815 0.004622
v -0.004293 0.830815 0.004957
v -0.001577 0.830815 0.004622
v 0.000952 0.830815 0.003642
v 0.003123 0.830815 0.002082
v 0.004792 0.830815 0.000048
v 0.005839 0.830815 -0.002320
v 0.006197 0.830815 -0.004861
v 0.006197 0.072134 -0.004862
v 0.005839 0.072134 -0.002321
v 0.004792 0.072134 0.000047
v 0.003123 0.072134 0.002081
v 0.000952 0.072134 0.003641
v -0.001577 0.072134 0.004621
v -0.004293 0.072134 0.004955
v -0.007008 0.072134 0.004621
v -0.009537 0.072134 0.003641
v -0.011709 0.072134 0.002081
v -0.013377 0.072134 0.000047
v -0.014424 0.072134 -0.002321
v -0.014782 0.072134 -0.004862
v -0.014424 0.072134 -0.007403
v -0.013377 0.072134 -0.009771
v -0.011709 0.072134 -0.011804
v -0.009537 0.072134 -0.013365
v -0.007008 0.072134 -0.014345
v -0.004293 0.072134 -0.014681
v -0.001577 0.072134 -0.014345
v 0.000952 0.072134 -0.013365
v 0.003123 0.072134 -0.011804
v 0.004792 0.072134 -0.009771
v 0.005839 0.072134 -0.007403
v 0.004656 0.079185 -0.006127
v 0.003682 0.079185 -0.008481
v 0.002131 0.079185 -0.010502
v 0.000109 0.079185 -0.012054
v -0.002245 0.079185 -0.013029
v -0.004770 0.079185 -0.013361
v -0.007295 0.079185 -0.013029
v -0.009649 0.079185 -0.012054
v -0.011669 0.079185 -0.010502
v -0.013222 0.079185 -0.008481
v -0.014196 0.079185 -0.006127
v -0.014528 0.079185 -0.003602
v -0.014196 0.079185 -0.001077
v -0.013222 0.079185 0.001277
v -0.011669 0.079185 0.003297
v -0.009649 0.079185 0.004849
v -0.007295 0.079185 0.005824
v -0.004770 0.079185 0.006156
v -0.002245 0.079185 0.005824
v 0.000109 0.079185 0.004849
v 0.002131 0.079185 0.003297
v 0.003682 0.079185 0.001277
v 0.004656 0.079185 -0.001077
v 0.004988 0.079185 -0.003602
v 0.004988 -0.006200 -0.003602
v 0.004656 -0.006200 -0.001077
v 0.003682 -0.006200 0.001277
v 0.002131 -0.006200 0.003297
v 0.000109 -0.006200 0.004849
v -0.002245 -0.006200 0.005824
v -0.004770 -0.006200 0.006156
v -0.007295 -0.006200 0.005824
v -0.009649 -0.006200 0.004849
v -0.011669 -0.006200 0.003297
v -0.013222 -0.006200 0.001277
v -0.014196 -0.006200 -0.001077
v -0.014528 -0.006200 -0.003602
v -0.014196 -0.006200 -0.006127
v -0.013222 -0.006200 -0.008481
v -0.011669 -0.006200 -0.010502
v -0.009649 -0.006200 -0.012054
v -0.007295 -0.006200 -0.013029
v -0.004770 -0.006200 -0.013361
v -0.002245 -0.006200 -0.013029
v 0.000109 -0.006200 -0.012054
v 0.002131 -0.006200 -0.010502
v 0.003682 -0.006200 -0.008481
v 0.004656 -0.006200 -0.006127
vt 0.1667 0.8003
vt 0.1439 0.8679
vt 0.1439 0.7817
vt 0.1616 0.7873
vt 0.1616 0.8736
vt 0.1388 0.8059
vt 0.0807 0.8619
vt 0.0807 0.8391
vt 0.0820 0.8391
vt 0.0820 0.8619
vt 0.0807 0.8138
vt 0.0820 0.8138
vt 0.0807 0.7873
vt 0.0820 0.7873
vt 0.0788 0.7873
vt 0.0788 0.8163
vt 0.0789 0.8163
vt 0.0774 0.8163
vt 0.0774 0.7873
vt 0.0788 0.8472
vt 0.0774 0.8472
vt 0.0788 0.8761
vt 0.0774 0.8761
vt 0.0839 0.9365
vt 0.0839 0.9104
vt 0.0852 0.9104
vt 0.0852 0.9365
vt 0.0839 0.8841
vt 0.0852 0.8841
vt 0.0839 0.8619
vt 0.0852 0.8619
vt 0.0839 0.8404
vt 0.0852 0.8404
vt 0.0839 0.8170
vt 0.0852 0.8170
vt 0.0839 0.7873
vt 0.0852 0.7873
vt 0.0710 0.8163
vt 0.0710 0.7873
vt 0.0709 0.7873
vt 0.0723 0.7873
vt 0.0723 0.8163
vt 0.0742 0.8472
vt 0.0743 0.8472
vt 0.0743 0.8163
vt 0.0756 0.8163
vt 0.0756 0.8472
vt 0.0743 0.7873
vt 0.0756 0.7873
vt 0.0807 0.9365
vt 0.0807 0.9064
vt 0.0820 0.9064
vt 0.0820 0.9365
vt 0.0807 0.8828
vt 0.0820 0.8828
vt 0.0886 0.8890
vt 0.0886 0.8581
vt 0.0693 0.9123
vt 0.0724 0.8834
vt 0.4535 0.8641
vt 0.3892 0.9429
vt 0.3466 0.9277
vt 0.0870 0.8292
vt 0.2331 0.8890
vt 0.2362 0.9180
vt 0.5604 0.8004
vt 0.5581 0.8420
vt 0.1135 0.8198
vt 0.1920 0.8142
vt 0.2185 0.8235
vt 0.1224 0.9364
vt 0.0990 0.9230
vt 0.2065 0.9286
vt 0.4862 0.7671
vt 0.5224 0.7870
vt 0.1832 0.9420
vt 0.4535 0.9877
vt 0.4226 0.9622
vt 0.1826 0.8052
vt 0.4235 0.7660
vt 0.4535 0.7405
vt 0.1616 0.9598
vt 0.1661 0.9371
vt 0.1439 0.9542
vt 0.2061 0.8184
vt 0.0994 0.8128
vt 0.1230 0.7995
vt 0.1395 0.9428
vt 0.5230 0.9430
vt 0.4853 0.9633
vt 0.2362 0.8292
vt 0.3466 0.8004
vt 0.3898 0.7851
vt 0.1131 0.9286
vt 0.2185 0.9123
vt 0.1924 0.9230
vt 0.0724 0.8525
vt 0.0693 0.8235
vt 0.2331 0.8581
vt 0.0870 0.9180
vt 0.5581 0.8862
vt 0.5604 0.9277
vt 0.3510 0.8862
vt 0.3510 0.8420
vt 0.2169 0.8525
vt 0.2169 0.8834
vt 0.1138 0.0025
vt 0.1169 0.0038
vt 0.1196 0.0060
vt 0.1216 0.0089
vt 0.1229 0.0122
vt 0.1234 0.0158
vt 0.1229 0.0193
vt 0.1216 0.0226
vt 0.1196 0.0255
vt 0.1169 0.0277
vt 0.1138 0.0291
vt 0.1105 0.0295
vt 0.1071 0.0291
vt 0.1040 0.0277
vt 0.1014 0.0255
vt 0.0993 0.0226
vt 0.0980 0.0193
vt 0.0976 0.0158
vt 0.0980 0.0122
vt 0.0993 0.0089
vt 0.1014 0.0060
vt 0.1040 0.0038
vt 0.1071 0.0025
vt 0.1105 0.0020
vt 0.7654 0.0740
vt 0.7662 0.0741
vt 0.7669 0.0744
vt 0.7675 0.0749
vt 0.7679 0.0755
vt 0.7682 0.0763
vt 0.7683 0.0770
vt 0.7682 0.0778
vt 0.7679 0.0786
vt 0.7675 0.0792
vt 0.7669 0.0797
vt 0.7662 0.0800
vt 0.7654 0.0801
vt 0.7647 0.0800
vt 0.7640 0.0797
vt 0.7634 0.0792
vt 0.7630 0.0786
vt 0.7627 0.0778
vt 0.7626 0.0770
vt 0.7627 0.0763
vt 0.7630 0.0755
vt 0.7634 0.0749
vt 0.7640 0.0744
vt 0.7647 0.0741
vt 0.8059 0.0712
vt 0.8067 0.0712
vt 0.8067 0.2923
vt 0.8059 0.2923
vt 0.8073 0.0712
vt 0.8073 0.2923
vt 0.8079 0.0712
vt 0.8079 0.2923
vt 0.8084 0.0712
vt 0.8084 0.2923
vt 0.8129 0.2923
vt 0.8122 0.2923
vt 0.8122 0.0712
vt 0.8129 0.0712
vt 0.8114 0.2923
vt 0.8114 0.0712
vt 0.8106 0.2923
vt 0.8106 0.0712
vt 0.8099 0.2923
vt 0.8099 0.0712
vt 0.8143 0.0712
vt 0.8147 0.0712
vt 0.8147 0.2923
vt 0.8143 0.2923
vt 0.8153 0.0712
vt 0.8153 0.2923
vt 0.8160 0.0712
vt 0.8160 0.2923
vt 0.8167 0.0712
vt 0.8167 0.2923
vt 0.8175 0.0712
vt 0.8175 0.2923
vt 0.8182 0.0712
vt 0.8182 0.2923
vt 0.8188 0.0712
vt 0.8188 0.2923
vt 0.8192 0.0712
vt 0.8192 0.2923
vt 0.8206 0.0712
vt 0.8214 0.0712
vt 0.8214 0.2923
vt 0.8206 0.2923
vt 0.8222 0.0712
vt 0.8222 0.2923
vt 0.8230 0.0712
vt 0.8230 0.2923
vt 0.8237 0.0712
vt 0.8237 0.2923
vt 0.8034 0.0712
vt 0.8039 0.0712
vt 0.8039 0.2923
vt 0.8034 0.2923
vt 0.8045 0.0712
vt 0.8045 0.2923
vt 0.8052 0.0712
vt 0.8052 0.2923
vt 0.8054 0.1679
vt 0.7993 0.1654
vt 0.7941 0.1614
vt 0.7902 0.1562
vt 0.7876 0.1502
vt 0.7868 0.1437
vt 0.7876 0.1372
vt 0.7902 0.1312
vt 0.7941 0.1260
vt 0.7993 0.1220
vt 0.8054 0.1195
vt 0.8119 0.1186
vt 0.8184 0.1195
vt 0.8244 0.1220
vt 0.8296 0.1260
vt 0.8336 0.1312
vt 0.8361 0.1372
vt 0.8369 0.1437
vt 0.8361 0.1502
vt 0.8336 0.1562
vt 0.8296 0.1614
vt 0.8244 0.1654
vt 0.8184 0.1679
vt 0.8119 0.1688
vt 0.8229 0.2179
vt 0.8165 0.2171
vt 0.8104 0.2146
vt 0.8052 0.2106
vt 0.8012 0.2054
vt 0.7987 0.1993
vt 0.7979 0.1928
vt 0.7987 0.1864
vt 0.8012 0.1803
vt 0.8052 0.1751
vt 0.8104 0.1711
vt 0.8165 0.1686
vt 0.8229 0.1678
vt 0.8294 0.1686
vt 0.8355 0.1711
vt 0.8407 0.1751
vt 0.8447 0.1803
vt 0.8472 0.1864
vt 0.8480 0.1928
vt 0.8472 0.1993
vt 0.8447 0.2054
vt 0.8407 0.2106
vt 0.8355 0.2146
vt 0.8294 0.2171
vt 0.8134 0.0738
vt 0.8199 0.0738
vt 0.8199 0.2932
vt 0.8134 0.2932
vt 0.8264 0.0738
vt 0.8264 0.2932
vt 0.8330 0.0738
vt 0.8330 0.2932
vt 0.8395 0.0738
vt 0.8395 0.2932
vt 0.8673 0.0738
vt 0.8739 0.0738
vt 0.8739 0.2932
vt 0.8673 0.2932
vt 0.8804 0.0738
vt 0.8804 0.2932
vt 0.8870 0.0738
vt 0.8870 0.2932
vt 0.8935 0.0738
vt 0.8935 0.2932
vt 0.7340 0.0738
vt 0.7405 0.0738
vt 0.7405 0.2932
vt 0.7340 0.2932
vt 0.7470 0.0738
vt 0.7470 0.2932
vt 0.7536 0.0738
vt 0.7536 0.2932
vt 0.7601 0.0738
vt 0.7601 0.2932
vt 0.7667 0.0738
vt 0.7667 0.2932
vt 0.7732 0.0738
vt 0.7732 0.2932
vt 0.7798 0.0738
vt 0.7798 0.2932
vt 0.7863 0.0738
vt 0.7863 0.2932
vt 0.8404 0.0738
vt 0.8469 0.0738
vt 0.8469 0.2932
vt 0.8404 0.2932
vt 0.8535 0.0738
vt 0.8535 0.2932
vt 0.8600 0.0738
vt 0.8600 0.2932
vt 0.8666 0.0738
vt 0.8666 0.2932
vt 0.7872 0.0738
vt 0.7937 0.0738
vt 0.7937 0.2932
vt 0.7872 0.2932
vt 0.8003 0.0738
vt 0.8003 0.2932
vt 0.8068 0.0738
vt 0.8068 0.2932
vn 0.3914 0.8793 -0.2714
vn -0.0001 1.0000 -0.0013
vn 0.4129 0.9107 -0.0103
vn -0.3293 -0.9442 0.0089
vn 0.0001 -1.0000 0.0013
vn -0.3474 -0.9060 0.2419
vn -0.3893 -0.9057 0.1678
vn 0.4379 0.8787 -0.1898
vn -0.1684 -0.9441 0.2833
vn 0.2119 0.9126 -0.3496
vn 0.0099 -0.9151 0.4030
vn -0.0274 0.0000 -0.9996
vn -0.0137 0.8895 -0.4568
vn -0.0123 -0.9151 0.4030
vn 0.0137 0.8895 -0.4568
vn 0.1682 -0.9438 0.2844
vn -0.2091 0.9129 -0.3504
vn 0.3756 -0.9104 0.1736
vn -0.4242 0.8840 -0.1967
vn 0.3471 -0.9093 0.2294
vn -0.3919 0.8831 -0.2580
vn 0.3303 -0.9439 -0.0007
vn -0.4121 0.9111 0.0023
vn 0.3453 -0.9052 -0.2475
vn -0.3891 0.8783 0.2777
vn 0.3884 -0.9056 -0.1704
vn -0.4362 0.8791 0.1923
vn 0.1778 -0.9444 -0.2764
vn -0.2234 0.9120 0.3439
vn -0.0189 -0.9107 -0.4127
vn 0.0528 0.0000 0.9986
vn 0.0274 0.8843 0.4661
vn 0.0246 -0.9107 -0.4124
vn -0.0273 0.8843 0.4661
vn -0.1794 -0.9444 -0.2755
vn 0.2254 0.9120 0.3427
vn -0.3901 -0.9052 -0.1688
vn 0.4381 0.8785 0.1904
vn -0.3463 -0.9038 -0.2513
vn 0.3899 0.8768 0.2815
vn 0.9507 0.1489 -0.2720
vn 0.8418 0.1474 -0.5193
vn 0.6761 0.1455 -0.7223
vn 0.4704 0.1435 -0.8707
vn 0.2408 0.1422 -0.9601
vn -0.0000 0.1417 -0.9899
vn -0.2409 0.1422 -0.9601
vn -0.4705 0.1435 -0.8706
vn -0.6761 0.1455 -0.7223
vn -0.8418 0.1474 -0.5193
vn -0.9507 0.1489 -0.2721
vn -0.9888 0.1494 -0.0000
vn -0.9507 0.1489 0.2721
vn -0.8418 0.1474 0.5193
vn -0.6761 0.1455 0.7223
vn -0.4705 0.1435 0.8707
vn -0.2409 0.1422 0.9601
vn 0.0000 0.1417 0.9899
vn 0.2408 0.1422 0.9601
vn 0.4706 0.1435 0.8706
vn 0.6761 0.1455 0.7223
vn 0.8418 0.1474 0.5193
vn 0.9507 0.1489 0.2721
vn 0.9888 0.1494 0.0000
vn 0.9888 -0.1494 -0.0000
vn 0.9507 -0.1489 0.2721
vn 0.8418 -0.1474 0.5193
vn 0.6761 -0.1455 0.7223
vn 0.4704 -0.1435 0.8707
vn 0.2408 -0.1422 0.9601
vn 0.0001 -0.1417 0.9899
vn -0.2409 -0.1422 0.9601
vn -0.4705 -0.1435 0.8706
vn -0.6761 -0.1455 0.7223
vn -0.8418 -0.1474 0.5193
vn -0.9507 -0.1489 0.2721
vn -0.9888 -0.1494 0.0000
vn -0.9507 -0.1489 -0.2721
vn -0.8418 -0.1474 -0.5193
vn -0.6761 -0.1455 -0.7223
vn -0.4705 -0.1435 -0.8707
vn -0.2408 -0.1422 -0.9601
vn -0.0000 -0.1417 -0.9899
vn 0.2408 -0.1422 -0.9601
vn 0.4706 -0.1435 -0.8706
vn 0.6761 -0.1455 -0.7223
vn 0.8418 -0.1474 -0.5193
vn 0.9507 -0.1489 -0.2721
vn 0.6013 0.7826 -0.1612
vn 0.5391 0.7826 -0.3112
vn 0.4402 0.7826 -0.4402
vn 0.3113 0.7825 -0.5392
vn 0.1611 0.7826 -0.6013
vn -0.0000 0.7826 -0.6225
vn -0.1611 0.7826 -0.6013
vn -0.3113 0.7826 -0.5391
vn -0.4401 0.7826 -0.4402
vn -0.5391 0.7826 -0.3113
vn -0.6013 0.7826 -0.1611
vn -0.6225 0.7826 0.0000
vn -0.6013 0.7826 0.1611
vn -0.5391 0.7826 0.3113
vn -0.4402 0.7826 0.4402
vn -0.3113 0.7826 0.5391
vn -0.1611 0.7826 0.6013
vn 0.0000 0.7826 0.6225
vn 0.1611 0.7826 0.6013
vn 0.3113 0.7825 0.5392
vn 0.4402 0.7826 0.4402
vn 0.5391 0.7826 0.3113
vn 0.6013 0.7826 0.1612
vn 0.6225 0.7826 -0.0000
vn 0.6225 -0.7826 0.0000
vn 0.6013 -0.7826 0.1612
vn 0.5391 -0.7826 0.3112
vn 0.4402 -0.7826 0.4402
vn 0.3113 -0.7825 0.5392
vn 0.1611 -0.7826 0.6013
vn -0.0000 -0.7826 0.6225
vn -0.1611 -0.7826 0.6013
vn -0.3113 -0.7826 0.5391
vn -0.4401 -0.7826 0.4402
vn -0.5391 -0.7826 0.3113
vn -0.6013 -0.7826 0.1611
vn -0.6225 -0.7826 -0.0000
vn -0.6013 -0.7826 -0.1611
vn -0.5391 -0.7826 -0.3113
vn -0.4402 -0.7826 -0.4402
vn -0.3113 -0.7826 -0.5391
vn -0.1611 -0.7826 -0.6013
vn 0.0000 -0.7826 -0.6225
vn 0.1611 -0.7826 -0.6013
vn 0.3113 -0.7825 -0.5392
vn 0.4402 -0.7826 -0.4402
vn 0.5391 -0.7826 -0.3113
vn 0.6013 -0.7826 -0.1612
usemtl None
s 1
f 1/1/1 2/2/2 3/3/3
f 4/4/4 5/5/5 6/6/6
f 4/7/4 6/8/6 1/9/1 3/10/3
f 6/8/6 7/11/7 8/12/8 1/9/1
f 7/11/7 9/13/9 10/14/10 8/12/8
f 9/15/9 11/16/11 12/17/12 13/18/13 10/19/10
f 12/17/12 11/16/11 14/20/14 15/21/15 13/18/13
f 14/20/14 16/22/16 17/23/17 15/21/15
f 16/24/16 18/25/18 19/26/19 17/27/17
f 18/25/18 20/28/20 21/29/21 19/26/19
f 20/28/20 22/30/22 23/31/23 21/29/21
f 22/30/22 24/32/24 25/33/25 23/31/23
f 24/32/24 26/34/26 27/35/27 25/33/25
f 26/34/26 28/36/28 29/37/29 27/35/27
f 28/38/28 30/39/30 31/40/31 32/41/32 29/42/29
f 31/43/31 30/44/30 33/45/33 34/46/34 32/47/32
f 33/45/33 35/48/35 36/49/36 34/46/34
f 35/50/35 37/51/37 38/52/38 36/53/36
f 37/51/37 39/54/39 40/55/40 38/52/38
f 39/54/39 4/7/4 3/10/3 40/55/40
f 5/5/5 14/56/14 11/57/11
f 2/2/2 29/58/29 32/59/32
f 2/60/2 27/61/27 29/62/29
f 5/5/5 11/57/11 9/63/9
f 5/5/5 30/64/30 28/65/28
f 10/66/10 13/67/13 2/60/2
f 5/5/5 9/63/9 7/68/7
f 8/69/8 10/70/10 2/2/2
f 2/2/2 25/71/25 27/72/27
f 5/5/5 28/65/28 26/73/26
f 5/5/5 7/68/7 6/6/6
f 1/74/1 8/75/8 2/60/2
f 5/5/5 26/73/26 24/76/24
f 2/60/2 23/77/23 25/78/25
f 4/4/4 39/79/39 5/5/5
f 2/60/2 40/80/40 3/81/3
f 5/5/5 24/76/24 22/82/22
f 2/2/2 21/83/21 23/84/23
f 39/79/39 37/85/37 5/5/5
f 2/2/2 38/86/38 40/87/40
f 5/5/5 22/82/22 20/88/20
f 2/60/2 19/89/19 21/90/21
f 37/85/37 35/91/35 5/5/5
f 2/60/2 36/92/36 38/93/38
f 5/5/5 20/88/20 18/94/18
f 2/2/2 17/95/17 19/96/19
f 2/2/2 34/97/34 36/98/36
f 35/91/35 33/99/33 5/5/5
f 5/5/5 18/94/18 16/100/16
f 2/60/2 15/101/15 17/102/17
f 33/99/33 30/64/30 5/5/5
f 2/60/2 32/103/32 34/104/34
f 5/5/5 16/100/16 14/56/14
f 2/2/2 13/105/13 15/106/15
f 41/107/41 42/108/42 43/109/43 44/110/44 45/111/45 46/112/46 47/113/47 48/114/48 49/115/49 50/116/50 51/117/51 52/118/52 53/119/53 54/120/54 55/121/55 56/122/56 57/123/57 58/124/58 59/125/59 60/126/60 61/127/61 62/128/62 63/129/63 64/130/64
f 65/131/65 66/132/66 67/133/67 68/134/68 69/135/69 70/136/70 71/137/71 72/138/72 73/139/73 74/140/74 75/141/75 76/142/76 77/143/77 78/144/78 79/145/79 80/146/80 81/147/81 82/148/82 83/149/83 84/150/84 85/151/85 86/152/86 87/153/87 88/154/88
f 65/155/65 88/156/88 41/157/41 64/158/64
f 88/156/88 87/159/87 42/160/42 41/157/41
f 87/159/87 86/161/86 43/162/43 42/160/42
f 86/161/86 85/163/85 44/164/44 43/162/43
f 85/165/85 84/166/84 45/167/45 44/168/44
f 84/166/84 83/169/83 46/170/46 45/167/45
f 83/169/83 82/171/82 47/172/47 46/170/46
f 82/171/82 81/173/81 48/174/48 47/172/47
f 81/175/81 80/176/80 49/177/49 48/178/48
f 80/176/80 79/179/79 50/180/50 49/177/49
f 79/179/79 78/181/78 51/182/51 50/180/50
f 78/181/78 77/183/77 52/184/52 51/182/51
f 77/183/77 76/185/76 53/186/53 52/184/52
f 76/185/76 75/187/75 54/188/54 53/186/53
f 75/187/75 74/189/74 55/190/55 54/188/54
f 74/189/74 73/191/73 56/192/56 55/190/55
f 73/193/73 72/194/72 57/195/57 56/196/56
f 72/194/72 71/197/71 58/198/58 57/195/57
f 71/197/71 70/199/70 59/200/59 58/198/58
f 70/199/70 69/201/69 60/202/60 59/200/59
f 69/203/69 68/204/68 61/205/61 60/206/60
f 68/204/68 67/207/67 62/208/62 61/205/61
f 67/207/67 66/209/66 63/210/63 62/208/62
f 66/209/66 65/155/65 64/158/64 63/210/63
f 89/211/89 90/212/90 91/213/91 92/214/92 93/215/93 94/216/94 95/217/95 96/218/96 97/219/97 98/220/98 99/221/99 100/222/100 101/223/101 102/224/102 103/225/103 104/226/104 105/227/105 106/228/106 107/229/107 108/230/108 109/231/109 110/232/110 111/233/111 112/234/112
f 113/235/113 114/236/114 115/237/115 116/238/116 117/239/117 118/240/118 119/241/119 120/242/120 121/243/121 122/244/122 123/245/123 124/246/124 125/247/125 126/248/126 127/249/127 128/250/128 129/251/129 130/252/130 131/253/131 132/254/132 133/255/133 134/256/134 135/257/135 136/258/136
f 113/259/113 136/260/136 89/261/89 112/262/112
f 136/260/136 135/263/135 90/264/90 89/261/89
f 135/263/135 134/265/134 91/266/91 90/264/90
f 134/265/134 133/267/133 92/268/92 91/266/91
f 133/269/133 132/270/132 93/271/93 92/272/92
f 132/270/132 131/273/131 94/274/94 93/271/93
f 131/273/131 130/275/130 95/276/95 94/274/94
f 130/275/130 129/277/129 96/278/96 95/276/95
f 129/279/129 128/280/128 97/281/97 96/282/96
f 128/280/128 127/283/127 98/284/98 97/281/97
f 127/283/127 126/285/126 99/286/99 98/284/98
f 126/285/126 125/287/125 100/288/100 99/286/99
f 125/287/125 124/289/124 101/290/101 100/288/100
f 124/289/124 123/291/123 102/292/102 101/290/101
f 123/291/123 122/293/122 103/294/103 102/292/102
f 122/293/122 121/295/121 104/296/104 103/294/103
f 121/297/121 120/298/120 105/299/105 104/300/104
f 120/298/120 119/301/119 106/302/106 105/299/105
f 119/301/119 118/303/118 107/304/107 106/302/106
f 118/303/118 117/305/117 108/306/108 107/304/107
f 117/307/117 116/308/116 109/309/109 108/310/108
f 116/308/116 115/311/115 110/312/110 109/309/109
f 115/311/115 114/313/114 111/314/111 110/312/110
f 114/313/114 113/259/113 112/262/112 111/314/111
