# Blender v2.78 (sub 0) OBJ File: ''
# www.blender.org
mtllib Sifir_dik.mtl
o instance_0_ID5
v -0.077275 0.332298 -0.025000
v 0.077276 0.332298 -0.025000
v 0.032295 0.002742 0.025000
v 0.000000 -0.000351 0.025000
v 0.063416 0.011910 0.025000
v -0.063415 0.011910 0.025000
v -0.092229 0.026818 0.025000
v 0.117690 0.046926 0.025000
v -0.138869 0.071500 0.025000
v 0.138870 0.071500 0.025000
v 0.017473 0.079403 0.025000
v 0.034311 0.084363 0.025000
v 0.049900 0.092429 0.025000
v 0.063675 0.103308 0.025000
v 0.075135 0.116604 0.025000
v 0.155000 0.349649 0.025000
v 0.073726 0.339853 0.025000
v 0.063099 0.353977 0.025000
v 0.049812 0.365633 0.025000
v 0.017582 0.379696 0.025000
v 0.000000 0.381511 0.025000
v 0.120385 0.407117 0.025000
v -0.017472 0.079403 0.025000
v -0.155000 0.099649 0.025000
v -0.077275 0.120340 0.025000
v -0.155000 0.349649 0.025000
v -0.063098 0.353977 0.025000
v -0.049811 0.365633 0.025000
v -0.017582 0.379696 0.025000
v -0.120384 0.407117 0.025000
v 0.095033 0.429354 0.025000
v -0.095032 0.429354 0.025000
v 0.000000 -0.000351 -0.025000
v 0.092230 0.026818 -0.025000
v -0.138869 0.071500 -0.025000
v 0.000000 0.077729 -0.025000
v -0.034310 0.084363 -0.025000
v -0.063675 0.103308 -0.025000
v -0.077275 0.120340 -0.025000
v -0.063098 0.353977 -0.025000
v -0.140658 0.380169 -0.025000
v -0.049811 0.365633 -0.025000
v -0.017582 0.379696 -0.025000
v 0.000000 0.381511 -0.025000
v -0.120384 0.407117 -0.025000
v 0.034311 0.084363 -0.025000
v 0.075135 0.116604 -0.025000
v 0.073726 0.339853 -0.025000
v 0.140659 0.380169 -0.025000
v 0.034423 0.374328 -0.025000
v 0.017582 0.379696 -0.025000
v 0.120385 0.407117 -0.025000
v -0.095032 0.429354 -0.025000
v 0.095033 0.429354 -0.025000
v 0.065674 0.445944 -0.025000
v 0.033545 0.456186 -0.025000
v -0.155000 0.349649 -0.025000
v -0.155000 0.099649 -0.025000
v 0.155000 0.099649 -0.025000
v -0.049900 0.092429 0.025000
v -0.063675 0.103308 0.025000
v -0.049900 0.092429 -0.025000
v -0.034310 0.084363 0.025000
v -0.075134 0.116604 0.025000
v -0.075134 0.116604 -0.025000
v -0.017472 0.079403 -0.025000
v 0.000000 0.077729 0.025000
v 0.017473 0.079403 -0.025000
v -0.073725 0.339853 0.025000
v -0.077275 0.332298 0.025000
v -0.073725 0.339853 -0.025000
v 0.049900 0.092429 -0.025000
v 0.063675 0.103308 -0.025000
v -0.034422 0.374328 -0.025000
v -0.034422 0.374328 0.025000
v 0.077276 0.120340 -0.025000
v 0.077276 0.120340 0.025000
v 0.077276 0.332298 0.025000
v 0.034423 0.374328 0.025000
v 0.063099 0.353977 -0.025000
v 0.049812 0.365633 -0.025000
v 0.117690 0.046926 -0.025000
v 0.092230 0.026818 0.025000
v 0.063416 0.011910 -0.025000
v 0.138870 0.071500 -0.025000
v -0.117689 0.046926 0.025000
v -0.117689 0.046926 -0.025000
v -0.092229 0.026818 -0.025000
v -0.063415 0.011910 -0.025000
v -0.032294 0.002742 -0.025000
v -0.032294 0.002742 0.025000
v 0.032295 0.002742 -0.025000
v 0.155000 0.099649 0.025000
v 0.155000 0.349649 -0.025000
v 0.140659 0.380169 0.025000
v 0.065674 0.445944 0.025000
v 0.033545 0.456186 0.025000
v 0.000000 0.459649 -0.025000
v 0.000000 0.459649 0.025000
v -0.033544 0.456186 -0.025000
v -0.033544 0.456186 0.025000
v -0.065673 0.445944 -0.025000
v -0.065673 0.445944 0.025000
v -0.140658 0.380169 0.025000
vt 0.0556 0.1432
vt 0.0000 0.3787
vt 0.0000 0.1432
vt 0.0556 0.3787
vt -0.0556 0.3787
vt 0.0000 0.1432
vt 0.0000 0.3787
vt -0.0556 0.1432
vt 0.0000 0.0000
vt 0.0000 0.0000
vt 0.0000 0.0000
vt 0.0000 0.0000
vt 0.0000 0.0000
vt 0.0000 0.0000
vt 0.0000 0.0000
vt 0.0000 0.0000
vt 0.0000 0.0000
vt 0.0000 0.0000
vt 0.0000 0.0000
vt 0.0000 0.0000
vt 0.0000 0.0000
vt 0.0000 0.0000
vt 0.0000 0.0000
vt 0.0000 0.0000
vt 0.0000 0.0000
vt 0.0000 0.0000
vt 0.0000 0.0000
vt 0.0000 0.0000
vt 0.0000 0.0000
vt 0.0000 0.0000
vt 0.0000 0.0000
vt 0.0000 0.0000
vt 0.0000 0.0000
vt 0.0000 0.0000
vt 0.0000 0.0000
vt 0.0000 0.0000
vt 0.0000 0.0000
vt 0.0000 0.0000
vt 0.0000 0.0000
vt 0.0000 0.0000
vt 0.0000 0.0000
vt 0.0000 0.0000
vt 0.0000 0.0000
vt 0.0000 0.0000
vt 0.0000 0.0000
vt 0.0000 0.0000
vt 0.0000 0.0000
vt 0.0000 0.0000
vt 0.0000 0.0000
vt 0.0000 0.0000
vt 0.0000 0.0000
vt 0.0000 0.0000
vt 0.0000 0.0000
vt 0.0000 0.0000
vt 0.0000 0.0000
vt 0.0000 0.0000
vt 0.0000 0.0000
vt 0.0000 0.0000
vt 0.0000 0.0000
vt 0.0000 0.0000
vt 0.0000 0.0000
vt 0.0000 0.0000
vt 0.0000 0.0000
vt 0.0000 0.0000
vt 0.0000 0.0000
vt 0.0000 0.0000
vt 0.0000 0.0000
vt 0.0000 0.0000
vt 0.0000 0.0000
vt 0.0000 0.0000
vt 0.0000 0.0000
vt 0.0000 0.0000
vt 0.0000 0.0000
vt 0.0000 0.0000
vt 0.0000 0.0000
vt 0.0000 0.0000
vt 0.0000 0.0000
vt 0.0000 0.0000
vt 0.0000 0.0000
vt 0.0000 0.0000
vt 0.0000 0.0000
vt 0.0000 0.0000
vt 0.0000 0.0000
vt 0.0000 0.0000
vt 0.0000 0.0000
vt 0.0000 0.0000
vt 0.0000 0.0000
vt 0.0000 0.0000
vt 0.0000 0.0000
vt 0.0000 0.0000
vt 0.0000 0.0000
vt 0.0000 0.0000
vt 0.0000 0.0000
vt 0.0000 0.0000
vt 0.0000 0.0000
vt 0.0000 0.0000
vt 0.0000 0.0000
vt 0.0000 0.0000
vt 0.0000 0.0000
vt 0.0000 0.0000
vt 0.0000 0.0000
vt 0.0000 0.0000
vt 0.0000 0.0000
vt 0.0000 0.0000
vt 0.0000 0.0000
vt 0.0000 0.0000
vt 0.0000 0.0000
vt 0.0000 0.0000
vt 0.0000 0.0000
vt 0.0000 0.0000
vt 0.0000 0.0000
vt 0.0000 0.0000
vt 0.0000 -0.0241
vt 0.0556 -0.0046
vt 0.0000 -0.0046
vt 0.0556 -0.0241
vt 0.0000 -0.0739
vt 0.0556 -0.0544
vt 0.0000 -0.0544
vt 0.0556 -0.0739
vt 0.0556 0.0262
vt 0.0000 0.0457
vt 0.0000 0.0262
vt 0.0556 0.0457
vt 0.0000 -0.1214
vt 0.0556 -0.1019
vt 0.0000 -0.1019
vt 0.0556 -0.1214
vt 0.0556 0.0753
vt 0.0000 0.0801
vt 0.0000 0.0753
vt 0.0556 0.0801
vt 0.0000 -0.1648
vt 0.0556 -0.1453
vt 0.0000 -0.1453
vt 0.0556 -0.1648
vt 0.0000 0.2026
vt -0.0556 0.1831
vt 0.0000 0.1831
vt -0.0556 0.2026
vt 0.0556 0.3806
vt 0.0000 0.3899
vt 0.0000 0.3806
vt 0.0556 0.3899
vt 0.0000 0.2334
vt -0.0556 0.2139
vt 0.0000 0.2139
vt -0.0556 0.2334
vt 0.0556 0.3652
vt 0.0000 0.3848
vt 0.0000 0.3652
vt 0.0556 0.3848
vt 0.0000 0.2560
vt -0.0556 0.2365
vt 0.0000 0.2365
vt -0.0556 0.2560
vt 0.0556 0.3639
vt 0.0000 0.3443
vt 0.0556 0.3443
vt 0.0000 0.3639
vt 0.0000 0.2697
vt -0.0556 0.2502
vt 0.0000 0.2502
vt -0.0556 0.2697
vt 0.0556 0.3281
vt 0.0000 0.3085
vt 0.0556 0.3085
vt 0.0000 0.3281
vt -0.0556 0.2739
vt 0.0000 0.2544
vt 0.0000 0.2739
vt -0.0556 0.2544
vt 0.0556 0.2789
vt 0.0000 0.2593
vt 0.0556 0.2593
vt 0.0000 0.2789
vt -0.0556 0.2538
vt 0.0000 0.2491
vt 0.0000 0.2538
vt -0.0556 0.2491
vt 0.0556 0.2183
vt 0.0000 0.1987
vt 0.0556 0.1987
vt 0.0000 0.2183
vt -0.0556 -0.1490
vt 0.0000 -0.1293
vt -0.0556 -0.1293
vt 0.0000 -0.1490
vt -0.0556 0.2412
vt 0.0000 0.2319
vt 0.0000 0.2412
vt -0.0556 0.2319
vt -0.0556 -0.0737
vt 0.0000 -0.0541
vt -0.0556 -0.0541
vt 0.0000 -0.0737
vt -0.0556 0.1747
vt 0.0000 0.1550
vt 0.0000 0.1747
vt -0.0556 0.1550
vt -0.0556 0.0042
vt 0.0000 0.0238
vt -0.0556 0.0238
vt 0.0000 0.0042
vt -0.0556 0.0815
vt 0.0000 0.1012
vt -0.0556 0.1012
vt 0.0000 0.0815
vn 1.0000 -0.0000 0.0000
vn -1.0000 -0.0000 0.0000
vn 0.0000 0.0000 1.0000
vn 0.0000 0.0000 -1.0000
vn 0.5421 0.8403 0.0000
vn 0.6918 0.7221 0.0000
vn 0.3727 0.9279 0.0000
vn 0.8163 0.5777 0.0000
vn 0.1898 0.9818 0.0000
vn 0.8676 0.4972 0.0000
vn 0.0000 1.0000 0.0000
vn -0.1898 0.9818 0.0000
vn 0.9051 -0.4253 0.0000
vn 0.8566 -0.5160 0.0000
vn -0.3728 0.9279 0.0000
vn 0.7331 -0.6801 0.0000
vn -0.5421 0.8403 0.0000
vn 0.5788 -0.8155 0.0000
vn -0.6918 0.7221 0.0000
vn 0.3999 -0.9165 0.0000
vn -0.8163 0.5777 0.0000
vn 0.2043 -0.9789 0.0000
vn -0.8676 0.4972 0.0000
vn 0.0000 -1.0000 0.0000
vn -0.2043 -0.9789 0.0000
vn -0.8566 -0.5160 0.0000
vn -0.9051 -0.4253 0.0000
vn -0.3999 -0.9165 0.0000
vn -0.7331 -0.6801 0.0000
vn -0.5788 -0.8155 0.0000
vn 0.6918 -0.7221 -0.0000
vn 0.5421 -0.8403 -0.0000
vn 0.3728 -0.9279 -0.0000
vn 0.8163 -0.5777 -0.0000
vn -0.8676 -0.4972 -0.0000
vn -0.8163 -0.5777 -0.0000
vn -0.6918 -0.7221 -0.0000
vn -0.5421 -0.8403 -0.0000
vn -0.3728 -0.9279 -0.0000
vn -0.1898 -0.9818 -0.0000
vn 0.1898 -0.9818 -0.0000
vn 0.8676 -0.4972 -0.0000
vn 0.9051 0.4253 0.0000
vn 0.8566 0.5160 0.0000
vn 0.7331 0.6801 0.0000
vn 0.5787 0.8155 0.0000
vn 0.4000 0.9165 0.0000
vn 0.2043 0.9789 0.0000
vn -0.2043 0.9789 0.0000
vn -0.4000 0.9165 0.0000
vn -0.5787 0.8155 0.0000
vn -0.7331 0.6801 0.0000
vn -0.8566 0.5160 0.0000
vn -0.9051 0.4253 0.0000
usemtl None
s off
f 39/1/1 70/2/1 25/3/1
f 70/2/1 39/1/1 1/4/1
f 2/5/2 77/6/2 78/7/2
f 77/6/2 2/5/2 76/8/2
f 3/9/3 91/10/3 4/11/3
f 91/10/3 3/9/3 5/12/3
f 91/10/3 5/12/3 6/13/3
f 6/13/3 5/12/3 83/14/3
f 6/13/3 83/14/3 7/15/3
f 7/15/3 83/14/3 8/16/3
f 7/15/3 8/16/3 86/17/3
f 86/17/3 8/16/3 9/18/3
f 9/18/3 8/16/3 10/19/3
f 9/18/3 10/19/3 67/20/3
f 67/20/3 10/19/3 11/21/3
f 11/21/3 10/19/3 93/22/3
f 11/21/3 93/22/3 12/23/3
f 12/23/3 93/22/3 13/24/3
f 13/24/3 93/22/3 14/25/3
f 14/25/3 93/22/3 15/26/3
f 15/26/3 93/22/3 77/27/3
f 77/27/3 93/22/3 16/28/3
f 77/27/3 16/28/3 78/29/3
f 78/29/3 16/28/3 17/30/3
f 17/30/3 16/28/3 18/31/3
f 18/31/3 16/28/3 95/32/3
f 18/31/3 95/32/3 19/33/3
f 19/33/3 95/32/3 79/34/3
f 79/34/3 95/32/3 20/35/3
f 20/35/3 95/32/3 21/36/3
f 21/36/3 95/32/3 22/37/3
f 9/18/3 23/38/3 24/39/3
f 23/38/3 9/18/3 67/20/3
f 24/39/3 23/38/3 63/40/3
f 24/39/3 63/40/3 60/41/3
f 24/39/3 60/41/3 61/42/3
f 24/39/3 61/42/3 64/43/3
f 24/39/3 64/43/3 25/44/3
f 24/39/3 25/44/3 26/45/3
f 26/45/3 25/44/3 70/46/3
f 26/45/3 70/46/3 69/47/3
f 26/45/3 69/47/3 27/48/3
f 26/45/3 27/48/3 104/49/3
f 104/49/3 27/48/3 28/50/3
f 104/49/3 28/50/3 75/51/3
f 104/49/3 75/51/3 29/52/3
f 104/49/3 29/52/3 21/36/3
f 104/49/3 21/36/3 30/53/3
f 30/53/3 21/36/3 22/37/3
f 30/53/3 22/37/3 31/54/3
f 30/53/3 31/54/3 32/55/3
f 32/55/3 31/54/3 96/56/3
f 32/55/3 96/56/3 103/57/3
f 103/57/3 96/56/3 97/58/3
f 103/57/3 97/58/3 101/59/3
f 101/59/3 97/58/3 99/60/3
f 90/61/4 92/62/4 33/63/4
f 92/62/4 90/61/4 89/64/4
f 92/62/4 89/64/4 84/65/4
f 84/65/4 89/64/4 88/66/4
f 84/65/4 88/66/4 34/67/4
f 34/67/4 88/66/4 87/68/4
f 34/67/4 87/68/4 82/69/4
f 82/69/4 87/68/4 35/70/4
f 82/69/4 35/70/4 85/71/4
f 85/71/4 35/70/4 36/72/4
f 36/72/4 35/70/4 66/73/4
f 66/73/4 35/70/4 58/74/4
f 66/73/4 58/74/4 37/75/4
f 37/75/4 58/74/4 62/76/4
f 62/76/4 58/74/4 38/77/4
f 38/77/4 58/74/4 65/78/4
f 65/78/4 58/74/4 39/79/4
f 39/79/4 58/74/4 57/80/4
f 39/79/4 57/80/4 1/81/4
f 1/81/4 57/80/4 71/82/4
f 71/82/4 57/80/4 40/83/4
f 40/83/4 57/80/4 41/84/4
f 40/83/4 41/84/4 42/85/4
f 42/85/4 41/84/4 74/86/4
f 74/86/4 41/84/4 43/87/4
f 43/87/4 41/84/4 44/88/4
f 44/88/4 41/84/4 45/89/4
f 85/71/4 68/90/4 59/91/4
f 68/90/4 85/71/4 36/72/4
f 59/91/4 68/90/4 46/92/4
f 59/91/4 46/92/4 72/93/4
f 59/91/4 72/93/4 73/94/4
f 59/91/4 73/94/4 47/95/4
f 59/91/4 47/95/4 76/96/4
f 59/91/4 76/96/4 94/97/4
f 94/97/4 76/96/4 2/98/4
f 94/97/4 2/98/4 48/99/4
f 94/97/4 48/99/4 80/100/4
f 94/97/4 80/100/4 49/101/4
f 49/101/4 80/100/4 81/102/4
f 49/101/4 81/102/4 50/103/4
f 49/101/4 50/103/4 51/104/4
f 49/101/4 51/104/4 44/88/4
f 49/101/4 44/88/4 52/105/4
f 52/105/4 44/88/4 45/89/4
f 52/105/4 45/89/4 53/106/4
f 52/105/4 53/106/4 54/107/4
f 54/107/4 53/106/4 102/108/4
f 54/107/4 102/108/4 55/109/4
f 55/109/4 102/108/4 100/110/4
f 55/109/4 100/110/4 56/111/4
f 56/111/4 100/110/4 98/112/4
f 57/80/2 24/39/2 26/45/2
f 24/39/2 57/80/2 58/74/2
f 59/91/1 16/28/1 93/22/1
f 16/28/1 59/91/1 94/97/1
s 1
f 60/113/5 38/114/6 61/115/6
f 38/114/6 60/113/5 62/116/5
f 63/117/7 62/118/5 60/119/5
f 62/118/5 63/117/7 37/120/7
f 38/121/6 64/122/8 61/123/6
f 64/122/8 38/121/6 65/124/8
f 23/125/9 37/126/7 63/127/7
f 37/126/7 23/125/9 66/128/9
f 65/129/8 25/130/10 64/131/8
f 25/130/10 65/129/8 39/132/10
f 67/133/11 66/134/9 23/135/9
f 66/134/9 67/133/11 36/136/11
f 11/137/12 36/138/11 67/139/11
f 36/138/11 11/137/12 68/140/12
f 1/141/13 69/142/14 70/143/13
f 69/142/14 1/141/13 71/144/14
f 12/145/15 68/146/12 11/147/12
f 68/146/12 12/145/15 46/148/15
f 71/149/14 27/150/16 69/151/14
f 27/150/16 71/149/14 40/152/16
f 13/153/17 46/154/15 12/155/15
f 46/154/15 13/153/17 72/156/17
f 42/157/18 27/158/16 40/159/16
f 27/158/16 42/157/18 28/160/18
f 14/161/19 72/162/17 13/163/17
f 72/162/17 14/161/19 73/164/19
f 74/165/20 28/166/18 42/167/18
f 28/166/18 74/165/20 75/168/20
f 47/169/21 14/170/19 15/171/21
f 14/170/19 47/169/21 73/172/19
f 43/173/22 75/174/20 74/175/20
f 75/174/20 43/173/22 29/176/22
f 76/177/23 15/178/21 77/179/23
f 15/178/21 76/177/23 47/180/21
f 44/181/24 29/182/22 43/183/22
f 29/182/22 44/181/24 21/184/24
f 51/185/25 21/186/24 44/187/24
f 21/186/24 51/185/25 20/188/25
f 48/189/26 78/190/27 17/191/26
f 78/190/27 48/189/26 2/192/27
f 50/193/28 20/194/25 51/195/25
f 20/194/25 50/193/28 79/196/28
f 80/197/29 17/198/26 18/199/29
f 17/198/26 80/197/29 48/200/26
f 81/201/30 79/202/28 50/203/28
f 79/202/28 81/201/30 19/204/30
f 80/205/29 19/206/30 81/207/30
f 19/206/30 80/205/29 18/208/29
f 82/69/31 83/14/32 34/67/32
f 83/14/32 82/69/31 8/16/31
f 34/67/32 5/12/33 84/65/33
f 5/12/33 34/67/32 83/14/32
f 82/69/31 10/19/34 8/16/31
f 10/19/34 82/69/31 85/71/34
f 58/74/35 9/18/36 24/39/35
f 9/18/36 58/74/35 35/70/36
f 35/70/36 86/17/37 9/18/36
f 86/17/37 35/70/36 87/68/37
f 88/66/38 86/17/37 87/68/37
f 86/17/37 88/66/38 7/15/38
f 89/64/39 7/15/38 88/66/38
f 7/15/38 89/64/39 6/13/39
f 90/61/40 6/13/39 89/64/39
f 6/13/39 90/61/40 91/10/40
f 33/63/24 91/10/40 90/61/40
f 91/10/40 33/63/24 4/11/24
f 92/62/41 4/11/24 33/63/24
f 4/11/24 92/62/41 3/9/41
f 84/65/33 3/9/41 92/62/41
f 3/9/41 84/65/33 5/12/33
f 85/71/34 93/22/42 10/19/34
f 93/22/42 85/71/34 59/91/42
f 94/97/43 95/32/44 16/28/43
f 95/32/44 94/97/43 49/101/44
f 49/101/44 22/37/45 95/32/44
f 22/37/45 49/101/44 52/105/45
f 22/37/45 54/107/46 31/54/46
f 54/107/46 22/37/45 52/105/45
f 31/54/46 55/109/47 96/56/47
f 55/109/47 31/54/46 54/107/46
f 96/56/47 56/111/48 97/58/48
f 56/111/48 96/56/47 55/109/47
f 97/58/48 98/112/11 99/60/11
f 98/112/11 97/58/48 56/111/48
f 99/60/11 100/110/49 101/59/49
f 100/110/49 99/60/11 98/112/11
f 101/59/49 102/108/50 103/57/50
f 102/108/50 101/59/49 100/110/49
f 103/57/50 53/106/51 32/55/51
f 53/106/51 103/57/50 102/108/50
f 32/55/51 45/89/52 30/53/52
f 45/89/52 32/55/51 53/106/51
f 45/89/52 104/49/53 30/53/52
f 104/49/53 45/89/52 41/84/53
f 41/84/53 26/45/54 104/49/53
f 26/45/54 41/84/53 57/80/54
