# Blender v2.78 (sub 0) OBJ File: ''
# www.blender.org
mtllib Visne_dik.mtl
o fg_cherry.001
v 0.111802 0.303842 -0.014789
v 0.116685 0.320144 -0.038722
v 0.115177 0.326554 -0.019179
v 0.086181 0.235278 -0.022983
v 0.065293 0.326837 -0.030466
v 0.050262 0.321496 -0.029606
v 0.099236 0.242035 -0.014399
v 0.062210 0.326310 -0.044180
v 0.089901 0.141750 0.018589
v 0.103913 0.240775 -0.028995
v 0.072172 0.140083 0.003525
v 0.100519 0.140984 0.000582
v 0.086975 0.012038 -0.036214
v 0.130149 0.007971 0.033628
v 0.165630 0.045575 0.018603
v 0.128864 0.082348 -0.060949
v -0.001441 0.047410 -0.000895
v 0.053442 0.083176 -0.069751
v 0.169120 0.098279 0.004071
v 0.114683 0.131191 -0.044780
v 0.064573 0.131741 -0.050628
v 0.029027 0.142547 -0.016405
v 0.141619 0.141310 -0.003265
v 0.056412 0.148071 -0.023187
v 0.116658 0.147410 -0.016155
v 0.125102 0.154480 0.042657
v 0.143899 0.118973 0.076348
v 0.072190 0.128847 0.101456
v 0.080787 0.161712 0.030897
v 0.077567 0.160782 0.058403
v 0.140766 0.065976 0.089857
v 0.034808 0.155471 0.032119
v 0.070073 0.075711 0.114609
v 0.007994 0.120466 0.060487
v 0.115066 0.020346 0.076850
v 0.006785 0.067448 0.074221
v -0.000350 0.100139 -0.015707
v 0.072184 0.026251 0.091864
v 0.077709 0.000304 0.042084
v 0.033794 0.021239 0.067365
v 0.028804 0.009083 0.021799
v 0.019237 0.218122 -0.040023
v 0.039407 0.211391 -0.039048
v 0.054745 0.333502 -0.026996
v -0.061760 0.119607 -0.029244
v 0.059229 0.333101 -0.044935
v -0.095901 0.119473 -0.026838
v 0.022218 0.217438 -0.056688
v -0.091343 0.124764 -0.038003
v 0.071106 0.329840 -0.027324
v -0.085439 0.049704 -0.076467
v -0.137560 0.059451 -0.016733
v -0.006978 0.083017 -0.067180
v -0.053487 0.119818 -0.114609
v -0.003915 0.088640 0.010789
v -0.108423 0.171330 -0.095782
v 0.001183 0.134212 -0.055642
v -0.029717 0.158662 -0.087153
v -0.065481 0.192078 -0.076013
v -0.040452 0.181701 -0.066548
v -0.023498 0.165241 0.026170
v 0.003952 0.137140 -0.005209
v -0.046608 0.132452 0.060587
v -0.003300 0.152304 -0.028662
v -0.102908 0.181463 0.044714
v -0.043908 0.191269 -0.006494
v -0.060496 0.197355 0.014866
v -0.083776 0.092113 0.064383
v -0.041687 0.048921 0.015290
v -0.079179 0.209299 -0.030611
v -0.139278 0.140429 0.048735
v -0.130417 0.198764 -0.024877
v -0.119002 0.064199 0.034661
v -0.093470 0.037999 0.004882
v -0.166397 0.157487 -0.019870
v -0.144715 0.130441 -0.089772
v -0.152668 0.093508 0.025170
v -0.155968 0.087449 -0.058849
v -0.169120 0.103855 -0.016447
v 0.083804 0.142834 0.003272
v -0.037942 0.168635 -0.030275
v -0.028642 0.321507 -0.052690
v -0.003506 0.358787 -0.020156
v -0.013180 0.350298 -0.062992
v -0.017826 0.321926 -0.019800
vt 0.1659 0.9233
vt 0.1892 0.8891
vt 0.1983 0.9170
vt 0.2370 0.0775
vt 0.2265 0.1238
vt 0.2189 0.1211
vt 0.2436 0.0809
vt 0.2639 0.0754
vt 0.2458 0.0319
vt 0.2518 0.0295
vt 0.2389 0.0303
vt 0.2729 0.0726
vt 0.2300 0.0295
vt 0.2712 0.1230
vt 0.2569 0.1235
vt 0.2995 0.0798
vt 0.3002 0.1233
vt 0.2921 0.0805
vt 0.3071 0.1230
vt 0.2845 0.0295
vt 0.2755 0.0298
vt 0.6104 0.7987
vt 0.7100 0.7371
vt 0.7221 0.8119
vt 0.9399 0.2410
vt 0.8617 0.2889
vt 0.8402 0.2352
vt 0.6931 0.8817
vt 0.9752 0.3413
vt 0.6607 0.9248
vt 0.4966 0.9308
vt 0.4488 0.8293
vt 0.5564 0.8305
vt 0.5625 0.8465
vt 0.8824 0.3641
vt 0.3705 0.8803
vt 0.3721 0.8051
vt 0.9521 0.4110
vt 0.5362 0.7608
vt 0.4647 0.7600
vt 0.4140 0.7446
vt 0.8929 0.4254
vt 0.2469 0.8997
vt 0.2566 0.8606
vt 0.2957 0.8490
vt 0.2874 0.7775
vt 0.2465 0.7747
vt 0.2282 0.7390
vt 0.1202 0.5202
vt 0.1752 0.4400
vt 0.1857 0.5014
vt 0.0721 0.4696
vt 0.7390 0.5265
vt 0.8045 0.5030
vt 0.8229 0.5386
vt 0.6551 0.6020
vt 0.6909 0.4997
vt 0.7557 0.5897
vt 0.7165 0.5943
vt 0.0528 0.3940
vt 0.1545 0.3649
vt 0.7540 0.6553
vt 0.6481 0.6398
vt 0.5723 0.6428
vt 0.6340 0.5375
vt 0.7135 0.6936
vt 0.1701 0.6986
vt 0.1117 0.6866
vt 0.1889 0.6228
vt 0.5584 0.5420
vt 0.0714 0.3289
vt 0.1330 0.3112
vt 0.1313 0.6110
vt 0.0712 0.7366
vt 0.0030 0.6576
vt 0.8329 0.6245
vt 0.5017 0.6398
vt 0.4933 0.5786
vt 0.5605 0.7331
vt 0.1389 0.7406
vt 0.2006 0.7621
vt 0.1510 0.8154
vt 0.2220 0.8232
vt 0.0020 0.7181
vt 0.0241 0.5824
vt 0.8232 0.6636
vt 0.1871 0.8780
vt 0.4946 0.6946
vt 0.1215 0.5451
vt 0.1221 0.8851
vt 0.0565 0.5277
vt 0.0880 0.0793
vt 0.0981 0.0759
vt 0.1059 0.1375
vt 0.0471 0.0295
vt 0.1252 0.0793
vt 0.1318 0.1375
vt 0.1227 0.1373
vt 0.0298 0.0295
vt 0.1168 0.0789
vt 0.1262 0.0321
vt 0.1319 0.0295
vt 0.1914 0.0879
vt 0.2101 0.0295
vt 0.2001 0.0909
vt 0.1490 0.1373
vt 0.1340 0.1346
vt 0.1141 0.1357
vt 0.2161 0.0311
vt 0.2462 0.4231
vt 0.3623 0.4346
vt 0.3314 0.4975
vt 0.3771 0.3607
vt 0.2713 0.5237
vt 0.2595 0.3112
vt 0.4068 0.7406
vt 0.3062 0.6868
vt 0.3223 0.6254
vt 0.1918 0.3776
vt 0.4524 0.6406
vt 0.7282 0.6976
vt 0.8458 0.7462
vt 0.7346 0.7542
vt 0.3740 0.5671
vt 0.8294 0.8192
vt 0.9135 0.7987
vt 0.8743 0.8541
vt 0.4863 0.5852
vt 0.7574 0.8234
vt 0.4353 0.5375
vt 0.7909 0.8451
vt 0.8449 0.8870
vt 0.4710 0.5523
vt 0.7626 0.3115
vt 0.6533 0.2835
vt 0.7225 0.2723
vt 0.7158 0.3444
vt 0.5358 0.3595
vt 0.5749 0.4043
vt 0.5646 0.4378
vt 0.4225 0.3331
vt 0.5028 0.3104
vt 0.5067 0.4061
vt 0.4830 0.3757
vt 0.6583 0.3974
vt 0.5966 0.3374
vt 0.4563 0.4405
vt 0.7857 0.4247
vt 0.7272 0.4766
vt 0.3832 0.4324
vt 0.9923 0.2066
vt 0.8930 0.2312
vt 0.9980 0.1480
vt 0.6184 0.4477
vt 0.5811 0.4113
vt 0.9001 0.1724
vt 0.4146 0.5335
vt 0.8004 0.1338
vt 0.7918 0.1921
vt 0.5116 0.4918
vt 0.6602 0.4957
vt 0.9644 0.0811
vt 0.9355 0.0019
vt 0.9779 0.0393
vt 0.9046 0.0325
vt 0.4759 0.5053
vt 0.8445 0.0724
vt 0.9050 0.0958
vt 0.9520 0.4294
vt 0.9980 0.5987
vt 0.9454 0.6192
vt 0.3019 0.7467
vt 0.3644 0.9299
vt 0.3033 0.9161
vt 0.9196 0.4342
vt 0.3297 0.7446
vt 0.2421 0.7196
vt 0.1951 0.7351
vt 0.2492 0.5347
vt 0.2151 0.5277
vt 0.2966 0.7351
vt 0.2556 0.7130
vt 0.2986 0.5277
vt 0.0782 0.7874
vt 0.1159 0.8265
vt 0.0388 0.7917
vt 0.1059 0.7406
vt 0.0020 0.8822
vt 0.0206 0.8305
vt 0.0343 0.9162
vt 0.0497 0.8644
vt 0.0991 0.8621
vt 0.0461 0.9162
vt 0.0412 0.8305
vt 0.1055 0.9360
vt 0.1587 0.8896
vt 0.1466 0.9507
vt 0.1061 0.8891
vn 0.4311 -0.8544 0.2899
vn 0.6324 -0.1897 -0.7510
vn 0.5105 0.6676 0.5419
vn -0.9829 -0.1730 -0.0629
vn 0.5127 0.3392 0.7887
vn -0.9140 -0.3703 0.1655
vn 0.3717 0.3242 0.8699
vn 0.4884 0.1024 -0.8666
vn 0.2203 0.2990 0.9285
vn 0.6697 -0.0552 -0.7406
vn -0.9555 0.0395 -0.2922
vn 0.8011 -0.1963 -0.5655
vn 0.0631 -0.7731 -0.6311
vn 0.5651 -0.8241 0.0392
vn -0.0553 -0.9472 0.3157
vn 0.9560 -0.2845 -0.0711
vn -0.5756 -0.8122 -0.0946
vn 0.5756 0.0946 -0.8122
vn -0.9188 -0.2670 -0.2906
vn -0.3772 0.1100 -0.9196
vn 0.8639 0.4948 -0.0942
vn -0.8092 0.5106 -0.2907
vn 0.2926 0.7907 -0.5377
vn -0.1493 0.7938 -0.5895
vn -0.4022 0.8595 -0.3154
vn 0.4797 0.8493 -0.2202
vn -0.0079 0.9947 -0.1026
vn 0.0316 0.9950 -0.0948
vn 0.2917 0.9539 0.0710
vn 0.6111 0.6189 0.4935
vn -0.0788 0.7166 0.6930
vn -0.0000 0.9999 -0.0157
vn -0.0079 0.9930 0.1182
vn 0.6677 -0.0943 0.7384
vn -0.2757 0.9612 0.0000
vn -0.1182 0.0000 0.9930
vn -0.6958 0.6326 0.3400
vn 0.3696 -0.6764 0.6371
vn 0.5651 -0.8241 0.0393
vn -0.8222 -0.0783 0.5638
vn -0.1021 -0.6205 0.7776
vn -0.0553 -0.9472 0.3158
vn -0.4021 0.8595 -0.3154
vn -0.5264 -0.6677 0.5264
vn -0.6131 0.4088 0.6760
vn 0.7791 -0.4880 0.3935
vn -0.7637 0.1732 0.6220
vn 0.6142 -0.7165 0.3307
vn -0.2050 0.1813 -0.9618
vn -0.4322 0.5972 0.6757
vn -0.2748 0.2277 -0.9342
vn -0.3392 0.2761 -0.8993
vn 0.8581 -0.2992 0.4173
vn -0.1491 -0.7767 -0.6120
vn -0.2204 -0.9444 0.2440
vn -0.7218 -0.6905 0.0471
vn 0.5288 -0.7340 0.4262
vn -0.7919 -0.4077 -0.4547
vn 0.8258 -0.3618 -0.4326
vn -0.6455 0.1889 -0.7400
vn 0.1491 0.1255 -0.9808
vn 0.8841 -0.0395 0.4657
vn -0.2273 0.7992 -0.5564
vn 0.8678 0.4182 -0.2683
vn 0.5025 0.6674 -0.5496
vn 0.8868 0.4317 0.1648
vn 0.1650 0.9114 -0.3771
vn 0.5593 0.8271 -0.0552
vn 0.4787 0.8711 -0.1098
vn 0.6205 0.6833 0.3848
vn 0.4018 0.3387 0.8508
vn 0.5593 0.8271 -0.0551
vn -0.1415 0.8176 0.5581
vn 0.4812 0.8757 -0.0395
vn 0.1897 0.9566 0.2214
vn -0.0157 -0.2518 0.9676
vn 0.0157 0.9998 -0.0157
vn -0.6139 0.2754 0.7398
vn -0.3067 0.9515 -0.0236
vn -0.4959 -0.6061 0.6219
vn -0.8846 0.4660 0.0158
vn -0.2272 0.7993 -0.5564
vn 0.4787 0.8711 -0.1099
vn -0.8227 -0.3006 0.4825
vn -0.7918 -0.4077 -0.4547
vn -0.9801 -0.1882 0.0627
vn -0.5734 0.6912 0.4398
vn -0.4027 -0.1658 0.9002
vn -0.1027 0.8215 -0.5609
vn 0.4311 -0.8544 0.2900
vn -0.7172 -0.5518 -0.4256
vn 0.0158 0.9954 -0.0948
vn -0.0000 0.9999 -0.0158
vn 0.5195 0.8501 -0.0866
vn -0.7173 -0.5517 -0.4256
vn -0.1027 0.8215 -0.5608
vn -0.4027 -0.1659 0.9002
usemtl None
s off
f 1/1/1 2/2/2 3/3/3
s 1
f 4/4/4 5/5/5 6/6/6
f 4/4/4 7/7/7 5/5/5
f 4/8/4 6/9/6 8/10/8
f 4/4/4 9/11/9 7/7/7
f 4/8/4 8/10/8 10/12/10
f 4/4/4 11/13/11 9/11/9
f 4/8/4 10/12/10 12/14/12
f 4/8/4 12/14/12 11/15/11
f 10/16/10 5/17/5 7/18/7
f 10/16/10 8/19/8 5/17/5
f 10/16/10 7/18/7 12/20/12
f 12/20/12 7/18/7 9/21/9
f 13/22/13 14/23/14 39/24/15
f 13/25/13 15/26/16 14/27/14
f 13/22/13 39/24/15 41/28/17
f 13/25/13 16/29/18 15/26/16
f 13/22/13 41/28/17 17/30/19
f 13/31/13 18/32/20 16/33/18
f 13/22/13 17/30/19 18/34/20
f 15/26/16 16/29/18 19/35/21
f 17/36/19 37/37/22 18/32/20
f 16/29/18 20/38/23 19/35/21
f 16/33/18 18/32/20 20/39/23
f 37/37/22 21/40/24 18/32/20
f 37/37/22 22/41/25 21/40/24
f 18/32/20 21/40/24 20/39/23
f 19/35/21 20/38/23 23/42/26
f 22/43/25 24/44/27 21/45/24
f 20/46/23 25/47/28 23/48/26
f 20/46/23 21/45/24 25/47/28
f 25/47/28 21/45/24 24/44/27
f 26/49/29 19/50/21 23/51/26
f 26/49/29 27/52/30 19/50/21
f 26/53/29 23/54/26 25/55/28
f 26/53/29 28/56/31 27/57/30
f 26/53/29 25/55/28 29/58/32
f 26/53/29 30/59/33 28/56/31
f 26/53/29 29/58/32 30/59/33
f 19/50/21 27/52/30 31/60/34
f 19/50/21 31/60/34 15/61/16
f 28/56/31 30/59/33 32/62/35
f 28/63/31 33/64/36 27/65/30
f 28/56/31 32/62/35 34/66/37
f 28/67/31 34/68/37 33/69/36
f 27/65/30 33/64/36 31/70/34
f 30/59/33 29/58/32 32/62/35
f 15/61/16 31/60/34 35/71/38
f 15/61/16 35/71/38 14/72/39
f 34/68/37 36/73/40 33/69/36
f 34/68/37 32/74/35 37/75/22
f 34/68/37 37/75/22 36/73/40
f 29/58/32 24/76/27 32/62/35
f 31/70/34 38/77/41 35/78/38
f 31/70/34 33/64/36 38/77/41
f 33/64/36 36/79/40 38/77/41
f 14/80/39 35/81/38 39/82/42
f 35/81/38 38/83/41 39/82/42
f 37/75/22 32/74/35 22/84/43
f 37/75/22 17/85/19 36/73/40
f 22/86/43 32/62/35 24/76/27
f 38/83/41 40/87/44 39/82/42
f 38/77/41 36/79/40 40/88/44
f 36/73/40 17/85/19 40/89/44
f 39/82/42 40/87/44 41/90/17
f 41/91/17 40/89/44 17/85/19
f 42/92/45 43/93/46 44/94/47
f 42/92/45 45/95/48 43/93/46
f 42/96/45 44/97/47 46/98/49
f 42/92/45 47/99/50 45/95/48
f 42/96/45 46/98/49 48/100/51
f 42/96/45 49/101/52 47/102/50
f 42/96/45 48/100/51 49/101/52
f 48/103/51 46/104/49 43/105/46
f 48/103/51 45/106/48 49/107/52
f 48/103/51 43/105/46 45/106/48
f 44/94/47 43/93/46 50/108/53
f 50/109/53 43/105/46 46/104/49
f 51/110/54 74/111/55 52/112/56
f 51/110/54 69/113/57 74/111/55
f 51/110/54 52/112/56 78/114/58
f 51/110/54 53/115/59 69/113/57
f 51/116/54 78/117/58 76/118/60
f 51/110/54 54/119/61 53/115/59
f 51/116/54 76/118/60 54/120/61
f 69/121/57 53/122/59 55/123/62
f 76/118/60 56/124/63 54/120/61
f 53/122/59 57/125/64 55/123/62
f 53/122/59 54/126/61 58/127/65
f 53/122/59 58/127/65 57/125/64
f 54/120/61 56/124/63 58/128/65
f 55/123/62 57/125/64 62/129/66
f 56/124/63 59/130/67 58/128/65
f 57/125/64 64/131/68 62/129/66
f 57/125/64 58/127/65 60/132/69
f 57/125/64 60/132/69 64/131/68
f 60/133/69 58/128/65 59/130/67
f 61/134/70 55/135/62 62/136/66
f 61/134/70 63/137/71 55/135/62
f 61/138/70 62/139/66 64/140/72
f 61/138/70 65/141/73 63/142/71
f 61/138/70 64/140/72 66/143/74
f 61/138/70 67/144/75 65/141/73
f 61/138/70 66/143/74 67/144/75
f 55/135/62 63/137/71 68/145/76
f 55/135/62 68/145/76 69/146/57
f 65/141/73 67/144/75 70/147/77
f 65/148/73 71/149/78 63/137/71
f 65/141/73 70/147/77 72/150/79
f 65/151/73 72/152/79 71/153/78
f 63/137/71 71/149/78 68/145/76
f 67/144/75 66/143/74 70/147/77
f 69/146/57 68/145/76 73/154/80
f 69/146/57 73/154/80 74/155/55
f 72/152/79 75/156/81 71/153/78
f 72/150/79 70/147/77 56/157/82
f 72/152/79 76/158/60 75/156/81
f 72/152/79 56/159/82 76/158/60
f 66/143/74 60/160/83 70/147/77
f 68/145/76 77/161/84 73/154/80
f 68/145/76 71/149/78 77/161/84
f 71/153/78 75/156/81 77/162/84
f 74/163/55 73/164/80 52/165/56
f 73/164/80 77/162/84 52/165/56
f 56/157/82 70/147/77 59/166/67
f 59/166/67 70/147/77 60/160/83
f 76/158/60 78/167/85 75/156/81
f 77/162/84 79/168/86 52/165/56
f 77/162/84 75/156/81 79/168/86
f 79/168/86 75/156/81 78/167/85
f 79/168/86 78/167/85 52/165/56
f 3/169/3 83/170/87 85/171/88
f 3/172/3 84/173/89 83/174/87
f 3/169/3 85/171/88 1/175/90
f 3/172/3 2/176/2 84/173/89
f 85/177/88 82/178/91 1/179/90
f 82/178/91 2/180/2 1/179/90
f 82/181/91 84/182/89 2/183/2
f 80/184/92 24/185/27 29/186/93
f 80/184/92 25/187/28 24/185/27
f 80/184/92 29/186/93 25/187/28
f 81/188/94 60/189/69 66/190/74
f 81/191/94 64/192/72 60/193/69
f 81/191/94 66/194/74 64/192/72
f 82/195/95 83/196/87 84/197/96
f 82/195/95 85/198/97 83/196/87
