# Blender v2.78 (sub 0) OBJ File: ''
# www.blender.org
mtllib yarim_elips_yansus.mtl
o Capsule001
v -0.177400 0.086200 -0.000000
v -0.174500 0.086200 0.022300
v -0.174500 0.097300 0.019300
v -0.174500 0.105500 0.011100
v -0.174500 0.108500 0.000000
v -0.174500 0.105500 -0.011100
v -0.174500 0.097300 -0.019300
v -0.174500 0.086200 -0.022300
v -0.174500 0.075100 -0.019300
v -0.174500 0.066900 -0.011100
v -0.174500 0.063900 -0.000000
v -0.174500 0.066900 0.011100
v -0.174500 0.075100 0.019300
v -0.165900 0.086200 0.043000
v -0.165900 0.107700 0.037300
v -0.165900 0.123500 0.021500
v -0.165900 0.129200 0.000000
v -0.165900 0.123500 -0.021500
v -0.165900 0.107700 -0.037300
v -0.165900 0.086200 -0.043000
v -0.165900 0.064700 -0.037300
v -0.165900 0.048900 -0.021500
v -0.165900 0.043200 -0.000000
v -0.165900 0.048900 0.021500
v -0.165900 0.064700 0.037300
v -0.152200 0.086200 0.060800
v -0.152200 0.116600 0.052700
v -0.152200 0.138900 0.030400
v -0.152200 0.147000 0.000000
v -0.152200 0.138900 -0.030400
v -0.152200 0.116600 -0.052700
v -0.152200 0.086200 -0.060800
v -0.152200 0.055800 -0.052700
v -0.152200 0.033500 -0.030400
v -0.152200 0.025400 -0.000000
v -0.152200 0.033500 0.030400
v -0.152200 0.055800 0.052700
v -0.134400 0.086200 0.074500
v -0.134400 0.123500 0.064500
v -0.134400 0.150700 0.037300
v -0.134400 0.160700 0.000000
v -0.134400 0.150700 -0.037300
v -0.134400 0.123500 -0.064500
v -0.134400 0.086200 -0.074500
v -0.134400 0.048900 -0.064500
v -0.134400 0.021700 -0.037300
v -0.134400 0.011700 -0.000000
v -0.134400 0.021700 0.037300
v -0.134400 0.048900 0.064500
v -0.113600 0.086200 0.083100
v -0.113600 0.127800 0.072000
v -0.113600 0.158200 0.041600
v -0.113600 0.169300 0.000000
v -0.113600 0.158200 -0.041600
v -0.113600 0.127800 -0.072000
v -0.113600 0.086200 -0.083100
v -0.113600 0.044600 -0.072000
v -0.113600 0.014200 -0.041600
v -0.113600 0.003100 -0.000000
v -0.113600 0.014200 0.041600
v -0.113600 0.044600 0.072000
v -0.091400 0.086200 0.086100
v -0.091400 0.129200 0.074500
v -0.091400 0.160700 0.043000
v -0.091400 0.172300 0.000000
v -0.091400 0.160700 -0.043000
v -0.091400 0.129200 -0.074500
v -0.091400 0.086200 -0.086100
v -0.091400 0.043200 -0.074500
v -0.091400 0.011700 -0.043000
v -0.091400 0.000100 -0.000000
v -0.091400 0.011700 0.043000
v -0.091400 0.043200 0.074500
v 0.091300 0.086200 0.086100
v 0.091300 0.129200 0.074500
v 0.091300 0.160700 0.043000
v 0.091300 0.172300 0.000000
v 0.091300 0.160700 -0.043000
v 0.091300 0.129200 -0.074500
v 0.091300 0.086200 -0.086100
v 0.091300 0.043200 -0.074500
v 0.091300 0.011700 -0.043000
v 0.091300 0.000100 -0.000000
v 0.091300 0.011700 0.043000
v 0.091300 0.043200 0.074500
v 0.113600 0.086200 0.083100
v 0.113600 0.127800 0.072000
v 0.113600 0.158200 0.041600
v 0.113600 0.169300 0.000000
v 0.113600 0.158200 -0.041600
v 0.113600 0.127800 -0.072000
v 0.113600 0.086200 -0.083100
v 0.113600 0.044600 -0.072000
v 0.113600 0.014200 -0.041600
v 0.113600 0.003100 -0.000000
v 0.113600 0.014200 0.041600
v 0.113600 0.044600 0.072000
v 0.134300 0.086200 0.074500
v 0.134300 0.123500 0.064500
v 0.134300 0.150700 0.037300
v 0.134300 0.160700 0.000000
v 0.134300 0.150700 -0.037300
v 0.134300 0.123500 -0.064500
v 0.134300 0.086200 -0.074500
v 0.134300 0.048900 -0.064500
v 0.134300 0.021700 -0.037300
v 0.134300 0.011700 -0.000000
v 0.134300 0.021700 0.037300
v 0.134300 0.048900 0.064500
v 0.152200 0.086200 0.060800
v 0.152200 0.116600 0.052700
v 0.152200 0.138900 0.030400
v 0.152200 0.147000 0.000000
v 0.152200 0.138900 -0.030400
v 0.152200 0.116600 -0.052700
v 0.152200 0.086200 -0.060800
v 0.152200 0.055800 -0.052700
v 0.152200 0.033500 -0.030400
v 0.152200 0.025400 -0.000000
v 0.152200 0.033500 0.030400
v 0.152200 0.055800 0.052700
v 0.165800 0.086200 0.043000
v 0.165800 0.107700 0.037300
v 0.165800 0.123500 0.021500
v 0.165800 0.129200 0.000000
v 0.165800 0.123500 -0.021500
v 0.165800 0.107700 -0.037300
v 0.165800 0.086200 -0.043000
v 0.165800 0.064700 -0.037300
v 0.165800 0.048900 -0.021500
v 0.165800 0.043200 -0.000000
v 0.165800 0.048900 0.021500
v 0.165800 0.064700 0.037300
v 0.174400 0.086200 0.022300
v 0.174400 0.097300 0.019300
v 0.174400 0.105500 0.011100
v 0.174400 0.108500 0.000000
v 0.174400 0.105500 -0.011100
v 0.174400 0.097300 -0.019300
v 0.174400 0.086200 -0.022300
v 0.174400 0.075100 -0.019300
v 0.174400 0.066900 -0.011100
v 0.174400 0.063900 -0.000000
v 0.174400 0.066900 0.011100
v 0.174400 0.075100 0.019300
v 0.177400 0.086200 -0.000000
vt 0.5000 0.5000
vt 0.6294 0.5000
vt 0.6121 0.5647
vt 0.5647 0.6121
vt 0.5000 0.6294
vt 0.4353 0.6121
vt 0.3879 0.5647
vt 0.3706 0.5000
vt 0.3879 0.4353
vt 0.4353 0.3879
vt 0.5000 0.3706
vt 0.5647 0.3879
vt 0.6121 0.4353
vt 0.7500 0.5000
vt 0.7165 0.6250
vt 0.6250 0.7165
vt 0.5000 0.7500
vt 0.3750 0.7165
vt 0.2835 0.6250
vt 0.2500 0.5000
vt 0.2835 0.3750
vt 0.3750 0.2835
vt 0.5000 0.2500
vt 0.6250 0.2835
vt 0.7165 0.3750
vt 0.8536 0.5000
vt 0.8062 0.6768
vt 0.6768 0.8062
vt 0.5000 0.8536
vt 0.3232 0.8062
vt 0.1938 0.6768
vt 0.1464 0.5000
vt 0.1938 0.3232
vt 0.3232 0.1938
vt 0.5000 0.1464
vt 0.6768 0.1938
vt 0.8062 0.3232
vt 0.9330 0.5000
vt 0.8750 0.7165
vt 0.7165 0.8750
vt 0.5000 0.9330
vt 0.2835 0.8750
vt 0.1250 0.7165
vt 0.0670 0.5000
vt 0.1250 0.2835
vt 0.2835 0.1250
vt 0.5000 0.0670
vt 0.7165 0.1250
vt 0.8750 0.2835
vt 0.9830 0.5000
vt 0.9183 0.7415
vt 0.7415 0.9183
vt 0.5000 0.9830
vt 0.2585 0.9183
vt 0.0817 0.7415
vt 0.0170 0.5000
vt 0.0817 0.2585
vt 0.2585 0.0817
vt 0.5000 0.0170
vt 0.7415 0.0817
vt 0.9183 0.2585
vt 1.0000 0.5000
vt 0.9330 0.7500
vt 0.7500 0.9330
vt 0.5000 1.0000
vt 0.2500 0.9330
vt 0.0670 0.7500
vt 0.0000 0.5000
vt 0.0670 0.2500
vt 0.2500 0.0670
vt 0.5000 0.0000
vt 0.7500 0.0670
vt 0.9330 0.2500
vt 0.0000 0.0000
vt 0.0833 0.0000
vt 0.0833 1.0000
vt 0.0000 1.0000
vt 0.1667 0.0000
vt 0.1667 1.0000
vt 0.2500 0.0000
vt 0.2500 1.0000
vt 0.3333 0.0000
vt 0.3333 1.0000
vt 0.4167 0.0000
vt 0.4167 1.0000
vt 0.5000 0.0000
vt 0.5000 1.0000
vt 0.5833 0.0000
vt 0.5833 1.0000
vt 0.6667 0.0000
vt 0.6667 1.0000
vt 0.7500 0.0000
vt 0.7500 1.0000
vt 0.8333 0.0000
vt 0.8333 1.0000
vt 0.9167 0.0000
vt 0.9167 1.0000
vt 1.0000 0.0000
vt 1.0000 1.0000
vt 0.9830 0.5000
vt 0.9183 0.7415
vt 0.9330 0.7500
vt 1.0000 0.5000
vt 0.7415 0.9183
vt 0.7500 0.9330
vt 0.5000 0.9830
vt 0.5000 1.0000
vt 0.2585 0.9183
vt 0.2500 0.9330
vt 0.0817 0.7415
vt 0.0670 0.7500
vt 0.0170 0.5000
vt 0.0000 0.5000
vt 0.0817 0.2585
vt 0.0670 0.2500
vt 0.2585 0.0817
vt 0.2500 0.0670
vt 0.5000 0.0170
vt 0.5000 0.0000
vt 0.7415 0.0817
vt 0.7500 0.0670
vt 0.9183 0.2585
vt 0.9330 0.2500
vt 0.9330 0.5000
vt 0.8750 0.7165
vt 0.7165 0.8750
vt 0.5000 0.9330
vt 0.2835 0.8750
vt 0.1250 0.7165
vt 0.0670 0.5000
vt 0.1250 0.2835
vt 0.2835 0.1250
vt 0.5000 0.0670
vt 0.7165 0.1250
vt 0.8750 0.2835
vt 0.8536 0.5000
vt 0.8062 0.6768
vt 0.6768 0.8062
vt 0.5000 0.8536
vt 0.3232 0.8062
vt 0.1938 0.6768
vt 0.1464 0.5000
vt 0.1938 0.3232
vt 0.3232 0.1938
vt 0.5000 0.1464
vt 0.6768 0.1938
vt 0.8062 0.3232
vt 0.7500 0.5000
vt 0.7165 0.6250
vt 0.6250 0.7165
vt 0.5000 0.7500
vt 0.3750 0.7165
vt 0.2835 0.6250
vt 0.2500 0.5000
vt 0.2835 0.3750
vt 0.3750 0.2835
vt 0.5000 0.2500
vt 0.6250 0.2835
vt 0.7165 0.3750
vt 0.6294 0.5000
vt 0.6121 0.5647
vt 0.5647 0.6121
vt 0.5000 0.6294
vt 0.4353 0.6121
vt 0.3879 0.5647
vt 0.3706 0.5000
vt 0.3879 0.4353
vt 0.4353 0.3879
vt 0.5000 0.3706
vt 0.5647 0.3879
vt 0.6121 0.4353
vt 0.5000 0.5000
vn -1.0000 -0.0000 0.0000
vn -0.9604 0.0000 0.2786
vn -0.9604 0.1393 0.2414
vn -0.9604 0.2414 0.1393
vn -0.9603 0.2790 0.0000
vn -0.9604 0.2414 -0.1393
vn -0.9603 0.1394 -0.2415
vn -0.9604 -0.0000 -0.2786
vn -0.9604 -0.1393 -0.2414
vn -0.9604 -0.2414 -0.1393
vn -0.9603 -0.2790 0.0000
vn -0.9604 -0.2413 0.1393
vn -0.9603 -0.1394 0.2415
vn -0.8566 -0.0000 0.5160
vn -0.8566 0.2580 0.4469
vn -0.8566 0.4469 0.2580
vn -0.8566 0.5160 0.0000
vn -0.8566 0.4469 -0.2580
vn -0.8566 0.2580 -0.4468
vn -0.8566 0.0000 -0.5160
vn -0.8566 -0.2580 -0.4469
vn -0.8566 -0.4469 -0.2580
vn -0.8566 -0.5160 -0.0000
vn -0.8566 -0.4469 0.2580
vn -0.8566 -0.2580 0.4469
vn -0.6961 -0.0000 0.7179
vn -0.6964 0.3587 0.6216
vn -0.6964 0.6217 0.3586
vn -0.6965 0.7175 0.0000
vn -0.6964 0.6216 -0.3587
vn -0.6964 0.3587 -0.6216
vn -0.6961 0.0000 -0.7179
vn -0.6964 -0.3587 -0.6216
vn -0.6964 -0.6216 -0.3587
vn -0.6961 -0.7179 -0.0000
vn -0.6964 -0.6216 0.3587
vn -0.6964 -0.3587 0.6216
vn -0.4908 -0.0000 0.8713
vn -0.4910 0.4356 0.7544
vn -0.4908 0.7545 0.4356
vn -0.4908 0.8713 0.0000
vn -0.4909 0.7545 -0.4356
vn -0.4909 0.4356 -0.7545
vn -0.4907 0.0000 -0.8713
vn -0.4910 -0.4356 -0.7544
vn -0.4909 -0.7545 -0.4356
vn -0.4908 -0.8713 -0.0000
vn -0.4909 -0.7545 0.4356
vn -0.4910 -0.4356 0.7544
vn -0.2538 -0.0000 0.9673
vn -0.2533 0.4837 0.8377
vn -0.2533 0.8377 0.4837
vn -0.2541 0.9672 -0.0000
vn -0.2533 0.8377 -0.4837
vn -0.2533 0.4837 -0.8377
vn -0.2541 0.0000 -0.9672
vn -0.2533 -0.4837 -0.8377
vn -0.2533 -0.8377 -0.4837
vn -0.2538 -0.9673 -0.0000
vn -0.2533 -0.8377 0.4837
vn -0.2533 -0.4837 0.8377
vn -0.0650 -0.0000 0.9979
vn -0.0645 0.4991 0.8641
vn -0.0646 0.8642 0.4990
vn -0.0650 0.9979 -0.0000
vn -0.0646 0.8642 -0.4990
vn -0.0645 0.4991 -0.8641
vn -0.0650 0.0000 -0.9979
vn -0.0645 -0.4991 -0.8641
vn -0.0646 -0.8642 -0.4990
vn -0.0650 -0.9979 -0.0000
vn -0.0646 -0.8642 0.4990
vn -0.0645 -0.4991 0.8641
vn 0.0647 -0.0000 0.9979
vn 0.0646 0.4990 0.8642
vn 0.0646 0.8642 0.4990
vn 0.0647 0.9979 -0.0000
vn 0.0646 0.8642 -0.4990
vn 0.0646 0.4990 -0.8642
vn 0.0647 0.0000 -0.9979
vn 0.0646 -0.4990 -0.8642
vn 0.0646 -0.8642 -0.4990
vn 0.0647 -0.9979 -0.0000
vn 0.0646 -0.8642 0.4990
vn 0.0646 -0.4990 0.8642
vn 0.2536 -0.0000 0.9673
vn 0.2538 0.4837 0.8376
vn 0.2538 0.8376 0.4837
vn 0.2537 0.9673 -0.0000
vn 0.2538 0.8376 -0.4837
vn 0.2538 0.4837 -0.8376
vn 0.2536 0.0000 -0.9673
vn 0.2538 -0.4837 -0.8376
vn 0.2538 -0.8376 -0.4837
vn 0.2537 -0.9673 -0.0000
vn 0.2538 -0.8376 0.4837
vn 0.2538 -0.4837 0.8376
vn 0.4910 -0.0000 0.8712
vn 0.4913 0.4356 0.7543
vn 0.4913 0.7543 0.4356
vn 0.4910 0.8712 0.0000
vn 0.4910 0.7544 -0.4356
vn 0.4913 0.4356 -0.7543
vn 0.4910 0.0000 -0.8712
vn 0.4909 -0.4356 -0.7545
vn 0.4909 -0.7545 -0.4356
vn 0.4910 -0.8712 -0.0000
vn 0.4910 -0.7544 0.4356
vn 0.4913 -0.4356 0.7543
vn 0.6966 -0.0000 0.7175
vn 0.6964 0.3587 0.6216
vn 0.6964 0.6216 0.3587
vn 0.6961 0.7179 0.0000
vn 0.6964 0.6216 -0.3587
vn 0.6964 0.3587 -0.6216
vn 0.6965 0.0000 -0.7176
vn 0.6964 -0.3587 -0.6216
vn 0.6964 -0.6216 -0.3587
vn 0.6964 -0.7176 -0.0000
vn 0.6964 -0.6215 0.3587
vn 0.6964 -0.3587 0.6216
vn 0.8566 0.0000 0.5159
vn 0.8566 0.2580 0.4468
vn 0.8567 0.4467 0.2579
vn 0.8566 0.5159 0.0000
vn 0.8567 0.4467 -0.2579
vn 0.8566 0.2580 -0.4468
vn 0.8567 0.0000 -0.5158
vn 0.8566 -0.2580 -0.4468
vn 0.8566 -0.4468 -0.2580
vn 0.8567 -0.5158 -0.0000
vn 0.8567 -0.4467 0.2578
vn 0.8566 -0.2581 0.4469
vn 0.9603 0.0000 0.2790
vn 0.9603 0.1395 0.2416
vn 0.9603 0.2416 0.1395
vn 0.9603 0.2790 0.0000
vn 0.9603 0.2416 -0.1395
vn 0.9603 0.1394 -0.2416
vn 0.9603 -0.0000 -0.2790
vn 0.9603 -0.1395 -0.2416
vn 0.9603 -0.2415 -0.1394
vn 0.9603 -0.2790 -0.0000
vn 0.9603 -0.2416 0.1395
vn 0.9603 -0.1395 0.2416
vn 1.0000 0.0000 0.0000
usemtl None
s 1
f 1/1/1 2/2/2 3/3/3
f 1/1/1 3/3/3 4/4/4
f 1/1/1 4/4/4 5/5/5
f 1/1/1 5/5/5 6/6/6
f 1/1/1 6/6/6 7/7/7
f 1/1/1 7/7/7 8/8/8
f 1/1/1 8/8/8 9/9/9
f 1/1/1 9/9/9 10/10/10
f 1/1/1 10/10/10 11/11/11
f 1/1/1 11/11/11 12/12/12
f 1/1/1 12/12/12 13/13/13
f 1/1/1 13/13/13 2/2/2
f 14/14/14 15/15/15 3/3/3 2/2/2
f 15/15/15 16/16/16 4/4/4 3/3/3
f 16/16/16 17/17/17 5/5/5 4/4/4
f 17/17/17 18/18/18 6/6/6 5/5/5
f 18/18/18 19/19/19 7/7/7 6/6/6
f 19/19/19 20/20/20 8/8/8 7/7/7
f 20/20/20 21/21/21 9/9/9 8/8/8
f 21/21/21 22/22/22 10/10/10 9/9/9
f 22/22/22 23/23/23 11/11/11 10/10/10
f 23/23/23 24/24/24 12/12/12 11/11/11
f 24/24/24 25/25/25 13/13/13 12/12/12
f 25/25/25 14/14/14 2/2/2 13/13/13
f 26/26/26 27/27/27 15/15/15 14/14/14
f 27/27/27 28/28/28 16/16/16 15/15/15
f 28/28/28 29/29/29 17/17/17 16/16/16
f 29/29/29 30/30/30 18/18/18 17/17/17
f 30/30/30 31/31/31 19/19/19 18/18/18
f 31/31/31 32/32/32 20/20/20 19/19/19
f 32/32/32 33/33/33 21/21/21 20/20/20
f 33/33/33 34/34/34 22/22/22 21/21/21
f 34/34/34 35/35/35 23/23/23 22/22/22
f 35/35/35 36/36/36 24/24/24 23/23/23
f 36/36/36 37/37/37 25/25/25 24/24/24
f 37/37/37 26/26/26 14/14/14 25/25/25
f 38/38/38 39/39/39 27/27/27 26/26/26
f 39/39/39 40/40/40 28/28/28 27/27/27
f 40/40/40 41/41/41 29/29/29 28/28/28
f 41/41/41 42/42/42 30/30/30 29/29/29
f 42/42/42 43/43/43 31/31/31 30/30/30
f 43/43/43 44/44/44 32/32/32 31/31/31
f 44/44/44 45/45/45 33/33/33 32/32/32
f 45/45/45 46/46/46 34/34/34 33/33/33
f 46/46/46 47/47/47 35/35/35 34/34/34
f 47/47/47 48/48/48 36/36/36 35/35/35
f 48/48/48 49/49/49 37/37/37 36/36/36
f 49/49/49 38/38/38 26/26/26 37/37/37
f 50/50/50 51/51/51 39/39/39 38/38/38
f 51/51/51 52/52/52 40/40/40 39/39/39
f 52/52/52 53/53/53 41/41/41 40/40/40
f 53/53/53 54/54/54 42/42/42 41/41/41
f 54/54/54 55/55/55 43/43/43 42/42/42
f 55/55/55 56/56/56 44/44/44 43/43/43
f 56/56/56 57/57/57 45/45/45 44/44/44
f 57/57/57 58/58/58 46/46/46 45/45/45
f 58/58/58 59/59/59 47/47/47 46/46/46
f 59/59/59 60/60/60 48/48/48 47/47/47
f 60/60/60 61/61/61 49/49/49 48/48/48
f 61/61/61 50/50/50 38/38/38 49/49/49
f 62/62/62 63/63/63 51/51/51 50/50/50
f 63/63/63 64/64/64 52/52/52 51/51/51
f 64/64/64 65/65/65 53/53/53 52/52/52
f 65/65/65 66/66/66 54/54/54 53/53/53
f 66/66/66 67/67/67 55/55/55 54/54/54
f 67/67/67 68/68/68 56/56/56 55/55/55
f 68/68/68 69/69/69 57/57/57 56/56/56
f 69/69/69 70/70/70 58/58/58 57/57/57
f 70/70/70 71/71/71 59/59/59 58/58/58
f 71/71/71 72/72/72 60/60/60 59/59/59
f 72/72/72 73/73/73 61/61/61 60/60/60
f 73/73/73 62/62/62 50/50/50 61/61/61
f 74/74/74 75/75/75 63/76/63 62/77/62
f 75/75/75 76/78/76 64/79/64 63/76/63
f 76/78/76 77/80/77 65/81/65 64/79/64
f 77/80/77 78/82/78 66/83/66 65/81/65
f 78/82/78 79/84/79 67/85/67 66/83/66
f 79/84/79 80/86/80 68/87/68 67/85/67
f 80/86/80 81/88/81 69/89/69 68/87/68
f 81/88/81 82/90/82 70/91/70 69/89/69
f 82/90/82 83/92/83 71/93/71 70/91/70
f 83/92/83 84/94/84 72/95/72 71/93/71
f 84/94/84 85/96/85 73/97/73 72/95/72
f 85/96/85 74/98/74 62/99/62 73/97/73
f 86/100/86 87/101/87 75/102/75 74/103/74
f 87/101/87 88/104/88 76/105/76 75/102/75
f 88/104/88 89/106/89 77/107/77 76/105/76
f 89/106/89 90/108/90 78/109/78 77/107/77
f 90/108/90 91/110/91 79/111/79 78/109/78
f 91/110/91 92/112/92 80/113/80 79/111/79
f 92/112/92 93/114/93 81/115/81 80/113/80
f 93/114/93 94/116/94 82/117/82 81/115/81
f 94/116/94 95/118/95 83/119/83 82/117/82
f 95/118/95 96/120/96 84/121/84 83/119/83
f 96/120/96 97/122/97 85/123/85 84/121/84
f 97/122/97 86/100/86 74/103/74 85/123/85
f 98/124/98 99/125/99 87/101/87 86/100/86
f 99/125/99 100/126/100 88/104/88 87/101/87
f 100/126/100 101/127/101 89/106/89 88/104/88
f 101/127/101 102/128/102 90/108/90 89/106/89
f 102/128/102 103/129/103 91/110/91 90/108/90
f 103/129/103 104/130/104 92/112/92 91/110/91
f 104/130/104 105/131/105 93/114/93 92/112/92
f 105/131/105 106/132/106 94/116/94 93/114/93
f 106/132/106 107/133/107 95/118/95 94/116/94
f 107/133/107 108/134/108 96/120/96 95/118/95
f 108/134/108 109/135/109 97/122/97 96/120/96
f 109/135/109 98/124/98 86/100/86 97/122/97
f 110/136/110 111/137/111 99/125/99 98/124/98
f 111/137/111 112/138/112 100/126/100 99/125/99
f 112/138/112 113/139/113 101/127/101 100/126/100
f 113/139/113 114/140/114 102/128/102 101/127/101
f 114/140/114 115/141/115 103/129/103 102/128/102
f 115/141/115 116/142/116 104/130/104 103/129/103
f 116/142/116 117/143/117 105/131/105 104/130/104
f 117/143/117 118/144/118 106/132/106 105/131/105
f 118/144/118 119/145/119 107/133/107 106/132/106
f 119/145/119 120/146/120 108/134/108 107/133/107
f 120/146/120 121/147/121 109/135/109 108/134/108
f 121/147/121 110/136/110 98/124/98 109/135/109
f 122/148/122 123/149/123 111/137/111 110/136/110
f 123/149/123 124/150/124 112/138/112 111/137/111
f 124/150/124 125/151/125 113/139/113 112/138/112
f 125/151/125 126/152/126 114/140/114 113/139/113
f 126/152/126 127/153/127 115/141/115 114/140/114
f 127/153/127 128/154/128 116/142/116 115/141/115
f 128/154/128 129/155/129 117/143/117 116/142/116
f 129/155/129 130/156/130 118/144/118 117/143/117
f 130/156/130 131/157/131 119/145/119 118/144/118
f 131/157/131 132/158/132 120/146/120 119/145/119
f 132/158/132 133/159/133 121/147/121 120/146/120
f 133/159/133 122/148/122 110/136/110 121/147/121
f 134/160/134 135/161/135 123/149/123 122/148/122
f 135/161/135 136/162/136 124/150/124 123/149/123
f 136/162/136 137/163/137 125/151/125 124/150/124
f 137/163/137 138/164/138 126/152/126 125/151/125
f 138/164/138 139/165/139 127/153/127 126/152/126
f 139/165/139 140/166/140 128/154/128 127/153/127
f 140/166/140 141/167/141 129/155/129 128/154/128
f 141/167/141 142/168/142 130/156/130 129/155/129
f 142/168/142 143/169/143 131/157/131 130/156/130
f 143/169/143 144/170/144 132/158/132 131/157/131
f 144/170/144 145/171/145 133/159/133 132/158/132
f 145/171/145 134/160/134 122/148/122 133/159/133
f 134/160/134 146/172/146 135/161/135
f 135/161/135 146/172/146 136/162/136
f 136/162/136 146/172/146 137/163/137
f 137/163/137 146/172/146 138/164/138
f 138/164/138 146/172/146 139/165/139
f 139/165/139 146/172/146 140/166/140
f 140/166/140 146/172/146 141/167/141
f 141/167/141 146/172/146 142/168/142
f 142/168/142 146/172/146 143/169/143
f 143/169/143 146/172/146 144/170/144
f 144/170/144 146/172/146 145/171/145
f 145/171/145 146/172/146 134/160/134
