# Blender v2.78 (sub 0) OBJ File: ''
# www.blender.org
mtllib Yedi_dik.mtl
o instance_0_ID5.011
v -0.215000 0.676201 -0.025000
v -0.215000 0.676201 0.025000
v -0.215000 0.586201 -0.025000
v -0.179276 0.000538 0.025000
v -0.069276 0.000538 0.025000
v -0.158807 0.075067 0.025000
v -0.141689 0.123675 0.025000
v -0.029450 0.156559 0.025000
v -0.110938 0.194582 0.025000
v -0.099368 0.217608 0.025000
v -0.087152 0.240298 0.025000
v -0.060824 0.284599 0.025000
v 0.131759 0.588757 0.025000
v 0.069053 0.359046 0.025000
v 0.215000 0.586201 0.025000
v 0.215000 0.676201 0.025000
v -0.215000 0.586201 0.025000
v -0.069276 0.000538 -0.025000
v -0.166331 0.050420 -0.025000
v -0.056517 0.063737 -0.025000
v -0.048542 0.094977 -0.025000
v -0.132107 0.147597 -0.025000
v -0.006241 0.216710 -0.025000
v -0.099368 0.217608 -0.025000
v -0.087152 0.240298 -0.025000
v -0.074301 0.262635 -0.025000
v 0.020979 0.275156 -0.025000
v -0.060824 0.284599 -0.025000
v 0.036055 0.303656 -0.025000
v 0.052086 0.331630 -0.025000
v 0.069053 0.359046 -0.025000
v 0.131759 0.588757 -0.025000
v 0.215000 0.586201 -0.025000
v 0.215000 0.676201 -0.025000
v -0.179276 0.000538 -0.025000
v 0.052086 0.331630 0.025000
v 0.036055 0.303656 0.025000
v -0.074301 0.262635 0.025000
v -0.110938 0.194582 -0.025000
v -0.121854 0.171239 0.025000
v -0.121854 0.171239 -0.025000
v -0.132107 0.147597 0.025000
v -0.141689 0.123675 -0.025000
v -0.150591 0.099491 0.025000
v -0.150591 0.099491 -0.025000
v -0.158807 0.075067 -0.025000
v -0.166331 0.050420 0.025000
v -0.173155 0.025570 0.025000
v -0.173155 0.025570 -0.025000
v -0.063431 0.032245 0.025000
v -0.063431 0.032245 -0.025000
v -0.056517 0.063737 0.025000
v -0.048542 0.094977 0.025000
v -0.039517 0.125929 0.025000
v -0.039517 0.125929 -0.025000
v -0.029450 0.156559 -0.025000
v -0.018354 0.186831 0.025000
v -0.018354 0.186831 -0.025000
v -0.006241 0.216710 0.025000
v 0.006875 0.246163 0.025000
v 0.006875 0.246163 -0.025000
v 0.020979 0.275156 0.025000
vt -0.0556 0.7513
vt 0.0000 0.6513
vt 0.0000 0.7513
vt -0.0556 0.6513
vt 0.1697 0.0358
vt 0.0410 0.0006
vt 0.1632 0.0006
vt 0.0478 0.0284
vt 0.0554 0.0560
vt 0.1774 0.0708
vt 0.0638 0.0834
vt 0.1863 0.1055
vt 0.0729 0.1105
vt 0.1963 0.1399
vt 0.0828 0.1374
vt 0.0934 0.1640
vt 0.2075 0.1740
vt 0.1048 0.1903
vt 0.2198 0.2076
vt 0.1169 0.2162
vt 0.2333 0.2408
vt 0.1298 0.2418
vt 0.2478 0.2735
vt 0.1434 0.2670
vt 0.1577 0.2918
vt 0.2635 0.3057
vt 0.1726 0.3162
vt 0.2803 0.3374
vt 0.3866 0.6542
vt 0.2981 0.3685
vt 0.3169 0.3989
vt 0.4791 0.6513
vt 0.4791 0.7513
vt 0.0013 0.7513
vt 0.0013 0.6513
vt 0.4791 0.0000
vt 0.0013 0.0556
vt 0.0013 0.0000
vt 0.4791 0.0556
vt -0.0013 0.7513
vt -0.3866 0.6542
vt -0.0013 0.6513
vt -0.0478 0.0284
vt -0.1632 0.0006
vt -0.0410 0.0006
vt -0.1697 0.0358
vt -0.0554 0.0560
vt -0.1774 0.0708
vt -0.0638 0.0834
vt -0.1863 0.1055
vt -0.0729 0.1105
vt -0.1963 0.1399
vt -0.0828 0.1374
vt -0.0934 0.1640
vt -0.2075 0.1740
vt -0.1048 0.1903
vt -0.2198 0.2076
vt -0.1169 0.2162
vt -0.2333 0.2408
vt -0.1298 0.2418
vt -0.2478 0.2735
vt -0.1434 0.2670
vt -0.1577 0.2918
vt -0.2635 0.3057
vt -0.1726 0.3162
vt -0.2803 0.3374
vt -0.2981 0.3685
vt -0.3169 0.3989
vt -0.4791 0.6513
vt -0.4791 0.7513
vt 0.0556 0.3914
vt 0.0000 0.0061
vt 0.0556 0.0061
vt 0.0000 0.3914
vt 0.0556 0.5070
vt 0.0000 0.8070
vt 0.0000 0.5070
vt 0.0556 0.8070
vt 0.0556 0.6513
vt 0.0000 0.7513
vt 0.0000 0.6513
vt 0.0556 0.7513
vt -0.0556 0.7595
vt 0.0000 0.3595
vt 0.0000 0.7595
vt -0.0556 0.3595
vt -0.1632 0.0556
vt -0.0410 0.0000
vt -0.0410 0.0556
vt -0.1632 0.0000
vt 0.0556 0.4321
vt 0.0000 0.4679
vt 0.0000 0.4321
vt 0.0556 0.4679
vt 0.0556 0.4702
vt 0.0000 0.5060
vt 0.0000 0.4702
vt 0.0556 0.5060
vt -0.0556 0.3598
vt 0.0000 0.3312
vt 0.0000 0.3598
vt -0.0556 0.3312
vt -0.0556 0.3316
vt 0.0000 0.3029
vt 0.0000 0.3316
vt -0.0556 0.3029
vt -0.0556 0.3031
vt 0.0000 0.2744
vt 0.0000 0.3031
vt -0.0556 0.2744
vt -0.0556 0.2743
vt 0.0000 0.2457
vt 0.0000 0.2743
vt -0.0556 0.2457
vt -0.0556 0.2454
vt 0.0000 0.2168
vt 0.0000 0.2454
vt -0.0556 0.2168
vt -0.0556 0.2163
vt 0.0000 0.1876
vt 0.0000 0.2163
vt -0.0556 0.1876
vt -0.0556 0.1870
vt 0.0000 0.1583
vt 0.0000 0.1870
vt -0.0556 0.1583
vt -0.0556 0.1576
vt 0.0000 0.1289
vt 0.0000 0.1576
vt -0.0556 0.1289
vt -0.0556 0.1280
vt 0.0000 0.0994
vt 0.0000 0.1280
vt -0.0556 0.0994
vt -0.0556 0.0984
vt 0.0000 0.0698
vt 0.0000 0.0984
vt -0.0556 0.0698
vt -0.0556 0.0687
vt 0.0000 0.0401
vt 0.0000 0.0687
vt -0.0556 0.0401
vt -0.0556 0.0390
vt 0.0000 0.0103
vt 0.0000 0.0390
vt -0.0556 0.0103
vt 0.0556 0.0302
vt 0.0000 0.0660
vt 0.0000 0.0302
vt 0.0556 0.0660
vt 0.0556 0.0714
vt 0.0000 0.1072
vt 0.0000 0.0714
vt 0.0556 0.1072
vt 0.0556 0.1125
vt 0.0000 0.1483
vt 0.0000 0.1125
vt 0.0556 0.1483
vt 0.0556 0.1535
vt 0.0000 0.1893
vt 0.0000 0.1535
vt 0.0556 0.1893
vt 0.0556 0.1942
vt 0.0000 0.2300
vt 0.0000 0.1942
vt 0.0556 0.2300
vt 0.0556 0.2347
vt 0.0000 0.2706
vt 0.0000 0.2347
vt 0.0556 0.2706
vt 0.0556 0.2750
vt 0.0000 0.3108
vt 0.0000 0.2750
vt 0.0556 0.3108
vt 0.0556 0.3149
vt 0.0000 0.3507
vt 0.0000 0.3149
vt 0.0556 0.3507
vt 0.0556 0.3544
vt 0.0000 0.3902
vt 0.0000 0.3544
vt 0.0556 0.3902
vt 0.0556 0.3935
vt 0.0000 0.4293
vt 0.0000 0.3935
vt 0.0556 0.4293
vn -1.0000 0.0000 0.0000
vn 0.0000 -0.0000 1.0000
vn 0.0000 1.0000 0.0000
vn -0.0000 0.0000 -1.0000
vn 0.0074 -1.0000 0.0000
vn 0.8413 -0.5405 0.0000
vn 1.0000 -0.0000 0.0000
vn -0.8449 0.5350 0.0000
vn 0.0000 -1.0000 -0.0000
vn 0.8759 -0.4825 0.0000
vn 0.8591 -0.5118 0.0000
vn 0.8503 -0.5262 0.0000
vn -0.8523 0.5230 0.0000
vn -0.8596 0.5109 0.0000
vn -0.8737 0.4864 0.0000
vn -0.8871 0.4616 0.0000
vn -0.8998 0.4363 0.0000
vn -0.9117 0.4108 0.0000
vn -0.9230 0.3849 0.0000
vn -0.9335 0.3587 0.0000
vn -0.9432 0.3322 0.0000
vn -0.9522 0.3054 0.0000
vn -0.9605 0.2784 0.0000
vn -0.9679 0.2512 0.0000
vn -0.9714 0.2375 0.0000
vn 0.9834 -0.1813 -0.0000
vn 0.9802 -0.1979 -0.0000
vn 0.9730 -0.2309 -0.0000
vn 0.9646 -0.2637 -0.0000
vn 0.9552 -0.2961 0.0000
vn 0.9446 -0.3282 0.0000
vn 0.9330 -0.3600 0.0000
vn 0.9203 -0.3913 0.0000
vn 0.9065 -0.4222 0.0000
vn 0.8917 -0.4526 0.0000
usemtl None
s off
f 1/1/1 17/2/1 2/3/1
f 17/2/1 1/1/1 3/4/1
f 50/5/2 4/6/2 5/7/2
f 4/6/2 50/5/2 48/8/2
f 48/8/2 50/5/2 47/9/2
f 47/9/2 50/5/2 52/10/2
f 47/9/2 52/10/2 6/11/2
f 6/11/2 52/10/2 53/12/2
f 6/11/2 53/12/2 44/13/2
f 44/13/2 53/12/2 54/14/2
f 44/13/2 54/14/2 7/15/2
f 7/15/2 54/14/2 42/16/2
f 42/16/2 54/14/2 8/17/2
f 42/16/2 8/17/2 40/18/2
f 40/18/2 8/17/2 57/19/2
f 40/18/2 57/19/2 9/20/2
f 9/20/2 57/19/2 59/21/2
f 9/20/2 59/21/2 10/22/2
f 10/22/2 59/21/2 60/23/2
f 10/22/2 60/23/2 11/24/2
f 11/24/2 60/23/2 38/25/2
f 38/25/2 60/23/2 62/26/2
f 38/25/2 62/26/2 12/27/2
f 12/27/2 62/26/2 37/28/2
f 12/27/2 37/28/2 13/29/2
f 13/29/2 37/28/2 36/30/2
f 13/29/2 36/30/2 14/31/2
f 13/29/2 14/31/2 15/32/2
f 13/29/2 15/32/2 16/33/2
f 13/29/2 2/34/2 17/35/2
f 2/34/2 13/29/2 16/33/2
f 16/36/3 1/37/3 2/38/3
f 1/37/3 16/36/3 34/39/3
f 1/40/4 32/41/4 3/42/4
f 49/43/4 18/44/4 35/45/4
f 18/44/4 49/43/4 51/46/4
f 51/46/4 49/43/4 19/47/4
f 51/46/4 19/47/4 20/48/4
f 20/48/4 19/47/4 46/49/4
f 20/48/4 46/49/4 21/50/4
f 21/50/4 46/49/4 45/51/4
f 21/50/4 45/51/4 55/52/4
f 55/52/4 45/51/4 43/53/4
f 55/52/4 43/53/4 22/54/4
f 55/52/4 22/54/4 56/55/4
f 56/55/4 22/54/4 41/56/4
f 56/55/4 41/56/4 58/57/4
f 58/57/4 41/56/4 39/58/4
f 58/57/4 39/58/4 23/59/4
f 23/59/4 39/58/4 24/60/4
f 23/59/4 24/60/4 61/61/4
f 61/61/4 24/60/4 25/62/4
f 61/61/4 25/62/4 26/63/4
f 61/61/4 26/63/4 27/64/4
f 27/64/4 26/63/4 28/65/4
f 27/64/4 28/65/4 29/66/4
f 29/66/4 28/65/4 32/41/4
f 29/66/4 32/41/4 30/67/4
f 30/67/4 32/41/4 31/68/4
f 31/68/4 32/41/4 33/69/4
f 33/69/4 32/41/4 34/70/4
f 34/70/4 32/41/4 1/40/4
f 32/71/5 17/72/5 3/73/5
f 17/72/5 32/71/5 13/74/5
f 31/75/6 15/76/6 14/77/6
f 15/76/6 31/75/6 33/78/6
f 33/79/7 16/80/7 15/81/7
f 16/80/7 33/79/7 34/82/7
f 32/83/8 12/84/8 13/85/8
f 12/84/8 32/83/8 28/86/8
f 18/87/9 4/88/9 35/89/9
f 4/88/9 18/87/9 5/90/9
s 1
f 29/91/10 36/92/11 37/93/10
f 36/92/11 29/91/10 30/94/11
f 30/95/11 14/96/12 36/97/11
f 14/96/12 30/95/11 31/98/12
f 28/99/13 38/100/14 12/101/13
f 38/100/14 28/99/13 26/102/14
f 26/103/14 11/104/15 38/105/14
f 11/104/15 26/103/14 25/106/15
f 25/107/15 10/108/16 11/109/15
f 10/108/16 25/107/15 24/110/16
f 24/111/16 9/112/17 10/113/16
f 9/112/17 24/111/16 39/114/17
f 39/115/17 40/116/18 9/117/17
f 40/116/18 39/115/17 41/118/18
f 41/119/18 42/120/19 40/121/18
f 42/120/19 41/119/18 22/122/19
f 22/123/19 7/124/20 42/125/19
f 7/124/20 22/123/19 43/126/20
f 43/127/20 44/128/21 7/129/20
f 44/128/21 43/127/20 45/130/21
f 45/131/21 6/132/22 44/133/21
f 6/132/22 45/131/21 46/134/22
f 46/135/22 47/136/23 6/137/22
f 47/136/23 46/135/22 19/138/23
f 19/139/23 48/140/24 47/141/23
f 48/140/24 19/139/23 49/142/24
f 49/143/24 4/144/25 48/145/24
f 4/144/25 49/143/24 35/146/25
f 18/147/26 50/148/27 5/149/26
f 50/148/27 18/147/26 51/150/27
f 51/151/27 52/152/28 50/153/27
f 52/152/28 51/151/27 20/154/28
f 20/155/28 53/156/29 52/157/28
f 53/156/29 20/155/28 21/158/29
f 21/159/29 54/160/30 53/161/29
f 54/160/30 21/159/29 55/162/30
f 55/163/30 8/164/31 54/165/30
f 8/164/31 55/163/30 56/166/31
f 56/167/31 57/168/32 8/169/31
f 57/168/32 56/167/31 58/170/32
f 58/171/32 59/172/33 57/173/32
f 59/172/33 58/171/32 23/174/33
f 23/175/33 60/176/34 59/177/33
f 60/176/34 23/175/33 61/178/34
f 61/179/34 62/180/35 60/181/34
f 62/180/35 61/179/34 27/182/35
f 27/183/35 37/184/10 62/185/35
f 37/184/10 27/183/35 29/186/10
